ply
format ascii 1.0
element vertex 2073
property float32 x
property float32 y
property float32 z
end_header
-7.4442 1.9430 -2.0134
-6.0134 1.3197 -1.5384
-7.4585 1.8686 -1.9895
-6.1685 1.2905 -1.5562
-5.7752 1.0324 -1.3966
-7.4728 1.7944 -1.9658
-6.3310 1.2600 -1.5749
-7.0641 1.1917 -1.6842
-7.4871 1.7203 -1.9424
-6.5015 1.2279 -1.5947
-6.8210 1.0824 -1.6031
-6.9781 0.9683 -1.5935
-6.9770 0.6929 -1.5028
-6.8987 1.0259 -1.5983
-7.0134 0.9037 -1.5785
-6.9651 0.6235 -1.4781
-7.4032 0.4463 -1.5018
-7.0011 0.8330 -1.5530
-6.9534 0.5546 -1.4537
-7.3927 0.3738 -1.4769
-6.9890 0.7627 -1.5277
-7.4139 0.5190 -1.5269
-7.3824 0.3017 -1.4524
-7.1887 0.1547 -1.3710
-7.3234 -0.1251 -1.3102
-7.1022 0.2215 -1.3758
-7.2774 0.0863 -1.3662
-7.1379 -0.1908 -1.2564
-6.9678 -0.3879 -1.1665
-7.3425 0.0162 -1.3567
-6.9612 -0.2532 -1.2052
-6.9215 -0.4522 -1.1392
-6.7308 -0.0501 -1.2239
-6.8759 -0.5156 -1.1124
-6.7931 -0.3126 -1.1566
-6.7863 -0.6403 -1.0600
-6.8308 -0.5783 -1.0860
-6.6138 -0.8813 -0.9604
-6.7424 -0.7016 -1.0345
-6.5345 -1.1273 -0.8783
-6.7186 -0.9610 -0.9573
-7.1916 -1.3118 -0.9475
-6.6562 -1.0173 -0.9304
-6.6990 -0.7621 -1.0094
-7.1575 -1.3766 -0.9239
-6.5948 -1.0727 -0.9041
-6.6562 -0.8221 -0.9847
-32.9519 -6.9945 -4.0791
-30.1963 -6.1079 -3.8178
-32.9831 -7.3319 -3.9961
-32.3370 -7.5139 -3.8329
-31.7131 -7.6897 -3.6759
-42.6400 -24.7111 -1.6343
-39.9347 -24.7073 -1.2128
-36.7803 -24.7608 -0.7205
-41.7373 -24.7264 -1.4894
-39.1120 -24.7212 -1.0831
-36.0530 -24.7787 -0.6079
-40.7822 -24.6929 -1.3471
-36.0256 -25.2740 -0.5086
-38.3128 -24.7348 -0.9580
-36.0431 -26.3369 -0.3091
-36.0343 -25.8016 -0.4092
-37.5359 -24.7479 -0.8372
-36.0520 -26.8803 -0.2084
-36.0795 -28.5618 0.0985
-36.0610 -27.4320 -0.1068
-36.0890 -29.1405 0.2025
-36.0702 -27.9924 -0.0046
-21.5517 -18.4593 0.3103
-36.0986 -29.7288 0.3074
-21.6405 -20.0384 0.5735
-21.5529 -18.8248 0.3746
-21.6355 -18.1715 0.2476
-21.6418 -20.4326 0.6406
-21.6381 -19.2715 0.4412
-21.6431 -20.8343 0.7086
-21.6457 -21.6615 0.8469
-21.6393 -19.6514 0.5070
-21.6444 -21.2438 0.7773
-21.6471 -22.0875 0.9173
-21.6514 -23.4199 1.1341
-21.6485 -22.5223 0.9886
-21.6499 -22.9664 1.0608
-21.5668 -23.7885 1.2035
-7.2511 -8.1562 0.4298
-21.6540 -24.8396 1.3601
-21.6556 -25.3355 1.4377
-21.6572 -25.8431 1.5166
-21.6589 -26.3630 1.5969
-21.6606 -26.8958 1.6785
-21.6623 -27.4419 1.7615
-21.6641 -28.0021 1.8461
-21.6660 -28.5770 1.9322
-7.3957 1.8801 -1.5924
-7.4099 1.8067 -1.5696
-7.4241 1.7334 -1.5469
-7.4383 1.6602 -1.5244
-6.0117 1.2802 -1.2116
-6.1183 1.2406 -1.2125
-6.2284 1.1998 -1.2136
-6.3421 1.1577 -1.2148
-5.6372 0.9723 -1.0613
-6.1893 1.0056 -1.1451
-6.8990 1.0522 -1.2542
-7.3955 1.0544 -1.3208
-7.3648 0.9771 -1.2920
-7.3346 0.9007 -1.2636
-6.5797 0.7433 -1.1130
-6.6529 0.6862 -1.1047
-6.7276 0.6281 -1.0964
-6.8041 0.5688 -1.0880
-6.8824 0.5083 -1.0796
-6.9625 0.4465 -1.0712
-7.0445 0.3833 -1.0626
-7.1093 0.3179 -1.0512
-7.1002 0.2488 -1.0288
-7.6918 0.1951 -1.0918
-7.2317 0.1136 -1.0053
-7.0497 0.0427 -0.9595
-6.8997 -0.2911 -0.8399
-6.8769 -0.0247 -0.9160
-6.8543 -0.3553 -0.8150
-7.6449 -0.1012 -0.9962
-6.8095 -0.4188 -0.7904
-6.9923 -0.1601 -0.8911
-6.7653 -0.4815 -0.7663
-6.7216 -0.5435 -0.7425
-6.9457 -0.2260 -0.8653
-6.6785 -0.6047 -0.7191
-6.6604 -0.7974 -0.6617
-6.6359 -0.6653 -0.6960
-6.5991 -0.8545 -0.6374
-6.7229 -0.7394 -0.6865
-6.5387 -0.9107 -0.6136
-7.1962 -1.1437 -0.6359
-7.2304 -1.0780 -0.6587
-7.1622 -1.2089 -0.6133
-30.2255 -6.0025 -2.3413
-7.1284 -1.2738 -0.5910
-39.4320 -8.2253 -2.9474
-39.5275 -7.4558 -3.1693
-48.6675 -10.6407 -3.5057
-47.9756 -10.9733 -3.3259
-42.7171 -19.4260 -0.5120
-44.3229 -19.6431 -0.6550
-41.2126 -19.2233 -0.3786
-38.3580 -19.2618 -0.0272
-39.8000 -19.0337 -0.2536
-38.3009 -19.6982 0.0820
-38.4784 -18.8597 -0.1365
-38.3740 -20.2066 0.1921
-21.7214 -11.9794 0.2343
-38.3821 -20.6868 0.3028
-21.6073 -12.1902 0.2960
-21.6100 -13.0324 0.4874
-21.6082 -12.4677 0.3594
-21.6091 -12.7483 0.4232
-21.5353 -13.2732 0.5501
-21.6220 -14.2100 0.7492
-21.5278 -13.5581 0.6148
-21.6230 -14.5127 0.8160
-21.6211 -13.9111 0.6831
-21.6240 -14.8197 0.8832
-21.6260 -15.4465 1.0196
-21.6250 -15.1309 0.9511
-21.6270 -15.7668 1.0887
-21.6301 -16.7568 1.3002
-21.6280 -16.0918 1.1585
-21.6312 -17.0971 1.3722
-21.6291 -16.4217 1.2290
-21.6323 -17.4430 1.4450
-21.6345 -18.1520 1.5931
-21.6334 -17.7946 1.5187
-21.5508 -18.4430 1.6620
-21.6384 -19.6448 1.9004
-21.6396 -20.0353 1.9798
-21.5520 -18.8115 1.7380
-21.6409 -20.4332 2.0603
-21.6372 -19.2613 1.8221
-21.6422 -20.8388 2.1420
-21.6435 -21.2525 2.2249
-21.6491 -22.9937 2.5697
-21.6449 -21.6744 2.3090
-21.6462 -22.1050 2.3945
-21.8705 -23.6908 2.6865
-21.6476 -22.5446 2.4814
-7.3327 -8.1013 0.9316
-7.2617 -8.1831 0.9537
-19.7974 -22.7565 2.6865
-19.6931 -23.0919 2.7599
-19.6219 -23.4727 2.8389
-19.0143 -23.2068 2.8389
-18.4318 -22.9541 2.8389
-17.8729 -22.7134 2.8389
-17.3360 -22.4842 2.8389
-7.3635 1.7451 -1.1646
-7.3776 1.6727 -1.1427
-7.3918 1.6003 -1.1209
-7.4059 1.5281 -1.0992
-7.4200 1.4559 -1.0776
-6.9641 1.2962 -0.9893
-7.2829 1.2824 -1.0117
-7.4145 1.2315 -1.0067
-7.4127 1.1573 -0.9835
-6.2332 0.9113 -0.8077
-5.9908 0.8166 -0.7579
-6.3804 0.8068 -0.7877
-6.5864 0.7681 -0.7932
-6.7123 0.7169 -0.7881
-6.8430 0.6639 -0.7829
-7.0357 0.6140 -0.7840
-7.2987 0.5658 -0.7916
-7.2531 0.4917 -0.7652
-7.2082 0.4187 -0.7393
-7.2270 0.3498 -0.7200
-7.2560 0.2810 -0.7018
-7.2854 0.2116 -0.6835
-7.3150 0.1418 -0.6651
-7.0179 0.0683 -0.6178
-6.9709 0.0006 -0.5936
-6.9245 -0.0662 -0.5699
-6.8788 -0.1322 -0.5465
-6.8337 -0.1972 -0.5234
-6.7891 -0.2615 -0.5007
-6.7452 -0.3250 -0.4784
-6.7018 -0.3876 -0.4564
-6.6589 -0.4496 -0.4347
-6.7287 -0.5195 -0.4203
-6.6662 -0.5793 -0.3976
-6.6048 -0.6381 -0.3754
-6.5445 -0.6960 -0.3537
-7.2117 -0.8373 -0.3695
-7.1786 -0.9036 -0.3478
-7.1456 -0.9695 -0.3262
-7.1130 -1.0349 -0.3048
-7.0805 -1.0999 -0.2837
-39.3179 -6.4962 -1.4654
-39.1712 -6.8602 -1.3506
-39.1778 -7.2510 -1.2413
-30.2527 -5.9011 -0.8740
-30.1001 -6.1729 -0.7854
-21.5959 -7.5741 0.2940
-21.5966 -7.8095 0.3566
-21.5096 -8.0140 0.4178
-21.5104 -8.2520 0.4808
-21.5150 -8.4934 0.5441
-21.5958 -8.7677 0.6100
-21.5966 -9.0125 0.6741
-21.5973 -9.2593 0.7386
-21.5981 -9.5084 0.8034
-21.5989 -9.7597 0.8687
-21.6013 -10.5279 1.0668
-21.5997 -10.0133 0.9343
-21.6021 -10.7890 1.1338
-21.6005 -10.2694 1.0004
-21.6030 -11.0528 1.2013
-21.6047 -11.5889 1.3377
-21.6038 -11.3195 1.2692
-21.6055 -11.8614 1.4067
-21.6082 -12.6977 1.6173
-21.6064 -12.1370 1.4763
-21.6091 -12.9832 1.6887
-21.6073 -12.4157 1.5465
-21.6202 -13.8667 1.9079
-21.5343 -13.2258 1.7547
-21.6211 -14.1672 1.9823
-21.5269 -13.5122 1.8265
-21.6221 -14.4718 2.0574
-21.6230 -14.7806 2.1333
-21.6240 -15.0938 2.2101
-21.6250 -15.4115 2.2877
-21.6281 -16.3933 2.5264
-21.6261 -15.7338 2.3663
-22.2822 -17.2360 2.6867
-21.6271 -16.0611 2.4459
-21.5973 -17.0477 2.6865
-20.3254 -16.7024 2.6865
-20.9464 -16.8705 2.6865
-19.7321 -16.5428 2.6865
-19.1269 -17.0226 2.8389
-19.6807 -16.8323 2.7588
-18.5984 -16.8838 2.8389
-18.0904 -16.7513 2.8389
-19.6668 -17.1587 2.8373
-17.6019 -16.6247 2.8389
-17.1314 -16.5038 2.8389
-15.4100 -16.0691 2.8389
-16.6780 -16.3880 2.8389
-15.0152 -15.9714 2.8389
-16.2406 -16.2771 2.8389
-14.6330 -15.8776 2.8389
-15.8182 -16.1710 2.8389
-7.3098 -8.0913 1.4550
-13.9038 -15.7010 2.8389
-13.5555 -15.6178 2.8389
-13.2174 -15.5378 2.8389
-12.8888 -15.4608 2.8389
-12.5693 -15.3867 2.8389
-12.2585 -15.3153 2.8389
-11.9560 -15.2465 2.8389
-7.2312 1.5904 -0.7402
-7.2298 1.5166 -0.7177
-7.2284 1.4432 -0.6954
-7.2270 1.3702 -0.6732
-7.2257 1.2975 -0.6511
-7.2244 1.2251 -0.6292
-7.2231 1.1530 -0.6074
-7.1206 1.0660 -0.5775
-7.2205 1.0096 -0.5641
-7.2193 0.9383 -0.5426
-7.1407 0.8580 -0.5156
-7.1380 0.7877 -0.4944
-6.1884 0.6224 -0.4105
-6.3599 0.5776 -0.4033
-6.4778 0.5252 -0.3919
-6.5998 0.4710 -0.3802
-6.7264 0.4147 -0.3680
-6.8579 0.3564 -0.3554
-6.9944 0.2958 -0.3424
-7.0948 0.2315 -0.3269
-6.9501 0.1596 -0.3003
-6.9040 0.0919 -0.2786
-6.8586 0.0251 -0.2572
-6.8137 -0.0408 -0.2360
-6.7694 -0.1059 -0.2152
-6.7257 -0.1701 -0.1947
-6.6825 -0.2335 -0.1745
-6.7356 -0.3005 -0.1567
-6.6730 -0.3622 -0.1363
-6.6116 -0.4229 -0.1163
-6.5511 -0.4825 -0.0966
-7.1190 -0.5934 -0.0848
-7.0866 -0.6596 -0.0643
-7.0544 -0.7253 -0.0440
-7.0225 -0.7906 -0.0238
-6.9908 -0.8554 -0.0038
-39.1426 -5.1732 0.0902
-39.1491 -5.5590 0.2019
-39.1557 -5.9460 0.3138
-21.8556 -3.5351 0.2377
-21.5831 -3.7052 0.2967
-21.5838 -3.9202 0.3587
-21.5845 -4.1361 0.4209
-21.5851 -4.3528 0.4833
-21.5858 -4.5704 0.5458
-21.5865 -4.7890 0.6086
-21.5872 -5.0086 0.6715
-21.5879 -5.2293 0.7347
-21.5886 -5.4511 0.7981
-21.5893 -5.6740 0.8618
-21.5900 -5.8982 0.9257
-21.5907 -6.1236 0.9900
-21.5914 -6.3504 1.0545
-21.5921 -6.5785 1.1193
-21.5928 -6.8081 1.1844
-21.5935 -7.0393 1.2499
-21.5943 -7.2719 1.3158
-21.5950 -7.5063 1.3820
-21.5957 -7.7423 1.4487
-21.5087 -7.9477 1.5096
-21.5095 -8.1864 1.5768
-21.5141 -8.4285 1.6447
-21.5949 -8.7033 1.7193
-21.5956 -8.9488 1.7881
-21.5964 -9.1965 1.8575
-21.5972 -9.4464 1.9275
-21.5980 -9.6986 1.9980
-21.5988 -9.9531 2.0690
-21.5996 -10.2101 2.1407
-21.6004 -10.4696 2.2129
-21.6012 -10.7318 2.2859
-21.6021 -10.9967 2.3595
-21.6029 -11.2645 2.4338
-21.6037 -11.5351 2.5088
-21.6046 -11.8088 2.5845
-21.8116 -12.2010 2.6865
-21.1966 -12.1312 2.6865
-20.6091 -12.0648 2.6865
-20.0473 -12.0017 2.6865
-19.6801 -12.0459 2.7100
-19.6673 -12.3054 2.7817
-19.5489 -12.5005 2.8389
-19.0469 -12.4452 2.8389
-18.5642 -12.3924 2.8389
-18.0997 -12.3418 2.8389
-17.6522 -12.2934 2.8389
-17.2207 -12.2470 2.8389
-16.8044 -12.2026 2.8389
-16.4022 -12.1599 2.8389
-16.0135 -12.1189 2.8389
-15.6375 -12.0795 2.8389
-15.2734 -12.0417 2.8389
-14.9206 -12.0053 2.8389
-14.5786 -11.9702 2.8389
-14.2468 -11.9365 2.8389
-13.9247 -11.9039 2.8389
-13.6117 -11.8726 2.8389
-13.3075 -11.8423 2.8389
-13.0116 -11.8132 2.8389
-12.7236 -11.7850 2.8389
-12.4430 -11.7578 2.8389
-12.1697 -11.7316 2.8389
-11.9032 -11.7063 2.8389
-11.6432 -11.6817 2.8389
-11.3895 -11.6580 2.8389
-11.1417 -11.6351 2.8389
-10.8996 -11.6130 2.8389
-10.6630 -11.5915 2.8389
-7.2979 -8.0949 1.9861
-10.2051 -11.5506 2.8389
-9.9835 -11.5312 2.8389
-9.7664 -11.5123 2.8389
-9.0408 -10.8770 2.6865
-8.8435 -10.8603 2.6865
-8.6500 -10.8440 2.6865
-7.0450 1.2189 -0.2730
-7.0441 1.1487 -0.2524
-7.0431 1.0788 -0.2319
-7.0422 1.0091 -0.2115
-7.0413 0.9397 -0.1911
-7.0404 0.8704 -0.1708
-7.0395 0.8014 -0.1506
-6.8314 0.7109 -0.1265
-7.0376 0.6638 -0.1101
-7.0367 0.5952 -0.0900
-7.0357 0.5268 -0.0699
-6.4052 0.4175 -0.0453
-6.8522 0.3802 -0.0290
-7.2312 0.3313 -0.0100
-7.1163 0.2573 0.0105
-7.0059 0.1856 0.0302
-6.9382 0.1168 0.0497
-6.8719 0.0494 0.0688
-6.8068 -0.0168 0.0875
-6.7430 -0.0817 0.1059
-6.5552 -0.1427 0.1217
-6.6187 -0.2080 0.1417
-6.5582 -0.2694 0.1592
-7.0294 -0.3568 0.1907
-6.9978 -0.4230 0.2099
-6.9664 -0.4886 0.2290
-6.9352 -0.5538 0.2479
-6.9043 -0.6185 0.2667
-21.5805 -2.1434 0.8959
-21.5811 -2.3543 0.9585
-21.5818 -2.5656 1.0212
-21.4957 -2.7663 1.0797
-21.4964 -2.9780 1.1426
-21.5000 -3.1907 1.2058
-21.5815 -3.4165 1.2739
-21.5822 -3.6310 1.3377
-21.5829 -3.8463 1.4017
-21.5835 -4.0624 1.4660
-21.5842 -4.2794 1.5307
-21.5849 -4.4974 1.5956
-21.5856 -4.7163 1.6608
-21.5863 -4.9362 1.7264
-21.5870 -5.1572 1.7923
-21.5877 -5.3794 1.8586
-21.5884 -5.6027 1.9252
-21.5891 -5.8273 1.9923
-21.5898 -6.0532 2.0597
-21.5905 -6.2804 2.1276
-21.5912 -6.5090 2.1960
-21.5919 -6.7392 2.2648
-21.5926 -6.9708 2.3341
-21.5933 -7.2041 2.4040
-21.5941 -7.4390 2.4743
-21.5948 -7.6756 2.5452
-21.5090 -7.8824 2.6062
-21.5784 -8.1476 2.6865
-21.0113 -8.1689 2.6865
-20.4688 -8.1892 2.6865
-19.9492 -8.2085 2.6865
-19.6713 -8.3203 2.7169
-19.6594 -8.5432 2.7837
-19.5630 -8.7302 2.8389
-19.0959 -8.7472 2.8389
-18.6461 -8.7636 2.8389
-18.2126 -8.7792 2.8389
-17.7946 -8.7943 2.8389
-17.3911 -8.8087 2.8389
-17.0014 -8.8225 2.8389
-16.6245 -8.8358 2.8389
-16.2599 -8.8487 2.8389
-15.9069 -8.8610 2.8389
-15.5648 -8.8729 2.8389
-15.2332 -8.8843 2.8389
-14.9115 -8.8953 2.8389
-14.5991 -8.9059 2.8389
-14.2957 -8.9162 2.8389
-14.0007 -8.9261 2.8389
-13.7138 -8.9356 2.8389
-13.4346 -8.9449 2.8389
-13.1627 -8.9537 2.8389
-12.8979 -8.9624 2.8389
-12.6397 -8.9707 2.8389
-12.3880 -8.9788 2.8389
-12.1423 -8.9867 2.8389
-11.9025 -8.9942 2.8389
-11.6682 -9.0015 2.8389
-11.4393 -9.0087 2.8389
-11.2156 -9.0156 2.8389
-10.9967 -9.0223 2.8389
-10.7826 -9.0287 2.8389
-10.5730 -9.0350 2.8389
-10.3677 -9.0411 2.8389
-10.1666 -9.0470 2.8389
-9.9695 -9.0528 2.8389
-9.7763 -9.0583 2.8389
-9.0721 -8.5772 2.6865
-8.8961 -8.5822 2.6865
-8.7233 -8.5870 2.6865
-8.5537 -8.5917 2.6865
-8.3870 -8.5963 2.6865
-8.2233 -8.6007 2.6865
-8.0623 -8.6050 2.6865
-7.9041 -8.6092 2.6865
-7.2854 -8.0986 2.5260
-7.5952 -8.6172 2.6865
-7.4444 -8.6211 2.6865
-7.2960 -8.6248 2.6865
-7.1498 -8.6284 2.6865
-7.0058 -8.6320 2.6865
-40.3746 22.7916 -3.9062
-41.2493 22.7572 -3.8512
-37.2992 9.5981 -0.4977
-37.8727 9.3566 -0.3964
-37.8150 8.9559 -0.2873
-37.8582 8.5810 -0.1793
-37.8647 8.1991 -0.0712
-37.8712 7.8187 0.0367
-37.8408 7.4326 0.1442
-37.9115 7.0673 0.2521
-37.9179 6.6907 0.3596
-21.5556 3.5895 0.2654
-21.5562 3.3763 0.3264
-21.5569 3.1638 0.3873
-6.8721 0.9410 0.1429
-6.8715 0.8735 0.1622
-6.8708 0.8062 0.1816
-6.8700 0.7390 0.2009
-6.8693 0.6720 0.2203
-7.5576 0.6659 0.2637
-7.4290 0.5824 0.2802
-7.3049 0.5019 0.2961
-6.5632 0.3874 0.2846
-7.1361 0.3522 0.3297
-7.0962 0.2817 0.3479
-6.6328 0.1992 0.3440
-6.7912 0.1384 0.3716
-7.0362 0.0755 0.4050
-7.0046 0.0076 0.4232
-6.9733 -0.0597 0.4412
-6.9422 -0.1265 0.4592
-6.9113 -0.1927 0.4770
-6.8806 -0.2583 0.4947
-6.8502 -0.3235 0.5124
-6.8201 -0.3881 0.5299
-21.5776 -1.4372 1.7394
-21.5783 -1.6469 1.8026
-21.5789 -1.8570 1.8660
-21.5796 -2.0674 1.9296
-21.5802 -2.2784 1.9936
-21.5809 -2.4899 2.0578
-21.4948 -2.6911 2.1138
-21.4955 -2.9029 2.1784
-21.4991 -3.1158 2.2436
-21.5806 -3.3415 2.3176
-21.5813 -3.5562 2.3835
-21.5820 -3.7718 2.4497
-21.5826 -3.9882 2.5164
-21.5833 -4.2054 2.5835
-21.8732 -4.4829 2.6865
-21.3270 -4.5874 2.6865
-20.8042 -4.6871 2.6865
-20.3031 -4.7823 2.6865
-19.8333 -4.8736 2.6880
-19.6625 -5.0376 2.7284
-19.6514 -5.2392 2.7909
-19.5375 -5.4135 2.8389
-19.1023 -5.4942 2.8389
-18.6828 -5.5716 2.8389
-18.2780 -5.6460 2.8389
-17.8871 -5.7174 2.8389
-17.5093 -5.7860 2.8389
-17.1439 -5.8521 2.8389
-16.7903 -5.9157 2.8389
-16.4478 -5.9769 2.8389
-16.1158 -6.0359 2.8389
-15.7938 -6.0927 2.8389
-15.4814 -6.1476 2.8389
-15.1780 -6.2006 2.8389
-14.8832 -6.2517 2.8389
-14.5966 -6.3012 2.8389
-14.3178 -6.3489 2.8389
-14.0465 -6.3951 2.8389
-13.7822 -6.4398 2.8389
-13.5248 -6.4830 2.8389
-13.2738 -6.5249 2.8389
-13.0291 -6.5654 2.8389
-12.7903 -6.6047 2.8389
-12.5571 -6.6428 2.8389
-12.3295 -6.6797 2.8389
-12.1070 -6.7155 2.8389
-11.8895 -6.7502 2.8389
-11.6769 -6.7840 2.8389
-11.4688 -6.8167 2.8389
-11.2652 -6.8484 2.8389
-11.0658 -6.8793 2.8389
-10.8705 -6.9093 2.8389
-10.6791 -6.9384 2.8389
-10.4916 -6.9667 2.8389
-10.3076 -6.9942 2.8389
-10.1272 -7.0210 2.8389
-9.9501 -7.0470 2.8389
-9.7763 -7.0723 2.8389
-9.0900 -6.7160 2.6865
-8.9314 -6.7386 2.6865
-8.7755 -6.7607 2.6865
-8.6223 -6.7822 2.6865
-8.4717 -6.8031 2.6865
-8.3235 -6.8235 2.6865
-8.1777 -6.8434 2.6865
-8.0343 -6.8627 2.6865
-7.8931 -6.8815 2.6865
-7.7541 -6.8999 2.6865
-7.6172 -6.9177 2.6865
-7.4822 -6.9351 2.6865
-7.3493 -6.9521 2.6865
-7.2182 -6.9686 2.6865
-7.0890 -6.9847 2.6865
-6.9616 -7.0005 2.6865
-6.8358 -7.0158 2.6865
-6.7118 -7.0307 2.6865
-6.5893 -7.0453 2.6865
-6.4685 -7.0595 2.6865
-6.3491 -7.0733 2.6865
-6.2312 -7.0868 2.6865
-6.1147 -7.0999 2.6865
-5.9995 -7.1127 2.6865
-5.8858 -7.1252 2.6865
-36.6210 21.2315 -1.6495
-37.4783 21.2454 -1.5722
-38.3675 21.2605 -1.4916
-39.2894 21.2761 -1.4077
-40.2458 21.2923 -1.3201
-37.5981 19.4278 -1.1201
-37.7088 19.0248 -1.0107
-37.7165 18.5729 -0.8988
-37.7240 18.1253 -0.7875
-37.7316 17.6818 -0.6768
-37.7390 17.2424 -0.5667
-37.1813 16.5551 -0.4502
-37.3828 16.2140 -0.3444
-37.9990 16.0470 -0.2407
-38.6394 15.8797 -0.1339
-39.3361 15.7240 -0.0240
-40.4770 15.7289 0.0905
-41.7188 15.7499 0.2115
-43.0288 15.7721 0.3397
-21.4584 7.6316 0.2298
-21.4592 7.3997 0.2901
-21.5436 7.1973 0.3515
-21.5443 6.9675 0.4117
-21.5450 6.7392 0.4717
-21.5457 6.5123 0.5317
-21.5464 6.2868 0.5915
-21.5471 6.0625 0.6512
-21.5478 5.8394 0.7108
-21.5485 5.6176 0.7704
-21.5492 5.3968 0.8299
-21.5499 5.1771 0.8894
-21.5506 4.9585 0.9488
-21.5513 4.7408 1.0082
-21.5520 4.5240 1.0676
-21.5526 4.3081 1.1270
-21.5533 4.0930 1.1864
-21.5540 3.8786 1.2459
-21.5547 3.6650 1.3054
-21.5553 3.4521 1.3649
-21.5560 3.2398 1.4245
-21.5567 3.0281 1.4842
-21.5573 2.8169 1.5440
-21.4806 2.5969 1.5981
-21.4749 2.3868 1.6573
-21.4755 2.1778 1.7172
-21.4831 1.9698 1.7778
-21.5669 1.7683 1.8450
-21.5676 1.5594 1.9056
-21.5682 1.3507 1.9663
-7.1160 0.3768 0.6688
-7.0763 0.3064 0.6851
-21.5702 0.7258 2.1496
-21.5708 0.5177 2.2111
-21.5715 0.3096 2.2729
-21.5721 0.1015 2.3349
-21.5728 -0.1067 2.3971
-6.7667 -0.0988 0.7715
-6.7373 -0.1634 0.7877
-21.5747 -0.7319 2.5855
-21.8813 -0.9540 2.6865
-21.3677 -1.1387 2.6865
-20.8753 -1.3150 2.6865
-20.4026 -1.4835 2.6865
-19.9484 -1.6447 2.6865
-19.6600 -1.8127 2.7069
-19.6496 -2.0040 2.7651
-19.6392 -2.1954 2.8236
-19.3325 -2.3511 2.8389
-18.9339 -2.4893 2.8389
-18.5488 -2.6220 2.8389
-18.1765 -2.7498 2.8389
-17.8164 -2.8726 2.8389
-17.4678 -2.9909 2.8389
-17.1301 -3.1050 2.8389
-16.8028 -3.2149 2.8389
-16.4853 -3.3210 2.8389
-16.1771 -3.4233 2.8389
-15.8778 -3.5221 2.8389
-15.5870 -3.6176 2.8389
-15.3042 -3.7098 2.8389
-15.0292 -3.7991 2.8389
-14.7614 -3.8854 2.8389
-14.5007 -3.9689 2.8389
-14.2467 -4.0498 2.8389
-13.9991 -4.1281 2.8389
-13.7576 -4.2040 2.8389
-13.5219 -4.2776 2.8389
-13.2919 -4.3490 2.8389
-13.0673 -4.4182 2.8389
-12.8478 -4.4853 2.8389
-12.6333 -4.5505 2.8389
-12.4235 -4.6138 2.8389
-12.2183 -4.6753 2.8389
-12.0175 -4.7350 2.8389
-11.8210 -4.7930 2.8389
-11.6284 -4.8495 2.8389
-11.4398 -4.9043 2.8389
-11.2550 -4.9577 2.8389
-11.0738 -5.0096 2.8389
-10.8961 -5.0601 2.8389
-10.7217 -5.1093 2.8389
-10.5506 -5.1571 2.8389
-10.3826 -5.2037 2.8389
-10.2177 -5.2491 2.8389
-10.0557 -5.2933 2.8389
-9.8965 -5.3364 2.8389
-9.7400 -5.3784 2.8389
-9.0715 -5.1283 2.6865
-8.9283 -5.1661 2.6865
-8.7875 -5.2028 2.6865
-8.6489 -5.2387 2.6865
-8.5124 -5.2737 2.6865
-8.3781 -5.3078 2.6865
-8.2459 -5.3411 2.6865
-8.1156 -5.3736 2.6865
-7.9872 -5.4053 2.6865
-7.8607 -5.4362 2.6865
-7.7359 -5.4664 2.6865
-7.6130 -5.4958 2.6865
-7.4917 -5.5246 2.6865
-7.3720 -5.5527 2.6865
-7.2540 -5.5801 2.6865
-7.1375 -5.6068 2.6865
-7.0225 -5.6330 2.6865
-6.9089 -5.6585 2.6865
-6.7967 -5.6834 2.6865
-6.6859 -5.7078 2.6865
-6.5765 -5.7316 2.6865
-6.4683 -5.7548 2.6865
-6.3614 -5.7775 2.6865
-6.2557 -5.7996 2.6865
-6.1512 -5.8213 2.6865
-6.0478 -5.8424 2.6865
-5.9456 -5.8631 2.6865
-5.8444 -5.8832 2.6865
-5.7443 -5.9031 2.6865
-5.7214 -6.0021 2.7227
-5.7142 -6.1200 2.7674
-5.7068 -6.2402 2.8131
-5.6575 -6.3163 2.8389
-5.5569 -6.3350 2.8389
-5.4572 -6.3530 2.8389
-5.3584 -6.3707 2.8389
-36.2993 21.6044 0.2603
-21.4481 12.4870 0.2139
-21.5364 12.2621 0.2747
-21.5373 11.9894 0.3344
-21.5381 11.7196 0.3939
-21.5390 11.4528 0.4530
-21.5398 11.1887 0.5120
-21.5406 10.9272 0.5707
-21.5415 10.6685 0.6292
-21.5423 10.4121 0.6876
-21.5431 10.1582 0.7457
-21.5439 9.9067 0.8037
-21.5447 9.6574 0.8615
-21.5454 9.4102 0.9192
-21.5462 9.1652 0.9768
-21.5470 8.9222 1.0343
-21.5478 8.6811 1.0916
-21.5485 8.4419 1.1489
-21.5493 8.2046 1.2061
-21.5500 7.9689 1.2633
-21.4575 7.7015 1.3146
-21.4582 7.4702 1.3715
-21.4685 7.2437 1.4289
-21.5434 7.0395 1.4908
-21.5441 6.8118 1.5478
-21.5448 6.5854 1.6048
-21.5455 6.3603 1.6619
-21.5462 6.1366 1.7189
-21.5469 5.9140 1.7760
-21.5476 5.6925 1.8332
-21.5483 5.4722 1.8904
-21.5490 5.2529 1.9477
-21.5497 5.0347 2.0051
-21.5504 4.8173 2.0626
-21.5510 4.6009 2.1202
-21.5517 4.3853 2.1780
-21.5524 4.1706 2.2359
-21.5531 3.9565 2.2939
-21.5537 3.7432 2.3520
-21.5544 3.5306 2.4104
-21.5551 3.3185 2.4689
-21.5557 3.1071 2.5276
-21.5564 2.8962 2.5865
-21.8906 2.7273 2.6865
-21.4108 2.4589 2.6865
-20.9501 2.2022 2.6865
-20.5070 1.9565 2.6865
-20.0806 1.7211 2.6865
-19.6696 1.4955 2.6865
-19.6478 1.3038 2.7387
-7.0962 0.4023 1.0091
-7.0568 0.3320 1.0235
-7.0178 0.2624 1.0379
-18.8309 0.5226 2.8389
-18.4778 0.3346 2.8389
-18.1359 0.1535 2.8389
-17.8045 -0.0211 2.8389
-17.4831 -0.1895 2.8389
-17.1712 -0.3520 2.8389
-16.8684 -0.5089 2.8389
-16.5742 -0.6604 2.8389
-16.2882 -0.8068 2.8389
-16.0100 -0.9484 2.8389
-15.7393 -1.0854 2.8389
-15.4758 -1.2179 2.8389
-15.2190 -1.3463 2.8389
-14.9688 -1.4706 2.8389
-14.7248 -1.5911 2.8389
-14.4868 -1.7078 2.8389
-14.2545 -1.8211 2.8389
-14.0277 -1.9309 2.8389
-13.8062 -2.0374 2.8389
-13.5897 -2.1409 2.8389
-13.3781 -2.2414 2.8389
-13.1711 -2.3389 2.8389
-12.9687 -2.4338 2.8389
-12.7705 -2.5259 2.8389
-12.5765 -2.6156 2.8389
-12.3864 -2.7027 2.8389
-12.2003 -2.7875 2.8389
-12.0178 -2.8699 2.8389
-11.8389 -2.9502 2.8389
-11.6634 -3.0284 2.8389
-11.4913 -3.1044 2.8389
-11.3224 -3.1786 2.8389
-11.1565 -3.2508 2.8389
-10.9937 -3.3211 2.8389
-10.8337 -3.3897 2.8389
-10.6766 -3.4565 2.8389
-10.5221 -3.5217 2.8389
-10.3703 -3.5853 2.8389
-10.2210 -3.6473 2.8389
-10.0741 -3.7077 2.8389
-9.9296 -3.7668 2.8389
-9.7874 -3.8243 2.8389
-9.1295 -3.6722 2.6865
-8.9991 -3.7242 2.6865
-8.8706 -3.7748 2.6865
-8.7440 -3.8244 2.6865
-8.6194 -3.8727 2.6865
-8.4965 -3.9200 2.6865
-8.3753 -3.9661 2.6865
-8.2559 -4.0111 2.6865
-8.1381 -4.0552 2.6865
-8.0219 -4.0982 2.6865
-7.9072 -4.1403 2.6865
-7.7941 -4.1814 2.6865
-7.6824 -4.2216 2.6865
-7.5722 -4.2610 2.6865
-7.4633 -4.2994 2.6865
-7.3558 -4.3369 2.6865
-7.2496 -4.3737 2.6865
-7.1446 -4.4096 2.6865
-7.0409 -4.4448 2.6865
-6.9384 -4.4792 2.6865
-6.8371 -4.5128 2.6865
-6.7369 -4.5457 2.6865
-6.6378 -4.5779 2.6865
-6.5398 -4.6094 2.6865
-6.4429 -4.6402 2.6865
-6.3470 -4.6703 2.6865
-6.2520 -4.6998 2.6865
-6.1581 -4.7287 2.6865
-6.0651 -4.7569 2.6865
-5.9730 -4.7846 2.6865
-5.8818 -4.8116 2.6865
-5.7915 -4.8381 2.6865
-5.7235 -4.8823 2.6966
-5.7171 -4.9797 2.7361
-5.7106 -5.0787 2.7765
-5.7039 -5.1796 2.8176
-5.6558 -5.2437 2.8389
-5.5654 -5.2682 2.8389
-5.4758 -5.2922 2.8389
-5.3870 -5.3157 2.8389
-5.2988 -5.3387 2.8389
-5.2114 -5.3612 2.8389
-5.1247 -5.3832 2.8389
-5.0387 -5.4048 2.8389
-4.9533 -5.4258 2.8389
-4.8686 -5.4464 2.8389
-4.7844 -5.4666 2.8389
-4.7010 -5.4863 2.8389
-21.5290 13.1501 1.2946
-21.4463 12.8193 1.3433
-21.4472 12.5428 1.3968
-21.5355 12.3195 1.4562
-21.5363 12.0480 1.5098
-21.5372 11.7795 1.5633
-21.5380 11.5138 1.6167
-21.5389 11.2509 1.6701
-21.5397 10.9906 1.7235
-21.5405 10.7328 1.7768
-21.5413 10.4775 1.8300
-21.5421 10.2245 1.8833
-21.5429 9.9739 1.9366
-21.5437 9.7255 1.9898
-21.5445 9.4792 2.0431
-21.5453 9.2350 2.0965
-21.5460 8.9928 2.1498
-21.5468 8.7525 2.2033
-21.5476 8.5140 2.2567
-21.5483 8.2774 2.3103
-21.5491 8.0424 2.3639
-21.4566 7.7753 2.4072
-21.4573 7.5447 2.4608
-21.4676 7.3188 2.5156
-21.5424 7.1154 2.5783
-21.9856 7.0298 2.6866
-21.5412 6.6616 2.6865
-21.1139 6.3092 2.6865
-20.7021 5.9714 2.6865
-20.3049 5.6474 2.6865
-19.9214 5.3362 2.6865
-19.6489 5.0625 2.6999
-19.6388 4.8604 2.7489
-19.6300 4.6595 2.7982
-19.5605 4.4459 2.8389
-19.2169 4.1750 2.8389
-18.8838 3.9139 2.8389
-18.5606 3.6621 2.8389
-18.2469 3.4192 2.8389
-17.9423 3.1847 2.8389
-17.6462 2.9582 2.8389
-17.3583 2.7392 2.8389
-17.0782 2.5276 2.8389
-16.8056 2.3230 2.8389
-16.5401 2.1249 2.8389
-16.2814 1.9331 2.8389
-16.0293 1.7474 2.8389
-15.7833 1.5675 2.8389
-15.5434 1.3931 2.8389
-15.3092 1.2240 2.8389
-15.0806 1.0600 2.8389
-7.1067 0.4309 1.3579
-7.0683 0.3604 1.3708
-7.0307 0.2906 1.3836
-7.2190 0.2288 1.4415
-14.0123 0.3091 2.8389
-13.8124 0.1715 2.8389
-13.6166 0.0377 2.8389
-13.4249 -0.0924 2.8389
-13.2370 -0.2189 2.8389
-13.0529 -0.3421 2.8389
-12.8723 -0.4619 2.8389
-12.6953 -0.5785 2.8389
-12.5216 -0.6923 2.8389
-12.3511 -0.8029 2.8389
-12.1838 -0.9107 2.8389
-12.0195 -1.0158 2.8389
-11.8581 -1.1182 2.8389
-11.6996 -1.2180 2.8389
-11.5438 -1.3154 2.8389
-11.3906 -1.4104 2.8389
-11.2400 -1.5030 2.8389
-11.0919 -1.5934 2.8389
-10.9462 -1.6816 2.8389
-10.8029 -1.7677 2.8389
-10.6618 -1.8518 2.8389
-10.5229 -1.9339 2.8389
-10.3861 -2.0141 2.8389
-10.2514 -2.0924 2.8389
-10.1187 -2.1689 2.8389
-9.9879 -2.2437 2.8389
-9.8590 -2.3167 2.8389
-9.7320 -2.3881 2.8389
-9.0910 -2.3260 2.6865
-8.9741 -2.3905 2.6865
-8.8588 -2.4537 2.6865
-8.7451 -2.5154 2.6865
-8.6328 -2.5758 2.6865
-8.5220 -2.6349 2.6865
-8.4127 -2.6927 2.6865
-8.3047 -2.7492 2.6865
-8.1981 -2.8046 2.6865
-8.0927 -2.8587 2.6865
-7.9887 -2.9117 2.6865
-7.8859 -2.9635 2.6865
-7.7844 -3.0143 2.6865
-7.6840 -3.0641 2.6865
-7.5847 -3.1127 2.6865
-7.4866 -3.1604 2.6865
-7.3896 -3.2070 2.6865
-7.2936 -3.2527 2.6865
-7.1987 -3.2975 2.6865
-7.1048 -3.3413 2.6865
-7.0119 -3.3843 2.6865
-6.9199 -3.4264 2.6865
-6.8289 -3.4676 2.6865
-6.7388 -3.5080 2.6865
-6.6496 -3.5475 2.6865
-6.5613 -3.5863 2.6865
-6.4738 -3.6243 2.6865
-6.3872 -3.6614 2.6865
-6.3014 -3.6979 2.6865
-6.2163 -3.7337 2.6865
-6.1321 -3.7687 2.6865
-6.0486 -3.8030 2.6865
-5.9658 -3.8367 2.6865
-5.8838 -3.8696 2.6865
-5.8024 -3.9020 2.6865
-5.7232 -3.9345 2.6871
-5.7174 -4.0178 2.7225
-5.7116 -4.1021 2.7585
-5.7057 -4.1877 2.7952
-5.6996 -4.2747 2.8325
-5.6306 -4.3143 2.8389
-5.5493 -4.3440 2.8389
-5.4688 -4.3731 2.8389
-5.3888 -4.4016 2.8389
-5.3094 -4.4295 2.8389
-5.2305 -4.4569 2.8389
-5.1523 -4.4837 2.8389
-5.0746 -4.5099 2.8389
-4.9974 -4.5357 2.8389
-4.9208 -4.5609 2.8389
-4.8446 -4.5856 2.8389
-4.7690 -4.6098 2.8389
-4.6939 -4.6335 2.8389
-4.6192 -4.6568 2.8389
-4.5450 -4.6795 2.8389
-4.4713 -4.7018 2.8389
-4.3980 -4.7236 2.8389
-4.3251 -4.7450 2.8389
-4.2527 -4.7659 2.8389
-4.1807 -4.7864 2.8389
-21.5272 13.4918 2.4561
-21.5281 13.2091 2.5035
-21.4453 12.8795 2.5410
-21.4462 12.6044 2.5884
-21.8595 12.5695 2.6865
-21.4730 12.0773 2.6865
-21.0993 11.6048 2.6865
-20.7375 11.1506 2.6865
-20.3871 10.7140 2.6865
-20.0475 10.2938 2.6865
-19.7182 9.8882 2.6865
-19.6347 9.6153 2.7192
-19.6272 9.3816 2.7623
-19.6196 9.1501 2.8056
-19.5427 8.8894 2.8389
-19.2414 8.5328 2.8389
-18.9482 8.1884 2.8389
-18.6628 7.8557 2.8389
-18.3847 7.5339 2.8389
-18.1137 7.2228 2.8389
-17.8495 6.9217 2.8389
-17.5918 6.6303 2.8389
-17.3403 6.3480 2.8389
-17.0947 6.0746 2.8389
-16.8549 5.8097 2.8389
-16.6206 5.5528 2.8389
-16.3916 5.3037 2.8389
-16.1677 5.0620 2.8389
-15.9486 4.8273 2.8389
-15.7342 4.5996 2.8389
-15.5244 4.3784 2.8389
-15.3189 4.1635 2.8389
-15.1177 3.9547 2.8389
-14.9205 3.7517 2.8389
-14.7272 3.5544 2.8389
-14.5377 3.3625 2.8389
-14.3518 3.1757 2.8389
-14.1695 2.9940 2.8389
-13.9906 2.8171 2.8389
-13.8149 2.6448 2.8389
-13.6425 2.4771 2.8389
-13.4731 2.3137 2.8389
-13.3067 2.1545 2.8389
-13.1432 1.9993 2.8389
-12.9825 1.8481 2.8389
-12.8245 1.7006 2.8389
-12.6691 1.5568 2.8389
-12.5163 1.4165 2.8389
-12.3659 1.2796 2.8389
-12.2180 1.1460 2.8389
-12.0724 1.0157 2.8389
-11.9290 0.8884 2.8389
-7.1242 0.4618 1.7157
-7.0854 0.3910 1.7268
-7.0471 0.3209 1.7379
-7.0098 0.2517 1.7492
-11.2438 0.2954 2.8389
-11.1126 0.1849 2.8389
-10.9834 0.0768 2.8389
-10.8559 -0.0288 2.8389
-10.7302 -0.1321 2.8389
-10.6062 -0.2331 2.8389
-10.4838 -0.3318 2.8389
-10.3630 -0.4284 2.8389
-10.2439 -0.5229 2.8389
-10.1262 -0.6154 2.8389
-10.0101 -0.7058 2.8389
-9.8954 -0.7944 2.8389
-9.7821 -0.8810 2.8389
-9.1511 -0.9132 2.6865
-9.0464 -0.9927 2.6865
-8.9431 -1.0696 2.6865
-8.8409 -1.1450 2.6865
-8.7399 -1.2188 2.6865
-8.6401 -1.2911 2.6865
-8.5414 -1.3619 2.6865
-8.4439 -1.4313 2.6865
-8.3473 -1.4992 2.6865
-8.2519 -1.5658 2.6865
-8.1574 -1.6311 2.6865
-8.0640 -1.6951 2.6865
-7.9715 -1.7578 2.6865
-7.8800 -1.8192 2.6865
-7.7895 -1.8794 2.6865
-7.6998 -1.9385 2.6865
-7.6110 -1.9964 2.6865
-7.5232 -2.0532 2.6865
-7.4361 -2.1088 2.6865
-7.3499 -2.1634 2.6865
-7.2645 -2.2170 2.6865
-7.1799 -2.2695 2.6865
-7.0961 -2.3210 2.6865
-7.0131 -2.3715 2.6865
-6.9308 -2.4211 2.6865
-6.8492 -2.4697 2.6865
-6.7683 -2.5174 2.6865
-6.6882 -2.5642 2.6865
-6.6087 -2.6101 2.6865
-6.5299 -2.6552 2.6865
-6.4517 -2.6994 2.6865
-6.3742 -2.7428 2.6865
-6.2974 -2.7853 2.6865
-6.2211 -2.8271 2.6865
-6.1454 -2.8681 2.6865
-6.0704 -2.9083 2.6865
-5.9959 -2.9478 2.6865
-5.9219 -2.9866 2.6865
-5.8486 -3.0246 2.6865
-5.7757 -3.0620 2.6865
-5.7203 -3.1077 2.6944
-5.7151 -3.1810 2.7263
-5.7099 -3.2551 2.7587
-5.7045 -3.3299 2.7916
-5.6991 -3.4056 2.8251
-5.6530 -3.4575 2.8389
-5.5798 -3.4921 2.8389
-5.5070 -3.5261 2.8389
-5.4347 -3.5594 2.8389
-5.3629 -3.5921 2.8389
-5.2915 -3.6243 2.8389
-5.2206 -3.6558 2.8389
-5.1501 -3.6867 2.8389
-5.0800 -3.7171 2.8389
-5.0104 -3.7469 2.8389
-4.9412 -3.7761 2.8389
-4.8724 -3.8048 2.8389
-4.8040 -3.8330 2.8389
-4.7359 -3.8606 2.8389
-4.6683 -3.8877 2.8389
-4.6010 -3.9143 2.8389
-4.5341 -3.9403 2.8389
-4.4675 -3.9659 2.8389
-4.4013 -3.9910 2.8389
-4.3355 -4.0156 2.8389
-4.2700 -4.0397 2.8389
-4.2048 -4.0634 2.8389
-4.1399 -4.0866 2.8389
-4.0753 -4.1094 2.8389
-4.0111 -4.1316 2.8389
-3.9471 -4.1535 2.8389
-3.8835 -4.1749 2.8389
-3.8201 -4.1959 2.8389
-3.7571 -4.2165 2.8389
-16.7664 10.7814 2.8389
-16.5818 10.4429 2.8389
-16.4000 10.1138 2.8389
-16.2211 9.7936 2.8389
-16.0449 9.4819 2.8389
-15.8714 9.1786 2.8389
-15.7004 8.8833 2.8389
-15.5320 8.5957 2.8389
-15.3661 8.3155 2.8389
-15.2026 8.0427 2.8389
-15.0414 7.7767 2.8389
-14.8825 7.5176 2.8389
-14.7259 7.2650 2.8389
-14.5715 7.0187 2.8389
-14.4191 6.7785 2.8389
-14.2689 6.5443 2.8389
-14.1207 6.3157 2.8389
-13.9746 6.0928 2.8389
-13.8303 5.8751 2.8389
-13.6880 5.6628 2.8389
-13.5475 5.4554 2.8389
-13.4088 5.2530 2.8389
-13.2719 5.0553 2.8389
-13.1368 4.8621 2.8389
-13.0033 4.6735 2.8389
-12.8715 4.4893 2.8389
-12.7414 4.3092 2.8389
-12.6128 4.1332 2.8389
-12.4858 3.9611 2.8389
-12.3603 3.7930 2.8389
-12.2362 3.6285 2.8389
-12.1137 3.4677 2.8389
-11.9926 3.3104 2.8389
-11.8728 3.1566 2.8389
-11.7545 3.0060 2.8389
-11.6375 2.8588 2.8389
-11.5217 2.7147 2.8389
-11.4073 2.5736 2.8389
-11.2941 2.4356 2.8389
-11.1822 2.3005 2.8389
-11.0715 2.1682 2.8389
-10.9619 2.0386 2.8389
-10.8535 1.9118 2.8389
-10.7463 1.7875 2.8389
-10.6401 1.6658 2.8389
-10.5351 1.5466 2.8389
-10.4311 1.4298 2.8389
-10.3282 1.3153 2.8389
-10.2263 1.2032 2.8389
-10.1254 1.0933 2.8389
-10.0255 0.9855 2.8389
-9.9266 0.8800 2.8389
-9.8286 0.7764 2.8389
-7.1431 0.4954 2.0838
-7.1042 0.4242 2.0931
-7.0657 0.3539 2.1025
-7.0276 0.2843 2.1121
-6.9903 0.2155 2.1219
-8.7627 0.1857 2.6865
-8.6758 0.1003 2.6865
-8.5897 0.0164 2.6865
-8.5044 -0.0658 2.6865
-8.4198 -0.1465 2.6865
-8.3359 -0.2257 2.6865
-8.2528 -0.3034 2.6865
-8.1704 -0.3797 2.6865
-8.0886 -0.4545 2.6865
-8.0076 -0.5280 2.6865
-7.9272 -0.6001 2.6865
-7.8475 -0.6709 2.6865
-7.7684 -0.7404 2.6865
-7.6899 -0.8086 2.6865
-7.6121 -0.8756 2.6865
-7.5349 -0.9414 2.6865
-7.4582 -1.0060 2.6865
-7.3822 -1.0694 2.6865
-7.3067 -1.1317 2.6865
-7.2319 -1.1929 2.6865
-7.1575 -1.2530 2.6865
-7.0837 -1.3121 2.6865
-7.0105 -1.3700 2.6865
-6.9378 -1.4270 2.6865
-6.8656 -1.4829 2.6865
-6.7939 -1.5379 2.6865
-6.7228 -1.5919 2.6865
-6.6521 -1.6449 2.6865
-6.5819 -1.6971 2.6865
-6.5122 -1.7483 2.6865
-6.4429 -1.7986 2.6865
-6.3741 -1.8481 2.6865
-6.3058 -1.8966 2.6865
-6.2379 -1.9444 2.6865
-6.1705 -1.9913 2.6865
-6.1035 -2.0375 2.6865
-6.0369 -2.0828 2.6865
-5.9707 -2.1273 2.6865
-5.9049 -2.1710 2.6865
-5.8396 -2.2140 2.6865
-5.7746 -2.2563 2.6865
-5.7192 -2.3016 2.6908
-5.7146 -2.3672 2.7192
-5.7100 -2.4334 2.7481
-5.7052 -2.5002 2.7774
-5.7004 -2.5674 2.8071
-5.6955 -2.6353 2.8373
-5.6327 -2.6761 2.8389
-5.5672 -2.7152 2.8389
-5.5020 -2.7534 2.8389
-5.4371 -2.7910 2.8389
-5.3726 -2.8279 2.8389
-5.3085 -2.8642 2.8389
-5.2446 -2.8998 2.8389
-5.1811 -2.9349 2.8389
-5.1180 -2.9693 2.8389
-5.0551 -3.0031 2.8389
-4.9926 -3.0364 2.8389
-4.9303 -3.0691 2.8389
-4.8684 -3.1012 2.8389
-4.8067 -3.1327 2.8389
-4.7454 -3.1637 2.8389
-4.6843 -3.1942 2.8389
-4.6236 -3.2241 2.8389
-4.5631 -3.2536 2.8389
-4.5028 -3.2824 2.8389
-4.4428 -3.3108 2.8389
-4.3831 -3.3387 2.8389
-4.3237 -3.3660 2.8389
-4.2645 -3.3929 2.8389
-4.2056 -3.4193 2.8389
-4.1469 -3.4452 2.8389
-4.0884 -3.4706 2.8389
-4.0302 -3.4956 2.8389
-3.9722 -3.5202 2.8389
-3.9144 -3.5442 2.8389
-3.8569 -3.5679 2.8389
-3.7995 -3.5910 2.8389
-3.7424 -3.6138 2.8389
-3.6855 -3.6361 2.8389
-3.6288 -3.6580 2.8389
-3.5723 -3.6796 2.8389
-3.5160 -3.7006 2.8389
-3.4599 -3.7213 2.8389
-3.4040 -3.7415 2.8389
-12.5553 8.2840 2.8389
-12.4691 8.0607 2.8389
-12.3828 7.8417 2.8389
-12.2966 7.6268 2.8389
-12.2104 7.4161 2.8389
-12.1244 7.2095 2.8389
-12.0385 7.0067 2.8389
-11.9527 6.8079 2.8389
-11.8670 6.6128 2.8389
-11.7816 6.4214 2.8389
-11.6963 6.2336 2.8389
-11.6112 6.0493 2.8389
-11.5264 5.8686 2.8389
-11.4417 5.6911 2.8389
-11.3574 5.5171 2.8389
-11.2732 5.3462 2.8389
-11.1894 5.1786 2.8389
-11.1058 5.0140 2.8389
-11.0225 4.8525 2.8389
-10.9395 4.6940 2.8389
-10.8568 4.5383 2.8389
-10.7744 4.3856 2.8389
-10.6924 4.2356 2.8389
-10.6106 4.0883 2.8389
-10.5292 3.9437 2.8389
-10.4481 3.8018 2.8389
-10.3674 3.6624 2.8389
-10.2870 3.5255 2.8389
-10.2069 3.3911 2.8389
-10.1272 3.2591 2.8389
-10.0479 3.1294 2.8389
-9.9689 3.0021 2.8389
-9.8902 2.8770 2.8389
-9.8120 2.7541 2.8389
-9.7341 2.6334 2.8389
-9.1381 2.3801 2.6865
-9.0651 2.2696 2.6865
-8.9924 2.1612 2.6865
-8.9200 2.0548 2.6865
-8.8480 1.9502 2.6865
-8.7764 1.8474 2.6865
-8.7051 1.7464 2.6865
-8.6341 1.6472 2.6865
-8.5635 1.5496 2.6865
-8.4932 1.4538 2.6865
-8.4233 1.3596 2.6865
-8.3537 1.2669 2.6865
-8.2845 1.1759 2.6865
-8.2156 1.0864 2.6865
-8.1470 0.9984 2.6865
-8.0788 0.9119 2.6865
-8.0110 0.8268 2.6865
-7.9434 0.7432 2.6865
-7.8762 0.6610 2.6865
-7.1638 0.5322 2.4644
-7.1247 0.4607 2.4720
-7.0860 0.3900 2.4798
-7.0478 0.3201 2.4878
-7.0099 0.2509 2.4959
-6.9725 0.1824 2.5042
-7.4150 0.1226 2.6865
-7.3504 0.0507 2.6865
-7.2861 -0.0200 2.6865
-7.2222 -0.0896 2.6865
-7.1585 -0.1581 2.6865
-7.0952 -0.2254 2.6865
-7.0321 -0.2916 2.6865
-6.9694 -0.3567 2.6865
-6.9069 -0.4208 2.6865
-6.8448 -0.4839 2.6865
-6.7830 -0.5459 2.6865
-6.7214 -0.6069 2.6865
-6.6602 -0.6670 2.6865
-6.5992 -0.7260 2.6865
-6.5385 -0.7842 2.6865
-6.4781 -0.8414 2.6865
-6.4180 -0.8977 2.6865
-6.3582 -0.9530 2.6865
-6.2986 -1.0075 2.6865
-6.2393 -1.0611 2.6865
-6.1803 -1.1139 2.6865
-6.1215 -1.1658 2.6865
-6.0630 -1.2169 2.6865
-6.0048 -1.2672 2.6865
-5.9468 -1.3167 2.6865
-5.8891 -1.3653 2.6865
-5.8316 -1.4133 2.6865
-5.7744 -1.4604 2.6865
-5.7183 -1.5070 2.6869
-5.7143 -1.5671 2.7119
-5.7101 -1.6276 2.7372
-5.7060 -1.6884 2.7630
-5.7018 -1.7496 2.7891
-5.6975 -1.8110 2.8156
-5.6859 -1.8706 2.8389
-5.6275 -1.9144 2.8389
-5.5693 -1.9576 2.8389
-5.5113 -2.0001 2.8389
-5.4536 -2.0418 2.8389
-5.3960 -2.0830 2.8389
-5.3388 -2.1234 2.8389
-5.2817 -2.1634 2.8389
-5.2249 -2.2024 2.8389
-5.1683 -2.2410 2.8389
-5.1119 -2.2789 2.8389
-5.0557 -2.3163 2.8389
-4.9997 -2.3530 2.8389
-4.9439 -2.3892 2.8389
-4.8884 -2.4247 2.8389
-4.8330 -2.4597 2.8389
-4.7779 -2.4941 2.8389
-4.7229 -2.5280 2.8389
-4.6682 -2.5613 2.8389
-4.6136 -2.5941 2.8389
-4.5592 -2.6263 2.8389
-4.5050 -2.6581 2.8389
-4.4510 -2.6893 2.8389
-4.3972 -2.7200 2.8389
-4.3436 -2.7502 2.8389
-4.2901 -2.7798 2.8389
-4.2368 -2.8090 2.8389
-4.1837 -2.8377 2.8389
-4.1308 -2.8660 2.8389
-4.0254 -2.9209 2.8389
-4.0780 -2.8937 2.8389
-3.9730 -2.9478 2.8389
-3.8166 -3.0255 2.8389
-3.9207 -2.9741 2.8389
-3.7648 -3.0505 2.8389
-3.8685 -3.0001 2.8389
-3.7131 -3.0751 2.8389
-3.6102 -3.1230 2.8389
-3.6616 -3.0993 2.8389
-3.5590 -3.1463 2.8389
-3.4062 -3.2138 2.8389
-3.5079 -3.1692 2.8389
-3.3555 -3.2355 2.8389
-3.4570 -3.1917 2.8389
-3.3050 -3.2568 2.8389
-3.2546 -3.2777 2.8389
-3.2043 -3.2982 2.8389
-3.1541 -3.3183 2.8389
-3.1041 -3.3381 2.8389
-9.9685 6.7498 2.8389
-9.9255 6.5873 2.8389
-9.8818 6.4271 2.8389
-9.8374 6.2691 2.8389
-9.7924 6.1135 2.8389
-9.7469 5.9600 2.8389
-9.7007 5.8088 2.8389
-9.1357 5.3561 2.6865
-9.0910 5.2169 2.6865
-9.0459 5.0799 2.6865
-9.0003 4.9449 2.6865
-8.9543 4.8119 2.6865
-8.9079 4.6807 2.6865
-8.8611 4.5515 2.6865
-8.8139 4.4242 2.6865
-8.7664 4.2987 2.6865
-8.7186 4.1751 2.6865
-8.6705 4.0533 2.6865
-8.6222 3.9333 2.6865
-8.5735 3.8150 2.6865
-8.5247 3.6985 2.6865
-8.4755 3.5836 2.6865
-8.4262 3.4705 2.6865
-8.3767 3.3590 2.6865
-8.3270 3.2492 2.6865
-8.2771 3.1410 2.6865
-8.2270 3.0343 2.6865
-8.1768 2.9292 2.6865
-8.1265 2.8257 2.6865
-8.0760 2.7238 2.6865
-8.0255 2.6232 2.6865
-7.9748 2.5242 2.6865
-7.9240 2.4266 2.6865
-7.8732 2.3305 2.6865
-7.8223 2.2358 2.6865
-7.7713 2.1424 2.6865
-7.7203 2.0505 2.6865
-7.6692 1.9599 2.6865
-7.6181 1.8706 2.6865
-7.5670 1.7826 2.6865
-7.5158 1.6960 2.6865
-7.4646 1.6106 2.6865
-7.4134 1.5264 2.6865
-7.3623 1.4435 2.6865
-7.3111 1.3618 2.6865
-7.2599 1.2813 2.6865
-7.2088 1.2020 2.6865
-7.1576 1.1238 2.6865
-7.1065 1.0467 2.6865
-7.0555 0.9709 2.6865
-7.0044 0.8961 2.6865
-6.9534 0.8224 2.6865
-6.9025 0.7498 2.6865
-6.8516 0.6782 2.6865
-6.8007 0.6077 2.6865
-6.7499 0.5382 2.6865
-6.6992 0.4697 2.6865
-6.6485 0.4022 2.6865
-6.5980 0.3357 2.6865
-6.5474 0.2702 2.6865
-6.4970 0.2056 2.6865
-6.4466 0.1420 2.6865
-6.3963 0.0793 2.6865
-6.3461 0.0174 2.6865
-6.2959 -0.0435 2.6865
-6.2459 -0.1035 2.6865
-6.1959 -0.1626 2.6865
-6.1461 -0.2209 2.6865
-6.0963 -0.2783 2.6865
-6.0466 -0.3350 2.6865
-5.9970 -0.3908 2.6865
-5.9475 -0.4457 2.6865
-5.8981 -0.4999 2.6865
-5.8488 -0.5533 2.6865
-5.7996 -0.6059 2.6865
-5.7505 -0.6582 2.6865
-5.7156 -0.7107 2.6932
-5.7122 -0.7673 2.7148
-5.7086 -0.8240 2.7367
-5.7050 -0.8809 2.7590
-5.7014 -0.9381 2.7816
-5.6977 -0.9953 2.8044
-5.6939 -1.0531 2.8277
-5.6655 -1.1058 2.8389
-5.6146 -1.1539 2.8389
-5.5638 -1.2011 2.8389
-5.5131 -1.2478 2.8389
-5.4626 -1.2937 2.8389
-5.4121 -1.3390 2.8389
-5.3618 -1.3836 2.8389
-5.3116 -1.4276 2.8389
-5.2615 -1.4711 2.8389
-5.2115 -1.5136 2.8389
-5.1616 -1.5557 2.8389
-5.1118 -1.5971 2.8389
-5.0622 -1.6380 2.8389
-5.0126 -1.6782 2.8389
-4.9632 -1.7178 2.8389
-4.9139 -1.7569 2.8389
-4.8647 -1.7953 2.8389
-4.8156 -1.8332 2.8389
-4.7666 -1.8706 2.8389
-4.7177 -1.9073 2.8389
-4.6690 -1.9436 2.8389
-4.6203 -1.9792 2.8389
-4.5718 -2.0143 2.8389
-4.5233 -2.0490 2.8389
-4.4750 -2.0830 2.8389
-4.4268 -2.1166 2.8389
-4.3787 -2.1497 2.8389
-4.3307 -2.1823 2.8389
-4.2827 -2.2143 2.8389
-4.2349 -2.2459 2.8389
-4.1873 -2.2769 2.8389
-4.1397 -2.3076 2.8389
-4.0922 -2.3377 2.8389
-4.0448 -2.3674 2.8389
-3.9975 -2.3965 2.8389
-3.9503 -2.4253 2.8389
-3.9032 -2.4536 2.8389
-3.8562 -2.4814 2.8389
-3.8093 -2.5088 2.8389
-3.7625 -2.5357 2.8389
-3.7158 -2.5622 2.8389
-3.6692 -2.5883 2.8389
-3.6227 -2.6140 2.8389
-3.5762 -2.6392 2.8389
-3.5299 -2.6641 2.8389
-3.4836 -2.6885 2.8389
-3.4375 -2.7125 2.8389
-3.3914 -2.7361 2.8389
-3.3454 -2.7594 2.8389
-3.2995 -2.7822 2.8389
-3.2537 -2.8046 2.8389
-3.2080 -2.8267 2.8389
-3.1624 -2.8483 2.8389
-3.1168 -2.8696 2.8389
-3.0713 -2.8905 2.8389
-3.0259 -2.9111 2.8389
-2.9806 -2.9313 2.8389
-2.9354 -2.9511 2.8389
-2.8902 -2.9705 2.8389
-2.8451 -2.9896 2.8389
-7.7709 5.4015 2.6865
-7.7509 5.2827 2.6865
-7.7301 5.1651 2.6865
-7.7086 5.0488 2.6865
-7.6863 4.9338 2.6865
-7.6632 4.8201 2.6865
-7.6395 4.7076 2.6865
-7.6151 4.5964 2.6865
-7.5900 4.4864 2.6865
-7.5642 4.3777 2.6865
-7.5378 4.2702 2.6865
-7.5108 4.1640 2.6865
-7.4833 4.0590 2.6865
-7.4552 3.9552 2.6865
-7.4265 3.8526 2.6865
-7.3973 3.7512 2.6865
-7.3676 3.6510 2.6865
-7.3373 3.5520 2.6865
-7.3067 3.4541 2.6865
-7.2755 3.3574 2.6865
-7.2439 3.2620 2.6865
-7.2119 3.1676 2.6865
-7.1795 3.0743 2.6865
-7.1467 2.9822 2.6865
-7.1134 2.8912 2.6865
-7.0799 2.8013 2.6865
-7.0459 2.7125 2.6865
-7.0117 2.6248 2.6865
-6.9771 2.5382 2.6865
-6.9421 2.4526 2.6865
-6.9069 2.3681 2.6865
-6.8714 2.2847 2.6865
-6.8356 2.2022 2.6865
-6.7995 2.1208 2.6865
-6.7632 2.0404 2.6865
-6.7266 1.9610 2.6865
-6.6898 1.8826 2.6865
-6.6528 1.8052 2.6865
-6.6155 1.7288 2.6865
-6.5780 1.6533 2.6865
-6.5404 1.5788 2.6865
-6.5025 1.5052 2.6865
-6.4645 1.4325 2.6865
-6.4263 1.3608 2.6865
-6.3879 1.2900 2.6865
-6.3493 1.2200 2.6865
-6.3106 1.1510 2.6865
-6.2718 1.0829 2.6865
-6.2328 1.0156 2.6865
-6.1937 0.9491 2.6865
-6.1545 0.8836 2.6865
-6.1152 0.8188 2.6865
-6.0757 0.7549 2.6865
-6.0362 0.6919 2.6865
-5.9965 0.6296 2.6865
-5.9568 0.5681 2.6865
-5.9170 0.5074 2.6865
-5.8771 0.4476 2.6865
-5.8371 0.3885 2.6865
-5.7970 0.3301 2.6865
-5.7569 0.2725 2.6865
-5.7167 0.2157 2.6865
-5.7122 0.1606 2.7034
-5.7093 0.1056 2.7213
-5.7064 0.0505 2.7396
-5.7034 -0.0045 2.7580
-5.7004 -0.0596 2.7768
-5.6973 -0.1146 2.7958
-5.6942 -0.1697 2.8151
-5.6911 -0.2250 2.8347
-5.6566 -0.2786 2.8389
-5.6137 -0.3312 2.8389
-5.5708 -0.3832 2.8389
-5.5279 -0.4345 2.8389
-5.4849 -0.4851 2.8389
-5.4420 -0.5350 2.8389
-5.3990 -0.5842 2.8389
-5.3561 -0.6329 2.8389
-5.3131 -0.6808 2.8389
-5.2271 -0.7748 2.8389
-5.2701 -0.7284 2.8389
-5.1842 -0.8209 2.8389
-5.0553 -0.9554 2.8389
-5.1412 -0.8663 2.8389
-5.0124 -0.9990 2.8389
-4.9694 -1.0421 2.8389
-5.0982 -0.9112 2.8389
-4.9265 -1.0846 2.8389
-4.8836 -1.1265 2.8389
-4.7123 -1.2884 2.8389
-4.8408 -1.1677 2.8389
-4.6695 -1.3275 2.8389
-4.7979 -1.2085 2.8389
-4.6267 -1.3661 2.8389
-4.7551 -1.2487 2.8389
-4.5840 -1.4041 2.8389
-4.5413 -1.4416 2.8389
-4.3708 -1.5865 2.8389
-4.4986 -1.4786 2.8389
-4.3283 -1.6215 2.8389
-4.2858 -1.6560 2.8389
-4.4560 -1.5151 2.8389
-4.2433 -1.6899 2.8389
-4.4134 -1.5510 2.8389
-4.2009 -1.7235 2.8389
-4.0315 -1.8528 2.8389
-4.1585 -1.7565 2.8389
-3.9892 -1.8840 2.8389
-4.1161 -1.7891 2.8389
-3.9470 -1.9147 2.8389
-4.0738 -1.8212 2.8389
-3.9049 -1.9450 2.8389
-3.8627 -1.9748 2.8389
-3.6946 -2.0899 2.8389
-3.8206 -2.0042 2.8389
-3.6527 -2.1176 2.8389
-3.7786 -2.0332 2.8389
-3.7366 -2.0618 2.8389
-3.6108 -2.1448 2.8389
-3.5272 -2.1982 2.8389
-3.5690 -2.1717 2.8389
-3.4854 -2.2242 2.8389
-3.3604 -2.3000 2.8389
-3.1943 -2.3956 2.8389
-3.4437 -2.2499 2.8389
-3.3188 -2.3245 2.8389
-3.1529 -2.4186 2.8389
-3.4020 -2.2752 2.8389
-3.2773 -2.3486 2.8389
-3.1115 -2.4412 2.8389
-3.0289 -2.4853 2.8389
-3.2358 -2.3723 2.8389
-3.0702 -2.4634 2.8389
-2.9877 -2.5067 2.8389
-2.9464 -2.5279 2.8389
-2.9053 -2.5487 2.8389
-2.8642 -2.5691 2.8389
-2.8231 -2.5892 2.8389
-2.7820 -2.6089 2.8389
-2.7410 -2.6283 2.8389
-2.7001 -2.6474 2.8389
-2.6591 -2.6661 2.8389
-2.6183 -2.6845 2.8389
-6.5636 4.6855 2.6865
-6.5550 4.5900 2.6865
-6.5457 4.4952 2.6865
-6.5356 4.4013 2.6865
-6.5248 4.3081 2.6865
-6.5132 4.2158 2.6865
-6.5009 4.1242 2.6865
-6.4879 4.0334 2.6865
-6.4742 3.9435 2.6865
-6.4599 3.8543 2.6865
-6.4448 3.7661 2.6865
-6.4292 3.6785 2.6865
-6.4129 3.5918 2.6865
-6.3960 3.5059 2.6865
-6.3785 3.4209 2.6865
-6.3605 3.3366 2.6865
-6.3418 3.2531 2.6865
-6.3227 3.1704 2.6865
-6.3030 3.0886 2.6865
-6.2827 3.0075 2.6865
-6.2620 2.9272 2.6865
-6.2408 2.8478 2.6865
-6.2191 2.7691 2.6865
-6.1969 2.6912 2.6865
-6.1743 2.6142 2.6865
-6.1513 2.5379 2.6865
-6.1278 2.4624 2.6865
-6.1039 2.3877 2.6865
-6.0796 2.3137 2.6865
-6.0549 2.2405 2.6865
-6.0298 2.1681 2.6865
-6.0043 2.0964 2.6865
-5.9785 2.0255 2.6865
-5.9523 1.9554 2.6865
-5.9258 1.8860 2.6865
-5.8990 1.8173 2.6865
-5.8718 1.7494 2.6865
-5.8443 1.6822 2.6865
-5.8165 1.6157 2.6865
-5.7885 1.5500 2.6865
-5.7601 1.4850 2.6865
-5.7315 1.4207 2.6865
-5.7119 1.3593 2.6908
-5.7098 1.3026 2.7037
-5.7078 1.2460 2.7168
-5.7056 1.1896 2.7302
-5.7035 1.1335 2.7437
-5.7013 1.0775 2.7576
-5.6991 1.0216 2.7716
-5.6968 0.9660 2.7859
-5.6945 0.9104 2.8005
-5.6921 0.8551 2.8153
-5.6897 0.7997 2.8303
-5.6739 0.7429 2.8389
-5.6405 0.6844 2.8389
-5.6071 0.6264 2.8389
-5.5734 0.5691 2.8389
-5.5395 0.5124 2.8389
-5.5055 0.4564 2.8389
-5.4714 0.4011 2.8389
-5.4370 0.3464 2.8389
-5.4026 0.2924 2.8389
-5.3680 0.2390 2.8389
-5.3332 0.1862 2.8389
-5.2983 0.1341 2.8389
-5.2633 0.0823 2.8389
-5.2282 0.0316 2.8389
-5.1929 -0.0187 2.8389
-5.1575 -0.0684 2.8389
-5.0150 -0.2614 2.8389
-5.1220 -0.1175 2.8389
-4.9791 -0.3081 2.8389
-5.0864 -0.1661 2.8389
-4.9431 -0.3544 2.8389
-5.0508 -0.2140 2.8389
-4.9070 -0.4001 2.8389
-4.8709 -0.4451 2.8389
-4.7256 -0.6201 2.8389
-4.8347 -0.4897 2.8389
-4.6891 -0.6625 2.8389
-4.7984 -0.5337 2.8389
-4.6525 -0.7044 2.8389
-4.7620 -0.5771 2.8389
-4.6159 -0.7457 2.8389
-4.5792 -0.7865 2.8389
-4.4319 -0.9448 2.8389
-4.5425 -0.8268 2.8389
-4.3950 -0.9831 2.8389
-4.5057 -0.8666 2.8389
-4.3581 -1.0209 2.8389
-4.4688 -0.9060 2.8389
-4.3210 -1.0582 2.8389
-4.2840 -1.0951 2.8389
-4.1355 -1.2379 2.8389
-4.2469 -1.1315 2.8389
-4.0983 -1.2724 2.8389
-4.2098 -1.1675 2.8389
-4.0611 -1.3066 2.8389
-4.1727 -1.2029 2.8389
-4.0238 -1.3402 2.8389
-3.9865 -1.3734 2.8389
-3.8373 -1.5018 2.8389
-3.9493 -1.4061 2.8389
-3.7999 -1.5328 2.8389
-3.9119 -1.4384 2.8389
-3.7626 -1.5634 2.8389
-3.8746 -1.4703 2.8389
-3.7252 -1.5937 2.8389
-3.6878 -1.6234 2.8389
-3.5382 -1.7385 2.8389
-3.6504 -1.6528 2.8389
-3.5007 -1.7663 2.8389
-3.6130 -1.6818 2.8389
-3.4633 -1.7937 2.8389
-3.5756 -1.7104 2.8389
-3.3885 -1.8472 2.8389
-3.4259 -1.8207 2.8389
-3.2387 -1.9499 2.8389
-3.3510 -1.8735 2.8389
-2.9395 -2.1377 2.8389
-3.0891 -2.0467 2.8389
-3.2013 -1.9746 2.8389
-3.3136 -1.8993 2.8389
-3.0517 -2.0699 2.8389
-2.9021 -2.1596 2.8389
-3.1639 -1.9990 2.8389
-3.2762 -1.9248 2.8389
-2.8648 -2.1811 2.8389
-3.0143 -2.0929 2.8389
-3.1265 -2.0230 2.8389
-2.7900 -2.2232 2.8389
-2.8274 -2.2023 2.8389
-2.9769 -2.1154 2.8389
-2.7527 -2.2437 2.8389
-2.6407 -2.3033 2.8389
-2.7154 -2.2639 2.8389
-2.6034 -2.3225 2.8389
-2.6781 -2.2838 2.8389
-2.5661 -2.3414 2.8389
-2.5289 -2.3600 2.8389
-2.4916 -2.3783 2.8389
-2.4543 -2.3962 2.8389
-2.4171 -2.4138 2.8389
-5.7022 4.1829 2.7144
-5.7022 4.1045 2.7153
-5.7019 3.8747 2.7199
-5.7022 4.0270 2.7165
-5.7017 3.7998 2.7221
-5.6988 3.2976 2.7457
-5.7008 3.5801 2.7304
-5.7021 3.9503 2.7181
-5.7015 3.7257 2.7246
-5.6982 3.2287 2.7502
-5.7004 3.5084 2.7338
-5.6961 3.0259 2.7654
-5.6926 2.7636 2.7896
-5.7011 3.6525 2.7274
-5.6975 3.1605 2.7550
-5.6999 3.4374 2.7375
-5.6953 2.9595 2.7711
-5.6916 2.6997 2.7962
-5.6884 2.5096 2.8179
-5.6968 3.0929 2.7601
-5.6994 3.3672 2.7414
-5.6944 2.8936 2.7770
-5.6906 2.6358 2.8032
-5.6872 2.4472 2.8257
-5.6935 2.8283 2.7831
-5.5830 1.9889 2.8389
-5.6604 2.2539 2.8389
-5.6895 2.5726 2.8104
-5.6860 2.3855 2.8337
-5.4993 1.7337 2.8389
-5.6417 2.1867 2.8389
-5.5627 1.9242 2.8389
-5.4097 1.4879 2.8389
-5.6786 2.3215 2.8389
-5.4774 1.6713 2.8389
-5.6226 2.1202 2.8389
-5.5419 1.8601 2.8389
-5.3864 1.4279 2.8389
-5.3148 1.2515 2.8389
-5.4552 1.6096 2.8389
-5.6030 2.0542 2.8389
-5.5208 1.7966 2.8389
-5.3628 1.3685 2.8389
-5.2903 1.1938 2.8389
-5.4326 1.5485 2.8389
-5.1110 0.8059 2.8389
-5.2655 1.1364 2.8389
-5.2151 1.0242 2.8389
-5.3390 1.3097 2.8389
-5.0031 0.5965 2.8389
-5.0844 0.7528 2.8389
-4.8916 0.3957 2.8389
-5.2404 1.0801 2.8389
-5.1894 0.9688 2.8389
-4.9755 0.5455 2.8389
-5.0575 0.7001 2.8389
-4.8633 0.3468 2.8389
-4.7770 0.2033 2.8389
-5.1636 0.9140 2.8389
-4.9478 0.4951 2.8389
-5.0304 0.6481 2.8389
-4.8347 0.2985 2.8389
-4.7479 0.1565 2.8389
-4.9198 0.4451 2.8389
-5.1374 0.8597 2.8389
-4.6596 0.0191 2.8389
-4.8059 0.2506 2.8389
-4.7186 0.1102 2.8389
-4.5397 -0.1572 2.8389
-4.4175 -0.3257 2.8389
-4.6298 -0.0257 2.8389
-4.2933 -0.4867 2.8389
-4.6892 0.0644 2.8389
-4.5093 -0.2000 2.8389
-4.3866 -0.3667 2.8389
-4.5999 -0.0701 2.8389
-4.2620 -0.5258 2.8389
-4.1674 -0.6404 2.8389
-4.4788 -0.2424 2.8389
-4.3556 -0.4071 2.8389
-4.5699 -0.1139 2.8389
-4.2305 -0.5645 2.8389
-4.1356 -0.6777 2.8389
-4.4482 -0.2843 2.8389
-4.3245 -0.4471 2.8389
-4.1990 -0.6027 2.8389
-4.0399 -0.7871 2.8389
-4.1038 -0.7146 2.8389
-3.9110 -0.9268 2.8389
-3.7809 -1.0599 2.8389
-4.0078 -0.8226 2.8389
-3.6498 -1.1866 2.8389
-4.0719 -0.7511 2.8389
-3.8786 -0.9607 2.8389
-3.7482 -1.0922 2.8389
-3.9756 -0.8578 2.8389
-3.6169 -1.2173 2.8389
-3.5178 -1.3070 2.8389
-3.8461 -0.9942 2.8389
-3.5839 -1.2476 2.8389
-3.7155 -1.1241 2.8389
-3.9433 -0.8925 2.8389
-3.8136 -1.0273 2.8389
-3.4847 -1.3361 2.8389
-3.5509 -1.2774 2.8389
-3.6827 -1.1555 2.8389
-3.3850 -1.4213 2.8389
-3.2515 -1.5297 2.8389
-3.4515 -1.3649 2.8389
-3.1174 -1.6324 2.8389
-2.9828 -1.7296 2.8389
-3.3516 -1.4489 2.8389
-3.2180 -1.5559 2.8389
-3.4182 -1.3933 2.8389
-3.0838 -1.6573 2.8389
-3.3183 -1.4762 2.8389
-2.9491 -1.7530 2.8389
-3.1845 -1.5818 2.8389
-3.0502 -1.6817 2.8389
-2.8478 -1.8214 2.8389
-3.2849 -1.5032 2.8389
-3.1510 -1.6073 2.8389
-2.9154 -1.7762 2.8389
-3.0165 -1.7058 2.8389
-2.8140 -1.8434 2.8389
-2.7125 -1.9079 2.8389
-2.5768 -1.9892 2.8389
-2.8816 -1.7989 2.8389
-2.4409 -2.0657 2.8389
-2.7802 -1.8652 2.8389
-2.6786 -1.9287 2.8389
-2.5429 -2.0088 2.8389
-2.4069 -2.0840 2.8389
-2.7463 -1.8867 2.8389
-2.6447 -1.9492 2.8389
-2.5089 -2.0281 2.8389
-2.3729 -2.1020 2.8389
-2.6108 -1.9694 2.8389
-2.3389 -2.1198 2.8389
-2.4749 -2.0470 2.8389
-2.3049 -2.1372 2.8389
-2.2708 -2.1544 2.8389
-2.2368 -2.1713 2.8389
