ply
format ascii 1.0
element vertex 2240
property float32 x
property float32 y
property float32 z
end_header
6.5066 -5.1919 0.0252
6.5069 -5.0900 0.0066
6.5071 -4.9897 -0.0119
6.5073 -4.8909 -0.0303
6.5075 -4.7936 -0.0486
6.5077 -4.6977 -0.0667
6.5079 -4.6031 -0.0847
6.5081 -4.5098 -0.1026
6.5083 -4.4178 -0.1205
6.5091 -4.0616 -0.1908
6.5091 -4.3274 -0.1382
6.5091 -3.9752 -0.2081
6.5091 -4.2376 -0.1558
6.5091 -3.8898 -0.2254
6.5091 -4.1490 -0.1733
6.5091 -3.8054 -0.2427
6.5092 -3.3974 -0.3280
6.5091 -3.7220 -0.2598
6.5092 -3.3184 -0.3449
6.5092 -3.6396 -0.2769
6.5092 -3.2402 -0.3618
6.5092 -3.1627 -0.3786
6.5092 -3.5580 -0.2940
6.5092 -3.0859 -0.3954
6.5092 -3.4773 -0.3110
6.5093 -3.0098 -0.4122
6.5093 -2.9345 -0.4290
6.5093 -2.7857 -0.4625
6.5093 -2.8598 -0.4457
6.5093 -2.7123 -0.4792
6.5093 -2.4954 -0.5293
6.5094 -2.4242 -0.5460
6.5093 -2.6394 -0.4959
6.5094 -2.3535 -0.5627
6.5093 -2.5671 -0.5126
6.5094 -2.2833 -0.5794
6.5094 -2.2135 -0.5962
6.5095 -1.9390 -0.6633
6.5094 -2.1443 -0.6129
6.5095 -1.8713 -0.6801
6.5095 -1.8041 -0.6970
6.5094 -2.0754 -0.6297
6.5095 -1.7371 -0.7139
6.5094 -2.0070 -0.6465
6.5095 -1.6705 -0.7309
6.5093 -1.4072 -0.7991
6.5095 -1.6043 -0.7479
6.5094 -1.3421 -0.8163
6.5095 -1.5383 -0.7649
6.5095 -1.2772 -0.8335
6.5096 -1.4727 -0.7820
6.5097 -1.2126 -0.8508
6.5098 -1.1481 -0.8682
6.5103 -0.8923 -0.9384
6.5099 -1.0839 -0.8857
6.5104 -0.8288 -0.9562
6.5101 -1.0199 -0.9032
6.5106 -0.7653 -0.9740
6.5102 -0.9560 -0.9208
6.5107 -0.7020 -0.9919
6.5108 -0.6388 -1.0100
6.5113 -0.3869 -1.0830
6.5110 -0.5758 -1.0281
6.5111 -0.5127 -1.0463
6.5115 -0.3240 -1.1015
6.5112 -0.4498 -1.0646
6.5116 -0.2612 -1.1201
6.5118 -0.1356 -1.1577
6.5117 -0.1984 -1.1388
6.5120 -0.0728 -1.1767
6.5124 0.1158 -1.2344
6.5121 -0.0100 -1.1958
6.5125 0.1788 -1.2540
6.5122 0.0529 -1.2151
6.5126 0.2418 -1.2736
6.5129 0.3682 -1.3134
6.5127 0.3049 -1.2935
6.5130 0.4315 -1.3336
6.5134 0.6223 -1.3949
6.5131 0.4950 -1.3538
6.5135 0.6862 -1.4157
6.5132 0.5585 -1.3743
6.5136 0.7503 -1.4367
6.5139 0.8791 -1.4793
6.5138 0.8146 -1.4579
6.5140 0.9438 -1.5008
6.5144 1.1394 -1.5668
6.5142 1.0087 -1.5226
6.5146 1.2051 -1.5892
6.5143 1.0739 -1.5446
6.5147 1.2712 -1.6119
6.5150 1.4042 -1.6579
6.5148 1.3375 -1.6347
6.5151 1.4712 -1.6812
6.5199 1.6755 -1.7541
6.5152 1.5386 -1.7048
6.5199 1.7441 -1.7785
6.5198 1.6073 -1.7299
6.5200 1.8131 -1.8032
6.5202 1.9525 -1.8535
6.5201 1.8826 -1.8282
6.5203 2.0229 -1.8791
6.5206 2.2373 -1.9579
6.5204 2.0939 -1.9050
6.5207 2.3099 -1.9848
6.5205 2.1653 -1.9313
6.5208 2.3831 -2.0121
6.5210 2.5313 -2.0678
6.5209 2.4568 -2.0398
6.5210 2.6063 -2.0962
6.5211 2.6821 -2.1250
6.5213 2.8358 -2.1839
6.5212 2.7586 -2.1542
6.5215 2.9138 -2.2140
6.5218 3.1526 -2.3069
6.5216 2.9925 -2.2445
6.5219 3.2339 -2.3389
6.5217 3.0721 -2.2755
6.5220 3.3161 -2.3713
6.5222 3.4835 -2.4378
6.5221 3.3993 -2.4043
6.5223 3.5687 -2.4719
6.5227 3.8307 -2.5775
6.5224 3.6549 -2.5065
6.5228 3.9203 -2.6140
6.5225 3.7422 -2.5417
6.5229 4.0112 -2.6511
6.5232 4.1968 -2.7273
6.5230 4.1033 -2.6889
6.5233 4.2915 -2.7665
6.5215 4.5831 -2.8876
6.5234 4.3877 -2.8064
6.5216 4.6838 -2.9299
6.5235 4.4854 -2.8471
6.5218 4.7861 -2.9730
6.5219 4.8901 -3.0170
6.5220 4.9959 -3.0619
6.5222 5.1034 -3.1078
6.5223 5.2129 -3.1546
6.5225 5.3244 -3.2024
6.5066 -5.0813 0.3997
6.5068 -4.9803 0.3782
6.5071 -4.8808 0.3570
6.5073 -4.7828 0.3359
6.5075 -4.6863 0.3151
6.5077 -4.5911 0.2944
6.5079 -4.4972 0.2739
6.5084 -4.4048 0.2536
6.5084 -4.3134 0.2335
6.5084 -4.2231 0.2135
6.5085 -4.1341 0.1937
6.5085 -4.0461 0.1740
6.5085 -3.9593 0.1545
6.5085 -3.6221 0.0777
6.5085 -3.8735 0.1351
6.5086 -3.5401 0.0588
6.5085 -3.7887 0.1159
6.5086 -3.4591 0.0400
6.5085 -3.7049 0.0967
6.5086 -3.2995 0.0027
6.5086 -3.3789 0.0213
6.5086 -3.2210 -0.0158
6.5087 -2.9898 -0.0708
6.5086 -3.1432 -0.0342
6.5086 -3.0662 -0.0526
6.5087 -2.9142 -0.0890
6.5087 -2.6913 -0.1432
6.5087 -2.8393 -0.1071
6.5087 -2.6182 -0.1612
6.5087 -2.7650 -0.1252
6.5088 -2.5457 -0.1791
6.5088 -2.4737 -0.1969
6.5088 -2.4023 -0.2147
6.5088 -2.1217 -0.2857
6.5088 -2.3315 -0.2325
6.5089 -2.0527 -0.3033
6.5089 -1.9841 -0.3210
6.5088 -2.2611 -0.2503
6.5089 -1.9160 -0.3386
6.5088 -2.1911 -0.2680
6.5089 -1.8482 -0.3562
6.5090 -1.5806 -0.4267
6.5089 -1.7808 -0.3739
6.5090 -1.5146 -0.4443
6.5089 -1.7137 -0.3915
6.5090 -1.6470 -0.4091
6.5090 -1.4488 -0.4620
6.5094 -1.3181 -0.4973
6.5092 -1.3833 -0.4796
6.5095 -1.2532 -0.5150
6.5099 -1.0596 -0.5683
6.5096 -1.1884 -0.5327
6.5098 -1.1239 -0.5505
6.5100 -0.9955 -0.5861
6.5104 -0.8042 -0.6398
6.5102 -0.9316 -0.6040
6.5105 -0.7407 -0.6578
6.5103 -0.8678 -0.6219
6.5107 -0.6773 -0.6759
6.5108 -0.6141 -0.6940
6.5109 -0.5510 -0.7121
6.5114 -0.2991 -0.7855
6.5111 -0.4879 -0.7304
6.5116 -0.2362 -0.8040
6.5117 -0.1734 -0.8226
6.5112 -0.4249 -0.7487
6.5118 -0.1106 -0.8413
6.5113 -0.3620 -0.7670
6.5119 -0.0478 -0.8601
6.5124 0.2038 -0.9362
6.5121 0.0151 -0.8790
6.5122 0.0780 -0.8980
6.5126 0.2669 -0.9555
6.5123 0.1409 -0.9170
6.5127 0.3300 -0.9749
6.5130 0.4565 -1.0141
6.5131 0.5200 -1.0338
6.5128 0.3932 -0.9944
6.5132 0.5835 -1.0537
6.5135 0.7111 -1.0940
6.5133 0.6473 -1.0738
6.5136 0.7752 -1.1143
6.5140 0.9685 -1.1762
6.5141 1.0334 -1.1971
6.5137 0.8394 -1.1348
6.5143 1.0986 -1.2183
6.5139 0.9039 -1.1554
6.5144 1.1640 -1.2396
6.5145 1.2296 -1.2610
6.5151 1.4954 -1.3489
6.5147 1.2956 -1.2827
6.5152 1.5627 -1.3714
6.5148 1.3619 -1.3046
6.5192 1.6312 -1.3949
6.5193 1.6993 -1.4178
6.5149 1.4285 -1.3266
6.5194 1.7678 -1.4410
6.5198 2.0461 -1.5360
6.5195 1.8366 -1.4644
6.5196 1.9060 -1.4880
6.5198 2.1168 -1.5604
6.5197 1.9758 -1.5119
6.5199 2.1881 -1.5851
6.5201 2.3323 -1.6353
6.5202 2.4053 -1.6609
6.5200 2.2600 -1.6101
6.5203 2.4789 -1.6868
6.5205 2.6279 -1.7395
6.5204 2.5531 -1.7130
6.5206 2.7035 -1.7663
6.5209 2.9344 -1.8491
6.5207 2.7797 -1.7936
6.5210 3.0128 -1.8774
6.5208 2.8567 -1.8211
6.5211 3.0921 -1.9061
6.5213 3.2533 -1.9647
6.5212 3.1723 -1.9352
6.5214 3.3352 -1.9947
6.5217 3.5866 -2.0874
6.5215 3.4180 -2.0251
6.5218 3.6724 -2.1192
6.5216 3.5018 -2.0560
6.5219 3.7593 -2.1516
6.5221 3.9365 -2.2178
6.5220 3.8473 -2.1844
6.5223 4.0269 -2.2518
6.5226 4.3056 -2.3572
6.5224 4.1185 -2.2863
6.5228 4.4012 -2.3936
6.5225 4.2114 -2.3215
6.5229 4.4982 -2.4307
6.5213 4.6955 -2.5061
6.5211 4.5955 -2.4677
6.5214 4.7971 -2.5453
6.5215 4.9004 -2.5852
6.5217 5.0053 -2.6259
6.5218 5.1121 -2.6674
6.5219 5.2207 -2.7097
6.5221 5.3313 -2.7529
6.5222 5.4438 -2.7971
6.5066 -4.9721 0.7698
6.5068 -4.8719 0.7455
6.5070 -4.7732 0.7215
6.5072 -4.6760 0.6978
6.5075 -4.5802 0.6744
6.5077 -4.4857 0.6512
6.5078 -4.3925 0.6283
6.5078 -4.3005 0.6056
6.5078 -4.2098 0.5832
6.5078 -4.1202 0.5609
6.5078 -4.0318 0.5390
6.5079 -3.9445 0.5172
6.5079 -3.8583 0.4956
6.5079 -3.7730 0.4742
6.5079 -3.6889 0.4530
6.5079 -3.6056 0.4320
6.5080 -3.5233 0.4112
6.5080 -3.4419 0.3905
6.5080 -3.3614 0.3700
6.5080 -3.2817 0.3496
6.5080 -3.2028 0.3294
6.5080 -3.1247 0.3093
6.5081 -3.0474 0.2894
6.5081 -2.9708 0.2695
6.5081 -2.8949 0.2498
6.5081 -2.8197 0.2303
6.5081 -2.7452 0.2108
6.5081 -2.6713 0.1914
6.5082 -2.5980 0.1722
6.5082 -2.5252 0.1530
6.5082 -2.4531 0.1339
6.5082 -2.3815 0.1149
6.5082 -2.3104 0.0960
6.5083 -2.2399 0.0772
6.5083 -2.1698 0.0584
6.5083 -2.1002 0.0397
6.5083 -2.0310 0.0211
6.5083 -1.9623 0.0025
6.5083 -1.8940 -0.0160
6.5084 -1.8260 -0.0345
6.5084 -1.7585 -0.0529
6.5084 -1.6913 -0.0713
6.5084 -1.6245 -0.0896
6.5084 -1.5580 -0.1079
6.5084 -1.4918 -0.1262
6.5085 -1.4260 -0.1445
6.5092 -1.3605 -0.1627
6.5093 -1.2952 -0.1809
6.5095 -1.2301 -0.1991
6.5096 -1.1653 -0.2173
6.5097 -1.1007 -0.2355
6.5099 -1.0363 -0.2537
6.5100 -0.9722 -0.2719
6.5101 -0.9082 -0.2901
6.5103 -0.8443 -0.3083
6.5104 -0.7807 -0.3265
6.5105 -0.7171 -0.3447
6.5106 -0.6537 -0.3630
6.5108 -0.5904 -0.3813
6.5109 -0.5272 -0.3995
6.5110 -0.4641 -0.4179
6.5111 -0.4011 -0.4362
6.5113 -0.3381 -0.4546
6.5114 -0.2752 -0.4731
6.5115 -0.2123 -0.4916
6.5120 0.0390 -0.5660
6.5117 -0.1495 -0.5101
6.5122 0.1019 -0.5848
6.5118 -0.0867 -0.5287
6.5123 0.1648 -0.6036
6.5119 -0.0238 -0.5473
6.5124 0.2278 -0.6225
6.5125 0.2908 -0.6415
6.5131 0.5438 -0.7183
6.5127 0.3539 -0.6606
6.5132 0.6074 -0.7377
6.5128 0.4171 -0.6797
6.5133 0.6711 -0.7572
6.5129 0.4804 -0.6989
6.5134 0.7349 -0.7768
6.5136 0.7989 -0.7966
6.5141 1.0570 -0.8767
6.5137 0.8631 -0.8164
6.5142 1.1220 -0.8970
6.5138 0.9275 -0.8364
6.5144 1.1874 -0.9175
6.5140 0.9921 -0.8565
6.5145 1.2530 -0.9381
6.5146 1.3188 -0.9589
6.5152 1.5855 -1.0436
6.5148 1.3850 -0.9799
6.5187 1.6539 -1.0658
6.5149 1.4515 -1.0009
6.5188 1.7218 -1.0876
6.5150 1.5183 -1.0222
6.5189 1.7901 -1.1095
6.5190 1.8589 -1.1317
6.5193 2.1385 -1.2224
6.5191 1.9281 -1.1540
6.5194 2.2096 -1.2456
6.5191 1.9977 -1.1766
6.5195 2.2812 -1.2691
6.5192 2.0679 -1.1994
6.5196 2.3534 -1.2928
6.5197 2.4262 -1.3167
6.5200 2.7234 -1.4152
6.5197 2.4995 -1.3409
6.5201 2.7994 -1.4405
6.5198 2.5735 -1.3654
6.5202 2.8761 -1.4661
6.5199 2.6482 -1.3901
6.5203 2.9535 -1.4920
6.5204 3.0317 -1.5183
6.5208 3.3528 -1.6267
6.5205 3.1107 -1.5449
6.5209 3.4352 -1.6547
6.5206 3.1905 -1.5718
6.5210 3.5186 -1.6831
6.5207 3.2712 -1.5991
6.5211 3.6030 -1.7119
6.5212 3.6885 -1.7412
6.5216 4.0411 -1.8625
6.5213 3.7749 -1.7708
6.5218 4.1321 -1.8940
6.5214 3.8625 -1.8009
6.5219 4.2245 -1.9260
6.5215 3.9512 -1.8314
6.5220 4.3181 -1.9585
6.5221 4.4131 -1.9916
6.5210 4.8065 -2.1292
6.5222 4.5095 -2.0252
6.5212 4.9091 -2.1652
6.5208 4.6063 -2.0590
6.5213 5.0133 -2.2020
6.5209 4.7057 -2.0938
6.5214 5.1192 -2.2394
6.5216 5.2269 -2.2775
6.5217 5.3366 -2.3164
6.5218 5.4481 -2.3561
6.5220 5.5618 -2.3965
6.5066 -4.8636 1.1370
6.5068 -4.7643 1.1099
6.5070 -4.6664 1.0832
6.5072 -4.5700 1.0569
6.5074 -4.4749 1.0309
6.5071 -4.3808 1.0052
6.5071 -4.2883 0.9799
6.5072 -4.1970 0.9548
6.5072 -4.1069 0.9301
6.5072 -4.0180 0.9057
6.5072 -3.9303 0.8815
6.5073 -3.8436 0.8577
6.5073 -3.7580 0.8340
6.5073 -3.6734 0.8107
6.5073 -3.5897 0.7876
6.5073 -3.5071 0.7647
6.5074 -3.4253 0.7420
6.5074 -3.3445 0.7196
6.5074 -3.2644 0.6974
6.5074 -3.1853 0.6753
6.5075 -3.1069 0.6535
6.5075 -3.0293 0.6319
6.5075 -2.9524 0.6104
6.5075 -2.8762 0.5891
6.5075 -2.8008 0.5680
6.5076 -2.7260 0.5471
6.5076 -2.6518 0.5263
6.5076 -2.5783 0.5056
6.5076 -2.5054 0.4851
6.5076 -2.4330 0.4647
6.5077 -2.3612 0.4445
6.5077 -2.2900 0.4244
6.5077 -2.2192 0.4044
6.5077 -2.1490 0.3845
6.5077 -2.0792 0.3647
6.5077 -2.0099 0.3450
6.5078 -1.9410 0.3255
6.5078 -1.8725 0.3060
6.5078 -1.8045 0.2866
6.5078 -1.7368 0.2673
6.5078 -1.6695 0.2481
6.5079 -1.6026 0.2290
6.5079 -1.5360 0.2099
6.5079 -1.4697 0.1909
6.5090 -1.4039 0.1720
6.5092 -1.3383 0.1531
6.5093 -1.2729 0.1343
6.5094 -1.2077 0.1155
6.5096 -1.1428 0.0968
6.5097 -1.0781 0.0781
6.5098 -1.0137 0.0594
6.5100 -0.9494 0.0408
6.5101 -0.8854 0.0222
6.5102 -0.8215 0.0037
6.5103 -0.7577 -0.0149
6.5105 -0.6941 -0.0334
6.5106 -0.6307 -0.0519
6.5107 -0.5673 -0.0704
6.5109 -0.5041 -0.0889
6.5110 -0.4410 -0.1073
6.5111 -0.3779 -0.1258
6.5112 -0.3149 -0.1443
6.5114 -0.2520 -0.1628
6.5115 -0.1891 -0.1813
6.5116 -0.1262 -0.1998
6.5118 -0.0634 -0.2184
6.5119 -0.0005 -0.2370
6.5120 0.0623 -0.2555
6.5121 0.1252 -0.2742
6.5123 0.1881 -0.2928
6.5124 0.2510 -0.3115
6.5125 0.3141 -0.3303
6.5126 0.3772 -0.3490
6.5128 0.4403 -0.3679
6.5129 0.5036 -0.3868
6.5130 0.5670 -0.4057
6.5132 0.6305 -0.4247
6.5133 0.6941 -0.4438
6.5134 0.7579 -0.4629
6.5135 0.8219 -0.4821
6.5137 0.8861 -0.5014
6.5138 0.9504 -0.5208
6.5139 1.0149 -0.5403
6.5141 1.0797 -0.5598
6.5142 1.1447 -0.5795
6.5143 1.2100 -0.5992
6.5145 1.2755 -0.6190
6.5146 1.3413 -0.6390
6.5147 1.4073 -0.6591
6.5149 1.4738 -0.6793
6.5150 1.5405 -0.6996
6.5181 1.6082 -0.7204
6.5182 1.6756 -0.7410
6.5183 1.7435 -0.7617
6.5184 1.8117 -0.7826
6.5184 1.8803 -0.8036
6.5185 1.9493 -0.8248
6.5186 2.0188 -0.8461
6.5187 2.0888 -0.8676
6.5188 2.1592 -0.8893
6.5189 2.2301 -0.9111
6.5189 2.3016 -0.9332
6.5190 2.3736 -0.9554
6.5191 2.4462 -0.9779
6.5192 2.5193 -1.0005
6.5193 2.5931 -1.0234
6.5194 2.6675 -1.0465
6.5195 2.7425 -1.0698
6.5196 2.8182 -1.0933
6.5196 2.8946 -1.1171
6.5197 2.9718 -1.1412
6.5198 3.0497 -1.1655
6.5199 3.1284 -1.1900
6.5200 3.2079 -1.2149
6.5201 3.2882 -1.2401
6.5202 3.3694 -1.2655
6.5203 3.4515 -1.2913
6.5204 3.5345 -1.3173
6.5205 3.6185 -1.3438
6.5206 3.7035 -1.3705
6.5207 3.7895 -1.3976
6.5208 3.8766 -1.4251
6.5209 3.9649 -1.4529
6.5210 4.0542 -1.4812
6.5211 4.1448 -1.5098
6.5212 4.2366 -1.5389
6.5214 4.3296 -1.5684
6.5215 4.4240 -1.5984
6.5216 4.5198 -1.6288
6.5205 4.6162 -1.6594
6.5206 4.7148 -1.6908
6.5207 4.8150 -1.7227
6.5208 4.9168 -1.7551
6.5209 5.0202 -1.7881
6.5211 5.1253 -1.8217
6.5212 5.2322 -1.8559
6.5213 5.3409 -1.8907
6.5215 5.4515 -1.9262
6.5216 5.5642 -1.9623
6.5217 5.6788 -1.9991
6.5065 -4.7556 1.5030
6.5067 -4.6570 1.4732
6.5070 -4.5600 1.4438
6.5064 -4.4637 1.4147
6.5065 -4.3693 1.3862
6.5065 -4.2762 1.3580
6.5065 -4.1844 1.3303
6.5066 -4.0938 1.3029
6.5066 -4.0045 1.2759
6.5066 -3.9162 1.2492
6.5066 -3.8291 1.2229
6.5067 -3.7431 1.1970
6.5067 -3.6581 1.1713
6.5067 -3.5740 1.1460
6.5067 -3.4910 1.1210
6.5068 -3.4089 1.0962
6.5068 -3.3277 1.0718
6.5068 -3.2473 1.0476
6.5068 -3.1678 1.0237
6.5069 -3.0892 1.0000
6.5069 -3.0113 0.9765
6.5069 -2.9341 0.9534
6.5069 -2.8577 0.9304
6.5069 -2.7820 0.9076
6.5070 -2.7069 0.8851
6.5070 -2.6325 0.8628
6.5070 -2.5588 0.8407
6.5070 -2.4857 0.8187
6.5071 -2.4131 0.7970
6.5071 -2.3411 0.7754
6.5071 -2.2697 0.7540
6.5071 -2.1987 0.7328
6.5071 -2.1283 0.7117
6.5072 -2.0584 0.6907
6.5072 -1.9889 0.6700
6.5072 -1.9199 0.6493
6.5072 -1.8513 0.6288
6.5072 -1.7831 0.6085
6.5073 -1.7153 0.5882
6.5073 -1.6479 0.5681
6.5073 -1.5808 0.5481
6.5073 -1.5141 0.5282
6.5073 -1.4477 0.5084
6.5090 -1.3820 0.4888
6.5091 -1.3162 0.4692
6.5093 -1.2507 0.4497
6.5094 -1.1855 0.4303
6.5095 -1.1205 0.4110
6.5097 -1.0558 0.3918
6.5098 -0.9913 0.3726
6.5099 -0.9269 0.3535
6.5101 -0.8628 0.3344
6.5102 -0.7988 0.3154
6.5103 -0.7350 0.2965
6.5104 -0.6714 0.2776
6.5106 -0.6079 0.2588
6.5107 -0.5445 0.2400
6.5108 -0.4813 0.2213
6.5110 -0.4181 0.2026
6.5111 -0.3550 0.1839
6.5112 -0.2920 0.1653
6.5113 -0.2290 0.1467
6.5115 -0.1661 0.1281
6.5116 -0.1033 0.1095
6.5117 -0.0404 0.0909
6.5118 0.0224 0.0724
6.5120 0.0853 0.0538
6.5121 0.1482 0.0353
6.5122 0.2111 0.0167
6.5124 0.2740 -0.0018
6.5125 0.3370 -0.0204
6.5126 0.4001 -0.0389
6.5127 0.4632 -0.0575
6.5129 0.5264 -0.0761
6.5130 0.5898 -0.0947
6.5131 0.6533 -0.1134
6.5132 0.7169 -0.1321
6.5134 0.7806 -0.1508
6.5135 0.8446 -0.1696
6.5136 0.9086 -0.1884
6.5138 0.9729 -0.2072
6.5139 1.0374 -0.2261
6.5140 1.1021 -0.2451
6.5142 1.1670 -0.2641
6.5143 1.2322 -0.2832
6.5144 1.2976 -0.3023
6.5146 1.3633 -0.3215
6.5147 1.4293 -0.3408
6.5148 1.4956 -0.3602
6.5150 1.5622 -0.3797
6.5176 1.6297 -0.3994
6.5177 1.6970 -0.4190
6.5178 1.7647 -0.4388
6.5179 1.8328 -0.4586
6.5179 1.9013 -0.4786
6.5180 1.9701 -0.4987
6.5181 2.0395 -0.5189
6.5182 2.1092 -0.5392
6.5183 2.1795 -0.5597
6.5183 2.2503 -0.5802
6.5184 2.3215 -0.6010
6.5185 2.3933 -0.6218
6.5186 2.4657 -0.6429
6.5187 2.5386 -0.6640
6.5188 2.6121 -0.6854
6.5188 2.6863 -0.7069
6.5189 2.7611 -0.7286
6.5190 2.8365 -0.7505
6.5191 2.9127 -0.7726
6.5192 2.9895 -0.7948
6.5193 3.0671 -0.8173
6.5194 3.1455 -0.8400
6.5195 3.2247 -0.8629
6.5195 3.3047 -0.8861
6.5196 3.3855 -0.9095
6.5197 3.4672 -0.9331
6.5198 3.5499 -0.9570
6.5199 3.6335 -0.9811
6.5200 3.7180 -1.0055
6.5201 3.8036 -1.0302
6.5202 3.8903 -1.0552
6.5203 3.9780 -1.0805
6.5204 4.0669 -1.1062
6.5205 4.1569 -1.1321
6.5206 4.2481 -1.1584
6.5207 4.3406 -1.1851
6.5208 4.4344 -1.2121
6.5210 4.5296 -1.2394
6.5201 4.6255 -1.2670
6.5202 4.7235 -1.2952
6.5204 4.8230 -1.3238
6.5205 4.9240 -1.3528
6.5206 5.0266 -1.3823
6.5207 5.1309 -1.4123
6.5208 5.2369 -1.4427
6.5210 5.3448 -1.4737
6.5211 5.4545 -1.5051
6.5212 5.5661 -1.5372
6.5214 5.6798 -1.5698
6.5215 5.7955 -1.6029
6.5065 -4.6474 1.8695
6.5067 -4.5497 1.8369
6.5058 -4.4526 1.8045
6.5058 -4.3576 1.7729
6.5058 -4.2639 1.7417
6.5059 -4.1716 1.7111
6.5059 -4.0805 1.6809
6.5059 -3.9906 1.6512
6.5060 -3.9019 1.6220
6.5060 -3.8143 1.5931
6.5060 -3.7279 1.5647
6.5061 -3.6424 1.5366
6.5061 -3.5581 1.5089
6.5061 -3.4746 1.4816
6.5061 -3.3922 1.4547
6.5062 -3.3106 1.4281
6.5062 -3.2299 1.4018
6.5062 -3.1501 1.3759
6.5063 -3.0712 1.3502
6.5063 -2.9930 1.3249
6.5063 -2.9155 1.2999
6.5063 -2.8389 1.2751
6.5064 -2.7629 1.2507
6.5064 -2.6876 1.2264
6.5064 -2.6130 1.2025
6.5064 -2.5390 1.1788
6.5065 -2.4657 1.1553
6.5065 -2.3929 1.1321
6.5065 -2.3207 1.1091
6.5065 -2.2491 1.0863
6.5066 -2.1780 1.0638
6.5066 -2.1074 1.0414
6.5066 -2.0373 1.0193
6.5066 -1.9677 0.9973
6.5066 -1.8985 0.9755
6.5067 -1.8298 0.9539
6.5067 -1.7615 0.9325
6.5067 -1.6936 0.9112
6.5067 -1.6261 0.8901
6.5068 -1.5589 0.8691
6.5068 -1.4921 0.8483
6.5068 -1.4256 0.8277
6.5090 -1.3599 0.8074
6.5091 -1.2940 0.7871
6.5092 -1.2284 0.7668
6.5094 -1.1631 0.7467
6.5095 -1.0980 0.7267
6.5096 -1.0332 0.7068
6.5098 -0.9686 0.6871
6.5099 -0.9043 0.6674
6.5100 -0.8401 0.6478
6.5102 -0.7761 0.6283
6.5103 -0.7122 0.6090
6.5104 -0.6485 0.5897
6.5105 -0.5850 0.5705
6.5107 -0.5216 0.5513
6.5108 -0.4583 0.5323
6.5109 -0.3951 0.5133
6.5111 -0.3320 0.4944
6.5112 -0.2690 0.4755
6.5113 -0.2060 0.4567
6.5114 -0.1431 0.4380
6.5116 -0.0802 0.4193
6.5117 -0.0173 0.4006
6.5118 0.0455 0.3820
6.5119 0.1084 0.3635
6.5121 0.1712 0.3449
6.5122 0.2341 0.3265
6.5123 0.2970 0.3080
6.5124 0.3600 0.2896
6.5126 0.4230 0.2711
6.5127 0.4862 0.2527
6.5128 0.5494 0.2343
6.5130 0.6127 0.2160
6.5131 0.6761 0.1976
6.5132 0.7397 0.1792
6.5133 0.8034 0.1609
6.5135 0.8672 0.1425
6.5136 0.9312 0.1241
6.5137 0.9954 0.1057
6.5139 1.0598 0.0873
6.5140 1.1245 0.0689
6.5141 1.1893 0.0504
6.5143 1.2544 0.0319
6.5144 1.3197 0.0134
6.5145 1.3853 -0.0051
6.5146 1.4512 -0.0237
6.5148 1.5174 -0.0423
6.5149 1.5839 -0.0610
6.5171 1.6512 -0.0798
6.5172 1.7184 -0.0986
6.5173 1.7859 -0.1174
6.5173 1.8539 -0.1363
6.5174 1.9222 -0.1553
6.5175 1.9909 -0.1744
6.5176 2.0601 -0.1935
6.5177 2.1297 -0.2127
6.5177 2.1998 -0.2320
6.5178 2.2703 -0.2514
6.5179 2.3414 -0.2709
6.5180 2.4130 -0.2905
6.5181 2.4851 -0.3102
6.5181 2.5578 -0.3300
6.5182 2.6311 -0.3499
6.5183 2.7050 -0.3700
6.5184 2.7796 -0.3902
6.5185 2.8548 -0.4105
6.5186 2.9306 -0.4309
6.5186 3.0072 -0.4515
6.5187 3.0845 -0.4723
6.5188 3.1626 -0.4932
6.5189 3.2414 -0.5143
6.5190 3.3210 -0.5355
6.5191 3.4015 -0.5569
6.5192 3.4829 -0.5785
6.5193 3.5652 -0.6003
6.5194 3.6484 -0.6223
6.5194 3.7325 -0.6446
6.5195 3.8177 -0.6670
6.5196 3.9038 -0.6897
6.5197 3.9911 -0.7126
6.5198 4.0795 -0.7357
6.5199 4.1690 -0.7591
6.5200 4.2597 -0.7827
6.5201 4.3516 -0.8067
6.5202 4.4448 -0.8309
6.5203 4.5393 -0.8554
6.5198 4.6349 -0.8801
6.5199 4.7322 -0.9052
6.5200 4.8309 -0.9307
6.5201 4.9312 -0.9565
6.5203 5.0331 -0.9826
6.5204 5.1366 -1.0091
6.5205 5.2418 -1.0360
6.5206 5.3487 -1.0633
6.5207 5.4575 -1.0910
6.5209 5.5682 -1.1192
6.5210 5.6809 -1.1478
6.5211 5.7955 -1.1768
6.5213 5.9123 -1.2064
6.5065 -4.5387 2.2379
6.5051 -4.4406 2.2020
6.5051 -4.3450 2.1671
6.5052 -4.2508 2.1329
6.5052 -4.1580 2.0992
6.5052 -4.0664 2.0661
6.5053 -3.9760 2.0335
6.5053 -3.8868 2.0014
6.5054 -3.7988 1.9698
6.5054 -3.7119 1.9388
6.5054 -3.6261 1.9082
6.5055 -3.5413 1.8780
6.5055 -3.4575 1.8483
6.5055 -3.3747 1.8190
6.5056 -3.2928 1.7901
6.5056 -3.2118 1.7617
6.5056 -3.1317 1.7336
6.5056 -3.0524 1.7059
6.5057 -2.9739 1.6785
6.5057 -2.8963 1.6515
6.5057 -2.8193 1.6249
6.5058 -2.7431 1.5986
6.5058 -2.6676 1.5726
6.5058 -2.5928 1.5469
6.5058 -2.5186 1.5215
6.5059 -2.4450 1.4965
6.5059 -2.3721 1.4717
6.5059 -2.2997 1.4472
6.5060 -2.2279 1.4229
6.5060 -2.1566 1.3989
6.5060 -2.0859 1.3752
6.5060 -2.0156 1.3517
6.5061 -1.9459 1.3285
6.5061 -1.8766 1.3054
6.5061 -1.8077 1.2826
6.5061 -1.7393 1.2601
6.5062 -1.6713 1.2377
6.5062 -1.6036 1.2155
6.5062 -1.5363 1.1936
6.5062 -1.4694 1.1718
6.5088 -1.4034 1.1506
6.5089 -1.3371 1.1292
6.5091 -1.2712 1.1080
6.5092 -1.2055 1.0869
6.5093 -1.1401 1.0660
6.5095 -1.0750 1.0453
6.5096 -1.0101 1.0247
6.5097 -0.9455 1.0043
6.5099 -0.8810 0.9840
6.5100 -0.8168 0.9638
6.5101 -0.7527 0.9438
6.5103 -0.6888 0.9239
6.5104 -0.6251 0.9041
6.5105 -0.5615 0.8844
6.5106 -0.4981 0.8649
6.5108 -0.4348 0.8454
6.5109 -0.3716 0.8261
6.5110 -0.3084 0.8069
6.5111 -0.2454 0.7877
6.5113 -0.1824 0.7687
6.5114 -0.1195 0.7497
6.5115 -0.0566 0.7309
6.5117 0.0062 0.7121
6.5118 0.0691 0.6934
6.5119 0.1319 0.6747
6.5120 0.1947 0.6562
6.5122 0.2576 0.6376
6.5123 0.3205 0.6192
6.5124 0.3834 0.6008
6.5125 0.4465 0.5825
6.5127 0.5095 0.5642
6.5128 0.5727 0.5460
6.5129 0.6360 0.5278
6.5131 0.6994 0.5097
6.5132 0.7629 0.4915
6.5133 0.8265 0.4735
6.5134 0.8903 0.4554
6.5136 0.9543 0.4374
6.5137 1.0184 0.4194
6.5138 1.0827 0.4014
6.5140 1.1473 0.3835
6.5141 1.2120 0.3655
6.5142 1.2770 0.3475
6.5143 1.3423 0.3296
6.5145 1.4078 0.3117
6.5146 1.4736 0.2937
6.5147 1.5396 0.2758
6.5165 1.6063 0.2579
6.5166 1.6731 0.2399
6.5167 1.7401 0.2219
6.5168 1.8075 0.2039
6.5168 1.8753 0.1858
6.5169 1.9435 0.1677
6.5170 2.0120 0.1496
6.5171 2.0811 0.1315
6.5171 2.1505 0.1133
6.5172 2.2204 0.0951
6.5173 2.2908 0.0768
6.5174 2.3616 0.0585
6.5174 2.4330 0.0401
6.5175 2.5049 0.0216
6.5176 2.5774 0.0031
6.5177 2.6505 -0.0155
6.5178 2.7241 -0.0341
6.5178 2.7984 -0.0529
6.5179 2.8733 -0.0717
6.5180 2.9489 -0.0906
6.5181 3.0252 -0.1097
6.5182 3.1022 -0.1288
6.5183 3.1800 -0.1480
6.5183 3.2585 -0.1673
6.5184 3.3378 -0.1868
6.5185 3.4179 -0.2063
6.5186 3.4989 -0.2260
6.5187 3.5808 -0.2459
6.5188 3.6636 -0.2658
6.5189 3.7473 -0.2860
6.5190 3.8321 -0.3062
6.5191 3.9178 -0.3267
6.5191 4.0046 -0.3473
6.5192 4.0925 -0.3680
6.5193 4.1815 -0.3890
6.5194 4.2716 -0.4102
6.5195 4.3630 -0.4315
6.5196 4.4556 -0.4530
6.5197 4.5495 -0.4748
6.5195 4.6446 -0.4968
6.5196 4.7413 -0.5190
6.5197 4.8393 -0.5414
6.5198 4.9389 -0.5642
6.5199 5.0400 -0.5871
6.5200 5.1427 -0.6104
6.5202 5.2471 -0.6339
6.5203 5.3532 -0.6578
6.5204 5.4611 -0.6819
6.5205 5.5708 -0.7064
6.5206 5.6825 -0.7312
6.5208 5.7962 -0.7563
6.5209 5.9119 -0.7818
6.5210 6.0298 -0.8077
6.5044 -4.4274 2.6091
6.5044 -4.3312 2.5708
6.5045 -4.2365 2.5333
6.5045 -4.1431 2.4964
6.5046 -4.0510 2.4601
6.5046 -3.9601 2.4244
6.5047 -3.8705 2.3894
6.5047 -3.7821 2.3550
6.5047 -3.6947 2.3211
6.5048 -3.6085 2.2878
6.5048 -3.5233 2.2550
6.5048 -3.4392 2.2227
6.5049 -3.3560 2.1909
6.5049 -3.2738 2.1596
6.5050 -3.1925 2.1288
6.5050 -3.1121 2.0985
6.5050 -3.0325 2.0686
6.5051 -2.9538 2.0391
6.5051 -2.8758 2.0100
6.5051 -2.7986 1.9813
6.5052 -2.7222 1.9531
6.5052 -2.6464 1.9252
6.5052 -2.5714 1.8977
6.5052 -2.4970 1.8705
6.5053 -2.4232 1.8437
6.5053 -2.3501 1.8172
6.5053 -2.2776 1.7911
6.5054 -2.2056 1.7653
6.5054 -2.1342 1.7397
6.5054 -2.0633 1.7145
6.5054 -1.9929 1.6896
6.5055 -1.9230 1.6650
6.5055 -1.8535 1.6406
6.5055 -1.7846 1.6166
6.5056 -1.7160 1.5928
6.5056 -1.6479 1.5692
6.5056 -1.5801 1.5459
6.5056 -1.5128 1.5228
6.5057 -1.4457 1.5000
6.5088 -1.3797 1.4780
6.5089 -1.3134 1.4557
6.5090 -1.2474 1.4335
6.5092 -1.1816 1.4115
6.5093 -1.1162 1.3898
6.5094 -1.0510 1.3682
6.5096 -0.9860 1.3468
6.5097 -0.9213 1.3257
6.5098 -0.8568 1.3047
6.5100 -0.7925 1.2838
6.5101 -0.7285 1.2632
6.5102 -0.6645 1.2427
6.5103 -0.6008 1.2223
6.5105 -0.5372 1.2021
6.5106 -0.4737 1.1821
6.5107 -0.4104 1.1622
6.5109 -0.3471 1.1424
6.5110 -0.2840 1.1228
6.5111 -0.2210 1.1033
6.5112 -0.1580 1.0840
6.5114 -0.0950 1.0648
6.5115 -0.0322 1.0456
6.5116 0.0307 1.0266
6.5118 0.0935 1.0078
6.5119 0.1563 0.9890
6.5120 0.2191 0.9703
6.5121 0.2820 0.9517
6.5123 0.3448 0.9332
6.5124 0.4078 0.9149
6.5125 0.4707 0.8965
6.5126 0.5338 0.8783
6.5128 0.5969 0.8602
6.5129 0.6601 0.8421
6.5130 0.7234 0.8242
6.5131 0.7869 0.8062
6.5133 0.8505 0.7884
6.5134 0.9142 0.7706
6.5135 0.9781 0.7529
6.5137 1.0422 0.7352
6.5138 1.1064 0.7176
6.5139 1.1709 0.7000
6.5141 1.2356 0.6825
6.5142 1.3004 0.6650
6.5143 1.3656 0.6476
6.5144 1.4310 0.6302
6.5146 1.4967 0.6128
6.5147 1.5626 0.5955
6.5160 1.6291 0.5783
6.5161 1.6957 0.5610
6.5162 1.7626 0.5437
6.5162 1.8299 0.5265
6.5163 1.8975 0.5092
6.5164 1.9655 0.4920
6.5165 2.0340 0.4748
6.5165 2.1028 0.4575
6.5166 2.1721 0.4403
6.5167 2.2418 0.4231
6.5168 2.3120 0.4059
6.5168 2.3826 0.3886
6.5169 2.4538 0.3714
6.5170 2.5255 0.3541
6.5171 2.5978 0.3368
6.5171 2.6706 0.3194
6.5172 2.7440 0.3021
6.5173 2.8181 0.2847
6.5174 2.8927 0.2673
6.5175 2.9680 0.2498
6.5175 3.0440 0.2323
6.5176 3.1208 0.2147
6.5177 3.1982 0.1971
6.5178 3.2764 0.1794
6.5179 3.3554 0.1617
6.5180 3.4351 0.1439
6.5180 3.5158 0.1260
6.5181 3.5973 0.1080
6.5182 3.6797 0.0900
6.5183 3.7630 0.0719
6.5184 3.8473 0.0537
6.5185 3.9326 0.0354
6.5186 4.0189 0.0169
6.5186 4.1063 -0.0016
6.5187 4.1948 -0.0202
6.5188 4.2844 -0.0390
6.5189 4.3753 -0.0578
6.5190 4.4673 -0.0769
6.5190 4.5607 -0.0960
6.5191 4.6553 -0.1153
6.5193 4.7513 -0.1348
6.5194 4.8487 -0.1544
6.5195 4.9476 -0.1741
6.5196 5.0480 -0.1941
6.5197 5.1499 -0.2142
6.5198 5.2535 -0.2345
6.5199 5.3588 -0.2551
6.5200 5.4658 -0.2758
6.5202 5.5746 -0.2968
6.5203 5.6853 -0.3179
6.5204 5.7980 -0.3394
6.5205 5.9126 -0.3610
6.5207 6.0294 -0.3830
6.5208 6.1484 -0.4052
5.8531 -3.8839 2.6874
5.9349 -3.8512 2.6874
6.0175 -3.8178 2.6874
6.1007 -3.7837 2.6874
6.1847 -3.7489 2.6874
6.2695 -3.7135 2.6874
6.3550 -3.6773 2.6874
6.4414 -3.6404 2.6874
6.5041 -3.5892 2.6773
6.5041 -3.5036 2.6417
6.5042 -3.4191 2.6067
6.5042 -3.3356 2.5723
6.5043 -3.2531 2.5384
6.5043 -3.1715 2.5051
6.5043 -3.0908 2.4723
6.5044 -3.0109 2.4400
6.5044 -2.9319 2.4083
6.5045 -2.8537 2.3770
6.5045 -2.7763 2.3461
6.5045 -2.6996 2.3158
6.5046 -2.6236 2.2859
6.5046 -2.5484 2.2564
6.5046 -2.4738 2.2273
6.5047 -2.3999 2.1986
6.5047 -2.3265 2.1704
6.5047 -2.2538 2.1425
6.5048 -2.1817 2.1150
6.5048 -2.1101 2.0878
6.5048 -2.0391 2.0611
6.5049 -1.9686 2.0346
6.5049 -1.8985 2.0085
6.5049 -1.8290 1.9827
6.5049 -1.7599 1.9573
6.5050 -1.6912 1.9321
6.5050 -1.6230 1.9072
6.5050 -1.5551 1.8827
6.5051 -1.4877 1.8584
6.5051 -1.4206 1.8344
6.5087 -1.3546 1.8117
6.5089 -1.2882 1.7882
6.5090 -1.2221 1.7650
6.5091 -1.1563 1.7421
6.5093 -1.0908 1.7194
6.5094 -1.0255 1.6969
6.5095 -0.9605 1.6747
6.5097 -0.8958 1.6527
6.5098 -0.8312 1.6309
6.5099 -0.7669 1.6093
6.5101 -0.7028 1.5880
6.5102 -0.6389 1.5668
6.5103 -0.5751 1.5458
6.5106 -0.4480 1.5044
6.5104 -0.5114 1.5250
6.5111 -0.1952 1.4238
6.5107 -0.3846 1.4840
6.5112 -0.1322 1.4041
6.5108 -0.3214 1.4638
6.5113 -0.0693 1.3845
6.5115 -0.0064 1.3651
6.5110 -0.2582 1.4437
6.5116 0.0564 1.3458
6.5121 0.3076 1.2701
6.5117 0.1192 1.3267
6.5119 0.1820 1.3077
6.5122 0.3705 1.2515
6.5120 0.2448 1.2888
6.5124 0.4333 1.2331
6.5126 0.5593 1.1965
6.5125 0.4963 1.2147
6.5127 0.6223 1.1784
6.5129 0.6855 1.1604
6.5131 0.8122 1.1247
6.5130 0.7488 1.1425
6.5136 1.0672 1.0546
6.5132 0.8757 1.1071
6.5138 1.1313 1.0373
6.5134 0.9394 1.0895
6.5139 1.1957 1.0201
6.5135 1.0032 1.0720
6.5140 1.2603 1.0029
6.5142 1.3251 0.9859
6.5147 1.5869 0.9183
6.5155 1.6531 0.9017
6.5143 1.3901 0.9689
6.5156 1.7196 0.8850
6.5144 1.4554 0.9520
6.5157 1.7864 0.8684
6.5157 1.8535 0.8519
6.5145 1.5210 0.9351
6.5158 1.9210 0.8354
6.5159 1.9888 0.8189
6.5160 2.1257 0.7861
6.5159 2.0571 0.8025
6.5161 2.1948 0.7698
6.5163 2.4048 0.7210
6.5164 2.4758 0.7048
6.5162 2.2644 0.7535
6.5165 2.5473 0.6887
6.5162 2.3344 0.7373
6.5165 2.6193 0.6725
6.5166 2.6919 0.6564
6.5169 2.9883 0.5920
6.5170 3.0641 0.5759
6.5167 2.7651 0.6403
6.5171 3.1405 0.5598
6.5168 2.8389 0.6242
6.5172 3.2176 0.5437
6.5172 3.2955 0.5276
6.5168 2.9133 0.6081
6.5173 3.3742 0.5115
6.5176 3.6150 0.4631
6.5174 3.4536 0.4954
6.5176 3.6970 0.4469
6.5175 3.5339 0.4792
6.5179 3.9487 0.3981
6.5177 3.7799 0.4307
6.5180 4.0346 0.3818
6.5178 3.8638 0.4144
6.5181 4.1215 0.3654
6.5181 4.2095 0.3490
6.5182 4.2986 0.3325
6.5188 4.6674 0.2661
6.5183 4.3889 0.3160
6.5189 4.7628 0.2493
6.5184 4.4804 0.2994
6.5190 4.8595 0.2324
6.5191 4.9577 0.2155
6.5185 4.5731 0.2828
6.5192 5.0574 0.1984
6.5197 5.4720 0.1292
6.5194 5.1586 0.1813
6.5198 5.5799 0.1116
6.5195 5.2614 0.1640
6.5196 5.3658 0.1466
6.5199 5.6897 0.0939
6.5202 5.9150 0.0580
6.5200 5.8014 0.0760
6.5203 6.0307 0.0399
6.5204 6.1486 0.0216
6.5205 6.2686 0.0031
5.1857 -3.3506 2.6874
5.2544 -3.3186 2.6874
5.3236 -3.2861 2.6874
5.3933 -3.2530 2.6874
5.4634 -3.2192 2.6874
5.5340 -3.1848 2.6874
5.6051 -3.1497 2.6874
5.6767 -3.1140 2.6874
5.7488 -3.0776 2.6874
5.8215 -3.0405 2.6874
5.8947 -3.0028 2.6874
5.9684 -2.9643 2.6874
6.0427 -2.9251 2.6874
6.1176 -2.8851 2.6874
6.1930 -2.8444 2.6874
6.2691 -2.8029 2.6874
6.3458 -2.7607 2.6874
6.4231 -2.7176 2.6874
6.5010 -2.6737 2.6874
6.5039 -2.5987 2.6565
6.5040 -2.5233 2.6249
6.5040 -2.4485 2.5937
6.5040 -2.3744 2.5631
6.5041 -2.3009 2.5329
6.5041 -2.2281 2.5032
6.5041 -2.1558 2.4738
6.5042 -2.0841 2.4449
6.5042 -2.0129 2.4164
6.5042 -1.9423 2.3884
6.5043 -1.8721 2.3606
6.5043 -1.8025 2.3333
6.5043 -1.7332 2.3064
6.5044 -1.6645 2.2798
6.5044 -1.5962 2.2535
6.5044 -1.5283 2.2276
6.5045 -1.4607 2.2020
6.5086 -1.3944 2.1781
6.5087 -1.3276 2.1532
6.5088 -1.2611 2.1286
6.5090 -1.1950 2.1043
6.5091 -1.1291 2.0803
6.5092 -1.0635 2.0566
6.5094 -0.9982 2.0331
6.5095 -0.9332 2.0099
6.5096 -0.8684 1.9870
6.5098 -0.8038 1.9643
6.5099 -0.7395 1.9419
6.5100 -0.6753 1.9198
6.5102 -0.6113 1.8978
6.5103 -0.5476 1.8762
6.5104 -0.4839 1.8547
6.5105 -0.4204 1.8335
6.5107 -0.3571 1.8125
6.5108 -0.2938 1.7917
6.5109 -0.2307 1.7711
6.5111 -0.1676 1.7507
6.5112 -0.1047 1.7305
6.5113 -0.0418 1.7105
6.5114 0.0211 1.6907
6.5116 0.0839 1.6711
6.5117 0.1467 1.6516
6.5118 0.2094 1.6324
6.5119 0.2722 1.6133
6.5121 0.3350 1.5944
6.5122 0.3978 1.5756
6.5123 0.4606 1.5570
6.5125 0.5235 1.5386
6.5126 0.5865 1.5203
6.5127 0.6495 1.5021
6.5128 0.7126 1.4841
6.5130 0.7758 1.4663
6.5131 0.8391 1.4486
6.5132 0.9026 1.4310
6.5133 0.9662 1.4136
6.5135 1.0299 1.3963
6.5136 1.0938 1.3791
6.5137 1.1579 1.3620
6.5139 1.2222 1.3451
6.5140 1.2867 1.3282
6.5141 1.3514 1.3115
6.5143 1.4163 1.2949
6.5144 1.4815 1.2784
6.5145 1.5470 1.2621
6.5149 1.6127 1.2458
6.5150 1.6787 1.2296
6.5151 1.7450 1.2135
6.5151 1.8117 1.1975
6.5152 1.8787 1.1816
6.5153 1.9460 1.1658
6.5153 2.0137 1.1501
6.5154 2.0818 1.1344
6.5155 2.1503 1.1188
6.5156 2.2192 1.1033
6.5156 2.2886 1.0879
6.5157 2.3584 1.0726
6.5158 2.4287 1.0573
6.5159 2.4994 1.0421
6.5159 2.5707 1.0270
6.5160 2.6425 1.0119
6.5161 2.7149 0.9969
6.5161 2.7879 0.9820
6.5162 2.8614 0.9671
6.5163 2.9355 0.9522
6.5164 3.0103 0.9375
6.5164 3.0858 0.9227
6.5165 3.1619 0.9080
6.5166 3.2387 0.8934
6.5167 3.3163 0.8788
6.5168 3.3946 0.8643
6.5168 3.4737 0.8497
6.5169 3.5537 0.8353
6.5170 3.6345 0.8208
6.5171 3.7161 0.8064
6.5171 3.7986 0.7920
6.5172 3.8821 0.7777
6.5173 3.9665 0.7633
6.5174 4.0519 0.7490
6.5175 4.1384 0.7347
6.5176 4.2259 0.7204
6.5176 4.3146 0.7062
6.5177 4.4043 0.6919
6.5178 4.4953 0.6777
6.5179 4.5874 0.6634
6.5185 4.6814 0.6492
6.5186 4.7761 0.6350
6.5187 4.8722 0.6207
6.5188 4.9698 0.6065
6.5189 5.0687 0.5922
6.5190 5.1692 0.5779
6.5191 5.2713 0.5636
6.5192 5.3749 0.5493
6.5193 5.4803 0.5350
6.5195 5.5873 0.5206
6.5196 5.6962 0.5063
6.5197 5.8069 0.4918
6.5198 5.9196 0.4774
6.5199 6.0343 0.4629
6.5200 6.1511 0.4483
6.5202 6.2700 0.4337
6.5203 6.3912 0.4191
4.7587 -2.9897 2.7539
4.7646 -2.9248 2.7228
4.7757 -2.8637 2.6953
4.8210 -2.8237 2.6874
4.8807 -2.7913 2.6874
4.9407 -2.7583 2.6874
5.0010 -2.7248 2.6874
5.0617 -2.6907 2.6874
5.1226 -2.6560 2.6874
5.1839 -2.6207 2.6874
5.2455 -2.5847 2.6874
5.3074 -2.5482 2.6874
5.3697 -2.5109 2.6874
5.4323 -2.4731 2.6874
5.4953 -2.4346 2.6874
5.5586 -2.3954 2.6874
5.6223 -2.3555 2.6874
5.6864 -2.3149 2.6874
5.7509 -2.2736 2.6874
5.8157 -2.2316 2.6874
5.8810 -2.1889 2.6874
5.9466 -2.1454 2.6874
6.0126 -2.1012 2.6874
6.0791 -2.0561 2.6874
6.1460 -2.0103 2.6874
6.2133 -1.9637 2.6874
6.2810 -1.9162 2.6874
6.3492 -1.8680 2.6874
6.4179 -1.8189 2.6874
6.4870 -1.7688 2.6874
6.5037 -1.7041 2.6657
6.5038 -1.6353 2.6376
6.5038 -1.5669 2.6098
6.5038 -1.4989 2.5824
6.5039 -1.4313 2.5554
6.5085 -1.3650 2.5306
6.5087 -1.2982 2.5044
6.5088 -1.2316 2.4785
6.5089 -1.1654 2.4530
6.5091 -1.0995 2.4278
6.5092 -1.0339 2.4029
6.5093 -0.9686 2.3784
6.5095 -0.9035 2.3542
6.5096 -0.8387 2.3302
6.5097 -0.7741 2.3066
6.5099 -0.7097 2.2833
6.5100 -0.6455 2.2603
6.5101 -0.5816 2.2375
6.5103 -0.5177 2.2150
6.5104 -0.4541 2.1928
6.5105 -0.3906 2.1709
6.5107 -0.3273 2.1492
6.5108 -0.2640 2.1277
6.5109 -0.2009 2.1065
6.5110 -0.1379 2.0856
6.5112 -0.0749 2.0649
6.5113 -0.0120 2.0444
6.5114 0.0508 2.0241
6.5115 0.1136 2.0041
6.5117 0.1763 1.9843
6.5118 0.2391 1.9646
6.5119 0.3018 1.9452
6.5121 0.3645 1.9261
6.5122 0.4273 1.9071
6.5123 0.4901 1.8883
6.5124 0.5529 1.8697
6.5126 0.6158 1.8512
6.5127 0.6788 1.8330
6.5128 0.7418 1.8150
6.5129 0.8050 1.7971
6.5131 0.8682 1.7794
6.5132 0.9316 1.7618
6.5133 0.9951 1.7445
6.5135 1.0588 1.7273
6.5136 1.1226 1.7103
6.5137 1.1866 1.6934
6.5138 1.2508 1.6767
6.5140 1.3152 1.6601
6.5141 1.3798 1.6437
6.5142 1.4446 1.6274
6.5144 1.5097 1.6113
6.5143 1.5750 1.5953
6.5144 1.6406 1.5794
6.5145 1.7064 1.5637
6.5145 1.7726 1.5481
6.5146 1.8391 1.5326
6.5147 1.9060 1.5173
6.5147 1.9732 1.5021
6.5148 2.0407 1.4870
6.5149 2.1087 1.4721
6.5150 2.1770 1.4572
6.5150 2.2457 1.4425
6.5151 2.3149 1.4279
6.5152 2.3845 1.4135
6.5152 2.4546 1.3991
6.5153 2.5252 1.3848
6.5154 2.5963 1.3707
6.5155 2.6679 1.3566
6.5155 2.7400 1.3427
6.5156 2.8127 1.3289
6.5157 2.8860 1.3152
6.5157 2.9599 1.3015
6.5158 3.0344 1.2880
6.5159 3.1096 1.2746
6.5160 3.1855 1.2612
6.5160 3.2620 1.2480
6.5161 3.3393 1.2348
6.5162 3.4173 1.2218
6.5163 3.4961 1.2088
6.5163 3.5757 1.1959
6.5164 3.6561 1.1831
6.5165 3.7374 1.1704
6.5166 3.8195 1.1578
6.5166 3.9026 1.1452
6.5167 3.9866 1.1328
6.5168 4.0716 1.1204
6.5169 4.1576 1.1081
6.5170 4.2447 1.0959
6.5170 4.3328 1.0837
6.5171 4.4221 1.0716
6.5172 4.5125 1.0596
6.5181 4.6048 1.0478
6.5182 4.6977 1.0360
6.5183 4.7919 1.0242
6.5184 4.8874 1.0125
6.5185 4.9843 1.0009
6.5186 5.0826 0.9893
6.5187 5.1824 0.9778
6.5188 5.2837 0.9664
6.5189 5.3866 0.9550
6.5190 5.4911 0.9437
6.5191 5.5974 0.9325
6.5192 5.7054 0.9213
6.5193 5.8152 0.9102
6.5194 5.9269 0.8991
6.5196 6.0406 0.8881
6.5197 6.1563 0.8772
6.5198 6.2742 0.8663
6.5199 6.3942 0.8555
6.5200 6.5166 0.8448
4.4309 -2.7024 2.8398
4.4849 -2.6714 2.8398
4.5390 -2.6399 2.8398
4.5933 -2.6078 2.8398
4.6478 -2.5753 2.8398
4.7026 -2.5421 2.8398
4.7452 -2.5020 2.8324
4.7507 -2.4425 2.8033
4.7562 -2.3835 2.7746
4.7615 -2.3251 2.7464
4.7668 -2.2672 2.7187
4.7778 -2.2123 2.6947
4.8179 -2.1714 2.6874
4.8712 -2.1357 2.6874
4.9332 -2.1030 2.6920
4.9785 -2.0626 2.6874
5.0324 -2.0251 2.6874
5.0865 -1.9870 2.6874
5.1409 -1.9484 2.6874
5.1955 -1.9091 2.6874
5.2503 -1.8691 2.6874
5.3053 -1.8285 2.6874
5.3606 -1.7873 2.6874
5.4160 -1.7453 2.6874
5.4717 -1.7027 2.6874
5.5277 -1.6595 2.6874
5.5839 -1.6155 2.6874
5.6403 -1.5708 2.6874
5.6969 -1.5254 2.6874
5.7538 -1.4793 2.6874
5.8110 -1.4324 2.6874
5.8684 -1.3848 2.6874
5.9260 -1.3363 2.6874
5.9839 -1.2872 2.6874
6.0421 -1.2372 2.6874
6.1005 -1.1864 2.6874
6.1592 -1.1347 2.6874
6.2181 -1.0823 2.6874
6.2774 -1.0290 2.6874
6.3368 -0.9748 2.6874
6.3966 -0.9198 2.6874
6.4566 -0.8638 2.6874
6.5096 -0.8061 2.6843
6.5097 -0.7415 2.6596
6.5099 -0.6771 2.6353
6.5100 -0.6129 2.6113
6.5101 -0.5489 2.5876
6.5102 -0.4851 2.5642
6.5104 -0.4215 2.5412
6.5105 -0.3580 2.5184
6.5106 -0.2947 2.4960
6.5108 -0.2315 2.4738
6.5109 -0.1684 2.4519
6.5110 -0.1054 2.4303
6.5111 -0.0424 2.4090
6.5113 0.0204 2.3879
6.5114 0.0832 2.3671
6.5115 0.1460 2.3466
6.5116 0.2087 2.3263
6.5118 0.2714 2.3063
6.5119 0.3341 2.2865
6.5120 0.3967 2.2670
6.5122 0.4594 2.2477
6.5123 0.5222 2.2286
6.5124 0.5850 2.2098
6.5125 0.6478 2.1912
6.5127 0.7107 2.1728
6.5128 0.7737 2.1546
6.5129 0.8368 2.1366
6.5130 0.8999 2.1189
6.5132 0.9632 2.1013
6.5133 1.0267 2.0840
6.5134 1.0903 2.0668
6.5136 1.1540 2.0499
6.5137 1.2179 2.0331
6.5138 1.2820 2.0166
6.5139 1.3463 2.0002
6.5141 1.4108 1.9840
6.5142 1.4755 1.9680
6.5137 1.5403 1.9520
6.5138 1.6055 1.9364
6.5139 1.6710 1.9209
6.5139 1.7367 1.9056
6.5140 1.8028 1.8905
6.5141 1.8692 1.8755
6.5141 1.9359 1.8607
6.5142 2.0029 1.8461
6.5143 2.0703 1.8316
6.5143 2.1381 1.8173
6.5144 2.2063 1.8032
6.5145 2.2748 1.7892
6.5146 2.3438 1.7754
6.5146 2.4133 1.7617
6.5147 2.4832 1.7482
6.5148 2.5535 1.7348
6.5148 2.6244 1.7216
6.5149 2.6958 1.7085
6.5150 2.7677 1.6956
6.5150 2.8402 1.6828
6.5151 2.9133 1.6702
6.5152 2.9869 1.6577
6.5153 3.0612 1.6454
6.5153 3.1361 1.6332
6.5154 3.2117 1.6211
6.5155 3.2880 1.6092
6.5155 3.3649 1.5975
6.5156 3.4426 1.5858
6.5157 3.5211 1.5744
6.5158 3.6004 1.5630
6.5158 3.6805 1.5518
6.5159 3.7614 1.5407
6.5160 3.8432 1.5298
6.5160 3.9259 1.5190
6.5161 4.0095 1.5084
6.5162 4.0941 1.4979
6.5163 4.1797 1.4875
6.5163 4.2663 1.4773
6.5164 4.3540 1.4672
6.5165 4.4427 1.4572
6.5166 4.5327 1.4474
6.5178 4.6247 1.4380
6.5179 4.7170 1.4284
6.5180 4.8106 1.4190
6.5180 4.9055 1.4098
6.5181 5.0018 1.4007
6.5182 5.0995 1.3917
6.5183 5.1986 1.3829
6.5184 5.2992 1.3743
6.5185 5.4014 1.3657
6.5187 5.5052 1.3574
6.5188 5.6106 1.3492
6.5189 5.7178 1.3411
6.5190 5.8267 1.3332
6.5191 5.9376 1.3255
6.5192 6.0503 1.3179
6.5193 6.1650 1.3105
6.5194 6.2818 1.3032
6.5195 6.4008 1.2961
6.5197 6.5220 1.2892
6.5198 6.6455 1.2825
4.0271 -2.3798 2.8398
4.0745 -2.3503 2.8398
4.1220 -2.3203 2.8398
4.1696 -2.2899 2.8398
4.2172 -2.2590 2.8398
4.2650 -2.2277 2.8398
4.3129 -2.1958 2.8398
4.3609 -2.1634 2.8398
4.4090 -2.1305 2.8398
4.4572 -2.0971 2.8398
4.5055 -2.0632 2.8398
4.5539 -2.0288 2.8398
4.6025 -1.9939 2.8398
4.6511 -1.9584 2.8398
4.6998 -1.9224 2.8398
4.7455 -1.8846 2.8379
4.7505 -1.8305 2.8118
4.7553 -1.7768 2.7862
4.7601 -1.7236 2.7610
4.7648 -1.6706 2.7362
4.7695 -1.6181 2.7118
4.7818 -1.5686 2.6921
4.8204 -1.5272 2.6874
4.8675 -1.4882 2.6874
4.9147 -1.4486 2.6874
4.9620 -1.4085 2.6874
5.0094 -1.3677 2.6874
5.0569 -1.3263 2.6874
5.1045 -1.2843 2.6874
5.1522 -1.2417 2.6874
5.2000 -1.1984 2.6874
5.2480 -1.1545 2.6874
5.2960 -1.1100 2.6874
5.3442 -1.0647 2.6874
5.3924 -1.0189 2.6874
5.4408 -0.9723 2.6874
5.4892 -0.9251 2.6874
5.5378 -0.8771 2.6874
5.5865 -0.8284 2.6874
5.6353 -0.7791 2.6874
5.6842 -0.7290 2.6874
5.7331 -0.6782 2.6874
5.7822 -0.6266 2.6874
5.8314 -0.5742 2.6874
5.8807 -0.5211 2.6874
5.9301 -0.4672 2.6874
5.9796 -0.4125 2.6874
6.0292 -0.3570 2.6874
6.0788 -0.3007 2.6874
6.1286 -0.2435 2.6874
6.1785 -0.1856 2.6874
6.2284 -0.1267 2.6874
6.2785 -0.0670 2.6874
6.3286 -0.0064 2.6874
6.3788 0.0551 2.6874
6.4291 0.1175 2.6874
6.4795 0.1808 2.6874
6.5116 0.2443 2.6798
6.5118 0.3069 2.6593
6.5119 0.3696 2.6391
6.5120 0.4322 2.6191
6.5121 0.4949 2.5994
6.5123 0.5575 2.5800
6.5124 0.6202 2.5609
6.5125 0.6830 2.5420
6.5126 0.7458 2.5234
6.5128 0.8088 2.5050
6.5129 0.8718 2.4869
6.5130 0.9349 2.4690
6.5132 0.9981 2.4514
6.5133 1.0614 2.4340
6.5134 1.1249 2.4168
6.5135 1.1886 2.3999
6.5137 1.2524 2.3832
6.5138 1.3164 2.3668
6.5139 1.3806 2.3505
6.5141 1.4450 2.3345
6.5142 1.5096 2.3188
6.5132 1.5741 2.3028
6.5132 1.6392 2.2874
6.5133 1.7046 2.2723
6.5134 1.7702 2.2573
6.5134 1.8361 2.2426
6.5135 1.9024 2.2281
6.5136 1.9689 2.2138
6.5137 2.0358 2.1996
6.5137 2.1031 2.1857
6.5138 2.1707 2.1720
6.5139 2.2387 2.1585
6.5139 2.3071 2.1452
6.5140 2.3759 2.1321
6.5141 2.4452 2.1192
6.5141 2.5149 2.1064
6.5142 2.5851 2.0939
6.5143 2.6557 2.0816
6.5143 2.7269 2.0694
6.5144 2.7986 2.0575
6.5145 2.8709 2.0457
6.5145 2.9437 2.0342
6.5146 3.0172 2.0228
6.5147 3.0912 2.0116
6.5147 3.1658 2.0006
6.5148 3.2412 1.9898
6.5149 3.3172 1.9792
6.5149 3.3939 1.9687
6.5150 3.4713 1.9585
6.5151 3.5495 1.9485
6.5152 3.6284 1.9386
6.5152 3.7081 1.9289
6.5153 3.7887 1.9195
6.5154 3.8702 1.9102
6.5154 3.9525 1.9011
6.5155 4.0357 1.8922
6.5156 4.1199 1.8835
6.5157 4.2051 1.8750
6.5157 4.2913 1.8667
6.5158 4.3785 1.8586
6.5159 4.4668 1.8507
6.5159 4.5563 1.8430
6.5174 4.6480 1.8360
6.5175 4.7398 1.8287
6.5176 4.8329 1.8216
6.5177 4.9272 1.8148
6.5178 5.0229 1.8082
6.5179 5.1200 1.8017
6.5180 5.2185 1.7956
6.5181 5.3184 1.7896
6.5182 5.4199 1.7839
6.5183 5.5230 1.7784
6.5184 5.6277 1.7731
6.5185 5.7340 1.7681
6.5186 5.8422 1.7633
6.5187 5.9521 1.7588
6.5188 6.0640 1.7545
6.5189 6.1778 1.7505
6.5190 6.2936 1.7468
6.5192 6.4115 1.7433
6.5193 6.5316 1.7402
6.5194 6.6540 1.7373
6.5195 6.7787 1.7347
3.6790 -2.1016 2.8398
3.7210 -2.0737 2.8398
3.7630 -2.0453 2.8398
3.8051 -2.0165 2.8398
3.8471 -1.9872 2.8398
3.8893 -1.9576 2.8398
3.9315 -1.9274 2.8398
3.9737 -1.8969 2.8398
4.0159 -1.8659 2.8398
4.0582 -1.8344 2.8398
4.1006 -1.8024 2.8398
4.1429 -1.7701 2.8398
4.1853 -1.7372 2.8398
4.2278 -1.7039 2.8398
4.2702 -1.6700 2.8398
4.3128 -1.6357 2.8398
4.3553 -1.6010 2.8398
4.3979 -1.5657 2.8398
4.4405 -1.5299 2.8398
4.4832 -1.4936 2.8398
4.5258 -1.4568 2.8398
4.5685 -1.4195 2.8398
4.6113 -1.3816 2.8398
4.6541 -1.3432 2.8398
4.6968 -1.3043 2.8398
4.7397 -1.2648 2.8398
4.7502 -1.2166 2.8206
4.7545 -1.1669 2.7981
4.7587 -1.1175 2.7759
4.7629 -1.0682 2.7540
4.7670 -1.0192 2.7325
4.7710 -0.9704 2.7113
4.7813 -0.9227 2.6940
4.8101 -0.8791 2.6874
4.8508 -0.8369 2.6874
4.8915 -0.7941 2.6874
4.9322 -0.7507 2.6874
4.9729 -0.7067 2.6874
5.0135 -0.6622 2.6874
5.0542 -0.6170 2.6874
5.0949 -0.5712 2.6874
5.1356 -0.5248 2.6874
5.1763 -0.4778 2.6874
5.2169 -0.4301 2.6874
5.2576 -0.3818 2.6874
5.2982 -0.3329 2.6874
5.3388 -0.2833 2.6874
5.3794 -0.2331 2.6874
5.4200 -0.1821 2.6874
5.4605 -0.1305 2.6874
5.5010 -0.0782 2.6874
5.5415 -0.0253 2.6874
5.5819 0.0284 2.6874
5.6223 0.0828 2.6874
5.6626 0.1379 2.6874
5.7029 0.1938 2.6874
5.7431 0.2504 2.6874
5.7833 0.3077 2.6874
5.8234 0.3658 2.6874
5.8634 0.4246 2.6874
5.9034 0.4842 2.6874
5.9433 0.5446 2.6874
5.9831 0.6058 2.6874
6.0228 0.6678 2.6874
6.0624 0.7306 2.6874
6.1019 0.7942 2.6874
6.1413 0.8586 2.6874
6.1806 0.9239 2.6874
6.2198 0.9901 2.6874
6.2588 1.0570 2.6874
6.2977 1.1249 2.6874
6.3365 1.1936 2.6874
6.3751 1.2632 2.6874
6.4136 1.3337 2.6874
6.4519 1.4051 2.6874
6.4900 1.4775 2.6874
6.5125 1.5470 2.6810
6.5126 1.6117 2.6656
6.5127 1.6767 2.6505
6.5127 1.7419 2.6356
6.5128 1.8074 2.6210
6.5129 1.8732 2.6066
6.5129 1.9393 2.5925
6.5130 2.0057 2.5786
6.5131 2.0725 2.5649
6.5131 2.1396 2.5515
6.5132 2.2070 2.5384
6.5133 2.2749 2.5254
6.5133 2.3431 2.5127
6.5134 2.4118 2.5003
6.5135 2.4808 2.4881
6.5135 2.5504 2.4761
6.5136 2.6204 2.4644
6.5137 2.6909 2.4529
6.5137 2.7618 2.4416
6.5138 2.8334 2.4306
6.5139 2.9054 2.4198
6.5139 2.9780 2.4093
6.5140 3.0512 2.3989
6.5141 3.1250 2.3888
6.5141 3.1994 2.3790
6.5142 3.2745 2.3694
6.5143 3.3502 2.3600
6.5143 3.4267 2.3509
6.5144 3.5038 2.3420
6.5145 3.5817 2.3333
6.5145 3.6603 2.3249
6.5146 3.7398 2.3168
6.5147 3.8200 2.3088
6.5147 3.9011 2.3012
6.5148 3.9831 2.2937
6.5149 4.0660 2.2866
6.5150 4.1498 2.2797
6.5150 4.2346 2.2730
6.5151 4.3203 2.2666
6.5152 4.4072 2.2604
6.5152 4.4950 2.2546
6.5153 4.5840 2.2489
6.5171 4.6755 2.2442
6.5172 4.7668 2.2392
6.5173 4.8594 2.2344
6.5174 4.9532 2.2299
6.5175 5.0484 2.2257
6.5176 5.1448 2.2218
6.5177 5.2427 2.2181
6.5178 5.3421 2.2148
6.5178 5.4429 2.2118
6.5179 5.5453 2.2091
6.5180 5.6492 2.2068
6.5181 5.7549 2.2047
6.5182 5.8622 2.2030
6.5183 5.9714 2.2017
6.5185 6.0823 2.2007
6.5186 6.1952 2.2000
6.5187 6.3101 2.1997
6.5188 6.4271 2.1998
6.5189 6.5462 2.2003
6.5190 6.6674 2.2012
6.5191 6.7910 2.2025
6.5192 6.9170 2.2042
3.3746 -1.8583 2.8398
3.4120 -1.8319 2.8398
3.4495 -1.8050 2.8398
3.4869 -1.7778 2.8398
3.5243 -1.7502 2.8398
3.5618 -1.7221 2.8398
3.5992 -1.6937 2.8398
3.6366 -1.6649 2.8398
3.6741 -1.6357 2.8398
3.7115 -1.6060 2.8398
3.7489 -1.5760 2.8398
3.7863 -1.5455 2.8398
3.8236 -1.5147 2.8398
3.8610 -1.4833 2.8398
3.8983 -1.4516 2.8398
3.9357 -1.4194 2.8398
3.9730 -1.3868 2.8398
4.0103 -1.3538 2.8398
4.0476 -1.3203 2.8398
4.0848 -1.2864 2.8398
4.1221 -1.2520 2.8398
4.1593 -1.2172 2.8398
4.1964 -1.1819 2.8398
4.2336 -1.1461 2.8398
4.2707 -1.1099 2.8398
4.3078 -1.0732 2.8398
4.3448 -1.0360 2.8398
4.3818 -0.9984 2.8398
4.4188 -0.9602 2.8398
4.4557 -0.9216 2.8398
4.4926 -0.8825 2.8398
4.5294 -0.8428 2.8398
4.5662 -0.8027 2.8398
4.6029 -0.7621 2.8398
4.6396 -0.7209 2.8398
4.6762 -0.6792 2.8398
4.7127 -0.6370 2.8398
4.7481 -0.5941 2.8391
4.7518 -0.5471 2.8197
4.7555 -0.5002 2.8006
4.7591 -0.4534 2.7818
4.7626 -0.4066 2.7633
4.7661 -0.3600 2.7451
4.7695 -0.3135 2.7271
4.7729 -0.2670 2.7094
4.7817 -0.2221 2.6951
4.8018 -0.1750 2.6874
4.8355 -0.1293 2.6874
4.8691 -0.0830 2.6874
4.9027 -0.0361 2.6874
4.9361 0.0113 2.6874
4.9694 0.0592 2.6874
5.0026 0.1078 2.6874
5.0357 0.1570 2.6874
5.0687 0.2067 2.6874
5.1015 0.2570 2.6874
5.1342 0.3079 2.6874
5.1667 0.3595 2.6874
5.1991 0.4116 2.6874
5.2314 0.4643 2.6874
5.2635 0.5177 2.6874
5.2954 0.5717 2.6874
5.3272 0.6263 2.6874
5.3588 0.6816 2.6874
5.3902 0.7375 2.6874
5.4215 0.7941 2.6874
5.4525 0.8513 2.6874
5.4834 0.9092 2.6874
5.5140 0.9677 2.6874
5.5445 1.0269 2.6874
5.5747 1.0868 2.6874
5.6047 1.1474 2.6874
5.6344 1.2086 2.6874
5.6640 1.2706 2.6874
5.6932 1.3332 2.6874
5.7222 1.3966 2.6874
5.7510 1.4606 2.6874
5.7795 1.5254 2.6874
5.8077 1.5909 2.6874
5.8356 1.6570 2.6874
5.8632 1.7239 2.6874
5.8905 1.7916 2.6874
5.9175 1.8600 2.6874
5.9441 1.9292 2.6874
5.9704 1.9991 2.6874
5.9964 2.0697 2.6874
6.0220 2.1411 2.6874
6.0473 2.2133 2.6874
6.0721 2.2862 2.6874
6.0966 2.3599 2.6874
6.1207 2.4344 2.6874
6.1443 2.5097 2.6874
6.1676 2.5857 2.6874
6.1904 2.6625 2.6874
6.2127 2.7401 2.6874
6.2346 2.8185 2.6874
6.2560 2.8977 2.6874
6.2769 2.9777 2.6874
6.2974 3.0585 2.6874
6.3173 3.1401 2.6874
6.3367 3.2225 2.6874
6.3555 3.3057 2.6874
6.3738 3.3897 2.6874
6.4086 3.5601 2.6874
6.3915 3.4745 2.6874
6.4252 3.6466 2.6874
6.4710 3.9108 2.6874
6.4411 3.7338 2.6874
6.4849 4.0005 2.6874
6.4563 3.8219 2.6874
6.4982 4.0909 2.6874
6.5144 4.2688 2.6840
6.5108 4.1822 2.6874
6.5144 4.3542 2.6794
6.5170 4.9842 2.6578
6.5167 4.6182 2.6686
6.5145 4.4406 2.6752
6.5171 5.0788 2.6559
6.5168 4.7079 2.6653
6.5146 4.5281 2.6713
6.5172 5.1748 2.6545
6.5169 4.7988 2.6625
6.5174 5.3708 2.6527
6.5169 4.8909 2.6599
6.5173 5.2721 2.6534
6.5175 5.4710 2.6524
6.5178 5.7810 2.6539
6.5176 5.5728 2.6525
6.5182 6.2182 2.6618
6.5183 6.3322 2.6650
6.5179 5.8876 2.6552
6.5177 5.6760 2.6530
6.5184 6.4483 2.6686
6.5180 5.9960 2.6570
6.5185 6.5664 2.6726
6.5181 6.1062 2.6592
6.5186 6.6866 2.6772
6.5187 6.8092 2.6823
6.5173 6.9324 2.6874
6.5025 7.0435 2.6874
3.1049 -1.6429 2.8398
3.1385 -1.6179 2.8398
3.1721 -1.5925 2.8398
3.2056 -1.5668 2.8398
3.2391 -1.5407 2.8398
3.3728 -1.4328 2.8398
3.2726 -1.5143 2.8398
3.3060 -1.4875 2.8398
3.4061 -1.4049 2.8398
3.3394 -1.4603 2.8398
3.4393 -1.3767 2.8398
3.5057 -1.3190 2.8398
3.4726 -1.3480 2.8398
3.5388 -1.2896 2.8398
3.6379 -1.1992 2.8398
3.5719 -1.2599 2.8398
3.6049 -1.2297 2.8398
3.6708 -1.1682 2.8398
3.7692 -1.0731 2.8398
3.7037 -1.1369 2.8398
3.8018 -1.0406 2.8398
3.7365 -1.1052 2.8398
3.8344 -1.0076 2.8398
3.8994 -0.9406 2.8398
3.8670 -0.9743 2.8398
3.9318 -0.9064 2.8398
4.0285 -0.8014 2.8398
4.0605 -0.7655 2.8398
3.9641 -0.8718 2.8398
4.0925 -0.7292 2.8398
3.9963 -0.8368 2.8398
4.1244 -0.6925 2.8398
4.1562 -0.6554 2.8398
4.2823 -0.5023 2.8398
4.3136 -0.4629 2.8398
4.1879 -0.6178 2.8398
4.3448 -0.4231 2.8398
4.2195 -0.5797 2.8398
4.3758 -0.3827 2.8398
4.2510 -0.5412 2.8398
4.4068 -0.3419 2.8398
4.6494 0.0015 2.8398
4.5292 -0.1741 2.8398
4.4376 -0.3007 2.8398
4.4682 -0.2589 2.8398
4.6791 0.0466 2.8398
4.5595 -0.1309 2.8398
4.7515 0.1844 2.8304
4.4988 -0.2167 2.8398
4.7086 0.0923 2.8398
4.5896 -0.0872 2.8398
4.7630 0.3675 2.7705
4.7544 0.2302 2.8150
4.7380 0.1384 2.8398
4.7657 0.4134 2.7561
4.6196 -0.0431 2.8398
4.7573 0.2759 2.7999
4.7684 0.4593 2.7420
4.7737 0.5514 2.7145
4.8285 0.7433 2.6874
4.7711 0.5053 2.7282
4.7602 0.3217 2.7851
4.8536 0.7940 2.6874
4.7771 0.5976 2.7016
5.0222 1.1635 2.6874
4.9274 0.9492 2.6874
5.1125 1.3865 2.6874
4.8784 0.8452 2.6874
5.0452 1.2184 2.6874
4.7864 0.6446 2.6923
4.9515 1.0019 2.6874
5.1343 1.4436 2.6874
5.0679 1.2739 2.6874
4.9030 0.8969 2.6874
4.8032 0.6932 2.6874
4.9753 1.0553 2.6874
5.1558 1.5013 2.6874
5.0904 1.3299 2.6874
5.2777 1.8592 2.6874
5.1978 1.6183 2.6874
5.3515 2.1091 2.6874
5.1770 1.5596 2.6874
4.9989 1.1091 2.6874
5.2968 1.9208 2.6874
5.2183 1.6777 2.6874
5.3690 2.1730 2.6874
5.4787 2.6362 2.6874
5.4188 2.3681 2.6874
5.3860 2.2374 2.6874
5.3154 1.9830 2.6874
5.2385 1.7376 2.6874
5.4026 2.3024 2.6874
5.4345 2.4342 2.6874
5.4925 2.7047 2.6874
5.3337 2.0457 2.6874
5.2583 1.7981 2.6874
5.5308 2.9135 2.6874
5.4497 2.5010 2.6874
5.5058 2.7738 2.6874
5.5741 3.1999 2.6874
5.6081 3.4951 2.6874
5.5424 2.9843 2.6874
5.5836 3.2728 2.6874
5.5185 2.8433 2.6874
5.6151 3.5702 2.6874
5.5536 3.0556 2.6874
5.4644 2.5683 2.6874
5.5924 3.3464 2.6874
5.6320 3.7990 2.6874
5.6214 3.6460 2.6874
5.5641 3.1274 2.6874
5.6448 4.1112 2.6874
5.6006 3.4204 2.6874
5.6362 3.8763 2.6874
5.6457 4.4314 2.6874
5.6270 3.7222 2.6874
5.6338 4.7590 2.6874
5.6461 4.1905 2.6874
5.6440 4.5127 2.6874
5.6398 3.9541 2.6874
5.6083 5.0935 2.6874
5.6414 4.5943 2.6874
5.6288 4.8421 2.6874
5.6468 4.2704 2.6874
5.6426 4.0324 2.6874
5.5997 5.1781 2.6874
5.6380 4.6765 2.6874
5.6228 4.9255 2.6874
5.6466 4.3507 2.6874
5.5682 5.4340 2.6874
5.5902 5.2630 2.6874
5.6160 5.0093 2.6874
5.5558 5.5200 2.6874
5.5797 5.3484 2.6874
5.5126 5.7797 2.6874
5.5424 5.6063 2.6874
5.4962 5.8668 2.6874
5.5280 5.6928 2.6874
5.4787 5.9541 2.6874
5.4602 6.0417 2.6874
