ply
format ascii 1.0
element vertex 2155
property float32 x
property float32 y
property float32 z
end_header
6.5247 5.3321 -3.2061
6.5237 4.6913 -2.9334
6.5248 5.4457 -3.2550
6.5250 5.5613 -3.3051
6.5238 4.7937 -2.9766
6.5252 5.6792 -3.3562
6.5240 4.8977 -3.0206
6.5254 5.7994 -3.4085
6.5242 5.0035 -3.0655
6.5256 5.9220 -3.4621
6.5243 5.1111 -3.1114
6.5258 6.0470 -3.5169
6.5245 5.2206 -3.1583
6.5260 6.1747 -3.5731
6.5262 6.3052 -3.6306
6.5242 6.8534 -3.8740
6.5264 6.4384 -3.6895
6.5244 6.9992 -3.9393
6.5246 7.1486 -4.0064
6.5238 6.5718 -3.7484
6.5248 7.3015 -4.0754
6.5240 6.7110 -3.8104
6.5251 7.4584 -4.1463
6.5255 7.7844 -4.2942
6.5253 7.6193 -4.2192
6.5258 7.9539 -4.3715
6.5272 8.8763 -4.7954
6.5261 8.1281 -4.4511
6.5275 9.0775 -4.8886
6.5263 8.3072 -4.5332
6.5278 9.2851 -4.9849
6.5281 9.4993 -5.0846
6.5266 8.4914 -4.6178
6.5249 9.7153 -5.1850
6.5269 8.6810 -4.7052
6.5253 9.9439 -5.2919
6.5257 10.1805 -5.4028
6.5284 11.7939 -6.1648
6.5261 10.4254 -5.5178
17.7810 32.9562 -17.1869
6.5265 10.6790 -5.6372
17.3630 33.0296 -17.1869
6.5270 10.9422 -5.7613
6.5274 11.2152 -5.8904
6.5279 11.4989 -6.0247
-7.4471 21.0624 -10.7015
-7.3551 20.1012 -10.2279
-5.5346 4.1787 -2.5725
-5.7186 4.2261 -2.6193
-5.9117 4.2758 -2.6685
-7.2882 5.1584 -3.2424
-5.2830 4.9227 -2.8591
-5.9949 4.1517 -2.6288
-6.1455 4.1638 -2.6564
-6.3015 4.1763 -2.6851
-6.4627 4.1890 -2.7149
-6.7106 4.2533 -2.7793
-6.7720 4.1963 -2.7654
-6.8338 4.1391 -2.7516
-6.8959 4.0818 -2.7379
-6.9585 4.0242 -2.7244
-7.5723 4.2776 -2.9238
-6.8563 3.7822 -2.6108
-7.6489 4.1193 -2.8725
-7.6965 4.0455 -2.8507
-7.0941 3.6381 -2.5916
-7.0778 3.5404 -2.5503
-7.0619 3.4441 -2.5099
-7.0462 3.3494 -2.4702
-7.0307 3.2561 -2.4313
-7.0154 3.1641 -2.3931
-7.0853 3.1108 -2.3842
6.5232 4.8045 -2.5484
6.5233 4.9078 -2.5883
6.5235 5.0128 -2.6290
6.5241 5.4514 -2.8003
6.5236 5.1196 -2.6705
6.5243 5.5660 -2.8453
6.5238 5.2282 -2.7129
6.5244 5.6828 -2.8914
6.5239 5.3388 -2.7561
6.5246 5.8019 -2.9385
6.5252 6.1735 -3.0862
6.5248 5.9233 -2.9866
6.5254 6.3026 -3.1378
6.5250 6.0471 -3.0358
6.5256 6.4344 -3.1906
6.5239 6.9889 -3.4139
6.5233 6.5666 -3.2434
6.5241 7.1364 -3.4736
6.5235 6.7042 -3.2988
6.5243 7.2874 -3.5350
6.5237 6.8449 -3.3556
6.5246 7.4421 -3.5980
6.5253 7.9305 -3.7979
6.5255 8.1020 -3.8684
6.5248 7.6007 -3.6628
6.5258 8.2782 -3.9410
6.5250 7.7634 -3.7294
6.5260 8.4594 -4.0158
6.5269 9.0354 -4.2546
6.5263 8.6458 -4.0929
6.5266 8.8377 -4.1725
6.5272 9.2391 -4.3394
6.5258 10.3565 -4.8070
6.5275 9.4493 -4.4270
6.5262 10.6046 -4.9114
6.5267 10.8615 -5.0197
6.5247 9.6614 -4.5155
6.5271 11.1281 -5.1323
6.5250 9.8854 -4.6092
6.5276 11.4047 -5.2493
6.5281 11.6921 -5.3711
6.5254 10.1170 -4.7063
6.5286 11.9910 -5.4980
6.5291 12.3022 -5.6303
6.5317 12.6304 -5.7701
6.5326 12.9696 -5.9148
6.5336 13.3238 -6.0661
6.5347 13.6943 -6.2246
-4.2874 11.9009 -5.3399
-6.7901 20.9484 -9.3678
-7.1849 21.3775 -9.5700
-4.4468 11.9386 -5.3633
-7.1772 20.6161 -9.2395
-4.5322 11.7789 -5.2982
-4.6900 11.8088 -5.3185
-4.8386 11.8114 -5.3268
-5.4433 11.8163 -5.3602
-5.0464 11.9513 -5.3974
-5.5726 4.8806 -2.4802
-5.3258 4.8615 -2.4483
-5.7008 4.8904 -2.4968
-5.4477 4.8710 -2.4640
-5.8324 4.9005 -2.5140
-6.4870 5.0128 -2.6252
-5.9677 4.9108 -2.5318
-6.6784 5.0529 -2.6608
-6.1266 4.9373 -2.5584
-5.6252 4.1667 -2.2066
-6.3032 4.9744 -2.5911
-5.8115 4.2139 -2.2447
-7.4887 5.0897 -2.7621
-6.0074 4.2635 -2.2848
-6.8923 4.5830 -2.5035
-7.3223 5.0858 -2.7424
-6.9287 4.5069 -2.4786
-6.6327 3.9432 -2.2329
-6.9651 4.4312 -2.4540
-6.8035 3.9528 -2.2560
-7.0015 4.3557 -2.4296
-6.9812 3.9627 -2.2802
-6.4683 3.9341 -2.2108
-7.0296 3.8975 -2.2616
-7.0138 3.7973 -2.2227
-6.9982 3.6988 -2.1845
-6.9830 3.6018 -2.1471
-6.9679 3.5064 -2.1103
-7.5200 3.6906 -2.2434
-7.0306 3.3639 -2.0659
-6.9566 3.2437 -2.0135
-6.8851 3.1274 -1.9628
6.5226 4.9164 -2.1680
6.5228 5.0206 -2.2047
6.5229 5.1265 -2.2421
6.5231 5.2343 -2.2803
6.5232 5.3439 -2.3192
6.5234 5.4555 -2.3588
6.5236 5.5692 -2.3993
6.5237 5.6849 -2.4406
6.5239 5.8029 -2.4828
6.5241 5.9231 -2.5258
6.5242 6.0457 -2.5698
6.5244 6.1708 -2.6148
6.5246 6.2985 -2.6607
6.5248 6.4288 -2.7078
6.5229 6.5599 -2.7550
6.5231 6.6960 -2.8042
6.5233 6.8350 -2.8546
6.5235 6.9772 -2.9063
6.5237 7.1228 -2.9592
6.5239 7.2719 -3.0135
6.5241 7.4245 -3.0692
6.5243 7.5809 -3.1264
6.5245 7.7413 -3.1852
6.5248 7.9059 -3.2455
6.5250 8.0748 -3.3076
6.5252 8.2483 -3.3714
6.5255 8.4266 -3.4370
6.5258 8.6099 -3.5047
6.5260 8.7985 -3.5743
6.5263 8.9926 -3.6462
6.5266 9.1926 -3.7203
6.5269 9.3988 -3.7968
6.5244 9.6073 -3.8741
6.5248 9.8268 -3.9558
6.5251 10.0536 -4.0403
6.5255 10.2880 -4.1277
6.5259 10.5305 -4.2183
6.5264 10.7817 -4.3122
6.5268 11.0419 -4.4096
6.5272 11.3118 -4.5108
6.5277 11.5919 -4.6159
6.5282 11.8830 -4.7253
6.5287 12.1858 -4.8391
6.5292 12.5010 -4.9578
6.5319 12.8336 -5.0832
6.5328 13.1772 -5.2129
6.5338 13.5361 -5.3485
6.5349 13.9115 -5.4905
6.5360 14.3045 -5.6392
6.5371 14.7167 -5.7954
6.5384 15.1494 -5.9595
6.5198 15.5569 -6.1136
-5.9130 20.7887 -8.0935
-6.2259 21.0341 -8.1946
-6.4680 21.0262 -8.1973
-6.7584 21.1656 -8.2577
-7.0476 21.2867 -8.3113
-7.3534 20.7225 -8.1041
-7.1727 20.9161 -8.1731
-7.4316 20.2573 -7.9290
-7.5487 19.9199 -7.8038
-6.7872 11.8384 -4.7189
-5.4913 4.8114 -2.0637
-6.1601 4.8683 -2.1269
-5.6156 4.8204 -2.0747
-6.3361 4.9041 -2.1512
-5.7433 4.8295 -2.0861
-6.5189 4.9411 -2.1764
-5.8741 4.8387 -2.0978
-6.7089 4.9793 -2.2026
-6.0086 4.8481 -2.1099
-6.8967 5.0116 -2.2266
-5.9190 4.1217 -1.8481
-5.7568 4.0954 -1.8278
-6.0880 4.1492 -1.8694
-7.2038 4.3980 -2.0346
-6.2643 4.1779 -1.8917
-7.2625 4.7390 -2.1567
-6.7861 4.0505 -1.8847
-7.2425 4.6231 -2.1151
-7.1418 4.1667 -1.9505
-7.2230 4.5095 -2.0744
-7.1969 4.1032 -1.9327
-7.0542 3.7473 -1.8006
-7.2303 4.0273 -1.9092
-6.9782 3.6185 -1.7511
-7.2637 3.9517 -1.8858
-6.9046 3.4938 -1.7033
-6.8335 3.3731 -1.6571
-6.7648 3.2562 -1.6125
-7.7519 3.6373 -1.8161
6.5221 5.0273 -1.7905
6.5222 5.1324 -1.8241
6.5224 5.2393 -1.8583
6.5225 5.3481 -1.8931
6.5227 5.4587 -1.9285
6.5228 5.5714 -1.9646
6.5230 5.6861 -2.0015
6.5232 5.8029 -2.0390
6.5233 5.9220 -2.0773
6.5235 6.0434 -2.1163
6.5237 6.1672 -2.1562
6.5238 6.2935 -2.1969
6.5240 6.4224 -2.2385
6.5224 6.5524 -2.2804
6.5226 6.6869 -2.3239
6.5228 6.8243 -2.3683
6.5230 6.9648 -2.4138
6.5232 7.1086 -2.4604
6.5234 7.2557 -2.5081
6.5236 7.4063 -2.5570
6.5238 7.5606 -2.6071
6.5240 7.7187 -2.6584
6.5243 7.8809 -2.7112
6.5245 8.0473 -2.7653
6.5247 8.2181 -2.8209
6.5250 8.3935 -2.8781
6.5252 8.5738 -2.9369
6.5255 8.7592 -2.9974
6.5257 8.9499 -3.0597
6.5260 9.1463 -3.1239
6.5263 9.3486 -3.1901
6.5242 9.5536 -3.2571
6.5245 9.7688 -3.3276
6.5249 9.9910 -3.4004
6.5253 10.2205 -3.4756
6.5257 10.4577 -3.5534
6.5261 10.7032 -3.6340
6.5265 10.9574 -3.7175
6.5269 11.2208 -3.8041
6.5274 11.4941 -3.8939
6.5278 11.7777 -3.9872
6.5283 12.0725 -4.0843
6.5288 12.3791 -4.1852
6.5311 12.7017 -4.2916
6.5320 13.0352 -4.4015
6.5330 13.3832 -4.5163
6.5340 13.7468 -4.6363
6.5351 14.1270 -4.7619
6.5362 14.5252 -4.8934
6.5373 14.9427 -5.0314
6.5386 15.3811 -5.1764
6.5211 15.7966 -5.3136
6.5215 16.2781 -5.4730
6.5218 16.7858 -5.6410
6.5222 17.3220 -5.8186
6.5225 17.8892 -6.0066
6.5229 18.4905 -6.2059
-5.8164 21.6213 -7.2377
-5.9480 21.2177 -7.1049
-6.0817 20.8485 -6.9835
-6.3948 21.0941 -7.0682
-6.6039 20.9870 -7.0348
-6.9024 21.1567 -7.0943
-7.0833 20.9621 -7.0318
-7.2839 20.8325 -6.9911
-7.3627 20.3697 -6.8386
-7.5241 20.1531 -6.7688
-7.5904 19.6984 -6.6190
-7.9469 19.9972 -6.7225
-7.0402 11.8943 -4.0345
-5.5355 4.7537 -1.6755
-5.6592 4.7619 -1.6815
-5.7862 4.7703 -1.6876
-5.9167 4.7788 -1.6940
-6.0505 4.7874 -1.7005
-6.1955 4.8020 -1.7092
-6.3703 4.8361 -1.7251
-6.5523 4.8717 -1.7417
-6.7416 4.9086 -1.7589
-6.9528 4.9569 -1.7804
-6.9340 4.8399 -1.7426
-6.9971 4.7808 -1.7258
-5.9460 3.9764 -1.4391
-6.1134 4.0008 -1.4519
-6.2879 4.0263 -1.4652
-6.4698 4.0527 -1.4791
-6.6597 4.0801 -1.4936
-6.9857 4.1851 -1.5368
-7.1407 4.1824 -1.5407
-7.1129 4.0720 -1.5051
-7.0726 3.9566 -1.4675
-6.8539 3.7458 -1.3943
-6.7832 3.6206 -1.3527
-7.2870 3.7975 -1.4243
-7.3535 3.7404 -1.4085
-7.3619 3.6538 -1.3817
-7.3498 3.5580 -1.3513
6.5216 5.1379 -1.4143
6.5217 5.2439 -1.4448
6.5219 5.3518 -1.4757
6.5220 5.4615 -1.5072
6.5222 5.5732 -1.5392
6.5223 5.6868 -1.5718
6.5224 5.8026 -1.6050
6.5226 5.9205 -1.6388
6.5228 6.0407 -1.6732
6.5229 6.1632 -1.7083
6.5231 6.2882 -1.7441
6.5232 6.4158 -1.7806
6.5234 6.5460 -1.8178
6.5222 6.6776 -1.8554
6.5224 6.8134 -1.8943
6.5226 6.9523 -1.9339
6.5228 7.0942 -1.9745
6.5230 7.2394 -2.0160
6.5232 7.3881 -2.0584
6.5234 7.5403 -2.1019
6.5236 7.6962 -2.1464
6.5238 7.8561 -2.1920
6.5240 8.0200 -2.2388
6.5242 8.1882 -2.2867
6.5245 8.3609 -2.3360
6.5247 8.5382 -2.3865
6.5249 8.7205 -2.4385
6.5252 8.9080 -2.4919
6.5254 9.1009 -2.5468
6.5257 9.2995 -2.6034
6.5260 9.5042 -2.6616
6.5243 9.7121 -2.7208
6.5246 9.9298 -2.7828
6.5250 10.1546 -2.8467
6.5254 10.3868 -2.9127
6.5258 10.6269 -2.9810
6.5262 10.8753 -3.0516
6.5266 11.1326 -3.1247
6.5271 11.3992 -3.2005
6.5275 11.6758 -3.2790
6.5280 11.9629 -3.3606
6.5285 12.2613 -3.4453
6.5290 12.5717 -3.5334
6.5313 12.8985 -3.6261
6.5322 13.2362 -3.7220
6.5332 13.5886 -3.8220
6.5342 13.9567 -3.9264
6.5353 14.3418 -4.0356
6.5364 14.7451 -4.1500
6.5376 15.1680 -4.2699
6.5221 15.5722 -4.3846
6.5225 16.0357 -4.5159
6.5228 16.5236 -4.6542
6.5232 17.0381 -4.7999
6.5236 17.5815 -4.9539
6.5240 18.1564 -5.1167
6.5282 18.7765 -5.2923
6.5300 19.4282 -5.4769
6.5320 20.1221 -5.6733
6.5340 20.8626 -5.8830
6.5401 21.6672 -6.1107
-5.4849 21.5843 -6.0905
-5.7291 21.6022 -6.0948
-5.9748 21.6197 -6.0991
-6.0910 21.1812 -5.9746
-6.3018 21.0880 -5.9475
-6.5426 21.0935 -5.9482
-6.7848 21.0987 -5.9489
-7.0090 21.0449 -5.9328
-7.1059 20.6209 -5.8124
-7.5095 21.0809 -5.9411
-7.3666 20.0221 -5.6418
-7.8373 20.6400 -5.8149
-7.9257 20.2399 -5.7012
-8.1625 20.2267 -5.6964
-7.0549 11.8291 -3.3195
-5.5795 4.6975 -1.2966
-5.7026 4.7048 -1.2976
-5.8289 4.7124 -1.2986
-5.9587 4.7201 -1.2996
-6.0922 4.7280 -1.3006
-6.2312 4.7375 -1.3020
-6.4049 4.7701 -1.3097
-6.5857 4.8039 -1.3177
-6.7329 4.8099 -1.3180
-6.8570 4.7967 -1.3130
-6.6216 4.5352 -1.2400
-6.6804 4.4791 -1.2233
-6.7395 4.4229 -1.2065
-6.7987 4.3664 -1.1896
-6.8582 4.3096 -1.1727
-6.3109 3.8795 -1.0543
-6.4907 3.9025 -1.0590
-6.6787 3.9265 -1.0640
-6.8753 3.9517 -1.0693
-7.1282 4.0043 -1.0818
-7.1177 3.9070 -1.0538
-7.5732 4.0608 -1.0935
-7.6044 3.9820 -1.0704
-7.6355 3.9034 -1.0473
-6.9768 3.4809 -0.9321
6.5211 5.2486 -1.0378
6.5212 5.3556 -1.0651
6.5213 5.4643 -1.0928
6.5215 5.5750 -1.1209
6.5216 5.6877 -1.1495
6.5218 5.8024 -1.1786
6.5219 5.9192 -1.2081
6.5220 6.0382 -1.2382
6.5222 6.1595 -1.2687
6.5224 6.2832 -1.2998
6.5225 6.4094 -1.3315
6.5227 6.5382 -1.3638
6.5218 6.6687 -1.3965
6.5220 6.8029 -1.4300
6.5222 6.9401 -1.4642
6.5223 7.0803 -1.4991
6.5225 7.2237 -1.5347
6.5227 7.3704 -1.5711
6.5229 7.5206 -1.6083
6.5231 7.6744 -1.6464
6.5233 7.8320 -1.6853
6.5235 7.9935 -1.7251
6.5237 8.1592 -1.7659
6.5240 8.3292 -1.8077
6.5242 8.5038 -1.8505
6.5244 8.6831 -1.8944
6.5247 8.8674 -1.9395
6.5249 9.0569 -1.9858
6.5252 9.2520 -2.0334
6.5254 9.4529 -2.0823
6.5240 9.6573 -2.1321
6.5244 9.8707 -2.1839
6.5247 10.0910 -2.2373
6.5251 10.3184 -2.2924
6.5255 10.5533 -2.3492
6.5259 10.7962 -2.4079
6.5263 11.0476 -2.4686
6.5267 11.3080 -2.5313
6.5272 11.5778 -2.5962
6.5276 11.8577 -2.6635
6.5281 12.1484 -2.7333
6.5286 12.4504 -2.8057
6.5306 12.7675 -2.8815
6.5315 13.0955 -2.9600
6.5324 13.4374 -3.0417
6.5334 13.7942 -3.1268
6.5344 14.1670 -3.2157
6.5355 14.5569 -3.3085
6.5366 14.9653 -3.4057
6.5378 15.3935 -3.5074
6.5235 15.8055 -3.6056
6.5238 16.2751 -3.7170
6.5242 16.7694 -3.8341
6.5246 17.2907 -3.9576
6.5251 17.8414 -4.0878
6.5255 18.4240 -4.2255
6.5301 19.0534 -4.3741
6.5320 19.7139 -4.5299
6.5340 20.4173 -4.6957
6.5361 21.1680 -4.8725
6.5411 21.9801 -5.0637
6.5437 22.8419 -5.2664
6.5464 23.7688 -5.4842
6.5380 24.7256 -5.7091
6.5402 25.8019 -5.9617
6.5427 26.9703 -6.2358
-6.3495 38.5220 -8.9416
-6.6641 37.9924 -8.8147
-7.0703 38.0082 -8.8142
-7.4392 37.8254 -8.7674
-7.8504 37.8579 -8.7702
-5.2789 21.0667 -4.8685
-5.5431 21.1965 -4.8951
-5.8118 21.3282 -4.9220
-5.7972 20.4462 -4.7149
-6.2676 21.2725 -4.9017
-6.4802 21.1913 -4.8790
-6.6372 20.9359 -4.8161
-6.9044 21.0293 -4.8333
-7.1447 21.0328 -4.8297
-7.1494 20.3610 -4.6710
-7.1815 19.8028 -4.5384
-7.9159 21.1512 -4.8425
-7.9933 20.7114 -4.7368
-8.0971 20.3596 -4.6512
-7.1078 11.8306 -2.6398
-5.5937 4.6185 -0.9199
-5.6947 4.6081 -0.9126
-5.7976 4.5976 -0.9050
-5.9024 4.5868 -0.8974
-6.0094 4.5757 -0.8894
-6.1185 4.5644 -0.8813
-6.2299 4.5528 -0.8730
-6.3436 4.5410 -0.8644
-6.4621 4.5305 -0.8559
-6.5613 4.5047 -0.8443
-6.6413 4.4644 -0.8299
-6.7220 4.4236 -0.8153
-6.8035 4.3824 -0.8004
-6.8980 4.3483 -0.7868
-7.0209 4.3303 -0.7758
-7.1465 4.3120 -0.7645
-7.2750 4.2931 -0.7530
-7.2303 4.1721 -0.7234
-6.6954 3.7768 -0.6470
-7.2210 3.9809 -0.6734
-7.2512 3.9059 -0.6519
-6.9522 3.6579 -0.6020
-6.8689 3.5291 -0.5722
6.5205 5.3599 -0.6593
6.5207 5.4678 -0.6834
6.5208 5.5775 -0.7078
6.5209 5.6891 -0.7326
6.5211 5.8028 -0.7578
6.5212 5.9185 -0.7833
6.5213 6.0364 -0.8092
6.5215 6.1565 -0.8355
6.5216 6.2789 -0.8621
6.5218 6.4038 -0.8892
6.5219 6.5312 -0.9168
6.5214 6.6606 -0.9447
6.5216 6.7933 -0.9733
6.5217 6.9289 -1.0023
6.5219 7.0674 -1.0318
6.5221 7.2091 -1.0619
6.5223 7.3539 -1.0926
6.5225 7.5021 -1.1239
6.5227 7.6539 -1.1558
6.5229 7.8093 -1.1884
6.5231 7.9685 -1.2217
6.5233 8.1317 -1.2557
6.5235 8.2992 -1.2905
6.5237 8.4710 -1.3260
6.5239 8.6474 -1.3624
6.5242 8.8287 -1.3997
6.5244 9.0150 -1.4379
6.5246 9.2067 -1.4770
6.5249 9.4039 -1.5172
6.5238 9.6050 -1.5581
6.5242 9.8144 -1.6005
6.5245 10.0303 -1.6441
6.5249 10.2530 -1.6889
6.5252 10.4831 -1.7351
6.5256 10.7207 -1.7827
6.5260 10.9665 -1.8317
6.5264 11.2209 -1.8823
6.5269 11.4843 -1.9346
6.5273 11.7574 -1.9886
6.5278 12.0407 -2.0446
6.5282 12.3348 -2.1025
6.5299 12.6428 -2.1629
6.5308 12.9616 -2.2253
6.5317 13.2936 -2.2902
6.5326 13.6397 -2.3576
6.5336 14.0009 -2.4278
6.5346 14.3784 -2.5010
6.5357 14.7732 -2.5774
6.5368 15.1867 -2.6573
6.5244 15.5878 -2.7351
6.5248 16.0402 -2.8221
6.5252 16.5159 -2.9134
6.5256 17.0167 -3.0093
6.5261 17.5449 -3.1103
6.5266 18.1028 -3.2167
6.5301 18.7019 -3.3306
6.5320 19.3319 -3.4503
6.5339 20.0014 -3.5773
6.5360 20.7143 -3.7122
6.5382 21.4752 -3.8560
6.5422 22.2948 -4.0106
6.5448 23.1682 -4.1751
6.5476 24.1076 -4.3518
6.5399 25.0800 -4.5347
6.5422 26.1711 -4.7393
6.5447 27.3557 -4.9612
6.5491 28.6533 -5.2038
6.5532 30.0706 -5.4686
6.5455 31.5700 -5.7486
6.5462 33.2662 -6.0648
-5.8299 38.3066 -7.0146
-6.1851 38.0417 -6.9596
-6.5860 38.0650 -6.9569
-6.9886 38.0882 -6.9538
-7.2714 37.4839 -6.8358
-7.5259 36.7966 -6.7025
-8.2303 38.2610 -6.9605
-5.4146 20.9956 -3.7978
-5.6633 21.0754 -3.8061
-5.6381 20.1656 -3.6357
-6.1701 21.2378 -3.8222
-6.5444 21.7044 -3.8991
-6.5175 20.8505 -3.7385
-6.8489 21.1578 -3.7861
-7.0770 21.1317 -3.7736
-7.2233 20.8666 -3.7183
-7.3939 20.6821 -3.6772
-7.8907 21.3888 -3.7941
-8.0481 21.1560 -3.7438
-8.2236 20.9788 -3.7031
-8.3487 20.6824 -3.6414
-8.5219 20.5141 -3.6021
-8.6937 20.3472 -3.5629
-7.0316 11.8878 -1.9879
-36.1308 28.1163 -3.2960
-36.2498 27.6450 -3.1788
-5.8590 4.3785 -0.4933
-5.9622 4.3657 -0.4814
-6.0675 4.3526 -0.4692
-6.1749 4.3391 -0.4567
-6.2845 4.3254 -0.4438
-6.3594 4.2863 -0.4280
-6.4347 4.2466 -0.4119
-6.5107 4.2065 -0.3957
-6.5875 4.1660 -0.3791
-6.6651 4.1250 -0.3623
-6.7434 4.0835 -0.3452
-6.8225 4.0415 -0.3279
-6.9025 3.9989 -0.3102
-7.0732 4.0068 -0.2960
-6.9270 3.8358 -0.2687
-6.8440 3.7037 -0.2446
-6.7637 3.5760 -0.2213
6.5200 5.4722 -0.2771
6.5201 5.5810 -0.2980
6.5203 5.6917 -0.3192
6.5204 5.8043 -0.3406
6.5205 5.9190 -0.3623
6.5207 6.0358 -0.3842
6.5208 6.1547 -0.4064
6.5209 6.2760 -0.4288
6.5211 6.3995 -0.4516
6.5212 6.5256 -0.4747
6.5210 6.6539 -0.4981
6.5212 6.7852 -0.5218
6.5213 6.9192 -0.5459
6.5215 7.0561 -0.5704
6.5217 7.1960 -0.5952
6.5219 7.3391 -0.6205
6.5220 7.4854 -0.6462
6.5222 7.6351 -0.6723
6.5224 7.7884 -0.6989
6.5226 7.9454 -0.7260
6.5228 8.1063 -0.7536
6.5230 8.2713 -0.7817
6.5232 8.4405 -0.8104
6.5234 8.6142 -0.8397
6.5236 8.7925 -0.8696
6.5239 8.9757 -0.9001
6.5241 9.1641 -0.9313
6.5243 9.3579 -0.9633
6.5236 9.5558 -0.9959
6.5239 9.7612 -1.0294
6.5243 9.9730 -1.0637
6.5246 10.1914 -1.0989
6.5250 10.4167 -1.1351
6.5254 10.6494 -1.1723
6.5257 10.8898 -1.2105
6.5261 11.1385 -1.2498
6.5266 11.3958 -1.2903
6.5270 11.6624 -1.3320
6.5274 11.9387 -1.3751
6.5279 12.2254 -1.4195
6.5284 12.5231 -1.4655
6.5301 12.8349 -1.5133
6.5309 13.1576 -1.5626
6.5318 13.4936 -1.6137
6.5328 13.8440 -1.6668
6.5338 14.2097 -1.7219
6.5348 14.5918 -1.7793
6.5359 14.9916 -1.8391
6.5370 15.4103 -1.9014
6.5257 15.8190 -1.9628
6.5261 16.2773 -2.0306
6.5266 16.7591 -2.1016
6.5270 17.2665 -2.1760
6.5275 17.8016 -2.2542
6.5280 18.3669 -2.3366
6.5320 18.9749 -2.4246
6.5339 19.6133 -2.5169
6.5359 20.2918 -2.6147
6.5380 21.0144 -2.7184
6.5409 21.7875 -2.8290
6.5433 22.6127 -2.9468
6.5459 23.4978 -3.0727
6.5487 24.4498 -3.2078
6.5418 25.4381 -3.3480
6.5442 26.5442 -3.5041
6.5472 27.7466 -3.6733
6.5510 29.0595 -3.8577
6.5552 30.4965 -4.0589
6.5475 32.0160 -4.2716
6.5682 33.8382 -4.5252
6.5687 35.7498 -4.7914
6.5593 37.8249 -5.0800
6.5684 40.2677 -5.4186
6.5702 42.9836 -5.7945
-5.3506 38.2441 -5.1665
-5.6156 37.4043 -5.0447
-6.1667 38.4485 -5.1763
-6.5386 38.3101 -5.1479
-6.8364 37.7714 -5.0652
-7.1980 37.6175 -5.0336
-7.7092 38.2136 -5.1017
-7.9742 37.5837 -5.0055
-7.3596 30.1961 -3.9893
-5.4110 21.2749 -2.8023
-5.6529 21.3315 -2.8010
-5.8778 21.3179 -2.7901
-5.7587 20.1007 -2.6219
-6.0214 20.2520 -2.6322
-6.2531 20.2882 -2.6271
-6.6150 20.7257 -2.6734
-7.0290 21.2876 -2.7348
-7.0034 20.5207 -2.6252
-7.4442 21.1214 -2.6902
-7.6251 20.9664 -2.6583
-7.8047 20.8127 -2.6263
-7.9828 20.6600 -2.5942
-8.1038 20.3680 -2.5444
-8.1965 20.0191 -2.4876
-7.0452 11.8269 -1.3180
-38.5938 31.3013 -1.4282
-36.2297 28.8065 -1.2275
-36.2061 28.2198 -1.1148
-36.2156 27.6679 -1.0040
-36.2212 27.1213 -0.8942
-36.2343 26.5881 -0.7853
-36.2435 26.0596 -0.6773
-36.2859 25.5619 -0.5705
-6.9636 4.8056 -0.0890
-6.9664 4.7089 -0.0687
-6.2235 4.1198 -0.0433
-6.3312 4.1038 -0.0258
-6.4411 4.0874 -0.0079
-6.5534 4.0706 0.0106
-6.6681 4.0533 0.0297
-6.7853 4.0356 0.0493
-6.9052 4.0174 0.0695
-7.0278 3.9987 0.0902
-6.9396 3.8606 0.1083
-6.7973 3.6962 0.1248
6.5195 5.5862 0.1105
6.5196 5.6959 0.0928
6.5197 5.8076 0.0750
6.5198 5.9212 0.0570
6.5200 6.0369 0.0389
6.5201 6.1547 0.0206
6.5202 6.2748 0.0021
6.5204 6.3971 -0.0165
6.5205 6.5218 -0.0353
6.5206 6.6491 -0.0543
6.5208 6.7790 -0.0735
6.5209 6.9115 -0.0929
6.5211 7.0468 -0.1125
6.5213 7.1851 -0.1323
6.5214 7.3265 -0.1524
6.5216 7.4709 -0.1728
6.5218 7.6187 -0.1934
6.5220 7.7700 -0.2143
6.5222 7.9249 -0.2355
6.5223 8.0835 -0.2570
6.5225 8.2461 -0.2788
6.5227 8.4128 -0.3010
6.5229 8.5838 -0.3235
6.5232 8.7594 -0.3464
6.5234 8.9397 -0.3697
6.5236 9.1249 -0.3935
6.5238 9.3153 -0.4176
6.5241 9.5112 -0.4423
6.5237 9.7119 -0.4674
6.5240 9.9197 -0.4930
6.5244 10.1339 -0.5192
6.5247 10.3548 -0.5460
6.5251 10.5827 -0.5734
6.5255 10.8181 -0.6014
6.5259 11.0613 -0.6301
6.5263 11.3129 -0.6596
6.5267 11.5733 -0.6898
6.5271 11.8430 -0.7208
6.5276 12.1226 -0.7527
6.5280 12.4128 -0.7855
6.5294 12.7159 -0.8194
6.5303 13.0298 -0.8543
6.5311 13.3564 -0.8903
6.5320 13.6966 -0.9275
6.5330 14.0513 -0.9660
6.5340 14.4215 -1.0059
6.5350 14.8084 -1.0472
6.5361 15.2131 -1.0901
6.5266 15.6115 -1.1329
6.5270 16.0537 -1.1792
6.5275 16.5179 -1.2274
6.5280 17.0060 -1.2778
6.5285 17.5200 -1.3304
6.5290 18.0622 -1.3856
6.5320 18.6419 -1.4440
6.5338 19.2519 -1.5051
6.5358 19.8990 -1.5696
6.5379 20.5866 -1.6377
6.5401 21.3190 -1.7098
6.5419 22.0990 -1.7861
6.5444 22.9352 -1.8674
6.5471 23.8321 -1.9542
6.5415 24.7651 -2.0444
6.5438 25.8015 -2.1436
6.5463 26.9229 -2.2504
6.5491 28.1407 -2.3659
6.5530 29.4718 -2.4914
6.5487 30.8883 -2.6247
6.5495 32.4686 -2.7726
6.5663 34.2954 -2.9422
6.5667 36.2313 -3.1219
6.5626 38.3642 -3.3193
6.5690 40.8245 -3.5458
6.5549 43.4712 -3.7893
-5.3005 38.4040 -3.3616
-5.4629 36.8854 -3.2181
-5.9398 37.5419 -3.2639
-6.4226 38.1478 -3.3040
-6.8214 38.2077 -3.2959
-7.1880 38.0829 -3.2710
-7.6758 38.5735 -3.2981
-7.9840 38.1510 -3.2462
-8.2756 37.6853 -3.1902
-5.4838 21.8622 -1.8193
-5.7166 21.8741 -1.8088
-5.7525 21.1565 -1.7379
-5.9836 21.1800 -1.7278
-5.8412 19.9235 -1.6135
-6.2630 20.6078 -1.6562
-6.6733 21.2053 -1.6906
-6.7909 20.8596 -1.6491
-7.1091 21.1282 -1.6558
-7.2706 20.9249 -1.6249
-7.4214 20.7000 -1.5921
-7.6273 20.6336 -1.5711
-7.8943 20.7269 -1.5618
-7.9776 20.3426 -1.5161
-8.0709 20.0003 -1.4737
-7.0849 11.8147 -0.6612
-35.1184 35.3065 -0.2171
-35.2241 34.7361 -0.1159
-35.2354 34.0834 -0.0151
-21.5158 18.8948 0.2907
-21.5171 18.5325 0.3492
-21.5183 18.1761 0.4074
-21.5196 17.8256 0.4651
-21.5208 17.4807 0.5225
-21.5220 17.1413 0.5795
-21.4434 16.7448 0.6339
-21.4408 16.4140 0.6899
-21.5264 16.1544 0.7487
-21.5304 15.8369 0.8046
-21.5315 15.5218 0.8602
-21.5326 15.2112 0.9155
-21.5337 14.9047 0.9706
-21.5347 14.6024 1.0254
-21.5358 14.3040 1.0801
-21.5368 14.0095 1.1345
-21.5379 13.7186 1.1888
-21.5389 13.4314 1.2430
-21.5399 13.1476 1.2970
-6.4765 3.8686 0.4062
-6.5865 3.8494 0.4295
-21.5428 12.3157 1.4583
-7.0321 3.9315 0.4935
6.5189 5.7022 0.5053
6.5190 5.8129 0.4909
6.5192 5.9256 0.4765
6.5193 6.0402 0.4620
6.5194 6.1570 0.4475
6.5195 6.2759 0.4329
6.5196 6.3970 0.4182
6.5198 6.5205 0.4036
6.5202 6.6468 0.3888
6.5204 6.7753 0.3740
6.5205 6.9064 0.3591
6.5207 7.0402 0.3441
6.5208 7.1769 0.3291
6.5210 7.3166 0.3139
6.5212 7.4593 0.2987
6.5214 7.6053 0.2834
6.5215 7.7546 0.2679
6.5217 7.9074 0.2523
6.5219 8.0639 0.2366
6.5221 8.2242 0.2208
6.5223 8.3885 0.2049
6.5225 8.5570 0.1888
6.5227 8.7299 0.1725
6.5229 8.9073 0.1561
6.5231 9.0896 0.1395
6.5233 9.2768 0.1227
6.5235 9.4694 0.1057
6.5235 9.6670 0.0885
6.5238 9.8710 0.0711
6.5242 10.0812 0.0535
6.5245 10.2978 0.0356
6.5249 10.5212 0.0174
6.5252 10.7518 -0.0010
6.5256 10.9900 -0.0197
6.5260 11.2361 -0.0388
6.5264 11.4906 -0.0582
6.5268 11.7541 -0.0779
6.5273 12.0271 -0.0980
6.5277 12.3101 -0.1186
6.5282 12.6037 -0.1395
6.5296 12.9106 -0.1610
6.5304 13.2283 -0.1829
6.5313 13.5589 -0.2054
6.5322 13.9033 -0.2284
6.5332 14.2624 -0.2520
6.5342 14.6373 -0.2763
6.5352 15.0290 -0.3013
6.5363 15.4388 -0.3270
6.5279 15.8449 -0.3531
6.5284 16.2928 -0.3805
6.5289 16.7631 -0.4088
6.5294 17.2576 -0.4381
6.5299 17.7784 -0.4685
6.5305 18.3277 -0.5002
6.5339 18.9161 -0.5333
6.5358 19.5344 -0.5678
6.5378 20.1901 -0.6039
6.5399 20.8871 -0.6417
6.5407 21.6245 -0.6813
6.5430 22.4165 -0.7231
6.5455 23.2639 -0.7673
6.5482 24.1730 -0.8142
6.5434 25.1213 -0.8629
6.5458 26.1720 -0.9158
6.5484 27.3090 -0.9723
6.5510 28.5425 -1.0330
6.5550 29.8921 -1.0985
6.5507 31.3277 -1.1680
6.5516 32.9301 -1.2444
6.5644 34.7610 -1.3303
6.5599 36.6950 -1.4210
6.5659 38.9142 -1.5237
6.5697 41.3919 -1.6374
6.5348 43.9351 -1.7546
-5.2963 38.9018 -1.5708
-5.6863 38.9226 -1.5582
-5.9608 38.1942 -1.5148
-6.2556 37.6694 -1.4790
-6.7307 38.2212 -1.4846
-7.0763 38.0109 -1.4594
-7.4089 37.7497 -1.4315
-7.7907 37.7453 -1.4124
-8.0053 36.9628 -1.3637
-5.7876 21.5859 -0.7309
-6.0070 21.5635 -0.7153
-6.2271 21.5408 -0.6991
-6.4387 21.4874 -0.6813
-6.6393 21.3982 -0.6619
-6.8349 21.2953 -0.6416
-6.8539 20.6623 -0.6052
-7.1627 20.9114 -0.5944
-7.3041 20.6672 -0.5690
-7.4447 20.4317 -0.5436
-7.5596 20.1374 -0.5164
-21.3981 31.8848 0.2753
-21.4786 31.3487 0.3331
-21.4809 30.7143 0.3893
-21.4831 30.0973 0.4448
-21.4852 29.4967 0.4996
-21.4873 28.9118 0.5540
-21.4894 28.3421 0.6077
-21.4914 27.7866 0.6610
-21.4108 27.1402 0.7111
-21.4349 26.6413 0.7640
-21.4979 26.2012 0.8181
-21.4997 25.6972 0.8696
-21.5015 25.2046 0.9207
-21.5032 24.7231 0.9715
-21.5049 24.2522 1.0220
-21.5065 23.7914 1.0721
-21.5081 23.3404 1.1219
-21.5097 22.8987 1.1715
-21.5113 22.4661 1.2208
-21.4203 21.9472 1.2645
-21.4308 21.5424 1.3136
-21.5067 21.2097 1.3668
-21.5081 20.8098 1.4153
-21.5095 20.4173 1.4635
-21.5109 20.0319 1.5116
-21.5122 19.6534 1.5596
-21.5135 19.2815 1.6074
-21.5148 18.9160 1.6551
-21.5161 18.5566 1.7027
-21.5174 18.2031 1.7502
-21.5186 17.8553 1.7976
-21.5198 17.5131 1.8450
-21.5210 17.1761 1.8922
-21.4424 16.7819 1.9323
-21.4398 16.4534 1.9789
-21.4697 16.1542 2.0286
-21.5294 15.8808 2.0813
-21.5305 15.5677 2.1284
-21.5316 15.2590 2.1756
-21.5327 14.9544 2.2227
-21.5338 14.6539 2.2699
-21.5348 14.3572 2.3170
-21.5359 14.0643 2.3643
-21.5369 13.7751 2.4115
-21.5379 13.4893 2.4588
-21.5389 13.2069 2.5062
-21.5399 12.9278 2.5537
-21.5408 12.6519 2.6012
-7.0992 4.0796 0.8729
6.5184 5.8210 0.9093
6.5185 5.9327 0.8983
6.5186 6.0463 0.8874
6.5187 6.1620 0.8764
6.5188 6.2798 0.8656
6.5189 6.3998 0.8548
6.5191 6.5221 0.8441
6.5198 6.6475 0.8335
6.5200 6.7747 0.8229
6.5201 6.9044 0.8123
6.5203 7.0368 0.8018
6.5204 7.1720 0.7914
6.5206 7.3100 0.7810
6.5208 7.4511 0.7707
6.5209 7.5953 0.7604
6.5211 7.7428 0.7502
6.5213 7.8936 0.7400
6.5214 8.0480 0.7299
6.5216 8.2062 0.7198
6.5218 8.3682 0.7098
6.5220 8.5343 0.6999
6.5222 8.7046 0.6900
6.5224 8.8793 0.6801
6.5226 9.0587 0.6704
6.5228 9.2430 0.6606
6.5230 9.4323 0.6509
6.5233 9.6270 0.6413
6.5236 9.8275 0.6318
6.5239 10.0339 0.6223
6.5243 10.2465 0.6128
6.5246 10.4656 0.6034
6.5250 10.6916 0.5941
6.5253 10.9249 0.5848
6.5257 11.1659 0.5756
6.5261 11.4150 0.5665
6.5265 11.6726 0.5574
6.5270 11.9392 0.5484
6.5274 12.2155 0.5394
6.5278 12.5019 0.5305
6.5290 12.8005 0.5217
6.5298 13.1099 0.5130
6.5306 13.4315 0.5043
6.5315 13.7663 0.4957
6.5324 14.1150 0.4872
6.5334 14.4786 0.4788
6.5344 14.8582 0.4705
6.5354 15.2548 0.4622
6.5288 15.6513 0.4535
6.5293 16.0839 0.4454
6.5298 16.5376 0.4374
6.5303 17.0141 0.4295
6.5308 17.5152 0.4217
6.5314 18.0430 0.4141
6.5320 18.5997 0.4065
6.5358 19.1969 0.3993
6.5377 19.8236 0.3922
6.5398 20.4883 0.3852
6.5420 21.1949 0.3784
6.5417 21.9388 0.3716
6.5441 22.7416 0.3652
6.5467 23.6005 0.3590
6.5494 24.5220 0.3530
6.5454 25.4861 0.3470
6.5479 26.5515 0.3417
6.5492 27.6987 0.3366
6.5529 28.9540 0.3320
6.5570 30.3225 0.3279
6.5527 31.7777 0.3239
6.5537 33.4027 0.3207
6.5624 35.2372 0.3185
6.5632 37.2261 0.3167
6.5693 39.4777 0.3162
6.5703 41.9728 0.3163
-6.2395 38.0963 0.3001
-6.6105 38.0630 0.3187
-6.9703 37.9656 0.3377
-7.3618 30.1832 0.3826
-6.4142 20.9705 0.3692
-7.0960 21.0178 0.4315
-7.1912 20.6446 0.4454
-21.4408 42.3006 1.7056
-21.4443 41.3245 1.7350
-21.4477 40.3837 1.7645
-21.4510 39.4760 1.7943
-21.4542 38.5996 1.8243
-21.3718 37.6025 1.8472
-21.4580 36.9302 1.8848
-7.0303 11.8383 0.6274
-21.4637 35.3707 1.9462
-21.4663 34.6273 1.9772
-21.4689 33.9063 2.0083
-21.4715 33.2068 2.0397
-21.3899 32.4003 2.0632
-21.4756 31.8667 2.1030
-21.4779 31.2253 2.1349
-21.4801 30.6015 2.1670
-21.4823 29.9944 2.1993
-21.4845 29.4032 2.2318
-21.4865 28.8273 2.2644
-21.4886 28.2660 2.2972
-21.4905 27.7185 2.3302
-21.4091 27.0789 2.3543
-21.4771 26.6415 2.3949
-21.4971 26.1547 2.4305
-21.4988 25.6571 2.4642
-21.5006 25.1707 2.4981
-21.5023 24.6951 2.5322
-21.5040 24.2297 2.5665
-21.5056 23.7742 2.6009
-21.9202 23.7763 2.6862
-21.6346 23.0254 2.6861
-21.3566 22.3028 2.6861
-21.0836 21.6049 2.6861
-20.8161 20.9311 2.6861
-20.5539 20.2803 2.6861
-20.2969 19.6515 2.6861
-20.0448 19.0438 2.6861
-19.7975 18.4561 2.6861
-19.6271 17.9538 2.6960
-19.6176 17.6078 2.7279
-19.6124 17.2715 2.7606
-19.6071 16.9409 2.7934
-19.6017 16.6157 2.8264
-19.4526 16.1764 2.8385
-19.2233 15.6813 2.8385
-18.9980 15.2012 2.8385
-18.7767 14.7359 2.8385
-18.5591 14.2844 2.8385
-18.3454 13.8465 2.8385
-18.1353 13.4215 2.8385
-17.9287 13.0088 2.8385
-17.7255 12.6082 2.8385
-17.5257 12.2189 2.8385
-17.3292 11.8409 2.8385
-17.1358 11.4734 2.8385
-16.9456 11.1163 2.8385
-16.7583 10.7690 2.8385
-16.5740 10.4313 2.8385
-16.3926 10.1028 2.8385
-16.2140 9.7832 2.8385
-16.0380 9.4721 2.8385
6.5178 5.9431 1.3247
6.5179 6.0558 1.3172
6.5180 6.1705 1.3098
6.5181 6.2873 1.3025
6.5182 6.4062 1.2955
6.5183 6.5273 1.2886
6.5194 6.6519 1.2820
6.5196 6.7778 1.2755
6.5197 6.9062 1.2692
6.5199 7.0372 1.2630
6.5200 7.1709 1.2570
6.5202 7.3074 1.2512
6.5203 7.4469 1.2456
6.5205 7.5894 1.2402
6.5207 7.7351 1.2351
6.5208 7.8841 1.2301
6.5210 8.0366 1.2254
6.5212 8.1926 1.2209
6.5213 8.3525 1.2166
6.5215 8.5163 1.2126
6.5217 8.6841 1.2088
6.5219 8.8563 1.2053
6.5221 9.0330 1.2021
6.5223 9.2144 1.1991
6.5225 9.4007 1.1965
6.5227 9.5922 1.1941
6.5234 9.7898 1.1921
6.5237 9.9926 1.1904
6.5241 10.2013 1.1890
6.5244 10.4164 1.1880
6.5247 10.6381 1.1874
6.5251 10.8669 1.1871
6.5255 11.1030 1.1873
6.5259 11.3468 1.1879
6.5263 11.5989 1.1889
6.5267 11.8596 1.1904
6.5271 12.1296 1.1924
6.5275 12.4092 1.1949
6.5284 12.7000 1.1980
6.5292 13.0015 1.2017
6.5300 13.3148 1.2060
6.5308 13.6405 1.2110
6.5317 13.9795 1.2167
6.5326 14.3326 1.2231
6.5336 14.7008 1.2303
6.5346 15.0853 1.2384
6.5356 15.4871 1.2474
6.5301 15.8914 1.2560
6.5307 16.3297 1.2668
6.5312 16.7895 1.2787
6.5317 17.2724 1.2918
6.5323 17.7803 1.3062
6.5329 18.3152 1.3220
6.5358 18.8859 1.3397
6.5377 19.4858 1.3589
6.5397 20.1212 1.3799
6.5419 20.7952 1.4028
6.5441 21.5116 1.4279
6.5429 22.2622 1.4546
6.5453 23.0760 1.4846
6.5479 23.9467 1.5176
6.5451 24.8598 1.5524
6.5474 25.8614 1.5920
6.5500 26.9419 1.6355
6.5511 28.1043 1.6831
6.5550 29.3774 1.7365
6.5537 30.7401 1.7941
6.5547 32.2407 1.8589
6.5603 33.9124 1.9324
6.5604 35.7265 2.0129
6.5665 37.7728 2.1054
6.5688 40.0331 2.2085
6.5710 42.5702 2.3256
-6.8861 38.0394 2.1370
-10.2745 48.7944 2.8385
-10.6243 48.1857 2.8385
-10.9610 47.5638 2.8385
-11.2843 46.9297 2.8385
-11.5943 46.2849 2.8385
-11.8910 45.6308 2.8385
-12.1745 44.9685 2.8385
-12.4446 44.2991 2.8385
-12.7019 43.6238 2.8385
-12.9462 42.9439 2.8385
-13.1777 42.2602 2.8385
-13.3967 41.5738 2.8385
-6.9889 21.0055 1.4583
-13.7979 40.1969 2.8385
-13.9806 39.5083 2.8385
-14.1517 38.8205 2.8385
-14.3115 38.1344 2.8385
-14.4602 37.4507 2.8385
-14.5983 36.7702 2.8385
-14.7259 36.0935 2.8385
-14.8434 35.4211 2.8385
-14.9510 34.7535 2.8385
-15.0492 34.0915 2.8385
-15.1382 33.4352 2.8385
-15.2184 32.7851 2.8385
-15.2900 32.1417 2.8385
-15.3534 31.5053 2.8385
-15.4088 30.8762 2.8385
-15.4566 30.2546 2.8385
-15.4971 29.6408 2.8385
-15.5306 29.0351 2.8385
-15.5573 28.4376 2.8385
-15.5776 27.8484 2.8385
-15.5917 27.2677 2.8385
-15.5999 26.6956 2.8385
-7.0554 11.8169 1.2836
-15.5996 25.5775 2.8385
-15.5917 25.0317 2.8385
-15.5788 24.4945 2.8385
-15.5613 23.9663 2.8385
-15.5393 23.4469 2.8385
-15.5132 22.9364 2.8385
-15.4830 22.4346 2.8385
-15.4491 21.9416 2.8385
-15.4115 21.4573 2.8385
-15.3705 20.9816 2.8385
-15.3263 20.5145 2.8385
-15.2790 20.0558 2.8385
-15.2289 19.6056 2.8385
-15.1760 19.1637 2.8385
-15.1206 18.7300 2.8385
-15.0627 18.3044 2.8385
-15.0025 17.8869 2.8385
-14.9402 17.4772 2.8385
-14.8759 17.0753 2.8385
-14.8097 16.6812 2.8385
-14.7418 16.2945 2.8385
-14.6721 15.9155 2.8385
-14.6009 15.5436 2.8385
-14.5283 15.1790 2.8385
-14.4543 14.8215 2.8385
-14.3791 14.4708 2.8385
-14.3027 14.1271 2.8385
-14.2253 13.7900 2.8385
-14.1468 13.4596 2.8385
-14.0674 13.1356 2.8385
-13.9872 12.8179 2.8385
-13.9062 12.5065 2.8385
-13.8245 12.2011 2.8385
-13.7422 11.9018 2.8385
-13.6593 11.6083 2.8385
-13.5759 11.3206 2.8385
-13.4920 11.0385 2.8385
-13.4076 10.7619 2.8385
-13.3229 10.4907 2.8385
-13.2379 10.2248 2.8385
-13.1526 9.9642 2.8385
-13.0671 9.7085 2.8385
-12.9814 9.4579 2.8385
-12.8955 9.2121 2.8385
-12.8095 8.9711 2.8385
-12.7234 8.7348 2.8385
-12.6372 8.5030 2.8385
-12.5510 8.2757 2.8385
-12.4648 8.0528 2.8385
-12.3787 7.8342 2.8385
-12.2926 7.6197 2.8385
-12.2065 7.4094 2.8385
6.5172 6.0692 1.7538
6.5173 6.1830 1.7499
6.5174 6.2988 1.7461
6.5175 6.4166 1.7427
6.5176 6.5367 1.7395
6.5191 6.6604 1.7370
6.5192 6.7851 1.7345
6.5193 6.9123 1.7322
6.5195 7.0420 1.7302
6.5196 7.1743 1.7286
6.5198 7.3094 1.7273
6.5199 7.4474 1.7263
6.5201 7.5883 1.7257
6.5202 7.7323 1.7254
6.5204 7.8795 1.7255
6.5206 8.0301 1.7260
6.5207 8.1843 1.7269
6.5209 8.3420 1.7282
6.5211 8.5036 1.7299
6.5212 8.6692 1.7320
6.5214 8.8390 1.7347
6.5216 9.0131 1.7377
6.5218 9.1917 1.7413
6.5220 9.3752 1.7454
6.5222 9.5637 1.7500
6.5232 9.7585 1.7554
6.5235 9.9579 1.7612
6.5238 10.1631 1.7676
6.5242 10.3744 1.7746
6.5245 10.5920 1.7823
6.5249 10.8164 1.7907
6.5252 11.0479 1.7999
6.5256 11.2869 1.8097
6.5260 11.5337 1.8204
6.5264 11.7889 1.8320
6.5268 12.0529 1.8444
6.5272 12.3262 1.8578
6.5278 12.6097 1.8722
6.5286 12.9039 1.8877
6.5293 13.2093 1.9044
6.5302 13.5266 1.9222
6.5310 13.8564 1.9413
6.5319 14.1998 1.9617
6.5328 14.5575 1.9835
6.5338 14.9305 2.0069
6.5348 15.3200 2.0319
6.5310 15.7153 2.0571
6.5315 16.1395 2.0855
6.5321 16.5839 2.1159
6.5327 17.0499 2.1484
6.5332 17.5394 2.1832
6.5339 18.0542 2.2205
6.5345 18.5965 2.2605
6.5378 19.1762 2.3044
6.5397 19.7846 2.3510
6.5418 20.4289 2.4010
6.5440 21.1124 2.4549
6.5417 21.8235 2.5113
6.5440 22.5964 2.5739
6.5465 23.4216 2.6417
6.4793 24.0455 2.6861
6.2973 24.2705 2.6861
6.1107 24.4906 2.6861
5.9195 24.7052 2.6861
5.7239 24.9144 2.6861
5.5239 25.1176 2.6861
5.3197 25.3147 2.6861
5.1112 25.5054 2.6861
4.8986 25.6892 2.6861
4.8214 26.6363 2.7661
4.7148 27.5132 2.8385
4.4781 27.6846 2.8385
4.2375 27.8479 2.8385
3.9934 28.0028 2.8385
3.7458 28.1490 2.8385
3.4950 28.2862 2.8385
3.2412 28.4144 2.8385
2.9845 28.5333 2.8385
2.7252 28.6426 2.8385
2.4635 28.7423 2.8385
2.1995 28.8320 2.8385
1.9335 28.9117 2.8385
1.6658 28.9813 2.8385
1.3966 29.0406 2.8385
1.1261 29.0895 2.8385
0.8546 29.1280 2.8385
0.5823 29.1559 2.8385
0.3094 29.1732 2.8385
0.0363 29.1799 2.8385
-0.2369 29.1760 2.8385
-0.5098 29.1615 2.8385
-0.7823 29.1363 2.8385
-1.0541 29.1007 2.8385
-1.3249 29.0546 2.8385
-1.5945 28.9981 2.8385
-1.8626 28.9312 2.8385
-2.1290 28.8542 2.8385
-2.3936 28.7671 2.8385
-2.6559 28.6701 2.8385
-2.9159 28.5633 2.8385
-3.1733 28.4469 2.8385
-3.4279 28.3212 2.8385
-3.6795 28.1863 2.8385
-3.9280 28.0424 2.8385
-4.1730 27.8899 2.8385
-4.4145 27.7288 2.8385
-4.6523 27.5594 2.8385
-4.8862 27.3822 2.8385
-5.1162 27.1971 2.8385
-5.3419 27.0047 2.8385
-5.5634 26.8051 2.8385
-5.6465 25.9821 2.7727
-5.6712 24.9689 2.6861
-5.8680 24.7614 2.6861
-6.0603 24.5481 2.6861
-6.2482 24.3294 2.6861
-6.4314 24.1057 2.6861
-6.6100 23.8771 2.6861
-6.7838 23.6440 2.6861
-6.9530 23.4066 2.6861
-7.1174 23.1654 2.6861
-7.2770 22.9203 2.6861
-7.4318 22.6718 2.6861
-7.0762 20.9252 2.5070
-7.2921 20.9182 2.5350
-7.8674 21.9085 2.6861
-8.0029 21.6490 2.6861
-8.1338 21.3873 2.6861
-8.2598 21.1237 2.6861
-8.3812 20.8585 2.6861
-8.4979 20.5919 2.6861
-8.6099 20.3241 2.6861
-8.7174 20.0553 2.6861
-8.8203 19.7858 2.6861
-8.9188 19.5156 2.6861
-9.0128 19.2452 2.6861
-9.1025 18.9744 2.6861
-9.7091 19.7650 2.8385
-9.7949 19.4792 2.8385
-9.8762 19.1938 2.8385
-9.9532 18.9090 2.8385
-10.0260 18.6247 2.8385
-10.0947 18.3414 2.8385
-10.1592 18.0590 2.8385
-10.2198 17.7777 2.8385
-10.2765 17.4978 2.8385
-7.0828 11.8072 1.9463
-10.3784 16.9422 2.8385
-10.4239 16.6668 2.8385
-10.4658 16.3930 2.8385
-10.5043 16.1211 2.8385
-10.5393 15.8510 2.8385
-10.5711 15.5831 2.8385
-10.5996 15.3171 2.8385
-10.6250 15.0533 2.8385
-10.6474 14.7916 2.8385
-10.6668 14.5323 2.8385
-10.6833 14.2753 2.8385
-10.6971 14.0207 2.8385
-10.7081 13.7685 2.8385
-10.7165 13.5187 2.8385
-10.7224 13.2715 2.8385
-10.7258 13.0267 2.8385
-10.7268 12.7846 2.8385
-10.7255 12.5450 2.8385
-10.7219 12.3081 2.8385
-10.7162 12.0738 2.8385
-10.7084 11.8421 2.8385
-10.6985 11.6131 2.8385
-10.6867 11.3869 2.8385
-10.6730 11.1632 2.8385
-10.6574 10.9423 2.8385
-10.6401 10.7240 2.8385
-10.6211 10.5084 2.8385
-10.6004 10.2955 2.8385
-10.5782 10.0853 2.8385
-10.5544 9.8777 2.8385
-10.5292 9.6728 2.8385
-10.5025 9.4706 2.8385
-10.4745 9.2709 2.8385
-10.4452 9.0739 2.8385
-10.4146 8.8795 2.8385
-10.3828 8.6878 2.8385
-10.3499 8.4986 2.8385
-10.3158 8.3119 2.8385
-10.2807 8.1278 2.8385
-10.2445 7.9462 2.8385
-10.2073 7.7671 2.8385
-10.1692 7.5905 2.8385
-10.1302 7.4163 2.8385
-10.0903 7.2446 2.8385
-10.0497 7.0753 2.8385
-10.0082 6.9083 2.8385
-9.9659 6.7437 2.8385
-9.9229 6.5814 2.8385
-9.8793 6.4215 2.8385
-9.8349 6.2638 2.8385
-9.7900 6.1084 2.8385
6.5166 6.2002 2.1993
6.5167 6.3150 2.1991
6.5168 6.4319 2.1992
6.5169 6.5509 2.1997
6.5187 6.6740 2.2011
6.5188 6.7975 2.2025
6.5189 6.9235 2.2042
6.5191 7.0520 2.2063
6.5192 7.1830 2.2090
6.5194 7.3167 2.2120
6.5195 7.4532 2.2155
6.5196 7.5927 2.2196
6.5198 7.7351 2.2241
6.5199 7.8807 2.2291
6.5201 8.0295 2.2347
6.5203 8.1818 2.2408
6.5204 8.3376 2.2476
6.5206 8.4971 2.2549
6.5208 8.6606 2.2628
6.5209 8.8280 2.2714
6.5211 8.9997 2.2806
6.5213 9.1758 2.2905
6.5215 9.3566 2.3012
6.5217 9.5422 2.3126
6.5230 9.7345 2.3252
6.5233 9.9307 2.3383
6.5236 10.1325 2.3522
6.5240 10.3402 2.3670
6.5243 10.5540 2.3827
6.5246 10.7744 2.3995
6.5250 11.0015 2.4173
6.5254 11.2359 2.4361
6.5257 11.4779 2.4561
6.5261 11.7279 2.4773
6.5265 11.9863 2.4998
6.5269 12.2536 2.5236
6.5274 12.5304 2.5488
6.5280 12.8176 2.5755
6.5288 13.1157 2.6039
6.5295 13.4250 2.6340
6.5304 13.7465 2.6658
6.4988 14.0108 2.6861
6.4148 14.1694 2.6861
6.3281 14.3270 2.6861
6.2387 14.4834 2.6861
6.1466 14.6386 2.6861
6.0518 14.7924 2.6861
5.9543 14.9449 2.6861
5.8541 15.0957 2.6861
5.7512 15.2449 2.6861
5.6455 15.3923 2.6861
5.5372 15.5378 2.6861
5.4262 15.6812 2.6861
5.3126 15.8226 2.6861
5.1963 15.9617 2.6861
5.0773 16.0984 2.6861
4.9558 16.2327 2.6861
4.8317 16.3643 2.6861
4.8029 16.8361 2.7420
4.7912 17.4010 2.8125
4.6965 17.6924 2.8385
4.5549 17.8193 2.8385
4.4107 17.9429 2.8385
4.2641 18.0630 2.8385
4.1151 18.1795 2.8385
3.9637 18.2922 2.8385
3.8101 18.4012 2.8385
3.6543 18.5062 2.8385
3.4963 18.6071 2.8385
3.3362 18.7040 2.8385
3.1742 18.7965 2.8385
3.0102 18.8847 2.8385
2.8445 18.9685 2.8385
2.6769 19.0477 2.8385
2.5078 19.1223 2.8385
2.3371 19.1922 2.8385
2.1649 19.2572 2.8385
1.9914 19.3174 2.8385
1.8166 19.3727 2.8385
0.7478 19.5975 2.8385
1.6407 19.4230 2.8385
1.4638 19.4682 2.8385
0.5673 19.6168 2.8385
1.2859 19.5083 2.8385
0.3864 19.6308 2.8385
1.1072 19.5433 2.8385
0.2053 19.6394 2.8385
0.9278 19.5730 2.8385
-0.3383 19.6336 2.8385
0.0241 19.6428 2.8385
-0.5193 19.6210 2.8385
-0.1572 19.6408 2.8385
-0.6999 19.6032 2.8385
-0.8800 19.5800 2.8385
-1.4166 19.4793 2.8385
-1.0596 19.5517 2.8385
-1.5938 19.4355 2.8385
-1.2385 19.5181 2.8385
-2.4626 19.1413 2.8385
-1.7700 19.3866 2.8385
-2.6322 19.0680 2.8385
-1.9451 19.3326 2.8385
-2.8001 18.9900 2.8385
-2.1190 19.2737 2.8385
-2.9664 18.9074 2.8385
-2.2915 19.2099 2.8385
-3.1308 18.8204 2.8385
-3.4540 18.6333 2.8385
-3.2934 18.7290 2.8385
-3.6125 18.5334 2.8385
-4.3720 17.9751 2.8385
-4.5168 17.8525 2.8385
-3.7689 18.4294 2.8385
-4.6591 17.7265 2.8385
-3.9232 18.3215 2.8385
-4.7989 17.5972 2.8385
-4.0751 18.2098 2.8385
-4.9360 17.4647 2.8385
-4.2248 18.0942 2.8385
-5.0706 17.3292 2.8385
-5.2024 17.1909 2.8385
-5.6802 15.6048 2.7164
-5.7234 15.2842 2.6861
-5.3316 17.0497 2.8385
-5.8270 15.1355 2.6861
-5.4580 16.9059 2.8385
-5.9279 14.9851 2.6861
-6.0262 14.8331 2.6861
-5.5816 16.7595 2.8385
-6.1217 14.6796 2.6861
-5.6612 16.4907 2.8180
-6.2145 14.5247 2.6861
-5.6710 16.0368 2.7656
-6.3046 14.3686 2.6861
-6.7149 13.5726 2.6861
-6.3920 14.2113 2.6861
-6.7891 13.4111 2.6861
-6.4768 14.0530 2.6861
-6.8606 13.2489 2.6861
-6.5588 13.8937 2.6861
-6.9295 13.0863 2.6861
-6.6382 13.7335 2.6861
-6.9959 12.9233 2.6861
-7.1210 12.5964 2.6861
-7.0597 12.7599 2.6861
-7.1799 12.4326 2.6861
-7.4378 11.6146 2.6861
-7.2362 12.2689 2.6861
-7.4824 11.4515 2.6861
-7.1193 11.8213 2.6232
-7.5247 11.2888 2.6861
-7.3417 11.9414 2.6861
-7.5648 11.1265 2.6861
-7.3909 11.7779 2.6861
-7.6027 10.9647 2.6861
-7.6721 10.6426 2.6861
-7.6385 10.8034 2.6861
-7.7037 10.4826 2.6861
-7.8317 9.6929 2.6861
-7.7332 10.3231 2.6861
-7.8516 9.5374 2.6861
-7.7608 10.1644 2.6861
-7.8697 9.3829 2.6861
-7.7863 10.0064 2.6861
-7.8861 9.2293 2.6861
-7.8100 9.8492 2.6861
-7.9007 9.0767 2.6861
-7.9248 8.7746 2.6861
-7.9136 8.9251 2.6861
-7.9344 8.6251 2.6861
-7.9595 7.8942 2.6861
-7.9424 8.4766 2.6861
-7.9601 7.7515 2.6861
-7.9489 8.3293 2.6861
-7.9594 7.6101 2.6861
-7.9539 8.1831 2.6861
-7.9574 7.4698 2.6861
-7.9574 8.0381 2.6861
-7.9540 7.3308 2.6861
-7.9435 7.0564 2.6861
-7.9494 7.1929 2.6861
-7.9365 6.9211 2.6861
-7.8843 6.2636 2.6861
-7.9283 6.7870 2.6861
-7.8707 6.1359 2.6861
-7.9189 6.6543 2.6861
-7.8561 6.0095 2.6861
-7.9084 6.5227 2.6861
-7.8405 5.8844 2.6861
-7.8969 6.3925 2.6861
-7.8240 5.7607 2.6861
-7.8066 5.6381 2.6861
-7.7884 5.5169 2.6861
-7.7692 5.3970 2.6861
-7.7493 5.2783 2.6861
-7.7285 5.1609 2.6861
-7.7070 5.0448 2.6861
-7.6847 4.9300 2.6861
6.5159 6.3369 2.6642
6.5160 6.4528 2.6678
6.5161 6.5708 2.6719
6.5183 6.6932 2.6774
6.5184 6.8158 2.6825
6.5136 6.9354 2.6861
6.4987 7.0463 2.6861
6.4825 7.1576 2.6861
6.4650 7.2695 2.6861
6.4461 7.3818 2.6861
6.4259 7.4946 2.6861
6.4044 7.6078 2.6861
6.3814 7.7213 2.6861
6.3571 7.8351 2.6861
6.3313 7.9493 2.6861
6.3040 8.0638 2.6861
6.2753 8.1785 2.6861
6.2450 8.2935 2.6861
6.2133 8.4086 2.6861
6.1800 8.5239 2.6861
6.1451 8.6393 2.6861
6.1087 8.7548 2.6861
6.0707 8.8704 2.6861
6.0310 8.9859 2.6861
5.9898 9.1014 2.6861
5.9469 9.2169 2.6861
5.9023 9.3322 2.6861
5.8560 9.4473 2.6861
5.8081 9.5623 2.6861
5.7584 9.6769 2.6861
5.7070 9.7913 2.6861
5.6539 9.9053 2.6861
5.5991 10.0189 2.6861
5.5425 10.1320 2.6861
5.4841 10.2447 2.6861
5.4239 10.3568 2.6861
5.3620 10.4682 2.6861
5.2983 10.5790 2.6861
5.2328 10.6891 2.6861
5.1655 10.7984 2.6861
5.0965 10.9068 2.6861
5.0256 11.0144 2.6861
4.9605 11.1381 2.6903
4.8784 11.2265 2.6861
4.8090 11.3476 2.6899
4.7936 11.6025 2.7257
4.7864 11.8894 2.7683
4.7788 12.1884 2.8133
4.7335 12.4028 2.8385
4.6435 12.5065 2.8385
4.5517 12.6087 2.8385
4.4581 12.7093 2.8385
4.3627 12.8082 2.8385
4.2655 12.9054 2.8385
4.1666 13.0008 2.8385
4.0658 13.0942 2.8385
3.9634 13.1858 2.8385
3.8593 13.2754 2.8385
3.7535 13.3629 2.8385
3.6461 13.4483 2.8385
3.5370 13.5314 2.8385
3.4265 13.6124 2.8385
3.3143 13.6910 2.8385
3.2007 13.7673 2.8385
3.0856 13.8411 2.8385
2.9691 13.9123 2.8385
2.8512 13.9810 2.8385
2.7320 14.0472 2.8385
2.6115 14.1106 2.8385
2.4898 14.1714 2.8385
2.3669 14.2294 2.8385
2.2429 14.2845 2.8385
2.1178 14.3368 2.8385
1.9917 14.3862 2.8385
1.8646 14.4326 2.8385
1.7366 14.4760 2.8385
1.6077 14.5165 2.8385
1.4781 14.5538 2.8385
1.3477 14.5881 2.8385
1.2166 14.6192 2.8385
1.0850 14.6472 2.8385
0.9528 14.6720 2.8385
0.8201 14.6935 2.8385
0.6871 14.7119 2.8385
0.5536 14.7271 2.8385
-0.2504 14.7493 2.8385
0.4199 14.7389 2.8385
-0.3844 14.7415 2.8385
0.2860 14.7476 2.8385
-0.5181 14.7305 2.8385
0.1520 14.7529 2.8385
-0.6516 14.7163 2.8385
0.0178 14.7550 2.8385
-0.7848 14.6988 2.8385
-0.1163 14.7538 2.8385
-0.9176 14.6780 2.8385
-1.0499 14.6541 2.8385
-1.8307 14.4444 2.8385
-1.1817 14.6269 2.8385
-1.9580 14.3988 2.8385
-1.3130 14.5967 2.8385
-2.0844 14.3502 2.8385
-1.4435 14.5632 2.8385
-2.2098 14.2987 2.8385
-1.5734 14.5267 2.8385
-2.3341 14.2443 2.8385
-1.7024 14.4871 2.8385
-2.4573 14.1870 2.8385
-2.5793 14.1270 2.8385
-3.2843 13.7115 2.8385
-2.7002 14.0643 2.8385
-3.3968 13.6335 2.8385
-2.8197 13.9989 2.8385
-3.5078 13.5532 2.8385
-2.9379 13.9308 2.8385
-3.6173 13.4706 2.8385
-3.0548 13.8602 2.8385
-3.7251 13.3858 2.8385
-3.1703 13.7871 2.8385
-3.8313 13.2989 2.8385
-3.9359 13.2098 2.8385
-4.5270 12.6356 2.8385
-4.0388 13.1188 2.8385
-4.6193 12.5338 2.8385
-4.1400 13.0258 2.8385
-4.7097 12.4305 2.8385
-4.2394 12.9309 2.8385
-4.7983 12.3256 2.8385
-4.3371 12.8342 2.8385
-4.8851 12.2194 2.8385
-4.4330 12.7357 2.8385
-4.9699 12.1118 2.8385
-5.0529 12.0030 2.8385
-5.5110 11.3263 2.8385
-5.1340 11.8929 2.8385
-5.5807 11.2102 2.8385
-5.2132 11.7816 2.8385
-5.6485 11.0934 2.8385
-5.2905 11.6694 2.8385
-5.6743 10.8985 2.8186
-5.3659 11.5559 2.8385
-5.6796 10.6716 2.7899
-5.4394 11.4416 2.8385
-5.6846 10.4516 2.7627
-5.6894 10.2384 2.7368
-5.8901 9.3628 2.6861
-5.6940 10.0316 2.7121
-5.9352 9.2475 2.6861
-5.6984 9.8308 2.6887
-5.9785 9.1321 2.6861
-5.7449 9.7074 2.6861
-6.0202 9.0166 2.6861
-5.7950 9.5928 2.6861
-6.0603 8.9010 2.6861
-5.8434 9.4778 2.6861
-6.0988 8.7855 2.6861
-6.1356 8.6700 2.6861
-6.3242 7.9797 2.6861
-6.1709 8.5546 2.6861
-6.3504 7.8654 2.6861
-6.2046 8.4392 2.6861
-6.3751 7.7515 2.6861
-6.2367 8.3240 2.6861
-6.3984 7.6379 2.6861
-6.2674 8.2091 2.6861
-6.4204 7.5246 2.6861
-6.2965 8.0942 2.6861
-6.4409 7.4118 2.6861
-6.4601 7.2993 2.6861
-6.5479 6.6349 2.6861
-6.4779 7.1873 2.6861
-6.5582 6.5261 2.6861
-6.4945 7.0758 2.6861
-6.5925 5.9911 2.6861
-6.5674 6.4178 2.6861
-6.5097 6.9648 2.6861
-6.5960 5.8860 2.6861
-6.5753 6.3102 2.6861
-6.5237 6.8543 2.6861
-6.5985 5.7816 2.6861
-6.5822 6.2031 2.6861
-6.5364 6.7443 2.6861
-6.6000 5.6780 2.6861
-6.5879 6.0968 2.6861
-6.5984 5.3713 2.6861
-6.6004 5.5751 2.6861
-6.5702 4.7780 2.6861
-6.5959 5.2705 2.6861
-6.5999 5.4728 2.6861
-6.5625 4.6818 2.6861
-6.5926 5.1705 2.6861
-6.5539 4.5864 2.6861
-6.5883 5.0712 2.6861
-6.5446 4.4918 2.6861
-6.5831 4.9727 2.6861
-6.5345 4.3980 2.6861
-6.5771 4.8750 2.6861
-6.5237 4.3050 2.6861
5.5525 5.5227 2.6861
5.5391 5.6089 2.6861
5.5246 5.6953 2.6861
5.5092 5.7820 2.6861
5.4927 5.8690 2.6861
5.4752 5.9562 2.6861
5.4567 6.0436 2.6861
5.4371 6.1312 2.6861
5.4164 6.2191 2.6861
5.3946 6.3070 2.6861
5.3717 6.3951 2.6861
5.3477 6.4834 2.6861
5.3226 6.5716 2.6861
5.2963 6.6600 2.6861
5.2689 6.7485 2.6861
5.2403 6.8369 2.6861
5.2105 6.9254 2.6861
5.1796 7.0138 2.6861
5.1474 7.1022 2.6861
5.1141 7.1905 2.6861
5.0795 7.2787 2.6861
5.0437 7.3667 2.6861
5.0067 7.4546 2.6861
4.9684 7.5423 2.6861
4.9288 7.6297 2.6861
4.8880 7.7169 2.6861
4.8459 7.8039 2.6861
4.8039 7.8924 2.6869
4.7893 8.0292 2.7038
4.7852 8.1877 2.7278
4.7809 8.3508 2.7530
4.7764 8.5185 2.7793
4.7717 8.6912 2.8068
4.7668 8.8692 2.8357
4.7163 8.9663 2.8385
4.6595 9.0539 2.8385
4.6014 9.1407 2.8385
4.5419 9.2269 2.8385
4.4810 9.3123 2.8385
4.4188 9.3969 2.8385
4.3551 9.4807 2.8385
4.2902 9.5636 2.8385
4.2238 9.6456 2.8385
4.1561 9.7267 2.8385
4.0871 9.8068 2.8385
4.0167 9.8858 2.8385
3.9450 9.9638 2.8385
3.8720 10.0406 2.8385
3.7976 10.1164 2.8385
3.7220 10.1909 2.8385
3.6451 10.2641 2.8385
3.5669 10.3361 2.8385
3.4875 10.4068 2.8385
3.4068 10.4761 2.8385
3.3250 10.5440 2.8385
3.2419 10.6104 2.8385
3.1576 10.6754 2.8385
3.0722 10.7389 2.8385
2.9857 10.8008 2.8385
2.8980 10.8611 2.8385
2.8093 10.9197 2.8385
2.7195 10.9767 2.8385
2.6287 11.0320 2.8385
2.5368 11.0855 2.8385
2.4440 11.1372 2.8385
2.3502 11.1872 2.8385
2.2556 11.2352 2.8385
2.1600 11.2815 2.8385
2.0636 11.3257 2.8385
1.9664 11.3681 2.8385
1.8683 11.4084 2.8385
1.7696 11.4468 2.8385
1.6701 11.4831 2.8385
1.5700 11.5175 2.8385
1.4692 11.5496 2.8385
1.3678 11.5798 2.8385
1.2658 11.6078 2.8385
1.1634 11.6336 2.8385
1.0604 11.6573 2.8385
0.9571 11.6789 2.8385
0.8533 11.6982 2.8385
0.7492 11.7153 2.8385
0.6447 11.7302 2.8385
0.5400 11.7429 2.8385
0.4351 11.7533 2.8385
0.3300 11.7615 2.8385
0.2247 11.7675 2.8385
0.1194 11.7712 2.8385
0.0140 11.7726 2.8385
-0.0914 11.7718 2.8385
-0.1968 11.7687 2.8385
-0.3020 11.7633 2.8385
-0.4072 11.7557 2.8385
-0.5122 11.7459 2.8385
-0.6169 11.7338 2.8385
-0.7215 11.7195 2.8385
-0.8257 11.7029 2.8385
-0.9295 11.6842 2.8385
-1.0330 11.6632 2.8385
-1.1361 11.6401 2.8385
-1.2387 11.6148 2.8385
-1.3408 11.5874 2.8385
-1.4423 11.5579 2.8385
-1.5433 11.5262 2.8385
-1.6436 11.4924 2.8385
-1.7432 11.4566 2.8385
-1.8422 11.4188 2.8385
-1.9404 11.3790 2.8385
-2.0378 11.3372 2.8385
-2.1345 11.2934 2.8385
-2.2303 11.2477 2.8385
-2.3252 11.2001 2.8385
-2.4192 11.1507 2.8385
-2.5123 11.0994 2.8385
-2.6044 11.0464 2.8385
-2.6955 10.9916 2.8385
-2.7855 10.9350 2.8385
-2.8746 10.8768 2.8385
-2.9625 10.8169 2.8385
-3.0493 10.7554 2.8385
-3.1351 10.6924 2.8385
-3.2196 10.6278 2.8385
-3.3030 10.5618 2.8385
-3.3852 10.4942 2.8385
-3.4662 10.4253 2.8385
-3.5460 10.3550 2.8385
-3.6245 10.2833 2.8385
-3.7017 10.2104 2.8385
-3.7777 10.1362 2.8385
-3.8524 10.0609 2.8385
-3.9257 9.9843 2.8385
-3.9978 9.9066 2.8385
-4.0685 9.8278 2.8385
-4.1379 9.7480 2.8385
-4.2060 9.6672 2.8385
-4.2727 9.5855 2.8385
-4.3380 9.5028 2.8385
-4.4020 9.4192 2.8385
-4.4646 9.3348 2.8385
-4.5259 9.2496 2.8385
-4.5857 9.1636 2.8385
-4.6442 9.0769 2.8385
-4.7013 8.9896 2.8385
-4.7571 8.9016 2.8385
-4.8114 8.8130 2.8385
-4.8644 8.7239 2.8385
-4.9160 8.6342 2.8385
-4.9663 8.5440 2.8385
-5.0152 8.4534 2.8385
-5.0627 8.3624 2.8385
-5.1088 8.2709 2.8385
-5.1537 8.1792 2.8385
-5.1971 8.0872 2.8385
-5.2393 7.9948 2.8385
-5.2801 7.9021 2.8385
-5.3196 7.8093 2.8385
-5.3578 7.7164 2.8385
-5.3946 7.6232 2.8385
-5.4302 7.5299 2.8385
-5.4646 7.4366 2.8385
-5.4976 7.3431 2.8385
-5.5294 7.2496 2.8385
-5.5599 7.1561 2.8385
-5.5892 7.0628 2.8385
-5.6173 6.9693 2.8385
-5.6442 6.8760 2.8385
-5.6699 6.7827 2.8385
-5.6819 6.6749 2.8323
-5.6839 6.5575 2.8218
-5.6859 6.4424 2.8118
-5.6877 6.3296 2.8025
-5.6894 6.2184 2.7937
-5.6910 6.1099 2.7854
-5.6926 6.0030 2.7777
-5.6940 5.8979 2.7705
-5.6954 5.7946 2.7638
-5.6967 5.6931 2.7576
-5.6978 5.5933 2.7519
-5.6990 5.4951 2.7466
-5.7000 5.3984 2.7418
-5.7009 5.3032 2.7374
-5.7018 5.2095 2.7335
-5.7026 5.1173 2.7300
-5.7033 5.0263 2.7269
-5.7040 4.9368 2.7242
-5.7046 4.8485 2.7219
-5.7051 4.7615 2.7200
-5.7056 4.6756 2.7184
-5.7060 4.5910 2.7173
-5.7063 4.5074 2.7165
-5.7066 4.4250 2.7160
-5.7068 4.3436 2.7159
-5.7069 4.2632 2.7162
-5.7070 4.1839 2.7167
-5.7070 4.1055 2.7176
-5.7070 4.0281 2.7189
-5.7069 3.9515 2.7204
-5.7068 3.8758 2.7223
