ply
format ascii 1.0
element vertex 2188
property float32 x
property float32 y
property float32 z
end_header
6.5073 1.1415 -1.5662
6.5083 1.5395 -1.7039
6.5074 1.2070 -1.5886
6.5085 1.6070 -1.7278
6.5094 1.9511 -1.8511
6.5076 1.2728 -1.6112
6.5087 1.6750 -1.7519
6.5078 1.3390 -1.6340
6.5096 2.0213 -1.8766
6.5080 1.4055 -1.6571
6.5089 1.7434 -1.7762
6.5098 2.0920 -1.9025
6.5081 1.4723 -1.6804
6.5090 1.8122 -1.8009
6.5100 2.1632 -1.9287
6.5092 1.8814 -1.8258
6.5131 2.3812 -2.0101
6.5102 2.2350 -1.9552
6.5132 2.4548 -2.0376
6.5135 2.8323 -2.1812
6.5104 2.3073 -1.9821
6.5133 2.5289 -2.0656
6.5136 2.9100 -2.2112
6.5139 3.3109 -2.3679
6.5133 2.6037 -2.0939
6.5136 2.9885 -2.2416
6.5139 3.3937 -2.4007
6.5134 2.6792 -2.1226
6.5140 3.4776 -2.4341
6.5137 3.0678 -2.2724
6.5141 3.5624 -2.4680
6.5134 2.7554 -2.1517
6.5138 3.1479 -2.3038
6.5142 3.6483 -2.5025
6.5143 3.8234 -2.5732
6.5138 3.2289 -2.3356
6.5142 3.7353 -2.5376
6.5144 3.9127 -2.6095
6.5153 4.9849 -3.0563
6.5148 4.3780 -2.8011
6.5144 4.0031 -2.6465
6.5154 5.0920 -3.1019
6.5148 4.4752 -2.8415
6.5145 4.0948 -2.6841
6.5155 5.2009 -3.1485
6.5149 4.5739 -2.8828
6.5146 4.1879 -2.7223
6.5156 5.3119 -3.1961
6.5150 4.6741 -2.9249
6.5147 4.2822 -2.7613
6.5119 5.4217 -3.2429
6.5151 4.7760 -2.9678
6.5122 5.5368 -3.2927
6.5124 5.6542 -3.3436
6.5152 4.8796 -3.0116
6.5142 6.4099 -3.6753
6.5127 5.7738 -3.3957
6.5163 7.2720 -4.0610
6.5146 6.5455 -3.7355
6.5130 5.8959 -3.4490
6.5149 6.6841 -3.7972
6.5167 7.4281 -4.1316
6.5133 6.0204 -3.5035
6.5136 6.1475 -3.5594
6.5152 6.8259 -3.8606
6.5139 6.2773 -3.6167
6.5171 7.5883 -4.2042
6.5156 6.9710 -3.9256
6.5187 8.2729 -4.5167
6.5160 7.1197 -3.9924
6.5175 7.7526 -4.2789
6.5275 8.4670 -4.6068
6.5293 9.4702 -5.0712
6.5278 8.6557 -4.6937
6.5179 7.9214 -4.3558
6.5297 9.6904 -5.1739
6.5282 8.8501 -4.7835
6.5301 9.9179 -5.2802
6.5183 8.0947 -4.4350
6.5285 9.0504 -4.8762
6.5305 10.1532 -5.3905
6.5289 9.2570 -4.9720
6.5318 10.9108 -5.7470
6.5309 10.3968 -5.5048
6.5323 11.1824 -5.8753
6.5314 10.6492 -5.6236
6.5283 11.4566 -6.0047
6.5288 11.7496 -6.1437
6.9332 12.8002 -6.6777
17.4269 33.0189 -17.1871
6.5073 1.2316 -1.2608
6.5074 1.2974 -1.2824
6.5076 1.3635 -1.3042
6.5078 1.4298 -1.3262
6.5080 1.4966 -1.3484
6.5081 1.5637 -1.3708
6.5083 1.6311 -1.3934
6.5085 1.6990 -1.4163
6.5087 1.7672 -1.4394
6.5089 1.8359 -1.4627
6.5090 1.9050 -1.4863
6.5092 1.9746 -1.5101
6.5094 2.0446 -1.5342
6.5096 2.1152 -1.5585
6.5098 2.1862 -1.5832
6.5100 2.2578 -1.6081
6.5102 2.3300 -1.6333
6.5126 2.4036 -1.6593
6.5126 2.4769 -1.6851
6.5127 2.5509 -1.7112
6.5127 2.6254 -1.7376
6.5128 2.7007 -1.7644
6.5128 2.7766 -1.7915
6.5129 2.8533 -1.8189
6.5129 2.9308 -1.8468
6.5130 3.0089 -1.8750
6.5131 3.0879 -1.9036
6.5131 3.1678 -1.9326
6.5132 3.2485 -1.9620
6.5132 3.3301 -1.9919
6.5133 3.4126 -2.0222
6.5134 3.4960 -2.0529
6.5134 3.5805 -2.0841
6.5135 3.6660 -2.1158
6.5136 3.7525 -2.1480
6.5136 3.8402 -2.1808
6.5137 3.9290 -2.2140
6.5138 4.0190 -2.2478
6.5138 4.1102 -2.2822
6.5139 4.2027 -2.3172
6.5140 4.2965 -2.3528
6.5141 4.4882 -2.4259
6.5141 4.3916 -2.3890
6.5142 4.5863 -2.4634
6.5143 4.6859 -2.5017
6.5146 5.1006 -2.6622
6.5144 4.7870 -2.5406
6.5147 5.2087 -2.7043
6.5145 4.8898 -2.5804
6.5148 5.3187 -2.7473
6.5145 4.9943 -2.6209
6.5126 5.7772 -2.9275
6.5118 5.4282 -2.7899
6.5129 5.8981 -2.9754
6.5121 5.5423 -2.8348
6.5132 6.0214 -3.0244
6.5135 6.1472 -3.0746
6.5123 5.6586 -2.8806
6.5138 6.2756 -3.1259
6.5144 6.5409 -3.2323
6.5141 6.4068 -3.1784
6.5148 6.6779 -3.2874
6.5165 7.4127 -3.5853
6.5169 7.5706 -3.6498
6.5151 6.8181 -3.3440
6.5173 7.7326 -3.7161
6.5154 6.9615 -3.4020
6.5177 7.8989 -3.7843
6.5158 7.1083 -3.4615
6.5181 8.0696 -3.8545
6.5162 7.2586 -3.5226
6.5185 8.2450 -3.9268
6.5285 9.6360 -4.5051
6.5265 8.4350 -4.0058
6.5289 9.8589 -4.5984
6.5268 8.6206 -4.0826
6.5293 10.0893 -4.6950
6.5297 10.3275 -4.7951
6.5271 8.8116 -4.1617
6.5301 10.5742 -4.8989
6.5306 10.8298 -5.0066
6.5274 9.0084 -4.2434
6.5310 11.0947 -5.1185
6.5278 9.2111 -4.3278
6.5275 11.3629 -5.2316
6.5280 11.6484 -5.3525
6.5281 9.4202 -4.4150
6.5285 11.9452 -5.4785
6.5301 12.9117 -5.8899
6.5290 12.2541 -5.6098
6.5295 12.5760 -5.7468
6.5306 13.2623 -6.0396
6.5312 13.6287 -6.1963
17.6502 37.8633 -17.1871
17.3390 38.2589 -17.3399
6.5073 1.3207 -0.9589
6.5074 1.3867 -0.9798
6.5076 1.4530 -1.0008
6.5078 1.5196 -1.0220
6.5080 1.5866 -1.0434
6.5081 1.6539 -1.0649
6.5083 1.7217 -1.0866
6.5085 1.7898 -1.1085
6.5087 1.8583 -1.1306
6.5089 1.9273 -1.1529
6.5090 1.9967 -1.1754
6.5092 2.0666 -1.1982
6.5094 2.1370 -1.2211
6.5096 2.2079 -1.2443
6.5098 2.2794 -1.2677
6.5100 2.3513 -1.2913
6.5120 2.4246 -1.3155
6.5120 2.4977 -1.3397
6.5121 2.5714 -1.3640
6.5121 2.6458 -1.3887
6.5122 2.7208 -1.4136
6.5122 2.7965 -1.4389
6.5123 2.8729 -1.4644
6.5123 2.9501 -1.4902
6.5124 3.0280 -1.5164
6.5124 3.1067 -1.5429
6.5125 3.1862 -1.5697
6.5126 3.2666 -1.5968
6.5126 3.3478 -1.6244
6.5127 3.4299 -1.6523
6.5127 3.5130 -1.6806
6.5128 3.5971 -1.7093
6.5129 3.6822 -1.7384
6.5129 3.7683 -1.7679
6.5130 3.8555 -1.7979
6.5130 3.9438 -1.8283
6.5131 4.0333 -1.8592
6.5132 4.1240 -1.8905
6.5132 4.2160 -1.9224
6.5133 4.3092 -1.9548
6.5134 4.4038 -1.9877
6.5134 4.4997 -2.0212
6.5135 4.5971 -2.0552
6.5136 4.6960 -2.0899
6.5137 4.7965 -2.1252
6.5137 4.8985 -2.1611
6.5138 5.0022 -2.1976
6.5139 5.1077 -2.2349
6.5140 5.2149 -2.2728
6.5141 5.3240 -2.3115
6.5117 5.4331 -2.3501
6.5120 5.5462 -2.3904
6.5122 5.6615 -2.4315
6.5125 5.7790 -2.4735
6.5128 5.8987 -2.5163
6.5131 6.0208 -2.5602
6.5134 6.1454 -2.6049
6.5137 6.2725 -2.6507
6.5140 6.4023 -2.6975
6.5143 6.5349 -2.7454
6.5146 6.6703 -2.7944
6.5150 6.8088 -2.8446
6.5153 6.9505 -2.8961
6.5156 7.0955 -2.9488
6.5160 7.2439 -3.0029
6.5164 7.3959 -3.0584
6.5167 7.5517 -3.1153
6.5171 7.7114 -3.1738
6.5175 7.8752 -3.2339
6.5179 8.0434 -3.2956
6.5183 8.2161 -3.3591
6.5255 8.4022 -3.4281
6.5258 8.5847 -3.4954
6.5261 8.7724 -3.5647
6.5264 8.9656 -3.6362
6.5267 9.1647 -3.7100
6.5271 9.3698 -3.7861
6.5274 9.5814 -3.8647
6.5278 9.7998 -3.9459
6.5281 10.0254 -4.0299
6.5285 10.2586 -4.1168
6.5289 10.4997 -4.2069
6.5293 10.7494 -4.3003
6.5297 11.0081 -4.3971
6.5302 11.2764 -4.4976
6.5272 11.5488 -4.5997
6.5277 11.8379 -4.7082
6.5281 12.1385 -4.8213
6.5286 12.4514 -4.9391
6.5292 12.7774 -5.0619
6.5297 13.1174 -5.1902
6.5303 13.4725 -5.3243
6.5309 13.8437 -5.4647
6.5315 14.2323 -5.6117
6.5283 14.6309 -5.7626
6.5291 15.0583 -5.9247
6.5300 15.5075 -6.0952
6.9632 17.0385 -6.6902
-6.8126 25.1950 -9.8013
-7.2942 25.8785 -10.0736
-7.3149 24.9318 -9.7116
-7.7783 25.5028 -9.9410
6.5073 1.4091 -0.6594
6.5074 1.4753 -0.6795
6.5076 1.5418 -0.6998
6.5078 1.6087 -0.7202
6.5080 1.6759 -0.7407
6.5081 1.7435 -0.7614
6.5083 1.8115 -0.7822
6.5085 1.8799 -0.8031
6.5087 1.9488 -0.8242
6.5089 2.0180 -0.8455
6.5091 2.0878 -0.8670
6.5092 2.1580 -0.8886
6.5094 2.2288 -0.9104
6.5096 2.3000 -0.9324
6.5098 2.3718 -0.9545
6.5114 2.4447 -0.9771
6.5114 2.5176 -0.9997
6.5115 2.5911 -1.0225
6.5115 2.6652 -1.0455
6.5116 2.7400 -1.0687
6.5116 2.8154 -1.0922
6.5117 2.8916 -1.1159
6.5117 2.9684 -1.1398
6.5118 3.0460 -1.1640
6.5118 3.1244 -1.1885
6.5119 3.2036 -1.2133
6.5120 3.2837 -1.2384
6.5120 3.3646 -1.2637
6.5121 3.4464 -1.2894
6.5121 3.5291 -1.3153
6.5122 3.6127 -1.3416
6.5122 3.6974 -1.3683
6.5123 3.7831 -1.3953
6.5123 3.8698 -1.4227
6.5124 3.9577 -1.4504
6.5125 4.0467 -1.4785
6.5125 4.1368 -1.5070
6.5126 4.2282 -1.5360
6.5126 4.3209 -1.5654
6.5127 4.4149 -1.5952
6.5128 4.5102 -1.6255
6.5128 4.6070 -1.6562
6.5129 4.7052 -1.6875
6.5130 4.8049 -1.7193
6.5130 4.9062 -1.7516
6.5131 5.0092 -1.7844
6.5132 5.1138 -1.8178
6.5133 5.2202 -1.8518
6.5113 5.3267 -1.8859
6.5116 5.4370 -1.9212
6.5119 5.5492 -1.9572
6.5121 5.6634 -1.9939
6.5124 5.7798 -2.0313
6.5127 5.8984 -2.0694
6.5130 6.0193 -2.1083
6.5133 6.1426 -2.1480
6.5136 6.2684 -2.1886
6.5139 6.3969 -2.2300
6.5142 6.5280 -2.2723
6.5145 6.6619 -2.3156
6.5148 6.7988 -2.3599
6.5151 6.9388 -2.4052
6.5155 7.0819 -2.4516
6.5158 7.2284 -2.4991
6.5162 7.3784 -2.5477
6.5166 7.5321 -2.5976
6.5169 7.6896 -2.6488
6.5173 7.8511 -2.7013
6.5177 8.0168 -2.7552
6.5181 8.1868 -2.8106
6.5185 8.3615 -2.8676
6.5248 8.5486 -2.9287
6.5251 8.7332 -2.9889
6.5254 8.9230 -3.0509
6.5257 9.1185 -3.1148
6.5260 9.3198 -3.1806
6.5264 9.5273 -3.2485
6.5267 9.7414 -3.3186
6.5270 9.9624 -3.3910
6.5274 10.1906 -3.4658
6.5278 10.4265 -3.5432
6.5281 10.6706 -3.6233
6.5285 10.9233 -3.7063
6.5289 11.1851 -3.7923
6.5264 11.4516 -3.8799
6.5269 11.7333 -3.9726
6.5273 12.0260 -4.0689
6.5278 12.3303 -4.1691
6.5283 12.6471 -4.2735
6.5288 12.9772 -4.3824
6.5294 13.3216 -4.4959
6.5299 13.6812 -4.6146
6.5305 14.0571 -4.7387
6.5278 14.4432 -4.8662
6.5285 14.8557 -5.0026
6.5293 15.2888 -5.1457
6.5302 15.7439 -5.2963
6.5311 16.2230 -5.4548
6.5320 16.7280 -5.6220
6.5330 17.2614 -5.7987
6.5365 17.8325 -5.9879
6.5383 18.4326 -6.1868
-5.9662 25.6104 -8.5652
-6.4099 26.2605 -8.7850
-6.5664 25.7232 -8.6077
-6.8968 25.8786 -8.6623
-7.2332 26.0371 -8.7181
-7.3919 25.5636 -8.5623
-7.7034 25.6286 -8.5869
-7.9770 25.5621 -8.5677
6.5073 1.4972 -0.3608
6.5075 1.5636 -0.3802
6.5076 1.6304 -0.3997
6.5078 1.6975 -0.4193
6.5080 1.7650 -0.4390
6.5082 1.8329 -0.4588
6.5083 1.9011 -0.4787
6.5085 1.9698 -0.4987
6.5087 2.0389 -0.5188
6.5089 2.1085 -0.5391
6.5091 2.1786 -0.5595
6.5092 2.2491 -0.5800
6.5094 2.3202 -0.6007
6.5108 2.3922 -0.6216
6.5108 2.4643 -0.6425
6.5109 2.5370 -0.6636
6.5109 2.6103 -0.6849
6.5110 2.6841 -0.7064
6.5110 2.7587 -0.7280
6.5111 2.8339 -0.7498
6.5111 2.9097 -0.7718
6.5112 2.9863 -0.7940
6.5112 3.0636 -0.8164
6.5113 3.1417 -0.8390
6.5113 3.2206 -0.8618
6.5114 3.3003 -0.8849
6.5114 3.3808 -0.9082
6.5115 3.4622 -0.9317
6.5115 3.5446 -0.9555
6.5116 3.6278 -0.9796
6.5116 3.7121 -1.0039
6.5117 3.7973 -1.0285
6.5117 3.8836 -1.0534
6.5118 3.9710 -1.0786
6.5118 4.0595 -1.1041
6.5119 4.1491 -1.1300
6.5119 4.2400 -1.1561
6.5120 4.3321 -1.1827
6.5121 4.4255 -1.2095
6.5121 4.5202 -1.2368
6.5122 4.6163 -1.2645
6.5122 4.7138 -1.2925
6.5123 4.8129 -1.3210
6.5124 4.9134 -1.3499
6.5124 5.0156 -1.3792
6.5125 5.1194 -1.4091
6.5125 5.2249 -1.4394
6.5112 5.3311 -1.4698
6.5115 5.4404 -1.5012
6.5118 5.5517 -1.5331
6.5120 5.6649 -1.5656
6.5123 5.7802 -1.5986
6.5126 5.8977 -1.6323
6.5129 6.0175 -1.6666
6.5131 6.1396 -1.7016
6.5134 6.2641 -1.7372
6.5137 6.3911 -1.7736
6.5140 6.5208 -1.8107
6.5144 6.6532 -1.8485
6.5147 6.7886 -1.8872
6.5150 6.9269 -1.9268
6.5153 7.0683 -1.9672
6.5157 7.2129 -2.0085
6.5160 7.3610 -2.0508
6.5164 7.5126 -2.0940
6.5167 7.6679 -2.1384
6.5171 7.8271 -2.1838
6.5175 7.9904 -2.2304
6.5179 8.1579 -2.2781
6.5183 8.3298 -2.3272
6.5239 8.5131 -2.3794
6.5242 8.6946 -2.4311
6.5244 8.8811 -2.4842
6.5247 9.0731 -2.5389
6.5250 9.2708 -2.5952
6.5253 9.4744 -2.6532
6.5256 9.6843 -2.7129
6.5260 9.9008 -2.7745
6.5263 10.1243 -2.8381
6.5266 10.3552 -2.9037
6.5270 10.5939 -2.9716
6.5274 10.8408 -3.0418
6.5277 11.0965 -3.1145
6.5257 11.3573 -3.1886
6.5261 11.6320 -3.2666
6.5266 11.9172 -3.3476
6.5270 12.2134 -3.4317
6.5275 12.5215 -3.5192
6.5280 12.8422 -3.6102
6.5285 13.1764 -3.7050
6.5290 13.5251 -3.8039
6.5296 13.8892 -3.9072
6.5302 14.2698 -4.0152
6.5280 14.6620 -4.1265
6.5287 15.0799 -4.2449
6.5295 15.5185 -4.3693
6.5304 15.9795 -4.4999
6.5313 16.4648 -4.6375
6.5322 16.9765 -4.7825
6.5351 17.5220 -4.9370
6.5368 18.0956 -5.0994
6.5386 18.7036 -5.2716
6.5405 19.3494 -5.4545
6.5426 20.0367 -5.6491
6.5248 20.7066 -5.8388
6.5255 21.4829 -6.0586
-5.7787 26.4134 -7.4556
-5.8802 25.6001 -7.2254
-6.0272 25.0444 -7.0678
-6.5097 25.8656 -7.2987
-6.8042 25.8967 -7.3067
-7.0815 25.8575 -7.2947
-7.3286 25.7096 -7.2521
-7.4927 25.2876 -7.1322
-7.5791 24.6390 -6.9483
-7.9213 24.8329 -7.0020
-8.6298 26.1168 -7.3629
-7.0634 16.6242 -4.6803
6.5073 1.5855 -0.0619
6.5075 1.6521 -0.0806
6.5076 1.7191 -0.0993
6.5078 1.7864 -0.1181
6.5080 1.8541 -0.1369
6.5082 1.9223 -0.1559
6.5083 1.9908 -0.1749
6.5085 2.0598 -0.1939
6.5087 2.1292 -0.2131
6.5089 2.1990 -0.2323
6.5091 2.2694 -0.2516
6.5092 2.3403 -0.2711
6.5102 2.4120 -0.2906
6.5103 2.4839 -0.3103
6.5103 2.5563 -0.3300
6.5104 2.6294 -0.3499
6.5104 2.7030 -0.3699
6.5104 2.7773 -0.3900
6.5105 2.8522 -0.4102
6.5105 2.9278 -0.4306
6.5106 3.0041 -0.4511
6.5106 3.0811 -0.4718
6.5107 3.1589 -0.4926
6.5107 3.2375 -0.5136
6.5108 3.3168 -0.5348
6.5108 3.3970 -0.5561
6.5109 3.4781 -0.5777
6.5109 3.5600 -0.5994
6.5109 3.6429 -0.6213
6.5110 3.7267 -0.6435
6.5110 3.8115 -0.6658
6.5111 3.8974 -0.6884
6.5111 3.9842 -0.7112
6.5112 4.0722 -0.7342
6.5112 4.1614 -0.7575
6.5113 4.2517 -0.7811
6.5114 4.3432 -0.8049
6.5114 4.4360 -0.8290
6.5115 4.5302 -0.8534
6.5115 4.6256 -0.8781
6.5116 4.7225 -0.9031
6.5116 4.8208 -0.9285
6.5117 4.9206 -0.9542
6.5117 5.0220 -0.9802
6.5118 5.1251 -1.0066
6.5119 5.2298 -1.0334
6.5111 5.3356 -1.0604
6.5114 5.4440 -1.0880
6.5117 5.5543 -1.1161
6.5119 5.6665 -1.1446
6.5122 5.7808 -1.1735
6.5125 5.8972 -1.2030
6.5127 6.0158 -1.2329
6.5130 6.1367 -1.2633
6.5133 6.2599 -1.2943
6.5136 6.3856 -1.3259
6.5139 6.5140 -1.3581
6.5142 6.6449 -1.3908
6.5145 6.7787 -1.4243
6.5149 6.9153 -1.4583
6.5152 7.0551 -1.4931
6.5155 7.1979 -1.5286
6.5159 7.3441 -1.5649
6.5162 7.4937 -1.6019
6.5166 7.6469 -1.6398
6.5169 7.8039 -1.6786
6.5173 7.9648 -1.7183
6.5177 8.1298 -1.7589
6.5181 8.2991 -1.8005
6.5230 8.4787 -1.8444
6.5232 8.6572 -1.8881
6.5235 8.8406 -1.9330
6.5238 9.0292 -1.9791
6.5240 9.2234 -2.0265
6.5243 9.4232 -2.0751
6.5246 9.6291 -2.1252
6.5249 9.8414 -2.1768
6.5252 10.0604 -2.2299
6.5256 10.2864 -2.2847
6.5259 10.5200 -2.3412
6.5262 10.7614 -2.3995
6.5266 11.0112 -2.4598
6.5269 11.2699 -2.5221
6.5254 11.5347 -2.5859
6.5258 11.8126 -2.6527
6.5263 12.1012 -2.7220
6.5267 12.4010 -2.7939
6.5272 12.7128 -2.8685
6.5276 13.0375 -2.9462
6.5281 13.3758 -3.0270
6.5287 13.7287 -3.1113
6.5292 14.0973 -3.1992
6.5274 14.4774 -3.2898
6.5282 14.8811 -3.3859
6.5289 15.3042 -3.4864
6.5297 15.7484 -3.5919
6.5306 16.2154 -3.7027
6.5315 16.7069 -3.8192
6.5324 17.2252 -3.9419
6.5354 17.7780 -4.0726
6.5371 18.3590 -4.2099
6.5389 18.9750 -4.3554
6.5408 19.6293 -4.5098
6.5429 20.3256 -4.6739
6.5265 21.0088 -4.8352
6.5273 21.7958 -5.0205
6.5282 22.6389 -5.2189
6.5328 23.5582 -5.4349
6.5358 24.5422 -5.6661
6.5390 25.6065 -5.9159
6.5464 26.7770 -6.1905
-7.3999 42.7391 -9.9170
-5.6951 26.3961 -6.1123
-5.9838 26.4167 -6.1135
-6.2281 26.2435 -6.0697
-6.4273 25.8984 -5.9860
-6.7111 25.9035 -5.9831
-6.9867 25.8727 -5.9717
-7.1268 25.3572 -5.8484
-7.5592 25.8758 -5.9634
-7.8001 25.7200 -5.9227
-7.8980 25.1149 -5.7785
-8.1549 25.0348 -5.7551
6.5073 1.6742 0.2386
6.5075 1.7410 0.2207
6.5076 1.8082 0.2027
6.5078 1.8758 0.1848
6.5080 1.9438 0.1667
6.5082 2.0122 0.1487
6.5083 2.0810 0.1306
6.5085 2.1502 0.1125
6.5087 2.2199 0.0943
6.5089 2.2901 0.0761
6.5091 2.3608 0.0578
6.5097 2.4321 0.0395
6.5097 2.5038 0.0211
6.5097 2.5760 0.0027
6.5098 2.6488 -0.0158
6.5098 2.7223 -0.0344
6.5099 2.7963 -0.0531
6.5099 2.8709 -0.0719
6.5099 2.9463 -0.0908
6.5100 3.0223 -0.1097
6.5100 3.0990 -0.1288
6.5101 3.1765 -0.1479
6.5101 3.2547 -0.1672
6.5102 3.3337 -0.1866
6.5102 3.4135 -0.2061
6.5103 3.4942 -0.2257
6.5103 3.5758 -0.2454
6.5103 3.6583 -0.2653
6.5104 3.7417 -0.2854
6.5104 3.8261 -0.3056
6.5105 3.9115 -0.3259
6.5105 3.9979 -0.3465
6.5106 4.0854 -0.3672
6.5106 4.1740 -0.3880
6.5107 4.2638 -0.4091
6.5107 4.3548 -0.4304
6.5108 4.4470 -0.4518
6.5108 4.5405 -0.4735
6.5109 4.6354 -0.4954
6.5109 4.7316 -0.5175
6.5110 4.8292 -0.5399
6.5110 4.9283 -0.5625
6.5111 5.0290 -0.5854
6.5111 5.1312 -0.6086
6.5112 5.2351 -0.6320
6.5111 5.3405 -0.6557
6.5113 5.4481 -0.6798
6.5116 5.5574 -0.7041
6.5118 5.6687 -0.7288
6.5121 5.7820 -0.7539
6.5124 5.8973 -0.7793
6.5126 6.0148 -0.8051
6.5129 6.1345 -0.8313
6.5132 6.2565 -0.8579
6.5135 6.3810 -0.8849
6.5138 6.5079 -0.9124
6.5141 6.6374 -0.9403
6.5144 6.7697 -0.9687
6.5147 6.9048 -0.9976
6.5150 7.0428 -1.0271
6.5154 7.1840 -1.0571
6.5157 7.3283 -1.0877
6.5161 7.4760 -1.1188
6.5164 7.6271 -1.1506
6.5168 7.7820 -1.1831
6.5171 7.9406 -1.2163
6.5175 8.1032 -1.2501
6.5179 8.2700 -1.2848
6.5221 8.4460 -1.3210
6.5223 8.6216 -1.3572
6.5226 8.8020 -1.3943
6.5228 8.9874 -1.4323
6.5231 9.1781 -1.4713
6.5234 9.3744 -1.5113
6.5236 9.5764 -1.5524
6.5239 9.7846 -1.5945
6.5242 9.9993 -1.6379
6.5245 10.2207 -1.6825
6.5248 10.4494 -1.7284
6.5251 10.6856 -1.7757
6.5255 10.9298 -1.8244
6.5258 11.1825 -1.8747
6.5247 11.4417 -1.9263
6.5251 11.7129 -1.9799
6.5255 11.9942 -2.0355
6.5259 12.2862 -2.0930
6.5264 12.5896 -2.1526
6.5268 12.9052 -2.2145
6.5273 13.2338 -2.2787
6.5278 13.5762 -2.3454
6.5283 13.9335 -2.4149
6.5289 14.3066 -2.4874
6.5276 14.6926 -2.5622
6.5284 15.1014 -2.6412
6.5291 15.5299 -2.7238
6.5300 15.9797 -2.8103
6.5308 16.4525 -2.9010
6.5317 16.9504 -2.9964
6.5341 17.4792 -3.0974
6.5357 18.0354 -3.2035
6.5374 18.6239 -3.3155
6.5392 19.2479 -3.4341
6.5412 19.9106 -3.5598
6.5275 20.5666 -3.6845
6.5283 21.3129 -3.8256
6.5292 22.1105 -3.9762
6.5301 22.9652 -4.1373
6.5351 23.8984 -4.3128
6.5382 24.8962 -4.5002
6.5416 25.9753 -4.7026
6.5478 27.1568 -4.9239
6.5518 28.4330 -5.1626
6.5448 29.7770 -5.4139
6.5483 31.3014 -5.6984
6.5539 32.9912 -6.0134
-5.9774 42.8065 -7.8467
-6.4600 43.0690 -7.8881
-6.9356 43.2469 -7.9135
-7.2782 42.6156 -7.7903
-7.7427 42.7220 -7.8016
-8.2466 43.0144 -7.8463
-5.2236 25.8287 -4.7059
-5.5281 25.9779 -4.7272
-5.4794 24.5269 -4.4574
-5.9670 25.4942 -4.6268
-6.3571 25.9735 -4.7069
-6.6116 25.8772 -4.6824
-6.9660 26.1587 -4.7258
-7.0983 25.6117 -4.6193
-7.4227 25.7675 -4.6393
-7.7055 25.7679 -4.6310
-7.9567 25.6613 -4.6032
-8.0839 25.1706 -4.5063
-8.5098 25.6064 -4.5749
-7.0553 16.6221 -2.9126
6.5073 1.7637 0.5421
6.5075 1.8308 0.5249
6.5076 1.8982 0.5077
6.5078 1.9661 0.4906
6.5080 2.0343 0.4734
6.5082 2.1029 0.4563
6.5083 2.1720 0.4391
6.5085 2.2415 0.4219
6.5087 2.3115 0.4048
6.5091 2.3821 0.3876
6.5091 2.4530 0.3704
6.5091 2.5245 0.3532
6.5092 2.5965 0.3359
6.5092 2.6691 0.3187
6.5093 2.7423 0.3014
6.5093 2.8160 0.2840
6.5093 2.8904 0.2667
6.5094 2.9655 0.2492
6.5094 3.0412 0.2318
6.5095 3.1176 0.2143
6.5095 3.1948 0.1967
6.5095 3.2727 0.1791
6.5096 3.3514 0.1614
6.5096 3.4309 0.1437
6.5097 3.5112 0.1259
6.5097 3.5924 0.1080
6.5097 3.6745 0.0900
6.5098 3.7575 0.0719
6.5098 3.8415 0.0538
6.5099 3.9264 0.0355
6.5099 4.0124 0.0172
6.5099 4.0994 -0.0013
6.5100 4.1876 -0.0198
6.5100 4.2768 -0.0385
6.5101 4.3673 -0.0573
6.5101 4.4589 -0.0763
6.5102 4.5518 -0.0953
6.5102 4.6460 -0.1146
6.5103 4.7416 -0.1339
6.5103 4.8386 -0.1535
6.5104 4.9370 -0.1732
6.5104 5.0369 -0.1930
6.5104 5.1384 -0.2131
6.5105 5.2415 -0.2333
6.5105 5.3462 -0.2538
6.5112 5.4532 -0.2744
6.5115 5.5617 -0.2953
6.5117 5.6720 -0.3164
6.5120 5.7843 -0.3378
6.5123 5.8986 -0.3593
6.5125 6.0150 -0.3812
6.5128 6.1335 -0.4033
6.5131 6.2544 -0.4257
6.5134 6.3776 -0.4484
6.5137 6.5032 -0.4714
6.5140 6.6313 -0.4947
6.5143 6.7622 -0.5184
6.5146 6.8957 -0.5424
6.5149 7.0322 -0.5668
6.5152 7.1716 -0.5916
6.5156 7.3141 -0.6167
6.5159 7.4600 -0.6423
6.5163 7.6092 -0.6684
6.5166 7.7619 -0.6949
6.5170 7.9183 -0.7219
6.5173 8.0786 -0.7494
6.5177 8.2430 -0.7774
6.5212 8.4155 -0.8064
6.5215 8.5884 -0.8355
6.5217 8.7659 -0.8653
6.5219 8.9482 -0.8957
6.5222 9.1357 -0.9268
6.5224 9.3284 -0.9586
6.5227 9.5268 -0.9912
6.5229 9.7311 -1.0245
6.5232 9.9416 -1.0587
6.5235 10.1587 -1.0938
6.5238 10.3826 -1.1298
6.5241 10.6139 -1.1667
6.5244 10.8528 -1.2047
6.5247 11.0998 -1.2438
6.5240 11.3538 -1.2839
6.5244 11.6186 -1.3253
6.5248 11.8929 -1.3681
6.5252 12.1775 -1.4123
6.5256 12.4730 -1.4579
6.5261 12.7801 -1.5051
6.5265 13.0995 -1.5540
6.5270 13.4320 -1.6046
6.5275 13.7786 -1.6572
6.5280 14.1402 -1.7118
6.5271 14.5147 -1.7682
6.5278 14.9100 -1.8274
6.5286 15.3238 -1.8891
6.5293 15.7577 -1.9535
6.5302 16.2132 -2.0209
6.5310 16.6921 -2.0914
6.5319 17.1962 -2.1654
6.5344 17.7320 -2.2437
6.5360 18.2953 -2.3257
6.5377 18.8914 -2.4122
6.5395 19.5234 -2.5036
6.5415 20.1948 -2.6004
6.5293 20.8638 -2.6972
6.5301 21.6201 -2.8056
6.5310 22.4285 -2.9210
6.5320 23.2948 -3.0445
6.5375 24.2423 -3.1788
6.5407 25.2539 -3.3220
6.5442 26.3480 -3.4764
6.5491 27.5406 -3.6443
6.5532 28.8342 -3.8260
6.5472 30.2005 -4.0177
6.5508 31.7462 -4.2338
6.5562 33.4582 -4.4726
6.5621 35.3577 -4.7370
6.5544 37.3968 -5.0207
6.5772 39.8674 -5.3629
6.5666 42.4421 -5.7197
6.5777 45.5235 -6.1455
-5.0404 42.9293 -5.8183
-5.5454 43.4689 -5.8832
-5.9560 43.2364 -5.8429
-6.2454 42.2085 -5.6947
-6.7915 42.9290 -5.7818
-7.2159 42.8313 -5.7578
-7.6556 42.8228 -5.7451
-7.9092 41.8233 -5.5991
-5.2035 26.0847 -3.4842
-5.4891 26.1515 -3.4848
-5.7984 26.3143 -3.4977
-5.7109 24.7389 -3.2795
-6.1462 25.4616 -3.3659
-6.5336 25.9291 -3.4177
-6.8245 25.9861 -3.4146
-7.0275 25.7121 -3.3678
-7.3075 25.7248 -3.3581
-7.7580 26.3098 -3.4224
-7.9475 25.9944 -3.3689
-8.1599 25.7678 -3.3267
-8.3331 25.4316 -3.2702
-8.5451 25.2270 -3.2304
6.5073 1.8546 0.8499
6.5075 1.9219 0.8335
6.5076 1.9896 0.8171
6.5078 2.0576 0.8008
6.5080 2.1261 0.7845
6.5082 2.1950 0.7682
6.5084 2.2644 0.7520
6.5085 2.3342 0.7358
6.5085 2.4044 0.7196
6.5085 2.4752 0.7035
6.5086 2.5464 0.6874
6.5086 2.6182 0.6713
6.5086 2.6905 0.6552
6.5087 2.7635 0.6391
6.5087 2.8370 0.6231
6.5088 2.9111 0.6070
6.5088 2.9859 0.5910
6.5088 3.0614 0.5749
6.5089 3.1375 0.5589
6.5089 3.2144 0.5428
6.5089 3.2920 0.5268
6.5090 3.3703 0.5107
6.5090 3.4495 0.4947
6.5091 3.5294 0.4786
6.5091 3.6103 0.4625
6.5091 3.6920 0.4463
6.5092 3.7746 0.4302
6.5092 3.8581 0.4140
6.5092 3.9426 0.3978
6.5093 4.0282 0.3815
6.5093 4.1147 0.3652
6.5094 4.2024 0.3488
6.5094 4.2911 0.3324
6.5094 4.3811 0.3159
6.5095 4.4722 0.2994
6.5095 4.5645 0.2828
6.5096 4.6581 0.2662
6.5096 4.7530 0.2494
6.5096 4.8494 0.2326
6.5097 4.9471 0.2157
6.5097 5.0463 0.1987
6.5098 5.1470 0.1817
6.5098 5.2493 0.1645
6.5099 5.3532 0.1472
6.5111 5.4599 0.1298
6.5114 5.5675 0.1123
6.5116 5.6769 0.0946
6.5119 5.7882 0.0769
6.5122 5.9015 0.0589
6.5124 6.0169 0.0409
6.5127 6.1343 0.0226
6.5130 6.2540 0.0043
6.5133 6.3760 -0.0143
6.5136 6.5003 -0.0330
6.5139 6.6272 -0.0520
6.5142 6.7566 -0.0711
6.5145 6.8887 -0.0904
6.5148 7.0236 -0.1100
6.5151 7.1614 -0.1298
6.5154 7.3022 -0.1498
6.5158 7.4462 -0.1701
6.5161 7.5935 -0.1906
6.5164 7.7443 -0.2115
6.5168 7.8986 -0.2326
6.5172 8.0567 -0.2540
6.5175 8.2187 -0.2758
6.5179 8.3848 -0.2979
6.5206 8.5581 -0.3204
6.5208 8.7328 -0.3433
6.5210 8.9122 -0.3665
6.5212 9.0965 -0.3901
6.5215 9.2860 -0.4142
6.5217 9.4809 -0.4387
6.5220 9.6814 -0.4638
6.5222 9.8880 -0.4893
6.5225 10.1009 -0.5154
6.5227 10.3204 -0.5420
6.5230 10.5468 -0.5693
6.5233 10.7807 -0.5972
6.5236 11.0223 -0.6257
6.5239 11.2722 -0.6550
6.5237 11.5300 -0.6850
6.5241 11.7979 -0.7159
6.5245 12.0755 -0.7476
6.5249 12.3635 -0.7802
6.5253 12.6625 -0.8138
6.5257 12.9732 -0.8484
6.5262 13.2965 -0.8842
6.5266 13.6330 -0.9211
6.5271 13.9839 -0.9592
6.5266 14.3476 -0.9986
6.5273 14.7302 -1.0395
6.5280 15.1304 -1.0820
6.5288 15.5495 -1.1262
6.5296 15.9888 -1.1722
6.5304 16.4501 -1.2202
6.5313 16.9350 -1.2702
6.5331 17.4483 -1.3227
6.5347 17.9884 -1.3777
6.5363 18.5589 -1.4353
6.5380 19.1628 -1.4959
6.5399 19.8030 -1.5598
6.5302 20.4466 -1.6243
6.5310 21.1653 -1.6952
6.5319 21.9319 -1.7703
6.5329 22.7513 -1.8502
6.5369 23.6402 -1.9362
6.5399 24.5914 -2.0278
6.5432 25.6170 -2.1260
6.5468 26.7262 -2.2317
6.5506 27.9300 -2.3458
6.5547 29.2413 -2.4696
6.5496 30.6303 -2.6005
6.5534 32.1977 -2.7472
6.5585 33.9322 -2.9087
6.5554 35.8083 -3.0831
6.5568 37.9253 -3.2790
6.5751 40.4020 -3.5067
6.5703 43.0488 -3.7501
6.5785 46.1527 -4.0341
-5.3968 42.8821 -3.7673
-5.7258 42.1337 -3.6905
-6.3419 43.4477 -3.7934
-6.7208 43.0648 -3.7469
-7.1454 42.9952 -3.7270
-7.5573 42.8544 -3.7000
-8.0153 42.9687 -3.6942
-5.2570 26.7172 -2.2867
-5.3853 26.0122 -2.2157
-5.6677 26.0781 -2.2101
-5.9526 26.1444 -2.2040
-6.3558 26.6969 -2.2379
-6.4071 25.7818 -2.1484
-6.6190 25.5563 -2.1164
-6.8449 25.3952 -2.0893
-7.1797 25.6306 -2.0942
-7.3999 25.4492 -2.0644
-7.7154 25.5925 -2.0604
-7.9353 25.4143 -2.0299
-8.0746 24.9937 -1.9798
-7.0441 16.6214 -1.1988
6.5073 1.9471 1.1635
6.5075 2.0147 1.1479
6.5077 2.0826 1.1323
6.5078 2.1509 1.1168
6.5080 2.2196 1.1014
6.5082 2.2888 1.0861
6.5079 2.3583 1.0707
6.5079 2.4284 1.0555
6.5080 2.4989 1.0403
6.5080 2.5699 1.0253
6.5080 2.6415 1.0102
6.5081 2.7136 0.9953
6.5081 2.7863 0.9804
6.5081 2.8596 0.9655
6.5082 2.9335 0.9507
6.5082 3.0080 0.9360
6.5082 3.0832 0.9213
6.5083 3.1591 0.9067
6.5083 3.2356 0.8921
6.5083 3.3129 0.8776
6.5084 3.3909 0.8630
6.5084 3.4698 0.8486
6.5085 3.5494 0.8341
6.5085 3.6298 0.8197
6.5085 3.7112 0.8054
6.5086 3.7934 0.7910
6.5086 3.8765 0.7767
6.5086 3.9606 0.7624
6.5087 4.0457 0.7482
6.5087 4.1318 0.7339
6.5087 4.2190 0.7197
6.5088 4.3073 0.7054
6.5088 4.3967 0.6912
6.5088 4.4872 0.6770
6.5089 4.5790 0.6628
6.5089 4.6720 0.6486
6.5090 4.7664 0.6344
6.5090 4.8621 0.6202
6.5090 4.9591 0.6060
6.5091 5.0576 0.5918
6.5091 5.1576 0.5776
6.5091 5.2592 0.5633
6.5092 5.3623 0.5491
6.5111 5.4687 0.5349
6.5113 5.5754 0.5206
6.5116 5.6839 0.5063
6.5118 5.7943 0.4920
6.5121 5.9066 0.4776
6.5123 6.0210 0.4631
6.5126 6.1374 0.4486
6.5129 6.2559 0.4341
6.5132 6.3767 0.4195
6.5134 6.4999 0.4049
6.5137 6.6254 0.3902
6.5140 6.7535 0.3754
6.5143 6.8841 0.3605
6.5146 7.0176 0.3456
6.5150 7.1538 0.3306
6.5153 7.2930 0.3155
6.5156 7.4353 0.3003
6.5160 7.5808 0.2850
6.5163 7.7296 0.2696
6.5166 7.8819 0.2541
6.5170 8.0379 0.2385
6.5174 8.1976 0.2227
6.5178 8.3614 0.2068
6.5197 8.5313 0.1908
6.5199 8.7033 0.1746
6.5201 8.8799 0.1582
6.5203 9.0612 0.1416
6.5206 9.2475 0.1249
6.5208 9.4391 0.1080
6.5210 9.6361 0.0908
6.5212 9.8389 0.0735
6.5215 10.0478 0.0559
6.5217 10.2631 0.0381
6.5220 10.4850 0.0200
6.5223 10.7141 0.0016
6.5225 10.9506 -0.0170
6.5228 11.1950 -0.0360
6.5231 11.4479 -0.0553
6.5234 11.7095 -0.0750
6.5238 11.9806 -0.0950
6.5242 12.2615 -0.1155
6.5246 12.5529 -0.1363
6.5250 12.8555 -0.1576
6.5254 13.1700 -0.1794
6.5258 13.4972 -0.2018
6.5263 13.8378 -0.2246
6.5268 14.1930 -0.2481
6.5268 14.5624 -0.2722
6.5275 14.9498 -0.2970
6.5282 15.3550 -0.3226
6.5290 15.7794 -0.3489
6.5298 16.2243 -0.3762
6.5306 16.6915 -0.4043
6.5315 17.1826 -0.4335
6.5334 17.7026 -0.4638
6.5350 18.2496 -0.4953
6.5366 18.8276 -0.5281
6.5383 19.4393 -0.5623
6.5402 20.0878 -0.5980
6.5319 20.7443 -0.6345
6.5328 21.4727 -0.6737
6.5338 22.2497 -0.7150
6.5348 23.0803 -0.7585
6.5393 23.9828 -0.8050
6.5424 24.9473 -0.8541
6.5458 25.9872 -0.9065
6.5481 27.1066 -0.9623
6.5520 28.3269 -1.0223
6.5485 29.6213 -1.0858
6.5520 31.0686 -1.1555
6.5554 32.6552 -1.2312
6.5609 34.4154 -1.3142
6.5577 36.3172 -1.4035
6.5721 38.5391 -1.5061
6.5730 40.9464 -1.6168
6.5742 43.6678 -1.7410
6.5794 46.7939 -1.8824
-5.4300 43.7385 -1.7830
-5.7541 42.9241 -1.7363
-6.1099 42.4345 -1.7020
-6.5028 42.2421 -1.6788
-7.0590 43.0623 -1.6945
-7.4172 42.6418 -1.6602
-7.8191 42.4974 -1.6358
-8.2458 42.4884 -1.6156
-5.6842 26.5184 -0.9815
-5.9490 26.4932 -0.9661
-6.2143 26.4677 -0.9500
-6.3022 25.7155 -0.9076
-6.5747 25.7423 -0.8924
-6.8068 25.6101 -0.8710
-7.1285 25.8073 -0.8601
-7.3775 25.7321 -0.8394
-7.5477 25.3919 -0.8095
-7.6993 25.0102 -0.7781
-8.1019 25.4371 -0.7711
6.5073 2.0419 1.4845
6.5075 2.1096 1.4697
6.5077 2.1778 1.4549
6.5078 2.2464 1.4403
6.5080 2.3154 1.4258
6.5073 2.3845 1.4112
6.5073 2.4544 1.3968
6.5074 2.5247 1.3826
6.5074 2.5956 1.3685
6.5074 2.6669 1.3545
6.5075 2.7388 1.3406
6.5075 2.8113 1.3269
6.5075 2.8843 1.3132
6.5076 2.9580 1.2996
6.5076 3.0322 1.2861
6.5076 3.1071 1.2727
6.5077 3.1827 1.2594
6.5077 3.2590 1.2462
6.5077 3.3360 1.2331
6.5078 3.4137 1.2201
6.5078 3.4922 1.2071
6.5078 3.5715 1.1943
6.5079 3.6516 1.1815
6.5079 3.7326 1.1688
6.5079 3.8144 1.1563
6.5080 3.8972 1.1438
6.5080 3.9809 1.1313
6.5080 4.0655 1.1190
6.5081 4.1512 1.1067
6.5081 4.2379 1.0945
6.5081 4.3257 1.0824
6.5082 4.4146 1.0704
6.5082 4.5046 1.0584
6.5082 4.5959 1.0465
6.5083 4.6883 1.0347
6.5083 4.7821 1.0229
6.5083 4.8771 1.0113
6.5084 4.9736 0.9997
6.5084 5.0714 0.9881
6.5084 5.1707 0.9766
6.5085 5.2715 0.9652
6.5085 5.3739 0.9539
6.5110 5.4800 0.9430
6.5112 5.5860 0.9318
6.5115 5.6936 0.9207
6.5117 5.8031 0.9096
6.5120 5.9145 0.8986
6.5122 6.0279 0.8877
6.5125 6.1432 0.8768
6.5128 6.2607 0.8660
6.5131 6.3804 0.8553
6.5133 6.5024 0.8446
6.5136 6.6267 0.8339
6.5139 6.7534 0.8233
6.5142 6.8828 0.8128
6.5145 7.0147 0.8023
6.5148 7.1495 0.7919
6.5152 7.2871 0.7816
6.5155 7.4277 0.7713
6.5158 7.5715 0.7610
6.5162 7.7185 0.7509
6.5165 7.8689 0.7407
6.5169 8.0228 0.7306
6.5172 8.1804 0.7206
6.5176 8.3419 0.7106
6.5189 8.5085 0.7008
6.5191 8.6780 0.6909
6.5192 8.8519 0.6811
6.5194 9.0304 0.6713
6.5196 9.2137 0.6616
6.5199 9.4021 0.6519
6.5201 9.5958 0.6423
6.5203 9.7950 0.6328
6.5205 10.0001 0.6232
6.5207 10.2113 0.6138
6.5210 10.4290 0.6044
6.5212 10.6535 0.5951
6.5215 10.8852 0.5858
6.5217 11.1245 0.5766
6.5220 11.3718 0.5674
6.5228 11.6285 0.5584
6.5231 11.8933 0.5493
6.5235 12.1675 0.5404
6.5239 12.4518 0.5315
6.5242 12.7468 0.5227
6.5246 13.0531 0.5139
6.5251 13.3714 0.5052
6.5255 13.7026 0.4966
6.5259 14.0474 0.4880
6.5263 14.4067 0.4796
6.5270 14.7823 0.4712
6.5277 15.1746 0.4629
6.5284 15.5850 0.4547
6.5292 16.0147 0.4467
6.5300 16.4654 0.4387
6.5308 16.9385 0.4308
6.5322 17.4374 0.4231
6.5337 17.9629 0.4154
6.5353 18.5171 0.4080
6.5369 19.1026 0.4006
6.5387 19.7223 0.3934
6.5328 20.3552 0.3859
6.5337 21.0491 0.3790
6.5346 21.7875 0.3723
6.5356 22.5752 0.3658
6.5387 23.4243 0.3596
6.5417 24.3338 0.3536
6.5449 25.3118 0.3480
6.5484 26.3664 0.3426
6.5495 27.4962 0.3375
6.5535 28.7333 0.3328
6.5509 30.0496 0.3283
6.5545 31.5175 0.3246
6.5577 33.1251 0.3214
6.5634 34.9104 0.3189
6.5601 36.8384 0.3168
6.5701 39.0648 0.3162
6.5699 41.4977 0.3161
6.5782 44.3020 0.3177
6.5802 47.4504 0.3204
-6.5084 42.8671 0.3138
-6.9349 42.8951 0.3336
-7.3936 34.9786 0.3675
-6.4910 25.7754 0.3414
-6.7864 25.8969 0.3628
-7.0296 25.8124 0.3822
-7.1982 25.4658 0.3982
-7.0294 16.6290 0.4927
6.5073 2.1393 1.8146
6.5075 2.2073 1.8005
6.5077 2.2757 1.7867
6.5067 2.3442 1.7726
6.5067 2.4134 1.7590
6.5068 2.4830 1.7455
6.5068 2.5532 1.7322
6.5068 2.6238 1.7190
6.5069 2.6950 1.7060
6.5069 2.7667 1.6931
6.5069 2.8389 1.6803
6.5069 2.9117 1.6678
6.5070 2.9851 1.6553
6.5070 3.0591 1.6430
6.5070 3.1338 1.6309
6.5071 3.2091 1.6188
6.5071 3.2850 1.6070
6.5071 3.3618 1.5952
6.5072 3.4392 1.5836
6.5072 3.5174 1.5722
6.5072 3.5963 1.5609
6.5072 3.6761 1.5497
6.5073 3.7567 1.5387
6.5073 3.8382 1.5278
6.5073 3.9206 1.5170
6.5074 4.0039 1.5064
6.5074 4.0881 1.4959
6.5074 4.1734 1.4856
6.5075 4.2596 1.4753
6.5075 4.3470 1.4653
6.5075 4.4354 1.4553
6.5075 4.5249 1.4455
6.5076 4.6157 1.4359
6.5076 4.7076 1.4264
6.5076 4.8008 1.4170
6.5076 4.8952 1.4078
6.5077 4.9910 1.3987
6.5077 5.0882 1.3898
6.5077 5.1869 1.3810
6.5078 5.2870 1.3723
6.5107 5.3911 1.3644
6.5109 5.4946 1.3561
6.5112 5.5997 1.3479
6.5114 5.7066 1.3399
6.5117 5.8152 1.3321
6.5119 5.9257 1.3244
6.5122 6.0381 1.3168
6.5124 6.1525 1.3095
6.5127 6.2690 1.3023
6.5130 6.3876 1.2952
6.5132 6.5084 1.2883
6.5135 6.6315 1.2816
6.5138 6.7571 1.2751
6.5141 6.8851 1.2688
6.5144 7.0157 1.2626
6.5147 7.1490 1.2567
6.5150 7.2852 1.2509
6.5154 7.4242 1.2453
6.5157 7.5663 1.2400
6.5160 7.7115 1.2348
6.5164 7.8601 1.2299
6.5167 8.0121 1.2252
6.5171 8.1677 1.2207
6.5174 8.3270 1.2164
6.5180 8.4905 1.2125
6.5182 8.6575 1.2087
6.5184 8.8289 1.2051
6.5186 9.0047 1.2018
6.5187 9.1851 1.1988
6.5189 9.3705 1.1961
6.5191 9.5610 1.1937
6.5193 9.7568 1.1916
6.5195 9.9583 1.1899
6.5198 10.1658 1.1884
6.5200 10.3794 1.1873
6.5202 10.5997 1.1866
6.5204 10.8268 1.1863
6.5207 11.0612 1.1864
6.5209 11.3033 1.1869
6.5221 11.5553 1.1880
6.5225 11.8142 1.1894
6.5228 12.0822 1.1913
6.5232 12.3597 1.1937
6.5235 12.6475 1.1967
6.5239 12.9461 1.2002
6.5243 13.2562 1.2043
6.5247 13.5784 1.2091
6.5251 13.9137 1.2146
6.5256 14.2629 1.2208
6.5265 14.6280 1.2279
6.5272 15.0084 1.2357
6.5279 15.4058 1.2445
6.5286 15.8214 1.2541
6.5294 16.2567 1.2648
6.5302 16.7132 1.2766
6.5311 17.1926 1.2895
6.5325 17.6982 1.3039
6.5340 18.2305 1.3196
6.5356 18.7921 1.3368
6.5372 19.3854 1.3556
6.5390 20.0134 1.3762
6.5345 20.6592 1.3974
6.5355 21.3627 1.4218
6.5365 22.1114 1.4485
6.5376 22.9101 1.4777
6.5411 23.7726 1.5103
6.5442 24.6950 1.5459
6.5475 25.6870 1.5851
6.5473 26.7411 1.6272
6.5510 27.8969 1.6746
6.5550 29.1514 1.7270
6.5533 30.4904 1.7835
6.5571 31.9795 1.8477
6.5601 33.6087 1.9190
6.5609 35.3931 1.9981
6.5626 37.3748 2.0871
6.5680 39.6050 2.1888
6.5737 42.1086 2.3044
6.5778 44.9244 2.4356
6.5741 48.0745 2.5835
-6.8263 42.8205 2.3511
-10.5478 48.3173 2.8383
-10.8871 47.6989 2.8383
-11.2130 47.0681 2.8383
-11.5256 46.4263 2.8383
-11.8250 45.7749 2.8383
-6.9234 25.7905 1.6226
-7.1841 25.7846 1.6465
-12.6439 43.7746 2.8383
-12.8908 43.0962 2.8383
-13.1250 42.4140 2.8383
-13.3466 41.7288 2.8383
-13.5558 41.0419 2.8383
-13.7530 40.3539 2.8383
-13.9382 39.6658 2.8383
-14.1118 38.9785 2.8383
-14.2740 38.2928 2.8383
-14.4252 37.6092 2.8383
-14.5655 36.9285 2.8383
-14.6955 36.2516 2.8383
-14.8152 35.5789 2.8383
-7.1032 16.6148 1.3508
-15.0254 34.2481 2.8383
-15.1165 33.5909 2.8383
-15.1987 32.9401 2.8383
6.5073 2.2400 2.1557
6.5075 2.3082 2.1424
6.5061 2.3763 2.1289
6.5061 2.4454 2.1160
6.5061 2.5148 2.1033
6.5062 2.5848 2.0908
6.5062 2.6552 2.0785
6.5062 2.7262 2.0664
6.5063 2.7977 2.0545
6.5063 2.8697 2.0428
6.5063 2.9423 2.0313
6.5064 3.0154 2.0199
6.5064 3.0892 2.0088
6.5064 3.1636 1.9978
6.5064 3.2386 1.9870
6.5065 3.3144 1.9764
6.5065 3.3908 1.9660
6.5065 3.4679 1.9558
6.5066 3.5458 1.9458
6.5066 3.6244 1.9360
6.5066 3.7039 1.9263
6.5066 3.7842 1.9169
6.5067 3.8653 1.9076
6.5067 3.9473 1.8985
6.5067 4.0302 1.8897
6.5067 4.1141 1.8810
6.5068 4.1989 1.8725
6.5068 4.2848 1.8642
6.5068 4.3717 1.8561
6.5068 4.4596 1.8483
6.5069 4.5487 1.8406
6.5069 4.6389 1.8331
6.5069 4.7303 1.8258
6.5069 4.8230 1.8188
6.5070 4.9169 1.8119
6.5070 5.0121 1.8053
6.5070 5.1087 1.7989
6.5070 5.2067 1.7927
6.5071 5.3062 1.7868
6.5106 5.4101 1.7820
6.5108 5.5128 1.7765
6.5111 5.6172 1.7713
6.5113 5.7233 1.7663
6.5116 5.8312 1.7616
6.5118 5.9408 1.7571
6.5121 6.0523 1.7529
6.5123 6.1658 1.7490
6.5126 6.2813 1.7453
6.5129 6.3989 1.7418
6.5132 6.5187 1.7387
6.5134 6.6407 1.7358
6.5137 6.7650 1.7333
6.5140 6.8918 1.7310
6.5143 7.0212 1.7291
6.5146 7.1531 1.7274
6.5149 7.2878 1.7261
6.5152 7.4254 1.7252
6.5156 7.5659 1.7245
6.5159 7.7095 1.7243
6.5162 7.8563 1.7244
6.5166 8.0064 1.7249
6.5169 8.1601 1.7258
6.5173 8.3174 1.7270
6.5172 8.4778 1.7286
6.5173 8.6426 1.7307
6.5175 8.8115 1.7333
6.5177 8.9847 1.7363
6.5178 9.1625 1.7398
6.5180 9.3450 1.7438
6.5182 9.5324 1.7483
6.5184 9.7251 1.7534
6.5186 9.9232 1.7591
6.5188 10.1271 1.7653
6.5190 10.3369 1.7722
6.5192 10.5531 1.7798
6.5194 10.7759 1.7880
6.5196 11.0057 1.7970
6.5199 11.2429 1.8067
6.5215 11.4905 1.8176
6.5218 11.7439 1.8290
6.5221 12.0060 1.8413
6.5225 12.2773 1.8545
6.5228 12.5583 1.8686
6.5232 12.8497 1.8839
6.5236 13.1520 1.9002
6.5239 13.4660 1.9177
6.5274 15.2420 2.0257
6.5243 13.7924 1.9364
6.5281 15.6446 2.0520
6.5248 14.1319 1.9564
6.5289 16.0657 2.0801
6.5261 14.4875 1.9781
6.5296 16.5068 2.1102
6.5268 14.8567 2.0011
6.5304 16.9694 2.1425
6.5328 17.9676 2.2141
6.5314 17.4554 2.1770
6.5343 18.5071 2.2539
6.5374 21.6870 2.4999
6.5359 19.0763 2.2966
6.5385 22.4463 2.5611
6.5376 19.6776 2.3425
6.5396 23.2563 2.6274
6.5393 20.3141 2.3918
6.5091 24.0052 2.6859
6.5364 20.9735 2.4431
6.3280 24.2309 2.6859
5.9523 24.6669 2.6859
6.1424 24.4516 2.6859
5.7576 24.8768 2.6859
5.5586 25.0808 2.6859
4.8193 26.3740 2.7421
5.3553 25.2788 2.6859
4.7564 27.4797 2.8383
5.1477 25.4704 2.6859
4.5206 27.6525 2.8383
4.9361 25.6554 2.6859
3.5411 28.2598 2.8383
4.2810 27.8171 2.8383
3.2881 28.3895 2.8383
4.0378 27.9733 2.8383
3.0322 28.5100 2.8383
3.7911 28.1210 2.8383
2.7737 28.6210 2.8383
1.9840 28.8954 2.8383
2.5126 28.7224 2.8383
1.7169 28.9668 2.8383
2.2493 28.8138 2.8383
1.4483 29.0280 2.8383
0.3628 29.1686 2.8383
1.1783 29.0789 2.8383
0.0900 29.1775 2.8383
0.9072 29.1193 2.8383
-0.1829 29.1756 2.8383
0.6353 29.1492 2.8383
-0.4556 29.1632 2.8383
-1.2702 29.0627 2.8383
-0.7279 29.1403 2.8383
-1.5398 29.0084 2.8383
-0.9995 29.1068 2.8383
-1.8080 28.9437 2.8383
-2.8619 28.5843 2.8383
-2.0745 28.8688 2.8383
-3.1196 28.4700 2.8383
-2.3391 28.7838 2.8383
-3.3745 28.3464 2.8383
-2.6017 28.6890 2.8383
-3.6265 28.2136 2.8383
-4.3629 27.7620 2.8383
-3.8754 28.0717 2.8383
-4.6012 27.5946 2.8383
-4.1209 27.9211 2.8383
-4.8358 27.4192 2.8383
-5.6478 26.2484 2.7963
-5.0663 27.2360 2.8383
-5.6658 25.1857 2.7046
-5.2927 27.0454 2.8383
-5.8243 24.8061 2.6859
-5.5149 26.8475 2.8383
-6.0174 24.5943 2.6859
-6.2061 24.3771 2.6859
-6.5696 23.9274 2.6859
-6.3901 24.1547 2.6859
-6.7443 23.6956 2.6859
-7.5469 22.4772 2.6859
-6.9144 23.4594 2.6859
-7.6931 22.2236 2.6859
-7.0797 23.2192 2.6859
-7.8344 21.9673 2.6859
-7.2402 22.9753 2.6859
-7.9710 21.7085 2.6859
-7.3960 22.7278 2.6859
-8.1028 21.4476 2.6859
-8.2298 21.1848 2.6859
-8.3522 20.9202 2.6859
-8.4698 20.6542 2.6859
-7.0130 16.6581 2.1946
-8.6913 20.1187 2.6859
-8.7952 19.8495 2.6859
-8.8946 19.5799 2.6859
6.5054 2.3438 2.5090
6.5055 2.4123 2.4966
6.5055 2.4811 2.4845
6.5055 2.5504 2.4725
6.5056 2.6202 2.4608
6.5056 2.6904 2.4494
6.5056 2.7612 2.4381
6.5056 2.8324 2.4272
6.5057 2.9043 2.4164
6.5057 2.9766 2.4059
6.5057 3.0496 2.3956
6.5057 3.1231 2.3855
6.5058 3.1972 2.3757
6.5058 3.2721 2.3661
6.5058 3.3475 2.3568
6.5059 3.4237 2.3477
6.5059 3.5005 2.3388
6.5059 3.5781 2.3301
6.5059 3.6565 2.3218
6.5060 3.7356 2.3136
6.5060 3.8156 2.3057
6.5060 3.8964 2.2980
6.5060 3.9780 2.2906
6.5060 4.0606 2.2835
6.5061 4.1441 2.2766
6.5061 4.2285 2.2699
6.5061 4.3140 2.2635
6.5061 4.4004 2.2574
6.5062 4.4880 2.2515
6.5062 4.5766 2.2459
6.5062 4.6663 2.2405
6.5062 4.7572 2.2355
6.5062 4.8494 2.2307
6.5063 4.9428 2.2262
6.5063 5.0374 2.2219
6.5063 5.1334 2.2180
6.5063 5.2308 2.2144
6.5063 5.3297 2.2110
6.5106 5.4335 2.2095
6.5108 5.5356 2.2068
6.5110 5.6393 2.2045
6.5113 5.7446 2.2025
6.5115 5.8517 2.2008
6.5118 5.9606 2.1995
6.5120 6.0712 2.1985
6.5123 6.1838 2.1979
6.5125 6.2984 2.1977
6.5128 6.4151 2.1978
6.5131 6.5338 2.1983
6.5134 6.6547 2.1992
6.5136 6.7780 2.2005
6.5139 6.9036 2.2023
6.5142 7.0317 2.2044
6.5145 7.1624 2.2070
6.5148 7.2958 2.2101
6.5151 7.4319 2.2136
6.5154 7.5709 2.2176
6.5158 7.7130 2.2222
6.5161 7.8581 2.2272
6.5164 8.0066 2.2328
6.5168 8.1584 2.2389
6.5171 8.3138 2.2456
6.5163 8.4712 2.2524
6.5164 8.6338 2.2603
6.5166 8.8005 2.2687
6.5168 8.9713 2.2779
6.5169 9.1465 2.2877
6.5171 9.3263 2.2982
6.5173 9.5109 2.3095
6.5174 9.7006 2.3216
6.5176 9.8955 2.3344
6.5178 10.0960 2.3482
6.5180 10.3022 2.3628
6.5182 10.5146 2.3783
6.5184 10.7334 2.3948
6.5186 10.9589 2.4124
6.5188 11.1915 2.4310
6.5209 11.4350 2.4514
6.5212 11.6832 2.4724
6.5215 11.9398 2.4946
6.5218 12.2052 2.5181
6.5221 12.4799 2.5430
6.5225 12.7645 2.5694
6.5228 13.0596 2.5973
6.5232 13.3658 2.6269
6.5236 13.6838 2.6582
6.5107 13.9859 2.6859
6.4272 14.1445 2.6859
6.3410 14.3021 2.6859
6.2521 14.4585 2.6859
6.1605 14.6138 2.6859
6.0662 14.7676 2.6859
5.9692 14.9201 2.6859
5.8695 15.0711 2.6859
5.7672 15.2204 2.6859
5.6621 15.3679 2.6859
5.5543 15.5135 2.6859
5.4439 15.6572 2.6859
5.3307 15.7987 2.6859
5.2150 15.9380 2.6859
5.0966 16.0750 2.6859
4.9757 16.2095 2.6859
4.8521 16.3415 2.6859
4.7976 16.7203 2.7266
4.7862 17.2785 2.7962
4.7198 17.6695 2.8383
4.5788 17.7968 2.8383
4.4352 17.9208 2.8383
4.2892 18.0414 2.8383
4.1407 18.1584 2.8383
3.9899 18.2716 2.8383
3.8369 18.3811 2.8383
3.6816 18.4867 2.8383
3.5241 18.5883 2.8383
3.3646 18.6858 2.8383
3.2031 18.7790 2.8383
3.0396 18.8679 2.8383
2.8744 18.9524 2.8383
2.7073 19.0323 2.8383
2.5387 19.1077 2.8383
2.3684 19.1783 2.8383
2.1967 19.2442 2.8383
2.0236 19.3053 2.8383
1.8493 19.3614 2.8383
1.6737 19.4126 2.8383
1.4972 19.4587 2.8383
1.3196 19.4998 2.8383
1.1413 19.5357 2.8383
0.9622 19.5664 2.8383
0.7825 19.5919 2.8383
0.6022 19.6121 2.8383
0.4216 19.6271 2.8383
0.2408 19.6368 2.8383
0.0597 19.6412 2.8383
-0.1213 19.6403 2.8383
-0.3023 19.6341 2.8383
-0.4831 19.6227 2.8383
-0.6636 19.6059 2.8383
-0.8436 19.5838 2.8383
-1.0232 19.5565 2.8383
-1.2020 19.5240 2.8383
-1.3801 19.4864 2.8383
-1.5573 19.4436 2.8383
-1.7336 19.3958 2.8383
-1.9087 19.3429 2.8383
-2.0826 19.2851 2.8383
-2.2553 19.2224 2.8383
-2.9308 18.9241 2.8383
-2.4265 19.1549 2.8383
-3.0954 18.8382 2.8383
-2.5962 19.0826 2.8383
-3.2582 18.7478 2.8383
-2.7643 19.0056 2.8383
-3.8892 18.3444 2.8383
-3.4191 18.6531 2.8383
-4.0415 18.2335 2.8383
-3.5779 18.5543 2.8383
-4.1915 18.1189 2.8383
-3.7346 18.4513 2.8383
-4.3391 18.0007 2.8383
-4.7672 17.6254 2.8383
-4.4843 17.8790 2.8383
-4.6270 17.7539 2.8383
-4.9048 17.4938 2.8383
-5.5528 16.7925 2.8383
-5.0398 17.3592 2.8383
-5.6660 16.6205 2.8342
-5.1721 17.2216 2.8383
-5.6760 16.1618 2.7811
-5.3018 17.0812 2.8383
-5.6854 15.7247 2.7312
-5.6981 15.3179 2.6859
-5.4287 16.9381 2.8383
-5.8023 15.1698 2.6859
-5.9037 15.0199 2.6859
-6.0025 14.8684 2.6859
-6.0986 14.7155 2.6859
-6.1919 14.5611 2.6859
-6.2826 14.4054 2.6859
-6.3706 14.2486 2.6859
6.0702 2.2888 2.6859
6.0946 2.3623 2.6859
6.1186 2.4366 2.6859
6.1421 2.5117 2.6859
6.1653 2.5876 2.6859
6.1880 2.6642 2.6859
6.2103 2.7417 2.6859
6.2321 2.8199 2.6859
6.2534 2.8989 2.6859
6.2743 2.9787 2.6859
6.2946 3.0593 2.6859
6.3145 3.1407 2.6859
6.3338 3.2229 2.6859
6.3526 3.3058 2.6859
6.3708 3.3897 2.6859
6.3884 3.4743 2.6859
6.4055 3.5597 2.6859
6.4220 3.6459 2.6859
6.4378 3.7329 2.6859
6.4531 3.8207 2.6859
6.4676 3.9093 2.6859
6.4816 3.9988 2.6859
6.4948 4.0891 2.6859
6.5054 4.1788 2.6851
6.5054 4.2629 2.6803
6.5054 4.3479 2.6757
6.5054 4.4340 2.6715
6.5055 4.5211 2.6676
6.5055 4.6093 2.6640
6.5055 4.6986 2.6608
6.5055 4.7891 2.6579
6.5055 4.8807 2.6553
6.5055 4.9736 2.6531
6.5056 5.0677 2.6513
6.5056 5.1632 2.6498
6.5056 5.2600 2.6487
6.5056 5.3583 2.6479
6.5105 5.4621 2.6496
6.5107 5.5636 2.6497
6.5110 5.6666 2.6502
6.5112 5.7713 2.6512
6.5115 5.8776 2.6525
6.5117 5.9857 2.6543
6.5120 6.0956 2.6566
6.5122 6.2074 2.6593
6.5125 6.3211 2.6624
6.5127 6.4368 2.6661
6.5130 6.5546 2.6702
6.5133 6.6746 2.6748
6.5136 6.7968 2.6799
6.5138 6.9214 2.6856
6.5000 7.0330 2.6859
6.4839 7.1442 2.6859
6.4666 7.2559 2.6859
6.4479 7.3681 2.6859
6.4279 7.4806 2.6859
6.4066 7.5936 2.6859
6.3838 7.7070 2.6859
6.3597 7.8207 2.6859
6.3341 7.9347 2.6859
6.3070 8.0490 2.6859
6.2785 8.1636 2.6859
6.2485 8.2784 2.6859
6.2169 8.3934 2.6859
6.1839 8.5085 2.6859
6.1493 8.6238 2.6859
6.1131 8.7392 2.6859
6.0753 8.8546 2.6859
6.0359 8.9700 2.6859
5.9949 9.0854 2.6859
5.9523 9.2008 2.6859
5.9080 9.3160 2.6859
5.8620 9.4310 2.6859
5.8143 9.5458 2.6859
5.7649 9.6604 2.6859
5.7138 9.7747 2.6859
5.6610 9.8887 2.6859
5.6065 10.0022 2.6859
5.5502 10.1153 2.6859
5.4921 10.2279 2.6859
5.4323 10.3399 2.6859
5.3707 10.4514 2.6859
5.3073 10.5621 2.6859
5.2422 10.6722 2.6859
5.1752 10.7815 2.6859
5.1065 10.8899 2.6859
5.0359 10.9975 2.6859
4.9636 11.1041 2.6859
4.8895 11.2097 2.6859
4.8136 11.3142 2.6859
4.7867 11.5401 2.7147
4.7796 11.8246 2.7570
4.7721 12.1209 2.8015
4.7471 12.3855 2.8383
4.6575 12.4894 2.8383
4.5661 12.5917 2.8383
4.4729 12.6924 2.8383
4.3779 12.7915 2.8383
4.2811 12.8889 2.8383
4.1825 12.9844 2.8383
4.0822 13.0782 2.8383
3.9801 13.1700 2.8383
3.8764 13.2598 2.8383
3.7710 13.3475 2.8383
3.6640 13.4332 2.8383
3.5553 13.5167 2.8383
3.4451 13.5979 2.8383
3.3333 13.6768 2.8383
3.2201 13.7534 2.8383
2.5114 14.1598 2.8383
3.1054 13.8275 2.8383
2.3888 14.2182 2.8383
2.9892 13.8992 2.8383
2.2651 14.2738 2.8383
2.8717 13.9682 2.8383
2.1404 14.3266 2.8383
2.7529 14.0348 2.8383
2.0145 14.3764 2.8383
2.6328 14.0987 2.8383
1.8878 14.4234 2.8383
0.9779 14.6665 2.8383
1.7601 14.4673 2.8383
0.8454 14.6887 2.8383
1.6315 14.5082 2.8383
0.7126 14.7077 2.8383
1.5021 14.5461 2.8383
0.1782 14.7511 2.8383
0.5793 14.7235 2.8383
1.3720 14.5809 2.8383
0.0442 14.7538 2.8383
0.4458 14.7359 2.8383
1.2412 14.6126 2.8383
-0.0898 14.7533 2.8383
-0.2237 14.7494 2.8383
0.3121 14.7451 2.8383
1.1098 14.6411 2.8383
-0.3576 14.7423 2.8383
-0.4913 14.7320 2.8383
-0.6247 14.7184 2.8383
-1.4163 14.5694 2.8383
-2.1829 14.3089 2.8383
-0.7578 14.7015 2.8383
-1.5462 14.5336 2.8383
-2.3073 14.2552 2.8383
-0.8905 14.6815 2.8383
-2.4307 14.1987 2.8383
-1.6753 14.4947 2.8383
-2.5528 14.1393 2.8383
-1.0228 14.6583 2.8383
-1.8036 14.4527 2.8383
-2.6738 14.0772 2.8383
-1.1546 14.6318 2.8383
-2.7935 14.0124 2.8383
-1.9310 14.4077 2.8383
-1.2858 14.6022 2.8383
-2.9119 13.9450 2.8383
-2.0575 14.3598 2.8383
-3.0289 13.8751 2.8383
-3.5925 13.4885 2.8383
-4.2162 12.9522 2.8383
-3.1446 13.8025 2.8383
-3.7005 13.4043 2.8383
-3.2588 13.7276 2.8383
-4.3142 12.8559 2.8383
-3.3715 13.6502 2.8383
-3.8070 13.3179 2.8383
-4.4104 12.7580 2.8383
-3.4828 13.5705 2.8383
-3.9119 13.2294 2.8383
-4.5048 12.6584 2.8383
-4.0150 13.1390 2.8383
-4.5974 12.5571 2.8383
-4.1165 13.0465 2.8383
-4.6882 12.4542 2.8383
-4.7771 12.3498 2.8383
-4.8642 12.2441 2.8383
-4.9494 12.1369 2.8383
-5.0327 12.0285 2.8383
-5.1142 11.9188 2.8383
-5.1938 11.8079 2.8383
5.3496 2.1112 2.6859
5.3670 2.1750 2.6859
5.3840 2.2393 2.6859
5.4005 2.3042 2.6859
5.4166 2.3696 2.6859
5.4322 2.4357 2.6859
5.4474 2.5023 2.6859
5.4621 2.5694 2.6859
5.4763 2.6371 2.6859
5.4900 2.7055 2.6859
5.5032 2.7743 2.6859
5.5159 2.8437 2.6859
5.5281 2.9138 2.6859
5.5398 2.9843 2.6859
5.5509 3.0554 2.6859
5.5614 3.1271 2.6859
5.5713 3.1994 2.6859
5.5807 3.2721 2.6859
5.5895 3.3455 2.6859
5.5977 3.4193 2.6859
5.6052 3.4938 2.6859
5.6121 3.5688 2.6859
5.6184 3.6442 2.6859
5.6240 3.7203 2.6859
5.6290 3.7969 2.6859
5.6332 3.8739 2.6859
5.6368 3.9515 2.6859
5.6396 4.0296 2.6859
5.6418 4.1082 2.6859
5.6431 4.1873 2.6859
5.6438 4.2669 2.6859
5.6436 4.3470 2.6859
5.6427 4.4275 2.6859
5.6410 4.5085 2.6859
5.6385 4.5900 2.6859
5.6352 4.6719 2.6859
5.6310 4.7543 2.6859
5.6260 4.8370 2.6859
5.6201 4.9202 2.6859
5.6133 5.0038 2.6859
5.6057 5.0877 2.6859
5.5971 5.1721 2.6859
5.5876 5.2568 2.6859
5.5772 5.3418 2.6859
5.5658 5.4272 2.6859
5.5535 5.5130 2.6859
5.5402 5.5990 2.6859
5.5259 5.6853 2.6859
5.5106 5.7719 2.6859
5.4942 5.8587 2.6859
5.4769 5.9458 2.6859
5.4585 6.0331 2.6859
5.4390 6.1206 2.6859
5.4185 6.2083 2.6859
5.3968 6.2962 2.6859
5.3741 6.3842 2.6859
5.3503 6.4723 2.6859
5.3253 6.5605 2.6859
5.2992 6.6488 2.6859
5.2719 6.7371 2.6859
5.2435 6.8255 2.6859
5.2139 6.9138 2.6859
5.1832 7.0022 2.6859
5.1512 7.0905 2.6859
5.1180 7.1787 2.6859
5.0837 7.2668 2.6859
5.0480 7.3548 2.6859
5.0112 7.4425 2.6859
4.9731 7.5302 2.6859
4.9423 7.6307 2.6906
4.8932 7.7047 2.6859
4.8513 7.7916 2.6859
4.8082 7.8781 2.6859
4.7840 7.9988 2.6973
4.7772 8.1510 2.7196
4.7730 8.3130 2.7445
4.7686 8.4796 2.7706
4.7639 8.6512 2.7979
4.7591 8.8280 2.8265
4.7239 8.9531 2.8383
4.6674 9.0407 2.8383
4.6096 9.1275 2.8383
4.5503 9.2137 2.8383
4.4897 9.2991 2.8383
4.4278 9.3838 2.8383
4.3644 9.4676 2.8383
4.2997 9.5506 2.8383
4.2336 9.6327 2.8383
4.1662 9.7138 2.8383
4.0974 9.7939 2.8383
4.0273 9.8730 2.8383
3.9559 9.9511 2.8383
3.8832 10.0280 2.8383
3.8091 10.1038 2.8383
3.7338 10.1785 2.8383
3.6572 10.2519 2.8383
3.5793 10.3240 2.8383
3.5001 10.3948 2.8383
3.4197 10.4643 2.8383
3.3381 10.5323 2.8383
3.2554 10.5989 2.8383
3.1714 10.6641 2.8383
3.0863 10.7277 2.8383
3.0000 10.7898 2.8383
2.9126 10.8503 2.8383
2.8242 10.9092 2.8383
2.7346 10.9664 2.8383
2.6441 11.0219 2.8383
2.5525 11.0757 2.8383
2.4600 11.1277 2.8383
2.3664 11.1779 2.8383
2.2720 11.2262 2.8383
2.1767 11.2727 2.8383
2.0806 11.3172 2.8383
1.9836 11.3599 2.8383
1.8858 11.4006 2.8383
1.7873 11.4393 2.8383
1.6880 11.4760 2.8383
1.5881 11.5105 2.8383
1.4875 11.5431 2.8383
1.3864 11.5736 2.8383
1.2846 11.6020 2.8383
1.1824 11.6282 2.8383
1.0796 11.6523 2.8383
0.9764 11.6742 2.8383
0.8729 11.6939 2.8383
0.7689 11.7114 2.8383
0.6646 11.7267 2.8383
0.5601 11.7398 2.8383
0.4553 11.7507 2.8383
0.1400 11.7698 2.8383
0.3503 11.7593 2.8383
0.2452 11.7657 2.8383
0.0347 11.7717 2.8383
-0.4910 11.7472 2.8383
-0.0706 11.7713 2.8383
-0.5957 11.7356 2.8383
-0.7001 11.7218 2.8383
-0.1758 11.7686 2.8383
-0.8043 11.7057 2.8383
-0.9081 11.6874 2.8383
-0.2810 11.7637 2.8383
-1.0116 11.6670 2.8383
-0.3861 11.7566 2.8383
-1.1146 11.6443 2.8383
-1.2172 11.6195 2.8383
-1.7219 11.4637 2.8383
-1.3193 11.5925 2.8383
-1.4209 11.5635 2.8383
-1.8209 11.4263 2.8383
-1.5218 11.5323 2.8383
-1.9191 11.3870 2.8383
-1.6222 11.4990 2.8383
-2.3042 11.2100 2.8383
-2.0167 11.3456 2.8383
-2.3984 11.1610 2.8383
-2.1134 11.3023 2.8383
-2.4915 11.1102 2.8383
-2.5838 11.0576 2.8383
-2.2092 11.2571 2.8383
-2.6750 11.0032 2.8383
-2.8544 10.8893 2.8383
-2.7652 10.9471 2.8383
-3.3660 10.5093 2.8383
-2.9425 10.8299 2.8383
-3.4472 10.4408 2.8383
-3.5272 10.3709 2.8383
-3.0295 10.7689 2.8383
-3.6059 10.2996 2.8383
-3.1153 10.7063 2.8383
-3.6834 10.2271 2.8383
-3.7595 10.1532 2.8383
-3.2001 10.6421 2.8383
-3.8345 10.0782 2.8383
-3.2836 10.5764 2.8383
-3.9081 10.0020 2.8383
-3.9804 9.9246 2.8383
-4.0513 9.8462 2.8383
-4.1210 9.7668 2.8383
-4.1893 9.6863 2.8383
