ply
format ascii 1.0
element vertex 2120
property float32 x
property float32 y
property float32 z
end_header
-34.0014 -1.8644 -5.7008
-34.1404 -2.2021 -5.6274
-33.8526 -2.5110 -5.4845
-34.3561 -2.8811 -5.4699
-34.4649 -3.2244 -5.3911
-34.5743 -3.5704 -5.3124
-42.7542 -14.7922 -3.8548
-41.9645 -14.9707 -3.6756
-40.7835 -14.9914 -3.4673
-39.6592 -15.0111 -3.2699
-38.5877 -15.0298 -3.0824
-37.5650 -15.0477 -2.9042
-36.5920 -15.0665 -2.7349
-34.9504 -14.7840 -2.5224
-36.0299 -15.6496 -2.5076
-36.0371 -16.0652 -2.4154
-36.0445 -16.4846 -2.3230
-36.0519 -16.9080 -2.2304
-36.0593 -17.3355 -2.1377
-36.0669 -17.7672 -2.0448
-36.0745 -18.2032 -1.9517
-36.0822 -18.6438 -1.8583
-36.0900 -19.0891 -1.7647
-36.0979 -19.5392 -1.6708
-36.1058 -19.9944 -1.5766
-36.1139 -20.4547 -1.4821
-36.1220 -20.9204 -1.3872
-36.1307 -21.3920 -1.2920
-36.1398 -21.8694 -1.1963
-36.1489 -22.3529 -1.1002
-36.1581 -22.8425 -1.0037
-36.1664 -23.3378 -0.9066
-36.1749 -23.8398 -0.8090
-36.2192 -26.4571 -0.3122
-36.2284 -27.0039 -0.2109
-36.1835 -24.3486 -0.7109
-36.1922 -24.8645 -0.6122
-36.2011 -25.3877 -0.5128
-36.2101 -25.9185 -0.4129
-21.6771 -18.5644 0.3117
-21.6757 -18.2026 0.2476
-7.7280 -6.7491 0.1342
-7.4591 -6.9067 0.1976
-7.6378 -6.8019 0.1556
-6.9376 -6.5499 0.2054
-7.5482 -6.8544 0.1768
-6.9449 -6.6854 0.2274
-7.2144 -7.2201 0.2823
-7.1952 -7.0622 0.2584
-6.5833 -7.1221 0.3450
-6.9911 -7.1339 0.2963
-6.4525 -7.1184 0.3603
-6.8525 -7.1298 0.3130
-6.3241 -7.1149 0.3751
-6.7166 -7.1259 0.3293
-21.6155 -24.8010 1.3585
-21.7016 -25.3955 1.4418
-21.7095 -27.5111 1.7668
-21.7035 -25.9053 1.5210
-21.7116 -28.0738 1.8517
-21.7054 -26.4275 1.6015
-21.7138 -28.6514 1.9381
-21.7074 -26.9625 1.6834
-21.7160 -29.2445 2.0263
-21.6462 -29.7546 2.1092
-21.7402 -32.4887 2.4969
-21.7327 -30.4972 2.2092
-21.7352 -31.1419 2.3030
-22.4888 -34.3316 2.6863
-21.7377 -31.8054 2.3989
-21.6335 -33.7442 2.6861
-20.0551 -32.6782 2.6861
-20.8242 -33.1952 2.6861
-19.7539 -32.9090 2.7460
-18.3015 -32.6358 2.8385
-19.6809 -33.5305 2.8385
-17.6555 -32.2238 2.8385
-18.9758 -33.0708 2.8385
-17.0358 -31.8334 2.8385
-15.8681 -31.1114 2.8385
-16.4405 -31.4630 2.8385
-15.3169 -30.7774 2.8385
-7.1417 -15.4843 1.4714
-14.7854 -30.4599 2.8385
-13.2975 -29.5971 2.8385
-14.2725 -30.1580 2.8385
-12.8333 -29.3366 2.8385
-11.9467 -28.8520 2.8385
-12.3834 -29.0885 2.8385
-11.5227 -28.6266 2.8385
-10.3187 -28.0116 2.8385
-11.1105 -28.4117 2.8385
-9.9378 -27.8254 2.8385
-10.7093 -28.2069 2.8385
-9.0526 -26.1635 2.6861
-8.3737 -25.8508 2.6861
-8.7093 -26.0034 2.6861
-8.0455 -25.7055 2.6861
-7.1007 -25.3101 2.6861
-7.2729 -24.0736 2.5292
-6.7979 -25.1909 2.6861
-7.4094 -25.4354 2.6861
-6.5005 -25.0778 2.6861
-6.2082 -24.9704 2.6861
-5.9208 -24.8685 2.6861
-5.7890 -25.4362 2.7581
-5.6628 -26.0788 2.8382
-5.3713 -25.9815 2.8375
-5.0839 -25.8896 2.8368
-4.8005 -25.8028 2.8362
-43.6094 -14.9407 -1.7295
-42.4780 -15.0115 -1.5688
-41.1386 -14.9852 -1.4070
-36.8621 -15.0600 -0.8557
-39.9919 -15.0053 -1.2583
-36.0255 -15.1250 -0.7366
-38.8995 -15.0244 -1.1172
-36.0334 -15.5387 -0.6368
-37.8574 -15.0426 -0.9832
-36.0415 -15.9561 -0.5367
-36.0487 -16.3770 -0.4361
-36.0559 -16.8018 -0.3351
-36.0779 -18.1018 -0.0292
-36.0632 -17.2308 -0.2336
-36.0854 -18.5441 0.0738
-36.0705 -17.6641 -0.1316
-36.0929 -18.9911 0.1774
-21.6535 -11.9338 0.2317
-36.1006 -19.4431 0.2815
-21.6545 -12.2090 0.2948
-21.6577 -13.0539 0.4868
-21.6556 -12.4873 0.3584
-21.6587 -13.3424 0.5517
-21.6566 -12.7689 0.4224
-21.6598 -13.6345 0.6171
-21.5761 -14.1736 0.7463
-21.6470 -13.9214 0.6825
-21.5792 -14.4774 0.8130
-21.6647 -15.4692 1.0203
-21.6623 -14.8404 0.8836
-21.6659 -15.7904 1.0896
-21.6635 -15.1525 0.9516
-21.6671 -16.1165 1.1597
-21.6696 -16.7836 1.3018
-21.6683 -16.4475 1.2304
-21.6708 -17.1251 1.3740
-21.6748 -18.1835 1.5956
-21.6721 -17.4721 1.4470
-21.6761 -18.5483 1.6713
-21.6734 -17.8248 1.5209
-21.6775 -18.9195 1.7478
-21.5963 -19.6058 1.8966
-21.6068 -19.2332 1.8193
-21.6937 -20.0851 1.9847
-7.1800 -7.0507 0.7382
-21.6952 -20.4847 2.0656
-7.1297 -7.1400 0.7607
-21.6967 -20.8921 2.1476
-21.7015 -22.1638 2.4011
-6.5600 -6.9685 0.7789
-21.7031 -22.6053 2.4883
-21.8604 -23.6840 2.6860
-19.7864 -22.7495 2.6861
-21.1352 -23.3552 2.6861
-19.7252 -23.1358 2.7656
-20.4447 -23.0441 2.6861
-19.6099 -23.4653 2.8385
-18.4194 -22.9465 2.8385
-19.0020 -23.1994 2.8385
-17.8603 -22.7058 2.8385
-17.3232 -22.4766 2.8385
-16.3090 -22.0495 2.8385
-16.8065 -22.2580 2.8385
-15.8295 -21.8505 2.8385
-14.4882 -21.3046 2.8385
-15.3669 -21.6603 2.8385
-14.0703 -21.1382 2.8385
-14.9201 -21.4785 2.8385
-13.6656 -20.9788 2.8385
-12.8928 -20.6798 2.8385
-13.2733 -20.8261 2.8385
-11.4759 -20.1517 2.8385
-12.5234 -20.5394 2.8385
-11.1452 -20.0328 2.8385
-12.1645 -20.4049 2.8385
-10.8229 -19.9184 2.8385
-11.8155 -20.2757 2.8385
-10.5087 -19.8087 2.8385
-10.2021 -19.7033 2.8385
-9.9026 -19.6019 2.8385
-8.5584 -18.2837 2.6861
-8.2991 -18.2019 2.6861
-9.0940 -18.4573 2.6861
-8.0451 -18.1232 2.6861
-8.8233 -18.3688 2.6861
-7.7961 -18.0477 2.6861
-7.5520 -17.9751 2.6861
-6.6188 -17.7123 2.6861
-7.3123 -17.9054 2.6861
-6.3954 -17.6530 2.6861
-7.0771 -17.8384 2.6861
-6.1755 -17.5962 2.6861
-6.8460 -17.7741 2.6861
-5.9590 -17.5416 2.6861
-5.7784 -17.5885 2.7013
-5.7639 -18.1583 2.7968
-5.1991 -18.2748 2.8371
-5.6302 -18.3761 2.8382
-4.9877 -18.2274 2.8366
-5.4132 -18.3244 2.8377
-4.7789 -18.1820 2.8362
-4.5726 -18.1387 2.8357
-4.3686 -18.0974 2.8352
-4.1669 -18.0580 2.8347
-3.9672 -18.0205 2.8342
-3.7695 -17.9848 2.8338
-3.5737 -17.9510 2.8333
-3.3796 -17.9189 2.8329
-48.6296 -1.3629 -3.7367
-48.7414 -1.8371 -3.6067
-48.9664 -3.2672 -3.2075
-43.2709 -10.1585 -0.7727
-40.5264 -9.9278 -0.6096
-38.1006 -9.7243 -0.4657
-38.3752 -10.1899 -0.3607
-38.3544 -10.5819 -0.2519
-38.3614 -10.9835 -0.1431
-38.3685 -11.3876 -0.0340
-38.3756 -11.7943 0.0755
-38.4106 -12.2125 0.1855
-38.4178 -12.6250 0.2958
-21.7916 -7.3954 0.2306
-21.6376 -7.5773 0.2915
-21.6385 -7.8134 0.3543
-21.6393 -8.0513 0.4174
-21.6402 -8.2909 0.4808
-21.6411 -8.5325 0.5445
-21.5572 -8.7416 0.6061
-21.5581 -8.9862 0.6702
-21.5599 -9.2333 0.7347
-21.6439 -9.5187 0.8026
-21.6448 -9.7708 0.8680
-21.6457 -10.0252 0.9338
-21.6467 -10.2821 1.0001
-21.6476 -10.5415 1.0668
-21.6486 -10.8035 1.1340
-21.6496 -11.0681 1.2017
-21.6506 -11.3356 1.2698
-21.6515 -11.6060 1.3385
-21.6526 -11.8794 1.4078
-21.6536 -12.1558 1.4776
-21.6546 -12.4355 1.5480
-21.6557 -12.7185 1.6190
-21.6567 -13.0049 1.6907
-21.6578 -13.2949 1.7631
-21.6589 -13.5886 1.8361
-21.6600 -13.8861 1.9099
-21.5751 -14.1313 1.9766
-21.5782 -14.4369 2.0518
-21.6614 -14.8015 2.1358
-21.6626 -15.1157 2.2128
-21.6637 -15.4344 2.2907
-21.6649 -15.7578 2.3695
-21.6661 -16.0860 2.4493
-21.6674 -16.4194 2.5301
-22.2857 -17.2351 2.6863
-21.5998 -17.0466 2.6861
-20.9479 -16.8692 2.6861
-20.3261 -16.7009 2.6861
-19.7351 -16.5436 2.6865
-19.7097 -16.8558 2.7626
-19.6763 -17.1659 2.8385
-19.1250 -17.0203 2.8385
-18.5959 -16.8814 2.8385
-18.0875 -16.7488 2.8385
-17.5984 -16.6221 2.8385
-17.1275 -16.5010 2.8385
-15.4047 -16.0660 2.8385
-7.1574 -7.0335 1.2185
-15.0095 -15.9682 2.8385
-7.1082 -7.1249 1.2427
-14.6271 -15.8744 2.8385
-15.8132 -16.1679 2.8385
-14.2566 -15.7843 2.8385
-13.8973 -15.6977 2.8385
-12.5621 -15.3832 2.8385
-13.5489 -15.6144 2.8385
-12.2512 -15.3118 2.8385
-13.2105 -15.5344 2.8385
-11.9484 -15.2429 2.8385
-12.8817 -15.4573 2.8385
-11.6535 -15.1767 2.8385
-11.3660 -15.1128 2.8385
-10.2838 -14.8790 2.8385
-11.0857 -15.0512 2.8385
-10.0286 -14.8256 2.8385
-10.8120 -14.9917 2.8385
-9.7790 -14.7740 2.8385
-10.5448 -14.9344 2.8385
-9.0228 -13.9337 2.6861
-8.7965 -13.8882 2.6861
-7.9355 -13.7212 2.6861
-8.5748 -13.8443 2.6861
-7.7303 -13.6830 2.6861
-7.5289 -13.6460 2.6861
-8.3575 -13.8018 2.6861
-7.3309 -13.6103 2.6861
-8.1445 -13.7609 2.6861
-7.1364 -13.5758 2.6861
-6.3895 -13.4492 2.6861
-6.9451 -13.5425 2.6861
-6.2099 -13.4202 2.6861
-6.7570 -13.5103 2.6861
-6.0330 -13.3923 2.6861
-6.5718 -13.4792 2.6861
-5.8585 -13.3653 2.6861
-5.7644 -13.5218 2.7228
-5.7523 -13.8824 2.8007
-5.3054 -13.9954 2.8385
-5.6528 -14.0439 2.8385
-5.1349 -13.9725 2.8385
-5.4781 -14.0192 2.8385
-4.9663 -13.9505 2.8385
-4.6347 -13.9089 2.8385
-4.7996 -13.9293 2.8385
-4.4715 -13.8893 2.8385
-4.3099 -13.8705 2.8385
-3.9915 -13.8352 2.8385
-4.1499 -13.8525 2.8385
-3.8344 -13.8186 2.8385
-3.6787 -13.8028 2.8385
-3.5243 -13.7877 2.8385
-3.3712 -13.7733 2.8385
-3.2192 -13.7596 2.8385
-3.0683 -13.7465 2.8385
-2.9185 -13.7341 2.8385
-2.7696 -13.7223 2.8385
-2.6217 -13.7113 2.8385
-49.4636 -0.7323 -1.5849
-49.4312 -1.2094 -1.4430
-49.7976 -3.1461 -0.8874
-21.5380 -3.4691 0.2300
-21.5305 -3.6817 0.2918
-21.5312 -3.8964 0.3537
-21.6242 -4.1296 0.4176
-21.6250 -4.3469 0.4802
-21.6258 -4.5652 0.5429
-21.6266 -4.7844 0.6058
-21.6274 -5.0046 0.6690
-21.6282 -5.2259 0.7323
-21.6291 -5.4484 0.7959
-21.6299 -5.6719 0.8598
-21.6307 -5.8967 0.9239
-21.6315 -6.1228 0.9883
-21.6324 -6.3503 1.0530
-21.6332 -6.5791 1.1180
-21.6341 -6.8094 1.1834
-21.6349 -7.0412 1.2490
-21.6358 -7.2745 1.3151
-21.6366 -7.5096 1.3815
-21.6375 -7.7463 1.4484
-21.6384 -7.9848 1.5156
-21.6393 -8.2252 1.5833
-21.6402 -8.4674 1.6515
-21.5575 -8.6781 1.7134
-21.5571 -8.9229 1.7822
-21.5589 -9.1708 1.8516
-21.6429 -9.4568 1.9289
-21.6438 -9.7098 1.9996
-21.6448 -9.9651 2.0709
-21.6457 -10.2229 2.1427
-21.6467 -10.4833 2.2153
-21.6476 -10.7464 2.2884
-21.6486 -11.0121 2.3623
-21.6496 -11.2808 2.4368
-21.6506 -11.5523 2.5120
-21.6516 -11.8269 2.5880
-21.8250 -12.2010 2.6861
-21.2085 -12.1311 2.6861
-20.6197 -12.0645 2.6861
-20.0568 -12.0012 2.6861
-19.7068 -12.0565 2.7121
-19.6941 -12.3167 2.7840
-19.5560 -12.4997 2.8385
-19.0530 -12.4444 2.8385
-18.5696 -12.3915 2.8385
-18.1043 -12.3408 2.8385
-17.6561 -12.2923 2.8385
-17.2240 -12.2459 2.8385
-16.8069 -12.2013 2.8385
-16.4042 -12.1586 2.8385
-16.0150 -12.1175 2.8385
-15.6384 -12.0781 2.8385
-15.2739 -12.0402 2.8385
-14.9207 -12.0037 2.8385
-14.5783 -11.9686 2.8385
-14.2461 -11.9348 2.8385
-13.9236 -11.9023 2.8385
-13.6103 -11.8709 2.8385
-13.3057 -11.8406 2.8385
-13.0095 -11.8114 2.8385
-12.7212 -11.7832 2.8385
-12.4404 -11.7560 2.8385
-7.2053 -6.9465 1.6810
-7.1555 -7.0378 1.7068
-7.1056 -7.1300 1.7327
-11.3859 -11.6561 2.8385
-11.1379 -11.6332 2.8385
-10.8956 -11.6110 2.8385
-10.6588 -11.5895 2.8385
-10.4272 -11.5688 2.8385
-10.2006 -11.5487 2.8385
-9.9787 -11.5292 2.8385
-9.7615 -11.5103 2.8385
-9.0360 -10.8750 2.6861
-8.8386 -10.8583 2.6861
-8.6450 -10.8420 2.6861
-8.4551 -10.8263 2.6861
-8.2687 -10.8111 2.6861
-8.0857 -10.7963 2.6861
-7.9059 -10.7819 2.6861
-7.7293 -10.7680 2.6861
-7.5557 -10.7546 2.6861
-7.3849 -10.7415 2.6861
-7.2170 -10.7288 2.6861
-7.0517 -10.7165 2.6861
-6.8890 -10.7046 2.6861
-6.7288 -10.6931 2.6861
-6.5709 -10.6819 2.6861
-6.4154 -10.6710 2.6861
-6.2620 -10.6605 2.6861
-6.1108 -10.6503 2.6861
-5.9616 -10.6404 2.6861
-5.8144 -10.6308 2.6861
-5.7566 -10.7854 2.7275
-5.7463 -11.0363 2.7933
-5.6894 -11.2054 2.8385
-5.5414 -11.1965 2.8385
-5.3951 -11.1878 2.8385
-5.2505 -11.1795 2.8385
-5.1075 -11.1713 2.8385
-4.9661 -11.1635 2.8385
-4.8261 -11.1559 2.8385
-4.6875 -11.1486 2.8385
-4.5503 -11.1415 2.8385
-4.4145 -11.1346 2.8385
-4.2798 -11.1280 2.8385
-4.1464 -11.1216 2.8385
-4.0142 -11.1155 2.8385
-3.8831 -11.1095 2.8385
-3.7531 -11.1038 2.8385
-3.6241 -11.0983 2.8385
-3.4961 -11.0930 2.8385
-3.3690 -11.0880 2.8385
-3.2428 -11.0831 2.8385
-3.1175 -11.0784 2.8385
-2.9930 -11.0739 2.8385
-2.8694 -11.0696 2.8385
-2.7464 -11.0656 2.8385
-2.6242 -11.0617 2.8385
-2.5027 -11.0579 2.8385
-2.3818 -11.0544 2.8385
-2.2615 -11.0510 2.8385
-2.1418 -11.0479 2.8385
-21.6002 -0.0351 0.2724
-21.6010 -0.2438 0.3341
-21.6017 -0.4526 0.3957
-21.6025 -0.6614 0.4575
-21.6033 -0.8705 0.5193
-21.6040 -1.0797 0.5812
-21.6048 -1.2892 0.6432
-21.6056 -1.4990 0.7053
-21.6063 -1.7091 0.7675
-21.6071 -1.9195 0.8299
-21.6079 -2.1304 0.8924
-21.6087 -2.3417 0.9551
-21.6094 -2.5536 1.0180
-21.6102 -2.7660 1.0810
-21.6110 -2.9790 1.1443
-21.6118 -3.1926 1.2077
-21.6126 -3.4069 1.2714
-21.5295 -3.6079 1.3302
-21.5303 -3.8229 1.3941
-21.5311 -4.0387 1.4584
-21.6241 -4.2737 1.5294
-21.6249 -4.4922 1.5945
-21.6257 -4.7118 1.6599
-21.6265 -4.9323 1.7257
-21.6273 -5.1540 1.7918
-21.6281 -5.3768 1.8582
-21.6289 -5.6007 1.9251
-21.6298 -5.8260 1.9923
-21.6306 -6.0525 2.0600
-21.6314 -6.2804 2.1281
-21.6323 -6.5097 2.1967
-21.6331 -6.7405 2.2657
-21.6340 -6.9728 2.3352
-21.6348 -7.2067 2.4052
-21.6357 -7.4424 2.4758
-21.6365 -7.6797 2.5469
-22.1965 -8.1235 2.6862
-21.5999 -8.1454 2.6861
-21.0312 -8.1668 2.6861
-20.4872 -8.1871 2.6861
-19.9661 -8.2065 2.6861
-19.6961 -8.3221 2.7178
-19.6843 -8.5455 2.7847
-19.5773 -8.7283 2.8385
-19.1089 -8.7454 2.8385
-18.6581 -8.7618 2.8385
-18.2237 -8.7775 2.8385
-17.8048 -8.7925 2.8385
-17.4005 -8.8070 2.8385
-17.0099 -8.8209 2.8385
-16.6323 -8.8342 2.8385
-16.2670 -8.8470 2.8385
-15.9134 -8.8594 2.8385
-15.5707 -8.8713 2.8385
-15.2385 -8.8827 2.8385
-14.9162 -8.8937 2.8385
-14.6033 -8.9044 2.8385
-14.2994 -8.9147 2.8385
-14.0039 -8.9246 2.8385
-13.7166 -8.9341 2.8385
-13.4370 -8.9434 2.8385
-13.1648 -8.9523 2.8385
-12.8996 -8.9610 2.8385
-12.6410 -8.9693 2.8385
-12.3889 -8.9774 2.8385
-12.1429 -8.9853 2.8385
-11.9028 -8.9928 2.8385
-11.6683 -9.0002 2.8385
-11.4391 -9.0073 2.8385
-11.2151 -9.0142 2.8385
-10.9960 -9.0209 2.8385
-10.7816 -9.0274 2.8385
-10.5718 -9.0337 2.8385
-10.3663 -9.0398 2.8385
-10.1650 -9.0457 2.8385
-9.9677 -9.0514 2.8385
-9.7743 -9.0570 2.8385
-9.0699 -8.5759 2.6861
-7.2039 -6.9504 2.1757
-7.1535 -7.0427 2.2033
-7.1028 -7.1355 2.2312
-8.3843 -8.5949 2.6861
-8.2204 -8.5994 2.6861
-8.0593 -8.6037 2.6861
-7.9009 -8.6079 2.6861
-7.7451 -8.6119 2.6861
-7.5918 -8.6159 2.6861
-7.4409 -8.6198 2.6861
-7.2924 -8.6235 2.6861
-7.1461 -8.6272 2.6861
-7.0019 -8.6307 2.6861
-6.8599 -8.6342 2.6861
-6.7198 -8.6375 2.6861
-6.5818 -8.6408 2.6861
-6.4456 -8.6439 2.6861
-6.3112 -8.6470 2.6861
-6.1786 -8.6500 2.6861
-6.0477 -8.6529 2.6861
-5.9184 -8.6558 2.6861
-5.7908 -8.6586 2.6861
-5.7515 -8.7941 2.7273
-5.7425 -8.9806 2.7843
-5.7241 -9.1580 2.8385
-5.5953 -9.1606 2.8385
-5.4680 -9.1632 2.8385
-5.3420 -9.1656 2.8385
-5.2173 -9.1680 2.8385
-5.0940 -9.1703 2.8385
-4.9718 -9.1726 2.8385
-4.8509 -9.1748 2.8385
-4.7311 -9.1769 2.8385
-4.6124 -9.1790 2.8385
-4.4948 -9.1810 2.8385
-4.3782 -9.1829 2.8385
-4.2626 -9.1848 2.8385
-4.1480 -9.1866 2.8385
-4.0344 -9.1884 2.8385
-3.9216 -9.1901 2.8385
-3.8097 -9.1917 2.8385
-3.6987 -9.1933 2.8385
-3.5884 -9.1949 2.8385
-3.4789 -9.1964 2.8385
-3.3702 -9.1978 2.8385
-3.2622 -9.1992 2.8385
-3.1549 -9.2006 2.8385
-3.0483 -9.2019 2.8385
-2.9423 -9.2031 2.8385
-2.8369 -9.2043 2.8385
-2.7321 -9.2055 2.8385
-2.6278 -9.2066 2.8385
-2.5241 -9.2076 2.8385
-2.4209 -9.2086 2.8385
-2.3182 -9.2096 2.8385
-2.2160 -9.2105 2.8385
-0.9128 -3.9771 1.2255
-0.8690 -3.9775 1.2255
-0.8255 -3.9778 1.2255
-0.7820 -3.9781 1.2255
-21.5985 0.2499 1.2379
-21.5993 0.0412 1.2996
-21.6000 -0.1675 1.3615
-21.6008 -0.3762 1.4236
-21.6016 -0.5851 1.4859
-21.6023 -0.7942 1.5483
-21.6031 -1.0035 1.6109
-21.6039 -1.2130 1.6737
-21.6046 -1.4228 1.7368
-21.6054 -1.6330 1.8001
-21.6062 -1.8436 1.8636
-21.6069 -2.0546 1.9274
-21.6077 -2.2660 1.9915
-21.6085 -2.4780 2.0558
-21.6093 -2.6906 2.1205
-21.6100 -2.9037 2.1855
-21.6108 -3.1175 2.2509
-21.6116 -3.3320 2.3165
-21.5369 -3.5349 2.3743
-21.5293 -3.7488 2.4395
-21.5301 -3.9649 2.5061
-21.6231 -4.1997 2.5841
-21.9036 -4.4757 2.6861
-21.3555 -4.5806 2.6861
-20.8308 -4.6807 2.6861
-20.3280 -4.7762 2.6861
-19.8565 -4.8702 2.6876
-19.6858 -5.0323 2.7282
-19.6747 -5.2345 2.7908
-19.5578 -5.4085 2.8385
-19.1214 -5.4894 2.8385
-18.7007 -5.5670 2.8385
-18.2948 -5.6416 2.8385
-17.9028 -5.7132 2.8385
-17.5240 -5.7821 2.8385
-17.1577 -5.8483 2.8385
-16.8032 -5.9120 2.8385
-16.4598 -5.9734 2.8385
-16.1271 -6.0326 2.8385
-15.8044 -6.0896 2.8385
-15.4912 -6.1446 2.8385
-15.1872 -6.1977 2.8385
-14.8918 -6.2490 2.8385
-14.6046 -6.2985 2.8385
-14.3252 -6.3464 2.8385
-14.0534 -6.3926 2.8385
-13.7887 -6.4374 2.8385
-13.5307 -6.4807 2.8385
-13.2793 -6.5227 2.8385
-13.0342 -6.5633 2.8385
-12.7949 -6.6027 2.8385
-12.5614 -6.6408 2.8385
-12.3333 -6.6778 2.8385
-12.1105 -6.7137 2.8385
-11.8927 -6.7485 2.8385
-11.6797 -6.7822 2.8385
-11.4714 -6.8150 2.8385
-11.2674 -6.8468 2.8385
-11.0678 -6.8777 2.8385
-10.8722 -6.9077 2.8385
-10.6806 -6.9369 2.8385
-10.4927 -6.9652 2.8385
-10.3086 -6.9928 2.8385
-10.1279 -7.0196 2.8385
-9.9506 -7.0457 2.8385
-9.7766 -7.0710 2.8385
-9.0900 -6.7147 2.6861
-8.9312 -6.7374 2.6861
-8.7751 -6.7596 2.6861
-8.6218 -6.7810 2.6861
-8.4710 -6.8020 2.6861
-8.3226 -6.8224 2.6861
-8.1767 -6.8423 2.6861
-8.0331 -6.8616 2.6861
-7.8918 -6.8805 2.6861
-7.7526 -6.8988 2.6861
-7.6156 -6.9167 2.6861
-7.4805 -6.9341 2.6861
-7.2531 -6.8618 2.6516
-7.2025 -6.9544 2.6809
-7.0869 -6.9838 2.6861
-6.9594 -6.9995 2.6861
-6.8335 -7.0148 2.6861
-6.7094 -7.0298 2.6861
-6.5868 -7.0443 2.6861
-6.4658 -7.0585 2.6861
-6.3463 -7.0724 2.6861
-6.2283 -7.0859 2.6861
-6.1117 -7.0990 2.6861
-5.9965 -7.1118 2.6861
-5.8826 -7.1243 2.6861
-5.7701 -7.1365 2.6861
-5.7474 -7.2605 2.7282
-5.7394 -7.4062 2.7784
-5.7312 -7.5556 2.8300
-5.6345 -7.5898 2.8385
-5.5217 -7.6011 2.8385
-5.4101 -7.6121 2.8385
-5.2996 -7.6229 2.8385
-5.1902 -7.6334 2.8385
-5.0818 -7.6436 2.8385
-4.9745 -7.6535 2.8385
-4.8681 -7.6632 2.8385
-4.7626 -7.6726 2.8385
-4.6580 -7.6818 2.8385
-4.5544 -7.6907 2.8385
-4.4516 -7.6994 2.8385
-4.3496 -7.7079 2.8385
-4.2484 -7.7161 2.8385
-4.1481 -7.7241 2.8385
-4.0484 -7.7319 2.8385
-3.9495 -7.7395 2.8385
-3.8514 -7.7468 2.8385
-3.7539 -7.7539 2.8385
-3.6570 -7.7609 2.8385
-3.5609 -7.7676 2.8385
-3.4653 -7.7741 2.8385
-3.3703 -7.7804 2.8385
-3.2760 -7.7865 2.8385
-3.1821 -7.7924 2.8385
-3.0889 -7.7982 2.8385
-2.9961 -7.8037 2.8385
-2.9039 -7.8091 2.8385
-2.8121 -7.8143 2.8385
-2.7208 -7.8193 2.8385
-2.6299 -7.8241 2.8385
-2.5395 -7.8288 2.8385
-2.4495 -7.8332 2.8385
-2.3599 -7.8375 2.8385
-2.2707 -7.8417 2.8385
-2.1819 -7.8457 2.8385
-2.0934 -7.8495 2.8385
-0.8957 -3.5078 1.2679
-0.8561 -3.5078 1.2673
-0.8166 -3.5078 1.2668
-0.7774 -3.5078 1.2663
-0.7383 -3.5078 1.2658
-0.6994 -3.5078 1.2653
-21.5968 0.5363 2.2084
-21.5975 0.3277 2.2703
-21.5983 0.1191 2.3325
-21.5991 -0.0895 2.3949
-21.5998 -0.2983 2.4575
-21.6006 -0.5072 2.5205
-21.6014 -0.7162 2.5837
-21.9191 -0.9391 2.6861
-21.4031 -1.1246 2.6861
-20.9087 -1.3017 2.6861
-20.4341 -1.4709 2.6861
-19.9781 -1.6328 2.6861
-19.6817 -1.8009 2.7056
-19.6714 -1.9926 2.7639
-19.6610 -2.1843 2.8225
-19.3576 -2.3411 2.8385
-18.9576 -2.4798 2.8385
-18.5712 -2.6130 2.8385
-18.1978 -2.7412 2.8385
-17.8365 -2.8645 2.8385
-17.4869 -2.9832 2.8385
-17.1482 -3.0976 2.8385
-16.8198 -3.2079 2.8385
-16.5014 -3.3143 2.8385
-16.1924 -3.4169 2.8385
-15.8923 -3.5160 2.8385
-15.6007 -3.6118 2.8385
-15.3172 -3.7043 2.8385
-15.0415 -3.7938 2.8385
-14.7731 -3.8803 2.8385
-14.5118 -3.9641 2.8385
-14.2571 -4.0452 2.8385
-14.0089 -4.1237 2.8385
-13.7669 -4.1998 2.8385
-13.5307 -4.2736 2.8385
-13.3002 -4.3451 2.8385
-13.0751 -4.4145 2.8385
-12.8552 -4.4818 2.8385
-12.6403 -4.5471 2.8385
-12.4301 -4.6106 2.8385
-12.2245 -4.6722 2.8385
-12.0234 -4.7320 2.8385
-11.8264 -4.7902 2.8385
-11.6336 -4.8467 2.8385
-11.4446 -4.9017 2.8385
-11.2595 -4.9552 2.8385
-11.0780 -5.0072 2.8385
-10.9000 -5.0578 2.8385
-10.7253 -5.1070 2.8385
-10.5539 -5.1550 2.8385
-10.3857 -5.2017 2.8385
-10.2205 -5.2471 2.8385
-10.0582 -5.2914 2.8385
-9.8988 -5.3346 2.8385
-9.7421 -5.3766 2.8385
-9.0732 -5.1267 2.6861
-8.9299 -5.1645 2.6861
-8.7888 -5.2013 2.6861
-8.6500 -5.2372 2.6861
-8.5134 -5.2723 2.6861
-8.3789 -5.3065 2.6861
-8.2465 -5.3398 2.6861
-8.1161 -5.3723 2.6861
-7.9875 -5.4040 2.6861
-7.8608 -5.4350 2.6861
-7.7360 -5.4652 2.6861
-7.6129 -5.4947 2.6861
-7.4914 -5.5235 2.6861
-7.3717 -5.5516 2.6861
-7.2535 -5.5791 2.6861
-7.1368 -5.6059 2.6861
-7.0217 -5.6320 2.6861
-6.9080 -5.6576 2.6861
-6.7957 -5.6825 2.6861
-6.6848 -5.7069 2.6861
-6.5753 -5.7307 2.6861
-6.4670 -5.7540 2.6861
-6.3600 -5.7766 2.6861
-6.2542 -5.7988 2.6861
-6.1496 -5.8205 2.6861
-6.0461 -5.8417 2.6861
-5.9437 -5.8624 2.6861
-5.8425 -5.8825 2.6861
-5.7504 -5.9105 2.6898
-5.7434 -6.0267 2.7338
-5.7362 -6.1452 2.7787
-5.7288 -6.2662 2.8247
-5.6551 -6.3158 2.8385
-5.5544 -6.3343 2.8385
-5.4545 -6.3524 2.8385
-5.3556 -6.3701 2.8385
-5.2576 -6.3874 2.8385
-5.1605 -6.4042 2.8385
-5.0642 -6.4207 2.8385
-4.9687 -6.4367 2.8385
-4.8741 -6.4524 2.8385
-4.7801 -6.4677 2.8385
-4.6870 -6.4827 2.8385
-4.5946 -6.4972 2.8385
-4.5028 -6.5114 2.8385
-4.4118 -6.5253 2.8385
-4.3215 -6.5389 2.8385
-4.2318 -6.5521 2.8385
-4.1427 -6.5649 2.8385
-4.0543 -6.5775 2.8385
-3.9664 -6.5897 2.8385
-3.8791 -6.6016 2.8385
-3.7924 -6.6132 2.8385
-3.7063 -6.6245 2.8385
-3.6206 -6.6355 2.8385
-3.5355 -6.6462 2.8385
-3.4509 -6.6566 2.8385
-3.3668 -6.6667 2.8385
-3.2831 -6.6765 2.8385
-3.1999 -6.6861 2.8385
-3.1172 -6.6954 2.8385
-3.0349 -6.7044 2.8385
-2.9530 -6.7132 2.8385
-2.8715 -6.7216 2.8385
-2.7903 -6.7299 2.8385
-2.7096 -6.7378 2.8385
-2.6292 -6.7455 2.8385
-2.5492 -6.7530 2.8385
-2.4695 -6.7602 2.8385
-2.3901 -6.7671 2.8385
-2.3111 -6.7739 2.8385
-2.2323 -6.7804 2.8385
-2.1539 -6.7866 2.8385
-2.0757 -6.7926 2.8385
-1.9978 -6.7984 2.8385
-1.9201 -6.8039 2.8385
-1.8427 -6.8093 2.8385
-0.9088 -3.5078 1.4611
-0.8686 -3.5078 1.4601
-0.8286 -3.5078 1.4591
-0.7887 -3.5078 1.4582
-0.7491 -3.5078 1.4573
-0.7096 -3.5078 1.4564
-19.2249 0.7350 2.8385
-18.8587 0.5388 2.8385
-18.5044 0.3501 2.8385
-18.1612 0.1682 2.8385
-17.8286 -0.0071 2.8385
-17.5061 -0.1761 2.8385
-17.1932 -0.3392 2.8385
-16.8893 -0.4967 2.8385
-16.5941 -0.6488 2.8385
-16.3072 -0.7958 2.8385
-16.0282 -0.9379 2.8385
-15.7567 -1.0753 2.8385
-15.4923 -1.2083 2.8385
-15.2348 -1.3371 2.8385
-14.9839 -1.4618 2.8385
-14.7392 -1.5827 2.8385
-14.5006 -1.6998 2.8385
-14.2677 -1.8134 2.8385
-14.0403 -1.9235 2.8385
-13.8182 -2.0304 2.8385
-13.6012 -2.1342 2.8385
-13.3891 -2.2349 2.8385
-13.1816 -2.3328 2.8385
-12.9787 -2.4279 2.8385
-12.7800 -2.5203 2.8385
-12.5856 -2.6101 2.8385
-12.3951 -2.6975 2.8385
-12.2086 -2.7825 2.8385
-12.0257 -2.8652 2.8385
-11.8464 -2.9456 2.8385
-11.6706 -3.0239 2.8385
-11.4981 -3.1003 2.8385
-11.3289 -3.1745 2.8385
-11.1627 -3.2469 2.8385
-10.9996 -3.3174 2.8385
-10.8393 -3.3861 2.8385
-10.6819 -3.4531 2.8385
-10.5272 -3.5184 2.8385
-10.3750 -3.5821 2.8385
-10.2255 -3.6442 2.8385
-10.0783 -3.7048 2.8385
-9.9336 -3.7640 2.8385
-9.7912 -3.8217 2.8385
-9.1328 -3.6698 2.6861
-9.0021 -3.7218 2.6861
-8.8735 -3.7725 2.6861
-8.7468 -3.8222 2.6861
-8.6219 -3.8706 2.6861
-8.4988 -3.9179 2.6861
-8.3775 -3.9641 2.6861
-8.2579 -4.0093 2.6861
-8.1399 -4.0534 2.6861
-8.0236 -4.0965 2.6861
-7.9088 -4.1387 2.6861
-7.7955 -4.1798 2.6861
-7.6837 -4.2201 2.6861
-7.5733 -4.2595 2.6861
-7.4643 -4.2980 2.6861
-7.3566 -4.3356 2.6861
-7.2502 -4.3724 2.6861
-7.1452 -4.4084 2.6861
-7.0414 -4.4436 2.6861
-6.9387 -4.4780 2.6861
-6.8373 -4.5117 2.6861
-6.7370 -4.5446 2.6861
-6.6378 -4.5768 2.6861
-6.5397 -4.6084 2.6861
-6.4426 -4.6392 2.6861
-6.3466 -4.6694 2.6861
-6.2516 -4.6989 2.6861
-6.1575 -4.7279 2.6861
-6.0644 -4.7561 2.6861
-5.9722 -4.7837 2.6861
-5.8809 -4.8108 2.6861
-5.7905 -4.8374 2.6861
-5.7450 -4.9008 2.7068
-5.7386 -4.9987 2.7465
-5.7321 -5.0983 2.7871
-5.7255 -5.1995 2.8285
-5.6544 -5.2430 2.8385
-5.5639 -5.2676 2.8385
-5.4742 -5.2916 2.8385
-5.3853 -5.3152 2.8385
-5.2971 -5.3382 2.8385
-5.2096 -5.3607 2.8385
-5.1228 -5.3827 2.8385
-5.0367 -5.4043 2.8385
-4.9512 -5.4254 2.8385
-4.8664 -5.4460 2.8385
-4.7822 -5.4662 2.8385
-4.6986 -5.4859 2.8385
-4.6157 -5.5052 2.8385
-4.5333 -5.5240 2.8385
-4.4515 -5.5424 2.8385
-4.3702 -5.5605 2.8385
-4.2895 -5.5780 2.8385
-4.2093 -5.5952 2.8385
-4.1296 -5.6120 2.8385
-4.0504 -5.6285 2.8385
-3.9717 -5.6445 2.8385
-3.8934 -5.6602 2.8385
-3.8157 -5.6755 2.8385
-3.7383 -5.6904 2.8385
-3.6614 -5.7050 2.8385
-3.5850 -5.7192 2.8385
-3.5089 -5.7331 2.8385
-3.4333 -5.7466 2.8385
-3.3580 -5.7597 2.8385
-3.2832 -5.7726 2.8385
-3.2086 -5.7851 2.8385
-3.1345 -5.7973 2.8385
-3.0607 -5.8092 2.8385
-2.9873 -5.8207 2.8385
-2.9141 -5.8319 2.8385
-2.8413 -5.8429 2.8385
-2.7688 -5.8535 2.8385
-2.6966 -5.8638 2.8385
-2.6247 -5.8738 2.8385
-2.5531 -5.8835 2.8385
-2.4818 -5.8930 2.8385
-2.4107 -5.9021 2.8385
-2.3399 -5.9110 2.8385
-2.2693 -5.9195 2.8385
-2.1990 -5.9278 2.8385
-2.1289 -5.9358 2.8385
-2.0590 -5.9436 2.8385
-1.9893 -5.9510 2.8385
-1.9199 -5.9582 2.8385
-1.8506 -5.9652 2.8385
-1.7815 -5.9718 2.8385
-1.7126 -5.9782 2.8385
-1.6439 -5.9843 2.8385
-0.9225 -3.5079 1.6622
-0.8817 -3.5078 1.6606
-0.8410 -3.5079 1.6592
-0.8005 -3.5078 1.6577
-0.7603 -3.5078 1.6564
-0.7201 -3.5078 1.6551
-14.6553 0.7594 2.8385
-14.4412 0.6089 2.8385
-14.2319 0.4627 2.8385
-14.0270 0.3206 2.8385
-13.8265 0.1826 2.8385
-13.6302 0.0484 2.8385
-13.4380 -0.0821 2.8385
-13.2496 -0.2091 2.8385
-13.0650 -0.3326 2.8385
-12.8840 -0.4528 2.8385
-12.7065 -0.5699 2.8385
-12.5324 -0.6838 2.8385
-12.3615 -0.7948 2.8385
-12.1938 -0.9030 2.8385
-12.0291 -1.0083 2.8385
-11.8674 -1.1110 2.8385
-11.7085 -1.2112 2.8385
-11.5524 -1.3088 2.8385
-11.3989 -1.4041 2.8385
-11.2480 -1.4969 2.8385
-11.0996 -1.5875 2.8385
-10.9536 -1.6760 2.8385
-10.8099 -1.7623 2.8385
-10.6685 -1.8466 2.8385
-10.5294 -1.9289 2.8385
-10.3923 -2.0093 2.8385
-10.2574 -2.0877 2.8385
-10.1244 -2.1644 2.8385
-9.9934 -2.2394 2.8385
-9.8643 -2.3126 2.8385
-9.7370 -2.3842 2.8385
-9.0955 -2.3223 2.6861
-8.9784 -2.3870 2.6861
-8.8629 -2.4503 2.6861
-8.7489 -2.5122 2.6861
-8.6365 -2.5727 2.6861
-8.5255 -2.6319 2.6861
-8.4160 -2.6898 2.6861
-8.3079 -2.7464 2.6861
-8.2011 -2.8019 2.6861
-8.0956 -2.8561 2.6861
-7.9914 -2.9092 2.6861
-7.8885 -2.9612 2.6861
-7.7868 -3.0121 2.6861
-7.6862 -3.0618 2.6861
-7.5869 -3.1106 2.6861
-7.4886 -3.1583 2.6861
-7.3914 -3.2051 2.6861
-7.2954 -3.2509 2.6861
-7.2003 -3.2957 2.6861
-7.1063 -3.3396 2.6861
-7.0133 -3.3826 2.6861
-6.9212 -3.4248 2.6861
-6.8301 -3.4660 2.6861
-6.7399 -3.5065 2.6861
-6.6505 -3.5461 2.6861
-6.5621 -3.5849 2.6861
-6.4745 -3.6230 2.6861
-6.3878 -3.6602 2.6861
-6.3018 -3.6967 2.6861
-6.2167 -3.7325 2.6861
-6.1324 -3.7676 2.6861
-6.0488 -3.8019 2.6861
-5.9659 -3.8356 2.6861
-5.8838 -3.8686 2.6861
-5.8023 -3.9010 2.6861
-5.7442 -3.9483 2.6967
-5.7385 -4.0319 2.7322
-5.7327 -4.1167 2.7684
-5.7268 -4.2027 2.8053
-5.7119 -4.2833 2.8385
-5.6300 -4.3136 2.8385
-5.5487 -4.3433 2.8385
-5.4680 -4.3724 2.8385
-5.3879 -4.4009 2.8385
-5.3084 -4.4289 2.8385
-5.2295 -4.4563 2.8385
-5.1512 -4.4831 2.8385
-5.0734 -4.5094 2.8385
-4.9962 -4.5352 2.8385
-4.9195 -4.5604 2.8385
-4.8433 -4.5851 2.8385
-4.7675 -4.6093 2.8385
-4.6923 -4.6331 2.8385
-4.6176 -4.6563 2.8385
-4.5433 -4.6791 2.8385
-4.4695 -4.7014 2.8385
-4.3962 -4.7233 2.8385
-4.3233 -4.7447 2.8385
-4.2508 -4.7656 2.8385
-4.1787 -4.7861 2.8385
-4.1070 -4.8061 2.8385
-4.0357 -4.8258 2.8385
-3.9649 -4.8450 2.8385
-3.8944 -4.8638 2.8385
-3.8242 -4.8822 2.8385
-3.7545 -4.9002 2.8385
-3.6850 -4.9178 2.8385
-3.6160 -4.9350 2.8385
-3.5472 -4.9518 2.8385
-3.4788 -4.9682 2.8385
-3.4107 -4.9843 2.8385
-3.3430 -4.9999 2.8385
-3.2755 -5.0153 2.8385
-3.2083 -5.0303 2.8385
-3.1414 -5.0448 2.8385
-3.0748 -5.0591 2.8385
-3.0085 -5.0730 2.8385
-2.9424 -5.0866 2.8385
-2.8766 -5.0998 2.8385
-2.8111 -5.1127 2.8385
-2.7458 -5.1252 2.8385
-2.6807 -5.1375 2.8385
-2.6159 -5.1494 2.8385
-2.5513 -5.1609 2.8385
-2.4869 -5.1722 2.8385
-2.4227 -5.1832 2.8385
-2.3588 -5.1938 2.8385
-2.2950 -5.2041 2.8385
-2.2315 -5.2142 2.8385
-2.1681 -5.2239 2.8385
-2.1049 -5.2333 2.8385
-2.0419 -5.2424 2.8385
-1.9790 -5.2512 2.8385
-1.9164 -5.2598 2.8385
-1.8539 -5.2680 2.8385
-1.7915 -5.2760 2.8385
-1.7293 -5.2836 2.8385
-1.6672 -5.2910 2.8385
-1.6053 -5.2981 2.8385
-1.5435 -5.3050 2.8385
-1.4818 -5.3115 2.8385
-1.4202 -5.3178 2.8385
-0.8953 -3.5079 1.8703
-0.8540 -3.5079 1.8683
-0.8129 -3.5079 1.8664
-0.7719 -3.5079 1.8646
-0.7312 -3.5079 1.8628
-11.7982 0.7747 2.8385
-11.6588 0.6530 2.8385
-11.5215 0.5341 2.8385
-11.3862 0.4180 2.8385
-11.2529 0.3045 2.8385
-11.1215 0.1936 2.8385
-10.9920 0.0853 2.8385
-10.8642 -0.0206 2.8385
-10.7382 -0.1242 2.8385
-10.6139 -0.2254 2.8385
-10.4913 -0.3245 2.8385
-10.3703 -0.4213 2.8385
-10.2509 -0.5161 2.8385
-10.1330 -0.6088 2.8385
-10.0167 -0.6995 2.8385
-9.9018 -0.7883 2.8385
-9.7883 -0.8752 2.8385
-9.1566 -0.9086 2.6861
-9.0518 -0.9874 2.6861
-8.9483 -1.0646 2.6861
-8.8459 -1.1401 2.6861
-8.7448 -1.2141 2.6861
-8.6448 -1.2865 2.6861
-8.5459 -1.3575 2.6861
-8.4482 -1.4271 2.6861
-8.3515 -1.4952 2.6861
-8.2559 -1.5619 2.6861
-8.1613 -1.6273 2.6861
-8.0677 -1.6914 2.6861
-7.9751 -1.7542 2.6861
-7.8835 -1.8158 2.6861
-7.7928 -1.8762 2.6861
-7.7030 -1.9353 2.6861
-7.6141 -1.9933 2.6861
-7.5260 -2.0502 2.6861
-7.4389 -2.1060 2.6861
-7.3526 -2.1607 2.6861
-7.2670 -2.2143 2.6861
-7.1823 -2.2670 2.6861
-7.0984 -2.3186 2.6861
-7.0152 -2.3692 2.6861
-6.9328 -2.4188 2.6861
-6.8511 -2.4675 2.6861
-6.7702 -2.5153 2.6861
-6.6899 -2.5622 2.6861
-6.6103 -2.6082 2.6861
-6.5314 -2.6533 2.6861
-6.4532 -2.6976 2.6861
-6.3756 -2.7410 2.6861
-6.2986 -2.7837 2.6861
-6.2222 -2.8255 2.6861
-6.1465 -2.8666 2.6861
-6.0713 -2.9069 2.6861
-5.9967 -2.9464 2.6861
-5.9227 -2.9852 2.6861
-5.8493 -3.0233 2.6861
-5.7763 -3.0607 2.6861
-5.7410 -3.1175 2.7035
-5.7358 -3.1911 2.7355
-5.7306 -3.2655 2.7681
-5.7252 -3.3408 2.8012
-5.7198 -3.4169 2.8349
-5.6532 -3.4565 2.8385
-5.5799 -3.4912 2.8385
-5.5070 -3.5252 2.8385
-5.4346 -3.5585 2.8385
-5.3627 -3.5913 2.8385
-5.2913 -3.6235 2.8385
-5.2203 -3.6550 2.8385
-5.1497 -3.6860 2.8385
-5.0796 -3.7164 2.8385
-5.0099 -3.7462 2.8385
-4.9406 -3.7755 2.8385
-4.8717 -3.8042 2.8385
-4.8032 -3.8324 2.8385
-4.7351 -3.8600 2.8385
-4.6674 -3.8872 2.8385
-4.6000 -3.9137 2.8385
-4.5331 -3.9399 2.8385
-4.4665 -3.9655 2.8385
-4.4002 -3.9906 2.8385
-4.3343 -4.0152 2.8385
-4.2687 -4.0394 2.8385
-4.2034 -4.0631 2.8385
-4.1385 -4.0863 2.8385
-4.0739 -4.1090 2.8385
-4.0096 -4.1313 2.8385
-3.9456 -4.1532 2.8385
-3.8818 -4.1747 2.8385
-3.8184 -4.1957 2.8385
-3.7553 -4.2163 2.8385
-3.6924 -4.2364 2.8385
-3.6299 -4.2562 2.8385
-3.5675 -4.2755 2.8385
-3.5055 -4.2945 2.8385
-3.4437 -4.3130 2.8385
-3.3821 -4.3312 2.8385
-3.3208 -4.3489 2.8385
-3.2598 -4.3663 2.8385
-3.1989 -4.3833 2.8385
-3.1383 -4.4000 2.8385
-3.0780 -4.4162 2.8385
-3.0178 -4.4321 2.8385
-2.9578 -4.4477 2.8385
-2.8981 -4.4628 2.8385
-2.8385 -4.4777 2.8385
-2.7792 -4.4921 2.8385
-2.7200 -4.5063 2.8385
-2.6611 -4.5201 2.8385
-2.6023 -4.5335 2.8385
-2.5437 -4.5467 2.8385
-2.4853 -4.5594 2.8385
-2.4270 -4.5719 2.8385
-2.3689 -4.5841 2.8385
-2.3110 -4.5959 2.8385
-2.2532 -4.6074 2.8385
-2.1956 -4.6186 2.8385
-2.1381 -4.6294 2.8385
-2.0807 -4.6399 2.8385
-2.0235 -4.6502 2.8385
-1.9665 -4.6602 2.8385
-1.9095 -4.6698 2.8385
-1.8527 -4.6791 2.8385
-1.7960 -4.6882 2.8385
-1.7395 -4.6969 2.8385
-1.6830 -4.7054 2.8385
-1.6267 -4.7135 2.8385
-1.5705 -4.7214 2.8385
-1.5143 -4.7290 2.8385
-1.4583 -4.7363 2.8385
-1.4024 -4.7433 2.8385
-1.3465 -4.7500 2.8385
-1.2907 -4.7564 2.8385
-0.9097 -3.5079 2.0907
-0.8677 -3.5079 2.0881
-0.8259 -3.5079 2.0856
-0.7842 -3.5079 2.0833
-0.7428 -3.5079 2.0811
-9.8356 0.7852 2.8385
-9.7384 0.6834 2.8385
-9.1244 0.5523 2.6861
-9.0341 0.4597 2.6861
-8.9447 0.3689 2.6861
-8.8561 0.2799 2.6861
-8.7683 0.1925 2.6861
-8.6812 0.1069 2.6861
-8.5950 0.0228 2.6861
-8.5095 -0.0596 2.6861
-8.4248 -0.1405 2.6861
-8.3408 -0.2199 2.6861
-8.2575 -0.2978 2.6861
-8.1749 -0.3742 2.6861
-8.0931 -0.4493 2.6861
-8.0119 -0.5229 2.6861
-7.9314 -0.5951 2.6861
-7.8515 -0.6661 2.6861
-7.7723 -0.7358 2.6861
-7.6937 -0.8042 2.6861
-7.6158 -0.8713 2.6861
-7.5384 -0.9372 2.6861
-7.4617 -1.0020 2.6861
-7.3856 -1.0655 2.6861
-7.3100 -1.1279 2.6861
-7.2350 -1.1893 2.6861
-7.1606 -1.2495 2.6861
-7.0867 -1.3086 2.6861
-7.0133 -1.3668 2.6861
-6.9405 -1.4238 2.6861
-6.8682 -1.4798 2.6861
-6.7965 -1.5349 2.6861
-6.7252 -1.5890 2.6861
-6.6544 -1.6422 2.6861
-6.5841 -1.6944 2.6861
-6.5143 -1.7457 2.6861
-6.4450 -1.7961 2.6861
-6.3761 -1.8457 2.6861
-6.3077 -1.8944 2.6861
-6.2397 -1.9422 2.6861
-6.1722 -1.9892 2.6861
-6.1051 -2.0353 2.6861
-6.0384 -2.0807 2.6861
-5.9721 -2.1254 2.6861
-5.9063 -2.1692 2.6861
-5.8408 -2.2123 2.6861
-5.7758 -2.2546 2.6861
-5.7396 -2.3077 2.6994
-5.7350 -2.3736 2.7280
-5.7303 -2.4401 2.7570
-5.7256 -2.5071 2.7864
-5.7208 -2.5747 2.8163
-5.6995 -2.6353 2.8385
-5.6335 -2.6749 2.8385
-5.5678 -2.7139 2.8385
-5.5026 -2.7522 2.8385
-5.4377 -2.7898 2.8385
-5.3731 -2.8267 2.8385
-5.3088 -2.8631 2.8385
-5.2449 -2.8988 2.8385
-5.1814 -2.9339 2.8385
-5.1181 -2.9684 2.8385
-5.0552 -3.0022 2.8385
-4.9926 -3.0356 2.8385
-4.9303 -3.0683 2.8385
-4.8683 -3.1004 2.8385
-4.8066 -3.1320 2.8385
-4.7452 -3.1631 2.8385
-4.6840 -3.1935 2.8385
-4.6232 -3.2235 2.8385
-4.5626 -3.2529 2.8385
-4.5023 -3.2818 2.8385
-4.4423 -3.3102 2.8385
-4.3825 -3.3381 2.8385
-4.3230 -3.3655 2.8385
-4.2638 -3.3924 2.8385
-4.2048 -3.4188 2.8385
-4.1460 -3.4448 2.8385
-4.0875 -3.4703 2.8385
-4.0292 -3.4953 2.8385
-3.9712 -3.5198 2.8385
-3.9133 -3.5439 2.8385
-3.8557 -3.5676 2.8385
-3.7983 -3.5908 2.8385
-3.7412 -3.6136 2.8385
-3.6842 -3.6359 2.8385
-3.6275 -3.6578 2.8385
-3.5709 -3.6794 2.8385
-3.5146 -3.7004 2.8385
-3.4584 -3.7211 2.8385
-3.4025 -3.7414 2.8385
-3.3467 -3.7613 2.8385
-3.2911 -3.7808 2.8385
-3.2357 -3.7998 2.8385
-3.1804 -3.8186 2.8385
-3.1254 -3.8369 2.8385
-3.0705 -3.8549 2.8385
-3.0158 -3.8725 2.8385
-2.9612 -3.8897 2.8385
-2.9068 -3.9065 2.8385
-2.8526 -3.9231 2.8385
-2.7985 -3.9392 2.8385
-2.7445 -3.9550 2.8385
-2.6908 -3.9704 2.8385
-2.6371 -3.9855 2.8385
-2.5836 -4.0002 2.8385
-2.5302 -4.0146 2.8385
-2.4770 -4.0287 2.8385
-2.4239 -4.0424 2.8385
-2.3709 -4.0559 2.8385
-2.3180 -4.0689 2.8385
-2.2653 -4.0817 2.8385
-2.2126 -4.0941 2.8385
-2.1601 -4.1063 2.8385
-2.1077 -4.1181 2.8385
-2.0555 -4.1295 2.8385
-2.0033 -4.1407 2.8385
-1.9512 -4.1516 2.8385
-1.8992 -4.1621 2.8385
-1.8474 -4.1724 2.8385
-1.7956 -4.1823 2.8385
-1.7439 -4.1920 2.8385
-1.6923 -4.2013 2.8385
-1.6408 -4.2104 2.8385
-1.5893 -4.2192 2.8385
-1.5380 -4.2276 2.8385
-1.4867 -4.2358 2.8385
-1.4355 -4.2437 2.8385
-1.3844 -4.2513 2.8385
-1.3333 -4.2586 2.8385
-1.2823 -4.2657 2.8385
-1.2314 -4.2724 2.8385
-1.1806 -4.2789 2.8385
-0.9883 -3.7487 2.4831
-0.8821 -3.5080 2.3205
-0.8396 -3.5080 2.3174
-0.7972 -3.5080 2.3146
-0.7551 -3.5080 2.3118
-7.9480 0.7503 2.6861
-7.8807 0.6679 2.6861
-7.8138 0.5869 2.6861
-7.7471 0.5072 2.6861
-7.6808 0.4288 2.6861
-7.6148 0.3518 2.6861
-7.5492 0.2760 2.6861
-7.4839 0.2015 2.6861
-7.4188 0.1282 2.6861
-7.3542 0.0561 2.6861
-7.2898 -0.0148 2.6861
-7.2257 -0.0845 2.6861
-7.1620 -0.1531 2.6861
-7.0986 -0.2206 2.6861
-7.0354 -0.2869 2.6861
-6.9726 -0.3522 2.6861
-6.9101 -0.4164 2.6861
-6.8479 -0.4796 2.6861
-6.7859 -0.5418 2.6861
-6.7243 -0.6029 2.6861
-6.6630 -0.6631 2.6861
-6.6019 -0.7223 2.6861
-6.5412 -0.7806 2.6861
-6.4807 -0.8379 2.6861
-6.4205 -0.8942 2.6861
-6.3606 -0.9497 2.6861
-6.3009 -1.0043 2.6861
-6.2416 -1.0580 2.6861
-6.1825 -1.1109 2.6861
-6.1236 -1.1629 2.6861
-6.0651 -1.2141 2.6861
-6.0068 -1.2645 2.6861
-5.9487 -1.3140 2.6861
-5.8909 -1.3628 2.6861
-5.8334 -1.4108 2.6861
-5.7761 -1.4580 2.6861
-5.7382 -1.5096 2.6951
-5.7342 -1.5700 2.7202
-5.7301 -1.6307 2.7457
-5.7260 -1.6918 2.7715
-5.7217 -1.7532 2.7977
-5.7175 -1.8150 2.8244
-5.6873 -1.8687 2.8385
-5.6287 -1.9126 2.8385
-5.5705 -1.9558 2.8385
-5.5124 -1.9983 2.8385
-5.4546 -2.0402 2.8385
-5.3970 -2.0814 2.8385
-5.3397 -2.1219 2.8385
-5.2826 -2.1618 2.8385
-5.2257 -2.2010 2.8385
-5.1690 -2.2396 2.8385
-5.1125 -2.2777 2.8385
-5.0563 -2.3150 2.8385
-5.0003 -2.3518 2.8385
-4.9444 -2.3880 2.8385
-4.8888 -2.4236 2.8385
-4.8334 -2.4587 2.8385
-4.7782 -2.4931 2.8385
-4.7232 -2.5271 2.8385
-4.6683 -2.5604 2.8385
-4.6137 -2.5933 2.8385
-4.5593 -2.6255 2.8385
-4.5050 -2.6573 2.8385
-4.4510 -2.6885 2.8385
-4.3971 -2.7192 2.8385
-4.3434 -2.7495 2.8385
-4.2899 -2.7792 2.8385
-4.2366 -2.8084 2.8385
-4.1834 -2.8371 2.8385
-4.1304 -2.8654 2.8385
-4.0776 -2.8932 2.8385
-4.0249 -2.9205 2.8385
-3.9724 -2.9473 2.8385
-3.9201 -2.9737 2.8385
-3.8679 -2.9996 2.8385
-3.8159 -3.0251 2.8385
-3.7640 -3.0502 2.8385
-3.7123 -3.0748 2.8385
-3.6607 -3.0990 2.8385
-3.6093 -3.1227 2.8385
-3.5580 -3.1461 2.8385
-3.5069 -3.1690 2.8385
-3.4559 -3.1915 2.8385
-3.4050 -3.2136 2.8385
-3.3543 -3.2353 2.8385
-3.3037 -3.2566 2.8385
-3.2533 -3.2775 2.8385
-3.2029 -3.2980 2.8385
-3.0029 -3.3763 2.8385
-3.1528 -3.3182 2.8385
-2.9532 -3.3950 2.8385
-3.1027 -3.3379 2.8385
-2.9036 -3.4133 2.8385
-3.0527 -3.3573 2.8385
-2.8541 -3.4312 2.8385
-2.8047 -3.4487 2.8385
-2.6084 -3.5154 2.8385
-2.7555 -3.4659 2.8385
-2.5595 -3.5313 2.8385
-2.7063 -3.4828 2.8385
-2.5108 -3.5467 2.8385
-2.6573 -3.4993 2.8385
-2.4621 -3.5619 2.8385
-2.4136 -3.5767 2.8385
-2.2203 -3.6327 2.8385
-2.3651 -3.5912 2.8385
-2.1722 -3.6459 2.8385
-2.3168 -3.6053 2.8385
-2.1242 -3.6587 2.8385
-2.2685 -3.6191 2.8385
-2.0763 -3.6713 2.8385
-2.0284 -3.6835 2.8385
-1.8378 -3.7294 2.8385
-1.9807 -3.6954 2.8385
-1.7903 -3.7402 2.8385
-1.9330 -3.7071 2.8385
-1.7429 -3.7506 2.8385
-1.8853 -3.7184 2.8385
-1.6956 -3.7607 2.8385
-1.6483 -3.7705 2.8385
-1.4598 -3.8069 2.8385
-1.6011 -3.7801 2.8385
-1.4128 -3.8153 2.8385
-1.5539 -3.7893 2.8385
-1.3658 -3.8234 2.8385
-1.5068 -3.7982 2.8385
-1.3190 -3.8312 2.8385
-1.2721 -3.8387 2.8385
-1.0853 -3.8660 2.8385
-1.2254 -3.8460 2.8385
-1.0387 -3.8722 2.8385
-1.1786 -3.8529 2.8385
-0.8975 -3.5080 2.5677
-1.1319 -3.8596 2.8385
-0.8542 -3.5080 2.5640
-0.8110 -3.5080 2.5605
-0.7681 -3.5080 2.5572
-6.9058 0.7559 2.6861
-6.8548 0.6842 2.6861
-6.8039 0.6135 2.6861
-6.7531 0.5438 2.6861
-6.7023 0.4752 2.6861
-6.6516 0.4076 2.6861
-6.6009 0.3409 2.6861
-6.5504 0.2753 2.6861
-6.4999 0.2105 2.6861
-6.4494 0.1468 2.6861
-6.3991 0.0839 2.6861
-6.3488 0.0220 2.6861
-6.2986 -0.0391 2.6861
-6.2485 -0.0992 2.6861
-6.1985 -0.1585 2.6861
-6.1485 -0.2169 2.6861
-6.0987 -0.2744 2.6861
-6.0490 -0.3312 2.6861
-5.9993 -0.3871 2.6861
-5.9497 -0.4422 2.6861
-5.9003 -0.4965 2.6861
-5.8509 -0.5499 2.6861
-5.8017 -0.6026 2.6861
-5.7525 -0.6546 2.6861
-5.7352 -0.7097 2.7010
-5.7317 -0.7666 2.7228
-5.7282 -0.8236 2.7448
-5.7246 -0.8808 2.7671
-5.7210 -0.9382 2.7898
-5.7173 -0.9957 2.8128
-5.7136 -1.0534 2.8361
-5.6672 -1.1032 2.8385
-5.6163 -1.1513 2.8385
-5.5654 -1.1987 2.8385
-5.5147 -1.2454 2.8385
-5.4641 -1.2915 2.8385
-5.4136 -1.3368 2.8385
-5.3632 -1.3815 2.8385
-5.3129 -1.4256 2.8385
-5.2627 -1.4690 2.8385
-5.2127 -1.5117 2.8385
-5.1627 -1.5538 2.8385
-5.1129 -1.5954 2.8385
-5.0632 -1.6363 2.8385
-5.0136 -1.6765 2.8385
-4.9641 -1.7162 2.8385
-4.9148 -1.7553 2.8385
-4.8655 -1.7939 2.8385
-4.8163 -1.8318 2.8385
-4.7673 -1.8692 2.8385
-4.7184 -1.9060 2.8385
-4.6696 -1.9423 2.8385
-4.6209 -1.9780 2.8385
-4.5723 -2.0132 2.8385
-4.5238 -2.0479 2.8385
-4.4754 -2.0820 2.8385
-4.4271 -2.1156 2.8385
-4.3790 -2.1487 2.8385
-4.3309 -2.1813 2.8385
-4.2829 -2.2134 2.8385
-4.2351 -2.2450 2.8385
-4.1873 -2.2762 2.8385
-4.1397 -2.3068 2.8385
-4.0921 -2.3370 2.8385
-4.0447 -2.3667 2.8385
-3.9974 -2.3959 2.8385
-3.9501 -2.4246 2.8385
-3.9030 -2.4529 2.8385
-3.8559 -2.4808 2.8385
-3.8090 -2.5083 2.8385
-3.7621 -2.5352 2.8385
-3.7154 -2.5618 2.8385
-3.6687 -2.5879 2.8385
-3.6222 -2.6136 2.8385
-3.5757 -2.6389 2.8385
-3.5293 -2.6637 2.8385
-3.4830 -2.6882 2.8385
-3.4368 -2.7122 2.8385
-3.3907 -2.7359 2.8385
-3.3447 -2.7591 2.8385
-3.2987 -2.7819 2.8385
-3.2528 -2.8044 2.8385
-3.2071 -2.8264 2.8385
-3.1614 -2.8481 2.8385
-3.1158 -2.8695 2.8385
-3.0703 -2.8904 2.8385
-3.0248 -2.9109 2.8385
-2.9794 -2.9311 2.8385
-2.9342 -2.9510 2.8385
-2.8889 -2.9704 2.8385
-2.8438 -2.9895 2.8385
-2.7987 -3.0083 2.8385
-2.7538 -3.0267 2.8385
-2.7088 -3.0448 2.8385
-2.6640 -3.0625 2.8385
-2.6192 -3.0798 2.8385
-2.5745 -3.0969 2.8385
-2.5299 -3.1136 2.8385
-2.4853 -3.1299 2.8385
-2.4408 -3.1459 2.8385
-2.3964 -3.1617 2.8385
-2.3520 -3.1770 2.8385
-2.3077 -3.1921 2.8385
-2.2634 -3.2068 2.8385
-2.2193 -3.2213 2.8385
-2.1751 -3.2353 2.8385
-2.1310 -3.2491 2.8385
-2.0870 -3.2626 2.8385
-2.0431 -3.2758 2.8385
-1.9992 -3.2886 2.8385
-1.9553 -3.3012 2.8385
-1.9115 -3.3134 2.8385
-1.8678 -3.3254 2.8385
-1.8241 -3.3370 2.8385
-1.7804 -3.3484 2.8385
-1.7368 -3.3595 2.8385
-1.6933 -3.3702 2.8385
-1.6497 -3.3807 2.8385
-1.6063 -3.3909 2.8385
-1.5629 -3.4008 2.8385
-1.5195 -3.4104 2.8385
-1.4761 -3.4198 2.8385
-1.4328 -3.4288 2.8385
-1.3896 -3.4376 2.8385
-1.3464 -3.4461 2.8385
-1.3032 -3.4543 2.8385
-1.2600 -3.4622 2.8385
-1.2169 -3.4698 2.8385
-1.1738 -3.4772 2.8385
-1.1308 -3.4843 2.8385
-1.0877 -3.4912 2.8385
-1.0447 -3.4977 2.8385
-1.0018 -3.5040 2.8385
-0.9588 -3.5100 2.8385
-0.9159 -3.5158 2.8385
-0.8730 -3.5213 2.8385
-0.8302 -3.5265 2.8385
-0.7873 -3.5314 2.8385
-6.0782 0.7603 2.6861
-6.0386 0.6971 2.6861
-5.9989 0.6347 2.6861
-5.9592 0.5731 2.6861
-5.9193 0.5123 2.6861
-5.8794 0.4523 2.6861
-5.8393 0.3931 2.6861
-5.7992 0.3346 2.6861
-5.7591 0.2769 2.6861
-5.7341 0.2205 2.6932
-5.7313 0.1652 2.7110
-5.7284 0.1100 2.7290
-5.7255 0.0547 2.7473
-5.7226 -0.0005 2.7659
-5.7196 -0.0559 2.7847
-5.7165 -0.1112 2.8038
-5.7134 -0.1665 2.8232
-5.7015 -0.2218 2.8385
-5.6586 -0.2751 2.8385
-5.6156 -0.3278 2.8385
-5.5727 -0.3799 2.8385
-5.5297 -0.4312 2.8385
-5.4867 -0.4819 2.8385
-5.4437 -0.5319 2.8385
-5.4007 -0.5813 2.8385
-5.3577 -0.6300 2.8385
-5.3147 -0.6780 2.8385
-5.2717 -0.7254 2.8385
-5.2287 -0.7722 2.8385
-5.1857 -0.8183 2.8385
-5.1426 -0.8639 2.8385
-5.0996 -0.9088 2.8385
-5.0567 -0.9531 2.8385
-5.0137 -0.9968 2.8385
-4.9707 -1.0399 2.8385
-4.9278 -1.0825 2.8385
-4.8848 -1.1244 2.8385
-4.8419 -1.1658 2.8385
-4.7990 -1.2066 2.8385
-4.7561 -1.2469 2.8385
-4.7133 -1.2866 2.8385
-4.6705 -1.3258 2.8385
-4.6276 -1.3644 2.8385
-4.5849 -1.4025 2.8385
-4.5421 -1.4401 2.8385
-4.4994 -1.4771 2.8385
-4.4567 -1.5137 2.8385
-4.4141 -1.5497 2.8385
-4.3715 -1.5852 2.8385
-4.3289 -1.6202 2.8385
-4.2863 -1.6547 2.8385
-4.2438 -1.6888 2.8385
-4.2013 -1.7224 2.8385
-4.1589 -1.7555 2.8385
-4.1165 -1.7880 2.8385
-4.0741 -1.8202 2.8385
-4.0318 -1.8519 2.8385
-3.9895 -1.8831 2.8385
-3.9472 -1.9138 2.8385
-3.9050 -1.9442 2.8385
-3.8628 -1.9741 2.8385
-3.8207 -2.0035 2.8385
-3.6945 -2.0893 2.8385
-3.7786 -2.0325 2.8385
-3.6526 -2.1170 2.8385
-3.6106 -2.1443 2.8385
-3.7366 -2.0611 2.8385
-3.5688 -2.1712 2.8385
-3.5269 -2.1977 2.8385
-3.3600 -2.2996 2.8385
-3.4851 -2.2238 2.8385
-3.3184 -2.3241 2.8385
-3.4434 -2.2494 2.8385
-3.2768 -2.3482 2.8385
-3.4017 -2.2747 2.8385
-3.2352 -2.3720 2.8385
-3.1937 -2.3953 2.8385
-3.0281 -2.4850 2.8385
-2.8632 -2.5689 2.8385
-3.1523 -2.4183 2.8385
-2.9869 -2.5065 2.8385
-2.8221 -2.5890 2.8385
-3.1108 -2.4409 2.8385
-2.7810 -2.6088 2.8385
-2.9456 -2.5277 2.8385
-3.0695 -2.4632 2.8385
-2.7400 -2.6282 2.8385
-2.9044 -2.5485 2.8385
-2.6990 -2.6473 2.8385
-2.5353 -2.7202 2.8385
-2.6580 -2.6660 2.8385
-2.3723 -2.7878 2.8385
-2.4945 -2.7376 2.8385
-2.6171 -2.6844 2.8385
-2.3317 -2.8040 2.8385
-2.4538 -2.7547 2.8385
-2.5762 -2.7024 2.8385
-2.2910 -2.8198 2.8385
-2.4130 -2.7714 2.8385
-2.2099 -2.8504 2.8385
-2.2504 -2.8352 2.8385
-2.0480 -2.9080 2.8385
-2.1694 -2.8653 2.8385
-1.8867 -2.9609 2.8385
-2.0076 -2.9217 2.8385
-2.1289 -2.8799 2.8385
-1.8464 -2.9733 2.8385
-1.9673 -2.9351 2.8385
-2.0884 -2.8941 2.8385
-1.8062 -2.9855 2.8385
-1.9270 -2.9481 2.8385
-1.7258 -3.0090 2.8385
-1.7660 -2.9974 2.8385
-1.5654 -3.0526 2.8385
-1.6857 -3.0203 2.8385
-1.4054 -3.0916 2.8385
-1.5254 -3.0627 2.8385
-1.6456 -3.0313 2.8385
-1.3655 -3.1007 2.8385
-1.4854 -3.0727 2.8385
-1.6055 -3.0421 2.8385
-1.3256 -3.1095 2.8385
-1.4454 -3.0823 2.8385
-1.2459 -3.1263 2.8385
-1.2857 -3.1180 2.8385
-1.0866 -3.1566 2.8385
-1.2060 -3.1343 2.8385
-1.1662 -3.1420 2.8385
-1.0468 -3.1635 2.8385
-1.1264 -3.1494 2.8385
-1.0071 -3.1702 2.8385
-0.9276 -3.1827 2.8385
-0.9674 -3.1766 2.8385
-0.8879 -3.1886 2.8385
-0.8483 -3.1942 2.8385
-0.8086 -3.1995 2.8385
-0.7689 -3.2046 2.8385
-0.7293 -3.2094 2.8385
-5.7084 0.8072 2.8382
-5.6759 0.7478 2.8385
-5.6425 0.6891 2.8385
-5.6090 0.6310 2.8385
-5.5753 0.5736 2.8385
-5.5415 0.5168 2.8385
-5.5074 0.4607 2.8385
-5.4732 0.4053 2.8385
-5.4389 0.3506 2.8385
-5.4044 0.2964 2.8385
-5.3698 0.2429 2.8385
-5.3350 0.1901 2.8385
-5.3001 0.1378 2.8385
-5.2650 0.0862 2.8385
-5.2298 0.0352 2.8385
-5.1946 -0.0152 2.8385
-5.1592 -0.0651 2.8385
-5.1236 -0.1142 2.8385
-5.0880 -0.1629 2.8385
-5.0523 -0.2109 2.8385
-5.0165 -0.2583 2.8385
-4.9806 -0.3052 2.8385
-4.9446 -0.3515 2.8385
-4.9085 -0.3972 2.8385
-4.8723 -0.4424 2.8385
-4.8360 -0.4871 2.8385
-4.7997 -0.5311 2.8385
-4.7633 -0.5747 2.8385
-4.7268 -0.6177 2.8385
-4.6903 -0.6602 2.8385
-4.6537 -0.7021 2.8385
-4.6170 -0.7435 2.8385
-4.5803 -0.7844 2.8385
-4.5435 -0.8248 2.8385
-4.5067 -0.8647 2.8385
-4.4698 -0.9040 2.8385
-4.4329 -0.9429 2.8385
-4.3960 -0.9813 2.8385
-4.3590 -1.0192 2.8385
-4.3219 -1.0566 2.8385
-4.2848 -1.0935 2.8385
-4.2477 -1.1300 2.8385
-4.2106 -1.1659 2.8385
-4.1734 -1.2015 2.8385
-4.1362 -1.2365 2.8385
-4.0989 -1.2711 2.8385
-4.0617 -1.3052 2.8385
-4.0244 -1.3389 2.8385
-3.9871 -1.3722 2.8385
-3.9497 -1.4050 2.8385
-3.9124 -1.4373 2.8385
-3.8750 -1.4693 2.8385
-3.8377 -1.5008 2.8385
-3.8003 -1.5318 2.8385
-3.7629 -1.5625 2.8385
-3.7254 -1.5927 2.8385
-3.6880 -1.6226 2.8385
-3.6506 -1.6520 2.8385
-3.6131 -1.6810 2.8385
-3.5757 -1.7096 2.8385
-3.5382 -1.7378 2.8385
-3.5008 -1.7656 2.8385
-3.3884 -1.8467 2.8385
-3.4633 -1.7930 2.8385
-3.3509 -1.8729 2.8385
-3.4258 -1.8200 2.8385
-3.3134 -1.8988 2.8385
-3.2385 -1.9494 2.8385
-3.2760 -1.9243 2.8385
-3.2011 -1.9742 2.8385
-3.0887 -2.0463 2.8385
-3.1636 -1.9986 2.8385
-3.0513 -2.0696 2.8385
-3.1261 -2.0226 2.8385
-3.0138 -2.0925 2.8385
-2.9390 -2.1374 2.8385
-2.9764 -2.1152 2.8385
-2.9015 -2.1593 2.8385
-2.7894 -2.2230 2.8385
-2.8641 -2.1809 2.8385
-2.7520 -2.2436 2.8385
-2.8267 -2.2021 2.8385
-2.7146 -2.2637 2.8385
-2.6399 -2.3032 2.8385
-2.6772 -2.2836 2.8385
-2.6026 -2.3224 2.8385
-2.4906 -2.3782 2.8385
-2.5652 -2.3413 2.8385
-2.4533 -2.3962 2.8385
-2.5279 -2.3600 2.8385
-2.4160 -2.4138 2.8385
-2.3415 -2.4482 2.8385
-2.3788 -2.4311 2.8385
-2.3042 -2.4648 2.8385
-2.1926 -2.5132 2.8385
-2.2670 -2.4812 2.8385
-2.1554 -2.5287 2.8385
-2.2298 -2.4974 2.8385
-2.1182 -2.5438 2.8385
-2.0439 -2.5733 2.8385
-2.0810 -2.5588 2.8385
-2.0067 -2.5877 2.8385
-1.8954 -2.6289 2.8385
-1.9696 -2.6017 2.8385
-1.8583 -2.6421 2.8385
-1.7471 -2.6798 2.8385
-1.8212 -2.6549 2.8385
-1.9325 -2.6154 2.8385
-1.7100 -2.6919 2.8385
-1.7841 -2.6675 2.8385
-1.5990 -2.7263 2.8385
-1.6730 -2.7036 2.8385
-1.4511 -2.7684 2.8385
-1.5620 -2.7372 2.8385
-1.6360 -2.7151 2.8385
-1.4141 -2.7782 2.8385
-1.5250 -2.7479 2.8385
-1.3034 -2.8062 2.8385
-1.1558 -2.8398 2.8385
-1.3772 -2.7878 2.8385
-1.4880 -2.7583 2.8385
-1.2665 -2.8150 2.8385
-1.1189 -2.8475 2.8385
-1.3403 -2.7972 2.8385
-1.0084 -2.8692 2.8385
-1.2296 -2.8235 2.8385
-1.0821 -2.8550 2.8385
-0.9716 -2.8759 2.8385
-1.1927 -2.8318 2.8385
-1.0452 -2.8622 2.8385
-0.9348 -2.8823 2.8385
-0.8979 -2.8885 2.8385
-0.8611 -2.8945 2.8385
-0.8243 -2.9002 2.8385
-0.7875 -2.9056 2.8385
-0.7508 -2.9108 2.8385
-0.7140 -2.9157 2.8385
-0.6772 -2.9204 2.8385
-5.1126 0.8105 2.8385
-5.0046 0.6006 2.8385
-5.0859 0.7572 2.8385
-4.8931 0.3994 2.8385
-4.9770 0.5495 2.8385
-5.0590 0.7045 2.8385
-4.8647 0.3505 2.8385
-4.9493 0.4990 2.8385
-5.0319 0.6523 2.8385
-4.7784 0.2067 2.8385
-4.8361 0.3020 2.8385
-4.9213 0.4489 2.8385
-4.6609 0.0222 2.8385
-4.7493 0.1598 2.8385
-4.8074 0.2541 2.8385
-4.5409 -0.1544 2.8385
-4.6311 -0.0227 2.8385
-4.7200 0.1134 2.8385
-4.5105 -0.1974 2.8385
-4.2943 -0.4845 2.8385
-4.4186 -0.3232 2.8385
-4.6012 -0.0671 2.8385
-4.6905 0.0675 2.8385
-4.4800 -0.2398 2.8385
-4.2630 -0.5237 2.8385
-4.3877 -0.3642 2.8385
-4.5711 -0.1110 2.8385
-4.1683 -0.6385 2.8385
-4.4494 -0.2818 2.8385
-4.2315 -0.5624 2.8385
-4.3567 -0.4048 2.8385
-4.0407 -0.7854 2.8385
-4.1365 -0.6758 2.8385
-3.9117 -0.9253 2.8385
-4.2000 -0.6006 2.8385
-4.3256 -0.4449 2.8385
-4.0086 -0.8210 2.8385
-4.1047 -0.7128 2.8385
-3.8793 -0.9593 2.8385
-3.7815 -1.0586 2.8385
-3.6503 -1.1855 2.8385
-3.9764 -0.8562 2.8385
-4.0727 -0.7493 2.8385
-3.8467 -0.9928 2.8385
-3.6173 -1.2162 2.8385
-3.9441 -0.8910 2.8385
-3.7488 -1.0909 2.8385
-3.5181 -1.3060 2.8385
-3.8142 -1.0259 2.8385
-3.3852 -1.4205 2.8385
-3.5843 -1.2465 2.8385
-3.7160 -1.1229 2.8385
-3.4849 -1.3352 2.8385
-3.2515 -1.5291 2.8385
-3.3518 -1.4482 2.8385
-3.5512 -1.2765 2.8385
-3.6832 -1.1544 2.8385
-3.4517 -1.3641 2.8385
-3.2180 -1.5553 2.8385
-3.3184 -1.4755 2.8385
-2.9826 -1.7292 2.8385
-3.1173 -1.6319 2.8385
-3.4185 -1.3925 2.8385
-3.1845 -1.5812 2.8385
-3.2850 -1.5025 2.8385
-2.9488 -1.7526 2.8385
-2.8474 -1.8210 2.8385
-3.0837 -1.6567 2.8385
-3.1509 -1.6067 2.8385
-2.7120 -1.9076 2.8385
-2.9151 -1.7758 2.8385
-2.8136 -1.8431 2.8385
-3.0500 -1.6812 2.8385
-2.6780 -1.9285 2.8385
-2.5762 -1.9891 2.8385
-2.8813 -1.7986 2.8385
-2.7797 -1.8650 2.8385
-3.0163 -1.7054 2.8385
-2.6441 -1.9490 2.8385
-2.5422 -2.0087 2.8385
-2.4402 -2.0656 2.8385
-2.3040 -2.1372 2.8385
-2.7459 -1.8865 2.8385
-2.6102 -1.9692 2.8385
-2.5082 -2.0279 2.8385
-2.2699 -2.1544 2.8385
-2.4061 -2.0839 2.8385
-2.0311 -2.2664 2.8385
-2.1676 -2.2041 2.8385
-2.4742 -2.0469 2.8385
-2.2358 -2.1713 2.8385
-2.3721 -2.1020 2.8385
-1.9970 -2.2812 2.8385
-2.1335 -2.2201 2.8385
-1.8945 -2.3241 2.8385
-2.2017 -2.1878 2.8385
-2.3380 -2.1197 2.8385
-1.9628 -2.2958 2.8385
-2.0994 -2.2358 2.8385
-1.8604 -2.3379 2.8385
-1.9287 -2.3101 2.8385
-1.6212 -2.4264 2.8385
-1.7579 -2.3774 2.8385
-2.0652 -2.2512 2.8385
-1.8262 -2.3514 2.8385
-1.4845 -2.4712 2.8385
-1.5871 -2.4380 2.8385
-1.7237 -2.3901 2.8385
-1.3478 -2.5117 2.8385
-1.7921 -2.3645 2.8385
-1.4503 -2.4817 2.8385
-1.5529 -2.4493 2.8385
-1.6896 -2.4025 2.8385
-1.3136 -2.5212 2.8385
-1.2111 -2.5481 2.8385
-1.4162 -2.4919 2.8385
-1.5187 -2.4603 2.8385
-1.6554 -2.4146 2.8385
-1.2794 -2.5304 2.8385
-1.1769 -2.5566 2.8385
-1.3820 -2.5020 2.8385
-1.0743 -2.5805 2.8385
-1.2452 -2.5394 2.8385
-0.9376 -2.6089 2.8385
-1.1427 -2.5648 2.8385
-0.8009 -2.6333 2.8385
-1.0401 -2.5880 2.8385
-0.9034 -2.6154 2.8385
-0.7667 -2.6388 2.8385
-1.1085 -2.5728 2.8385
-1.0060 -2.5952 2.8385
-0.8692 -2.6216 2.8385
-0.7325 -2.6441 2.8385
-0.9718 -2.6022 2.8385
-0.8351 -2.6276 2.8385
-0.6984 -2.6491 2.8385
-0.6642 -2.6538 2.8385
-0.6300 -2.6584 2.8385
