ply
format ascii 1.0
element vertex 2176
property float32 x
property float32 y
property float32 z
end_header
-6.7029 -7.5242 0.3949
-21.7034 -26.3536 1.5903
-6.5700 -7.5205 0.4101
-6.4395 -7.5170 0.4249
-21.7054 -26.8839 1.6716
-6.3113 -7.5137 0.4393
-21.7074 -27.4276 1.7543
-21.7095 -27.9851 1.8385
-21.7116 -28.5572 1.9243
-21.7138 -29.1445 2.0117
-21.7329 -31.0227 2.2859
-21.7161 -29.7478 2.1008
-21.7354 -31.6791 2.3809
-21.6342 -30.2500 2.1833
-21.7379 -32.3550 2.4780
-21.7992 -33.8561 2.6859
-21.7405 -33.0513 2.5773
-20.9858 -33.3032 2.6859
-19.7396 -33.4632 2.8239
-20.2128 -32.7826 2.6859
-19.1319 -33.1709 2.8383
-19.7562 -32.7548 2.7244
-18.4544 -32.7327 2.8383
-17.1830 -31.9245 2.8383
-17.8055 -32.3178 2.8383
-16.5852 -31.5513 2.8383
-14.9232 -30.5405 2.8383
-16.0103 -31.1970 2.8383
-14.4083 -30.2362 2.8383
-15.4568 -30.8604 2.8383
-13.9108 -29.9465 2.8383
-12.9638 -29.4080 2.8383
-7.1892 -15.8833 1.5194
-12.5123 -29.1577 2.8383
-12.0742 -28.9192 2.8383
-11.2353 -28.4749 2.8383
-10.8330 -28.2682 2.8383
-11.6488 -28.6918 2.8383
-10.4412 -28.0710 2.8383
-9.1667 -26.2161 2.6859
-10.0594 -27.8830 2.8383
-8.8226 -26.0543 2.6859
-8.4863 -25.9001 2.6859
-7.8355 -25.6132 2.6859
-8.1574 -25.7532 2.6859
-7.2447 -24.5466 2.5875
-6.6100 -25.1175 2.6859
-7.2110 -25.3529 2.6859
-6.3174 -25.0086 2.6859
-6.9078 -25.2323 2.6859
-6.0298 -24.9053 2.6859
-5.7763 -26.1081 2.8373
-5.7950 -25.0156 2.7084
-4.6359 -25.7529 2.8356
-5.4867 -26.0181 2.8376
-4.3595 -25.6744 2.8350
-5.1992 -25.9245 2.8369
-4.0864 -25.6009 2.8343
-4.9157 -25.8361 2.8363
-3.8161 -25.5320 2.8337
-3.5487 -25.4677 2.8330
-2.5024 -25.2547 2.8306
-3.2838 -25.4080 2.8324
-2.2458 -25.2121 2.8300
-3.0212 -25.3526 2.8318
-1.9907 -25.1736 2.8294
-2.7608 -25.3015 2.8312
-1.7371 -25.1392 2.8288
-1.4847 -25.1088 2.8282
-0.4843 -25.0268 2.8258
-1.2334 -25.0825 2.8276
-0.2357 -25.0160 2.8252
-0.9830 -25.0600 2.8270
0.0127 -25.0091 2.8246
-0.7334 -25.0414 2.8264
0.2610 -25.0060 2.8241
0.5094 -25.0068 2.8235
1.5067 -25.0486 2.8211
0.7580 -25.0114 2.8229
1.7579 -25.0688 2.8205
1.0069 -25.0199 2.8223
2.0100 -25.0928 2.8199
1.2565 -25.0323 2.8217
2.2634 -25.1208 2.8193
2.5182 -25.1528 2.8187
3.5547 -25.3223 2.8162
2.7745 -25.1889 2.8181
3.8191 -25.3754 2.8156
3.0326 -25.2292 2.8175
4.0860 -25.4328 2.8150
3.2926 -25.2737 2.8168
4.3557 -25.4947 2.8143
4.6283 -25.5612 2.8137
5.7523 -25.8752 2.8110
4.9040 -25.6323 2.8130
6.0430 -25.9664 2.8103
5.1830 -25.7083 2.8123
6.3381 -26.0629 2.8096
5.4657 -25.7893 2.8117
6.6243 -26.1120 2.8032
6.9032 -26.1242 2.7923
8.0374 -26.1786 2.7437
7.1848 -26.1400 2.7812
8.3278 -26.1990 2.7308
7.4666 -26.1507 2.7690
8.6225 -26.2261 2.7181
7.7502 -26.1617 2.7563
9.2230 -26.2915 2.6919
8.9207 -26.2566 2.7051
10.3401 -26.1289 2.6025
9.5018 -26.2542 2.6707
10.6249 -26.0942 2.5793
9.7788 -26.2089 2.6481
10.9126 -26.0631 2.5559
10.0581 -26.1671 2.6254
11.2035 -26.0355 2.5322
11.4978 -26.0115 2.5082
12.7134 -25.9517 2.4093
11.7958 -25.9911 2.4840
13.0280 -25.9460 2.3837
12.0975 -25.9743 2.4594
13.3475 -25.9440 2.3577
12.4033 -25.9611 2.4345
13.6720 -25.9459 2.3313
14.0019 -25.9517 2.3044
6.3900 -9.9024 0.7842
15.3812 -26.0151 2.1922
14.3374 -25.9614 2.2771
6.3727 -9.6671 0.7525
15.7427 -26.0415 2.1627
14.6790 -25.9752 2.2493
6.3795 -9.4748 0.7243
6.5650 -10.6238 0.8690
6.4490 -10.2114 0.8222
6.3861 -9.2877 0.6966
15.0267 -25.9930 2.2210
-21.2150 -23.3904 2.6859
-20.5243 -23.0790 2.6859
-19.8658 -22.7841 2.6859
-19.6933 -23.5012 2.8383
-19.7260 -23.0765 2.7542
-19.0851 -23.2347 2.8383
-17.4052 -22.5106 2.8383
-18.5022 -22.9814 2.8383
-16.8881 -22.2915 2.8383
-17.9427 -22.7402 2.8383
-16.3903 -22.0825 2.8383
-15.4474 -21.6923 2.8383
-15.9104 -21.8830 2.8383
-15.0003 -21.5100 2.8383
-13.7447 -21.0088 2.8383
-14.5680 -21.3356 2.8383
-13.3521 -20.8557 2.8383
-14.1498 -21.1687 2.8383
-12.9713 -20.7089 2.8383
-12.2424 -20.4329 2.8383
-12.6016 -20.5680 2.8383
-11.8931 -20.3033 2.8383
-10.8999 -19.9446 2.8383
-11.5533 -20.1789 2.8383
-10.5854 -19.8344 2.8383
-11.2223 -20.0594 2.8383
-10.2785 -19.7284 2.8383
-9.9789 -19.6266 2.8383
-9.1660 -18.4803 2.6859
-8.8952 -18.3911 2.6859
-7.1281 -15.9344 2.3588
-8.6302 -18.3056 2.6859
-7.8676 -18.0682 2.6859
-7.6234 -17.9952 2.6859
-8.3708 -18.2233 2.6859
-7.3838 -17.9250 2.6859
-7.1485 -17.8576 2.6859
-6.2470 -17.6135 2.6859
-6.9174 -17.7928 2.6859
-6.6902 -17.7306 2.6859
-6.4668 -17.6708 2.6859
-6.0306 -17.5585 2.6859
-5.8175 -17.5057 2.6859
-5.7065 -18.3937 2.8382
-5.7679 -17.9546 2.7627
-5.4897 -18.3414 2.8377
-5.2757 -18.2913 2.8372
-4.8559 -18.1975 2.8362
-5.0645 -18.2434 2.8367
-4.6498 -18.1537 2.8357
-4.0452 -18.0339 2.8343
-3.8478 -17.9977 2.8338
-4.4461 -18.1119 2.8352
-3.6523 -17.9633 2.8333
-4.2446 -18.0719 2.8347
-3.4586 -17.9307 2.8329
-3.2666 -17.8998 2.8324
-2.5132 -17.7929 2.8306
-2.3280 -17.7702 2.8302
-3.0761 -17.8705 2.8319
-2.1440 -17.7491 2.8297
-2.8871 -17.8430 2.8315
-1.9610 -17.7296 2.8293
-2.6995 -17.8171 2.8310
-1.7789 -17.7116 2.8288
-1.5976 -17.6952 2.8284
-1.0581 -17.6548 2.8271
-1.4171 -17.6802 2.8280
-0.8794 -17.6443 2.8267
-1.2373 -17.6668 2.8275
-0.7011 -17.6352 2.8263
-0.3456 -17.6214 2.8254
-0.5232 -17.6276 2.8258
-0.1682 -17.6167 2.8250
0.3636 -17.6111 2.8237
0.0091 -17.6134 2.8246
0.1863 -17.6116 2.8241
0.5410 -17.6121 2.8233
1.0745 -17.6238 2.8220
0.7185 -17.6146 2.8229
1.2531 -17.6305 2.8216
1.4321 -17.6388 2.8211
0.8963 -17.6185 2.8224
1.6118 -17.6484 2.8207
1.7920 -17.6596 2.8203
2.5214 -17.7192 2.8185
2.7062 -17.7379 2.8181
1.9731 -17.6722 2.8199
2.8922 -17.7582 2.8177
2.1549 -17.6864 2.8194
3.0794 -17.7801 2.8172
2.3376 -17.7020 2.8190
3.2680 -17.8036 2.8168
3.4580 -17.8288 2.8163
4.0378 -17.9143 2.8149
3.6496 -17.8556 2.8158
4.2346 -17.9463 2.8144
3.8428 -17.8841 2.8154
4.8373 -18.0532 2.8130
4.4334 -17.9801 2.8140
5.0427 -18.0925 2.8125
4.6342 -18.0157 2.8135
5.2505 -18.1339 2.8120
5.6740 -18.2227 2.8110
5.4609 -18.1772 2.8115
6.5519 -18.4133 2.8069
5.8900 -18.2702 2.8105
6.7606 -18.4151 2.7981
6.1089 -18.3199 2.8100
6.9712 -18.4182 2.7891
6.3311 -18.3719 2.8094
7.1840 -18.4228 2.7800
8.2840 -18.4676 2.7326
7.3990 -18.4287 2.7707
8.5123 -18.4816 2.7227
7.6165 -18.4364 2.7614
8.7435 -18.4970 2.7127
7.8359 -18.4444 2.7518
8.9780 -18.5142 2.7026
8.0588 -18.4557 2.7423
9.2158 -18.5330 2.6922
9.4542 -18.5478 2.6809
10.1506 -18.5289 2.6353
9.6896 -18.5519 2.6676
10.3781 -18.5061 2.6169
9.9215 -18.5449 2.6523
10.6085 -18.4851 2.5984
11.0811 -18.4522 2.5614
6.6808 -10.8795 1.5003
10.8433 -18.4681 2.5801
6.4658 -10.2995 1.4106
6.3709 -9.7165 1.3117
6.4053 -9.9826 1.3575
6.3778 -9.5207 1.2755
6.3846 -9.3303 1.2402
4.8490 -6.9384 0.9147
-14.6693 -15.8840 2.8383
-14.2994 -15.7939 2.8383
-13.9408 -15.7074 2.8383
-13.5929 -15.6242 2.8383
-13.2551 -15.5441 2.8383
-12.9268 -15.4671 2.8383
-12.6076 -15.3929 2.8383
-12.2971 -15.3215 2.8383
-11.9948 -15.2527 2.8383
-11.7002 -15.1864 2.8383
-11.4131 -15.1224 2.8383
-11.1331 -15.0608 2.8383
-10.8598 -15.0013 2.8383
-10.5929 -14.9438 2.8383
-10.3322 -14.8885 2.8383
-10.0773 -14.8350 2.8383
-9.8279 -14.7833 2.8383
-9.0693 -13.9424 2.6859
-8.8433 -13.8968 2.6859
-8.6218 -13.8528 2.6859
-8.4048 -13.8103 2.6859
-8.1920 -13.7692 2.6859
-7.9832 -13.7295 2.6859
-7.7782 -13.6911 2.6859
-7.5770 -13.6540 2.6859
-7.3793 -13.6182 2.6859
-7.1850 -13.5836 2.6859
-6.9939 -13.5502 2.6859
-6.8060 -13.5179 2.6859
-6.6211 -13.4867 2.6859
-6.4390 -13.4565 2.6859
-6.2596 -13.4274 2.6859
-6.0829 -13.3993 2.6859
-5.9087 -13.3722 2.6859
-5.7668 -13.4154 2.6998
-5.7549 -13.7692 2.7763
-5.7066 -14.0508 2.8383
-5.5321 -14.0260 2.8383
-5.3598 -14.0021 2.8383
-5.1895 -13.9790 2.8383
-5.0212 -13.9568 2.8383
-4.8548 -13.9354 2.8383
-4.6902 -13.9149 2.8383
-4.5273 -13.8951 2.8383
-4.3661 -13.8762 2.8383
-4.2064 -13.8580 2.8383
-4.0483 -13.8405 2.8383
-3.8916 -13.8238 2.8383
-3.7362 -13.8078 2.8383
-3.5822 -13.7925 2.8383
-3.4294 -13.7779 2.8383
-3.2778 -13.7640 2.8383
-3.1273 -13.7507 2.8383
-2.9779 -13.7381 2.8383
-2.8294 -13.7262 2.8383
-2.6820 -13.7149 2.8383
-2.5354 -13.7042 2.8383
-2.3896 -13.6942 2.8383
-2.2447 -13.6847 2.8383
-0.9066 -5.9030 1.2251
-0.8447 -5.8995 1.2251
-0.7830 -5.8962 1.2251
-0.7216 -5.8931 1.2251
-0.6604 -5.8904 1.2251
-0.5994 -5.8878 1.2251
-0.5386 -5.8855 1.2251
-0.4780 -5.8835 1.2251
-0.4175 -5.8817 1.2251
-0.3572 -5.8802 1.2251
-0.2970 -5.8788 1.2251
-0.2369 -5.8778 1.2251
-0.1768 -5.8770 1.2251
-0.1168 -5.8764 1.2251
-0.0569 -5.8760 1.2251
0.0031 -5.8759 1.2251
0.0630 -5.8760 1.2251
0.1230 -5.8764 1.2251
0.3634 -5.8803 1.2251
0.1830 -5.8770 1.2251
0.4237 -5.8819 1.2251
0.2430 -5.8779 1.2251
0.4842 -5.8837 1.2251
0.3032 -5.8790 1.2251
0.5448 -5.8858 1.2251
0.6056 -5.8881 1.2251
0.8510 -5.8998 1.2251
0.6666 -5.8906 1.2251
0.9130 -5.9034 1.2251
0.7279 -5.8934 1.2251
2.2594 -13.6851 2.8382
0.7893 -5.8965 1.2251
2.4043 -13.6940 2.8381
2.5501 -13.7036 2.8379
3.1413 -13.7461 2.8371
2.6966 -13.7137 2.8378
3.2914 -13.7576 2.8367
2.8440 -13.7245 2.8377
3.4426 -13.7697 2.8363
2.9922 -13.7352 2.8374
3.5949 -13.7825 2.8359
3.7484 -13.7959 2.8355
4.3743 -13.8520 2.8330
3.9029 -13.8090 2.8349
4.5341 -13.8671 2.8322
4.0587 -13.8228 2.8343
4.6954 -13.8828 2.8313
4.2158 -13.8372 2.8337
4.8584 -13.8993 2.8305
5.0227 -13.9156 2.8294
5.6978 -13.9876 2.8250
5.1887 -13.9325 2.8284
5.8712 -14.0066 2.8236
5.3565 -13.9501 2.8273
6.0464 -14.0259 2.8222
5.5262 -13.9685 2.8262
6.2230 -14.0441 2.8203
6.3973 -14.0532 2.8164
6.2587 -13.3893 2.6777
6.7769 -13.4256 2.6669
6.9517 -13.4342 2.6622
6.4306 -13.4035 2.6747
7.1253 -13.4373 2.6563
6.6035 -13.4158 2.6712
7.2988 -13.4365 2.6494
7.4755 -13.4386 2.6428
7.6462 -13.4265 2.6332
8.1801 -13.4100 2.6072
6.4838 -10.3937 2.0146
7.8255 -13.4265 2.6259
6.4217 -10.0686 1.9453
8.0025 -13.4193 2.6169
6.3691 -9.7693 1.8813
6.3761 -9.5698 1.8367
6.3830 -9.3759 1.7932
6.3896 -9.1873 1.7508
4.8509 -6.8286 1.2965
-7.1044 -7.5535 1.8462
-10.6862 -11.5914 2.8383
-10.4552 -11.5706 2.8383
-10.2292 -11.5506 2.8383
-10.0080 -11.5311 2.8383
-9.7913 -11.5123 2.8383
-9.0647 -10.8768 2.6859
-8.8677 -10.8601 2.6859
-8.6746 -10.8439 2.6859
-8.4851 -10.8281 2.6859
-8.2992 -10.8129 2.6859
-8.1166 -10.7981 2.6859
-7.9373 -10.7838 2.6859
-7.7611 -10.7699 2.6859
-7.5878 -10.7564 2.6859
-7.4175 -10.7433 2.6859
-7.2499 -10.7307 2.6859
-7.0850 -10.7184 2.6859
-6.9227 -10.7064 2.6859
-6.7628 -10.6949 2.6859
-6.6053 -10.6837 2.6859
-6.4501 -10.6728 2.6859
-6.2971 -10.6622 2.6859
-6.1462 -10.6520 2.6859
-5.9973 -10.6421 2.6859
-5.8504 -10.6325 2.6859
-5.7581 -10.7212 2.7107
-5.7479 -10.9684 2.7755
-5.7284 -11.2071 2.8383
-5.5808 -11.1982 2.8383
-5.4349 -11.1895 2.8383
-5.2906 -11.1811 2.8383
-5.1480 -11.1730 2.8383
-5.0068 -11.1651 2.8383
-4.8672 -11.1574 2.8383
-4.7289 -11.1501 2.8383
-4.5921 -11.1430 2.8383
-4.4565 -11.1361 2.8383
-4.3223 -11.1294 2.8383
-4.1892 -11.1230 2.8383
-4.0573 -11.1168 2.8383
-3.9266 -11.1108 2.8383
-3.7969 -11.1051 2.8383
-3.6682 -11.0995 2.8383
-3.5406 -11.0942 2.8383
-3.4139 -11.0891 2.8383
-3.2881 -11.0841 2.8383
-3.1631 -11.0794 2.8383
-3.0390 -11.0749 2.8383
-2.9157 -11.0706 2.8383
-2.7932 -11.0664 2.8383
-2.6714 -11.0625 2.8383
-2.5502 -11.0587 2.8383
-2.4297 -11.0551 2.8383
-2.3099 -11.0517 2.8383
-2.1906 -11.0485 2.8383
-0.8945 -4.7686 1.2254
-0.8434 -4.7674 1.2254
-0.7926 -4.7662 1.2254
-0.7420 -4.7651 1.2254
-0.6915 -4.7641 1.2254
-0.6412 -4.7631 1.2254
-0.5911 -4.7623 1.2254
-0.5412 -4.7615 1.2254
-0.4913 -4.7607 1.2254
-0.4416 -4.7601 1.2254
-0.3920 -4.7595 1.2254
-0.3425 -4.7590 1.2254
-0.2930 -4.7586 1.2254
-0.2437 -4.7582 1.2254
-0.1943 -4.7579 1.2254
-0.1451 -4.7576 1.2254
-0.0959 -4.7574 1.2254
-0.0467 -4.7574 1.2254
0.0025 -4.7573 1.2254
0.0517 -4.7574 1.2254
0.1009 -4.7575 1.2254
0.1501 -4.7577 1.2254
0.1994 -4.7579 1.2254
0.2487 -4.7582 1.2254
0.2981 -4.7586 1.2254
0.3475 -4.7590 1.2254
0.3971 -4.7596 1.2254
0.4467 -4.7602 1.2254
0.4964 -4.7608 1.2254
0.5463 -4.7616 1.2254
0.5963 -4.7624 1.2254
0.6464 -4.7632 1.2254
0.6967 -4.7642 1.2254
0.7471 -4.7652 1.2254
0.7978 -4.7663 1.2254
0.8486 -4.7675 1.2254
0.8997 -4.7687 1.2254
2.2028 -11.0488 2.8383
2.3221 -11.0521 2.8383
2.4421 -11.0555 2.8383
2.5626 -11.0591 2.8383
2.6838 -11.0629 2.8383
2.8057 -11.0668 2.8383
2.9283 -11.0710 2.8383
3.0517 -11.0753 2.8383
3.1759 -11.0799 2.8383
3.3009 -11.0846 2.8383
3.4268 -11.0896 2.8383
3.5536 -11.0947 2.8383
3.6814 -11.1001 2.8383
3.8101 -11.1056 2.8383
3.9399 -11.1114 2.8383
4.0708 -11.1174 2.8383
4.2028 -11.1236 2.8383
4.3360 -11.1301 2.8383
4.4704 -11.1368 2.8383
4.6060 -11.1437 2.8383
4.7431 -11.1508 2.8383
4.7899 -10.9489 2.7851
4.7637 -10.5933 2.6927
4.8853 -10.5738 2.6859
5.0205 -10.5815 2.6859
5.1571 -10.5895 2.6859
5.2954 -10.5978 2.6859
5.4353 -10.6062 2.6859
5.5769 -10.6150 2.6859
5.7202 -10.6241 2.6859
5.8654 -10.6335 2.6859
6.0125 -10.6431 2.6859
6.1615 -10.6531 2.6859
6.3126 -10.6633 2.6859
6.4659 -10.6739 2.6859
6.5148 -10.5130 2.6427
6.3813 -9.4239 2.3585
6.4391 -10.1596 2.5512
6.3880 -9.2319 2.3077
6.3785 -9.8425 2.4689
6.3743 -9.6215 2.4107
4.8770 -6.8984 1.7223
4.9254 -6.8201 1.7006
-7.1530 -7.4655 2.3320
-7.1005 -7.5617 2.3609
-7.0477 -7.6589 2.3901
-7.7648 -8.6109 2.6859
-7.6120 -8.6148 2.6859
-7.4616 -8.6187 2.6859
-7.3135 -8.6224 2.6859
-7.1677 -8.6261 2.6859
-7.0240 -8.6296 2.6859
-6.8824 -8.6331 2.6859
-6.7428 -8.6364 2.6859
-6.6051 -8.6397 2.6859
-6.4694 -8.6428 2.6859
-6.3354 -8.6459 2.6859
-6.2032 -8.6489 2.6859
-6.0727 -8.6518 2.6859
-5.9438 -8.6547 2.6859
-5.8165 -8.6574 2.6859
-5.7523 -8.7538 2.7150
-5.7434 -8.9381 2.7713
-5.7342 -9.1279 2.8293
-5.6241 -9.1595 2.8383
-5.4971 -9.1621 2.8383
-5.3715 -9.1645 2.8383
-5.2472 -9.1669 2.8383
-5.1242 -9.1692 2.8383
-5.0024 -9.1715 2.8383
-4.8818 -9.1737 2.8383
-4.7624 -9.1758 2.8383
-4.6440 -9.1779 2.8383
-4.5268 -9.1799 2.8383
-4.4106 -9.1818 2.8383
-4.2953 -9.1837 2.8383
-4.1811 -9.1855 2.8383
-4.0678 -9.1873 2.8383
-3.9553 -9.1890 2.8383
-3.8438 -9.1907 2.8383
-3.7331 -9.1923 2.8383
-3.6232 -9.1938 2.8383
-3.5141 -9.1953 2.8383
-3.4057 -9.1968 2.8383
-3.2980 -9.1982 2.8383
-3.1911 -9.1996 2.8383
-3.0848 -9.2009 2.8383
-2.9791 -9.2021 2.8383
-2.8741 -9.2033 2.8383
-2.7697 -9.2045 2.8383
-2.6658 -9.2056 2.8383
-2.5624 -9.2067 2.8383
-2.4596 -9.2077 2.8383
-2.3573 -9.2087 2.8383
-2.2554 -9.2096 2.8383
-2.1540 -9.2105 2.8383
-0.8865 -3.9774 1.2255
-0.8431 -3.9777 1.2255
-0.7998 -3.9780 1.2255
-0.7567 -3.9784 1.2255
-0.7137 -3.9787 1.2255
-0.6709 -3.9789 1.2255
-0.6282 -3.9792 1.2255
-0.5857 -3.9794 1.2255
-0.5432 -3.9797 1.2255
-0.5009 -3.9799 1.2255
-0.4586 -3.9800 1.2255
-0.4165 -3.9802 1.2255
-0.3744 -3.9804 1.2255
-0.3324 -3.9805 1.2255
-0.2904 -3.9806 1.2255
-0.2485 -3.9808 1.2255
-0.2067 -3.9808 1.2255
-0.1649 -3.9809 1.2255
-0.1231 -3.9810 1.2255
-0.0813 -3.9810 1.2255
-0.0396 -3.9810 1.2255
0.0021 -3.9811 1.2255
0.0439 -3.9810 1.2255
0.0856 -3.9810 1.2255
0.1274 -3.9810 1.2255
0.1691 -3.9809 1.2255
0.2110 -3.9808 1.2255
0.2528 -3.9808 1.2255
0.2947 -3.9806 1.2255
0.3367 -3.9805 1.2255
0.3787 -3.9804 1.2255
0.4208 -3.9802 1.2255
0.4629 -3.9800 1.2255
0.5052 -3.9798 1.2255
0.5476 -3.9796 1.2255
0.5900 -3.9794 1.2255
0.6326 -3.9792 1.2255
0.6753 -3.9789 1.2255
0.7181 -3.9786 1.2255
0.7611 -3.9783 1.2255
0.8042 -3.9780 1.2255
0.8475 -3.9777 1.2255
0.8909 -3.9773 1.2255
2.1644 -9.2104 2.8383
2.2659 -9.2095 2.8383
2.3678 -9.2086 2.8383
2.4701 -9.2076 2.8383
2.5730 -9.2066 2.8383
2.6764 -9.2055 2.8383
2.7803 -9.2044 2.8383
2.8848 -9.2032 2.8383
2.9899 -9.2020 2.8383
3.0957 -9.2007 2.8383
3.2020 -9.1994 2.8383
3.3090 -9.1981 2.8383
3.4168 -9.1967 2.8383
3.5252 -9.1952 2.8383
3.6344 -9.1937 2.8383
3.7444 -9.1921 2.8383
3.8552 -9.1905 2.8383
3.9668 -9.1888 2.8383
4.0793 -9.1871 2.8383
4.1928 -9.1853 2.8383
4.3071 -9.1835 2.8383
4.4224 -9.1816 2.8383
4.5387 -9.1797 2.8383
4.6561 -9.1777 2.8383
4.7159 -9.0628 2.8034
4.7278 -8.8617 2.7418
4.7491 -8.6851 2.6879
4.8609 -8.6767 2.6859
4.9775 -8.6745 2.6859
5.0952 -8.6722 2.6859
5.2142 -8.6699 2.6859
5.3345 -8.6674 2.6859
5.4561 -8.6650 2.6859
5.5791 -8.6624 2.6859
5.7036 -8.6598 2.6859
5.8295 -8.6571 2.6859
5.9569 -8.6544 2.6859
4.8693 -6.9219 2.1489
4.9020 -6.8196 2.1179
5.0263 -6.8444 2.1263
-6.8474 -7.0127 2.6859
-6.7237 -7.0276 2.6859
-6.6016 -7.0421 2.6859
-6.4811 -7.0563 2.6859
-6.3621 -7.0701 2.6859
-6.2445 -7.0836 2.6859
-6.1283 -7.0967 2.6859
-6.0136 -7.1095 2.6859
-5.9001 -7.1220 2.6859
-5.7879 -7.1342 2.6859
-5.7477 -7.2350 2.7194
-5.7398 -7.3793 2.7691
-5.7317 -7.5272 2.8202
-5.6550 -7.5872 2.8383
-5.5427 -7.5985 2.8383
-5.4315 -7.6096 2.8383
-5.3213 -7.6203 2.8383
-5.2123 -7.6308 2.8383
-5.1043 -7.6410 2.8383
-4.9973 -7.6509 2.8383
-4.8913 -7.6606 2.8383
-4.7862 -7.6701 2.8383
-4.6820 -7.6792 2.8383
-4.5787 -7.6882 2.8383
-4.4762 -7.6969 2.8383
-4.3746 -7.7054 2.8383
-4.2738 -7.7136 2.8383
-4.1737 -7.7216 2.8383
-4.0745 -7.7294 2.8383
-3.9759 -7.7370 2.8383
-3.8781 -7.7443 2.8383
-3.7809 -7.7515 2.8383
-3.6844 -7.7584 2.8383
-3.5886 -7.7652 2.8383
-3.4934 -7.7717 2.8383
-3.3988 -7.7781 2.8383
-3.3047 -7.7842 2.8383
-3.2112 -7.7901 2.8383
-3.1183 -7.7959 2.8383
-3.0259 -7.8015 2.8383
-2.9340 -7.8069 2.8383
-2.8425 -7.8121 2.8383
-2.7516 -7.8171 2.8383
-2.6611 -7.8220 2.8383
-2.5710 -7.8267 2.8383
-2.4814 -7.8312 2.8383
-2.3921 -7.8356 2.8383
-2.3032 -7.8397 2.8383
-2.2147 -7.8437 2.8383
-2.1266 -7.8476 2.8383
-0.9109 -3.5078 1.2681
-0.8714 -3.5078 1.2675
-0.8321 -3.5078 1.2670
-0.7930 -3.5078 1.2665
-0.7541 -3.5078 1.2660
-0.7153 -3.5078 1.2655
-0.6767 -3.5078 1.2651
-0.6382 -3.5078 1.2647
-0.5999 -3.5078 1.2643
-0.5616 -3.5078 1.2639
-0.5235 -3.5077 1.2636
-0.4856 -3.5077 1.2632
-0.4477 -3.5078 1.2630
-0.4099 -3.5078 1.2627
-0.3722 -3.5078 1.2624
-0.3346 -3.5078 1.2622
-0.2970 -3.5078 1.2620
-0.2595 -3.5078 1.2619
-0.2221 -3.5078 1.2617
-0.1847 -3.5078 1.2616
-0.1473 -3.5078 1.2615
-0.1100 -3.5078 1.2614
-0.0727 -3.5078 1.2613
-0.0354 -3.5077 1.2613
0.0019 -3.5078 1.2613
0.0392 -3.5078 1.2613
0.0765 -3.5078 1.2613
0.1138 -3.5078 1.2614
0.1511 -3.5078 1.2615
0.1885 -3.5078 1.2616
0.2259 -3.5078 1.2617
0.2633 -3.5078 1.2619
0.3008 -3.5078 1.2620
0.3384 -3.5078 1.2622
0.3760 -3.5078 1.2625
0.4138 -3.5078 1.2627
0.4516 -3.5078 1.2630
0.4895 -3.5078 1.2633
0.5274 -3.5078 1.2636
0.5656 -3.5078 1.2639
0.6038 -3.5078 1.2643
0.6421 -3.5078 1.2647
0.6806 -3.5078 1.2651
0.7193 -3.5078 1.2656
0.7581 -3.5078 1.2660
0.7970 -3.5078 1.2665
0.8361 -3.5078 1.2670
0.8754 -3.5078 1.2676
0.9149 -3.5078 1.2681
2.1356 -7.8472 2.8383
2.2238 -7.8433 2.8383
2.3123 -7.8393 2.8383
2.4012 -7.8351 2.8383
2.4905 -7.8307 2.8383
2.5802 -7.8262 2.8383
2.6703 -7.8215 2.8383
2.7609 -7.8167 2.8383
2.8519 -7.8116 2.8383
2.9434 -7.8063 2.8383
3.0353 -7.8009 2.8383
3.1278 -7.7953 2.8383
3.2208 -7.7896 2.8383
3.3143 -7.7836 2.8383
3.4084 -7.7774 2.8383
3.5031 -7.7711 2.8383
3.5984 -7.7645 2.8383
3.6943 -7.7577 2.8383
3.7909 -7.7508 2.8383
3.8881 -7.7436 2.8383
3.9860 -7.7362 2.8383
4.0846 -7.7286 2.8383
4.1840 -7.7208 2.8383
4.2841 -7.7127 2.8383
4.3850 -7.7045 2.8383
4.4867 -7.6960 2.8383
4.5892 -7.6873 2.8383
4.6926 -7.6783 2.8383
4.7215 -7.5487 2.7937
4.7319 -7.3938 2.7398
4.7491 -7.2542 2.6915
4.8407 -7.2298 2.6859
4.9430 -7.2201 2.6859
4.8492 -6.9285 2.5810
4.8782 -6.8192 2.5439
5.2559 -7.1894 2.6859
5.3623 -7.1787 2.6859
-5.8536 -5.8799 2.6859
-5.7539 -5.8996 2.6859
-5.7432 -6.0110 2.7277
-5.7361 -6.1285 2.7723
-5.7288 -6.2485 2.8178
-5.6691 -6.3128 2.8383
-5.5687 -6.3313 2.8383
-5.4693 -6.3493 2.8383
-5.3708 -6.3670 2.8383
-5.2732 -6.3842 2.8383
-5.1764 -6.4010 2.8383
-5.0805 -6.4175 2.8383
-4.9854 -6.4335 2.8383
-4.8911 -6.4492 2.8383
-4.7976 -6.4645 2.8383
-4.7048 -6.4794 2.8383
-4.6127 -6.4940 2.8383
-4.5214 -6.5082 2.8383
-4.4307 -6.5221 2.8383
-4.3407 -6.5356 2.8383
-4.2513 -6.5488 2.8383
-4.1626 -6.5617 2.8383
-4.0745 -6.5742 2.8383
-3.9870 -6.5865 2.8383
-3.9001 -6.5983 2.8383
-3.8137 -6.6099 2.8383
-3.7279 -6.6212 2.8383
-3.6426 -6.6323 2.8383
-3.5578 -6.6430 2.8383
-3.4735 -6.6534 2.8383
-3.3897 -6.6635 2.8383
-3.3064 -6.6734 2.8383
-3.2235 -6.6830 2.8383
-3.1411 -6.6923 2.8383
-3.0591 -6.7013 2.8383
-2.9775 -6.7101 2.8383
-2.8963 -6.7187 2.8383
-2.8155 -6.7269 2.8383
-2.7351 -6.7349 2.8383
-2.6550 -6.7426 2.8383
-2.5753 -6.7502 2.8383
-2.4959 -6.7574 2.8383
-2.4169 -6.7644 2.8383
-2.3382 -6.7712 2.8383
-2.2597 -6.7777 2.8383
-2.1816 -6.7840 2.8383
-2.1038 -6.7901 2.8383
-2.0262 -6.7959 2.8383
-1.9488 -6.8015 2.8383
-1.8718 -6.8069 2.8383
-1.7949 -6.8120 2.8383
-0.8842 -3.5078 1.4605
-0.8443 -3.5078 1.4595
-0.8046 -3.5078 1.4585
-0.7651 -3.5078 1.4576
-0.7257 -3.5078 1.4568
-0.6865 -3.5078 1.4560
-0.6475 -3.5078 1.4552
-0.6085 -3.5078 1.4545
-0.5698 -3.5078 1.4538
-0.5311 -3.5078 1.4532
-0.4926 -3.5078 1.4526
-0.4541 -3.5078 1.4520
-0.4158 -3.5078 1.4515
-0.3775 -3.5078 1.4511
-0.3394 -3.5078 1.4507
-0.3013 -3.5078 1.4503
-0.2632 -3.5078 1.4500
-0.2252 -3.5078 1.4497
-0.1873 -3.5078 1.4495
-0.1494 -3.5078 1.4493
-0.1115 -3.5078 1.4491
-0.0737 -3.5078 1.4490
-0.0359 -3.5078 1.4490
0.0019 -3.5078 1.4490
0.0398 -3.5078 1.4490
0.0776 -3.5078 1.4490
0.1154 -3.5078 1.4492
0.1533 -3.5078 1.4493
0.1912 -3.5078 1.4495
0.2291 -3.5078 1.4497
0.2671 -3.5078 1.4500
0.3052 -3.5078 1.4504
0.3433 -3.5078 1.4507
0.3814 -3.5078 1.4511
0.4197 -3.5078 1.4516
0.4581 -3.5078 1.4521
0.4965 -3.5078 1.4526
0.5351 -3.5078 1.4532
0.5737 -3.5078 1.4539
0.6125 -3.5078 1.4545
0.6515 -3.5078 1.4553
0.6905 -3.5078 1.4560
0.7297 -3.5078 1.4569
0.7691 -3.5078 1.4577
0.8087 -3.5078 1.4586
0.8484 -3.5078 1.4596
0.8883 -3.5078 1.4606
1.8028 -6.8115 2.8383
1.8797 -6.8063 2.8383
1.9568 -6.8009 2.8383
2.0341 -6.7953 2.8383
2.1117 -6.7895 2.8383
2.1896 -6.7834 2.8383
2.2678 -6.7771 2.8383
2.3462 -6.7705 2.8383
2.4250 -6.7637 2.8383
2.5041 -6.7567 2.8383
2.5835 -6.7494 2.8383
2.6632 -6.7419 2.8383
2.7433 -6.7341 2.8383
2.8238 -6.7261 2.8383
2.9046 -6.7178 2.8383
2.9858 -6.7093 2.8383
3.0675 -6.7004 2.8383
3.1495 -6.6914 2.8383
3.2320 -6.6821 2.8383
3.3149 -6.6724 2.8383
3.3983 -6.6625 2.8383
3.4821 -6.6523 2.8383
3.5664 -6.6419 2.8383
3.6513 -6.6311 2.8383
3.7366 -6.6201 2.8383
3.8225 -6.6088 2.8383
3.9089 -6.5971 2.8383
3.9959 -6.5852 2.8383
4.0835 -6.5729 2.8383
4.1717 -6.5603 2.8383
4.2605 -6.5474 2.8383
4.3499 -6.5342 2.8383
4.4400 -6.5206 2.8383
4.5307 -6.5068 2.8383
4.6221 -6.4925 2.8383
4.7143 -6.4779 2.8383
4.7253 -6.3529 2.7900
4.7345 -6.2288 2.7420
-5.3951 -5.3122 2.8383
-5.3073 -5.3352 2.8383
-5.2202 -5.3576 2.8383
-5.1338 -5.3796 2.8383
-5.0480 -5.4011 2.8383
-4.9629 -5.4221 2.8383
-4.8785 -5.4427 2.8383
-4.7947 -5.4628 2.8383
-4.7115 -5.4825 2.8383
-4.6288 -5.5017 2.8383
-4.5468 -5.5206 2.8383
-4.4653 -5.5390 2.8383
-4.3844 -5.5569 2.8383
-4.3040 -5.5745 2.8383
-4.2242 -5.5917 2.8383
-4.1448 -5.6085 2.8383
-4.0659 -5.6249 2.8383
-3.9876 -5.6409 2.8383
-3.9097 -5.6566 2.8383
-3.8322 -5.6719 2.8383
-3.7552 -5.6868 2.8383
-3.6786 -5.7014 2.8383
-3.6025 -5.7156 2.8383
-3.5268 -5.7294 2.8383
-3.4514 -5.7430 2.8383
-3.3765 -5.7562 2.8383
-3.3019 -5.7690 2.8383
-3.2277 -5.7815 2.8383
-3.1539 -5.7938 2.8383
-3.0804 -5.8056 2.8383
-3.0072 -5.8172 2.8383
-2.9344 -5.8285 2.8383
-2.8619 -5.8395 2.8383
-2.7897 -5.8501 2.8383
-2.7179 -5.8604 2.8383
-2.6463 -5.8705 2.8383
-2.5749 -5.8803 2.8383
-2.5039 -5.8897 2.8383
-2.4331 -5.8989 2.8383
-2.3626 -5.9078 2.8383
-2.2923 -5.9164 2.8383
-2.2223 -5.9247 2.8383
-2.1525 -5.9328 2.8383
-2.0829 -5.9406 2.8383
-2.0136 -5.9481 2.8383
-1.9444 -5.9553 2.8383
-1.8755 -5.9623 2.8383
-1.8067 -5.9691 2.8383
-1.7381 -5.9755 2.8383
-1.6697 -5.9817 2.8383
-1.6015 -5.9876 2.8383
-0.8975 -3.5078 1.6612
-0.8570 -3.5078 1.6597
-0.8167 -3.5078 1.6583
-0.7765 -3.5078 1.6569
-0.7365 -3.5079 1.6557
-0.6967 -3.5078 1.6544
-0.6571 -3.5078 1.6533
-0.6176 -3.5078 1.6522
-0.5782 -3.5078 1.6512
-0.5390 -3.5078 1.6503
-0.4998 -3.5078 1.6494
-0.4608 -3.5078 1.6486
-0.4219 -3.5078 1.6478
-0.3831 -3.5078 1.6472
-0.3443 -3.5078 1.6466
-0.3057 -3.5078 1.6460
-0.2671 -3.5078 1.6455
-0.2285 -3.5078 1.6451
-0.1900 -3.5078 1.6448
-0.1516 -3.5078 1.6445
-0.1132 -3.5079 1.6443
-0.0748 -3.5078 1.6441
-0.0364 -3.5078 1.6440
0.0020 -3.5078 1.6440
0.0403 -3.5078 1.6440
0.0787 -3.5079 1.6441
0.1171 -3.5078 1.6443
0.1555 -3.5078 1.6445
0.1940 -3.5079 1.6448
0.2325 -3.5078 1.6452
0.2710 -3.5079 1.6456
0.3096 -3.5078 1.6461
0.3483 -3.5079 1.6466
0.3871 -3.5079 1.6472
0.4259 -3.5078 1.6479
0.4648 -3.5078 1.6487
0.5038 -3.5078 1.6495
0.5430 -3.5078 1.6504
0.5822 -3.5078 1.6513
0.6216 -3.5079 1.6523
0.6611 -3.5079 1.6534
0.7008 -3.5079 1.6546
0.7406 -3.5078 1.6558
0.7806 -3.5079 1.6571
0.8208 -3.5079 1.6584
0.8611 -3.5079 1.6599
0.9017 -3.5078 1.6614
1.6085 -5.9870 2.8383
1.6767 -5.9811 2.8383
1.7451 -5.9748 2.8383
1.8137 -5.9684 2.8383
1.8825 -5.9616 2.8383
1.9515 -5.9546 2.8383
2.0207 -5.9473 2.8383
2.0900 -5.9398 2.8383
2.1596 -5.9320 2.8383
2.2295 -5.9239 2.8383
2.2995 -5.9155 2.8383
2.3698 -5.9069 2.8383
2.4404 -5.8980 2.8383
2.5112 -5.8887 2.8383
2.5822 -5.8793 2.8383
2.6536 -5.8695 2.8383
2.7252 -5.8594 2.8383
2.7971 -5.8490 2.8383
2.8693 -5.8383 2.8383
2.9419 -5.8273 2.8383
3.0147 -5.8160 2.8383
3.0879 -5.8044 2.8383
3.1614 -5.7925 2.8383
3.2353 -5.7803 2.8383
3.3095 -5.7677 2.8383
3.3841 -5.7548 2.8383
3.4591 -5.7416 2.8383
3.5345 -5.7280 2.8383
3.6103 -5.7141 2.8383
3.6865 -5.6999 2.8383
3.7631 -5.6853 2.8383
3.8401 -5.6703 2.8383
3.9176 -5.6550 2.8383
3.9956 -5.6393 2.8383
4.0740 -5.6232 2.8383
4.1529 -5.6068 2.8383
4.2323 -5.5900 2.8383
4.3122 -5.5727 2.8383
-4.7759 -4.6064 2.8383
-4.7010 -4.6300 2.8383
-4.6266 -4.6532 2.8383
-4.5527 -4.6759 2.8383
-4.4793 -4.6981 2.8383
-4.4062 -4.7199 2.8383
-4.3337 -4.7413 2.8383
-4.2615 -4.7622 2.8383
-4.1897 -4.7826 2.8383
-4.1184 -4.8026 2.8383
-4.0474 -4.8223 2.8383
-3.9769 -4.8414 2.8383
-3.9067 -4.8602 2.8383
-3.8369 -4.8785 2.8383
-3.7674 -4.8965 2.8383
-3.6983 -4.9141 2.8383
-3.6295 -4.9313 2.8383
-3.5611 -4.9481 2.8383
-3.4930 -4.9645 2.8383
-3.4252 -4.9806 2.8383
-3.3578 -4.9962 2.8383
-3.2906 -5.0116 2.8383
-3.2237 -5.0265 2.8383
-3.1571 -5.0411 2.8383
-3.0908 -5.0554 2.8383
-3.0248 -5.0693 2.8383
-2.9590 -5.0829 2.8383
-2.8935 -5.0961 2.8383
-2.8282 -5.1090 2.8383
-2.7632 -5.1216 2.8383
-2.6984 -5.1338 2.8383
-2.6339 -5.1458 2.8383
-2.5696 -5.1574 2.8383
-2.5055 -5.1686 2.8383
-2.4416 -5.1796 2.8383
-2.3779 -5.1903 2.8383
-2.3145 -5.2007 2.8383
-2.2512 -5.2107 2.8383
-2.1881 -5.2205 2.8383
-2.1252 -5.2300 2.8383
-2.0625 -5.2391 2.8383
-1.9999 -5.2480 2.8383
-1.9375 -5.2566 2.8383
-1.8753 -5.2649 2.8383
-1.8132 -5.2729 2.8383
-1.7513 -5.2806 2.8383
-1.6895 -5.2881 2.8383
-1.6279 -5.2952 2.8383
-1.5663 -5.3021 2.8383
-1.5050 -5.3087 2.8383
-1.4437 -5.3151 2.8383
-0.9114 -3.5079 1.8711
-0.8702 -3.5079 1.8691
-0.8293 -3.5079 1.8671
-0.7885 -3.5079 1.8653
-0.7479 -3.5079 1.8635
-0.7074 -3.5079 1.8619
-0.6671 -3.5079 1.8603
-0.6270 -3.5079 1.8589
-0.5870 -3.5079 1.8575
-0.5472 -3.5079 1.8562
-0.5074 -3.5079 1.8550
-0.4678 -3.5079 1.8539
-0.4283 -3.5079 1.8529
-0.3889 -3.5079 1.8520
-0.3496 -3.5079 1.8512
-0.3103 -3.5079 1.8505
-0.2711 -3.5079 1.8498
-0.2320 -3.5079 1.8493
-0.1929 -3.5079 1.8488
-0.1539 -3.5079 1.8484
-0.1149 -3.5079 1.8481
-0.0759 -3.5079 1.8479
-0.0370 -3.5079 1.8478
0.0020 -3.5079 1.8477
0.0409 -3.5079 1.8478
0.0799 -3.5079 1.8479
0.1189 -3.5079 1.8481
0.1579 -3.5079 1.8484
0.1969 -3.5079 1.8488
0.2360 -3.5079 1.8493
0.2751 -3.5079 1.8499
0.3143 -3.5079 1.8505
0.3536 -3.5079 1.8513
0.3929 -3.5079 1.8521
0.4323 -3.5079 1.8530
0.4719 -3.5079 1.8541
0.5115 -3.5079 1.8552
0.5512 -3.5079 1.8564
0.5911 -3.5079 1.8576
0.6311 -3.5079 1.8590
0.6713 -3.5079 1.8605
0.7116 -3.5079 1.8621
0.7520 -3.5079 1.8637
0.7926 -3.5079 1.8655
0.8334 -3.5079 1.8673
0.8745 -3.5079 1.8693
0.9157 -3.5079 1.8713
1.4500 -5.3144 2.8383
1.5112 -5.3081 2.8383
1.5726 -5.3014 2.8383
1.6342 -5.2945 2.8383
1.6958 -5.2873 2.8383
1.7576 -5.2798 2.8383
1.8196 -5.2721 2.8383
1.8817 -5.2640 2.8383
1.9439 -5.2557 2.8383
2.0063 -5.2471 2.8383
2.0689 -5.2382 2.8383
2.1316 -5.2290 2.8383
2.1946 -5.2195 2.8383
2.2577 -5.2097 2.8383
2.3210 -5.1996 2.8383
2.3845 -5.1892 2.8383
2.4482 -5.1785 2.8383
2.5121 -5.1675 2.8383
2.5762 -5.1562 2.8383
2.6405 -5.1445 2.8383
2.7051 -5.1326 2.8383
2.7699 -5.1203 2.8383
2.8349 -5.1077 2.8383
2.9002 -5.0948 2.8383
2.9657 -5.0815 2.8383
3.0315 -5.0679 2.8383
3.0976 -5.0539 2.8383
3.1639 -5.0396 2.8383
3.2305 -5.0250 2.8383
3.2975 -5.0100 2.8383
3.3647 -4.9946 2.8383
3.4322 -4.9789 2.8383
3.5000 -4.9628 2.8383
3.5681 -4.9464 2.8383
3.6366 -4.9296 2.8383
3.7054 -4.9123 2.8383
3.7745 -4.8947 2.8383
3.8440 -4.8767 2.8383
-4.2759 -4.0364 2.8383
-4.2110 -4.0600 2.8383
-4.1463 -4.0831 2.8383
-4.0820 -4.1059 2.8383
-4.0180 -4.1281 2.8383
-3.9543 -4.1499 2.8383
-3.8909 -4.1713 2.8383
-3.8278 -4.1923 2.8383
-3.7650 -4.2128 2.8383
-3.7024 -4.2329 2.8383
-3.6401 -4.2526 2.8383
-3.5781 -4.2720 2.8383
-3.5163 -4.2909 2.8383
-3.4548 -4.3094 2.8383
-3.3936 -4.3275 2.8383
-3.3326 -4.3453 2.8383
-3.2718 -4.3626 2.8383
-3.2112 -4.3796 2.8383
-3.1509 -4.3962 2.8383
-3.0908 -4.4125 2.8383
-3.0309 -4.4284 2.8383
-2.9712 -4.4439 2.8383
-2.9118 -4.4591 2.8383
-2.8525 -4.4739 2.8383
-2.7934 -4.4884 2.8383
-2.7346 -4.5026 2.8383
-2.6759 -4.5163 2.8383
-2.6173 -4.5298 2.8383
-2.5590 -4.5430 2.8383
-2.5009 -4.5557 2.8383
-2.4429 -4.5683 2.8383
-2.3850 -4.5804 2.8383
-2.3274 -4.5923 2.8383
-2.2699 -4.6038 2.8383
-2.2125 -4.6150 2.8383
-2.1553 -4.6259 2.8383
-2.0982 -4.6365 2.8383
-2.0413 -4.6468 2.8383
-1.9845 -4.6567 2.8383
-1.9278 -4.6665 2.8383
-1.8713 -4.6758 2.8383
-1.8149 -4.6849 2.8383
-1.7586 -4.6937 2.8383
-1.7024 -4.7022 2.8383
-1.6463 -4.7104 2.8383
-1.5903 -4.7184 2.8383
-1.5345 -4.7260 2.8383
-1.4787 -4.7334 2.8383
-1.4230 -4.7404 2.8383
-1.3675 -4.7472 2.8383
-1.3120 -4.7538 2.8383
-1.0407 -3.9422 2.3507
-0.8842 -3.5079 2.0891
-0.8425 -3.5079 2.0866
-0.8010 -3.5079 2.0842
-0.7597 -3.5079 2.0820
-0.7186 -3.5079 2.0799
-0.6777 -3.5079 2.0779
-0.6369 -3.5079 2.0760
-0.5963 -3.5079 2.0743
-0.5558 -3.5079 2.0726
-0.5154 -3.5079 2.0711
-0.4752 -3.5079 2.0697
-0.4350 -3.5079 2.0684
-0.3950 -3.5079 2.0672
-0.3550 -3.5079 2.0662
-0.3152 -3.5079 2.0652
-0.2754 -3.5079 2.0644
-0.2356 -3.5079 2.0637
-0.1959 -3.5079 2.0631
-0.1563 -3.5079 2.0626
-0.1167 -3.5079 2.0622
-0.0771 -3.5079 2.0619
-0.0375 -3.5079 2.0618
0.0020 -3.5079 2.0617
0.0416 -3.5079 2.0618
0.0812 -3.5079 2.0619
0.1207 -3.5079 2.0622
0.1603 -3.5080 2.0626
0.2000 -3.5079 2.0631
0.2397 -3.5080 2.0638
0.2794 -3.5079 2.0645
0.3192 -3.5079 2.0653
0.3591 -3.5080 2.0663
0.3991 -3.5079 2.0674
0.4391 -3.5079 2.0685
0.4793 -3.5079 2.0698
0.5196 -3.5079 2.0713
0.5599 -3.5079 2.0728
0.6004 -3.5080 2.0744
0.6411 -3.5079 2.0762
0.6819 -3.5080 2.0781
0.7228 -3.5079 2.0801
0.7640 -3.5079 2.0822
0.8053 -3.5080 2.0845
0.8468 -3.5079 2.0869
0.8885 -3.5080 2.0894
1.0454 -3.9419 2.3508
1.3177 -4.7531 2.8383
1.3732 -4.7466 2.8383
1.4287 -4.7397 2.8383
1.4844 -4.7326 2.8383
1.5402 -4.7252 2.8383
1.5961 -4.7175 2.8383
1.6521 -4.7096 2.8383
1.7081 -4.7014 2.8383
1.7643 -4.6928 2.8383
1.8206 -4.6840 2.8383
1.8771 -4.6749 2.8383
1.9336 -4.6655 2.8383
1.9903 -4.6558 2.8383
2.0471 -4.6457 2.8383
2.1041 -4.6354 2.8383
2.1611 -4.6248 2.8383
2.2184 -4.6139 2.8383
2.2758 -4.6026 2.8383
2.3333 -4.5910 2.8383
2.3910 -4.5792 2.8383
2.4488 -4.5670 2.8383
2.5068 -4.5544 2.8383
2.5650 -4.5416 2.8383
2.6233 -4.5284 2.8383
2.6819 -4.5149 2.8383
2.7406 -4.5011 2.8383
2.7995 -4.4869 2.8383
2.8586 -4.4724 2.8383
2.9179 -4.4576 2.8383
2.9773 -4.4423 2.8383
3.0370 -4.4268 2.8383
3.0970 -4.4108 2.8383
3.1571 -4.3945 2.8383
3.2174 -4.3779 2.8383
3.2780 -4.3608 2.8383
3.3388 -4.3435 2.8383
3.3998 -4.3257 2.8383
3.4611 -4.3075 2.8383
-3.8621 -3.5647 2.8383
-3.8050 -3.5878 2.8383
-3.7481 -3.6105 2.8383
-3.6914 -3.6328 2.8383
-3.6349 -3.6546 2.8383
-3.5787 -3.6761 2.8383
-3.5226 -3.6972 2.8383
-3.4667 -3.7178 2.8383
-3.4110 -3.7380 2.8383
-3.3555 -3.7578 2.8383
-3.3002 -3.7773 2.8383
-3.2451 -3.7964 2.8383
-3.1901 -3.8151 2.8383
-3.1353 -3.8333 2.8383
-3.0807 -3.8513 2.8383
-3.0262 -3.8688 2.8383
-2.9719 -3.8861 2.8383
-2.9178 -3.9029 2.8383
-2.8638 -3.9193 2.8383
-2.8100 -3.9355 2.8383
-2.7563 -3.9513 2.8383
-2.7028 -3.9667 2.8383
-2.6494 -3.9818 2.8383
-2.5961 -3.9965 2.8383
-2.5430 -4.0109 2.8383
-2.4900 -4.0250 2.8383
-2.4372 -4.0388 2.8383
-2.3844 -4.0522 2.8383
-2.3318 -4.0653 2.8383
-2.2794 -4.0781 2.8383
-2.2270 -4.0905 2.8383
-2.1747 -4.1026 2.8383
-2.1226 -4.1145 2.8383
-2.0706 -4.1260 2.8383
-2.0186 -4.1372 2.8383
-1.9668 -4.1481 2.8383
-1.9151 -4.1587 2.8383
-1.8635 -4.1690 2.8383
-1.8119 -4.1790 2.8383
-1.7605 -4.1887 2.8383
-1.7091 -4.1981 2.8383
-1.6579 -4.2072 2.8383
-1.6067 -4.2160 2.8383
-1.5556 -4.2245 2.8383
-1.5046 -4.2328 2.8383
-1.4536 -4.2407 2.8383
-1.4028 -4.2484 2.8383
-1.3519 -4.2557 2.8383
-1.3012 -4.2628 2.8383
-1.2505 -4.2697 2.8383
-1.1999 -4.2762 2.8383
-1.0173 -3.7905 2.5122
-0.8989 -3.5080 2.3217
-0.8565 -3.5080 2.3186
-0.8143 -3.5080 2.3157
-0.7723 -3.5080 2.3129
-0.7305 -3.5080 2.3103
-0.6889 -3.5080 2.3078
-0.6474 -3.5080 2.3055
-0.6061 -3.5080 2.3033
-0.5649 -3.5080 2.3013
-0.5239 -3.5080 2.2994
-0.4829 -3.5080 2.2977
-0.4421 -3.5080 2.2961
-0.4014 -3.5080 2.2946
-0.3608 -3.5080 2.2933
-0.3203 -3.5080 2.2921
-0.2798 -3.5080 2.2911
-0.2394 -3.5080 2.2902
-0.1991 -3.5080 2.2894
-0.1588 -3.5080 2.2888
-0.1186 -3.5080 2.2884
-0.0783 -3.5080 2.2880
-0.0381 -3.5080 2.2878
0.0021 -3.5080 2.2878
0.0423 -3.5080 2.2878
0.0825 -3.5080 2.2880
0.1227 -3.5080 2.2884
0.1629 -3.5080 2.2889
0.2032 -3.5080 2.2895
0.2436 -3.5080 2.2903
0.2840 -3.5080 2.2912
0.3244 -3.5080 2.2922
0.3650 -3.5080 2.2934
0.4056 -3.5080 2.2948
0.4463 -3.5080 2.2962
0.4871 -3.5080 2.2978
0.5281 -3.5080 2.2996
0.5691 -3.5080 2.3015
0.6103 -3.5080 2.3035
0.6516 -3.5080 2.3057
0.6931 -3.5080 2.3081
0.7348 -3.5080 2.3106
0.7766 -3.5080 2.3132
0.8186 -3.5080 2.3160
0.8608 -3.5080 2.3190
0.9033 -3.5080 2.3221
1.0221 -3.7905 2.5126
1.2051 -4.2756 2.8383
1.2557 -4.2690 2.8383
1.3064 -4.2621 2.8383
1.3572 -4.2550 2.8383
1.4080 -4.2476 2.8383
1.4588 -4.2399 2.8383
1.5098 -4.2319 2.8383
1.5608 -4.2237 2.8383
1.6119 -4.2151 2.8383
1.6631 -4.2062 2.8383
1.7144 -4.1971 2.8383
1.7658 -4.1877 2.8383
1.8172 -4.1780 2.8383
1.8687 -4.1680 2.8383
1.9204 -4.1576 2.8383
1.9721 -4.1470 2.8383
2.0239 -4.1361 2.8383
2.0759 -4.1248 2.8383
2.1279 -4.1133 2.8383
2.1801 -4.1014 2.8383
2.2323 -4.0893 2.8383
2.2847 -4.0768 2.8383
2.3372 -4.0639 2.8383
2.3898 -4.0508 2.8383
2.4426 -4.0374 2.8383
2.4955 -4.0236 2.8383
2.5485 -4.0095 2.8383
2.6016 -3.9950 2.8383
2.6549 -3.9802 2.8383
2.7083 -3.9651 2.8383
2.7618 -3.9497 2.8383
2.8155 -3.9338 2.8383
2.8694 -3.9177 2.8383
2.9234 -3.9012 2.8383
2.9775 -3.8843 2.8383
3.0318 -3.8671 2.8383
3.0863 -3.8494 2.8383
3.1409 -3.8315 2.8383
-3.5125 -3.1662 2.8383
-3.4618 -3.1887 2.8383
-3.4112 -3.2107 2.8383
-3.3607 -3.2323 2.8383
-3.3104 -3.2536 2.8383
-3.2602 -3.2744 2.8383
-3.2101 -3.2949 2.8383
-3.1602 -3.3149 2.8383
-3.1104 -3.3347 2.8383
-3.0607 -3.3540 2.8383
-3.0111 -3.3730 2.8383
-2.9616 -3.3916 2.8383
-2.9123 -3.4098 2.8383
-2.8630 -3.4277 2.8383
-2.8139 -3.4452 2.8383
-2.7649 -3.4624 2.8383
-2.7160 -3.4792 2.8383
-2.6672 -3.4957 2.8383
-2.6185 -3.5119 2.8383
-2.5699 -3.5277 2.8383
-2.5214 -3.5431 2.8383
-2.4730 -3.5582 2.8383
-2.4247 -3.5731 2.8383
-2.3765 -3.5876 2.8383
-2.3284 -3.6017 2.8383
-2.2804 -3.6156 2.8383
-2.2324 -3.6291 2.8383
-2.1846 -3.6423 2.8383
-2.1368 -3.6551 2.8383
-2.0891 -3.6677 2.8383
-2.0415 -3.6800 2.8383
-1.9939 -3.6919 2.8383
-1.9465 -3.7036 2.8383
-1.8991 -3.7150 2.8383
-1.8518 -3.7260 2.8383
-1.8045 -3.7367 2.8383
-1.7574 -3.7472 2.8383
-1.7102 -3.7573 2.8383
-1.6632 -3.7672 2.8383
-1.6162 -3.7768 2.8383
-1.5693 -3.7861 2.8383
-1.5224 -3.7951 2.8383
-1.4756 -3.8038 2.8383
-1.4289 -3.8122 2.8383
-1.3822 -3.8204 2.8383
-1.3356 -3.8282 2.8383
-1.2890 -3.8358 2.8383
-1.2424 -3.8431 2.8383
-1.1959 -3.8501 2.8383
-1.1495 -3.8569 2.8383
-1.1031 -3.8634 2.8383
-1.0567 -3.8696 2.8383
-0.9146 -3.5080 2.5692
-0.8714 -3.5080 2.5654
-0.8284 -3.5080 2.5619
-0.7857 -3.5080 2.5585
-0.7431 -3.5080 2.5553
-0.7007 -3.5080 2.5523
-0.6585 -3.5080 2.5495
-0.6165 -3.5080 2.5468
-0.5746 -3.5080 2.5444
-0.5328 -3.5080 2.5421
-0.4912 -3.5080 2.5400
-0.4497 -3.5080 2.5380
-0.4083 -3.5080 2.5363
-0.3670 -3.5080 2.5347
-0.3257 -3.5080 2.5333
-0.2846 -3.5080 2.5320
-0.2435 -3.5080 2.5309
-0.2025 -3.5080 2.5300
-0.1615 -3.5080 2.5293
-0.1206 -3.5080 2.5287
-0.0797 -3.5080 2.5283
-0.0388 -3.5080 2.5280
0.0021 -3.5081 2.5280
0.0430 -3.5080 2.5281
0.0839 -3.5080 2.5283
0.1248 -3.5081 2.5287
0.1657 -3.5080 2.5293
0.2067 -3.5080 2.5301
0.2477 -3.5081 2.5310
0.2888 -3.5080 2.5321
0.3300 -3.5080 2.5334
0.3712 -3.5080 2.5348
0.4125 -3.5080 2.5365
0.4539 -3.5080 2.5382
0.4955 -3.5080 2.5402
0.5371 -3.5081 2.5423
0.5789 -3.5080 2.5446
0.6208 -3.5081 2.5471
0.6629 -3.5080 2.5498
0.7051 -3.5081 2.5526
0.7475 -3.5081 2.5556
0.7901 -3.5081 2.5588
0.8328 -3.5081 2.5622
0.8758 -3.5081 2.5658
0.9190 -3.5081 2.5696
1.0615 -3.8690 2.8383
1.1078 -3.8627 2.8383
1.1542 -3.8562 2.8383
1.2007 -3.8494 2.8383
1.2472 -3.8424 2.8383
1.2937 -3.8351 2.8383
1.3403 -3.8274 2.8383
1.3870 -3.8195 2.8383
1.4337 -3.8114 2.8383
1.4804 -3.8029 2.8383
1.5272 -3.7942 2.8383
1.5741 -3.7851 2.8383
1.6210 -3.7758 2.8383
1.6680 -3.7662 2.8383
1.7151 -3.7563 2.8383
1.7622 -3.7462 2.8383
1.9513 -3.7024 2.8383
1.8094 -3.7356 2.8383
1.9988 -3.6907 2.8383
2.0464 -3.6787 2.8383
1.8566 -3.7249 2.8383
2.0940 -3.6664 2.8383
1.9039 -3.7138 2.8383
2.1417 -3.6538 2.8383
2.3333 -3.6003 2.8383
2.1895 -3.6409 2.8383
2.3814 -3.5861 2.8383
2.2373 -3.6277 2.8383
2.4297 -3.5716 2.8383
2.2853 -3.6142 2.8383
2.4780 -3.5567 2.8383
2.5264 -3.5416 2.8383
2.5749 -3.5261 2.8383
2.6235 -3.5102 2.8383
2.6722 -3.4941 2.8383
2.7210 -3.4775 2.8383
2.7699 -3.4607 2.8383
2.8190 -3.4434 2.8383
2.8681 -3.4259 2.8383
-3.2121 -2.8238 2.8383
-3.1667 -2.8454 2.8383
-3.1213 -2.8666 2.8383
-3.0760 -2.8875 2.8383
-3.0308 -2.9080 2.8383
-2.9857 -2.9281 2.8383
-2.9406 -2.9479 2.8383
-2.8956 -2.9673 2.8383
-2.8507 -2.9864 2.8383
-2.8059 -3.0051 2.8383
-2.7611 -3.0235 2.8383
-2.7165 -3.0415 2.8383
-2.6718 -3.0592 2.8383
-2.6273 -3.0765 2.8383
-2.5828 -3.0935 2.8383
-2.5384 -3.1102 2.8383
-2.4941 -3.1265 2.8383
-2.4498 -3.1425 2.8383
-2.4056 -3.1582 2.8383
-2.3614 -3.1735 2.8383
-2.3174 -3.1886 2.8383
-2.2733 -3.2033 2.8383
-2.2294 -3.2177 2.8383
-2.1855 -3.2318 2.8383
-2.1416 -3.2456 2.8383
-2.0978 -3.2591 2.8383
-2.0541 -3.2723 2.8383
-2.0104 -3.2852 2.8383
-1.9668 -3.2977 2.8383
-1.9232 -3.3100 2.8383
-1.8797 -3.3220 2.8383
-1.8362 -3.3336 2.8383
-1.7928 -3.3450 2.8383
-1.7494 -3.3561 2.8383
-1.7061 -3.3669 2.8383
-1.6628 -3.3774 2.8383
-1.6195 -3.3876 2.8383
-1.5763 -3.3976 2.8383
-1.5332 -3.4072 2.8383
-1.4901 -3.4166 2.8383
-1.4470 -3.4257 2.8383
-1.4039 -3.4345 2.8383
-1.3609 -3.4430 2.8383
-1.3180 -3.4513 2.8383
-1.2750 -3.4593 2.8383
-1.2322 -3.4669 2.8383
-1.1893 -3.4744 2.8383
-1.1465 -3.4816 2.8383
-1.1037 -3.4884 2.8383
-1.0609 -3.4951 2.8383
-1.0181 -3.5014 2.8383
-0.9754 -3.5075 2.8383
-0.9327 -3.5133 2.8383
-0.8901 -3.5189 2.8383
-0.8474 -3.5242 2.8383
-0.8048 -3.5292 2.8383
-0.7622 -3.5340 2.8383
-0.7196 -3.5385 2.8383
-0.6771 -3.5427 2.8383
-0.6345 -3.5467 2.8383
-0.5920 -3.5504 2.8383
-0.5495 -3.5539 2.8383
-0.5070 -3.5571 2.8383
-0.4645 -3.5600 2.8383
-0.4221 -3.5627 2.8383
-0.3796 -3.5651 2.8383
-0.3372 -3.5673 2.8383
-0.2947 -3.5692 2.8383
-0.2523 -3.5709 2.8383
-0.2099 -3.5723 2.8383
-0.1675 -3.5734 2.8383
-0.1250 -3.5743 2.8383
-0.0826 -3.5749 2.8383
-0.0402 -3.5753 2.8383
0.0022 -3.5754 2.8383
0.0446 -3.5753 2.8383
0.0870 -3.5748 2.8383
0.1294 -3.5742 2.8383
0.1718 -3.5733 2.8383
0.2142 -3.5721 2.8383
0.2566 -3.5707 2.8383
0.2991 -3.5690 2.8383
0.3415 -3.5671 2.8383
0.3840 -3.5649 2.8383
0.4264 -3.5625 2.8383
0.4689 -3.5597 2.8383
0.5114 -3.5568 2.8383
0.5964 -3.5501 2.8383
0.5539 -3.5536 2.8383
0.6389 -3.5463 2.8383
0.7666 -3.5335 2.8383
0.6814 -3.5423 2.8383
0.8092 -3.5287 2.8383
0.7240 -3.5380 2.8383
0.8518 -3.5236 2.8383
0.9371 -3.5128 2.8383
0.8944 -3.5183 2.8383
0.9798 -3.5069 2.8383
1.1080 -3.4877 2.8383
1.0225 -3.5008 2.8383
1.1508 -3.4809 2.8383
1.0653 -3.4944 2.8383
1.1937 -3.4737 2.8383
1.2794 -3.4585 2.8383
1.2365 -3.4662 2.8383
1.3224 -3.4504 2.8383
1.4514 -3.4248 2.8383
1.3654 -3.4422 2.8383
1.4945 -3.4156 2.8383
1.4084 -3.4336 2.8383
1.5376 -3.4063 2.8383
1.6240 -3.3866 2.8383
1.5808 -3.3966 2.8383
1.6672 -3.3763 2.8383
1.7972 -3.3439 2.8383
1.7105 -3.3658 2.8383
1.8407 -3.3324 2.8383
1.8841 -3.3207 2.8383
1.7539 -3.3550 2.8383
1.9277 -3.3087 2.8383
1.9713 -3.2964 2.8383
2.1461 -3.2442 2.8383
2.0149 -3.2838 2.8383
2.1900 -3.2304 2.8383
2.2339 -3.2163 2.8383
2.0586 -3.2709 2.8383
2.2778 -3.2018 2.8383
2.1023 -3.2577 2.8383
2.3219 -3.1871 2.8383
2.3660 -3.1720 2.8383
2.4101 -3.1566 2.8383
2.4543 -3.1409 2.8383
2.4986 -3.1248 2.8383
2.5430 -3.1085 2.8383
2.5874 -3.0917 2.8383
2.6319 -3.0747 2.8383
-2.9501 -2.5252 2.8383
-2.9091 -2.5459 2.8383
-2.8682 -2.5663 2.8383
-2.8273 -2.5863 2.8383
-2.7864 -2.6060 2.8383
-2.7456 -2.6253 2.8383
-2.7048 -2.6444 2.8383
-2.6641 -2.6631 2.8383
-2.6233 -2.6814 2.8383
-2.5827 -2.6994 2.8383
-2.5420 -2.7171 2.8383
-2.5014 -2.7344 2.8383
-2.4609 -2.7515 2.8383
-2.4204 -2.7682 2.8383
-2.3799 -2.7846 2.8383
-2.3394 -2.8007 2.8383
-2.2990 -2.8165 2.8383
-2.2586 -2.8319 2.8383
-2.2183 -2.8471 2.8383
-2.1780 -2.8620 2.8383
-2.1377 -2.8765 2.8383
-2.0975 -2.8907 2.8383
-2.0573 -2.9047 2.8383
-2.0171 -2.9183 2.8383
-1.9770 -2.9317 2.8383
-1.9369 -2.9447 2.8383
-1.8968 -2.9575 2.8383
-1.8567 -2.9700 2.8383
-1.8167 -2.9822 2.8383
-1.7767 -2.9941 2.8383
-1.7368 -3.0057 2.8383
-1.6968 -3.0170 2.8383
-1.6569 -3.0281 2.8383
-1.6171 -3.0388 2.8383
-1.5772 -3.0493 2.8383
-1.5374 -3.0595 2.8383
-1.4976 -3.0695 2.8383
-1.4578 -3.0791 2.8383
-1.4181 -3.0885 2.8383
-1.3783 -3.0976 2.8383
-1.3386 -3.1064 2.8383
-1.2990 -3.1150 2.8383
-1.2593 -3.1233 2.8383
-1.2197 -3.1314 2.8383
-1.1801 -3.1392 2.8383
-1.1405 -3.1466 2.8383
-1.1009 -3.1539 2.8383
-1.0613 -3.1609 2.8383
-1.0218 -3.1676 2.8383
-0.9823 -3.1741 2.8383
-0.9428 -3.1802 2.8383
-0.9033 -3.1862 2.8383
-0.8638 -3.1918 2.8383
-0.8244 -3.1973 2.8383
-0.7849 -3.2024 2.8383
-0.7455 -3.2073 2.8383
-0.7061 -3.2120 2.8383
-0.6667 -3.2164 2.8383
-0.6273 -3.2205 2.8383
-0.5485 -3.2280 2.8383
-0.5879 -3.2244 2.8383
-0.5091 -3.2314 2.8383
-0.3911 -3.2400 2.8383
-0.4698 -3.2345 2.8383
-0.3518 -3.2424 2.8383
-0.4304 -3.2373 2.8383
-0.3125 -3.2445 2.8383
-0.2338 -3.2480 2.8383
-0.2731 -3.2463 2.8383
-0.1945 -3.2493 2.8383
-0.0766 -3.2519 2.8383
-0.1552 -3.2504 2.8383
-0.0373 -3.2522 2.8383
-0.1159 -3.2513 2.8383
0.0020 -3.2524 2.8383
0.0806 -3.2518 2.8383
0.0413 -3.2523 2.8383
0.1199 -3.2512 2.8383
0.2378 -3.2478 2.8383
0.1592 -3.2503 2.8383
0.2772 -3.2461 2.8383
0.3165 -3.2443 2.8383
0.1985 -3.2492 2.8383
0.3558 -3.2421 2.8383
0.3951 -3.2397 2.8383
0.5525 -3.2277 2.8383
0.4345 -3.2371 2.8383
0.5919 -3.2240 2.8383
0.4738 -3.2342 2.8383
0.6313 -3.2201 2.8383
0.5132 -3.2310 2.8383
0.6707 -3.2159 2.8383
0.7101 -3.2115 2.8383
0.8679 -3.1913 2.8383
0.7495 -3.2068 2.8383
0.9073 -3.1856 2.8383
0.9468 -3.1796 2.8383
0.7890 -3.2019 2.8383
0.9863 -3.1734 2.8383
0.8284 -3.1967 2.8383
1.0259 -3.1669 2.8383
1.1841 -3.1384 2.8383
1.0654 -3.1602 2.8383
1.2237 -3.1306 2.8383
1.1049 -3.1531 2.8383
1.2634 -3.1225 2.8383
1.1445 -3.1459 2.8383
1.3030 -3.1142 2.8383
1.3427 -3.1056 2.8383
1.5017 -3.0685 2.8383
1.3824 -3.0967 2.8383
1.5415 -3.0585 2.8383
1.4221 -3.0876 2.8383
1.4619 -3.0781 2.8383
1.5813 -3.0482 2.8383
1.6610 -3.0270 2.8383
1.6211 -3.0377 2.8383
1.7009 -3.0159 2.8383
1.8208 -2.9809 2.8383
1.7409 -3.0045 2.8383
1.8608 -2.9687 2.8383
1.7808 -2.9928 2.8383
1.9009 -2.9562 2.8383
1.9811 -2.9304 2.8383
1.9410 -2.9434 2.8383
2.0212 -2.9169 2.8383
2.1419 -2.8750 2.8383
2.0614 -2.9033 2.8383
2.1821 -2.8605 2.8383
2.1016 -2.8893 2.8383
2.2224 -2.8456 2.8383
2.3032 -2.8149 2.8383
2.2628 -2.8304 2.8383
2.3436 -2.7990 2.8383
2.3840 -2.7829 2.8383
2.4245 -2.7665 2.8383
-2.7187 -2.2614 2.8383
-2.6815 -2.2812 2.8383
-2.6444 -2.3007 2.8383
-2.6073 -2.3198 2.8383
-2.5701 -2.3387 2.8383
-2.5330 -2.3572 2.8383
-2.4959 -2.3754 2.8383
-2.4588 -2.3933 2.8383
-2.4217 -2.4109 2.8383
-2.3847 -2.4282 2.8383
-2.3476 -2.4452 2.8383
-2.3106 -2.4618 2.8383
-2.2735 -2.4782 2.8383
-2.2365 -2.4943 2.8383
-2.1995 -2.5100 2.8383
-2.1625 -2.5255 2.8383
-2.1255 -2.5407 2.8383
-2.0885 -2.5556 2.8383
-2.0516 -2.5702 2.8383
-2.0146 -2.5845 2.8383
-1.9777 -2.5985 2.8383
-1.9408 -2.6122 2.8383
-1.9039 -2.6256 2.8383
-1.8670 -2.6388 2.8383
-1.8301 -2.6517 2.8383
-1.7932 -2.6643 2.8383
-1.7564 -2.6766 2.8383
-1.7196 -2.6886 2.8383
-1.6827 -2.7004 2.8383
-1.6459 -2.7119 2.8383
-1.6091 -2.7231 2.8383
-1.5723 -2.7341 2.8383
-1.5355 -2.7447 2.8383
-1.4987 -2.7552 2.8383
-1.4620 -2.7653 2.8383
-1.4252 -2.7751 2.8383
-1.3885 -2.7848 2.8383
-1.3517 -2.7941 2.8383
-1.3150 -2.8032 2.8383
-1.2783 -2.8120 2.8383
-1.2416 -2.8206 2.8383
-1.2049 -2.8289 2.8383
-1.0949 -2.8522 2.8383
-1.1683 -2.8369 2.8383
-1.0583 -2.8595 2.8383
-1.1316 -2.8447 2.8383
-1.0216 -2.8665 2.8383
-0.9484 -2.8798 2.8383
-0.9850 -2.8733 2.8383
-0.8020 -2.9033 2.8383
-0.9118 -2.8861 2.8383
-0.7654 -2.9086 2.8383
-0.8752 -2.8921 2.8383
-0.7288 -2.9136 2.8383
-0.8386 -2.8978 2.8383
-0.6922 -2.9184 2.8383
-0.6557 -2.9229 2.8383
-0.5094 -2.9384 2.8383
-0.4729 -2.9417 2.8383
-0.6191 -2.9271 2.8383
-0.4364 -2.9447 2.8383
-0.5825 -2.9311 2.8383
-0.3998 -2.9475 2.8383
-0.5460 -2.9349 2.8383
-0.3633 -2.9501 2.8383
-0.3268 -2.9524 2.8383
-0.2172 -2.9578 2.8383
-0.2903 -2.9544 2.8383
-0.1807 -2.9591 2.8383
-0.2537 -2.9562 2.8383
-0.1442 -2.9602 2.8383
-0.0712 -2.9616 2.8383
-0.1077 -2.9610 2.8383
-0.0346 -2.9620 2.8383
0.0019 -2.9621 2.8383
0.0749 -2.9616 2.8383
0.0384 -2.9620 2.8383
0.1114 -2.9609 2.8383
0.2210 -2.9576 2.8383
0.2575 -2.9560 2.8383
0.1479 -2.9601 2.8383
0.2940 -2.9542 2.8383
0.1844 -2.9590 2.8383
0.3305 -2.9521 2.8383
0.3670 -2.9498 2.8383
0.5132 -2.9381 2.8383
0.5497 -2.9345 2.8383
0.4036 -2.9472 2.8383
0.5863 -2.9307 2.8383
0.4401 -2.9444 2.8383
0.6228 -2.9267 2.8383
0.4766 -2.9414 2.8383
0.6594 -2.9224 2.8383
0.8057 -2.9028 2.8383
0.6960 -2.9179 2.8383
0.8423 -2.8972 2.8383
0.7326 -2.9131 2.8383
0.8789 -2.8915 2.8383
0.7691 -2.9080 2.8383
0.9155 -2.8854 2.8383
0.9521 -2.8792 2.8383
0.9888 -2.8726 2.8383
1.0987 -2.8515 2.8383
1.0254 -2.8658 2.8383
1.1353 -2.8439 2.8383
1.0620 -2.8588 2.8383
1.1720 -2.8361 2.8383
1.2454 -2.8197 2.8383
1.2087 -2.8281 2.8383
1.2821 -2.8111 2.8383
1.3922 -2.7838 2.8383
1.3188 -2.8023 2.8383
1.5393 -2.7437 2.8383
1.4290 -2.7742 2.8383
1.3555 -2.7932 2.8383
1.5761 -2.7329 2.8383
1.6865 -2.6992 2.8383
1.4657 -2.7643 2.8383
1.8339 -2.6504 2.8383
1.6129 -2.7220 2.8383
1.5025 -2.7541 2.8383
1.7233 -2.6874 2.8383
1.8708 -2.6375 2.8383
1.6497 -2.7107 2.8383
1.9815 -2.5970 2.8383
1.9077 -2.6243 2.8383
1.7602 -2.6754 2.8383
2.1293 -2.5392 2.8383
1.9446 -2.6108 2.8383
2.0184 -2.5830 2.8383
1.7970 -2.6630 2.8383
2.1663 -2.5240 2.8383
2.0554 -2.5687 2.8383
2.2033 -2.5084 2.8383
2.0923 -2.5541 2.8383
2.2403 -2.4926 2.8383
-2.5119 -2.0257 2.8383
-2.4781 -2.0445 2.8383
-2.3766 -2.0994 2.8383
-2.4443 -2.0632 2.8383
-2.2410 -2.1685 2.8383
-2.3427 -2.1171 2.8383
-2.2071 -2.1850 2.8383
-2.4104 -2.0814 2.8383
-2.3088 -2.1346 2.8383
-2.1053 -2.2329 2.8383
-1.9696 -2.2928 2.8383
-2.1732 -2.2013 2.8383
-2.2749 -2.1517 2.8383
-1.8337 -2.3482 2.8383
-2.0714 -2.2483 2.8383
-1.9356 -2.3071 2.8383
-1.6978 -2.3994 2.8383
-2.1393 -2.2172 2.8383
-1.7997 -2.3614 2.8383
-2.0375 -2.2634 2.8383
-1.9016 -2.3210 2.8383
-1.6638 -2.4115 2.8383
-1.5618 -2.4462 2.8383
-1.7657 -2.3743 2.8383
-1.8677 -2.3348 2.8383
-1.6298 -2.4233 2.8383
-2.0035 -2.2782 2.8383
-1.5278 -2.4573 2.8383
-1.7318 -2.3870 2.8383
-1.5958 -2.4349 2.8383
-1.4258 -2.4889 2.8383
-1.2899 -2.5275 2.8383
-1.4938 -2.4681 2.8383
-1.0179 -2.5926 2.8383
-1.1539 -2.5620 2.8383
-1.3918 -2.4989 2.8383
-1.2559 -2.5365 2.8383
-0.9839 -2.5996 2.8383
-1.4598 -2.4786 2.8383
-1.1199 -2.5700 2.8383
-1.3578 -2.5087 2.8383
-1.2219 -2.5452 2.8383
-0.9499 -2.6064 2.8383
-0.8819 -2.6192 2.8383
-1.0859 -2.5778 2.8383
-1.3238 -2.5182 2.8383
-0.9159 -2.6129 2.8383
-1.1879 -2.5538 2.8383
-0.8479 -2.6252 2.8383
-1.0519 -2.5853 2.8383
-0.6100 -2.6608 2.8383
-0.7459 -2.6419 2.8383
-0.4740 -2.6758 2.8383
-0.8139 -2.6310 2.8383
-0.5760 -2.6649 2.8383
-0.3381 -2.6871 2.8383
-0.7119 -2.6470 2.8383
-0.4400 -2.6790 2.8383
-0.5420 -2.6688 2.8383
-0.6780 -2.6518 2.8383
-0.3041 -2.6893 2.8383
-0.7799 -2.6366 2.8383
-0.4061 -2.6819 2.8383
-0.5080 -2.6724 2.8383
-0.6440 -2.6564 2.8383
-0.0662 -2.6983 2.8383
-0.2701 -2.6913 2.8383
-0.3721 -2.6846 2.8383
-0.2021 -2.6945 2.8383
-0.0322 -2.6986 2.8383
0.0697 -2.6982 2.8383
0.2056 -2.6944 2.8383
-0.2361 -2.6930 2.8383
-0.1682 -2.6958 2.8383
0.0017 -2.6987 2.8383
0.1037 -2.6976 2.8383
0.2396 -2.6929 2.8383
0.3416 -2.6868 2.8383
0.0357 -2.6986 2.8383
-0.1342 -2.6969 2.8383
0.1377 -2.6968 2.8383
0.2736 -2.6911 2.8383
0.4775 -2.6755 2.8383
0.3755 -2.6843 2.8383
-0.1002 -2.6977 2.8383
0.1716 -2.6957 2.8383
0.5115 -2.6721 2.8383
0.3076 -2.6891 2.8383
0.4095 -2.6816 2.8383
0.7494 -2.6414 2.8383
0.6135 -2.6603 2.8383
0.5455 -2.6684 2.8383
0.8854 -2.6186 2.8383
0.4435 -2.6787 2.8383
0.7834 -2.6360 2.8383
0.5795 -2.6645 2.8383
0.6474 -2.6559 2.8383
0.9194 -2.6122 2.8383
1.0214 -2.5918 2.8383
1.1573 -2.5612 2.8383
0.8174 -2.6304 2.8383
0.6814 -2.6513 2.8383
0.9534 -2.6057 2.8383
1.1913 -2.5529 2.8383
0.8514 -2.6246 2.8383
1.0554 -2.5845 2.8383
0.7154 -2.6465 2.8383
0.9874 -2.5989 2.8383
1.2253 -2.5444 2.8383
1.2933 -2.5265 2.8383
1.0893 -2.5770 2.8383
1.4293 -2.4879 2.8383
1.2593 -2.5356 2.8383
1.5653 -2.4451 2.8383
1.3273 -2.5173 2.8383
1.1233 -2.5692 2.8383
1.7013 -2.3981 2.8383
1.4633 -2.4775 2.8383
1.5993 -2.4337 2.8383
1.3613 -2.5077 2.8383
1.7352 -2.3857 2.8383
1.8372 -2.3469 2.8383
1.4973 -2.4670 2.8383
1.3953 -2.4979 2.8383
1.6333 -2.4221 2.8383
1.7692 -2.3730 2.8383
1.8711 -2.3334 2.8383
1.5313 -2.4561 2.8383
1.9730 -2.2913 2.8383
1.8032 -2.3601 2.8383
1.6673 -2.4103 2.8383
1.9051 -2.3196 2.8383
2.0070 -2.2767 2.8383
1.9391 -2.3056 2.8383
2.0409 -2.2619 2.8383
2.0749 -2.2467 2.8383
