ply
format ascii 1.0
element vertex 2057
property float32 x
property float32 y
property float32 z
end_header
-24.6485 4.9097 -6.1330
-23.9469 5.7511 -6.3000
-24.7812 4.6854 -6.0799
-24.3740 5.6020 -6.3240
-24.8569 4.4494 -6.0130
-25.3153 5.5584 -6.4775
-24.9327 4.2129 -5.9465
-25.0085 3.9759 -5.8802
-24.4374 5.1160 -6.1662
-25.0843 3.7384 -5.8143
-25.3120 3.0222 -5.6182
-25.1602 3.5004 -5.7486
-25.3881 2.7821 -5.5533
-25.2361 3.2616 -5.6833
-27.9607 2.7903 -6.0268
-31.5037 2.5295 -6.5920
-28.0495 2.5254 -5.9572
-26.9530 1.9022 -5.5559
-32.0301 1.3303 -6.3081
-27.0659 1.6477 -5.4956
-32.7397 1.0437 -6.3491
-31.9355 1.6350 -6.3865
-32.8401 0.7304 -6.2702
-33.2513 0.0993 -6.1518
-32.7123 0.4125 -6.1486
-33.3500 -0.2211 -6.0723
-33.4491 -0.5434 -5.9929
-33.5486 -0.8674 -5.9137
-41.5792 -11.7094 -4.4054
-41.4156 -12.0909 -4.2812
-38.8044 -12.1366 -3.8115
-40.0713 -12.1144 -4.0390
-36.5882 -11.8278 -3.4998
-35.9434 -12.7663 -3.1617
-36.3705 -12.1418 -3.3856
-35.7340 -13.0771 -3.0518
-36.1556 -12.4546 -3.2729
-35.5271 -13.3871 -2.9432
-35.1207 -14.0050 -2.7299
-35.3227 -13.6964 -2.8360
-7.2267 -3.2066 -0.4877
-35.0031 -14.3467 -2.6312
-7.2287 -3.2905 -0.4693
-35.0019 -14.7379 -2.5416
-7.2309 -3.3752 -0.4509
-7.2247 -3.1235 -0.5061
-7.2332 -3.4608 -0.4324
-7.2355 -3.5473 -0.4139
-7.2461 -3.9028 -0.3395
-7.2072 -3.9713 -0.3189
-7.2380 -3.6347 -0.3954
-7.2775 -4.1012 -0.3030
-7.2406 -3.7230 -0.3768
-7.2433 -3.8124 -0.3582
-7.3265 -4.2217 -0.2858
-7.1822 -4.2307 -0.2613
-6.8819 -4.4174 -0.1772
-6.7053 -4.3953 -0.1546
-7.1663 -4.3142 -0.2417
-6.5356 -4.3743 -0.1330
-7.2083 -4.4341 -0.2240
-6.4357 -4.3974 -0.1135
-7.0659 -4.4404 -0.2008
-6.2977 -4.3923 -0.0939
-6.1637 -4.3874 -0.0749
-7.0917 -5.3624 -0.0270
-6.0337 -4.3827 -0.0567
-6.6535 -4.9313 -0.0440
-21.6985 -18.1118 0.2282
-21.7026 -19.2067 0.4212
-21.6998 -18.4706 0.2919
-21.7040 -19.5846 0.4867
-21.7012 -18.8354 0.3562
-21.7055 -19.9693 0.5530
-21.7084 -20.7605 0.6876
-21.7069 -20.3612 0.6199
-21.7100 -21.1675 0.7561
-21.7017 -22.4242 0.9658
-21.6479 -21.5192 0.8229
-21.7033 -22.8648 1.0377
-21.7050 -23.3149 1.1105
-21.6159 -21.9072 0.8914
-21.7068 -23.7747 1.1844
-21.7085 -24.2447 1.2593
-21.7160 -26.2354 1.5707
-21.7103 -24.7253 1.3353
-21.7363 -28.4442 1.9047
-21.7122 -25.2169 1.4125
-21.7172 -26.7624 1.6517
-21.7385 -29.0289 1.9918
-21.7141 -25.7201 1.4910
-21.6358 -27.1985 1.7275
-21.7408 -29.6294 2.0807
-21.7455 -30.8810 2.2640
-21.7431 -30.2465 2.1714
-21.7342 -27.8747 1.8191
-21.7480 -31.5338 2.3586
-21.6620 -32.0749 2.4453
-21.7489 -32.8918 2.5537
-22.0056 -33.9977 2.6860
-21.1808 -33.4356 2.6859
-20.3974 -32.9068 2.6859
-19.7688 -32.6010 2.7019
-19.7523 -33.3051 2.8009
-19.2993 -33.2802 2.8383
-7.1416 -12.5980 1.0890
-25.1383 6.3916 -5.4128
-26.7898 5.7095 -5.4007
-25.6113 6.2463 -5.4255
-27.1163 5.5038 -5.3757
-28.0932 5.4182 -5.4760
-24.9832 5.8356 -5.2064
-27.8562 5.0923 -5.3380
-25.6591 5.7304 -5.2596
-27.9427 4.8281 -5.2633
-28.0932 3.7390 -4.9320
-28.1830 3.4736 -4.8593
-27.8246 4.5301 -5.1510
-28.2730 3.2074 -4.7867
-27.9140 4.2672 -5.0778
-28.3632 2.9401 -4.7142
-28.0035 4.0035 -5.0048
-35.1604 3.3016 -5.7360
-35.4142 2.9807 -5.6693
-35.1422 1.9355 -5.3082
-35.0527 1.5918 -5.1905
-35.3229 2.6298 -5.5476
-36.0776 1.2902 -5.2355
-35.2322 2.2815 -5.4273
-49.4749 0.8159 -6.8896
-45.0419 -11.5989 -2.7776
-45.2797 -12.1237 -2.6702
-40.5188 -12.1066 -2.0614
-43.3635 -12.0568 -2.4402
-39.2212 -12.1293 -1.8895
-42.0594 -12.1293 -2.2533
-38.1443 -12.1979 -1.7345
-36.0216 -12.2848 -1.4429
-36.8398 -12.1710 -1.5754
-36.0286 -12.6739 -1.3454
-36.0515 -13.8594 -1.0515
-36.0362 -13.0661 -1.2477
-36.0593 -14.2609 -0.9531
-36.0438 -13.4612 -1.1497
-36.0671 -14.6656 -0.8543
-36.0826 -15.4855 -0.6558
-36.0750 -15.0739 -0.7552
-36.0896 -15.9005 -0.5560
-36.1111 -17.1690 -0.2541
-36.0967 -16.3194 -0.4558
-36.1184 -17.6001 -0.1525
-36.1039 -16.7422 -0.3551
-7.0257 -3.5075 -0.0098
-7.0272 -3.5931 0.0101
-7.0288 -3.6797 0.0302
-7.0305 -3.7672 0.0504
-7.2066 -4.1339 0.1143
-7.0322 -3.8557 0.0707
-7.2048 -4.2257 0.1355
-7.0340 -3.9453 0.0911
-7.1489 -4.2861 0.1555
-6.8430 -4.2844 0.1898
-6.9985 -4.2882 0.1731
-6.6926 -4.2807 0.2058
-6.2687 -4.2706 0.2504
-6.5468 -4.2771 0.2212
-6.6735 -4.6415 0.2874
-6.4056 -4.2738 0.2361
-6.6167 -4.6977 0.3058
-6.9689 -5.0499 0.3442
-21.6780 -16.0311 1.1402
-21.6949 -17.3848 1.4263
-21.6071 -16.3050 1.2064
-21.6962 -17.7346 1.4997
-21.5964 -16.6280 1.2764
-21.6976 -18.0902 1.5739
-21.6936 -17.0407 1.3538
-21.6989 -18.4519 1.6490
-21.7003 -18.8198 1.7250
-21.7060 -20.3593 2.0391
-21.7017 -19.1943 1.8020
-21.7075 -20.7624 2.1204
-21.7031 -19.5755 1.8800
-21.7091 -21.1734 2.2029
-21.7045 -19.9637 1.9590
-21.6369 -21.5193 2.2788
-21.6151 -21.9217 2.3610
-21.4009 -23.4748 2.6859
-21.7008 -22.4434 2.4565
-20.7008 -23.1586 2.6859
-21.7025 -22.8889 2.5442
-22.1377 -23.8104 2.6861
-20.0335 -22.8593 2.6859
-19.7383 -22.9732 2.7333
-19.7235 -23.4171 2.8197
-17.5393 -22.5679 2.8383
-19.2385 -23.3019 2.8383
-17.0167 -22.3460 2.8383
-18.6486 -23.0451 2.8383
-16.5137 -22.1344 2.8383
-18.0828 -22.8007 2.8383
-16.0290 -21.9324 2.8383
-15.5614 -21.7393 2.8383
-15.1099 -21.5548 2.8383
-14.6736 -21.3783 2.8383
-14.2516 -21.2094 2.8383
-13.8430 -21.0477 2.8383
-13.4470 -20.8928 2.8383
-13.0630 -20.7443 2.8383
-12.6903 -20.6019 2.8383
-12.3282 -20.4653 2.8383
-11.9763 -20.3343 2.8383
-11.6339 -20.2085 2.8383
-28.0361 7.5189 -4.7137
-28.1074 7.2454 -4.6319
-28.3829 7.0227 -4.5833
-28.4585 6.7485 -4.5021
-33.0538 7.4998 -5.1213
-30.2544 6.5564 -4.5898
-32.3925 6.6913 -4.8103
-32.4906 6.3836 -4.7213
-32.5650 6.0710 -4.6292
-32.6651 5.7627 -4.5408
-32.7654 5.4538 -4.4526
-32.3590 5.0648 -4.2971
-32.9664 4.8337 -4.2762
-33.0672 4.5223 -4.1881
-33.2699 4.2229 -4.1126
-33.3754 3.9091 -4.0247
-40.8581 4.3860 -4.8041
-48.7448 3.3371 -5.1525
-48.1641 2.3660 -4.8092
-48.7734 1.9252 -4.7282
-49.2838 1.4703 -4.6349
-49.0011 0.5184 -4.3261
-48.9017 0.0469 -4.1772
-48.8433 -0.4229 -4.0327
-48.7845 -0.8916 -3.8890
-41.6768 -8.0650 -1.2221
-38.1774 -7.7689 -1.0130
-38.3909 -8.1971 -0.9116
-38.3977 -8.5850 -0.8045
-38.4045 -8.9747 -0.6972
-38.4114 -9.3664 -0.5897
-38.4183 -9.7601 -0.4820
-38.4252 -10.1560 -0.3741
-38.3674 -10.5363 -0.2654
-38.4392 -10.9545 -0.1574
-38.4462 -11.3573 -0.0485
-38.4778 -11.7702 0.0607
-38.3763 -12.1441 0.1698
-37.1936 -12.1648 0.2708
-36.0918 -12.1903 0.3663
-21.6478 -7.5446 0.2820
-21.6486 -7.7796 0.3445
-21.6495 -8.0162 0.4073
-21.6504 -8.2546 0.4704
-21.6513 -8.4949 0.5338
-21.6522 -8.7372 0.5975
-21.6531 -8.9814 0.6615
-21.6540 -9.2277 0.7259
-21.6549 -9.4762 0.7906
-21.6558 -9.7268 0.8557
-21.6606 -11.0165 1.1876
-7.4542 -3.8825 0.4320
-7.3723 -3.9311 0.4505
-21.6616 -11.8216 1.3925
-21.6626 -12.0963 1.4619
-21.6636 -12.3741 1.5319
-7.1821 -4.1954 0.5312
-7.1422 -4.2656 0.5518
-6.8100 -4.1575 0.5487
-6.6608 -4.1559 0.5589
-6.5162 -4.1543 0.5688
-6.3762 -4.1528 0.5784
-6.9238 -4.6061 0.6519
-6.8889 -4.6803 0.6726
-6.8538 -4.7548 0.6933
-21.6567 -9.9798 0.9212
-21.6747 -15.3522 2.2699
-21.6577 -10.2352 0.9872
-21.6759 -15.6730 2.3481
-21.6586 -10.4931 1.0535
-21.6771 -15.9986 2.4273
-21.6596 -10.7535 1.1204
-21.6072 -16.2756 2.4993
-21.8023 -17.1012 2.6859
-21.5955 -16.6002 2.5786
-21.1442 -16.9220 2.6859
-19.7214 -16.7580 2.7385
-19.7078 -17.0824 2.8166
-20.5162 -16.7517 2.6859
-19.3034 -17.0668 2.8383
-19.9163 -16.5900 2.6859
-18.7695 -16.9263 2.8383
-18.2565 -16.7922 2.8383
-16.3892 -16.3124 2.8383
-17.7632 -16.6641 2.8383
-15.9631 -16.2049 2.8383
-17.2883 -16.5417 2.8383
-15.5514 -16.1019 2.8383
-16.8306 -16.4245 2.8383
-15.1532 -16.0031 2.8383
-14.7679 -15.9083 2.8383
-13.3411 -15.5646 2.8383
-14.3946 -15.8172 2.8383
-13.0101 -15.4868 2.8383
-14.0328 -15.7297 2.8383
-13.6818 -15.6455 2.8383
-12.6883 -15.4118 2.8383
-12.3753 -15.3396 2.8383
-12.0706 -15.2701 2.8383
-10.9274 -15.0161 2.8383
-11.7739 -15.2031 2.8383
-11.4846 -15.1385 2.8383
-10.6587 -14.9581 2.8383
-11.2026 -15.0762 2.8383
-10.3962 -14.9022 2.8383
-9.8887 -14.7960 2.8383
-10.1396 -14.8482 2.8383
-9.1254 -13.9539 2.6859
-8.8979 -13.9079 2.6859
-8.6752 -13.8635 2.6859
-8.4569 -13.8206 2.6859
-8.2428 -13.7791 2.6859
-8.0329 -13.7390 2.6859
-40.6818 11.4726 -4.9346
-40.5873 11.0219 -4.7934
-40.4939 10.5758 -4.6537
-40.4016 10.1343 -4.5157
-40.3104 9.6972 -4.3791
-40.2201 9.2643 -4.2441
-30.2869 6.6681 -3.1022
-30.0949 6.3212 -2.9900
-39.9550 7.9895 -3.8473
-39.8684 7.5720 -3.7177
-39.7827 7.1581 -3.5894
-39.6978 6.7476 -3.4622
-39.6137 6.3403 -3.3362
-39.5304 5.9362 -3.2113
-39.4478 5.5351 -3.0875
-39.3659 5.1368 -2.9647
-39.2847 4.7414 -2.8430
-39.1824 4.3462 -2.7207
-42.9024 4.3406 -2.8537
-49.5816 4.0530 -3.0097
-49.5672 3.0921 -2.7225
-47.6131 2.0510 -2.3416
-48.3552 1.6170 -2.2396
-48.8779 1.1637 -2.1242
-48.7445 0.6915 -1.9794
-42.7415 -6.0094 0.2031
-40.2410 -6.0532 0.3058
-38.4310 -6.1597 0.4017
-21.6337 -3.6813 0.2879
-21.6345 -3.8961 0.3499
-21.6353 -4.1116 0.4120
-21.6361 -4.3280 0.4743
-21.6369 -4.5454 0.5368
-21.6377 -4.7636 0.5995
-21.6385 -4.9829 0.6623
-21.6393 -5.2032 0.7254
-21.6401 -5.4246 0.7888
-21.6410 -5.6472 0.8523
-21.5570 -5.8480 0.9126
-21.5578 -6.0721 0.9764
-21.5596 -6.2979 1.0406
-21.6434 -6.5499 1.1094
-21.6442 -6.7790 1.1744
-21.6451 -7.0097 1.2398
-21.6459 -7.2419 1.3055
-21.6468 -7.4757 1.3716
-21.6477 -7.7113 1.4381
-21.6485 -7.9486 1.5051
-21.6494 -8.1877 1.5724
-21.6503 -8.4286 1.6402
-21.6512 -8.6716 1.7085
-21.6521 -8.9166 1.7772
-21.6530 -9.1637 1.8465
-21.6539 -9.4130 1.9162
-21.6549 -9.6645 1.9866
-21.6558 -9.9184 2.0574
-21.6567 -10.1747 2.1289
-21.6577 -10.4335 2.2010
-21.6587 -10.6950 2.2738
-21.6596 -10.9591 2.3472
-21.5747 -11.1815 2.4116
-21.5757 -11.4503 2.4861
-21.6606 -11.7677 2.5714
-21.9752 -12.2179 2.6860
-7.1992 -4.0952 0.9055
-7.1593 -4.1656 0.9262
-7.1192 -4.2361 0.9469
-19.7218 -11.9978 2.6955
-19.7047 -12.2534 2.7663
-19.6911 -12.5143 2.8383
-19.1851 -12.4584 2.8383
-18.6987 -12.4051 2.8383
-18.2306 -12.3541 2.8383
-17.7798 -12.3053 2.8383
-17.3451 -12.2584 2.8383
-16.9257 -12.2135 2.8383
-16.5207 -12.1705 2.8383
-16.1292 -12.1291 2.8383
-15.7506 -12.0894 2.8383
-15.3841 -12.0512 2.8383
-15.0291 -12.0144 2.8383
-14.6849 -11.9791 2.8383
-14.3510 -11.9450 2.8383
-14.0268 -11.9122 2.8383
-13.7120 -11.8806 2.8383
-13.4059 -11.8501 2.8383
-13.1083 -11.8207 2.8383
-12.8186 -11.7923 2.8383
-12.5365 -11.7649 2.8383
-12.2617 -11.7384 2.8383
-11.9937 -11.7128 2.8383
-11.7324 -11.6881 2.8383
-11.4773 -11.6642 2.8383
-11.2283 -11.6411 2.8383
-10.9850 -11.6187 2.8383
-10.7472 -11.5971 2.8383
-10.5147 -11.5761 2.8383
-10.2872 -11.5558 2.8383
-10.0645 -11.5362 2.8383
-9.8465 -11.5172 2.8383
-9.1156 -10.8814 2.6859
-8.9175 -10.8645 2.6859
-8.7232 -10.8481 2.6859
-8.5327 -10.8322 2.6859
-8.3457 -10.8168 2.6859
-8.1621 -10.8019 2.6859
-7.9818 -10.7875 2.6859
-7.8046 -10.7735 2.6859
-7.6305 -10.7599 2.6859
-7.4592 -10.7467 2.6859
-7.2908 -10.7339 2.6859
-7.1251 -10.7215 2.6859
-6.9620 -10.7095 2.6859
-6.8014 -10.6978 2.6859
-6.6431 -10.6865 2.6859
-6.4872 -10.6755 2.6859
-6.3335 -10.6649 2.6859
-39.1911 11.5922 -2.9243
-38.7439 11.0534 -2.7725
-38.7509 10.6514 -2.6551
-39.0900 10.3392 -2.5601
-39.0970 9.9379 -2.4429
-39.1040 9.5385 -2.3262
-39.1109 9.1410 -2.2100
-39.2701 8.7794 -2.1024
-30.1236 6.4300 -1.5237
-39.2840 7.9899 -1.8713
-39.2908 7.5975 -1.7564
-39.2977 7.2065 -1.6419
-39.3045 6.8169 -1.5277
-39.3113 6.4285 -1.4138
-39.3181 6.0414 -1.3003
-39.1724 5.6334 -1.1823
-39.1791 5.2498 -1.0697
-39.1858 4.8671 -0.9573
-39.4840 4.5186 -0.8514
-48.8467 4.1658 -0.6347
-48.5970 3.6739 -0.4931
-49.6812 3.2755 -0.3627
-49.5948 2.7910 -0.2211
-49.9321 2.3284 -0.0808
-21.6113 -0.0323 0.2717
-21.6121 -0.2401 0.3331
-21.6129 -0.4481 0.3945
-21.5382 -0.6539 0.4545
-21.5306 -0.8610 0.5156
-21.5314 -1.0687 0.5770
-21.6243 -1.2820 0.6413
-21.6250 -1.4910 0.7032
-21.6258 -1.7003 0.7652
-21.6266 -1.9101 0.8273
-21.6273 -2.1202 0.8896
-21.6281 -2.3307 0.9521
-21.6289 -2.5418 1.0147
-21.6297 -2.7534 1.0775
-21.6304 -2.9656 1.1405
-21.6312 -3.1784 1.2038
-21.6320 -3.3920 1.2672
-21.6328 -3.6062 1.3309
-21.6336 -3.8212 1.3949
-21.6344 -4.0370 1.4591
-21.6352 -4.2537 1.5236
-21.6360 -4.4713 1.5884
-21.6368 -4.6899 1.6535
-21.6376 -4.9095 1.7190
-21.6384 -5.1302 1.7848
-21.6392 -5.3519 1.8510
-21.6400 -5.5749 1.9175
-21.6016 -5.7886 1.9809
-21.5569 -6.0010 2.0438
-21.5577 -6.2269 2.1113
-21.6424 -6.4793 2.1877
-21.6433 -6.7090 2.2564
-21.6441 -6.9402 2.3256
-21.6450 -7.1730 2.3952
-21.6458 -7.4074 2.4654
-21.6467 -7.6435 2.5362
-22.3009 -8.1193 2.6862
-21.7018 -8.1412 2.6859
-21.1310 -8.1626 2.6859
-20.5850 -8.1831 2.6859
-20.0621 -8.2026 2.6859
-19.7057 -8.2821 2.7058
-19.6939 -8.5043 2.7724
-19.6734 -8.7244 2.8383
-19.2035 -8.7415 2.8383
-18.7511 -8.7580 2.8383
-18.3152 -8.7738 2.8383
-17.8949 -8.7889 2.8383
-17.4892 -8.8034 2.8383
-17.0973 -8.8173 2.8383
-16.7185 -8.8307 2.8383
-16.3520 -8.8436 2.8383
-15.9972 -8.8560 2.8383
-7.1946 -4.0759 1.3046
-7.1558 -4.1475 1.3257
-7.1171 -4.2192 1.3470
-14.6829 -8.9013 2.8383
-14.3781 -8.9116 2.8383
-14.0817 -8.9215 2.8383
-13.7935 -8.9312 2.8383
-13.5131 -8.9405 2.8383
-13.2400 -8.9495 2.8383
-12.9741 -8.9582 2.8383
-12.7148 -8.9666 2.8383
-12.4620 -8.9747 2.8383
-12.2153 -8.9825 2.8383
-11.9745 -8.9902 2.8383
-11.7394 -8.9976 2.8383
-11.5096 -9.0047 2.8383
-11.2850 -9.0116 2.8383
-11.0653 -9.0184 2.8383
-10.8504 -9.0249 2.8383
-10.6400 -9.0312 2.8383
-10.4340 -9.0374 2.8383
-10.2322 -9.0433 2.8383
-10.0344 -9.0491 2.8383
-9.8406 -9.0547 2.8383
-9.1322 -8.5737 2.6859
-8.9557 -8.5787 2.6859
-8.7824 -8.5836 2.6859
-8.6122 -8.5883 2.6859
-8.4451 -8.5929 2.6859
-8.2809 -8.5974 2.6859
-8.1195 -8.6017 2.6859
-7.9608 -8.6059 2.6859
-7.8047 -8.6100 2.6859
-7.6511 -8.6140 2.6859
-7.5000 -8.6179 2.6859
-7.3511 -8.6216 2.6859
-7.2046 -8.6253 2.6859
-7.0602 -8.6289 2.6859
-6.9180 -8.6323 2.6859
-6.7777 -8.6357 2.6859
-6.6395 -8.6390 2.6859
-6.5031 -8.6422 2.6859
-6.3686 -8.6453 2.6859
-6.2358 -8.6483 2.6859
-6.1047 -8.6513 2.6859
-5.9753 -8.6541 2.6859
-5.8475 -8.6569 2.6859
-5.7624 -8.7220 2.7053
-5.7536 -8.9054 2.7613
-5.7444 -9.0943 2.8191
-5.6548 -9.1590 2.8383
-5.5274 -9.1616 2.8383
-37.9304 11.7424 -1.0577
-39.0664 11.6827 -0.9754
-39.0736 11.2758 -0.8620
-39.0807 10.8711 -0.7490
-39.0877 10.4685 -0.6363
-39.0947 10.0680 -0.5239
-37.8680 9.3643 -0.3989
-37.8594 8.9765 -0.2905
-37.8661 8.5941 -0.1825
-30.1553 6.5397 -0.0595
-38.2852 7.9180 0.0332
-39.1361 7.7023 0.1448
-39.1429 7.3134 0.2556
-39.1497 6.9258 0.3663
-21.5973 3.6069 0.2630
-21.5981 3.3940 0.3239
-21.5989 3.1817 0.3847
-21.5996 2.9700 0.4455
-21.6004 2.7589 0.5062
-21.6012 2.5482 0.5670
-21.6020 2.3381 0.6277
-21.6027 2.1284 0.6885
-21.6035 1.9190 0.7492
-21.6043 1.7100 0.8100
-21.6050 1.5013 0.8709
-21.6058 1.2928 0.9318
-21.6066 1.0846 0.9928
-21.6073 0.8765 1.0539
-21.6081 0.6686 1.1150
-21.6089 0.4607 1.1763
-21.6096 0.2529 1.2377
-21.6104 0.0450 1.2992
-21.6111 -0.1629 1.3609
-21.6119 -0.3708 1.4227
-21.5372 -0.5769 1.4795
-21.5296 -0.7841 1.5408
-21.5304 -0.9918 1.6030
-21.6233 -1.2048 1.6724
-21.6241 -1.4139 1.7352
-21.6248 -1.6233 1.7983
-21.6256 -1.8331 1.8616
-21.6264 -2.0433 1.9252
-21.6271 -2.2540 1.9890
-21.6279 -2.4652 2.0531
-21.6287 -2.6770 2.1176
-21.6295 -2.8893 2.1823
-21.6303 -3.1024 2.2474
-21.6310 -3.3161 2.3128
-21.6318 -3.5305 2.3786
-21.6326 -3.7457 2.4448
-21.6334 -3.9618 2.5113
-21.6342 -4.1788 2.5783
-21.9647 -4.4636 2.6860
-21.4161 -4.5686 2.6859
-20.8911 -4.6688 2.6859
-20.3880 -4.7644 2.6859
-19.9051 -4.8558 2.6859
-19.6945 -5.0075 2.7209
-19.6835 -5.2087 2.7832
-19.6198 -5.3965 2.8383
-19.1830 -5.4776 2.8383
-18.7619 -5.5554 2.8383
-18.3556 -5.6301 2.8383
-17.9632 -5.7018 2.8383
-17.5841 -5.7708 2.8383
-17.2174 -5.8371 2.8383
-16.8625 -5.9010 2.8383
-16.5188 -5.9625 2.8383
-16.1857 -6.0218 2.8383
-15.8626 -6.0789 2.8383
-15.5491 -6.1341 2.8383
-15.2447 -6.1873 2.8383
-14.9489 -6.2387 2.8383
-14.6614 -6.2883 2.8383
-14.3818 -6.3363 2.8383
-14.1096 -6.3827 2.8383
-13.8445 -6.4276 2.8383
-13.5863 -6.4710 2.8383
-13.3346 -6.5131 2.8383
-13.0891 -6.5539 2.8383
-12.8496 -6.5933 2.8383
-12.6158 -6.6316 2.8383
-12.3875 -6.6687 2.8383
-12.1644 -6.7046 2.8383
-7.2022 -4.0631 1.7112
-7.1629 -4.1351 1.7328
-7.1236 -4.2072 1.7545
-7.0846 -4.2796 1.7763
-11.1204 -6.8692 2.8383
-10.9246 -6.8993 2.8383
-10.7328 -6.9286 2.8383
-10.5448 -6.9571 2.8383
-10.3604 -6.9847 2.8383
-10.1795 -7.0116 2.8383
-10.0021 -7.0378 2.8383
-9.8279 -7.0632 2.8383
-9.1383 -6.7074 2.6859
-8.9793 -6.7302 2.6859
-8.8231 -6.7524 2.6859
-8.6696 -6.7740 2.6859
-8.5187 -6.7950 2.6859
-8.3702 -6.8155 2.6859
-8.2242 -6.8354 2.6859
-8.0805 -6.8549 2.6859
-7.9390 -6.8738 2.6859
-7.7997 -6.8923 2.6859
-7.6626 -6.9102 2.6859
-7.5274 -6.9277 2.6859
-7.3943 -6.9448 2.6859
-7.2630 -6.9614 2.6859
-7.1336 -6.9776 2.6859
-7.0059 -6.9934 2.6859
-6.8800 -7.0088 2.6859
-6.7558 -7.0238 2.6859
-6.6332 -7.0385 2.6859
-6.5121 -7.0528 2.6859
-6.3926 -7.0667 2.6859
-6.2745 -7.0802 2.6859
-6.1579 -7.0935 2.6859
-6.0427 -7.1064 2.6859
-5.9287 -7.1189 2.6859
-5.8161 -7.1312 2.6859
-5.7576 -7.2093 2.7108
-5.7497 -7.3531 2.7604
-5.7417 -7.5005 2.8112
-5.6831 -7.5845 2.8383
-5.5704 -7.5959 2.8383
-5.4588 -7.6070 2.8383
-5.3483 -7.6178 2.8383
-5.2389 -7.6284 2.8383
-5.1305 -7.6387 2.8383
-5.0232 -7.6487 2.8383
-4.9168 -7.6584 2.8383
-4.8114 -7.6679 2.8383
-4.7069 -7.6772 2.8383
-21.5881 6.9825 0.4123
-21.5889 6.7545 0.4723
-21.5897 6.5279 0.5322
-21.5906 6.3026 0.5919
-21.5914 6.0786 0.6516
-21.5922 5.8559 0.7111
-21.5930 5.6343 0.7706
-21.5938 5.4138 0.8301
-21.5947 5.1943 0.8895
-21.5955 4.9759 0.9488
-21.5963 4.7585 1.0082
-21.5095 4.5235 1.0632
-21.5103 4.3087 1.1223
-21.5149 4.0954 1.1816
-21.5956 3.8966 1.2454
-21.5963 3.6832 1.3048
-21.5971 3.4706 1.3643
-21.5979 3.2585 1.4238
-21.5987 3.0471 1.4834
-21.5995 2.8362 1.5431
-21.6002 2.6257 1.6029
-21.6010 2.4158 1.6628
-21.6018 2.2062 1.7228
-21.6025 1.9971 1.7830
-21.6033 1.7882 1.8433
-21.6041 1.5796 1.9037
-21.6048 1.3713 1.9643
-21.6056 1.1631 2.0251
-21.6064 0.9551 2.0861
-21.6071 0.7473 2.1473
-21.6079 0.5395 2.2087
-21.6087 0.3317 2.2704
-21.6094 0.1239 2.3323
-21.6102 -0.0839 2.3944
-21.6110 -0.2919 2.4568
-21.6117 -0.5000 2.5195
-21.5370 -0.7058 2.5735
-21.9415 -0.9306 2.6860
-21.4268 -1.1157 2.6859
-20.9335 -1.2924 2.6859
-20.4600 -1.4613 2.6859
-20.0049 -1.6229 2.6859
-19.6896 -1.7888 2.7027
-19.6793 -1.9796 2.7608
-19.6690 -2.1707 2.8191
-19.3892 -2.3297 2.8383
-18.9898 -2.4682 2.8383
-18.6040 -2.6014 2.8383
-18.2311 -2.7294 2.8383
-17.8703 -2.8526 2.8383
-17.5211 -2.9713 2.8383
-17.1828 -3.0856 2.8383
-16.8548 -3.1958 2.8383
-16.5367 -3.3021 2.8383
-16.2280 -3.4048 2.8383
-15.9282 -3.5038 2.8383
-15.6368 -3.5995 2.8383
-15.3536 -3.6921 2.8383
-15.0780 -3.7816 2.8383
-14.8098 -3.8681 2.8383
-14.5487 -3.9519 2.8383
-14.2942 -4.0330 2.8383
-14.0462 -4.1116 2.8383
-13.8043 -4.1877 2.8383
-13.5682 -4.2615 2.8383
-13.3378 -4.3331 2.8383
-13.1128 -4.4025 2.8383
-12.8930 -4.4699 2.8383
-12.6782 -4.5353 2.8383
-12.4681 -4.5988 2.8383
-12.2626 -4.6605 2.8383
-12.0615 -4.7204 2.8383
-11.8646 -4.7786 2.8383
-11.6718 -4.8352 2.8383
-11.4829 -4.8903 2.8383
-11.2978 -4.9438 2.8383
-11.1163 -4.9959 2.8383
-10.9383 -5.0466 2.8383
-10.7637 -5.0959 2.8383
-10.5924 -5.1439 2.8383
-10.4242 -5.1907 2.8383
-10.2590 -5.2362 2.8383
-10.0968 -5.2806 2.8383
-9.9374 -5.3238 2.8383
-9.7807 -5.3659 2.8383
-7.2101 -4.0497 2.1259
-7.1706 -4.1222 2.1480
-7.1310 -4.1947 2.1703
-7.0913 -4.2674 2.1926
-8.5501 -5.2626 2.6859
-8.4156 -5.2968 2.6859
-8.2832 -5.3302 2.6859
-8.1528 -5.3628 2.6859
-8.0242 -5.3947 2.6859
-7.8976 -5.4257 2.6859
-7.7728 -5.4560 2.6859
-7.6497 -5.4856 2.6859
-7.5283 -5.5145 2.6859
-7.4085 -5.5427 2.6859
-7.2904 -5.5702 2.6859
-7.1738 -5.5971 2.6859
-7.0587 -5.6233 2.6859
-6.9450 -5.6490 2.6859
-6.8328 -5.6740 2.6859
-6.7219 -5.6984 2.6859
-6.6124 -5.7223 2.6859
-6.5041 -5.7457 2.6859
-6.3972 -5.7685 2.6859
-6.2914 -5.7907 2.6859
-6.1868 -5.8125 2.6859
-6.0834 -5.8337 2.6859
-5.9811 -5.8545 2.6859
-5.8799 -5.8748 2.6859
-5.7798 -5.8946 2.6859
-5.7530 -5.9892 2.7201
-5.7459 -6.1064 2.7645
-5.7386 -6.2260 2.8099
-5.6950 -6.3081 2.8383
-5.5943 -6.3267 2.8383
-5.4945 -6.3449 2.8383
-5.3957 -6.3626 2.8383
-5.2978 -6.3800 2.8383
-5.2007 -6.3970 2.8383
-5.1045 -6.4135 2.8383
-5.0091 -6.4297 2.8383
-4.9145 -6.4454 2.8383
-4.8207 -6.4608 2.8383
-4.7276 -6.4759 2.8383
-4.6353 -6.4905 2.8383
-4.5437 -6.5049 2.8383
-4.4527 -6.5188 2.8383
-4.3625 -6.5324 2.8383
-4.2729 -6.5457 2.8383
-4.1839 -6.5587 2.8383
-4.0956 -6.5713 2.8383
-21.5862 7.2842 1.4365
-21.5871 7.0554 1.4935
-21.5879 6.8279 1.5504
-21.5888 6.6018 1.6073
-21.5896 6.3771 1.6643
-21.5904 6.1536 1.7213
-21.5912 5.9313 1.7784
-21.5921 5.7101 1.8355
-21.5929 5.4900 1.8927
-21.5937 5.2710 1.9499
-21.5945 5.0529 2.0073
-21.5953 4.8359 2.0647
-21.5085 4.6009 2.1136
-21.5093 4.3865 2.1711
-21.5140 4.1736 2.2291
-21.5946 3.9753 2.2953
-21.5954 3.7622 2.3534
-21.5962 3.5498 2.4116
-21.5969 3.3381 2.4701
-21.5977 3.1269 2.5287
-21.5985 2.9162 2.5875
-21.9211 2.7464 2.6860
-21.4415 2.4779 2.6859
-20.9810 2.2213 2.6859
-20.5381 1.9756 2.6859
-20.1118 1.7402 2.6859
-19.7010 1.5139 2.6859
-19.6752 1.3229 2.7375
-19.6657 1.1329 2.7914
-19.6062 0.9407 2.8383
-19.2292 0.7377 2.8383
-18.8644 0.5423 2.8383
-18.5114 0.3542 2.8383
-18.1695 0.1730 2.8383
-17.8381 -0.0017 2.8383
-17.5167 -0.1702 2.8383
-17.2047 -0.3328 2.8383
-16.9019 -0.4898 2.8383
-16.6076 -0.6415 2.8383
-16.3216 -0.7880 2.8383
-16.0433 -0.9298 2.8383
-15.7726 -1.0669 2.8383
-15.5090 -1.1996 2.8383
-15.2522 -1.3281 2.8383
-15.0019 -1.4525 2.8383
-14.7578 -1.5731 2.8383
-14.5198 -1.6900 2.8383
-14.2874 -1.8034 2.8383
-14.0605 -1.9133 2.8383
-13.8390 -2.0201 2.8383
-13.6224 -2.1237 2.8383
-13.4107 -2.2243 2.8383
-13.2037 -2.3220 2.8383
-13.0011 -2.4170 2.8383
-12.8029 -2.5093 2.8383
-12.6088 -2.5991 2.8383
-12.4187 -2.6864 2.8383
-12.2325 -2.7712 2.8383
-12.0499 -2.8539 2.8383
-11.8710 -2.9343 2.8383
-11.6954 -3.0126 2.8383
-11.5232 -3.0888 2.8383
-11.3543 -3.1631 2.8383
-11.1884 -3.2354 2.8383
-11.0255 -3.3059 2.8383
-10.8655 -3.3746 2.8383
-10.7083 -3.4416 2.8383
-10.5538 -3.5069 2.8383
-10.4019 -3.5706 2.8383
-10.2525 -3.6327 2.8383
-10.1056 -3.6933 2.8383
-9.9610 -3.7525 2.8383
-9.8188 -3.8102 2.8383
-9.1591 -3.6589 2.6859
-9.0286 -3.7110 2.6859
-8.9001 -3.7618 2.6859
-8.7735 -3.8114 2.6859
-8.6488 -3.8599 2.6859
-8.5259 -3.9072 2.6859
-8.4047 -3.9535 2.6859
-8.2852 -3.9987 2.6859
-8.1674 -4.0428 2.6859
-8.0512 -4.0860 2.6859
-7.9365 -4.1282 2.6859
-7.8234 -4.1694 2.6859
-7.7117 -4.2097 2.6859
-7.2187 -4.0352 2.5507
-7.1789 -4.1082 2.5735
-7.1389 -4.1813 2.5965
-7.0990 -4.2545 2.6196
-7.0589 -4.3279 2.6429
-7.0701 -4.4335 2.6859
-6.9676 -4.4680 2.6859
-6.8663 -4.5018 2.6859
-6.7661 -4.5348 2.6859
-6.6670 -4.5671 2.6859
-6.5690 -4.5987 2.6859
-6.4721 -4.6296 2.6859
-6.3762 -4.6599 2.6859
-6.2813 -4.6894 2.6859
-6.1873 -4.7184 2.6859
-6.0943 -4.7468 2.6859
-6.0022 -4.7745 2.6859
-5.9111 -4.8016 2.6859
-5.8207 -4.8282 2.6859
-5.7540 -4.8735 2.6966
-5.7477 -4.9705 2.7359
-5.7413 -5.0691 2.7761
-5.7347 -5.1695 2.8170
-5.6869 -5.2338 2.8383
-5.5966 -5.2585 2.8383
-5.5070 -5.2826 2.8383
-5.4182 -5.3062 2.8383
-5.3301 -5.3293 2.8383
-5.2427 -5.3519 2.8383
-5.1560 -5.3740 2.8383
-5.0700 -5.3957 2.8383
-4.9847 -5.4169 2.8383
-4.9000 -5.4376 2.8383
-4.8160 -5.4578 2.8383
-4.7325 -5.4776 2.8383
-4.6497 -5.4970 2.8383
-4.5674 -5.5159 2.8383
-4.4857 -5.5345 2.8383
-4.4046 -5.5526 2.8383
-4.3240 -5.5703 2.8383
-4.2439 -5.5876 2.8383
-4.1643 -5.6045 2.8383
-4.0853 -5.6210 2.8383
-4.0067 -5.6371 2.8383
-3.9286 -5.6529 2.8383
-3.8510 -5.6683 2.8383
-3.7738 -5.6833 2.8383
-3.6970 -5.6980 2.8383
-3.6207 -5.7123 2.8383
-21.5844 7.5902 2.4752
-21.5853 7.3604 2.5290
-21.5861 7.1322 2.5830
-21.9871 7.0333 2.6860
-21.5440 6.6662 2.6859
-21.1180 6.3148 2.6859
-20.7072 5.9778 2.6859
-20.3111 5.6545 2.6859
-19.9285 5.3441 2.6859
-19.6722 5.0751 2.7015
-19.6636 4.8736 2.7506
-19.6550 4.6731 2.7998
-19.5716 4.4567 2.8383
-19.2286 4.1863 2.8383
-18.8962 3.9257 2.8383
-18.5736 3.6743 2.8383
-18.2605 3.4317 2.8383
-17.9564 3.1975 2.8383
-17.6608 2.9713 2.8383
-17.3734 2.7527 2.8383
-17.0937 2.5413 2.8383
-16.8215 2.3368 2.8383
-16.5564 2.1390 2.8383
-16.2981 1.9474 2.8383
-16.0463 1.7619 2.8383
-15.8008 1.5821 2.8383
-15.5612 1.4078 2.8383
-15.3273 1.2389 2.8383
-15.0989 1.0750 2.8383
-14.8758 0.9159 2.8383
-14.6577 0.7615 2.8383
-14.4445 0.6115 2.8383
-14.2359 0.4659 2.8383
-14.0318 0.3244 2.8383
-13.8321 0.1868 2.8383
-13.6365 0.0531 2.8383
-13.4450 -0.0770 2.8383
-13.2573 -0.2035 2.8383
-13.0733 -0.3267 2.8383
-12.8930 -0.4465 2.8383
-12.7161 -0.5632 2.8383
-12.5425 -0.6768 2.8383
-12.3722 -0.7875 2.8383
-12.2051 -0.8954 2.8383
-12.0409 -1.0005 2.8383
-11.8796 -1.1029 2.8383
-11.7212 -1.2028 2.8383
-11.5655 -1.3002 2.8383
-11.4125 -1.3952 2.8383
-11.2620 -1.4879 2.8383
-11.1140 -1.5784 2.8383
-10.9684 -1.6667 2.8383
-10.8252 -1.7529 2.8383
-10.6842 -1.8370 2.8383
-10.5454 -1.9191 2.8383
-10.4087 -1.9994 2.8383
-10.2740 -2.0777 2.8383
-10.1414 -2.1543 2.8383
-10.0107 -2.2291 2.8383
-9.8819 -2.3023 2.8383
-9.7550 -2.3737 2.8383
-9.1127 -2.3124 2.6859
-8.9959 -2.3771 2.6859
-8.8807 -2.4403 2.6859
-8.7670 -2.5021 2.6859
-8.6548 -2.5626 2.6859
-8.5441 -2.6217 2.6859
-8.4348 -2.6796 2.6859
-8.3269 -2.7362 2.6859
-8.2203 -2.7916 2.6859
-8.1151 -2.8458 2.6859
-8.0111 -2.8989 2.6859
-7.9084 -2.9508 2.6859
-7.8069 -3.0017 2.6859
-7.7066 -3.0515 2.6859
-7.6074 -3.1003 2.6859
-7.5093 -3.1480 2.6859
-7.4124 -3.1947 2.6859
-7.3165 -3.2405 2.6859
-7.2216 -3.2854 2.6859
-7.1278 -3.3293 2.6859
-7.0349 -3.3723 2.6859
-6.9430 -3.4145 2.6859
-6.8521 -3.4558 2.6859
-6.7621 -3.4963 2.6859
-6.6729 -3.5359 2.6859
-6.5847 -3.5747 2.6859
-6.4972 -3.6128 2.6859
-6.4107 -3.6501 2.6859
-6.3249 -3.6867 2.6859
-6.2399 -3.7225 2.6859
-6.1557 -3.7576 2.6859
-6.0723 -3.7920 2.6859
-5.9896 -3.8258 2.6859
-5.9076 -3.8588 2.6859
-5.8263 -3.8912 2.6859
-5.7528 -3.9278 2.6892
-5.7472 -4.0108 2.7245
-5.7414 -4.0950 2.7604
-5.7355 -4.1804 2.7969
-5.7295 -4.2669 2.8341
-5.6563 -4.3036 2.8383
-5.5752 -4.3334 2.8383
-5.4946 -4.3625 2.8383
-5.4147 -4.3911 2.8383
-5.3354 -4.4192 2.8383
-5.2566 -4.4466 2.8383
-5.1785 -4.4735 2.8383
-5.1008 -4.4999 2.8383
-5.0237 -4.5257 2.8383
-4.9472 -4.5511 2.8383
-4.8711 -4.5759 2.8383
-4.7956 -4.6002 2.8383
-4.7205 -4.6240 2.8383
-4.6459 -4.6473 2.8383
-4.5718 -4.6702 2.8383
-4.4982 -4.6926 2.8383
-4.4249 -4.7145 2.8383
-4.3522 -4.7359 2.8383
-4.2798 -4.7570 2.8383
-4.2079 -4.7776 2.8383
-4.1364 -4.7977 2.8383
-4.0653 -4.8174 2.8383
-3.9945 -4.8367 2.8383
-3.9242 -4.8556 2.8383
-3.8542 -4.8741 2.8383
-3.7846 -4.8922 2.8383
-3.7153 -4.9099 2.8383
-3.6464 -4.9272 2.8383
-3.5778 -4.9441 2.8383
-3.5096 -4.9606 2.8383
-3.4417 -4.9768 2.8383
-3.3740 -4.9926 2.8383
-3.3067 -5.0080 2.8383
-3.2397 -5.0230 2.8383
-17.3379 6.3479 2.8383
-17.0931 6.0753 2.8383
-16.8541 5.8112 2.8383
-16.6205 5.5551 2.8383
-16.3922 5.3067 2.8383
-16.1689 5.0657 2.8383
-15.9505 4.8317 2.8383
-15.7368 4.6046 2.8383
-15.5276 4.3840 2.8383
-15.3226 4.1696 2.8383
-15.1219 3.9614 2.8383
-14.9253 3.7589 2.8383
-14.7325 3.5619 2.8383
-14.5435 3.3704 2.8383
-14.3581 3.1841 2.8383
-14.1762 3.0027 2.8383
-13.9977 2.8262 2.8383
-13.8225 2.6542 2.8383
-13.6504 2.4868 2.8383
-13.4814 2.3237 2.8383
-13.3154 2.1648 2.8383
-13.1522 2.0098 2.8383
-12.9919 1.8588 2.8383
-12.8342 1.7116 2.8383
-12.6792 1.5680 2.8383
-12.5267 1.4279 2.8383
-12.3766 1.2912 2.8383
-12.2290 1.1578 2.8383
-12.0836 1.0276 2.8383
-11.9405 0.9005 2.8383
-11.7996 0.7764 2.8383
-11.6608 0.6552 2.8383
-11.5241 0.5367 2.8383
-11.3893 0.4210 2.8383
-11.2566 0.3080 2.8383
-11.1257 0.1976 2.8383
-10.9966 0.0896 2.8383
-10.8694 -0.0160 2.8383
-10.7439 -0.1192 2.8383
-10.6200 -0.2201 2.8383
-10.4979 -0.3188 2.8383
-10.3773 -0.4154 2.8383
-10.2584 -0.5098 2.8383
-10.1409 -0.6022 2.8383
-10.0249 -0.6927 2.8383
-9.9104 -0.7812 2.8383
-9.7973 -0.8679 2.8383
-9.1655 -0.9016 2.6859
-9.0611 -0.9801 2.6859
-8.9579 -1.0571 2.6859
-8.8559 -1.1325 2.6859
-8.7550 -1.2063 2.6859
-8.6554 -1.2786 2.6859
-8.5568 -1.3494 2.6859
-8.4594 -1.4187 2.6859
-8.3630 -1.4867 2.6859
-8.2677 -1.5534 2.6859
-8.1734 -1.6187 2.6859
-8.0801 -1.6826 2.6859
-7.9877 -1.7454 2.6859
-7.8964 -1.8068 2.6859
-7.8059 -1.8671 2.6859
-7.7164 -1.9262 2.6859
-7.6278 -1.9841 2.6859
-7.5400 -2.0409 2.6859
-7.4531 -2.0966 2.6859
-7.3670 -2.1513 2.6859
-7.2817 -2.2049 2.6859
-7.1972 -2.2574 2.6859
-7.1135 -2.3090 2.6859
-7.0306 -2.3596 2.6859
-6.9484 -2.4092 2.6859
-6.8669 -2.4578 2.6859
-6.7862 -2.5056 2.6859
-6.7061 -2.5525 2.6859
-6.6268 -2.5984 2.6859
-6.5481 -2.6435 2.6859
-6.4700 -2.6878 2.6859
-6.3926 -2.7312 2.6859
-6.3158 -2.7739 2.6859
-6.2397 -2.8157 2.6859
-6.1641 -2.8568 2.6859
-6.0892 -2.8970 2.6859
-6.0148 -2.9366 2.6859
-5.9409 -2.9754 2.6859
-5.8677 -3.0135 2.6859
-5.7949 -3.0509 2.6859
-5.7492 -3.1019 2.6983
-5.7441 -3.1751 2.7301
-5.7389 -3.2490 2.7625
-5.7336 -3.3238 2.7953
-5.7282 -3.3994 2.8287
-5.6740 -3.4463 2.8383
-5.6008 -3.4810 2.8383
-5.5282 -3.5151 2.8383
-5.4560 -3.5485 2.8383
-5.3842 -3.5813 2.8383
-5.3130 -3.6135 2.8383
-5.2421 -3.6451 2.8383
-5.1718 -3.6761 2.8383
-5.1018 -3.7065 2.8383
-5.0323 -3.7364 2.8383
-4.9632 -3.7657 2.8383
-4.8944 -3.7945 2.8383
-4.8261 -3.8227 2.8383
-4.7582 -3.8505 2.8383
-4.6907 -3.8776 2.8383
-4.6235 -3.9043 2.8383
-4.5567 -3.9305 2.8383
-4.4902 -3.9561 2.8383
-4.4241 -3.9813 2.8383
-4.3584 -4.0060 2.8383
-4.2929 -4.0302 2.8383
-4.2279 -4.0540 2.8383
-4.1631 -4.0773 2.8383
-4.0986 -4.1001 2.8383
-4.0345 -4.1225 2.8383
-3.9707 -4.1444 2.8383
-3.9071 -4.1660 2.8383
-3.8439 -4.1871 2.8383
-3.7809 -4.2077 2.8383
-3.7182 -4.2280 2.8383
-3.6558 -4.2478 2.8383
-3.5936 -4.2672 2.8383
-3.5318 -4.2862 2.8383
-3.4701 -4.3049 2.8383
-3.4087 -4.3231 2.8383
-3.3476 -4.3410 2.8383
-3.2867 -4.3585 2.8383
-3.2260 -4.3755 2.8383
-3.1656 -4.3923 2.8383
-3.1054 -4.4086 2.8383
-3.0454 -4.4246 2.8383
-2.9856 -4.4403 2.8383
-2.9260 -4.4555 2.8383
-13.2699 5.0551 2.8383
-13.1352 4.8626 2.8383
-13.0022 4.6746 2.8383
-12.8708 4.4908 2.8383
-12.7411 4.3113 2.8383
-12.6129 4.1358 2.8383
-12.4863 3.9643 2.8383
-12.3612 3.7966 2.8383
-12.2375 3.6326 2.8383
-12.1154 3.4722 2.8383
-11.9946 3.3154 2.8383
-11.8752 3.1619 2.8383
-11.7572 3.0118 2.8383
-11.6405 2.8649 2.8383
-11.5251 2.7211 2.8383
-11.4110 2.5804 2.8383
-11.2982 2.4427 2.8383
-11.1866 2.3078 2.8383
-11.0761 2.1758 2.8383
-10.9669 2.0466 2.8383
-10.8588 1.9199 2.8383
-10.7518 1.7960 2.8383
-10.6460 1.6745 2.8383
-10.5412 1.5555 2.8383
-10.4375 1.4389 2.8383
-10.3349 1.3246 2.8383
-10.2332 1.2127 2.8383
-10.1326 1.1029 2.8383
-10.0329 0.9954 2.8383
-9.9343 0.8899 2.8383
-9.8365 0.7866 2.8383
-9.7397 0.6852 2.8383
-9.1260 0.5544 2.6859
-9.0361 0.4622 2.6859
-8.9471 0.3717 2.6859
-8.8588 0.2830 2.6859
-8.7714 0.1960 2.6859
-8.6847 0.1107 2.6859
-8.5988 0.0269 2.6859
-8.5137 -0.0553 2.6859
-8.4293 -0.1359 2.6859
-8.3456 -0.2150 2.6859
-8.2626 -0.2927 2.6859
-8.1804 -0.3688 2.6859
-8.0988 -0.4436 2.6859
-8.0180 -0.5170 2.6859
-7.9377 -0.5891 2.6859
-7.8582 -0.6598 2.6859
-7.7793 -0.7293 2.6859
-7.7010 -0.7975 2.6859
-7.6233 -0.8645 2.6859
-7.5462 -0.9303 2.6859
-7.4698 -0.9948 2.6859
-7.3939 -1.0583 2.6859
-7.3186 -1.1205 2.6859
-7.2439 -1.1817 2.6859
-7.1697 -1.2418 2.6859
-7.0961 -1.3008 2.6859
-7.0230 -1.3588 2.6859
-6.9504 -1.4158 2.6859
-6.8784 -1.4717 2.6859
-6.8068 -1.5267 2.6859
-6.7358 -1.5807 2.6859
-6.6653 -1.6337 2.6859
-6.5952 -1.6859 2.6859
-6.5257 -1.7371 2.6859
-6.4565 -1.7874 2.6859
-6.3879 -1.8369 2.6859
-6.3197 -1.8855 2.6859
-6.2520 -1.9333 2.6859
-6.1846 -1.9802 2.6859
-6.1178 -2.0264 2.6859
-6.0513 -2.0717 2.6859
-5.9852 -2.1163 2.6859
-5.9196 -2.1601 2.6859
-5.8544 -2.2031 2.6859
-5.7895 -2.2454 2.6859
-5.7474 -2.2960 2.6964
-5.7429 -2.3616 2.7248
-5.7382 -2.4277 2.7536
-5.7335 -2.4944 2.7828
-5.7288 -2.5617 2.8125
-5.7152 -2.6255 2.8383
-5.6494 -2.6651 2.8383
-5.5840 -2.7040 2.8383
-5.5189 -2.7423 2.8383
-5.4542 -2.7800 2.8383
-5.3898 -2.8169 2.8383
-5.3258 -2.8533 2.8383
-5.2621 -2.8890 2.8383
-5.1987 -2.9241 2.8383
-5.1357 -2.9586 2.8383
-5.0729 -2.9925 2.8383
-5.0105 -3.0258 2.8383
-4.9484 -3.0585 2.8383
-4.8866 -3.0907 2.8383
-4.8251 -3.1223 2.8383
-4.7638 -3.1534 2.8383
-4.7029 -3.1839 2.8383
-4.6422 -3.2139 2.8383
-4.5818 -3.2434 2.8383
-4.5217 -3.2723 2.8383
-4.4619 -3.3008 2.8383
-4.4023 -3.3287 2.8383
-4.3429 -3.3561 2.8383
-4.2839 -3.3831 2.8383
-4.2250 -3.4096 2.8383
-4.1665 -3.4356 2.8383
-4.1081 -3.4611 2.8383
-4.0500 -3.4862 2.8383
-3.9921 -3.5108 2.8383
-3.9345 -3.5349 2.8383
-3.8770 -3.5586 2.8383
-3.8198 -3.5819 2.8383
-3.7628 -3.6048 2.8383
-3.7061 -3.6272 2.8383
-3.6495 -3.6491 2.8383
-3.5931 -3.6707 2.8383
-3.5369 -3.6919 2.8383
-3.4809 -3.7126 2.8383
-3.4251 -3.7330 2.8383
-3.3695 -3.7529 2.8383
-3.3141 -3.7725 2.8383
-3.2589 -3.7917 2.8383
-3.2038 -3.8105 2.8383
-3.1489 -3.8289 2.8383
-3.0942 -3.8470 2.8383
-3.0397 -3.8646 2.8383
-2.9853 -3.8819 2.8383
-2.9310 -3.8989 2.8383
-2.8770 -3.9154 2.8383
-2.8231 -3.9317 2.8383
-2.7693 -3.9475 2.8383
-2.7157 -3.9631 2.8383
-2.6622 -3.9783 2.8383
-10.6906 4.2354 2.8383
-10.6092 4.0886 2.8383
-10.5280 3.9444 2.8383
-10.4472 3.8029 2.8383
-10.3667 3.6640 2.8383
-10.2866 3.5275 2.8383
-10.2068 3.3935 2.8383
-10.1274 3.2619 2.8383
-10.0483 3.1326 2.8383
-9.9696 3.0056 2.8383
-9.8912 2.8809 2.8383
-9.8132 2.7583 2.8383
-9.7355 2.6379 2.8383
-9.1396 2.3844 2.6859
-9.0668 2.2744 2.6859
-8.9943 2.1664 2.6859
-8.9222 2.0602 2.6859
-8.8504 1.9558 2.6859
-8.7790 1.8533 2.6859
-8.7079 1.7526 2.6859
-8.6372 1.6535 2.6859
-8.5668 1.5563 2.6859
-8.4967 1.4606 2.6859
-8.4270 1.3665 2.6859
-8.3577 1.2741 2.6859
-8.2886 1.1832 2.6859
-8.2199 1.0939 2.6859
-8.1516 1.0061 2.6859
-8.0836 0.9198 2.6859
-8.0159 0.8349 2.6859
-7.9486 0.7514 2.6859
-7.8816 0.6693 2.6859
-7.8149 0.5887 2.6859
-7.7485 0.5093 2.6859
-7.6825 0.4312 2.6859
-7.6168 0.3545 2.6859
-7.5515 0.2790 2.6859
-7.4864 0.2048 2.6859
-7.4217 0.1317 2.6859
-7.3573 0.0599 2.6859
-7.2932 -0.0107 2.6859
-7.2294 -0.0802 2.6859
-7.1659 -0.1486 2.6859
-7.1027 -0.2158 2.6859
-7.0398 -0.2820 2.6859
-6.9773 -0.3470 2.6859
-6.9150 -0.4111 2.6859
-6.8530 -0.4741 2.6859
-6.7914 -0.5360 2.6859
-6.7300 -0.5970 2.6859
-6.6689 -0.6570 2.6859
-6.6081 -0.7161 2.6859
-6.5476 -0.7741 2.6859
-6.4873 -0.8313 2.6859
-6.4274 -0.8875 2.6859
-6.3677 -0.9429 2.6859
-6.3083 -0.9973 2.6859
-6.2491 -1.0509 2.6859
-6.1902 -1.1037 2.6859
-6.1316 -1.1556 2.6859
-6.0733 -1.2066 2.6859
-6.0152 -1.2569 2.6859
-5.9574 -1.3064 2.6859
-5.8998 -1.3551 2.6859
-5.8425 -1.4030 2.6859
-5.7854 -1.4502 2.6859
-5.7458 -1.5010 2.6940
-5.7418 -1.5612 2.7190
-5.7377 -1.6217 2.7443
-5.7336 -1.6824 2.7700
-5.7294 -1.7436 2.7961
-5.7251 -1.8052 2.8226
-5.6986 -1.8598 2.8383
-5.6403 -1.9037 2.8383
-5.5823 -1.9468 2.8383
-5.5244 -1.9893 2.8383
-5.4668 -2.0311 2.8383
-5.4095 -2.0723 2.8383
-5.3523 -2.1128 2.8383
-5.2954 -2.1526 2.8383
-5.2387 -2.1918 2.8383
-5.1822 -2.2304 2.8383
-5.1259 -2.2684 2.8383
-5.0699 -2.3058 2.8383
-5.0141 -2.3425 2.8383
-4.9584 -2.3787 2.8383
-4.9030 -2.4143 2.8383
-4.8478 -2.4494 2.8383
-4.7928 -2.4838 2.8383
-4.7379 -2.5178 2.8383
-4.6833 -2.5511 2.8383
-4.6289 -2.5839 2.8383
-4.5746 -2.6163 2.8383
-4.5206 -2.6480 2.8383
-4.4667 -2.6793 2.8383
-4.4130 -2.7100 2.8383
-4.3595 -2.7402 2.8383
-4.3062 -2.7700 2.8383
-4.2530 -2.7992 2.8383
-4.2000 -2.8280 2.8383
-4.1472 -2.8562 2.8383
-4.0945 -2.8841 2.8383
-4.0421 -2.9114 2.8383
-3.9897 -2.9383 2.8383
-3.9376 -2.9647 2.8383
-3.8856 -2.9907 2.8383
-3.8337 -3.0162 2.8383
-3.7820 -3.0413 2.8383
-3.7305 -3.0659 2.8383
-3.6791 -3.0902 2.8383
-3.6279 -3.1140 2.8383
-3.5768 -3.1374 2.8383
-3.5258 -3.1603 2.8383
-3.4750 -3.1829 2.8383
-3.4243 -3.2050 2.8383
-3.3738 -3.2268 2.8383
-3.3233 -3.2482 2.8383
-3.2731 -3.2692 2.8383
-3.2229 -3.2897 2.8383
-3.1729 -3.3100 2.8383
-3.1230 -3.3298 2.8383
-3.0732 -3.3492 2.8383
-3.0236 -3.3683 2.8383
-2.9740 -3.3870 2.8383
-2.7280 -3.4752 2.8383
-2.9246 -3.4054 2.8383
-2.6791 -3.4918 2.8383
-2.8753 -3.4233 2.8383
-2.6304 -3.5080 2.8383
-2.8261 -3.4410 2.8383
-2.5817 -3.5239 2.8383
-2.7770 -3.4583 2.8383
-2.5331 -3.5395 2.8383
-2.4847 -3.5547 2.8383
-2.4363 -3.5696 2.8383
-8.4247 3.4702 2.6859
-8.3753 3.3591 2.6859
-8.3258 3.2496 2.6859
-8.2761 3.1418 2.6859
-8.2262 3.0355 2.6859
-8.1762 2.9307 2.6859
-8.1260 2.8275 2.6859
-8.0757 2.7258 2.6859
-8.0253 2.6257 2.6859
-7.9749 2.5269 2.6859
-7.9243 2.4296 2.6859
-7.8736 2.3338 2.6859
-7.8229 2.2393 2.6859
-7.7721 2.1462 2.6859
-7.7212 2.0545 2.6859
-7.6703 1.9642 2.6859
-7.6194 1.8751 2.6859
-7.5684 1.7874 2.6859
-7.5174 1.7010 2.6859
-7.4665 1.6157 2.6859
-7.4154 1.5318 2.6859
-7.3644 1.4491 2.6859
-7.3134 1.3675 2.6859
-7.2624 1.2872 2.6859
-7.2114 1.2081 2.6859
-7.1605 1.1301 2.6859
-7.1096 1.0532 2.6859
-7.0587 0.9775 2.6859
-7.0078 0.9029 2.6859
-6.9570 0.8293 2.6859
-6.9062 0.7568 2.6859
-6.8555 0.6854 2.6859
-6.8048 0.6150 2.6859
-6.7542 0.5457 2.6859
-6.7036 0.4773 2.6859
-6.6531 0.4099 2.6859
-6.6027 0.3435 2.6859
-6.5523 0.2781 2.6859
-6.5020 0.2137 2.6859
-6.4518 0.1501 2.6859
-6.4017 0.0875 2.6859
-6.3516 0.0258 2.6859
-6.3016 -0.0350 2.6859
-6.2517 -0.0950 2.6859
-6.2019 -0.1541 2.6859
-6.1522 -0.2123 2.6859
-6.1026 -0.2696 2.6859
-6.0531 -0.3262 2.6859
-6.0036 -0.3819 2.6859
-5.9543 -0.4368 2.6859
-5.9050 -0.4910 2.6859
-5.8559 -0.5443 2.6859
-5.8068 -0.5969 2.6859
-5.7579 -0.6487 2.6859
-5.7425 -0.7038 2.7017
-5.7390 -0.7605 2.7233
-5.7355 -0.8173 2.7452
-5.7319 -0.8743 2.7675
-5.7283 -0.9314 2.7900
-5.7247 -0.9888 2.8129
-5.7209 -1.0463 2.8361
-5.6746 -1.0959 2.8383
-5.6239 -1.1439 2.8383
-5.5732 -1.1912 2.8383
-5.5227 -1.2378 2.8383
-5.4723 -1.2838 2.8383
-5.4220 -1.3290 2.8383
-5.3718 -1.3737 2.8383
-5.3217 -1.4176 2.8383
-5.2718 -1.4609 2.8383
-5.2219 -1.5036 2.8383
-5.1722 -1.5457 2.8383
-5.1225 -1.5871 2.8383
-5.0730 -1.6280 2.8383
-5.0236 -1.6682 2.8383
-4.9743 -1.7078 2.8383
-4.9252 -1.7469 2.8383
-4.8761 -1.7854 2.8383
-4.8271 -1.8233 2.8383
-4.7783 -1.8606 2.8383
-4.7296 -1.8974 2.8383
-4.6809 -1.9336 2.8383
-4.6324 -1.9693 2.8383
-4.5840 -2.0045 2.8383
-4.5357 -2.0391 2.8383
-4.4875 -2.0733 2.8383
-4.4394 -2.1069 2.8383
-4.3915 -2.1400 2.8383
-4.3436 -2.1726 2.8383
-4.2958 -2.2046 2.8383
-4.1531 -2.2980 2.8383
-4.2481 -2.2362 2.8383
-4.1058 -2.3282 2.8383
-4.2006 -2.2674 2.8383
-4.0585 -2.3578 2.8383
-3.9643 -2.4158 2.8383
-4.0113 -2.3871 2.8383
-3.9173 -2.4442 2.8383
-3.8704 -2.4721 2.8383
-3.7770 -2.5265 2.8383
-3.8237 -2.4995 2.8383
-3.7304 -2.5531 2.8383
-3.5912 -2.6302 2.8383
-3.6839 -2.5792 2.8383
-3.5450 -2.6551 2.8383
-3.6375 -2.6049 2.8383
-3.4989 -2.6796 2.8383
-3.4069 -2.7274 2.8383
-3.4529 -2.7037 2.8383
-3.3611 -2.7506 2.8383
-3.2240 -2.8181 2.8383
-3.3153 -2.7735 2.8383
-3.1785 -2.8399 2.8383
-3.2696 -2.7960 2.8383
-3.1331 -2.8612 2.8383
-3.0424 -2.9028 2.8383
-3.0877 -2.8822 2.8383
-2.9972 -2.9231 2.8383
-2.8621 -2.9816 2.8383
-2.9521 -2.9429 2.8383
-2.8172 -3.0004 2.8383
-2.7724 -3.0189 2.8383
-2.9071 -2.9625 2.8383
-2.7277 -3.0370 2.8383
-2.6830 -3.0548 2.8383
-2.5050 -3.1226 2.8383
-2.6384 -3.0723 2.8383
-2.4606 -3.1387 2.8383
-2.5938 -3.0894 2.8383
-2.4164 -3.1545 2.8383
-2.5494 -3.1061 2.8383
-2.3722 -3.1699 2.8383
-2.3280 -3.1851 2.8383
-2.2839 -3.1998 2.8383
-2.2399 -3.2144 2.8383
-7.1782 3.0741 2.6859
-7.1455 2.9822 2.6859
-7.1124 2.8915 2.6859
-7.0789 2.8020 2.6859
-7.0451 2.7135 2.6859
-7.0109 2.6260 2.6859
-6.9765 2.5397 2.6859
-6.9417 2.4544 2.6859
-6.9066 2.3701 2.6859
-6.8712 2.2869 2.6859
-6.8355 2.2047 2.6859
-6.7996 2.1235 2.6859
-6.7634 2.0434 2.6859
-6.7269 1.9642 2.6859
-6.6903 1.8861 2.6859
-6.6534 1.8089 2.6859
-6.6162 1.7326 2.6859
-6.5789 1.6574 2.6859
-6.5414 1.5830 2.6859
-6.5037 1.5096 2.6859
-6.4658 1.4371 2.6859
-6.4277 1.3656 2.6859
-6.3894 1.2950 2.6859
-6.3511 1.2252 2.6859
-6.3125 1.1563 2.6859
-6.2738 1.0883 2.6859
-6.2350 1.0212 2.6859
-6.1960 0.9549 2.6859
-6.1570 0.8895 2.6859
-6.1178 0.8249 2.6859
-6.0785 0.7612 2.6859
-6.0391 0.6982 2.6859
-5.9996 0.6361 2.6859
-5.9600 0.5747 2.6859
-5.9203 0.5141 2.6859
-5.8805 0.4544 2.6859
-5.8407 0.3954 2.6859
-5.8008 0.3371 2.6859
-5.7608 0.2797 2.6859
-5.7411 0.2237 2.6955
-5.7383 0.1686 2.7132
-5.7355 0.1135 2.7312
-5.7326 0.0584 2.7494
-5.7296 0.0034 2.7679
-5.7266 -0.0518 2.7866
-5.7236 -0.1069 2.8056
-5.7205 -0.1621 2.8249
-5.7050 -0.2168 2.8383
-5.6623 -0.2702 2.8383
-5.6196 -0.3227 2.8383
-5.5768 -0.3746 2.8383
-5.5340 -0.4258 2.8383
-5.4912 -0.4764 2.8383
-5.4484 -0.5262 2.8383
-5.4056 -0.5754 2.8383
-5.3628 -0.6240 2.8383
-5.3200 -0.6719 2.8383
-5.2771 -0.7192 2.8383
-5.2343 -0.7658 2.8383
-5.1915 -0.8118 2.8383
-5.1487 -0.8573 2.8383
-5.1059 -0.9021 2.8383
-5.0631 -0.9463 2.8383
-5.0203 -0.9899 2.8383
-4.9775 -1.0329 2.8383
-4.9347 -1.0753 2.8383
-4.8920 -1.1172 2.8383
-4.8492 -1.1585 2.8383
-4.8065 -1.1992 2.8383
-4.7638 -1.2394 2.8383
-4.7212 -1.2791 2.8383
-4.6785 -1.3182 2.8383
-4.6359 -1.3568 2.8383
-4.5933 -1.3948 2.8383
-4.5508 -1.4323 2.8383
-4.5082 -1.4693 2.8383
-4.4657 -1.5058 2.8383
-4.4233 -1.5418 2.8383
-4.2960 -1.6467 2.8383
-4.3808 -1.5772 2.8383
-4.2537 -1.6807 2.8383
-4.3384 -1.6122 2.8383
-4.2114 -1.7142 2.8383
-4.1691 -1.7473 2.8383
-4.1269 -1.7798 2.8383
-3.9584 -1.9056 2.8383
-4.0847 -1.8119 2.8383
-3.9163 -1.9359 2.8383
-4.0426 -1.8436 2.8383
-3.8743 -1.9657 2.8383
-4.0004 -1.8748 2.8383
-3.8324 -1.9952 2.8383
-3.7905 -2.0242 2.8383
-3.6232 -2.1359 2.8383
-3.7486 -2.0527 2.8383
-3.5815 -2.1628 2.8383
-3.7067 -2.0809 2.8383
-3.5398 -2.1893 2.8383
-3.6650 -2.1086 2.8383
-3.4982 -2.2154 2.8383
-3.4566 -2.2411 2.8383
-3.4151 -2.2664 2.8383
-3.2907 -2.3400 2.8383
-3.3736 -2.2913 2.8383
-3.2493 -2.3638 2.8383
-3.3321 -2.3159 2.8383
-3.2080 -2.3871 2.8383
-3.1667 -2.4102 2.8383
-3.1255 -2.4328 2.8383
-2.9609 -2.5197 2.8383
-3.0842 -2.4551 2.8383
-3.0431 -2.4770 2.8383
-3.0020 -2.4985 2.8383
-2.9198 -2.5406 2.8383
-2.7970 -2.6010 2.8383
-2.8788 -2.5611 2.8383
-2.7561 -2.6204 2.8383
-2.8379 -2.5812 2.8383
-2.7152 -2.6396 2.8383
-2.6337 -2.6768 2.8383
-2.6744 -2.6583 2.8383
-2.5930 -2.6949 2.8383
-2.4710 -2.7473 2.8383
-2.5523 -2.7127 2.8383
-2.5116 -2.7301 2.8383
-2.4304 -2.7641 2.8383
-2.3899 -2.7806 2.8383
-2.3494 -2.7968 2.8383
-2.3090 -2.8127 2.8383
-2.2685 -2.8282 2.8383
-2.2281 -2.8435 2.8383
-2.1878 -2.8584 2.8383
-2.1475 -2.8730 2.8383
-2.1072 -2.8874 2.8383
-2.0669 -2.9014 2.8383
-6.2179 2.7689 2.6859
-6.1958 2.6913 2.6859
-6.1733 2.6144 2.6859
-6.1503 2.5384 2.6859
-6.1269 2.4631 2.6859
-6.1031 2.3887 2.6859
-6.0789 2.3149 2.6859
-6.0543 2.2420 2.6859
-6.0293 2.1698 2.6859
-6.0039 2.0983 2.6859
-5.9782 2.0276 2.6859
-5.9521 1.9577 2.6859
-5.9257 1.8885 2.6859
-5.8990 1.8200 2.6859
-5.8719 1.7523 2.6859
-5.8446 1.6853 2.6859
-5.8169 1.6191 2.6859
-5.7890 1.5535 2.6859
-5.7607 1.4887 2.6859
-5.7391 1.4263 2.6892
-5.7371 1.3692 2.7018
-5.7351 1.3124 2.7147
-5.7331 1.2557 2.7278
-5.7310 1.1993 2.7412
-5.7289 1.1430 2.7548
-5.7267 1.0870 2.7686
-5.7245 1.0311 2.7826
-5.7223 0.9753 2.7970
-5.7200 0.9197 2.8115
-5.7177 0.8642 2.8263
-5.7092 0.8080 2.8383
-5.6762 0.7489 2.8383
-5.6430 0.6904 2.8383
-5.6097 0.6325 2.8383
-5.5761 0.5754 2.8383
-5.5424 0.5188 2.8383
-5.5086 0.4630 2.8383
-5.4745 0.4078 2.8383
-5.4403 0.3532 2.8383
-5.4060 0.2993 2.8383
-5.3715 0.2460 2.8383
-5.3369 0.1933 2.8383
-5.3022 0.1412 2.8383
-5.2673 0.0898 2.8383
-5.2323 0.0390 2.8383
-5.1971 -0.0112 2.8383
-5.1619 -0.0609 2.8383
-5.1266 -0.1099 2.8383
-5.0911 -0.1584 2.8383
-5.0556 -0.2062 2.8383
-5.0199 -0.2535 2.8383
-4.9842 -0.3003 2.8383
-4.9483 -0.3464 2.8383
-4.9124 -0.3920 2.8383
-4.8764 -0.4371 2.8383
-4.8403 -0.4816 2.8383
-4.8041 -0.5255 2.8383
-4.7679 -0.5690 2.8383
-4.7316 -0.6118 2.8383
-4.6952 -0.6542 2.8383
-4.6588 -0.6960 2.8383
-4.6223 -0.7373 2.8383
-4.5858 -0.7781 2.8383
-4.5492 -0.8184 2.8383
-4.5125 -0.8581 2.8383
-4.4758 -0.8974 2.8383
-4.3654 -1.0123 2.8383
-4.4391 -0.9362 2.8383
-4.3286 -1.0497 2.8383
-4.4023 -0.9745 2.8383
-4.2917 -1.0865 2.8383
-4.2177 -1.1588 2.8383
-4.2547 -1.1229 2.8383
-4.1807 -1.1943 2.8383
-4.0695 -1.2978 2.8383
-4.1437 -1.2292 2.8383
-4.0324 -1.3315 2.8383
-4.1066 -1.2638 2.8383
-3.9953 -1.3647 2.8383
-3.9209 -1.4298 2.8383
-3.9581 -1.3974 2.8383
-3.8837 -1.4617 2.8383
-3.7721 -1.5548 2.8383
-3.8465 -1.4931 2.8383
-3.7348 -1.5850 2.8383
-3.6230 -1.6732 2.8383
-3.8093 -1.5242 2.8383
-3.6976 -1.6148 2.8383
-3.5857 -1.7017 2.8383
-3.4739 -1.7851 2.8383
-3.6603 -1.6442 2.8383
-3.5484 -1.7299 2.8383
-3.4366 -1.8122 2.8383
-3.3247 -1.8909 2.8383
-3.5112 -1.7577 2.8383
-3.3993 -1.8388 2.8383
-3.2874 -1.9164 2.8383
-3.1755 -1.9907 2.8383
-3.3620 -1.8650 2.8383
-3.2501 -1.9416 2.8383
-3.1382 -2.0147 2.8383
-3.0264 -2.0848 2.8383
-3.2128 -1.9663 2.8383
-3.1009 -2.0384 2.8383
-2.9891 -2.1073 2.8383
-2.8773 -2.1732 2.8383
-3.0636 -2.0618 2.8383
-2.9518 -2.1296 2.8383
-2.8401 -2.1944 2.8383
-2.7284 -2.2562 2.8383
-2.9146 -2.1516 2.8383
-2.8029 -2.2153 2.8383
-2.6912 -2.2761 2.8383
-2.5797 -2.3339 2.8383
-2.7656 -2.2359 2.8383
-2.6541 -2.2957 2.8383
-2.5426 -2.3525 2.8383
-2.4311 -2.4065 2.8383
-2.6169 -2.3149 2.8383
-2.5054 -2.3708 2.8383
-2.3940 -2.4239 2.8383
-2.2828 -2.4742 2.8383
-2.4683 -2.3888 2.8383
-2.3569 -2.4410 2.8383
-2.2457 -2.4904 2.8383
-2.1346 -2.5370 2.8383
-2.3199 -2.4577 2.8383
-2.2087 -2.5062 2.8383
-2.0976 -2.5520 2.8383
-2.1716 -2.5218 2.8383
-2.0606 -2.5667 2.8383
-2.0236 -2.5811 2.8383
-1.9866 -2.5952 2.8383
-1.9497 -2.6090 2.8383
-1.9127 -2.6225 2.8383
-5.7149 2.6471 2.8152
-5.7139 2.5839 2.8224
-5.7128 2.5210 2.8299
-5.7117 2.4587 2.8377
-5.6957 2.3905 2.8383
-5.6779 2.3224 2.8383
-5.6597 2.2549 2.8383
-5.6411 2.1881 2.8383
-5.6221 2.1217 2.8383
-5.6026 2.0560 2.8383
-5.5827 1.9909 2.8383
-5.5624 1.9264 2.8383
-5.5418 1.8625 2.8383
-5.5207 1.7991 2.8383
-5.4554 1.6127 2.8383
-5.4993 1.7364 2.8383
-5.4329 1.5517 2.8383
-5.4775 1.6743 2.8383
-5.4101 1.4913 2.8383
-5.3634 1.3723 2.8383
-5.3869 1.4315 2.8383
-5.3397 1.3136 2.8383
-5.2665 1.1411 2.8383
-5.3156 1.2555 2.8383
-5.2415 1.0847 2.8383
-5.2912 1.1980 2.8383
-5.2163 1.0289 2.8383
-5.1650 0.9189 2.8383
-5.1908 0.9736 2.8383
-5.1390 0.8648 2.8383
-5.0594 0.7056 2.8383
-4.9502 0.5010 2.8383
-5.1127 0.8112 2.8383
-5.0324 0.6536 2.8383
-4.9223 0.4512 2.8383
-4.8376 0.3048 2.8383
-5.0862 0.7581 2.8383
-5.0052 0.6022 2.8383
-4.8943 0.4018 2.8383
-4.8089 0.2570 2.8383
-4.7220 0.1169 2.8383
-4.9778 0.5513 2.8383
-4.8660 0.3531 2.8383
-4.7801 0.2098 2.8383
-4.6927 0.0711 2.8383
-4.6038 -0.0630 2.8383
-4.4832 -0.2351 2.8383
-4.7512 0.1631 2.8383
-4.6632 0.0259 2.8383
-4.5738 -0.1068 2.8383
-4.4527 -0.2770 2.8383
-4.6336 -0.0188 2.8383
-4.3605 -0.3996 2.8383
-4.2359 -0.5568 2.8383
-4.5438 -0.1500 2.8383
-4.4221 -0.3183 2.8383
-4.1097 -0.7068 2.8383
-4.3295 -0.4396 2.8383
-4.2045 -0.5949 2.8383
-4.5135 -0.1928 2.8383
-4.3914 -0.3592 2.8383
-4.0779 -0.7432 2.8383
-4.2984 -0.4791 2.8383
-4.1730 -0.6327 2.8383
-3.9820 -0.8498 2.8383
-3.8530 -0.9861 2.8383
-4.0460 -0.7792 2.8383
-4.2672 -0.5182 2.8383
-4.1414 -0.6699 2.8383
-3.9499 -0.8845 2.8383
-3.8206 -1.0192 2.8383
-4.0141 -0.8147 2.8383
-3.7229 -1.1160 2.8383
-3.5918 -1.2395 2.8383
-3.9177 -0.9188 2.8383
-3.7881 -1.0519 2.8383
-3.4599 -1.3568 2.8383
-3.6902 -1.1474 2.8383
-3.8854 -0.9527 2.8383
-3.5589 -1.2693 2.8383
-3.7555 -1.0841 2.8383
-3.4268 -1.3852 2.8383
-3.6575 -1.1785 2.8383
-3.3272 -1.4682 2.8383
-3.5260 -1.2989 2.8383
-3.1939 -1.5738 2.8383
-3.3936 -1.4132 2.8383
-3.6247 -1.2092 2.8383
-3.2940 -1.4951 2.8383
-3.4930 -1.3280 2.8383
-3.1605 -1.5993 2.8383
-3.3605 -1.4409 2.8383
-3.0601 -1.6738 2.8383
-3.2606 -1.5217 2.8383
-2.9258 -1.7683 2.8383
-3.1271 -1.6245 2.8383
-2.7911 -1.8575 2.8383
-3.0265 -1.6979 2.8383
-3.2273 -1.5479 2.8383
-2.8921 -1.7911 2.8383
-3.0936 -1.6493 2.8383
-2.7574 -1.8790 2.8383
-2.9930 -1.7217 2.8383
-2.6561 -1.9416 2.8383
-2.8585 -1.8135 2.8383
-2.5208 -2.0207 2.8383
-2.7236 -1.9002 2.8383
-2.9594 -1.7452 2.8383
-2.6223 -1.9619 2.8383
-2.8248 -1.8357 2.8383
-2.4869 -2.0397 2.8383
-2.6898 -1.9211 2.8383
-2.3853 -2.0949 2.8383
-2.2496 -2.1643 2.8383
-2.5885 -1.9818 2.8383
-2.1138 -2.2290 2.8383
-2.4531 -2.0584 2.8383
-2.3514 -2.1127 2.8383
-2.2157 -2.1809 2.8383
-2.5546 -2.0014 2.8383
-2.0798 -2.2445 2.8383
-2.3175 -2.1302 2.8383
-2.4192 -2.0768 2.8383
-2.1817 -2.1972 2.8383
-2.0459 -2.2597 2.8383
-2.0119 -2.2746 2.8383
-2.2836 -2.1474 2.8383
-2.1478 -2.2133 2.8383
-1.9779 -2.2893 2.8383
-1.9439 -2.3036 2.8383
-1.9099 -2.3177 2.8383
-1.8759 -2.3315 2.8383
-1.8419 -2.3451 2.8383
-1.8079 -2.3583 2.8383
-1.7739 -2.3713 2.8383
