ply
format ascii 1.0
element vertex 2176
property float32 x
property float32 y
property float32 z
end_header
-1.2113 -25.0803 2.8275
-0.2121 -25.0151 2.8252
-0.9606 -25.0581 2.8269
0.0367 -25.0086 2.8246
-0.7105 -25.0399 2.8263
0.2854 -25.0059 2.8240
-0.4612 -25.0256 2.8258
0.5343 -25.0071 2.8234
0.7833 -25.0121 2.8228
1.7852 -25.0711 2.8205
1.0327 -25.0210 2.8222
2.0379 -25.0957 2.8199
1.2828 -25.0338 2.8216
2.2918 -25.1243 2.8193
1.5335 -25.0505 2.8210
2.5472 -25.1569 2.8187
2.8042 -25.1937 2.8180
3.8516 -25.3827 2.8156
3.0629 -25.2346 2.8174
3.3236 -25.2796 2.8168
4.1193 -25.4408 2.8149
3.5864 -25.3290 2.8162
4.3898 -25.5035 2.8143
4.9399 -25.6427 2.8130
4.6633 -25.5707 2.8137
5.2199 -25.7196 2.8123
6.0830 -25.9801 2.8103
5.5036 -25.8013 2.8117
6.3792 -26.0776 2.8096
5.7912 -25.8881 2.8110
6.6620 -26.1095 2.8012
7.2262 -26.1466 2.7800
6.9437 -26.1301 2.7911
7.5089 -26.1578 2.7678
8.3717 -26.2034 2.7290
7.7930 -26.1676 2.7549
8.6671 -26.2300 2.7161
8.0805 -26.1827 2.7419
8.9665 -26.2617 2.7031
9.5730 -26.3245 2.6751
9.2698 -26.2969 2.6898
9.8805 -26.3565 2.6602
10.1925 -26.3929 2.6450
10.8276 -26.4706 2.6132
10.5094 -26.4339 2.6297
11.1443 -26.4958 2.5948
12.1248 -26.5982 2.5381
11.4658 -26.5255 2.5762
12.4525 -26.6194 2.5164
11.7925 -26.5595 2.5573
12.7841 -26.6418 2.4941
13.4538 -26.6788 2.4464
13.1213 -26.6685 2.4714
13.7848 -26.6794 2.4197
14.7972 -26.6808 2.3348
14.1188 -26.6797 2.3922
15.1418 -26.6814 2.3049
14.4562 -26.6802 2.3639
15.4898 -26.6816 2.2740
16.1977 -26.6823 2.2097
15.8418 -26.6819 2.2423
16.5578 -26.6827 2.1762
16.9219 -26.6827 2.1417
17.6634 -26.6830 2.0697
17.2903 -26.6828 2.1062
18.0411 -26.6832 2.0322
18.4234 -26.6830 1.9936
19.2034 -26.6828 1.9133
18.8108 -26.6828 1.9540
19.6012 -26.6826 1.8714
20.8283 -26.6813 1.7385
20.0044 -26.6821 1.8283
21.2490 -26.6805 1.6917
20.4133 -26.6817 1.7840
21.6760 -26.6797 1.6436
22.5134 -26.6346 1.5408
22.1009 -26.6683 1.5935
22.9235 -26.5912 1.4862
7.5814 -8.2932 0.4120
6.9780 -7.4861 0.3555
23.3421 -26.5508 1.4305
6.7557 -7.1082 0.3215
6.6396 -6.8518 0.2940
23.7696 -26.5136 1.3736
6.5297 -6.6090 0.2679
6.3945 -5.9900 0.1812
6.4789 -6.4319 0.2449
6.3683 -5.8509 0.1609
6.4500 -6.2805 0.2232
6.3722 -5.7419 0.1415
6.4219 -6.1332 0.2020
6.3760 -5.6348 0.1224
6.3797 -5.5293 0.1033
6.4010 -5.1294 0.0288
6.3834 -5.4256 0.0845
6.4124 -5.0379 0.0105
6.3870 -5.3235 0.0658
6.4236 -4.9475 -0.0077
6.3905 -5.2229 0.0472
6.4347 -4.8581 -0.0259
6.4456 -4.7697 -0.0440
6.4565 -4.6824 -0.0621
6.4801 -4.4203 -0.1157
6.4658 -4.5950 -0.0800
6.4830 -4.3317 -0.1334
6.4730 -4.5071 -0.0979
6.4831 -4.2423 -0.1509
6.4833 -4.0670 -0.1857
6.4832 -4.1541 -0.1684
6.4834 -3.9810 -0.2030
6.4837 -3.7289 -0.2544
6.4835 -3.8960 -0.2202
6.4838 -3.6468 -0.2714
6.4836 -3.8120 -0.2373
6.4839 -3.5656 -0.2884
6.4841 -3.4057 -0.3221
6.4840 -3.4853 -0.3053
6.4842 -3.3270 -0.3390
6.4845 -3.0956 -0.3892
6.4843 -3.2491 -0.3558
6.4846 -3.0199 -0.4059
6.4844 -3.1720 -0.3725
6.4849 -2.7967 -0.4559
6.4847 -2.9448 -0.4226
6.4850 -2.7236 -0.4725
6.4848 -2.8704 -0.4392
6.4850 -2.6510 -0.4891
6.4852 -2.5077 -0.5223
6.4851 -2.5791 -0.5057
6.4853 -2.4368 -0.5389
6.4856 -2.2271 -0.5888
6.4854 -2.3664 -0.5555
6.4856 -2.1582 -0.6054
6.4855 -2.2965 -0.5722
6.4857 -2.0896 -0.6221
6.4858 -2.0215 -0.6388
-0.8637 -17.6440 2.8268
-0.6852 -17.6351 2.8263
-0.5070 -17.6276 2.8259
-0.3291 -17.6216 2.8255
-0.1514 -17.6170 2.8250
0.0262 -17.6138 2.8246
0.2038 -17.6121 2.8242
0.3814 -17.6118 2.8238
0.5591 -17.6130 2.8233
0.7369 -17.6156 2.8229
0.9151 -17.6196 2.8225
1.0936 -17.6251 2.8221
1.2725 -17.6320 2.8216
1.4519 -17.6404 2.8212
1.6319 -17.6503 2.8208
1.8126 -17.6616 2.8203
1.9941 -17.6744 2.8199
2.1763 -17.6888 2.8195
2.3595 -17.7046 2.8190
2.5437 -17.7220 2.8186
2.7289 -17.7410 2.8181
2.9154 -17.7615 2.8177
3.1031 -17.7836 2.8173
3.2922 -17.8074 2.8168
3.4827 -17.8328 2.8163
3.6748 -17.8599 2.8159
3.8686 -17.8886 2.8154
4.0641 -17.9191 2.8150
4.2616 -17.9514 2.8145
4.4610 -17.9855 2.8140
4.6625 -18.0214 2.8135
4.8662 -18.0592 2.8130
5.0723 -18.0990 2.8125
5.2808 -18.1407 2.8120
5.4920 -18.1844 2.8115
5.7059 -18.2302 2.8110
5.9227 -18.2782 2.8105
6.1425 -18.3283 2.8100
6.3655 -18.3807 2.8095
6.5831 -18.4110 2.8052
6.7929 -18.4145 2.7965
7.0059 -18.4222 2.7882
7.2196 -18.4275 2.7791
7.4353 -18.4334 2.7698
7.6532 -18.4403 2.7603
7.8731 -18.4478 2.7505
8.0965 -18.4587 2.7409
8.3223 -18.4704 2.7310
8.5514 -18.4846 2.7211
8.7836 -18.5003 2.7110
9.0189 -18.5175 2.7008
9.2576 -18.5364 2.6904
9.4753 -18.5091 2.6729
9.6947 -18.4819 2.6550
9.9163 -18.4561 2.6370
10.1404 -18.4315 2.6187
10.3671 -18.4082 2.6003
10.5965 -18.3862 2.5816
10.8287 -18.3654 2.5627
11.0639 -18.3460 2.5436
11.3022 -18.3279 2.5242
11.5437 -18.3112 2.5045
11.7888 -18.2957 2.4846
12.0373 -18.2817 2.4644
12.2897 -18.2690 2.4438
12.5305 -18.2352 2.4200
12.7441 -18.1590 2.3901
12.9481 -18.0677 2.3578
13.1428 -17.9624 2.3234
13.3971 -17.9361 2.2988
13.6734 -17.9346 2.2767
13.9548 -17.9345 2.2543
14.2415 -17.9358 2.2314
14.5338 -17.9386 2.2080
14.8318 -17.9429 2.1841
15.1360 -17.9487 2.1597
6.9970 -7.5162 0.8471
15.4465 -17.9560 2.1347
6.7624 -7.1230 0.7910
15.7637 -17.9650 2.1092
6.6448 -6.8634 0.7505
6.5336 -6.6176 0.7120
16.0879 -17.9757 2.0831
6.4797 -6.4360 0.6808
6.4505 -6.2830 0.6529
16.4195 -17.9880 2.0563
6.4221 -6.1342 0.6257
6.3684 -5.8496 0.5732
6.3945 -5.9896 0.5991
6.3723 -5.7396 0.5503
6.3835 -5.4205 0.4835
6.3761 -5.6315 0.5278
6.3872 -5.3175 0.4617
6.3798 -5.5251 0.5055
6.3908 -5.2161 0.4401
6.4134 -5.0301 0.3986
6.4019 -5.1224 0.4193
6.4247 -4.9390 0.3781
6.4578 -4.6720 0.3173
6.4358 -4.8490 0.3577
6.4469 -4.7600 0.3375
6.4667 -4.5837 0.2972
6.4740 -4.4953 0.2772
6.4833 -4.3182 0.2373
6.4834 -4.2284 0.2175
6.4811 -4.4079 0.2573
6.4835 -4.1397 0.1977
6.4837 -3.9656 0.1587
4.8679 -3.0423 0.1338
4.8865 -2.9242 0.1051
6.4841 -3.6298 0.0823
6.4839 -3.7957 0.1203
6.4840 -3.7123 0.1012
4.6112 -2.5232 0.0452
4.9815 -2.5417 0.0059
4.6025 -2.4612 0.0318
6.4846 -3.2304 -0.0107
4.6038 -2.4051 0.0186
6.4847 -3.1529 -0.0291
6.4849 -3.0002 -0.0655
6.4848 -3.0762 -0.0473
6.4850 -2.9249 -0.0836
6.4852 -2.7029 -0.1375
6.4851 -2.8502 -0.1016
6.4853 -2.6301 -0.1553
6.4852 -2.7763 -0.1196
6.4854 -2.5579 -0.1731
6.4856 -2.4152 -0.2086
6.4855 -2.4863 -0.1909
6.4857 -2.3446 -0.2263
6.4858 -2.2746 -0.2440
6.4858 -2.2050 -0.2616
6.4859 -2.1358 -0.2792
6.4860 -2.0672 -0.2967
6.4861 -1.9989 -0.3143
6.4862 -1.9310 -0.3318
-0.2917 -5.8788 1.2251
-0.2315 -5.8778 1.2251
-0.1713 -5.8770 1.2251
-0.1112 -5.8764 1.2251
-0.0512 -5.8761 1.2251
0.0089 -5.8760 1.2251
0.0689 -5.8761 1.2251
0.1290 -5.8765 1.2251
0.1891 -5.8772 1.2251
0.2492 -5.8781 1.2251
0.3095 -5.8792 1.2251
0.3698 -5.8805 1.2251
0.4303 -5.8821 1.2251
0.4909 -5.8840 1.2251
0.5516 -5.8861 1.2251
0.6126 -5.8884 1.2251
0.6737 -5.8910 1.2251
0.7350 -5.8939 1.2251
0.7966 -5.8970 1.2251
0.8585 -5.9003 1.2251
0.9206 -5.9039 1.2251
2.2621 -13.5947 2.8192
2.4062 -13.6025 2.8188
2.5511 -13.6110 2.8185
2.6967 -13.6201 2.8181
2.8433 -13.6297 2.8178
2.9907 -13.6401 2.8174
3.1391 -13.6510 2.8171
3.2886 -13.6626 2.8167
3.4392 -13.6749 2.8164
3.5909 -13.6878 2.8160
3.7438 -13.7014 2.8156
3.8979 -13.7156 2.8153
4.0534 -13.7306 2.8149
4.2104 -13.7463 2.8145
4.5287 -13.7799 2.8138
4.3687 -13.7627 2.8141
4.6902 -13.7978 2.8134
5.1852 -13.8562 2.8122
4.8534 -13.8165 2.8130
5.3540 -13.8774 2.8118
5.0184 -13.8360 2.8126
5.5247 -13.8993 2.8114
5.8727 -13.9458 2.8105
5.6976 -13.9221 2.8110
6.0500 -13.9705 2.8101
6.5893 -14.0339 2.8056
6.2298 -13.9961 2.8097
6.7597 -14.0273 2.7981
6.4120 -14.0225 2.8093
6.9316 -14.0208 2.7905
7.2825 -14.0127 2.7757
7.1065 -14.0173 2.7833
7.4605 -14.0089 2.7680
8.0073 -14.0009 2.7445
7.6407 -14.0057 2.7603
8.1940 -13.9991 2.7364
7.8226 -14.0025 2.7524
8.3834 -13.9985 2.7283
8.7693 -13.9982 2.7116
8.5750 -13.9980 2.7200
8.9662 -13.9990 2.7031
9.5699 -13.9979 2.6753
9.1661 -14.0004 2.6944
9.7738 -13.9941 2.6648
9.3672 -13.9999 2.6851
9.9767 -13.9850 2.6531
10.1825 -13.9761 2.6412
10.3857 -13.9605 2.6277
10.5918 -13.9452 2.6140
11.2141 -13.8837 2.5683
10.7977 -13.9262 2.5993
11.4223 -13.8574 2.5513
11.0045 -13.9048 2.5839
11.6331 -13.8309 2.5341
12.0670 -13.7820 2.4995
11.8470 -13.8046 2.5166
6.7707 -7.1414 1.2661
12.2909 -13.7600 2.4821
6.6515 -6.8782 1.2120
12.5184 -13.7383 2.4644
6.5388 -6.6292 1.1606
7.0198 -7.5523 1.3470
6.4808 -6.4420 1.1204
6.4513 -6.2873 1.0860
6.3723 -5.7386 0.9617
6.4226 -6.1370 1.0525
6.3761 -5.6295 0.9357
6.3947 -5.9910 1.0199
6.3799 -5.5222 0.9099
6.3684 -5.8496 0.9882
6.3837 -5.4167 0.8846
6.3873 -5.3128 0.8596
6.4256 -4.9317 0.7654
6.3910 -5.2106 0.8349
6.4368 -4.8410 0.7427
6.4026 -5.1165 0.8115
6.4142 -5.0235 0.7883
6.4479 -4.7513 0.7202
6.4589 -4.6627 0.6979
6.4676 -4.5735 0.6755
6.4837 -4.2155 0.5863
6.4749 -4.4845 0.6532
6.4838 -4.1263 0.5642
6.4821 -4.3966 0.6311
6.4839 -4.0382 0.5423
6.4836 -4.3059 0.6086
4.7255 -2.8797 0.3794
4.8338 -2.8815 0.3721
5.3577 -2.9180 0.3429
4.9457 -2.8835 0.3644
5.4879 -2.9203 0.3338
5.1110 -2.9137 0.3600
5.6231 -2.9227 0.3243
5.2321 -2.9158 0.3516
5.7637 -2.9251 0.3144
4.8593 -2.4073 0.2500
4.8904 -2.1913 0.1919
4.8874 -2.3625 0.2364
4.8914 -2.1352 0.1772
4.8884 -2.3049 0.2215
4.8924 -2.0796 0.1626
4.8894 -2.2478 0.2066
4.8662 -2.0132 0.1473
4.8974 -1.9710 0.1338
6.4860 -2.3239 0.1014
6.1577 -2.4094 0.1501
6.4860 -2.2536 0.0826
6.2377 -2.3716 0.1338
4.6286 -1.5584 0.0456
6.4859 -2.3946 0.1202
4.6193 -1.5058 0.0323
4.6201 -1.4571 0.0191
4.6338 -1.4125 0.0060
6.4917 -1.9107 -0.0101
6.4919 -1.8431 -0.0285
-0.2393 -4.7580 1.2253
-0.1899 -4.7577 1.2253
-0.1406 -4.7575 1.2253
-0.0913 -4.7573 1.2253
-0.0420 -4.7572 1.2253
0.0073 -4.7572 1.2253
0.0565 -4.7573 1.2253
0.1058 -4.7574 1.2253
0.1551 -4.7575 1.2253
0.2045 -4.7578 1.2253
0.2539 -4.7581 1.2253
0.3034 -4.7585 1.2253
0.3529 -4.7590 1.2253
0.4025 -4.7595 1.2253
0.4522 -4.7601 1.2253
0.5021 -4.7608 1.2253
0.5520 -4.7615 1.2253
0.6021 -4.7623 1.2253
0.6523 -4.7632 1.2253
0.7027 -4.7642 1.2253
0.7533 -4.7652 1.2253
0.8041 -4.7663 1.2253
0.8550 -4.7675 1.2253
0.9062 -4.7688 1.2253
2.2033 -10.9752 2.8193
2.3218 -10.9773 2.8190
2.4410 -10.9796 2.8187
2.5607 -10.9821 2.8184
2.6811 -10.9848 2.8181
2.8022 -10.9876 2.8178
2.9239 -10.9907 2.8175
3.0464 -10.9939 2.8173
3.1696 -10.9972 2.8170
3.2937 -11.0008 2.8167
3.4186 -11.0046 2.8164
3.5444 -11.0086 2.8161
3.6711 -11.0128 2.8158
3.7988 -11.0171 2.8154
3.9275 -11.0217 2.8151
4.0573 -11.0265 2.8148
4.1881 -11.0314 2.8145
4.3201 -11.0366 2.8142
4.4533 -11.0420 2.8139
4.5877 -11.0477 2.8136
4.7234 -11.0536 2.8132
4.8604 -11.0597 2.8129
4.9989 -11.0660 2.8126
5.1388 -11.0725 2.8122
5.2801 -11.0794 2.8119
5.4231 -11.0864 2.8116
5.5677 -11.0937 2.8112
5.7139 -11.1013 2.8109
5.8619 -11.1092 2.8105
6.0118 -11.1173 2.8102
6.1635 -11.1257 2.8098
6.3171 -11.1344 2.8094
6.4728 -11.1434 2.8090
6.6203 -11.1354 2.8043
6.7656 -11.1212 2.7979
6.9119 -11.1065 2.7914
7.0602 -11.0925 2.7849
7.2100 -11.0785 2.7783
7.3617 -11.0650 2.7718
7.5151 -11.0515 2.7652
7.6704 -11.0382 2.7586
7.8275 -11.0250 2.7519
7.9877 -11.0135 2.7456
8.1501 -11.0022 2.7392
7.9201 -10.4694 2.6031
8.0772 -10.4566 2.5963
8.2359 -10.4430 2.5892
8.3962 -10.4290 2.5819
8.5568 -10.4125 2.5740
9.2185 -10.3425 2.5400
8.7206 -10.3971 2.5662
9.3934 -10.3287 2.5322
8.8862 -10.3813 2.5582
7.0453 -7.5929 1.8581
9.0504 -10.3611 2.5490
6.7802 -7.1622 1.7494
6.6593 -6.8952 1.6810
6.4234 -6.1410 1.4847
6.5450 -6.6429 1.6163
6.3952 -5.9935 1.4457
6.4822 -6.4493 1.5659
6.3683 -5.8505 1.4079
6.4524 -6.2929 1.5247
6.3723 -5.7384 1.3777
6.3762 -5.6283 1.3479
6.3915 -5.2062 1.2333
6.3800 -5.5201 1.3185
6.4033 -5.1112 1.2072
6.3838 -5.4136 1.2897
6.4149 -5.0175 1.1815
6.3875 -5.3089 1.2612
6.4264 -4.9250 1.1560
6.4377 -4.8336 1.1308
6.4757 -4.4744 1.0317
6.4489 -4.7433 1.1059
6.4829 -4.3858 1.0073
6.4600 -4.6541 1.0813
6.4839 -4.2943 0.9822
6.4683 -4.5640 1.0564
6.4840 -4.2033 0.9573
6.4841 -4.1136 0.9326
6.4842 -4.0250 0.9083
4.9658 -2.8839 0.6409
4.8440 -2.9415 0.6606
5.0740 -2.8807 0.6367
4.8523 -2.8819 0.6439
5.2921 -2.9365 0.6452
5.4203 -2.9388 0.6418
5.5533 -2.9411 0.6382
5.6522 -2.9232 0.6301
6.0279 -2.8974 0.6108
5.7514 -2.9038 0.6215
6.1984 -2.9054 0.6075
6.4854 -2.9634 0.6142
5.8878 -2.9010 0.6163
6.4855 -2.8875 0.5930
6.4856 -2.8124 0.5720
6.4860 -2.5182 0.4894
6.4857 -2.7379 0.5511
6.4861 -2.4461 0.4691
6.4858 -2.6640 0.5304
6.4861 -2.3746 0.4490
6.4859 -2.5908 0.5098
6.4862 -2.3036 0.4289
6.4863 -2.2332 0.4090
4.8757 -1.4703 0.2484
6.4864 -2.1632 0.3893
4.9038 -1.4272 0.2352
6.4865 -2.0937 0.3696
4.9047 -1.3762 0.2207
6.1662 -1.9247 0.3327
4.9056 -1.3255 0.2062
-0.2030 -3.9807 1.2255
-0.1611 -3.9807 1.2255
-0.1193 -3.9808 1.2255
-0.0774 -3.9808 1.2255
-0.0356 -3.9808 1.2255
0.0062 -3.9809 1.2255
0.0480 -3.9808 1.2255
0.0898 -3.9808 1.2255
0.1316 -3.9808 1.2255
0.1735 -3.9807 1.2255
0.2153 -3.9806 1.2255
0.2573 -3.9805 1.2255
0.2992 -3.9804 1.2255
0.3413 -3.9803 1.2255
0.3834 -3.9802 1.2255
0.4255 -3.9800 1.2255
0.4678 -3.9798 1.2255
0.5101 -3.9796 1.2255
0.5526 -3.9794 1.2255
0.5951 -3.9792 1.2255
0.6378 -3.9789 1.2255
0.6806 -3.9787 1.2255
0.7235 -3.9784 1.2255
0.7665 -3.9781 1.2255
0.8097 -3.9778 1.2255
0.8531 -3.9774 1.2255
0.8967 -3.9771 1.2255
2.1780 -9.2104 2.8383
2.2797 -9.2095 2.8383
2.3818 -9.2085 2.8383
2.4844 -9.2075 2.8383
2.5875 -9.2065 2.8383
2.6912 -9.2054 2.8383
2.7954 -9.2043 2.8383
2.9002 -9.2031 2.8383
3.0055 -9.2019 2.8383
3.1115 -9.2006 2.8383
3.2181 -9.1993 2.8383
3.3255 -9.1979 2.8383
3.4335 -9.1965 2.8383
3.5422 -9.1950 2.8383
3.6517 -9.1935 2.8383
3.7620 -9.1920 2.8383
3.8731 -9.1903 2.8383
3.9851 -9.1886 2.8383
4.0980 -9.1869 2.8383
4.2117 -9.1851 2.8383
4.3264 -9.1833 2.8383
4.4421 -9.1814 2.8383
4.5588 -9.1794 2.8383
4.6765 -9.1774 2.8383
4.7954 -9.1753 2.8383
4.9153 -9.1731 2.8383
5.0365 -9.1709 2.8383
5.1588 -9.1686 2.8383
5.2822 -9.1660 2.8382
5.4067 -9.1629 2.8380
5.5325 -9.1598 2.8378
5.6595 -9.1564 2.8376
5.7873 -9.1519 2.8370
5.6027 -8.6620 2.6859
5.7276 -8.6594 2.6859
5.8540 -8.6567 2.6859
5.9816 -8.6533 2.6857
6.1107 -8.6497 2.6855
6.2412 -8.6457 2.6852
6.3717 -8.6395 2.6842
6.5042 -8.6335 2.6833
6.6383 -8.6273 2.6824
6.7736 -8.6202 2.6812
6.9105 -8.6128 2.6799
7.0488 -8.6045 2.6784
7.1883 -8.5954 2.6767
7.3265 -8.5822 2.6737
7.4618 -8.5635 2.6691
7.6014 -8.5473 2.6652
7.7403 -8.5283 2.6605
7.0726 -7.6361 2.3833
6.7902 -7.1843 2.2434
6.6675 -6.9134 2.1599
6.5517 -6.6577 2.0811
6.4837 -6.4573 2.0195
6.4536 -6.2991 1.9712
6.4243 -6.1456 1.9242
6.3958 -5.9965 1.8786
6.3683 -5.8517 1.8344
6.3723 -5.7386 1.8000
6.3762 -5.6275 1.7663
6.3801 -5.5182 1.7332
6.3839 -5.4109 1.7006
6.3876 -5.3052 1.6686
6.3920 -5.2020 1.6373
6.4039 -5.1063 1.6084
6.4156 -5.0118 1.5798
6.4272 -4.9185 1.5517
6.4386 -4.8265 1.5239
6.4499 -4.7355 1.4964
6.4610 -4.6456 1.4693
6.4691 -4.5546 1.4419
6.4765 -4.4644 1.4146
6.4838 -4.3753 1.3877
6.4842 -4.2828 1.3597
6.4843 -4.1913 1.3321
6.4844 -4.1010 1.3048
4.8490 -3.0000 0.9556
4.8771 -2.9512 0.9411
4.8708 -2.8822 0.9202
5.0262 -2.9077 0.9295
5.0955 -2.8811 0.9222
5.3156 -2.9369 0.9414
5.4456 -2.9392 0.9434
5.5805 -2.9416 0.9456
5.7206 -2.9440 0.9478
5.8664 -2.9466 0.9502
5.9962 -2.9385 0.9491
6.0633 -2.8981 0.9377
6.2364 -2.9061 0.9420
6.4857 -2.9455 0.9565
6.4858 -2.8693 0.9336
6.4859 -2.7939 0.9110
6.4860 -2.7191 0.8885
6.4861 -2.6450 0.8663
6.4862 -2.5716 0.8442
6.4863 -2.4987 0.8224
6.4863 -2.4264 0.8007
6.4864 -2.3547 0.7792
6.4865 -2.2836 0.7579
6.4866 -2.2129 0.7368
6.4867 -2.1428 0.7158
6.4868 -2.0731 0.6949
6.1937 -1.9133 0.6438
6.1948 -1.8480 0.6242
6.4913 -1.8681 0.6337
6.2194 -1.7247 0.5877
6.2205 -1.6603 0.5684
6.2216 -1.5962 0.5493
-0.1814 -3.5078 1.2616
-0.1439 -3.5078 1.2615
-0.1066 -3.5078 1.2614
-0.0692 -3.5078 1.2614
-0.0318 -3.5078 1.2613
0.0055 -3.5078 1.2613
0.0429 -3.5078 1.2613
0.0802 -3.5078 1.2614
0.1176 -3.5078 1.2614
0.1550 -3.5078 1.2615
0.1924 -3.5078 1.2616
0.2299 -3.5078 1.2618
0.2674 -3.5078 1.2619
0.3050 -3.5078 1.2621
0.3426 -3.5078 1.2623
0.3803 -3.5078 1.2625
0.4181 -3.5078 1.2628
0.4560 -3.5078 1.2630
0.4940 -3.5078 1.2633
0.5320 -3.5078 1.2637
0.5702 -3.5078 1.2640
0.6085 -3.5078 1.2644
0.6470 -3.5078 1.2648
0.6855 -3.5078 1.2652
0.7243 -3.5078 1.2656
0.7631 -3.5078 1.2661
0.8022 -3.5078 1.2666
0.8414 -3.5078 1.2671
0.8808 -3.5078 1.2677
0.9204 -3.5078 1.2682
2.1479 -7.8467 2.8383
2.2362 -7.8428 2.8383
2.3250 -7.8388 2.8383
2.4141 -7.8346 2.8383
2.5036 -7.8302 2.8383
2.5935 -7.8256 2.8383
2.6838 -7.8208 2.8383
2.7746 -7.8159 2.8383
2.8658 -7.8108 2.8383
2.9575 -7.8056 2.8383
3.0497 -7.8001 2.8383
3.1424 -7.7945 2.8383
3.2357 -7.7887 2.8383
3.3295 -7.7827 2.8383
3.4238 -7.7764 2.8383
3.5188 -7.7700 2.8383
3.6143 -7.7634 2.8383
3.7105 -7.7566 2.8383
3.8073 -7.7496 2.8383
3.9048 -7.7424 2.8383
4.0030 -7.7350 2.8383
4.1019 -7.7273 2.8383
4.2016 -7.7194 2.8383
4.3020 -7.7114 2.8383
4.4032 -7.7031 2.8383
4.5052 -7.6945 2.8383
4.6081 -7.6857 2.8383
4.7118 -7.6767 2.8383
4.8165 -7.6674 2.8383
4.9220 -7.6579 2.8383
4.8999 -7.4524 2.7657
4.8648 -7.2347 2.6884
4.9629 -7.2182 2.6859
5.0665 -7.2082 2.6859
5.1712 -7.1979 2.6859
5.2769 -7.1874 2.6859
5.3838 -7.1766 2.6859
5.4917 -7.1655 2.6859
5.6008 -7.1541 2.6859
5.7110 -7.1424 2.6859
5.8225 -7.1305 2.6859
5.9353 -7.1182 2.6859
6.0493 -7.1056 2.6859
6.1648 -7.0926 2.6859
6.2816 -7.0794 2.6859
6.3998 -7.0658 2.6859
6.5195 -7.0518 2.6859
6.6407 -7.0375 2.6859
6.6759 -6.9319 2.6511
6.5584 -6.6726 2.5574
6.4853 -6.4652 2.4834
6.4547 -6.3053 2.4275
6.4251 -6.1501 2.3733
6.3963 -5.9994 2.3207
6.3684 -5.8530 2.2696
6.3723 -5.7387 2.2310
6.3763 -5.6265 2.1931
6.3801 -5.5163 2.1559
6.3840 -5.4079 2.1194
6.3877 -5.3014 2.0836
6.3926 -5.1976 2.0487
6.4046 -5.1011 2.0168
6.4164 -5.0058 1.9853
6.4280 -4.9119 1.9543
6.4395 -4.8191 1.9237
6.4509 -4.7274 1.8935
6.4621 -4.6369 1.8638
6.4699 -4.5450 1.8335
6.4773 -4.4542 1.8036
6.4844 -4.3643 1.7740
6.4845 -4.2710 1.7430
6.4846 -4.1789 1.7125
6.4847 -4.0882 1.6824
4.8491 -2.9900 1.2359
4.8773 -2.9408 1.2211
4.8898 -2.8825 1.2025
5.0264 -2.8962 1.2141
5.2128 -2.9351 1.2366
5.3399 -2.9374 1.2440
5.4716 -2.9397 1.2518
5.6085 -2.9421 1.2598
5.7507 -2.9446 1.2682
5.8986 -2.9471 1.2770
6.0035 -2.9259 1.2758
6.1488 -2.9220 1.2824
6.4859 -3.0044 1.3275
6.4860 -2.9272 1.3025
6.4861 -2.8508 1.2778
6.4862 -2.7751 1.2535
6.4863 -2.7001 1.2293
6.4864 -2.6258 1.2055
6.4865 -2.5521 1.1818
6.4865 -2.4790 1.1585
6.4866 -2.4065 1.1353
6.4867 -2.3346 1.1124
6.4868 -2.2632 1.0897
6.4869 -2.1924 1.0672
6.4870 -2.1221 1.0449
6.4870 -2.0523 1.0228
6.1941 -1.8933 0.9557
6.1681 -1.8198 0.9311
6.2186 -1.7691 0.9180
6.2197 -1.7042 0.8977
6.2209 -1.6396 0.8776
6.2220 -1.5754 0.8575
6.2231 -1.5115 0.8377
-0.1840 -3.5078 1.4495
-0.1460 -3.5078 1.4493
-0.1081 -3.5078 1.4492
-0.0702 -3.5078 1.4490
-0.0323 -3.5078 1.4490
0.0056 -3.5078 1.4490
0.0435 -3.5078 1.4490
0.0814 -3.5078 1.4491
0.1193 -3.5078 1.4492
0.1572 -3.5078 1.4493
0.1952 -3.5078 1.4495
0.2332 -3.5078 1.4498
0.2712 -3.5078 1.4501
0.3094 -3.5078 1.4504
0.3475 -3.5078 1.4508
0.3858 -3.5078 1.4512
0.4241 -3.5078 1.4517
0.4626 -3.5078 1.4522
0.5011 -3.5078 1.4527
0.5397 -3.5078 1.4533
0.5785 -3.5078 1.4540
0.6173 -3.5078 1.4546
0.6564 -3.5078 1.4554
0.6955 -3.5078 1.4562
0.7348 -3.5078 1.4570
0.7743 -3.5078 1.4579
0.8139 -3.5078 1.4588
0.8537 -3.5078 1.4597
0.8937 -3.5078 1.4608
1.8134 -6.8108 2.8383
1.8904 -6.8056 2.8383
1.9676 -6.8002 2.8383
2.0452 -6.7945 2.8383
2.1229 -6.7886 2.8383
2.2010 -6.7825 2.8383
2.2793 -6.7762 2.8383
2.3580 -6.7695 2.8383
2.4369 -6.7627 2.8383
2.5162 -6.7556 2.8383
2.5958 -6.7483 2.8383
2.6757 -6.7407 2.8383
2.7560 -6.7329 2.8383
2.8366 -6.7248 2.8383
2.9177 -6.7165 2.8383
2.9991 -6.7079 2.8383
3.0809 -6.6990 2.8383
3.1632 -6.6899 2.8383
3.2459 -6.6805 2.8383
3.3290 -6.6708 2.8383
3.4126 -6.6608 2.8383
3.4967 -6.6506 2.8383
3.5812 -6.6401 2.8383
3.6663 -6.6293 2.8383
3.7519 -6.6182 2.8383
3.8380 -6.6068 2.8383
3.9247 -6.5950 2.8383
4.0120 -6.5830 2.8383
4.0998 -6.5707 2.8383
4.1882 -6.5580 2.8383
4.2773 -6.5450 2.8383
4.3670 -6.5317 2.8383
4.4573 -6.5181 2.8383
4.5483 -6.5041 2.8383
4.6401 -6.4897 2.8383
4.7172 -6.4540 2.8291
4.7216 -6.3206 2.7771
4.7272 -6.1924 2.7273
4.7466 -6.0855 2.6868
4.8355 -6.0682 2.6859
4.9266 -6.0525 2.6859
5.0186 -6.0364 2.6859
5.1114 -6.0200 2.6859
5.2050 -6.0031 2.6859
5.2995 -5.9859 2.6859
5.3949 -5.9682 2.6859
5.4912 -5.9501 2.6859
5.5885 -5.9317 2.6859
5.6868 -5.9127 2.6859
5.7860 -5.8933 2.6859
5.8863 -5.8734 2.6859
5.9876 -5.8531 2.6859
6.0901 -5.8323 2.6859
6.1936 -5.8110 2.6859
6.2984 -5.7892 2.6859
6.3723 -5.7381 2.6725
6.3763 -5.6249 2.6302
6.3802 -5.5137 2.5887
6.3841 -5.4043 2.5481
6.3879 -5.2969 2.5082
6.3932 -5.1925 2.4697
6.4053 -5.0952 2.4345
6.4172 -4.9992 2.3999
6.4289 -4.9045 2.3658
6.4405 -4.8110 2.3322
6.4520 -4.7186 2.2992
6.4632 -4.6273 2.2666
6.4707 -4.5347 2.2333
6.4782 -4.4433 2.2005
6.4847 -4.3524 2.1679
6.4848 -4.2585 2.1338
6.4849 -4.1659 2.1002
6.4850 -4.0746 2.0672
4.8581 -2.9848 1.5242
4.8775 -2.9298 1.5062
4.9100 -2.8829 1.4924
5.0314 -2.8869 1.5052
5.2366 -2.9356 1.5419
5.3655 -2.9378 1.5550
5.4991 -2.9402 1.5686
5.6380 -2.9426 1.5828
5.7823 -2.9451 1.5976
5.9325 -2.9477 1.6131
6.0084 -2.9114 1.6077
6.1491 -2.9046 1.6192
6.4862 -2.9857 1.6807
6.4863 -2.9082 1.6538
6.4864 -2.8316 1.6272
6.4865 -2.7556 1.6010
6.4866 -2.6804 1.5750
6.4867 -2.6058 1.5494
6.4867 -2.5319 1.5241
6.4868 -2.4586 1.4991
6.4869 -2.3859 1.4744
6.4870 -2.3138 1.4500
6.4871 -2.2422 1.4258
6.4872 -2.1712 1.4019
6.4872 -2.1008 1.3782
6.1661 -1.9302 1.2877
6.1944 -1.8726 1.2715
6.2122 -1.8119 1.2531
6.2190 -1.7481 1.2327
6.2201 -1.6830 1.2113
6.2212 -1.6183 1.1902
6.2224 -1.5540 1.1692
6.2235 -1.4900 1.1483
6.2246 -1.4263 1.1277
-0.1867 -3.5079 1.6448
-0.1481 -3.5079 1.6445
-0.1097 -3.5079 1.6443
-0.0712 -3.5079 1.6441
-0.0328 -3.5079 1.6440
0.0057 -3.5079 1.6440
0.0441 -3.5079 1.6440
0.0826 -3.5079 1.6441
0.1210 -3.5079 1.6443
0.1595 -3.5079 1.6446
0.1980 -3.5079 1.6449
0.2366 -3.5079 1.6452
0.2752 -3.5079 1.6456
0.3139 -3.5079 1.6461
0.3526 -3.5079 1.6467
0.3915 -3.5079 1.6473
0.4304 -3.5079 1.6480
0.4694 -3.5079 1.6488
0.5085 -3.5079 1.6496
0.5477 -3.5079 1.6505
0.5870 -3.5079 1.6514
0.6265 -3.5079 1.6525
0.6661 -3.5079 1.6536
0.7059 -3.5079 1.6547
0.7458 -3.5079 1.6560
0.7859 -3.5079 1.6573
0.8261 -3.5079 1.6586
0.8666 -3.5079 1.6601
0.9072 -3.5079 1.6616
1.6179 -5.9862 2.8383
1.6862 -5.9803 2.8383
1.7548 -5.9740 2.8383
1.8235 -5.9675 2.8383
1.8925 -5.9607 2.8383
1.9616 -5.9536 2.8383
2.0309 -5.9463 2.8383
2.1004 -5.9387 2.8383
2.1702 -5.9308 2.8383
2.2402 -5.9227 2.8383
2.3104 -5.9142 2.8383
2.3808 -5.9056 2.8383
2.4515 -5.8966 2.8383
2.5225 -5.8873 2.8383
2.5937 -5.8777 2.8383
2.6652 -5.8679 2.8383
2.7370 -5.8577 2.8383
2.8091 -5.8473 2.8383
2.8815 -5.8365 2.8383
2.9542 -5.8255 2.8383
3.0273 -5.8141 2.8383
3.1006 -5.8024 2.8383
3.1743 -5.7904 2.8383
3.2484 -5.7781 2.8383
3.3228 -5.7655 2.8383
3.3976 -5.7525 2.8383
3.4728 -5.7392 2.8383
3.5484 -5.7256 2.8383
3.6243 -5.7116 2.8383
3.7008 -5.6972 2.8383
3.7776 -5.6825 2.8383
3.8548 -5.6675 2.8383
3.9325 -5.6520 2.8383
4.0107 -5.6363 2.8383
4.0894 -5.6201 2.8383
4.1685 -5.6035 2.8383
4.2482 -5.5866 2.8383
4.3283 -5.5693 2.8383
4.4090 -5.5515 2.8383
4.4902 -5.5334 2.8383
4.5720 -5.5148 2.8383
4.6544 -5.4958 2.8383
4.7114 -5.4465 2.8228
4.7198 -5.3422 2.7788
4.7280 -5.2401 2.7359
4.7398 -5.1441 2.6961
4.8027 -5.1047 2.6859
4.8842 -5.0842 2.6859
4.9663 -5.0632 2.6859
5.0491 -5.0418 2.6859
5.1326 -5.0198 2.6859
5.2167 -4.9974 2.6859
5.3016 -4.9746 2.6859
5.3872 -4.9512 2.6859
5.4736 -4.9273 2.6859
5.5607 -4.9029 2.6859
5.6486 -4.8779 2.6859
5.7374 -4.8524 2.6859
5.8269 -4.8263 2.6859
5.9174 -4.7997 2.6859
6.0087 -4.7725 2.6859
6.1009 -4.7447 2.6859
6.1940 -4.7163 2.6859
6.2881 -4.6872 2.6859
6.3832 -4.6576 2.6859
6.4640 -4.6165 2.6796
6.4717 -4.5232 2.6432
6.4792 -4.4311 2.6073
6.4850 -4.3392 2.5715
6.4851 -4.2447 2.5340
6.4852 -4.1515 2.4971
6.4853 -4.0597 2.4610
4.8765 -2.9844 1.8237
4.8507 -2.9017 1.7879
4.9320 -2.8833 1.7917
5.0425 -2.8802 1.8055
5.2625 -2.9360 1.8573
5.3932 -2.9383 1.8762
5.5289 -2.9407 1.8959
5.6699 -2.9431 1.9165
5.8166 -2.9457 1.9381
5.9692 -2.9484 1.9606
6.0190 -2.8985 1.9489
6.1903 -2.9053 1.9758
6.4865 -2.9658 2.0409
6.4866 -2.8881 2.0119
6.4867 -2.8112 1.9833
6.4868 -2.7350 1.9551
6.4869 -2.6595 1.9273
6.4870 -2.5847 1.8998
6.4870 -2.5105 1.8727
6.4871 -2.4371 1.8460
6.4872 -2.3642 1.8196
6.4873 -2.2919 1.7935
6.4874 -2.2202 1.7678
6.4874 -2.1490 1.7423
6.4875 -2.0783 1.7172
6.1841 -1.9142 1.6132
6.1948 -1.8510 1.5925
6.2934 -1.8133 1.5942
6.2194 -1.7261 1.5524
6.2205 -1.6609 1.5299
6.2216 -1.5961 1.5077
6.2228 -1.5316 1.4856
6.2239 -1.4675 1.4638
6.2250 -1.4037 1.4422
6.2261 -1.3402 1.4208
-0.1895 -3.5079 1.8488
-0.1504 -3.5079 1.8484
-0.1113 -3.5079 1.8481
-0.0723 -3.5079 1.8479
-0.0333 -3.5079 1.8478
0.0058 -3.5079 1.8477
0.0448 -3.5079 1.8478
0.0838 -3.5079 1.8479
0.1228 -3.5079 1.8482
0.1619 -3.5079 1.8485
0.2010 -3.5079 1.8489
0.2402 -3.5079 1.8494
0.2794 -3.5079 1.8500
0.3186 -3.5079 1.8506
0.3580 -3.5079 1.8514
0.3974 -3.5079 1.8522
0.4369 -3.5079 1.8532
0.4765 -3.5079 1.8542
0.5162 -3.5079 1.8553
0.5560 -3.5079 1.8565
0.5960 -3.5079 1.8578
0.6361 -3.5079 1.8592
0.6763 -3.5079 1.8607
0.7167 -3.5079 1.8623
0.7572 -3.5079 1.8639
0.7980 -3.5079 1.8657
0.8389 -3.5079 1.8676
0.8800 -3.5079 1.8695
0.9213 -3.5079 1.8716
1.4584 -5.3136 2.8383
1.5198 -5.3072 2.8383
1.5813 -5.3005 2.8383
1.6430 -5.2936 2.8383
1.7047 -5.2863 2.8383
1.7667 -5.2788 2.8383
1.8287 -5.2710 2.8383
1.8909 -5.2629 2.8383
1.9533 -5.2545 2.8383
2.0159 -5.2458 2.8383
2.0786 -5.2369 2.8383
2.1415 -5.2276 2.8383
2.2045 -5.2180 2.8383
2.2678 -5.2082 2.8383
2.3312 -5.1980 2.8383
2.3948 -5.1875 2.8383
2.4587 -5.1768 2.8383
2.5227 -5.1657 2.8383
2.5870 -5.1543 2.8383
2.6515 -5.1426 2.8383
2.7162 -5.1306 2.8383
2.7811 -5.1182 2.8383
2.8463 -5.1055 2.8383
2.9117 -5.0925 2.8383
2.9774 -5.0791 2.8383
3.0434 -5.0654 2.8383
3.1096 -5.0514 2.8383
3.1761 -5.0370 2.8383
3.2429 -5.0223 2.8383
3.3100 -5.0072 2.8383
3.3774 -4.9918 2.8383
3.4450 -4.9759 2.8383
3.5130 -4.9597 2.8383
3.5814 -4.9432 2.8383
3.6500 -4.9262 2.8383
3.7190 -4.9089 2.8383
3.7883 -4.8912 2.8383
3.8580 -4.8731 2.8383
3.9280 -4.8546 2.8383
3.9985 -4.8356 2.8383
4.0693 -4.8163 2.8383
4.1405 -4.7965 2.8383
4.2120 -4.7763 2.8383
4.2840 -4.7557 2.8383
4.3565 -4.7346 2.8383
4.4293 -4.7131 2.8383
4.5026 -4.6912 2.8383
4.5763 -4.6687 2.8383
4.6505 -4.6458 2.8383
4.7121 -4.6097 2.8305
4.7197 -4.5214 2.7907
4.7272 -4.4346 2.7517
4.7344 -4.3494 2.7136
4.7587 -4.2811 2.6859
4.8318 -4.2566 2.6859
4.9053 -4.2316 2.6859
4.9794 -4.2061 2.6859
5.0540 -4.1800 2.6859
5.1292 -4.1535 2.6859
5.2049 -4.1264 2.6859
5.2812 -4.0987 2.6859
5.3581 -4.0705 2.6859
5.4355 -4.0417 2.6859
5.5136 -4.0123 2.6859
5.5923 -3.9823 2.6859
5.6717 -3.9517 2.6859
5.7517 -3.9206 2.6859
5.8324 -3.8887 2.6859
5.9138 -3.8562 2.6859
5.9959 -3.8231 2.6859
6.0787 -3.7893 2.6859
4.8767 -2.9716 2.1256
4.8509 -2.8886 2.0858
4.9565 -2.8837 2.1026
5.0689 -2.8806 2.1214
5.1991 -2.8854 2.1470
5.3249 -2.8851 2.1697
5.4603 -2.8875 2.1954
6.4864 -3.3469 2.5736
6.4865 -3.2646 2.5398
6.1471 -3.0165 2.3754
6.1755 -2.9538 2.3551
6.2358 -2.9061 2.3472
6.4868 -2.9443 2.4099
6.4869 -2.8664 2.3787
6.4870 -2.7892 2.3479
6.4871 -2.7127 2.3176
6.4872 -2.6370 2.2878
6.4873 -2.5620 2.2583
6.4873 -2.4876 2.2293
6.4874 -2.4139 2.2007
6.4875 -2.3409 2.1725
6.4876 -2.2684 2.1447
6.4877 -2.1965 2.1172
6.4877 -2.1252 2.0901
6.4878 -2.0544 2.0634
6.1940 -1.8942 1.9448
6.1681 -1.8199 1.9118
6.2186 -1.7683 1.9028
6.2198 -1.7026 1.8788
6.2209 -1.6373 1.8550
6.2220 -1.5724 1.8316
6.2232 -1.5078 1.8084
6.2243 -1.4436 1.7854
6.2254 -1.3797 1.7628
6.2265 -1.3162 1.7403
6.2276 -1.2529 1.7182
-0.1924 -3.5080 2.0630
-0.1527 -3.5080 2.0626
-0.1130 -3.5080 2.0622
-0.0734 -3.5080 2.0619
-0.0338 -3.5080 2.0618
0.0059 -3.5080 2.0617
0.0455 -3.5080 2.0618
0.0851 -3.5079 2.0620
0.1248 -3.5080 2.0623
0.1644 -3.5079 2.0627
0.2042 -3.5080 2.0632
0.2439 -3.5080 2.0638
0.2837 -3.5079 2.0646
0.3236 -3.5080 2.0654
0.3636 -3.5080 2.0664
0.4036 -3.5080 2.0675
0.4438 -3.5080 2.0687
0.4840 -3.5080 2.0700
0.5243 -3.5080 2.0714
0.5648 -3.5080 2.0730
0.6054 -3.5079 2.0747
0.6461 -3.5080 2.0764
0.6870 -3.5080 2.0784
0.7281 -3.5079 2.0804
0.7693 -3.5079 2.0825
0.8107 -3.5079 2.0848
0.8523 -3.5080 2.0872
0.8941 -3.5080 2.0897
1.2698 -4.7586 2.8383
1.3253 -4.7522 2.8383
1.3809 -4.7456 2.8383
1.4366 -4.7388 2.8383
1.4924 -4.7316 2.8383
1.5483 -4.7242 2.8383
1.6042 -4.7165 2.8383
1.6603 -4.7084 2.8383
1.7165 -4.7001 2.8383
1.7728 -4.6916 2.8383
1.8293 -4.6827 2.8383
1.8858 -4.6735 2.8383
1.9425 -4.6640 2.8383
1.9993 -4.6542 2.8383
2.0562 -4.6441 2.8383
2.1133 -4.6338 2.8383
2.1705 -4.6230 2.8383
2.2278 -4.6121 2.8383
2.2853 -4.6007 2.8383
2.3430 -4.5891 2.8383
2.4008 -4.5771 2.8383
2.4587 -4.5649 2.8383
2.5169 -4.5523 2.8383
2.5752 -4.5394 2.8383
2.6337 -4.5261 2.8383
2.6923 -4.5125 2.8383
2.7512 -4.4986 2.8383
2.8102 -4.4843 2.8383
2.8694 -4.4698 2.8383
2.9289 -4.4548 2.8383
2.9885 -4.4395 2.8383
3.0483 -4.4238 2.8383
3.1084 -4.4078 2.8383
3.1686 -4.3914 2.8383
3.2291 -4.3746 2.8383
3.2899 -4.3575 2.8383
3.3508 -4.3400 2.8383
3.4120 -4.3221 2.8383
3.4735 -4.3038 2.8383
3.5351 -4.2852 2.8383
3.5971 -4.2661 2.8383
3.6593 -4.2467 2.8383
3.7218 -4.2268 2.8383
3.7845 -4.2065 2.8383
3.8475 -4.1858 2.8383
3.9109 -4.1647 2.8383
3.9745 -4.1431 2.8383
4.0384 -4.1211 2.8383
4.1026 -4.0987 2.8383
4.1671 -4.0758 2.8383
4.2319 -4.0525 2.8383
4.2971 -4.0287 2.8383
4.3626 -4.0044 2.8383
4.4284 -3.9796 2.8383
4.4946 -3.9544 2.8383
4.5611 -3.9287 2.8383
4.6280 -3.9025 2.8383
4.6952 -3.8758 2.8383
4.7177 -3.8121 2.8114
4.7245 -3.7367 2.7758
4.7311 -3.6624 2.7409
4.7377 -3.5892 2.7067
4.7667 -3.5338 2.6859
4.8326 -3.5055 2.6859
4.8989 -3.4766 2.6859
4.9656 -3.4472 2.6859
5.0327 -3.4172 2.6859
5.1002 -3.3867 2.6859
5.1681 -3.3555 2.6859
5.2365 -3.3238 2.6859
5.3054 -3.2916 2.6859
4.8770 -2.9569 2.4372
4.8654 -2.8821 2.4002
5.5148 -3.1910 2.6859
5.5855 -3.1562 2.6859
5.6568 -3.1208 2.6859
5.7286 -3.0846 2.6859
5.8009 -3.0478 2.6859
5.8737 -3.0103 2.6859
5.9470 -2.9722 2.6859
6.0210 -2.9333 2.6859
6.0955 -2.8936 2.6859
6.1705 -2.8532 2.6859
6.2462 -2.8121 2.6859
6.3225 -2.7701 2.6859
6.3993 -2.7274 2.6859
6.4769 -2.6839 2.6859
6.4875 -2.6124 2.6583
6.4876 -2.5372 2.6267
6.4877 -2.4626 2.5956
6.4877 -2.3887 2.5650
6.4878 -2.3155 2.5349
6.4879 -2.2428 2.5052
6.4880 -2.1708 2.4759
6.4881 -2.0993 2.4471
6.1662 -1.9277 2.2986
6.1945 -1.8693 2.2824
6.0023 -1.7466 2.1859
6.1049 -1.7111 2.1976
6.2202 -1.6773 2.2133
6.2214 -1.6119 2.1882
6.2225 -1.5468 2.1635
6.2236 -1.4822 2.1390
6.2248 -1.4179 2.1149
6.2259 -1.3539 2.0911
6.2270 -1.2903 2.0675
6.2281 -1.2269 2.0443
6.2292 -1.1639 2.0213
-0.1956 -3.5080 2.2894
-0.1552 -3.5080 2.2888
-0.1149 -3.5080 2.2883
-0.0746 -3.5080 2.2880
-0.0343 -3.5080 2.2878
0.0059 -3.5080 2.2878
0.0462 -3.5080 2.2879
0.0865 -3.5080 2.2881
0.1268 -3.5080 2.2884
0.1671 -3.5080 2.2889
0.2075 -3.5080 2.2896
0.2479 -3.5080 2.2904
0.2884 -3.5080 2.2913
0.3289 -3.5080 2.2924
0.3695 -3.5080 2.2936
0.4102 -3.5080 2.2949
0.4510 -3.5080 2.2964
0.4919 -3.5080 2.2980
0.5329 -3.5080 2.2998
0.5741 -3.5080 2.3017
0.6153 -3.5080 2.3038
0.6568 -3.5080 2.3060
0.6983 -3.5080 2.3084
0.7401 -3.5080 2.3109
0.7820 -3.5080 2.3136
0.8241 -3.5080 2.3164
0.8664 -3.5080 2.3194
0.9090 -3.5080 2.3225
1.0185 -3.7542 2.4890
1.2121 -4.2747 2.8383
1.2628 -4.2681 2.8383
1.3136 -4.2612 2.8383
1.3644 -4.2540 2.8383
1.4153 -4.2465 2.8383
1.4663 -4.2388 2.8383
1.5173 -4.2307 2.8383
1.5685 -4.2224 2.8383
1.6197 -4.2138 2.8383
1.6710 -4.2049 2.8383
1.7223 -4.1957 2.8383
1.7738 -4.1862 2.8383
1.8253 -4.1764 2.8383
1.8770 -4.1663 2.8383
1.9287 -4.1559 2.8383
1.9806 -4.1452 2.8383
2.0325 -4.1343 2.8383
2.0845 -4.1230 2.8383
2.1367 -4.1113 2.8383
2.1889 -4.0994 2.8383
2.2413 -4.0871 2.8383
2.2938 -4.0746 2.8383
2.3464 -4.0617 2.8383
2.3991 -4.0485 2.8383
2.4520 -4.0349 2.8383
2.5050 -4.0211 2.8383
2.5581 -4.0069 2.8383
2.6113 -3.9924 2.8383
2.6647 -3.9775 2.8383
2.7183 -3.9623 2.8383
2.7719 -3.9467 2.8383
2.8257 -3.9308 2.8383
2.8797 -3.9146 2.8383
2.9338 -3.8980 2.8383
2.9881 -3.8810 2.8383
3.0425 -3.8636 2.8383
3.0971 -3.8459 2.8383
3.1519 -3.8279 2.8383
3.2068 -3.8094 2.8383
3.2619 -3.7906 2.8383
3.3172 -3.7714 2.8383
3.3727 -3.7518 2.8383
3.4284 -3.7318 2.8383
3.4842 -3.7114 2.8383
3.5402 -3.6906 2.8383
3.5965 -3.6694 2.8383
3.6529 -3.6478 2.8383
3.7095 -3.6257 2.8383
3.7664 -3.6033 2.8383
3.8234 -3.5804 2.8383
3.8807 -3.5571 2.8383
3.9382 -3.5334 2.8383
3.9959 -3.5091 2.8383
4.0538 -3.4845 2.8383
4.1120 -3.4594 2.8383
4.1704 -3.4338 2.8383
4.2290 -3.4077 2.8383
4.2879 -3.3812 2.8383
4.3470 -3.3542 2.8383
4.4064 -3.3268 2.8383
4.4661 -3.2988 2.8383
4.5260 -3.2703 2.8383
4.5862 -3.2412 2.8383
4.6466 -3.2117 2.8383
4.7073 -3.1817 2.8383
4.7198 -3.1190 2.8094
4.7259 -3.0530 2.7774
4.7319 -2.9877 2.7459
4.7378 -2.9232 2.7150
4.7522 -2.8646 2.6895
4.8051 -2.8293 2.6859
4.8646 -2.7972 2.6859
4.9243 -2.7644 2.6859
4.9843 -2.7312 2.6859
5.0447 -2.6973 2.6859
5.1054 -2.6628 2.6859
5.1664 -2.6278 2.6859
5.2277 -2.5921 2.6859
5.2893 -2.5558 2.6859
5.3513 -2.5189 2.6859
5.4136 -2.4813 2.6859
5.4763 -2.4431 2.6859
5.5394 -2.4042 2.6859
5.6028 -2.3646 2.6859
5.6666 -2.3243 2.6859
5.7307 -2.2834 2.6859
5.7953 -2.2417 2.6859
5.8602 -2.1993 2.6859
5.9255 -2.1562 2.6859
5.9912 -2.1123 2.6859
6.0574 -2.0676 2.6859
6.1239 -2.0221 2.6859
6.1909 -1.9759 2.6859
6.1938 -1.9090 2.6582
6.1950 -1.8420 2.6302
6.3944 -1.8322 2.6859
6.4631 -1.7826 2.6859
6.4903 -1.7210 2.6686
6.4905 -1.6524 2.6406
5.6907 -1.3890 2.2908
5.6736 -1.3256 2.2600
5.6898 -1.2702 2.2428
5.7058 -1.2149 2.2257
5.7370 -1.1626 2.2147
5.7695 -1.1103 2.2042
5.8119 -1.0594 2.1975
5.8544 -1.0079 2.1909
-0.1989 -3.5081 2.5299
-0.1578 -3.5080 2.5292
-0.1168 -3.5080 2.5286
-0.0759 -3.5080 2.5283
-0.0349 -3.5080 2.5280
0.0060 -3.5080 2.5280
0.0470 -3.5080 2.5281
0.0880 -3.5080 2.5284
0.1289 -3.5080 2.5288
0.1699 -3.5080 2.5294
0.2110 -3.5080 2.5302
0.2521 -3.5080 2.5311
0.2933 -3.5080 2.5323
0.3345 -3.5080 2.5335
0.3758 -3.5080 2.5350
0.4172 -3.5080 2.5366
0.4587 -3.5080 2.5384
0.5003 -3.5080 2.5404
0.5420 -3.5080 2.5426
0.5839 -3.5080 2.5449
0.6259 -3.5080 2.5474
0.6681 -3.5080 2.5501
0.7104 -3.5080 2.5530
0.7529 -3.5081 2.5560
0.7956 -3.5080 2.5593
0.8384 -3.5080 2.5627
0.8815 -3.5080 2.5663
1.0213 -3.8742 2.8383
1.0677 -3.8681 2.8383
1.1142 -3.8619 2.8383
1.1607 -3.8553 2.8383
1.2072 -3.8485 2.8383
1.2538 -3.8414 2.8383
1.3005 -3.8340 2.8383
1.3471 -3.8263 2.8383
1.3939 -3.8183 2.8383
1.4407 -3.8101 2.8383
1.4875 -3.8016 2.8383
1.5344 -3.7928 2.8383
1.5814 -3.7837 2.8383
1.6284 -3.7744 2.8383
1.6754 -3.7647 2.8383
1.7226 -3.7547 2.8383
1.7698 -3.7445 2.8383
1.8171 -3.7339 2.8383
1.8644 -3.7231 2.8383
1.9118 -3.7119 2.8383
1.9593 -3.7005 2.8383
2.0069 -3.6887 2.8383
2.0545 -3.6767 2.8383
2.1022 -3.6643 2.8383
2.1500 -3.6516 2.8383
2.1979 -3.6386 2.8383
2.2459 -3.6253 2.8383
2.2939 -3.6117 2.8383
2.3421 -3.5977 2.8383
2.3903 -3.5835 2.8383
2.4386 -3.5689 2.8383
2.4870 -3.5540 2.8383
2.5355 -3.5387 2.8383
2.5841 -3.5231 2.8383
2.6328 -3.5072 2.8383
2.6816 -3.4909 2.8383
2.7306 -3.4743 2.8383
2.7796 -3.4573 2.8383
2.8287 -3.4400 2.8383
2.8779 -3.4223 2.8383
2.9273 -3.4043 2.8383
2.9768 -3.3860 2.8383
3.0263 -3.3672 2.8383
3.0760 -3.3481 2.8383
3.1259 -3.3286 2.8383
3.1758 -3.3087 2.8383
3.2259 -3.2885 2.8383
3.2761 -3.2679 2.8383
3.3264 -3.2469 2.8383
3.3768 -3.2255 2.8383
3.4274 -3.2036 2.8383
3.4782 -3.1815 2.8383
3.5800 -3.1359 2.8383
3.5290 -3.1588 2.8383
3.6312 -3.1124 2.8383
3.7855 -3.0396 2.8383
3.6825 -3.0886 2.8383
3.8372 -3.0145 2.8383
3.7339 -3.0643 2.8383
3.8891 -2.9889 2.8383
3.9934 -2.9364 2.8383
3.9412 -2.9628 2.8383
4.0457 -2.9094 2.8383
4.2038 -2.8259 2.8383
4.0983 -2.8821 2.8383
4.2569 -2.7971 2.8383
4.1510 -2.8542 2.8383
4.3101 -2.7677 2.8383
4.4170 -2.7076 2.8383
4.3635 -2.7380 2.8383
4.4708 -2.6768 2.8383
4.6331 -2.5813 2.8383
4.5247 -2.6455 2.8383
4.6876 -2.5485 2.8383
4.5788 -2.6137 2.8383
4.7187 -2.5025 2.8242
4.7297 -2.3847 2.7666
4.7350 -2.3266 2.7385
4.7242 -2.4433 2.7952
4.7403 -2.2691 2.7109
4.8021 -2.1790 2.6859
4.7545 -2.2164 2.6889
4.8552 -2.1435 2.6859
5.0157 -2.0337 2.6859
4.9085 -2.1075 2.6859
5.0696 -1.9960 2.6859
4.9620 -2.0710 2.6859
5.1238 -1.9576 2.6859
5.2327 -1.8789 2.6859
5.1781 -1.9185 2.6859
5.2875 -1.8386 2.6859
5.4532 -1.7138 2.6859
5.3425 -1.7977 2.6859
5.5089 -1.6709 2.6859
5.3977 -1.7561 2.6859
5.5648 -1.6272 2.6859
5.6774 -1.5379 2.6859
5.6210 -1.5829 2.6859
5.7340 -1.4921 2.6859
5.9054 -1.3503 2.6859
5.7909 -1.4456 2.6859
5.9631 -1.3015 2.6859
5.8480 -1.3983 2.6859
6.0210 -1.2519 2.6859
6.1375 -1.1503 2.6859
6.0791 -1.2015 2.6859
6.1962 -1.0983 2.6859
6.2551 -1.0455 2.6859
6.3143 -0.9917 2.6859
-0.2061 -3.5724 2.8383
-0.1636 -3.5735 2.8383
-0.1212 -3.5744 2.8383
-0.0787 -3.5750 2.8383
-0.0362 -3.5753 2.8383
0.0063 -3.5754 2.8383
0.0488 -3.5752 2.8383
0.0912 -3.5748 2.8383
0.1337 -3.5741 2.8383
0.1762 -3.5732 2.8383
0.2187 -3.5720 2.8383
0.2612 -3.5705 2.8383
0.3037 -3.5688 2.8383
0.3462 -3.5669 2.8383
0.3887 -3.5646 2.8383
0.4312 -3.5622 2.8383
0.4738 -3.5594 2.8383
0.5163 -3.5564 2.8383
0.5589 -3.5532 2.8383
0.6015 -3.5496 2.8383
0.6441 -3.5458 2.8383
0.6867 -3.5418 2.8383
0.7293 -3.5375 2.8383
0.7720 -3.5329 2.8383
0.8147 -3.5281 2.8383
0.8574 -3.5230 2.8383
0.9001 -3.5176 2.8383
0.9428 -3.5120 2.8383
0.9856 -3.5061 2.8383
1.0284 -3.4999 2.8383
1.0712 -3.4935 2.8383
1.1141 -3.4868 2.8383
1.1570 -3.4799 2.8383
1.1999 -3.4726 2.8383
1.2428 -3.4651 2.8383
1.2858 -3.4573 2.8383
1.3288 -3.4493 2.8383
1.3718 -3.4409 2.8383
1.4149 -3.4323 2.8383
1.4581 -3.4234 2.8383
1.5012 -3.4142 2.8383
1.5444 -3.4047 2.8383
1.5877 -3.3950 2.8383
1.6309 -3.3850 2.8383
1.6743 -3.3746 2.8383
1.7176 -3.3641 2.8383
1.7611 -3.3532 2.8383
1.8045 -3.3420 2.8383
1.8480 -3.3305 2.8383
1.8916 -3.3187 2.8383
1.9352 -3.3066 2.8383
1.9789 -3.2943 2.8383
2.0226 -3.2816 2.8383
2.0664 -3.2686 2.8383
2.1102 -3.2553 2.8383
2.1541 -3.2417 2.8383
2.1980 -3.2278 2.8383
2.2420 -3.2136 2.8383
2.2861 -3.1991 2.8383
2.3302 -3.1843 2.8383
2.3744 -3.1691 2.8383
2.4186 -3.1536 2.8383
2.4629 -3.1378 2.8383
2.5073 -3.1217 2.8383
2.5517 -3.1052 2.8383
2.5962 -3.0884 2.8383
2.6408 -3.0713 2.8383
2.6854 -3.0538 2.8383
2.7301 -3.0360 2.8383
2.7749 -3.0178 2.8383
2.8198 -2.9994 2.8383
2.8647 -2.9805 2.8383
2.9097 -2.9613 2.8383
2.9548 -2.9418 2.8383
2.9999 -2.9218 2.8383
3.0452 -2.9016 2.8383
3.0905 -2.8809 2.8383
3.1359 -2.8599 2.8383
3.1814 -2.8385 2.8383
3.2269 -2.8167 2.8383
3.2725 -2.7946 2.8383
3.3183 -2.7720 2.8383
3.3641 -2.7491 2.8383
3.4100 -2.7258 2.8383
3.4560 -2.7020 2.8383
3.5020 -2.6779 2.8383
3.5482 -2.6534 2.8383
3.5944 -2.6285 2.8383
3.6408 -2.6031 2.8383
3.6872 -2.5774 2.8383
3.7337 -2.5512 2.8383
3.7803 -2.5246 2.8383
3.8271 -2.4975 2.8383
3.8739 -2.4700 2.8383
3.9208 -2.4421 2.8383
3.9678 -2.4137 2.8383
4.0149 -2.3849 2.8383
4.2043 -2.2649 2.8383
4.0621 -2.3556 2.8383
4.2519 -2.2337 2.8383
4.1094 -2.3258 2.8383
4.2996 -2.2021 2.8383
4.1568 -2.2956 2.8383
4.3474 -2.1699 2.8383
4.3953 -2.1373 2.8383
4.5881 -2.0015 2.8383
4.4434 -2.1041 2.8383
4.6365 -1.9663 2.8383
4.4915 -2.0704 2.8383
4.6851 -1.9305 2.8383
4.5397 -2.0363 2.8383
4.7193 -1.8884 2.8296
4.7242 -1.8347 2.8037
4.7432 -1.6236 2.7040
4.7291 -1.7814 2.7782
4.7587 -1.5754 2.6863
4.7338 -1.7285 2.7531
4.8049 -1.5370 2.6859
4.7386 -1.6758 2.7284
4.8518 -1.4983 2.6859
4.9072 -1.4615 2.6905
5.0879 -1.2959 2.6859
4.9459 -1.4191 2.6859
5.1354 -1.2536 2.6859
4.9931 -1.3786 2.6859
5.1830 -1.2106 2.6859
5.0404 -1.3375 2.6859
5.2308 -1.1670 2.6859
5.2787 -1.1228 2.6859
5.4711 -0.9393 2.6859
5.3266 -1.0780 2.6859
5.5195 -0.8918 2.6859
5.3747 -1.0324 2.6859
5.5680 -0.8435 2.6859
5.4229 -0.9862 2.6859
5.6166 -0.7945 2.6859
-0.1910 -3.2494 2.8383
-0.1517 -3.2505 2.8383
-0.1123 -3.2514 2.8383
-0.0729 -3.2519 2.8383
-0.0336 -3.2523 2.8383
0.0058 -3.2524 2.8383
0.0452 -3.2522 2.8383
0.0846 -3.2518 2.8383
0.1239 -3.2511 2.8383
0.1633 -3.2502 2.8383
0.2027 -3.2491 2.8383
0.2421 -3.2476 2.8383
0.2814 -3.2460 2.8383
0.3208 -3.2441 2.8383
0.3602 -3.2419 2.8383
0.3996 -3.2394 2.8383
0.4390 -3.2368 2.8383
0.4784 -3.2338 2.8383
0.5179 -3.2307 2.8383
0.5573 -3.2272 2.8383
0.5967 -3.2235 2.8383
0.6362 -3.2196 2.8383
0.6756 -3.2154 2.8383
0.7151 -3.2110 2.8383
0.7546 -3.2062 2.8383
0.7941 -3.2013 2.8383
0.8336 -3.1960 2.8383
0.8732 -3.1905 2.8383
0.9127 -3.1848 2.8383
0.9523 -3.1788 2.8383
0.9918 -3.1725 2.8383
1.0314 -3.1660 2.8383
1.0710 -3.1592 2.8383
1.1107 -3.1521 2.8383
1.1503 -3.1448 2.8383
1.1900 -3.1373 2.8383
1.2297 -3.1294 2.8383
1.2694 -3.1213 2.8383
1.3091 -3.1129 2.8383
1.3488 -3.1042 2.8383
1.3886 -3.0953 2.8383
1.4284 -3.0861 2.8383
1.4682 -3.0766 2.8383
1.5081 -3.0669 2.8383
1.5480 -3.0569 2.8383
1.5879 -3.0466 2.8383
1.6278 -3.0360 2.8383
1.6677 -3.0251 2.8383
1.7077 -3.0140 2.8383
1.7477 -3.0025 2.8383
1.7878 -2.9908 2.8383
1.8278 -2.9788 2.8383
1.8679 -2.9665 2.8383
1.9080 -2.9540 2.8383
1.9482 -2.9411 2.8383
1.9884 -2.9279 2.8383
2.0286 -2.9145 2.8383
2.0688 -2.9007 2.8383
2.1091 -2.8866 2.8383
2.1494 -2.8723 2.8383
2.1898 -2.8577 2.8383
2.2302 -2.8427 2.8383
2.2706 -2.8274 2.8383
2.3111 -2.8118 2.8383
2.3515 -2.7959 2.8383
2.3921 -2.7797 2.8383
2.4326 -2.7632 2.8383
2.4732 -2.7463 2.8383
2.5139 -2.7292 2.8383
2.5546 -2.7117 2.8383
2.5953 -2.6939 2.8383
2.6360 -2.6757 2.8383
2.6768 -2.6572 2.8383
2.7176 -2.6384 2.8383
2.7585 -2.6193 2.8383
2.7994 -2.5998 2.8383
2.8404 -2.5800 2.8383
2.8814 -2.5598 2.8383
2.9224 -2.5392 2.8383
2.9635 -2.5184 2.8383
3.0046 -2.4971 2.8383
3.0457 -2.4755 2.8383
3.0869 -2.4536 2.8383
3.1282 -2.4313 2.8383
3.1695 -2.4086 2.8383
3.2108 -2.3855 2.8383
3.2521 -2.3621 2.8383
3.2935 -2.3383 2.8383
3.3350 -2.3141 2.8383
3.3765 -2.2896 2.8383
3.4180 -2.2646 2.8383
3.4596 -2.2393 2.8383
3.5012 -2.2135 2.8383
3.5429 -2.1874 2.8383
3.5846 -2.1608 2.8383
3.6263 -2.1339 2.8383
3.6681 -2.1065 2.8383
3.7099 -2.0787 2.8383
3.8356 -1.9928 2.8383
3.7518 -2.0505 2.8383
3.8776 -1.9634 2.8383
3.7937 -2.0219 2.8383
3.9197 -1.9334 2.8383
4.0039 -1.8723 2.8383
3.9617 -1.9031 2.8383
4.0460 -1.8410 2.8383
4.1727 -1.7445 2.8383
4.0882 -1.8093 2.8383
4.2150 -1.7114 2.8383
4.1304 -1.7771 2.8383
4.2573 -1.6778 2.8383
4.3421 -1.6092 2.8383
4.2997 -1.6437 2.8383
4.3845 -1.5741 2.8383
4.5120 -1.4660 2.8383
4.4270 -1.5386 2.8383
4.5546 -1.4289 2.8383
4.4695 -1.5025 2.8383
4.5972 -1.3913 2.8383
4.6825 -1.3146 2.8383
4.6398 -1.3532 2.8383
4.7198 -1.2740 2.8351
4.7327 -1.1259 2.7678
4.7242 -1.2244 2.8123
4.7368 -1.0770 2.7460
4.7285 -1.1750 2.7899
4.7409 -1.0283 2.7246
4.7585 -0.9334 2.6881
4.7450 -0.9798 2.7035
4.7952 -0.8913 2.6859
4.8357 -0.8494 2.6859
4.8763 -0.8069 2.6859
4.9168 -0.7639 2.6859
4.9574 -0.7202 2.6859
4.9979 -0.6760 2.6859
5.0385 -0.6311 2.6859
-0.1775 -2.9592 2.8383
-0.1409 -2.9603 2.8383
-0.1043 -2.9611 2.8383
-0.0677 -2.9617 2.8383
-0.0312 -2.9620 2.8383
0.0054 -2.9621 2.8383
0.0420 -2.9619 2.8383
0.0785 -2.9615 2.8383
0.1151 -2.9609 2.8383
0.1517 -2.9600 2.8383
0.1883 -2.9589 2.8383
0.2249 -2.9575 2.8383
0.2614 -2.9559 2.8383
0.2980 -2.9540 2.8383
0.3346 -2.9519 2.8383
0.3712 -2.9495 2.8383
0.4078 -2.9469 2.8383
0.4444 -2.9441 2.8383
0.4810 -2.9410 2.8383
0.5176 -2.9377 2.8383
0.5542 -2.9341 2.8383
0.5908 -2.9303 2.8383
0.6274 -2.9262 2.8383
0.6641 -2.9218 2.8383
0.7007 -2.9173 2.8383
0.7373 -2.9125 2.8383
0.7740 -2.9074 2.8383
0.8106 -2.9021 2.8383
0.8473 -2.8965 2.8383
0.8839 -2.8906 2.8383
0.9206 -2.8846 2.8383
0.9573 -2.8783 2.8383
0.9940 -2.8717 2.8383
1.0307 -2.8648 2.8383
1.0674 -2.8577 2.8383
1.1041 -2.8504 2.8383
1.1408 -2.8428 2.8383
1.1776 -2.8349 2.8383
1.2143 -2.8268 2.8383
1.2511 -2.8184 2.8383
1.2878 -2.8098 2.8383
1.3246 -2.8009 2.8383
1.3614 -2.7917 2.8383
1.3982 -2.7823 2.8383
1.4350 -2.7726 2.8383
1.4718 -2.7626 2.8383
1.5086 -2.7524 2.8383
1.5455 -2.7419 2.8383
1.5823 -2.7311 2.8383
1.6192 -2.7201 2.8383
1.6560 -2.7088 2.8383
1.6929 -2.6972 2.8383
1.7298 -2.6853 2.8383
1.7667 -2.6732 2.8383
1.8037 -2.6608 2.8383
1.8406 -2.6481 2.8383
1.8775 -2.6351 2.8383
1.9145 -2.6218 2.8383
1.9515 -2.6083 2.8383
1.9885 -2.5944 2.8383
2.0255 -2.5803 2.8383
2.0625 -2.5659 2.8383
2.0995 -2.5512 2.8383
2.1365 -2.5362 2.8383
2.1736 -2.5209 2.8383
2.2107 -2.5053 2.8383
2.2477 -2.4895 2.8383
2.2848 -2.4733 2.8383
2.3219 -2.4568 2.8383
2.3590 -2.4400 2.8383
2.3962 -2.4229 2.8383
2.4333 -2.4055 2.8383
2.4704 -2.3878 2.8383
2.5076 -2.3697 2.8383
2.5448 -2.3514 2.8383
2.5820 -2.3327 2.8383
2.6191 -2.3137 2.8383
2.6564 -2.2944 2.8383
2.6936 -2.2748 2.8383
2.7308 -2.2549 2.8383
2.7680 -2.2346 2.8383
2.8053 -2.2139 2.8383
2.8425 -2.1930 2.8383
2.8798 -2.1717 2.8383
2.9171 -2.1501 2.8383
2.9543 -2.1281 2.8383
2.9916 -2.1058 2.8383
3.0289 -2.0831 2.8383
3.0662 -2.0601 2.8383
3.1035 -2.0368 2.8383
3.1408 -2.0130 2.8383
3.1781 -1.9889 2.8383
3.2155 -1.9645 2.8383
3.2528 -1.9397 2.8383
3.2901 -1.9145 2.8383
3.3274 -1.8890 2.8383
3.3648 -1.8630 2.8383
3.4021 -1.8367 2.8383
3.4394 -1.8100 2.8383
3.4767 -1.7830 2.8383
3.5141 -1.7555 2.8383
3.5514 -1.7277 2.8383
3.6633 -1.6418 2.8383
3.5887 -1.6994 2.8383
3.7006 -1.6123 2.8383
3.8124 -1.5215 2.8383
3.6260 -1.6708 2.8383
3.7379 -1.5825 2.8383
3.9613 -1.3946 2.8383
3.8497 -1.4904 2.8383
4.1099 -1.2606 2.8383
3.7752 -1.5522 2.8383
3.9985 -1.3618 2.8383
3.8869 -1.4589 2.8383
4.1470 -1.2261 2.8383
4.2581 -1.1195 2.8383
4.0357 -1.3285 2.8383
3.9241 -1.4270 2.8383
4.1841 -1.1910 2.8383
4.2951 -1.0831 2.8383
4.0728 -1.2948 2.8383
4.2211 -1.1555 2.8383
4.4058 -0.9709 2.8383
4.3320 -1.0462 2.8383
4.5528 -0.8144 2.8383
4.4426 -0.9325 2.8383
4.6989 -0.6499 2.8383
4.3689 -1.0088 2.8383
4.5894 -0.7741 2.8383
4.4794 -0.8936 2.8383
4.7224 -0.6058 2.8306
4.6259 -0.7332 2.8383
4.5161 -0.8543 2.8383
4.7261 -0.5591 2.8112
4.6625 -0.6918 2.8383
4.7297 -0.5125 2.7922
-0.1652 -2.6960 2.8383
-0.1311 -2.6970 2.8383
-0.0971 -2.6978 2.8383
-0.0631 -2.6983 2.8383
-0.0290 -2.6986 2.8383
0.1071 -2.6976 2.8383
0.0050 -2.6987 2.8383
0.1412 -2.6967 2.8383
0.0391 -2.6986 2.8383
0.1752 -2.6956 2.8383
0.0731 -2.6982 2.8383
0.2433 -2.6927 2.8383
0.2093 -2.6943 2.8383
0.3795 -2.6841 2.8383
0.2773 -2.6909 2.8383
0.6518 -2.6554 2.8383
0.4135 -2.6813 2.8383
0.5156 -2.6716 2.8383
0.3114 -2.6888 2.8383
0.6859 -2.6507 2.8383
0.4476 -2.6783 2.8383
0.5497 -2.6679 2.8383
0.3454 -2.6866 2.8383
0.7199 -2.6458 2.8383
0.4816 -2.6751 2.8383
0.7880 -2.6353 2.8383
0.5837 -2.6640 2.8383
0.7540 -2.6407 2.8383
0.9242 -2.6113 2.8383
1.0604 -2.5834 2.8383
0.6178 -2.6598 2.8383
0.8221 -2.6297 2.8383
1.1967 -2.5516 2.8383
0.9583 -2.6047 2.8383
1.0945 -2.5758 2.8383
1.3329 -2.5157 2.8383
0.8561 -2.6238 2.8383
1.2307 -2.5430 2.8383
0.9923 -2.5979 2.8383
1.1285 -2.5680 2.8383
1.2648 -2.5341 2.8383
1.3669 -2.5061 2.8383
1.0264 -2.5908 2.8383
1.1626 -2.5599 2.8383
0.8902 -2.6177 2.8383
1.2988 -2.5251 2.8383
1.4010 -2.4963 2.8383
1.4691 -2.4758 2.8383
1.6053 -2.4317 2.8383
1.7415 -2.3834 2.8383
1.8776 -2.3308 2.8383
1.4350 -2.4861 2.8383
1.5032 -2.4651 2.8383
1.6394 -2.4200 2.8383
1.7755 -2.3707 2.8383
1.9116 -2.3170 2.8383
2.0137 -2.2738 2.8383
1.5372 -2.4543 2.8383
1.6734 -2.4081 2.8383
1.8095 -2.3577 2.8383
1.9457 -2.3029 2.8383
2.0477 -2.2589 2.8383
1.5713 -2.4431 2.8383
1.7074 -2.3959 2.8383
1.8436 -2.3444 2.8383
1.9797 -2.2885 2.8383
2.0817 -2.2437 2.8383
2.1497 -2.2124 2.8383
2.2855 -2.1464 2.8383
2.4213 -2.0756 2.8383
2.5568 -2.0001 2.8383
2.1157 -2.2282 2.8383
2.1836 -2.1963 2.8383
2.5906 -1.9805 2.8383
2.3195 -2.1291 2.8383
2.4552 -2.0572 2.8383
2.6921 -1.9197 2.8383
2.2176 -2.1799 2.8383
2.6245 -1.9605 2.8383
2.3534 -2.1116 2.8383
2.4891 -2.0385 2.8383
2.7259 -1.8988 2.8383
2.2516 -2.1633 2.8383
2.3873 -2.0937 2.8383
2.6583 -1.9403 2.8383
2.5229 -2.0195 2.8383
2.7597 -1.8776 2.8383
2.8271 -1.8341 2.8383
2.9618 -1.7435 2.8383
3.0961 -1.6474 2.8383
3.2299 -1.5458 2.8383
2.7934 -1.8560 2.8383
2.8608 -1.8120 2.8383
3.1296 -1.6225 2.8383
2.9954 -1.7199 2.8383
3.2633 -1.5196 2.8383
3.3631 -1.4386 2.8383
3.1631 -1.5973 2.8383
2.8945 -1.7895 2.8383
3.0290 -1.6961 2.8383
3.2966 -1.4929 2.8383
3.3964 -1.4109 2.8383
3.1965 -1.5718 2.8383
3.0626 -1.6719 2.8383
2.9282 -1.7666 2.8383
3.3299 -1.4659 2.8383
3.4295 -1.3828 2.8383
3.4957 -1.3256 2.8383
3.6275 -1.2065 2.8383
3.7585 -1.0812 2.8383
3.4626 -1.3544 2.8383
3.8883 -0.9495 2.8383
3.5287 -1.2964 2.8383
3.6603 -1.1757 2.8383
3.7910 -1.0489 2.8383
4.0171 -0.8113 2.8383
3.9207 -0.9156 2.8383
3.5617 -1.2668 2.8383
3.6931 -1.1446 2.8383
3.8235 -1.0162 2.8383
4.0491 -0.7757 2.8383
3.9529 -0.8813 2.8383
3.5947 -1.2368 2.8383
3.7258 -1.1131 2.8383
3.8560 -0.9831 2.8383
4.0810 -0.7396 2.8383
3.9850 -0.8465 2.8383
4.1445 -0.6663 2.8383
4.1128 -0.7032 2.8383
4.1761 -0.6289 2.8383
4.2076 -0.5911 2.8383
4.2390 -0.5529 2.8383
4.2704 -0.5142 2.8383
4.3016 -0.4751 2.8383
4.3327 -0.4355 2.8383
4.3637 -0.3955 2.8383
