ply
format ascii 1.0
element vertex 2095
property float32 x
property float32 y
property float32 z
end_header
-21.7072 -19.3559 0.4466
-21.7031 -18.2492 0.2521
-21.7086 -19.7379 0.5127
-21.7044 -18.6117 0.3163
-21.7058 -18.9805 0.3811
-21.7101 -20.1270 0.5794
-21.6160 -20.8337 0.7120
-21.6582 -20.4729 0.6453
-21.7016 -21.3264 0.7838
-21.7064 -22.6116 0.9960
-21.7032 -21.7461 0.8536
-21.7081 -23.0579 1.0685
-21.7048 -22.1744 0.9243
-21.7098 -23.5139 1.1421
-21.7134 -24.4564 1.2924
-21.7116 -23.9799 1.2167
-21.7152 -24.9437 1.3692
-21.7171 -25.4425 1.4473
-21.7330 -26.4907 1.6081
-21.6469 -25.8669 1.5215
-21.7351 -27.0269 1.6901
-21.7414 -28.7194 1.9453
-21.7371 -27.5767 1.7737
-21.7437 -29.3138 2.0336
-21.7392 -28.1406 1.8587
-21.7460 -29.9245 2.1237
-21.7483 -30.5523 2.2157
-21.6623 -31.0712 2.3002
-21.5922 -33.7163 2.6861
-21.7491 -31.8566 2.4051
-20.7854 -33.1692 2.6861
-21.7516 -32.5410 2.5033
-20.0185 -32.6539 2.6861
-22.4445 -34.3012 2.6863
-19.7632 -32.9600 2.7522
-19.6464 -33.5081 2.8385
-17.0081 -31.8162 2.8385
-18.9434 -33.0499 2.8385
-16.4142 -31.4469 2.8385
-18.2707 -32.6162 2.8385
-15.8431 -31.0963 2.8385
-17.6263 -32.2056 2.8385
-15.2930 -30.7632 2.8385
-14.7628 -30.4466 2.8385
-12.8144 -29.3262 2.8385
-14.2509 -30.1454 2.8385
-12.3652 -29.0787 2.8385
-13.7562 -29.8588 2.8385
-11.9294 -28.8428 2.8385
-13.2778 -29.5860 2.8385
-11.5061 -28.6180 2.8385
-11.0945 -28.4036 2.8385
-9.0397 -26.1575 2.6861
-10.6940 -28.1993 2.8385
-8.6968 -25.9978 2.6861
-8.3617 -25.8456 2.6861
-7.4756 -20.3176 2.0594
-8.0339 -25.7006 2.6861
-7.2187 -20.2362 2.0648
-7.7130 -25.5625 2.6861
-6.4907 -25.0743 2.6861
-7.3986 -25.4311 2.6861
-7.0903 -25.3061 2.6861
-6.1988 -24.9671 2.6861
-6.7878 -25.1872 2.6861
-5.9116 -24.8655 2.6861
-5.6542 -26.0785 2.8385
-5.7980 -25.5129 2.7667
-5.3641 -25.9868 2.8384
-4.5125 -25.7187 2.8355
-5.0764 -25.8921 2.8374
-4.7921 -25.8002 2.8361
-4.2362 -25.6422 2.8348
-3.4252 -25.4408 2.8329
-3.9630 -25.5704 2.8342
-3.1602 -25.3828 2.8323
-3.6928 -25.5033 2.8335
-2.8974 -25.3293 2.8317
-2.3779 -25.2350 2.8304
-2.6367 -25.2800 2.8311
-2.1208 -25.1942 2.8298
-1.3579 -25.0965 2.8280
-1.8652 -25.1576 2.8292
-1.1058 -25.0719 2.8274
-1.6109 -25.1250 2.8286
-0.8546 -25.0514 2.8268
-0.3540 -25.0221 2.8257
-0.6041 -25.0348 2.8263
-0.1043 -25.0133 2.8251
0.6445 -25.0103 2.8233
0.1452 -25.0084 2.8245
0.8945 -25.0171 2.8227
0.3948 -25.0074 2.8239
1.1450 -25.0278 2.8221
1.6480 -25.0609 2.8209
1.3961 -25.0423 2.8215
1.9009 -25.0834 2.8203
2.6674 -25.1751 2.8185
2.1550 -25.1099 2.8197
2.9260 -25.2139 2.8179
3.1865 -25.2569 2.8173
2.4105 -25.1405 2.8191
3.4490 -25.3041 2.8167
3.7138 -25.3557 2.8161
4.7996 -25.6071 2.8135
3.9811 -25.4117 2.8154
5.0788 -25.6817 2.8128
4.2509 -25.4722 2.8148
5.3615 -25.7613 2.8122
4.5237 -25.5373 2.8142
5.6481 -25.8458 2.8115
5.9387 -25.9356 2.8108
7.0912 -26.1430 2.7859
8.2415 -26.2146 2.7373
6.2336 -26.0306 2.8101
7.3739 -26.1539 2.7739
8.5360 -26.2383 2.7243
6.5241 -26.0950 2.8055
7.6620 -26.1773 2.7626
8.8326 -26.2613 2.7106
6.8076 -26.1225 2.7963
7.9515 -26.1983 2.7505
9.1237 -26.2618 2.6940
9.4155 -26.2591 2.6765
9.7105 -26.2597 2.6587
10.0076 -26.2605 2.6403
10.3070 -26.2614 2.6212
10.6086 -26.2623 2.6016
10.9124 -26.2631 2.5812
11.2186 -26.2637 2.5602
-21.6995 -17.5174 1.4538
-21.7008 -17.8708 1.5277
-21.7021 -18.2301 1.6026
-21.7035 -18.5956 1.6783
-21.6561 -20.4729 2.0669
-21.7049 -18.9676 1.7550
-21.6151 -20.8387 2.1446
-21.7063 -19.3462 1.8327
-21.7007 -21.3356 2.2362
-21.7077 -19.7316 1.9114
-21.7023 -21.7597 2.3207
-21.7039 -22.1926 2.4066
-21.7092 -20.1243 1.9912
-21.7056 -22.6345 2.4938
-21.0942 -23.3368 2.6861
-21.7073 -23.0860 2.5825
-20.4059 -23.0268 2.6861
-21.8170 -23.6645 2.6861
-19.7602 -22.7454 2.6875
-19.5752 -23.4500 2.8385
-19.7344 -23.1729 2.7719
-18.9691 -23.1851 2.8385
-17.2948 -22.4646 2.8385
-18.3881 -22.9330 2.8385
-16.7795 -22.2468 2.8385
-17.8305 -22.6931 2.8385
-16.2832 -22.0389 2.8385
-15.3434 -21.6508 2.8385
-15.8049 -21.8404 2.8385
-14.8976 -21.4695 2.8385
-13.6458 -20.9712 2.8385
-14.4666 -21.2960 2.8385
-13.2543 -20.8188 2.8385
-14.0496 -21.1301 2.8385
-7.1799 -11.5289 1.5830
-12.5059 -20.5330 2.8385
-12.1476 -20.3987 2.8385
-10.8085 -19.9135 2.8385
-11.7993 -20.2698 2.8385
-10.4947 -19.8039 2.8385
-11.4602 -20.1463 2.8385
-10.1885 -19.6987 2.8385
-11.1302 -20.0275 2.8385
-9.8896 -19.5976 2.8385
-8.0347 -18.1202 2.6861
-9.0821 -18.4535 2.6861
-7.7860 -18.0448 2.6861
-8.8118 -18.3651 2.6861
-7.5422 -17.9723 2.6861
-7.3029 -17.9028 2.6861
-8.5473 -18.2802 2.6861
-7.0679 -17.8359 2.6861
-8.2883 -18.1986 2.6861
-6.8371 -17.7717 2.6861
-6.6102 -17.7101 2.6861
-6.1674 -17.5942 2.6861
-6.3870 -17.6509 2.6861
-5.9512 -17.5397 2.6861
-5.6224 -18.3742 2.8381
-5.7874 -17.6377 2.7091
-5.4057 -18.3226 2.8376
-5.7729 -18.2094 2.8050
-5.1918 -18.2731 2.8371
-4.7720 -18.1805 2.8361
-4.9806 -18.2257 2.8366
-3.9610 -18.0193 2.8342
-4.5659 -18.1373 2.8356
-3.7635 -17.9837 2.8338
-4.3621 -18.0960 2.8352
-3.5678 -17.9499 2.8333
-3.3739 -17.9179 2.8328
-4.1605 -18.0567 2.8347
-3.1816 -17.8877 2.8324
-2.4270 -17.7835 2.8306
-2.9909 -17.8591 2.8319
-2.8016 -17.8322 2.8315
-2.2415 -17.7615 2.8302
-2.6137 -17.8070 2.8310
-2.0570 -17.7411 2.8297
-1.6910 -17.7050 2.8289
-1.5092 -17.6892 2.8284
-1.8736 -17.7222 2.8293
-1.3282 -17.6749 2.8280
-0.9680 -17.6510 2.8272
-1.1478 -17.6622 2.8276
-0.2527 -17.6205 2.8255
-0.7886 -17.6412 2.8267
-0.0744 -17.6165 2.8250
-0.6097 -17.6328 2.8263
0.1037 -17.6140 2.8246
0.2818 -17.6129 2.8242
-0.4311 -17.6259 2.8259
0.4600 -17.6133 2.8238
1.1751 -17.6291 2.8220
0.6384 -17.6150 2.8233
1.3548 -17.6368 2.8216
0.8169 -17.6183 2.8229
0.9958 -17.6230 2.8225
1.5351 -17.6459 2.8212
1.8975 -17.6685 2.8203
1.7160 -17.6564 2.8207
2.0799 -17.6821 2.8199
2.2632 -17.6972 2.8194
2.6327 -17.7320 2.8186
2.4475 -17.7139 2.8190
2.8192 -17.7518 2.8181
3.3862 -17.8208 2.8168
3.0068 -17.7732 2.8177
3.5781 -17.8471 2.8163
3.7717 -17.8751 2.8158
3.1958 -17.7962 2.8172
3.9670 -17.9049 2.8154
4.9731 -18.0807 2.8130
4.1641 -17.9364 2.8149
5.1811 -18.1216 2.8125
4.3631 -17.9697 2.8144
5.3917 -18.1645 2.8120
4.5642 -18.0048 2.8139
5.6049 -18.2095 2.8114
4.7675 -18.0418 2.8134
5.8210 -18.2566 2.8109
6.0401 -18.3058 2.8104
6.6980 -18.4154 2.8009
6.2623 -18.3573 2.8099
6.9091 -18.4183 2.7919
6.4853 -18.4039 2.8082
7.1240 -18.4268 2.7835
7.3393 -18.4320 2.7742
7.5571 -18.4390 2.7648
7.7762 -18.4448 2.7549
7.9992 -18.4554 2.7454
-21.5554 -17.0346 2.6861
-20.9060 -16.8579 2.6861
-20.2865 -16.6903 2.6861
-19.7396 -16.5689 2.6922
-19.7188 -16.8853 2.7690
-19.6404 -17.1566 2.8385
-19.0909 -17.0114 2.8385
-18.5634 -16.8730 2.8385
-18.0565 -16.7408 2.8385
-17.5689 -16.6146 2.8385
-17.0992 -16.4938 2.8385
-16.6466 -16.3783 2.8385
-16.2100 -16.2677 2.8385
-15.7884 -16.1618 2.8385
-15.3809 -16.0601 2.8385
-14.9868 -15.9627 2.8385
-14.6052 -15.8691 2.8385
-14.2356 -15.7793 2.8385
-13.8772 -15.6929 2.8385
-13.5295 -15.6099 2.8385
-13.1918 -15.5301 2.8385
-12.8638 -15.4532 2.8385
-12.5448 -15.3793 2.8385
-12.2345 -15.3080 2.8385
-11.9323 -15.2394 2.8385
-11.6380 -15.1733 2.8385
-11.3510 -15.1095 2.8385
-11.0712 -15.0481 2.8385
-10.7980 -14.9888 2.8385
-10.5313 -14.9316 2.8385
-10.2707 -14.8763 2.8385
-10.0159 -14.8231 2.8385
-9.7668 -14.7716 2.8385
-9.0116 -13.9315 2.6861
-8.7856 -13.8861 2.6861
-7.1420 -11.5434 2.2400
-8.3473 -13.7999 2.6861
-8.1346 -13.7590 2.6861
-7.9258 -13.7195 2.6861
-7.7210 -13.6813 2.6861
-7.5198 -13.6445 2.6861
-7.3221 -13.6088 2.6861
-7.1278 -13.5744 2.6861
-6.9368 -13.5411 2.6861
-6.7489 -13.5090 2.6861
-6.5639 -13.4781 2.6861
-6.3818 -13.4480 2.6861
-6.2025 -13.4191 2.6861
-6.0257 -13.3912 2.6861
-5.8515 -13.3643 2.6861
-5.7734 -13.5585 2.7304
-5.7613 -13.9201 2.8085
-5.6454 -14.0417 2.8382
-5.4700 -14.0150 2.8378
-5.2969 -13.9893 2.8374
-5.1258 -13.9644 2.8370
-4.9568 -13.9405 2.8366
-4.7896 -13.9174 2.8362
-4.6244 -13.8952 2.8358
-4.4609 -13.8738 2.8354
-4.2991 -13.8531 2.8350
-4.1389 -13.8333 2.8347
-3.9802 -13.8143 2.8343
-3.8230 -13.7960 2.8339
-3.6672 -13.7784 2.8336
-3.5128 -13.7616 2.8332
-3.3596 -13.7455 2.8328
-3.2076 -13.7300 2.8325
-3.0567 -13.7153 2.8321
-2.9070 -13.7012 2.8317
-2.7582 -13.6878 2.8314
-2.6105 -13.6750 2.8310
-2.4636 -13.6629 2.8307
-2.3177 -13.6514 2.8303
-2.1725 -13.6406 2.8300
-0.8781 -5.9014 1.2251
-0.8159 -5.8980 1.2251
-0.7541 -5.8948 1.2251
-0.6925 -5.8918 1.2251
-0.6311 -5.8892 1.2251
-0.5699 -5.8867 1.2251
-0.5089 -5.8846 1.2251
-0.3268 -5.8795 1.2251
-0.4481 -5.8826 1.2251
-0.2664 -5.8783 1.2251
-0.3874 -5.8810 1.2251
-0.2060 -5.8774 1.2251
-0.0854 -5.8762 1.2251
-0.1457 -5.8767 1.2251
-0.0252 -5.8760 1.2251
0.1556 -5.8768 1.2251
0.0351 -5.8760 1.2251
0.2159 -5.8775 1.2251
0.0953 -5.8763 1.2251
0.2763 -5.8785 1.2251
0.3973 -5.8812 1.2251
0.3368 -5.8798 1.2251
0.4581 -5.8830 1.2251
0.6412 -5.8896 1.2251
0.5189 -5.8849 1.2251
0.7026 -5.8923 1.2251
0.5799 -5.8871 1.2251
0.7642 -5.8953 1.2251
0.8883 -5.9020 1.2251
0.8261 -5.8985 1.2251
2.6230 -13.6162 2.8185
2.1881 -13.5917 2.8195
2.7695 -13.6256 2.8181
2.3323 -13.5993 2.8192
2.9170 -13.6357 2.8178
2.4773 -13.6075 2.8188
3.0654 -13.6463 2.8174
3.2148 -13.6576 2.8171
3.8238 -13.7095 2.8156
3.3653 -13.6696 2.8167
3.9792 -13.7242 2.8152
3.5169 -13.6822 2.8164
4.1359 -13.7396 2.8149
3.6698 -13.6955 2.8160
4.2941 -13.7557 2.8145
4.4538 -13.7726 2.8141
4.6151 -13.7902 2.8137
4.7780 -13.8086 2.8133
4.9427 -13.8278 2.8129
5.1092 -13.8478 2.8125
5.2776 -13.8686 2.8121
5.4480 -13.8902 2.8117
5.6205 -13.9127 2.8113
5.7951 -13.9361 2.8109
5.9720 -13.9604 2.8105
6.1513 -13.9856 2.8101
-15.6138 -12.0756 2.8385
-15.2502 -12.0378 2.8385
-14.8980 -12.0015 2.8385
-14.5564 -11.9665 2.8385
-14.2250 -11.9328 2.8385
-13.9033 -11.9003 2.8385
-13.5908 -11.8690 2.8385
-13.2869 -11.8388 2.8385
-12.9913 -11.8097 2.8385
-12.7036 -11.7816 2.8385
-12.4234 -11.7545 2.8385
-12.1504 -11.7283 2.8385
-11.8842 -11.7030 2.8385
-11.6245 -11.6785 2.8385
-11.3711 -11.6548 2.8385
-11.1236 -11.6320 2.8385
-10.8818 -11.6098 2.8385
-10.6454 -11.5884 2.8385
-10.4141 -11.5677 2.8385
-10.1879 -11.5476 2.8385
-9.9665 -11.5282 2.8385
-9.7496 -11.5094 2.8385
-9.0251 -10.8741 2.6861
-8.8280 -10.8574 2.6861
-8.6347 -10.8412 2.6861
-8.4450 -10.8255 2.6861
-8.2589 -10.8103 2.6861
-8.0762 -10.7956 2.6861
-7.8967 -10.7813 2.6861
-7.7203 -10.7674 2.6861
-7.5469 -10.7540 2.6861
-7.3764 -10.7409 2.6861
-7.2087 -10.7283 2.6861
-7.0437 -10.7160 2.6861
-6.8812 -10.7042 2.6861
-6.7211 -10.6926 2.6861
-6.5635 -10.6815 2.6861
-6.4081 -10.6706 2.6861
-6.2549 -10.6601 2.6861
-6.1039 -10.6499 2.6861
-5.9549 -10.6400 2.6861
-5.8078 -10.6304 2.6861
-5.7656 -10.8142 2.7349
-5.7552 -11.0657 2.8009
-5.6826 -11.2045 2.8383
-5.5341 -11.1941 2.8380
-5.3873 -11.1841 2.8376
-5.2423 -11.1744 2.8373
-5.0989 -11.1650 2.8369
-4.9570 -11.1558 2.8366
-4.8167 -11.1469 2.8363
-4.6778 -11.1383 2.8359
-4.5404 -11.1299 2.8356
-4.4042 -11.1218 2.8353
-4.2694 -11.1140 2.8349
-4.1358 -11.1064 2.8346
-4.0034 -11.0990 2.8343
-3.8722 -11.0918 2.8340
-3.7421 -11.0849 2.8337
-3.6130 -11.0782 2.8334
-3.4849 -11.0718 2.8331
-3.3578 -11.0655 2.8328
-3.2317 -11.0595 2.8325
-3.1064 -11.0537 2.8322
-2.9820 -11.0480 2.8319
-2.8584 -11.0426 2.8316
-2.7355 -11.0374 2.8313
-2.6134 -11.0324 2.8310
-2.4920 -11.0275 2.8307
-2.3713 -11.0229 2.8304
-2.2512 -11.0184 2.8301
-0.9231 -4.7692 1.2253
-0.8716 -4.7679 1.2253
-0.8205 -4.7667 1.2253
-0.7695 -4.7656 1.2253
-0.7187 -4.7645 1.2253
-0.6681 -4.7635 1.2253
-0.6176 -4.7626 1.2253
-0.5673 -4.7618 1.2253
-0.5172 -4.7610 1.2253
-0.4672 -4.7603 1.2253
-0.4173 -4.7597 1.2253
-0.3675 -4.7591 1.2253
-0.3177 -4.7586 1.2253
-0.2681 -4.7582 1.2253
-0.2185 -4.7579 1.2253
-0.1690 -4.7576 1.2253
-0.1195 -4.7574 1.2253
-0.0701 -4.7573 1.2253
-0.0207 -4.7572 1.2253
0.0288 -4.7572 1.2253
0.0782 -4.7573 1.2253
0.1277 -4.7574 1.2253
0.1771 -4.7577 1.2253
0.2267 -4.7579 1.2253
0.2763 -4.7583 1.2253
0.3259 -4.7587 1.2253
0.3756 -4.7592 1.2253
0.4254 -4.7598 1.2253
0.4754 -4.7604 1.2253
0.5254 -4.7611 1.2253
0.5756 -4.7619 1.2253
0.6259 -4.7628 1.2253
0.6764 -4.7637 1.2253
0.7270 -4.7647 1.2253
0.7778 -4.7658 1.2253
0.8289 -4.7669 1.2253
0.8801 -4.7681 1.2253
2.1435 -10.9748 2.8196
2.2622 -10.9769 2.8193
2.3815 -10.9791 2.8190
2.5013 -10.9816 2.8187
2.6217 -10.9841 2.8184
2.7428 -10.9869 2.8182
2.8646 -10.9898 2.8179
2.9871 -10.9930 2.8176
3.1104 -10.9963 2.8173
3.2345 -10.9998 2.8170
3.3594 -11.0035 2.8167
3.4852 -11.0074 2.8164
3.6118 -11.0115 2.8161
3.7395 -11.0157 2.8158
3.8681 -11.0202 2.8155
3.9978 -11.0249 2.8151
4.1286 -11.0298 2.8148
4.2605 -11.0350 2.8145
4.3935 -11.0403 2.8142
4.5278 -11.0458 2.8139
4.6634 -11.0516 2.8136
4.8002 -11.0576 2.8132
4.9385 -11.0639 2.8129
-11.8871 -8.9934 2.8385
-11.6530 -9.0007 2.8385
-11.4243 -9.0078 2.8385
-11.2008 -9.0147 2.8385
-10.9821 -9.0214 2.8385
-10.7681 -9.0278 2.8385
-10.5587 -9.0341 2.8385
-10.3535 -9.0402 2.8385
-10.1526 -9.0461 2.8385
-9.9557 -9.0519 2.8385
-9.7625 -9.0574 2.8385
-9.0591 -8.5763 2.6861
-8.8833 -8.5812 2.6861
-8.7106 -8.5860 2.6861
-8.5411 -8.5907 2.6861
-8.3746 -8.5953 2.6861
-8.2110 -8.5997 2.6861
-8.0501 -8.6040 2.6861
-7.8920 -8.6082 2.6861
-7.7364 -8.6123 2.6861
-7.5833 -8.6162 2.6861
-7.4326 -8.6201 2.6861
-7.2843 -8.6238 2.6861
-7.1382 -8.6274 2.6861
-6.9942 -8.6310 2.6861
-6.8524 -8.6344 2.6861
-6.7125 -8.6377 2.6861
-6.5746 -8.6410 2.6861
-6.4386 -8.6442 2.6861
-6.3044 -8.6473 2.6861
-6.1719 -8.6502 2.6861
-6.0412 -8.6531 2.6861
-5.9121 -8.6560 2.6861
-5.7845 -8.6587 2.6861
-5.7605 -8.8175 2.7345
-5.7515 -9.0045 2.7916
-5.7179 -9.1582 2.8385
-5.5893 -9.1608 2.8385
-5.4621 -9.1634 2.8385
-5.3362 -9.1658 2.8385
-5.2117 -9.1682 2.8385
-5.0884 -9.1705 2.8385
-4.9664 -9.1728 2.8385
-4.8456 -9.1749 2.8385
-4.7259 -9.1771 2.8385
-4.6073 -9.1791 2.8385
-4.4898 -9.1811 2.8385
-4.3734 -9.1831 2.8385
-4.2579 -9.1849 2.8385
-4.1434 -9.1867 2.8385
-4.0298 -9.1885 2.8385
-3.9172 -9.1902 2.8385
-3.8053 -9.1919 2.8385
-3.6944 -9.1935 2.8385
-3.5842 -9.1950 2.8385
-3.4748 -9.1965 2.8385
-3.3662 -9.1980 2.8385
-3.2583 -9.1993 2.8385
-3.1510 -9.2007 2.8385
-3.0445 -9.2020 2.8385
-2.9385 -9.2032 2.8385
-2.8332 -9.2044 2.8385
-2.7285 -9.2056 2.8385
-2.6243 -9.2067 2.8385
-2.5207 -9.2077 2.8385
-2.4176 -9.2087 2.8385
-2.3149 -9.2097 2.8385
-2.2128 -9.2106 2.8385
-0.9114 -3.9769 1.2255
-0.8677 -3.9773 1.2255
-0.8241 -3.9776 1.2255
-0.7807 -3.9780 1.2255
-0.7375 -3.9783 1.2255
-0.6944 -3.9786 1.2255
-0.6514 -3.9789 1.2255
-0.6086 -3.9791 1.2255
-0.5659 -3.9793 1.2255
-0.5233 -3.9796 1.2255
-0.4808 -3.9798 1.2255
-0.4383 -3.9799 1.2255
-0.3960 -3.9801 1.2255
-0.3538 -3.9803 1.2255
-0.3116 -3.9804 1.2255
-0.2695 -3.9805 1.2255
-0.2274 -3.9806 1.2255
-0.1854 -3.9807 1.2255
-0.1434 -3.9808 1.2255
-0.1014 -3.9808 1.2255
-0.0595 -3.9808 1.2255
-0.0175 -3.9808 1.2255
0.0244 -3.9808 1.2255
0.0663 -3.9808 1.2255
0.1083 -3.9808 1.2255
0.1503 -3.9807 1.2255
0.1923 -3.9807 1.2255
0.2343 -3.9806 1.2255
0.2764 -3.9805 1.2255
0.3185 -3.9804 1.2255
0.3607 -3.9802 1.2255
0.4030 -3.9801 1.2255
0.4453 -3.9799 1.2255
0.4877 -3.9797 1.2255
0.5302 -3.9795 1.2255
0.5729 -3.9793 1.2255
0.6156 -3.9791 1.2255
0.6585 -3.9788 1.2255
0.7014 -3.9785 1.2255
0.7446 -3.9783 1.2255
0.7878 -3.9779 1.2255
0.8313 -3.9776 1.2255
0.8749 -3.9773 1.2255
0.9186 -3.9769 1.2255
2.2295 -9.2105 2.8385
2.3318 -9.2096 2.8385
2.4345 -9.2086 2.8385
2.5377 -9.2075 2.8385
2.6414 -9.2065 2.8385
2.7456 -9.2053 2.8385
2.8504 -9.2040 2.8384
2.9557 -9.2026 2.8383
3.0617 -9.2011 2.8383
3.1683 -9.1996 2.8382
3.2756 -9.1981 2.8382
3.3835 -9.1965 2.8381
3.4922 -9.1948 2.8380
3.6016 -9.1931 2.8380
3.7118 -9.1914 2.8379
3.8228 -9.1896 2.8379
3.9347 -9.1877 2.8378
4.0473 -9.1858 2.8377
4.1608 -9.1835 2.8376
-9.0794 -6.7163 2.6861
-8.9208 -6.7389 2.6861
-8.7650 -6.7610 2.6861
-8.6119 -6.7825 2.6861
-8.4614 -6.8034 2.6861
-8.3133 -6.8237 2.6861
-8.1676 -6.8436 2.6861
-8.0242 -6.8629 2.6861
-7.8831 -6.8817 2.6861
-7.7441 -6.9000 2.6861
-7.6073 -6.9178 2.6861
-7.4724 -6.9352 2.6861
-7.3395 -6.9522 2.6861
-7.2085 -6.9687 2.6861
-7.0794 -6.9848 2.6861
-6.9520 -7.0005 2.6861
-6.8263 -7.0158 2.6861
-6.7023 -7.0307 2.6861
-6.5799 -7.0452 2.6861
-6.4590 -7.0594 2.6861
-6.3397 -7.0732 2.6861
-6.2218 -7.0867 2.6861
-6.1054 -7.0998 2.6861
-5.9903 -7.1126 2.6861
-5.8766 -7.1251 2.6861
-5.7641 -7.1372 2.6861
-5.7565 -7.2801 2.7353
-5.7484 -7.4262 2.7857
-5.7402 -7.5759 2.8374
-5.6287 -7.5904 2.8385
-5.5160 -7.6017 2.8385
-5.4046 -7.6128 2.8385
-5.2942 -7.6235 2.8385
-5.1849 -7.6340 2.8385
-5.0766 -7.6441 2.8385
-4.9693 -7.6541 2.8385
-4.8630 -7.6637 2.8385
-4.7577 -7.6731 2.8385
-4.6532 -7.6823 2.8385
-4.5496 -7.6912 2.8385
-4.4469 -7.6999 2.8385
-4.3450 -7.7083 2.8385
-4.2440 -7.7166 2.8385
-4.1437 -7.7245 2.8385
-4.0441 -7.7323 2.8385
-3.9453 -7.7399 2.8385
-3.8472 -7.7472 2.8385
-3.7498 -7.7543 2.8385
-3.6531 -7.7612 2.8385
-3.5569 -7.7679 2.8385
-3.4615 -7.7744 2.8385
-3.3666 -7.7807 2.8385
-3.2723 -7.7868 2.8385
-3.1785 -7.7927 2.8385
-3.0853 -7.7985 2.8385
-2.9926 -7.8040 2.8385
-2.9004 -7.8094 2.8385
-2.8087 -7.8145 2.8385
-2.7175 -7.8195 2.8385
-2.6267 -7.8243 2.8385
-2.5364 -7.8290 2.8385
-2.4464 -7.8335 2.8385
-2.3569 -7.8378 2.8385
-2.2677 -7.8419 2.8385
-2.1789 -7.8458 2.8385
-2.0905 -7.8496 2.8385
-0.8944 -3.5078 1.2679
-0.8548 -3.5078 1.2673
-0.8154 -3.5078 1.2668
-0.7762 -3.5078 1.2663
-0.7371 -3.5078 1.2658
-0.6983 -3.5078 1.2653
-0.6595 -3.5078 1.2649
-0.6209 -3.5078 1.2645
-0.5824 -3.5078 1.2641
-0.5441 -3.5078 1.2638
-0.5059 -3.5078 1.2634
-0.4677 -3.5078 1.2631
-0.4297 -3.5078 1.2628
-0.3918 -3.5078 1.2626
-0.3539 -3.5078 1.2624
-0.3162 -3.5078 1.2621
-0.2784 -3.5078 1.2620
-0.2408 -3.5078 1.2618
-0.2032 -3.5078 1.2617
-0.1656 -3.5078 1.2615
-0.1281 -3.5078 1.2615
-0.0906 -3.5078 1.2614
-0.0531 -3.5078 1.2613
-0.0157 -3.5078 1.2613
0.0218 -3.5078 1.2613
0.0593 -3.5078 1.2613
0.0968 -3.5078 1.2614
0.1343 -3.5078 1.2615
0.1718 -3.5078 1.2616
0.2094 -3.5078 1.2617
0.2470 -3.5078 1.2618
0.2846 -3.5078 1.2620
0.3223 -3.5078 1.2622
0.3601 -3.5078 1.2624
0.3980 -3.5078 1.2626
0.4360 -3.5078 1.2629
0.4740 -3.5078 1.2632
0.5121 -3.5078 1.2635
0.5504 -3.5078 1.2638
0.5887 -3.5078 1.2642
0.6272 -3.5078 1.2646
0.6659 -3.5078 1.2650
0.7046 -3.5078 1.2654
0.7435 -3.5078 1.2659
0.7826 -3.5078 1.2663
0.8219 -3.5078 1.2669
0.8613 -3.5078 1.2674
0.9009 -3.5078 1.2680
2.1050 -7.8490 2.8385
2.1935 -7.8452 2.8385
2.2824 -7.8412 2.8385
2.3716 -7.8370 2.8385
2.4612 -7.8327 2.8385
2.5512 -7.8282 2.8385
2.6416 -7.8236 2.8385
2.7325 -7.8187 2.8385
2.8238 -7.8137 2.8385
2.9155 -7.8085 2.8385
3.0078 -7.8031 2.8385
3.1006 -7.7975 2.8385
3.1939 -7.7918 2.8385
3.2877 -7.7858 2.8385
3.3821 -7.7797 2.8385
3.4771 -7.7734 2.8385
3.5727 -7.7668 2.8385
-7.6048 -5.4967 2.6861
-7.4835 -5.5254 2.6861
-7.3639 -5.5535 2.6861
-7.2459 -5.5809 2.6861
-7.1294 -5.6076 2.6861
-7.0144 -5.6337 2.6861
-6.9009 -5.6592 2.6861
-6.7887 -5.6841 2.6861
-6.6780 -5.7084 2.6861
-6.5686 -5.7322 2.6861
-6.4604 -5.7554 2.6861
-6.3535 -5.7781 2.6861
-6.2479 -5.8002 2.6861
-6.1434 -5.8218 2.6861
-6.0400 -5.8430 2.6861
-5.9378 -5.8636 2.6861
-5.8367 -5.8838 2.6861
-5.7594 -5.9269 2.6968
-5.7524 -6.0433 2.7408
-5.7452 -6.1621 2.7858
-5.7378 -6.2834 2.8319
-5.6495 -6.3169 2.8385
-5.5489 -6.3354 2.8385
-5.4491 -6.3535 2.8385
-5.3504 -6.3711 2.8385
-5.2524 -6.3883 2.8385
-5.1554 -6.4052 2.8385
-5.0592 -6.4216 2.8385
-4.9638 -6.4376 2.8385
-4.8692 -6.4533 2.8385
-4.7754 -6.4686 2.8385
-4.6823 -6.4835 2.8385
-4.5900 -6.4980 2.8385
-4.4984 -6.5122 2.8385
-4.4074 -6.5261 2.8385
-4.3171 -6.5396 2.8385
-4.2275 -6.5528 2.8385
-4.1385 -6.5656 2.8385
-4.0502 -6.5781 2.8385
-3.9624 -6.5903 2.8385
-3.8752 -6.6022 2.8385
-3.7885 -6.6138 2.8385
-3.7024 -6.6251 2.8385
-3.6169 -6.6360 2.8385
-3.5318 -6.6467 2.8385
-3.4473 -6.6571 2.8385
-3.3632 -6.6672 2.8385
-3.2797 -6.6770 2.8385
-3.1965 -6.6866 2.8385
-3.1138 -6.6958 2.8385
-3.0316 -6.7048 2.8385
-2.9497 -6.7136 2.8385
-2.8683 -6.7220 2.8385
-2.7872 -6.7302 2.8385
-2.7065 -6.7382 2.8385
-2.6262 -6.7459 2.8385
-2.5462 -6.7533 2.8385
-2.4666 -6.7605 2.8385
-2.3873 -6.7675 2.8385
-2.3083 -6.7742 2.8385
-2.2296 -6.7806 2.8385
-2.1512 -6.7869 2.8385
-2.0730 -6.7929 2.8385
-1.9952 -6.7986 2.8385
-1.9176 -6.8042 2.8385
-1.8402 -6.8095 2.8385
-0.9076 -3.5079 1.4611
-0.8674 -3.5079 1.4601
-0.8274 -3.5079 1.4591
-0.7875 -3.5079 1.4582
-0.7479 -3.5079 1.4573
-0.7084 -3.5079 1.4564
-0.6691 -3.5079 1.4556
-0.6299 -3.5079 1.4549
-0.5909 -3.5079 1.4542
-0.5519 -3.5078 1.4535
-0.5132 -3.5079 1.4529
-0.4745 -3.5079 1.4523
-0.4359 -3.5078 1.4518
-0.3974 -3.5079 1.4513
-0.3590 -3.5078 1.4509
-0.3207 -3.5079 1.4505
-0.2824 -3.5079 1.4502
-0.2442 -3.5078 1.4499
-0.2061 -3.5078 1.4496
-0.1680 -3.5079 1.4494
-0.1299 -3.5079 1.4492
-0.0919 -3.5079 1.4491
-0.0539 -3.5079 1.4490
-0.0159 -3.5079 1.4490
0.0221 -3.5079 1.4490
0.0601 -3.5079 1.4490
0.0981 -3.5078 1.4491
0.1362 -3.5078 1.4493
0.1743 -3.5078 1.4494
0.2124 -3.5078 1.4497
0.2505 -3.5079 1.4499
0.2887 -3.5079 1.4502
0.3270 -3.5078 1.4506
0.3653 -3.5078 1.4510
0.4037 -3.5079 1.4514
0.4422 -3.5078 1.4519
0.4808 -3.5078 1.4524
0.5195 -3.5079 1.4530
0.5583 -3.5078 1.4536
0.5973 -3.5078 1.4543
0.6363 -3.5078 1.4550
0.6755 -3.5078 1.4558
0.7149 -3.5079 1.4566
0.7544 -3.5078 1.4574
0.7941 -3.5079 1.4583
0.8339 -3.5078 1.4593
0.8739 -3.5078 1.4603
0.9142 -3.5078 1.4613
1.8529 -6.8086 2.8385
1.9303 -6.8033 2.8385
2.0079 -6.7977 2.8385
2.0858 -6.7919 2.8385
2.1640 -6.7859 2.8385
2.2425 -6.7796 2.8385
2.3212 -6.7731 2.8385
2.4003 -6.7663 2.8385
2.4796 -6.7593 2.8385
2.5593 -6.7521 2.8385
2.6394 -6.7446 2.8385
2.7197 -6.7369 2.8385
2.8005 -6.7289 2.8385
2.8816 -6.7206 2.8385
2.9631 -6.7121 2.8385
3.0450 -6.7034 2.8385
3.1274 -6.6943 2.8385
-6.5332 -4.6105 2.6861
-6.4363 -4.6413 2.6861
-6.3404 -4.6714 2.6861
-6.2455 -4.7009 2.6861
-6.1515 -4.7297 2.6861
-6.0585 -4.7580 2.6861
-5.9664 -4.7856 2.6861
-5.8752 -4.8126 2.6861
-5.7849 -4.8390 2.6861
-5.7540 -4.9149 2.7137
-5.7476 -5.0130 2.7535
-5.7411 -5.1128 2.7942
-5.7344 -5.2143 2.8357
-5.6490 -5.2445 2.8385
-5.5586 -5.2691 2.8385
-5.4690 -5.2931 2.8385
-5.3802 -5.3166 2.8385
-5.2920 -5.3395 2.8385
-5.2046 -5.3620 2.8385
-5.1179 -5.3840 2.8385
-5.0319 -5.4055 2.8385
-4.9465 -5.4266 2.8385
-4.8618 -5.4472 2.8385
-4.7777 -5.4673 2.8385
-4.6942 -5.4870 2.8385
-4.6113 -5.5062 2.8385
-4.5289 -5.5250 2.8385
-4.4472 -5.5434 2.8385
-4.3660 -5.5614 2.8385
-4.2853 -5.5790 2.8385
-4.2052 -5.5962 2.8385
-4.1256 -5.6130 2.8385
-4.0465 -5.6293 2.8385
-3.9678 -5.6454 2.8385
-3.8896 -5.6610 2.8385
-3.8119 -5.6763 2.8385
-3.7347 -5.6912 2.8385
-3.6578 -5.7057 2.8385
-3.5814 -5.7199 2.8385
-3.5054 -5.7337 2.8385
-3.4299 -5.7472 2.8385
-3.3547 -5.7604 2.8385
-3.2798 -5.7732 2.8385
-3.2054 -5.7857 2.8385
-3.1313 -5.7979 2.8385
-3.0575 -5.8097 2.8385
-2.9841 -5.8212 2.8385
-2.9111 -5.8325 2.8385
-2.8383 -5.8434 2.8385
-2.7659 -5.8540 2.8385
-2.6937 -5.8643 2.8385
-2.6219 -5.8743 2.8385
-2.5503 -5.8840 2.8385
-2.4790 -5.8934 2.8385
-2.4080 -5.9025 2.8385
-2.3372 -5.9113 2.8385
-2.2667 -5.9199 2.8385
-2.1964 -5.9282 2.8385
-2.1263 -5.9362 2.8385
-2.0565 -5.9439 2.8385
-1.9869 -5.9513 2.8385
-1.9175 -5.9585 2.8385
-1.8482 -5.9654 2.8385
-1.7792 -5.9721 2.8385
-1.7104 -5.9785 2.8385
-1.6417 -5.9846 2.8385
-0.9212 -3.5079 1.6622
-0.8804 -3.5079 1.6606
-0.8398 -3.5079 1.6591
-0.7993 -3.5079 1.6577
-0.7591 -3.5079 1.6564
-0.7190 -3.5079 1.6551
-0.6790 -3.5079 1.6539
-0.6393 -3.5079 1.6528
-0.5996 -3.5079 1.6518
-0.5601 -3.5079 1.6508
-0.5207 -3.5079 1.6499
-0.4815 -3.5079 1.6490
-0.4423 -3.5079 1.6482
-0.4033 -3.5079 1.6475
-0.3643 -3.5079 1.6469
-0.3254 -3.5079 1.6463
-0.2866 -3.5079 1.6458
-0.2478 -3.5079 1.6453
-0.2091 -3.5079 1.6450
-0.1705 -3.5079 1.6446
-0.1318 -3.5079 1.6444
-0.0932 -3.5079 1.6442
-0.0547 -3.5079 1.6441
-0.0161 -3.5079 1.6440
0.0224 -3.5079 1.6440
0.0610 -3.5079 1.6441
0.0996 -3.5079 1.6442
0.1382 -3.5079 1.6444
0.1768 -3.5079 1.6447
0.2155 -3.5079 1.6450
0.2542 -3.5079 1.6454
0.2929 -3.5079 1.6459
0.3318 -3.5079 1.6464
0.3707 -3.5079 1.6470
0.4097 -3.5079 1.6476
0.4487 -3.5079 1.6484
0.4879 -3.5079 1.6492
0.5272 -3.5079 1.6500
0.5666 -3.5079 1.6509
0.6061 -3.5079 1.6519
0.6458 -3.5079 1.6530
0.6856 -3.5079 1.6541
0.7255 -3.5079 1.6553
0.7657 -3.5079 1.6566
0.8059 -3.5079 1.6580
0.8464 -3.5079 1.6594
0.8871 -3.5079 1.6609
1.5844 -5.9895 2.8385
1.6530 -5.9836 2.8385
1.7217 -5.9774 2.8385
1.7905 -5.9710 2.8385
1.8596 -5.9643 2.8385
1.9288 -5.9574 2.8385
1.9983 -5.9501 2.8385
2.0679 -5.9426 2.8385
2.1378 -5.9349 2.8385
2.2079 -5.9268 2.8385
2.2782 -5.9185 2.8385
2.3488 -5.9099 2.8385
2.4195 -5.9010 2.8385
2.4907 -5.8919 2.8385
2.5620 -5.8824 2.8385
2.6337 -5.8726 2.8385
2.7056 -5.8626 2.8385
2.7777 -5.8522 2.8385
-5.7532 -3.9603 2.7035
-5.7475 -4.0441 2.7391
-5.7417 -4.1291 2.7754
-5.7358 -4.2153 2.8123
-5.7066 -4.2853 2.8385
-5.6248 -4.3156 2.8385
-5.5436 -4.3452 2.8385
-5.4630 -4.3743 2.8385
-5.3830 -4.4027 2.8385
-5.3036 -4.4306 2.8385
-5.2247 -4.4580 2.8385
-5.1465 -4.4848 2.8385
-5.0688 -4.5110 2.8385
-4.9916 -4.5367 2.8385
-4.9149 -4.5619 2.8385
-4.8388 -4.5866 2.8385
-4.7632 -4.6108 2.8385
-4.6880 -4.6345 2.8385
-4.6134 -4.6577 2.8385
-4.5392 -4.6804 2.8385
-4.4654 -4.7027 2.8385
-4.3921 -4.7245 2.8385
-4.3193 -4.7459 2.8385
-4.2468 -4.7668 2.8385
-4.1748 -4.7872 2.8385
-4.1032 -4.8073 2.8385
-4.0320 -4.8269 2.8385
-3.9612 -4.8460 2.8385
-3.8907 -4.8648 2.8385
-3.8207 -4.8832 2.8385
-3.7509 -4.9012 2.8385
-3.6816 -4.9187 2.8385
-3.6126 -4.9359 2.8385
-3.5439 -4.9526 2.8385
-3.4755 -4.9691 2.8385
-3.4075 -4.9851 2.8385
-3.3397 -5.0008 2.8385
-3.2723 -5.0160 2.8385
-3.2052 -5.0310 2.8385
-3.1384 -5.0456 2.8385
-3.0718 -5.0598 2.8385
-3.0055 -5.0737 2.8385
-2.9395 -5.0872 2.8385
-2.8737 -5.1004 2.8385
-2.8082 -5.1133 2.8385
-2.7430 -5.1258 2.8385
-2.6780 -5.1380 2.8385
-2.6132 -5.1499 2.8385
-2.5486 -5.1615 2.8385
-2.4843 -5.1727 2.8385
-2.4202 -5.1836 2.8385
-2.3562 -5.1943 2.8385
-2.2925 -5.2046 2.8385
-2.2290 -5.2146 2.8385
-2.1657 -5.2243 2.8385
-2.1025 -5.2337 2.8385
-2.0395 -5.2428 2.8385
-1.9767 -5.2516 2.8385
-1.9141 -5.2601 2.8385
-1.8516 -5.2683 2.8385
-1.7893 -5.2763 2.8385
-1.7271 -5.2839 2.8385
-1.6651 -5.2913 2.8385
-1.6032 -5.2984 2.8385
-1.5414 -5.3052 2.8385
-1.4798 -5.3117 2.8385
-1.4183 -5.3180 2.8385
-0.8940 -3.5079 1.8703
-0.8527 -3.5079 1.8682
-0.8116 -3.5079 1.8663
-0.7707 -3.5079 1.8645
-0.7300 -3.5079 1.8628
-0.6894 -3.5079 1.8612
-0.6490 -3.5079 1.8597
-0.6088 -3.5079 1.8583
-0.5686 -3.5079 1.8569
-0.5287 -3.5079 1.8557
-0.4888 -3.5079 1.8545
-0.4490 -3.5079 1.8535
-0.4094 -3.5079 1.8525
-0.3698 -3.5079 1.8516
-0.3303 -3.5079 1.8509
-0.2909 -3.5079 1.8502
-0.2516 -3.5079 1.8495
-0.2123 -3.5079 1.8490
-0.1730 -3.5079 1.8486
-0.1338 -3.5079 1.8483
-0.0947 -3.5079 1.8480
-0.0555 -3.5079 1.8478
-0.0164 -3.5079 1.8477
0.0228 -3.5079 1.8478
0.0619 -3.5079 1.8478
0.1011 -3.5079 1.8480
0.1403 -3.5079 1.8483
0.1795 -3.5079 1.8487
0.2187 -3.5079 1.8491
0.2580 -3.5079 1.8496
0.2974 -3.5079 1.8503
0.3368 -3.5079 1.8510
0.3763 -3.5079 1.8518
0.4159 -3.5079 1.8527
0.4556 -3.5079 1.8536
0.4953 -3.5079 1.8547
0.5352 -3.5079 1.8559
0.5752 -3.5079 1.8571
0.6154 -3.5079 1.8585
0.6556 -3.5079 1.8599
0.6961 -3.5079 1.8615
0.7367 -3.5079 1.8631
0.7774 -3.5079 1.8648
0.8184 -3.5079 1.8666
0.8595 -3.5079 1.8686
0.9008 -3.5079 1.8706
1.4284 -5.3170 2.8385
1.4899 -5.3107 2.8385
1.5516 -5.3041 2.8385
1.6134 -5.2973 2.8385
1.6753 -5.2901 2.8385
1.7373 -5.2827 2.8385
1.7995 -5.2750 2.8385
1.8619 -5.2670 2.8385
1.9244 -5.2587 2.8385
1.9870 -5.2502 2.8385
2.0499 -5.2413 2.8385
2.1129 -5.2321 2.8385
2.1761 -5.2227 2.8385
2.2394 -5.2129 2.8385
2.3030 -5.2029 2.8385
2.3667 -5.1925 2.8385
2.4307 -5.1819 2.8385
2.4948 -5.1709 2.8385
-5.3580 -3.5935 2.8385
-5.2866 -3.6256 2.8385
-5.2157 -3.6571 2.8385
-5.1452 -3.6881 2.8385
-5.0751 -3.7184 2.8385
-5.0055 -3.7482 2.8385
-4.9362 -3.7774 2.8385
-4.8674 -3.8061 2.8385
-4.7990 -3.8342 2.8385
-4.7309 -3.8618 2.8385
-4.6633 -3.8888 2.8385
-4.5960 -3.9154 2.8385
-4.5291 -3.9415 2.8385
-4.4625 -3.9671 2.8385
-4.3963 -3.9921 2.8385
-4.3304 -4.0167 2.8385
-4.2649 -4.0408 2.8385
-4.1997 -4.0645 2.8385
-4.1348 -4.0876 2.8385
-4.0702 -4.1104 2.8385
-4.0060 -4.1326 2.8385
-3.9420 -4.1545 2.8385
-3.8784 -4.1759 2.8385
-3.8150 -4.1968 2.8385
-3.7519 -4.2174 2.8385
-3.6891 -4.2375 2.8385
-3.6266 -4.2573 2.8385
-3.5643 -4.2766 2.8385
-3.5023 -4.2955 2.8385
-3.4405 -4.3140 2.8385
-3.3790 -4.3321 2.8385
-3.3178 -4.3499 2.8385
-3.2568 -4.3672 2.8385
-3.1960 -4.3842 2.8385
-3.1354 -4.4008 2.8385
-3.0751 -4.4170 2.8385
-3.0149 -4.4329 2.8385
-2.9550 -4.4484 2.8385
-2.8953 -4.4636 2.8385
-2.8358 -4.4784 2.8385
-2.7765 -4.4929 2.8385
-2.7174 -4.5069 2.8385
-2.6585 -4.5207 2.8385
-2.5997 -4.5342 2.8385
-2.5411 -4.5473 2.8385
-2.4828 -4.5600 2.8385
-2.4245 -4.5725 2.8385
-2.3665 -4.5846 2.8385
-2.3086 -4.5964 2.8385
-2.2508 -4.6079 2.8385
-2.1932 -4.6190 2.8385
-2.1358 -4.6299 2.8385
-2.0785 -4.6404 2.8385
-2.0213 -4.6507 2.8385
-1.9643 -4.6606 2.8385
-1.9074 -4.6702 2.8385
-1.8506 -4.6795 2.8385
-1.7940 -4.6885 2.8385
-1.7374 -4.6973 2.8385
-1.6810 -4.7057 2.8385
-1.6247 -4.7139 2.8385
-1.5685 -4.7217 2.8385
-1.5124 -4.7293 2.8385
-1.4564 -4.7366 2.8385
-1.4005 -4.7436 2.8385
-1.3447 -4.7503 2.8385
-1.2890 -4.7567 2.8385
-0.9084 -3.5080 2.0906
-0.8664 -3.5080 2.0880
-0.8246 -3.5080 2.0856
-0.7830 -3.5080 2.0833
-0.7416 -3.5080 2.0811
-0.7004 -3.5080 2.0790
-0.6593 -3.5080 2.0771
-0.6184 -3.5080 2.0752
-0.5776 -3.5080 2.0735
-0.5370 -3.5080 2.0719
-0.4965 -3.5080 2.0705
-0.4561 -3.5080 2.0691
-0.4158 -3.5080 2.0679
-0.3756 -3.5080 2.0667
-0.3355 -3.5080 2.0657
-0.2955 -3.5080 2.0648
-0.2555 -3.5080 2.0640
-0.2156 -3.5080 2.0634
-0.1757 -3.5080 2.0628
-0.1359 -3.5080 2.0624
-0.0961 -3.5080 2.0621
-0.0564 -3.5080 2.0618
-0.0166 -3.5080 2.0617
0.0231 -3.5080 2.0617
0.0629 -3.5080 2.0619
0.1027 -3.5080 2.0621
0.1424 -3.5080 2.0624
0.1823 -3.5080 2.0629
0.2221 -3.5080 2.0635
0.2620 -3.5080 2.0642
0.3020 -3.5080 2.0650
0.3421 -3.5080 2.0659
0.3822 -3.5080 2.0669
0.4224 -3.5080 2.0680
0.4627 -3.5080 2.0693
0.5031 -3.5080 2.0707
0.5436 -3.5080 2.0722
0.5843 -3.5080 2.0738
0.6251 -3.5080 2.0755
0.6660 -3.5080 2.0774
0.7071 -3.5080 2.0793
0.7484 -3.5080 2.0814
0.7898 -3.5080 2.0836
0.8314 -3.5080 2.0860
0.8733 -3.5080 2.0885
0.9153 -3.5080 2.0910
1.2981 -4.7557 2.8385
1.3538 -4.7492 2.8385
1.4097 -4.7424 2.8385
1.4656 -4.7354 2.8385
1.5216 -4.7280 2.8385
1.5777 -4.7205 2.8385
1.6339 -4.7125 2.8385
1.6903 -4.7043 2.8385
1.7467 -4.6959 2.8385
1.8033 -4.6871 2.8385
1.8599 -4.6780 2.8385
1.9167 -4.6686 2.8385
1.9736 -4.6590 2.8385
2.0307 -4.6490 2.8385
2.0879 -4.6387 2.8385
2.1452 -4.6281 2.8385
2.2027 -4.6172 2.8385
2.2603 -4.6060 2.8385
-4.8025 -3.1341 2.8385
-4.7411 -3.1651 2.8385
-4.6801 -3.1956 2.8385
-4.6193 -3.2255 2.8385
-4.5587 -3.2548 2.8385
-4.4985 -3.2837 2.8385
-4.4385 -3.3121 2.8385
-4.3788 -3.3399 2.8385
-4.3193 -3.3672 2.8385
-4.2601 -3.3941 2.8385
-4.2012 -3.4205 2.8385
-4.1425 -3.4464 2.8385
-4.0840 -3.4718 2.8385
-4.0257 -3.4968 2.8385
-3.9677 -3.5213 2.8385
-3.9100 -3.5454 2.8385
-3.8524 -3.5690 2.8385
-3.7951 -3.5921 2.8385
-3.7379 -3.6149 2.8385
-3.6810 -3.6372 2.8385
-3.6243 -3.6591 2.8385
-3.5678 -3.6806 2.8385
-3.5115 -3.7016 2.8385
-3.4554 -3.7223 2.8385
-3.3994 -3.7425 2.8385
-3.3437 -3.7624 2.8385
-3.2882 -3.7818 2.8385
-3.2328 -3.8009 2.8385
-3.1776 -3.8196 2.8385
-3.1226 -3.8379 2.8385
-3.0677 -3.8558 2.8385
-3.0130 -3.8734 2.8385
-2.9585 -3.8906 2.8385
-2.9042 -3.9074 2.8385
-2.8499 -3.9238 2.8385
-2.7959 -3.9400 2.8385
-2.7420 -3.9558 2.8385
-2.6882 -3.9712 2.8385
-2.6346 -3.9862 2.8385
-2.5811 -4.0009 2.8385
-2.5278 -4.0153 2.8385
-2.4746 -4.0294 2.8385
-2.4215 -4.0431 2.8385
-2.3685 -4.0565 2.8385
-2.3157 -4.0695 2.8385
-2.2630 -4.0823 2.8385
-2.2104 -4.0947 2.8385
-2.1579 -4.1068 2.8385
-2.1056 -4.1186 2.8385
-2.0533 -4.1301 2.8385
-2.0012 -4.1412 2.8385
-1.9491 -4.1521 2.8385
-1.8972 -4.1626 2.8385
-1.8453 -4.1728 2.8385
-1.7936 -4.1828 2.8385
-1.7419 -4.1924 2.8385
-1.6904 -4.2017 2.8385
-1.6389 -4.2107 2.8385
-1.5875 -4.2195 2.8385
-1.5361 -4.2280 2.8385
-1.4849 -4.2362 2.8385
-1.4337 -4.2440 2.8385
-1.3826 -4.2516 2.8385
-1.3316 -4.2589 2.8385
-1.2807 -4.2660 2.8385
-1.2298 -4.2727 2.8385
-1.1789 -4.2791 2.8385
-0.9867 -3.7481 2.4826
-0.8808 -3.5080 2.3204
-0.8383 -3.5080 2.3174
-0.7960 -3.5080 2.3145
-0.7539 -3.5080 2.3118
-0.7119 -3.5080 2.3092
-0.6702 -3.5080 2.3068
-0.6285 -3.5080 2.3045
-0.5871 -3.5080 2.3024
-0.5458 -3.5080 2.3004
-0.5046 -3.5080 2.2986
-0.4635 -3.5080 2.2969
-0.4226 -3.5080 2.2954
-0.3817 -3.5080 2.2940
-0.3409 -3.5080 2.2927
-0.3003 -3.5080 2.2916
-0.2596 -3.5080 2.2906
-0.2191 -3.5080 2.2898
-0.1786 -3.5080 2.2891
-0.1381 -3.5080 2.2886
-0.0977 -3.5080 2.2882
-0.0573 -3.5080 2.2879
-0.0169 -3.5080 2.2878
0.0235 -3.5080 2.2878
0.0639 -3.5080 2.2879
0.1043 -3.5080 2.2882
0.1448 -3.5080 2.2887
0.1852 -3.5080 2.2892
0.2257 -3.5080 2.2899
0.2663 -3.5080 2.2908
0.3069 -3.5080 2.2918
0.3476 -3.5080 2.2929
0.3884 -3.5080 2.2942
0.4293 -3.5080 2.2956
0.4703 -3.5080 2.2972
0.5113 -3.5080 2.2989
0.5526 -3.5080 2.3007
0.5939 -3.5080 2.3027
0.6354 -3.5080 2.3049
0.6770 -3.5080 2.3072
0.7188 -3.5080 2.3096
0.7608 -3.5080 2.3122
0.8029 -3.5080 2.3150
0.8452 -3.5080 2.3179
0.8878 -3.5080 2.3209
0.9954 -3.7523 2.4860
1.1873 -4.2781 2.8385
1.2381 -4.2716 2.8385
1.2890 -4.2648 2.8385
1.3400 -4.2578 2.8385
1.3910 -4.2504 2.8385
1.4421 -4.2427 2.8385
1.4933 -4.2348 2.8385
1.5446 -4.2266 2.8385
1.5959 -4.2181 2.8385
1.6473 -4.2093 2.8385
1.6988 -4.2002 2.8385
1.7504 -4.1908 2.8385
1.8021 -4.1811 2.8385
1.8539 -4.1712 2.8385
1.9057 -4.1609 2.8385
1.9577 -4.1503 2.8385
2.0097 -4.1394 2.8385
2.0619 -4.1282 2.8385
-4.3399 -2.7515 2.8385
-4.2864 -2.7811 2.8385
-4.2331 -2.8103 2.8385
-4.1800 -2.8390 2.8385
-4.1270 -2.8672 2.8385
-4.0742 -2.8950 2.8385
-4.0216 -2.9222 2.8385
-3.9691 -2.9490 2.8385
-3.9168 -2.9754 2.8385
-3.8647 -3.0013 2.8385
-3.8127 -3.0267 2.8385
-3.7609 -3.0517 2.8385
-3.7092 -3.0763 2.8385
-3.6576 -3.1004 2.8385
-3.6063 -3.1242 2.8385
-3.5550 -3.1475 2.8385
-3.5039 -3.1703 2.8385
-3.4530 -3.1928 2.8385
-3.4021 -3.2149 2.8385
-3.3515 -3.2366 2.8385
-3.3009 -3.2578 2.8385
-3.2505 -3.2787 2.8385
-3.2002 -3.2992 2.8385
-3.1500 -3.3193 2.8385
-3.1000 -3.3390 2.8385
-3.0501 -3.3584 2.8385
-3.0003 -3.3774 2.8385
-2.9506 -3.3960 2.8385
-2.9010 -3.4142 2.8385
-2.8516 -3.4321 2.8385
-2.8022 -3.4496 2.8385
-2.7530 -3.4668 2.8385
-2.7039 -3.4837 2.8385
-2.6549 -3.5001 2.8385
-2.6060 -3.5163 2.8385
-2.5572 -3.5321 2.8385
-2.5085 -3.5475 2.8385
-2.4599 -3.5626 2.8385
-2.4113 -3.5774 2.8385
-2.3629 -3.5919 2.8385
-2.3146 -3.6060 2.8385
-2.2663 -3.6198 2.8385
-2.2182 -3.6333 2.8385
-2.1701 -3.6465 2.8385
-2.1221 -3.6593 2.8385
-2.0742 -3.6719 2.8385
-2.0264 -3.6841 2.8385
-1.9787 -3.6960 2.8385
-1.9310 -3.7076 2.8385
-1.8834 -3.7189 2.8385
-1.8359 -3.7299 2.8385
-1.7884 -3.7406 2.8385
-1.7410 -3.7510 2.8385
-1.6937 -3.7611 2.8385
-1.6465 -3.7709 2.8385
-1.5993 -3.7804 2.8385
-1.5521 -3.7897 2.8385
-1.5051 -3.7986 2.8385
-1.4581 -3.8073 2.8385
-1.4111 -3.8156 2.8385
-1.3642 -3.8237 2.8385
-1.3174 -3.8315 2.8385
-1.2705 -3.8390 2.8385
-1.2238 -3.8462 2.8385
-1.1771 -3.8532 2.8385
-1.1304 -3.8599 2.8385
-1.0838 -3.8663 2.8385
-1.0372 -3.8724 2.8385
-0.8961 -3.5081 2.5676
-0.8528 -3.5081 2.5639
-0.8098 -3.5081 2.5604
-0.7669 -3.5081 2.5571
-0.7242 -3.5081 2.5540
-0.6817 -3.5081 2.5510
-0.6394 -3.5081 2.5483
-0.5972 -3.5081 2.5457
-0.5551 -3.5081 2.5433
-0.5132 -3.5081 2.5411
-0.4714 -3.5080 2.5390
-0.4298 -3.5081 2.5372
-0.3882 -3.5081 2.5355
-0.3468 -3.5081 2.5340
-0.3054 -3.5081 2.5326
-0.2641 -3.5080 2.5315
-0.2228 -3.5080 2.5305
-0.1816 -3.5081 2.5296
-0.1405 -3.5081 2.5290
-0.0993 -3.5081 2.5285
-0.0582 -3.5081 2.5281
-0.0172 -3.5080 2.5280
0.0239 -3.5080 2.5280
0.0650 -3.5080 2.5282
0.1061 -3.5081 2.5285
0.1472 -3.5081 2.5291
0.1884 -3.5081 2.5297
0.2296 -3.5081 2.5306
0.2708 -3.5081 2.5316
0.3122 -3.5081 2.5328
0.3536 -3.5081 2.5342
0.3950 -3.5081 2.5358
0.4366 -3.5080 2.5375
0.4783 -3.5080 2.5394
0.5201 -3.5081 2.5414
0.6041 -3.5080 2.5461
0.5620 -3.5080 2.5437
0.6463 -3.5080 2.5487
0.7739 -3.5080 2.5576
0.6887 -3.5081 2.5515
0.8168 -3.5081 2.5609
0.7312 -3.5080 2.5544
0.8599 -3.5080 2.5645
0.9033 -3.5080 2.5682
1.0449 -3.8714 2.8385
1.2315 -3.8451 2.8385
1.0915 -3.8652 2.8385
1.2782 -3.8378 2.8385
1.1381 -3.8588 2.8385
1.3250 -3.8302 2.8385
1.1848 -3.8520 2.8385
1.3719 -3.8224 2.8385
1.4188 -3.8143 2.8385
1.6070 -3.7789 2.8385
1.4658 -3.8058 2.8385
1.6542 -3.7693 2.8385
1.5128 -3.7972 2.8385
1.7015 -3.7595 2.8385
1.5599 -3.7882 2.8385
1.7488 -3.7493 2.8385
1.7962 -3.7389 2.8385
1.8437 -3.7281 2.8385
1.8912 -3.7171 2.8385
-3.9470 -2.4266 2.8385
-3.8999 -2.4548 2.8385
-3.8529 -2.4827 2.8385
-3.8060 -2.5100 2.8385
-3.7591 -2.5370 2.8385
-3.7124 -2.5635 2.8385
-3.6658 -2.5896 2.8385
-3.6192 -2.6152 2.8385
-3.5728 -2.6405 2.8385
-3.5264 -2.6653 2.8385
-3.4802 -2.6897 2.8385
-3.4340 -2.7137 2.8385
-3.3879 -2.7373 2.8385
-3.3419 -2.7605 2.8385
-3.2960 -2.7833 2.8385
-3.2502 -2.8057 2.8385
-3.2044 -2.8278 2.8385
-3.1588 -2.8494 2.8385
-3.1132 -2.8707 2.8385
-3.0677 -2.8916 2.8385
-3.0223 -2.9121 2.8385
-2.9769 -2.9323 2.8385
-2.9317 -2.9521 2.8385
-2.8865 -2.9715 2.8385
-2.8414 -2.9906 2.8385
-2.7963 -3.0093 2.8385
-2.7514 -3.0277 2.8385
-2.7065 -3.0457 2.8385
-2.6617 -3.0634 2.8385
-2.6169 -3.0807 2.8385
-2.5723 -3.0978 2.8385
-2.5276 -3.1144 2.8385
-2.4831 -3.1308 2.8385
-2.4386 -3.1468 2.8385
-2.3942 -3.1625 2.8385
-2.3499 -3.1778 2.8385
-2.3056 -3.1928 2.8385
-2.2614 -3.2076 2.8385
-2.2172 -3.2219 2.8385
-2.1731 -3.2360 2.8385
-2.1290 -3.2498 2.8385
-2.0851 -3.2632 2.8385
-2.0411 -3.2764 2.8385
-1.9972 -3.2892 2.8385
-1.9534 -3.3017 2.8385
-1.9096 -3.3140 2.8385
-1.8659 -3.3260 2.8385
-1.8222 -3.3376 2.8385
-1.7786 -3.3489 2.8385
-1.7350 -3.3600 2.8385
-1.6915 -3.3707 2.8385
-1.6480 -3.3812 2.8385
-1.6046 -3.3914 2.8385
-1.5612 -3.4012 2.8385
-1.5178 -3.4109 2.8385
-1.4745 -3.4202 2.8385
-1.4312 -3.4292 2.8385
-1.3880 -3.4379 2.8385
-1.3448 -3.4464 2.8385
-1.3016 -3.4546 2.8385
-1.2585 -3.4625 2.8385
-1.2154 -3.4702 2.8385
-1.1723 -3.4775 2.8385
-1.1293 -3.4846 2.8385
-1.0863 -3.4914 2.8385
-1.0433 -3.4980 2.8385
-1.0004 -3.5042 2.8385
-0.9575 -3.5102 2.8385
-0.9146 -3.5160 2.8385
-0.8717 -3.5215 2.8385
-0.8289 -3.5267 2.8385
-0.7861 -3.5316 2.8385
-0.7433 -3.5362 2.8385
-0.7005 -3.5407 2.8385
-0.6577 -3.5448 2.8385
-0.6150 -3.5487 2.8385
-0.5723 -3.5523 2.8385
-0.5295 -3.5556 2.8385
-0.4868 -3.5587 2.8385
-0.4442 -3.5616 2.8385
-0.4015 -3.5641 2.8385
-0.3588 -3.5665 2.8385
-0.3162 -3.5685 2.8385
-0.2735 -3.5703 2.8385
-0.2309 -3.5718 2.8385
-0.1883 -3.5731 2.8385
-0.1457 -3.5741 2.8385
-0.1030 -3.5749 2.8385
-0.0604 -3.5753 2.8385
-0.0178 -3.5756 2.8385
0.0248 -3.5756 2.8385
0.0674 -3.5753 2.8385
0.1100 -3.5748 2.8385
0.1527 -3.5740 2.8385
0.1953 -3.5729 2.8385
0.2379 -3.5716 2.8385
0.2805 -3.5700 2.8385
0.3232 -3.5682 2.8385
0.3658 -3.5661 2.8385
0.4085 -3.5638 2.8385
0.4512 -3.5611 2.8385
0.6220 -3.5481 2.8385
0.4939 -3.5583 2.8385
0.6647 -3.5442 2.8385
0.5366 -3.5551 2.8385
0.7075 -3.5400 2.8385
0.5793 -3.5517 2.8385
0.7503 -3.5355 2.8385
0.7931 -3.5308 2.8385
0.9645 -3.5093 2.8385
0.8359 -3.5258 2.8385
1.0074 -3.5032 2.8385
0.8788 -3.5206 2.8385
1.0504 -3.4969 2.8385
1.0934 -3.4903 2.8385
1.1364 -3.4835 2.8385
0.9216 -3.5151 2.8385
1.1794 -3.4763 2.8385
1.3087 -3.4533 2.8385
1.2225 -3.4689 2.8385
1.3519 -3.4450 2.8385
1.2656 -3.4612 2.8385
1.3951 -3.4365 2.8385
1.4816 -3.4187 2.8385
1.4383 -3.4278 2.8385
1.5249 -3.4093 2.8385
1.5683 -3.3996 2.8385
1.6117 -3.3897 2.8385
1.6552 -3.3795 2.8385
1.6987 -3.3689 2.8385
1.7422 -3.3582 2.8385
-3.6079 -2.1461 2.8385
-3.5660 -2.1730 2.8385
-3.5242 -2.1994 2.8385
-3.4824 -2.2255 2.8385
-3.4407 -2.2511 2.8385
-3.3990 -2.2764 2.8385
-3.3574 -2.3012 2.8385
-3.3158 -2.3257 2.8385
-3.2742 -2.3498 2.8385
-3.2327 -2.3735 2.8385
-3.1912 -2.3968 2.8385
-3.1498 -2.4197 2.8385
-3.1084 -2.4423 2.8385
-3.0670 -2.4645 2.8385
-3.0257 -2.4863 2.8385
-2.9844 -2.5078 2.8385
-2.9432 -2.5290 2.8385
-2.9020 -2.5497 2.8385
-2.8609 -2.5701 2.8385
-2.8198 -2.5902 2.8385
-2.7787 -2.6099 2.8385
-2.7377 -2.6293 2.8385
-2.6967 -2.6483 2.8385
-2.6558 -2.6670 2.8385
-2.6149 -2.6854 2.8385
-2.5740 -2.7034 2.8385
-2.5332 -2.7212 2.8385
-2.4924 -2.7385 2.8385
-2.4516 -2.7556 2.8385
-2.4109 -2.7723 2.8385
-2.3703 -2.7887 2.8385
-2.3296 -2.8048 2.8385
-2.2890 -2.8206 2.8385
-2.2485 -2.8360 2.8385
-2.2079 -2.8512 2.8385
-2.1674 -2.8660 2.8385
-2.1270 -2.8806 2.8385
-2.0865 -2.8948 2.8385
-2.0461 -2.9088 2.8385
-2.0058 -2.9224 2.8385
-1.9655 -2.9357 2.8385
-1.9252 -2.9487 2.8385
-1.8849 -2.9615 2.8385
-1.8446 -2.9740 2.8385
-1.8044 -2.9861 2.8385
-1.7643 -2.9980 2.8385
-1.7241 -3.0095 2.8385
-1.6840 -3.0209 2.8385
-1.6439 -3.0318 2.8385
-1.6038 -3.0426 2.8385
-1.5638 -3.0530 2.8385
-1.5238 -3.0632 2.8385
-1.4838 -3.0731 2.8385
-1.4439 -3.0827 2.8385
-1.4039 -3.0920 2.8385
-1.3640 -3.1011 2.8385
-1.3241 -3.1099 2.8385
-1.2843 -3.1184 2.8385
-1.2444 -3.1266 2.8385
-1.2046 -3.1346 2.8385
-1.1648 -3.1423 2.8385
-1.1250 -3.1497 2.8385
-1.0852 -3.1569 2.8385
-1.0455 -3.1638 2.8385
-1.0058 -3.1704 2.8385
-0.9661 -3.1768 2.8385
-0.9264 -3.1830 2.8385
-0.8867 -3.1888 2.8385
-0.8470 -3.1944 2.8385
-0.8074 -3.1997 2.8385
-0.7678 -3.2048 2.8385
-0.7281 -3.2096 2.8385
-0.6885 -3.2141 2.8385
-0.6489 -3.2185 2.8385
-0.6094 -3.2225 2.8385
-0.5698 -3.2263 2.8385
-0.5302 -3.2298 2.8385
-0.4907 -3.2331 2.8385
-0.4511 -3.2361 2.8385
-0.4116 -3.2389 2.8385
-0.3721 -3.2414 2.8385
-0.3325 -3.2436 2.8385
-0.2930 -3.2456 2.8385
-0.2535 -3.2474 2.8385
-0.2140 -3.2489 2.8385
-0.1745 -3.2501 2.8385
-0.1350 -3.2511 2.8385
-0.0955 -3.2518 2.8385
-0.0560 -3.2523 2.8385
-0.0165 -3.2526 2.8385
0.0230 -3.2525 2.8385
0.0625 -3.2523 2.8385
0.1020 -3.2518 2.8385
0.2600 -3.2471 2.8385
0.1415 -3.2510 2.8385
0.2995 -3.2453 2.8385
0.1810 -3.2499 2.8385
0.3390 -3.2433 2.8385
0.2205 -3.2487 2.8385
0.3785 -3.2410 2.8385
0.5763 -3.2257 2.8385
0.6159 -3.2218 2.8385
0.4181 -3.2384 2.8385
0.6554 -3.2178 2.8385
0.4576 -3.2356 2.8385
0.6950 -3.2135 2.8385
0.4972 -3.2326 2.8385
0.7346 -3.2088 2.8385
0.5367 -3.2293 2.8385
0.7743 -3.2040 2.8385
0.8932 -3.1878 2.8385
0.8139 -3.1989 2.8385
0.9329 -3.1820 2.8385
1.0520 -3.1627 2.8385
0.8535 -3.1935 2.8385
0.9726 -3.1758 2.8385
1.0918 -3.1558 2.8385
1.2111 -3.1333 2.8385
1.0123 -3.1694 2.8385
1.1315 -3.1485 2.8385
1.2510 -3.1253 2.8385
1.1713 -3.1411 2.8385
1.2908 -3.1170 2.8385
1.3307 -3.1084 2.8385
1.3706 -3.0996 2.8385
1.4105 -3.0905 2.8385
1.4504 -3.0811 2.8385
1.4904 -3.0715 2.8385
1.5304 -3.0615 2.8385
1.5704 -3.0513 2.8385
1.6104 -3.0408 2.8385
-3.3110 -1.9005 2.8385
-3.2735 -1.9260 2.8385
-3.2361 -1.9511 2.8385
-3.1986 -1.9758 2.8385
-3.1612 -2.0002 2.8385
-3.1238 -2.0242 2.8385
-3.0863 -2.0478 2.8385
-3.0489 -2.0711 2.8385
-3.0115 -2.0940 2.8385
-2.9741 -2.1166 2.8385
-2.9367 -2.1388 2.8385
-2.8993 -2.1607 2.8385
-2.8619 -2.1822 2.8385
-2.8245 -2.2034 2.8385
-2.7871 -2.2243 2.8385
-2.7498 -2.2448 2.8385
-2.7124 -2.2650 2.8385
-2.6751 -2.2848 2.8385
-2.6378 -2.3044 2.8385
-2.6004 -2.3236 2.8385
-2.5631 -2.3425 2.8385
-2.5258 -2.3610 2.8385
-2.4886 -2.3792 2.8385
-2.4513 -2.3972 2.8385
-2.4140 -2.4148 2.8385
-2.3768 -2.4321 2.8385
-2.3395 -2.4491 2.8385
-2.3023 -2.4658 2.8385
-2.2651 -2.4821 2.8385
-2.2279 -2.4982 2.8385
-2.1907 -2.5140 2.8385
-2.1535 -2.5295 2.8385
-2.1164 -2.5447 2.8385
-2.0792 -2.5595 2.8385
-2.0421 -2.5741 2.8385
-2.0050 -2.5884 2.8385
-1.9678 -2.6024 2.8385
-1.9307 -2.6161 2.8385
-1.8937 -2.6295 2.8385
-1.8566 -2.6427 2.8385
-1.8195 -2.6556 2.8385
-1.7825 -2.6681 2.8385
-1.7454 -2.6804 2.8385
-1.7084 -2.6924 2.8385
-1.6714 -2.7042 2.8385
-1.6344 -2.7156 2.8385
-1.5974 -2.7268 2.8385
-1.5605 -2.7377 2.8385
-1.5235 -2.7484 2.8385
-1.4865 -2.7588 2.8385
-1.4496 -2.7688 2.8385
-1.4127 -2.7787 2.8385
-1.3758 -2.7882 2.8385
-1.3388 -2.7976 2.8385
-1.3019 -2.8066 2.8385
-1.2651 -2.8154 2.8385
-1.2282 -2.8238 2.8385
-1.1913 -2.8321 2.8385
-1.1545 -2.8401 2.8385
-1.1176 -2.8478 2.8385
-1.0808 -2.8553 2.8385
-1.0440 -2.8625 2.8385
-1.0071 -2.8695 2.8385
-0.9703 -2.8762 2.8385
-0.9335 -2.8826 2.8385
-0.8967 -2.8888 2.8385
-0.8600 -2.8947 2.8385
-0.8232 -2.9004 2.8385
-0.7864 -2.9058 2.8385
-0.7496 -2.9110 2.8385
-0.7129 -2.9159 2.8385
-0.6761 -2.9206 2.8385
-0.6394 -2.9250 2.8385
-0.6027 -2.9292 2.8385
-0.5659 -2.9331 2.8385
-0.5292 -2.9368 2.8385
-0.4925 -2.9402 2.8385
-0.4557 -2.9433 2.8385
-0.4190 -2.9463 2.8385
-0.3823 -2.9490 2.8385
-0.3456 -2.9514 2.8385
-0.3089 -2.9536 2.8385
-0.2722 -2.9555 2.8385
-0.2355 -2.9572 2.8385
-0.1988 -2.9587 2.8385
-0.1621 -2.9599 2.8385
-0.1254 -2.9609 2.8385
-0.0887 -2.9616 2.8385
-0.0520 -2.9620 2.8385
-0.0153 -2.9623 2.8385
0.0214 -2.9623 2.8385
0.0581 -2.9620 2.8385
0.0947 -2.9614 2.8385
0.1314 -2.9607 2.8385
0.1681 -2.9597 2.8385
0.2048 -2.9585 2.8385
0.2415 -2.9570 2.8385
0.2782 -2.9552 2.8385
0.3149 -2.9532 2.8385
0.3516 -2.9510 2.8385
0.3883 -2.9485 2.8385
0.4251 -2.9458 2.8385
0.4618 -2.9428 2.8385
0.4985 -2.9396 2.8385
0.5352 -2.9361 2.8385
0.5720 -2.9325 2.8385
0.6087 -2.9285 2.8385
0.6454 -2.9243 2.8385
0.6822 -2.9198 2.8385
0.7189 -2.9151 2.8385
0.7557 -2.9101 2.8385
0.7924 -2.9049 2.8385
0.8292 -2.8995 2.8385
0.8660 -2.8937 2.8385
0.9028 -2.8878 2.8385
0.9396 -2.8816 2.8385
0.9764 -2.8751 2.8385
1.0132 -2.8683 2.8385
1.0500 -2.8613 2.8385
1.0868 -2.8541 2.8385
1.1237 -2.8466 2.8385
1.1605 -2.8388 2.8385
1.1974 -2.8308 2.8385
1.2342 -2.8225 2.8385
1.2711 -2.8139 2.8385
1.3080 -2.8051 2.8385
1.3449 -2.7961 2.8385
1.3818 -2.7867 2.8385
1.4187 -2.7771 2.8385
1.4557 -2.7672 2.8385
1.4926 -2.7571 2.8385
-3.0478 -1.6829 2.8385
-3.0141 -1.7070 2.8385
-2.9804 -1.7308 2.8385
-2.9467 -1.7542 2.8385
-2.9129 -1.7773 2.8385
-2.8791 -1.8000 2.8385
-2.8453 -1.8225 2.8385
-2.8115 -1.8446 2.8385
-2.7776 -1.8663 2.8385
-2.7438 -1.8878 2.8385
-2.7099 -1.9089 2.8385
-2.6760 -1.9297 2.8385
-2.6421 -1.9502 2.8385
-2.6081 -1.9704 2.8385
-2.5742 -1.9903 2.8385
-2.5402 -2.0099 2.8385
-2.5062 -2.0291 2.8385
-2.4722 -2.0480 2.8385
-2.3702 -2.1030 2.8385
-2.4382 -2.0667 2.8385
-2.4042 -2.0850 2.8385
-2.3361 -2.1207 2.8385
-2.2340 -2.1722 2.8385
-2.0976 -2.2367 2.8385
-2.3021 -2.1382 2.8385
-2.1999 -2.1887 2.8385
-1.9611 -2.2966 2.8385
-2.1658 -2.2050 2.8385
-2.0635 -2.2521 2.8385
-2.2680 -2.1553 2.8385
-1.9270 -2.3108 2.8385
-2.1317 -2.2210 2.8385
-2.0294 -2.2672 2.8385
-1.8929 -2.3248 2.8385
-1.6880 -2.4030 2.8385
-1.8246 -2.3520 2.8385
-1.9953 -2.2820 2.8385
-1.6539 -2.4152 2.8385
-1.8587 -2.3385 2.8385
-1.7905 -2.3652 2.8385
-1.6197 -2.4270 2.8385
-1.5514 -2.4498 2.8385
-1.5856 -2.4386 2.8385
-1.7563 -2.3781 2.8385
-1.4147 -2.4924 2.8385
-1.5172 -2.4609 2.8385
-1.2781 -2.5308 2.8385
-1.7222 -2.3907 2.8385
-1.3806 -2.5024 2.8385
-1.4831 -2.4716 2.8385
-1.2439 -2.5398 2.8385
-1.1414 -2.5652 2.8385
-1.3464 -2.5121 2.8385
-1.2097 -2.5485 2.8385
-1.4489 -2.4821 2.8385
-1.1756 -2.5569 2.8385
-1.1073 -2.5731 2.8385
-1.3122 -2.5216 2.8385
-0.8681 -2.6218 2.8385
-1.0048 -2.5955 2.8385
-0.8339 -2.6278 2.8385
-0.7315 -2.6443 2.8385
-1.0731 -2.5808 2.8385
-0.9706 -2.6025 2.8385
-0.5948 -2.6628 2.8385
-0.7998 -2.6336 2.8385
-0.6973 -2.6493 2.8385
-1.0389 -2.5883 2.8385
-0.7656 -2.6390 2.8385
-0.9364 -2.6091 2.8385
-0.5607 -2.6669 2.8385
-0.6632 -2.6540 2.8385
-0.4582 -2.6775 2.8385
-0.3216 -2.6884 2.8385
-0.9023 -2.6156 2.8385
-0.5265 -2.6706 2.8385
-0.2875 -2.6905 2.8385
-0.4241 -2.6806 2.8385
-0.6290 -2.6585 2.8385
-0.2533 -2.6924 2.8385
-0.1850 -2.6954 2.8385
-0.4924 -2.6742 2.8385
-0.3899 -2.6834 2.8385
-0.0484 -2.6987 2.8385
-0.2192 -2.6940 2.8385
-0.1509 -2.6966 2.8385
0.0882 -2.6981 2.8385
0.2248 -2.6937 2.8385
-0.3558 -2.6860 2.8385
-0.0143 -2.6989 2.8385
0.2589 -2.6921 2.8385
-0.1167 -2.6975 2.8385
0.1223 -2.6974 2.8385
0.3614 -2.6856 2.8385
0.0199 -2.6989 2.8385
0.2931 -2.6901 2.8385
-0.0826 -2.6982 2.8385
0.1565 -2.6964 2.8385
0.3272 -2.6880 2.8385
0.3955 -2.6830 2.8385
0.0540 -2.6986 2.8385
0.6346 -2.6578 2.8385
0.1906 -2.6952 2.8385
0.4980 -2.6736 2.8385
0.4297 -2.6801 2.8385
0.6688 -2.6533 2.8385
0.7712 -2.6381 2.8385
0.7029 -2.6485 2.8385
0.4638 -2.6770 2.8385
0.9079 -2.6146 2.8385
0.8054 -2.6326 2.8385
0.7371 -2.6434 2.8385
1.0445 -2.5871 2.8385
0.8396 -2.6269 2.8385
1.1812 -2.5556 2.8385
0.8737 -2.6208 2.8385
1.0787 -2.5796 2.8385
1.2154 -2.5471 2.8385
1.1129 -2.5718 2.8385
1.2495 -2.5383 2.8385
0.5321 -2.6701 2.8385
0.9420 -2.6081 2.8385
1.1470 -2.5638 2.8385
1.2837 -2.5293 2.8385
0.9762 -2.6013 2.8385
0.5663 -2.6662 2.8385
1.3179 -2.5201 2.8385
1.0104 -2.5943 2.8385
0.6005 -2.6621 2.8385
1.3520 -2.5106 2.8385
1.3862 -2.5008 2.8385
