ply
format ascii 1.0
element vertex 2053
property float32 x
property float32 y
property float32 z
end_header
-26.2598 4.4159 -6.2558
-26.3334 4.1655 -6.1847
-25.6410 3.8012 -5.9366
-25.8346 3.5741 -5.8960
-26.0305 3.3444 -5.8556
-26.2137 3.1101 -5.8118
-26.2884 2.8611 -5.7438
-26.3632 2.6115 -5.6762
-26.8398 2.3970 -5.6940
-27.0490 2.1525 -5.6536
-28.4543 1.9881 -5.8589
-28.5420 1.7176 -5.7890
-28.6299 1.4461 -5.7193
-33.2797 1.3595 -6.5471
-33.3783 1.0417 -6.4660
-7.4331 -0.7692 -1.1416
-7.4938 -1.0664 -1.0693
-7.4481 -0.8428 -1.1235
-7.4948 -1.1397 -1.0493
-7.4632 -0.9169 -1.1054
-7.4945 -1.2130 -1.0291
-7.4785 -0.9914 -1.0874
-7.4943 -1.2865 -1.0091
-7.4943 -1.3602 -0.9891
-7.2412 -1.6019 -0.8793
-7.4942 -1.4342 -0.9693
-7.2163 -1.6687 -0.8574
-7.4943 -1.5085 -0.9495
-7.1914 -1.7354 -0.8357
-7.2663 -1.5349 -0.9015
-7.1667 -1.8019 -0.8142
-7.1421 -1.8683 -0.7929
-7.3354 -2.2208 -0.7386
-7.1177 -1.9346 -0.7717
-7.3423 -2.0710 -0.7771
-7.3595 -2.3049 -0.7221
-7.3028 -2.1352 -0.7541
-7.2488 -2.3464 -0.6926
-7.1858 -2.4782 -0.6498
-7.4570 -2.4925 -0.6934
-7.0902 -2.5212 -0.6230
-6.9642 -2.7031 -0.5585
-6.4787 -2.5859 -0.5030
-7.0480 -2.5821 -0.6013
-6.2829 -2.5775 -0.4718
-7.0060 -2.6427 -0.5798
-6.0974 -2.5696 -0.4422
-5.9212 -2.5621 -0.4143
-6.7005 -3.2082 -0.4001
-6.7586 -3.0013 -0.4556
-6.6457 -3.2603 -0.3797
-6.7181 -3.0604 -0.4356
-7.2396 -3.6378 -0.3950
-7.2061 -3.7076 -0.3745
-6.7557 -3.1557 -0.4207
-36.1741 -19.0510 -1.7864
-36.2059 -20.8730 -1.4102
-36.1819 -19.4989 -1.6928
-36.2143 -21.3419 -1.3153
-36.1898 -19.9518 -1.5989
-36.2227 -21.8164 -1.2200
-36.1978 -20.4097 -1.5047
-21.7061 -18.1207 0.2287
-21.7088 -18.8441 0.3567
-21.7074 -18.4794 0.2924
-21.7102 -19.2152 0.4216
-21.7015 -20.3570 0.6199
-21.6862 -19.5701 0.4866
-21.7030 -20.7558 0.6875
-21.7045 -21.1624 0.7559
-21.6159 -19.8882 0.5509
-21.7060 -21.5770 0.8251
-21.7076 -21.9998 0.8951
-21.7093 -22.4312 0.9660
-21.7143 -23.7810 1.1845
-21.7109 -22.8716 1.0379
-21.7161 -24.2507 1.2594
-21.7126 -23.3215 1.1107
-21.7179 -24.7311 1.3354
-21.7337 -25.7396 1.4917
-21.6356 -25.1247 1.4070
-21.7356 -26.2549 1.5714
-21.7418 -27.8784 1.8188
-21.7376 -26.7827 1.6525
-21.7439 -28.4475 1.9043
-21.7397 -27.3236 1.7349
-21.7461 -29.0317 1.9914
-21.6622 -30.1252 2.1621
-21.7484 -29.6317 2.0803
-21.7489 -30.8763 2.2630
-21.7565 -32.8911 2.5529
-21.7513 -31.5283 2.3575
-22.0210 -34.0083 2.6860
-7.1804 -10.6283 0.8100
-19.7745 -32.5956 2.7006
-19.7576 -33.2981 2.7995
-21.1960 -33.4460 2.6859
-17.9731 -32.4249 2.8383
-19.3149 -33.2904 2.8383
-20.4126 -32.9170 2.6859
-17.3438 -32.0260 2.8383
-18.6295 -32.8459 2.8383
-16.7396 -31.6476 2.8383
-16.1588 -31.2885 2.8383
-15.5997 -30.9473 2.8383
-15.0610 -30.6231 2.8383
-14.5413 -30.3147 2.8383
-28.0872 5.1116 -5.3748
-28.1777 4.8461 -5.3003
-28.2683 4.5800 -5.2259
-28.3590 4.3131 -5.1516
-34.5858 4.9179 -6.1727
-34.5648 4.5741 -6.0598
-34.4928 4.2256 -5.9390
-34.1905 3.8535 -5.7806
-34.3506 3.5358 -5.7015
-34.8883 3.2510 -5.6837
-34.1467 2.8498 -5.4588
-34.2535 2.5263 -5.3722
-34.3605 2.2014 -5.2857
-34.4679 1.8749 -5.1991
-49.3388 2.2075 -7.2957
-7.2934 -1.0102 -0.6860
-7.2930 -1.0813 -0.6660
-7.2926 -1.1527 -0.6461
-7.2922 -1.2243 -0.6262
-7.2914 -1.5131 -0.5471
-7.2913 -1.5860 -0.5274
-7.2920 -1.2961 -0.6064
-7.2913 -1.6592 -0.5077
-7.2917 -1.3682 -0.5866
-7.2913 -1.7328 -0.4881
-7.2915 -1.4405 -0.5668
-7.2914 -1.8067 -0.4684
-7.1969 -2.0786 -0.3848
-7.2915 -1.8809 -0.4488
-7.1964 -2.1533 -0.3653
-7.1980 -1.9305 -0.4236
-7.1961 -2.2284 -0.3459
-7.1974 -2.0043 -0.4042
-7.1935 -2.3033 -0.3263
-7.1397 -2.3617 -0.3046
-6.6345 -2.4803 -0.2110
-7.0298 -2.4002 -0.2809
-6.4304 -2.4745 -0.1870
-6.2374 -2.4691 -0.1643
-6.9880 -2.4610 -0.2602
-6.0543 -2.4640 -0.1429
-6.9406 -2.5192 -0.2396
-6.8205 -2.8524 -0.1422
-6.6015 -3.0635 -0.0644
-6.7650 -2.9057 -0.1224
-7.1138 -3.3846 -0.0495
-6.7101 -2.9587 -0.1028
-7.0810 -3.4528 -0.0294
-6.6556 -3.0112 -0.0835
-36.1592 -18.0636 -0.0478
-36.1667 -18.5038 0.0547
-36.1742 -18.9486 0.1579
-21.6712 -12.1612 0.2820
-21.6722 -12.4377 0.3452
-36.1818 -19.3983 0.2616
-21.6732 -12.7173 0.4088
-36.1895 -19.8530 0.3660
-21.6743 -13.0003 0.4728
-21.6753 -13.2867 0.5373
-21.6764 -13.5767 0.6023
-21.6076 -14.4211 0.7975
-21.6775 -13.8704 0.6677
-21.5969 -14.7175 0.8638
-21.6786 -14.1678 0.7336
-21.6939 -15.0927 0.9353
-21.6963 -15.7257 1.0724
-21.6951 -15.4070 1.0035
-21.6975 -16.0492 1.1420
-21.7012 -17.0497 1.3549
-21.6987 -16.3776 1.2122
-21.7025 -17.3937 1.4274
-21.7000 -16.7110 1.2832
-21.7038 -17.7434 1.5007
-21.7065 -18.4604 1.6500
-21.7051 -18.0989 1.5749
-21.7079 -18.8282 1.7260
-21.6150 -19.8823 1.9511
-21.7092 -19.2025 1.8029
-21.7006 -20.3547 2.0387
-21.6957 -19.5700 1.8796
-21.7021 -20.7574 2.1199
-21.7052 -21.5867 2.2859
-21.7036 -21.1680 2.2023
-21.7067 -22.0140 2.3709
-21.7084 -22.4500 2.4571
-22.1408 -23.8118 2.6861
-21.7100 -22.8954 2.5448
-21.4046 -23.4765 2.6859
-20.7048 -23.1604 2.6859
-19.7433 -22.9756 2.7333
-19.7285 -23.4191 2.8197
-20.0378 -22.8612 2.6859
-18.0888 -22.8033 2.8383
-19.2440 -23.3043 2.8383
-17.5455 -22.5706 2.8383
-18.6544 -23.0476 2.8383
-17.0231 -22.3488 2.8383
-16.0357 -21.9352 2.8383
-16.5202 -22.1372 2.8383
-15.5682 -21.7422 2.8383
-15.1169 -21.5577 2.8383
-7.1515 -10.6390 1.4236
-14.6807 -21.3813 2.8383
-13.8503 -21.0507 2.8383
-12.6979 -20.6048 2.8383
-13.4544 -20.8957 2.8383
-12.3359 -20.4682 2.8383
-13.0705 -20.7472 2.8383
-11.9840 -20.3372 2.8383
-11.3084 -20.0906 2.8383
-11.6417 -20.2114 2.8383
-10.9837 -19.9746 2.8383
-10.6671 -19.8631 2.8383
-10.3582 -19.7561 2.8383
-10.0567 -19.6531 2.8383
-9.2380 -18.5043 2.6859
-8.9655 -18.4144 2.6859
-32.8819 6.4336 -4.7698
-32.9832 6.1224 -4.6803
-33.1848 5.8281 -4.6048
-47.7401 4.1612 -5.3182
-48.5035 3.7572 -5.2598
-49.5087 1.9218 -4.7897
-48.8703 0.9562 -4.4457
-38.3986 -6.6873 -1.3345
-38.4053 -7.0688 -1.2279
-7.1011 -1.3775 -0.2073
-7.1006 -1.4483 -0.1875
-7.1003 -1.5193 -0.1677
-7.0999 -1.5907 -0.1478
-7.0996 -1.6623 -0.1280
-7.0993 -1.7343 -0.1081
-7.0990 -1.8066 -0.0882
-7.0988 -1.8793 -0.0683
-7.0986 -1.9524 -0.0483
-7.0984 -2.0259 -0.0282
-7.0983 -2.0999 -0.0082
-7.0982 -2.1742 0.0120
-7.2100 -2.2845 0.0327
-6.9918 -2.2896 0.0517
-7.0567 -2.3862 0.0724
-6.7974 -2.3716 0.0892
-6.5795 -2.6573 0.1822
-6.5846 -2.3687 0.1055
-6.3834 -2.3660 0.1207
-6.6666 -2.7675 0.2043
-6.1930 -2.3635 0.1352
-6.6128 -2.8203 0.2223
-6.7357 -2.6452 0.1667
-7.0273 -3.0775 0.2572
-6.9952 -3.1442 0.2770
-21.6652 -10.7629 1.1223
-21.6624 -9.9895 0.9233
-21.6662 -11.0259 1.1896
-21.6672 -11.2916 1.2574
-21.6633 -10.2447 0.9892
-21.6682 -11.5602 1.3257
-21.6643 -10.5025 1.0555
-21.6692 -11.8318 1.3945
-21.6733 -12.9495 1.6756
-21.6702 -12.1064 1.4639
-21.6744 -13.2374 1.7475
-21.6712 -12.3841 1.5338
-21.6755 -13.5289 1.8201
-21.6723 -12.6651 1.6044
-21.6766 -13.8242 1.8934
-21.6777 -14.1233 1.9674
-21.6942 -15.3699 2.2728
-21.6067 -14.3785 2.0354
-21.6953 -15.6908 2.3511
-21.5959 -14.6767 2.1096
-21.6966 -16.0164 2.4303
-21.6930 -15.0536 2.1955
-21.6978 -16.3470 2.5105
-21.6990 -16.6828 2.5917
-19.9130 -16.5891 2.6859
-21.7969 -17.0997 2.6859
-19.7262 -16.7638 2.7396
-21.1396 -16.9208 2.6859
-19.7126 -17.0880 2.8176
-20.5122 -16.7507 2.6859
-19.3017 -17.0664 2.8383
-18.7682 -16.9260 2.8383
-16.8311 -16.4247 2.8383
-18.2558 -16.7920 2.8383
-16.3900 -16.3126 2.8383
-17.7629 -16.6641 2.8383
-15.9642 -16.2052 2.8383
-17.2883 -16.5417 2.8383
-15.5528 -16.1023 2.8383
-15.1549 -16.0036 2.8383
-13.6844 -15.6462 2.8383
-14.7698 -15.9088 2.8383
-13.3439 -15.5653 2.8383
-14.3968 -15.8177 2.8383
-13.0131 -15.4875 2.8383
-14.0352 -15.7303 2.8383
-12.6915 -15.4125 2.8383
-12.3786 -15.3404 2.8383
-11.2065 -15.0771 2.8383
-12.0741 -15.2709 2.8383
-10.9314 -15.0170 2.8383
-11.7775 -15.2039 2.8383
-10.6628 -14.9591 2.8383
-11.4884 -15.1393 2.8383
-10.4005 -14.9031 2.8383
-10.1440 -14.8491 2.8383
-8.6797 -13.8644 2.6859
-7.1320 -10.6672 2.0462
-8.4615 -13.8215 2.6859
-9.1298 -13.9549 2.6859
-8.2475 -13.7801 2.6859
-8.9024 -13.9089 2.6859
-8.0377 -13.7400 2.6859
-7.8317 -13.7013 2.6859
-7.6295 -13.6639 2.6859
-7.4308 -13.6277 2.6859
-7.2356 -13.5928 2.6859
-7.0437 -13.5590 2.6859
-6.8549 -13.5264 2.6859
-6.6692 -13.4949 2.6859
-40.1126 8.3925 -3.9752
-40.0251 7.9712 -3.8443
-39.9385 7.5536 -3.7146
-39.8528 7.1395 -3.5862
-39.7679 6.7288 -3.4590
-39.7329 6.3291 -3.3371
-42.4616 6.3444 -3.4398
-48.6323 6.7877 -3.7955
-48.9958 6.3576 -3.6792
-48.1910 5.7815 -3.4771
-49.1408 5.4158 -3.4017
-48.5136 4.8743 -3.2167
-48.8832 3.9625 -2.9574
-47.2733 3.3744 -2.7234
-49.0179 3.0253 -2.6826
-49.5625 2.1029 -2.4279
-43.8068 -4.4723 -0.2824
-38.6554 -4.3220 -0.1397
-38.3632 -4.6630 -0.0299
-38.3698 -5.0385 0.0789
-38.3764 -5.4151 0.1880
-38.3830 -5.7929 0.2972
-21.7487 -3.4967 0.2304
-21.6413 -3.6931 0.2911
-21.5574 -3.8925 0.3517
-21.5582 -4.1072 0.4135
-21.5598 -4.3229 0.4756
-21.6436 -4.5567 0.5398
-21.6444 -4.7749 0.6025
-21.6452 -4.9941 0.6653
-21.6460 -5.2144 0.7284
-6.9169 -1.7369 0.2530
-6.9163 -1.8078 0.2732
-7.4312 -2.0191 0.3155
-7.3440 -2.0716 0.3335
-7.2584 -2.1233 0.3512
-7.2848 -2.2075 0.3742
-7.1912 -2.2552 0.3910
-6.9677 -2.2592 0.3999
-6.7456 -2.2594 0.4076
-6.5358 -2.2596 0.4148
-6.3375 -2.2599 0.4217
-7.0405 -2.5876 0.4902
-7.0088 -2.6532 0.5098
-6.9772 -2.7187 0.5293
-6.9456 -2.7842 0.5487
-6.9141 -2.8497 0.5682
-6.8826 -2.9151 0.5876
-21.5756 -9.3860 1.9113
-21.5785 -9.6374 1.9815
-21.6614 -9.9278 2.0599
-21.6624 -10.1841 2.1314
-21.6633 -10.4428 2.2034
-21.6643 -10.7042 2.2761
-21.6652 -10.9682 2.3495
-21.6662 -11.2351 2.4236
-21.6672 -11.5048 2.4984
-21.6682 -11.7776 2.5739
-21.9622 -12.2164 2.6860
-21.3422 -12.1458 2.6859
-20.7505 -12.0788 2.6859
-20.1847 -12.0151 2.6859
-19.7252 -12.0044 2.6972
-19.7094 -12.2607 2.7681
-19.6832 -12.5134 2.8383
-19.1778 -12.4576 2.8383
-18.6921 -12.4044 2.8383
-18.2246 -12.3534 2.8383
-17.7744 -12.3047 2.8383
-17.3403 -12.2579 2.8383
-16.9214 -12.2131 2.8383
-16.5169 -12.1701 2.8383
-16.1259 -12.1287 2.8383
-15.7477 -12.0891 2.8383
-15.3815 -12.0509 2.8383
-15.0268 -12.0142 2.8383
-14.6830 -11.9789 2.8383
-14.3494 -11.9448 2.8383
-14.0256 -11.9121 2.8383
-13.7110 -11.8805 2.8383
-13.4052 -11.8500 2.8383
-13.1078 -11.8207 2.8383
-12.8184 -11.7923 2.8383
-12.5365 -11.7649 2.8383
-12.2619 -11.7384 2.8383
-11.9942 -11.7129 2.8383
-11.7331 -11.6882 2.8383
-11.4782 -11.6643 2.8383
-11.2293 -11.6412 2.8383
-10.9862 -11.6188 2.8383
-10.7486 -11.5972 2.8383
-10.5162 -11.5763 2.8383
-10.2889 -11.5560 2.8383
-10.0664 -11.5364 2.8383
-9.8484 -11.5174 2.8383
-9.1176 -10.8816 2.6859
-8.9196 -10.8647 2.6859
-8.7255 -10.8483 2.6859
-8.5350 -10.8324 2.6859
-8.3481 -10.8171 2.6859
-8.1646 -10.8022 2.6859
-7.9844 -10.7877 2.6859
-7.8074 -10.7737 2.6859
-7.6333 -10.7601 2.6859
-7.4622 -10.7470 2.6859
-7.2259 -10.6341 2.6609
-7.1282 -10.7218 2.6859
-6.9652 -10.7097 2.6859
-6.8047 -10.6981 2.6859
-6.6465 -10.6868 2.6859
-6.4907 -10.6758 2.6859
-6.3371 -10.6652 2.6859
-6.1856 -10.6549 2.6859
-6.0362 -10.6449 2.6859
-5.8888 -10.6352 2.6859
-5.7734 -10.6814 2.7000
-5.7633 -10.9269 2.7644
-5.7528 -11.1813 2.8312
-5.6187 -11.1994 2.8380
-39.3047 8.7548 -2.0948
-39.3116 8.3594 -1.9791
-39.3185 7.9656 -1.8638
-39.1730 7.5439 -1.7422
-39.1799 7.1546 -1.6281
-39.1867 6.7665 -1.5144
-39.5984 6.4457 -1.4152
-42.2671 6.4631 -1.3886
-49.5933 5.1582 -0.9174
-21.6273 -0.0452 0.2757
-21.6280 -0.2531 0.3371
-21.6288 -0.4611 0.3986
-21.6295 -0.6691 0.4601
-21.6303 -0.8773 0.5216
-21.6311 -1.0857 0.5833
-21.6318 -1.2944 0.6450
-21.6326 -1.5033 0.7069
-21.6334 -1.7126 0.7689
-21.6341 -1.9222 0.8310
-21.6349 -2.1323 0.8933
-21.6357 -2.3428 0.9557
-21.6365 -2.5538 1.0183
-21.6372 -2.7653 1.0811
-21.6380 -2.9774 1.1441
-21.6388 -3.1902 1.2073
-21.6396 -3.4036 1.2708
-21.6404 -3.6178 1.3345
-21.6412 -3.8328 1.3984
-21.5572 -4.0327 1.4569
-21.5580 -4.2485 1.5211
-21.5597 -4.4653 1.5857
-21.6435 -4.7010 1.6569
-21.6443 -4.9206 1.7224
-21.6451 -5.1412 1.7882
-21.6459 -5.3629 1.8543
-21.6467 -5.5858 1.9208
-21.6475 -5.8099 1.9878
-21.6484 -6.0353 2.0551
-21.6492 -6.2621 2.1228
-7.2087 -2.1610 0.7295
-7.1718 -2.2259 0.7485
-7.1350 -2.2906 0.7675
-6.4879 -2.1525 0.7187
-21.6534 -7.4181 2.4687
-21.6543 -7.6541 2.5394
-22.2808 -8.1200 2.6861
-21.6832 -8.1419 2.6859
-21.1137 -8.1633 2.6859
-20.5689 -8.1837 2.6859
-20.0471 -8.2031 2.6859
-19.7103 -8.2905 2.7084
-19.6985 -8.5126 2.7750
-19.6605 -8.7248 2.8383
-19.1914 -8.7420 2.8383
-18.7399 -8.7584 2.8383
-18.3048 -8.7741 2.8383
-17.8851 -8.7892 2.8383
-17.4801 -8.8037 2.8383
-17.0888 -8.8177 2.8383
-16.7106 -8.8310 2.8383
-16.3446 -8.8439 2.8383
-15.9904 -8.8563 2.8383
-15.6471 -8.8682 2.8383
-15.3143 -8.8797 2.8383
-14.9914 -8.8908 2.8383
-14.6779 -8.9014 2.8383
-14.3734 -8.9118 2.8383
-14.0775 -8.9217 2.8383
-13.7896 -8.9313 2.8383
-13.5095 -8.9406 2.8383
-13.2368 -8.9496 2.8383
-12.9711 -8.9582 2.8383
-12.7121 -8.9666 2.8383
-12.4596 -8.9748 2.8383
-12.2132 -8.9826 2.8383
-11.9726 -8.9903 2.8383
-11.7377 -8.9976 2.8383
-11.5081 -9.0048 2.8383
-11.2837 -9.0117 2.8383
-11.0643 -9.0184 2.8383
-10.8495 -9.0249 2.8383
-10.6393 -9.0312 2.8383
-10.4335 -9.0374 2.8383
-10.2319 -9.0433 2.8383
-10.0343 -9.0491 2.8383
-9.8406 -9.0547 2.8383
-9.1324 -8.5737 2.6859
-8.9560 -8.5787 2.6859
-8.7828 -8.5836 2.6859
-8.6128 -8.5883 2.6859
-8.4458 -8.5929 2.6859
-8.2817 -8.5973 2.6859
-8.1204 -8.6017 2.6859
-7.9618 -8.6059 2.6859
-7.8059 -8.6100 2.6859
-7.6524 -8.6140 2.6859
-7.5013 -8.6179 2.6859
-7.3526 -8.6216 2.6859
-7.2062 -8.6253 2.6859
-7.0619 -8.6288 2.6859
-6.9197 -8.6323 2.6859
-6.7796 -8.6357 2.6859
-6.6414 -8.6390 2.6859
-6.5051 -8.6421 2.6859
-6.3707 -8.6453 2.6859
-6.2380 -8.6483 2.6859
-6.1070 -8.6512 2.6859
-5.9777 -8.6541 2.6859
-5.8499 -8.6568 2.6859
-5.7673 -8.7255 2.7064
-5.7584 -8.9088 2.7624
-5.7493 -9.0975 2.8201
-5.6577 -9.1590 2.8383
-5.5303 -9.1615 2.8383
-5.4044 -9.1640 2.8383
-5.2797 -9.1664 2.8383
-5.1563 -9.1688 2.8383
-5.0342 -9.1710 2.8383
-4.9133 -9.1733 2.8383
-4.7935 -9.1754 2.8383
-4.6749 -9.1775 2.8383
-37.8939 8.9535 -0.2820
-37.9006 8.5712 -0.1740
-38.0330 8.2177 -0.0665
-39.1639 8.0688 0.0427
-39.1707 7.6787 0.1536
-39.1775 7.2898 0.2644
-39.1843 6.9023 0.3750
-21.6049 3.5921 0.2677
-21.6057 3.3793 0.3285
-21.6065 3.1671 0.3893
-21.6072 2.9556 0.4501
-21.6080 2.7446 0.5108
-21.6088 2.5341 0.5715
-21.6096 2.3241 0.6322
-21.6103 2.1145 0.6929
-21.6111 1.9053 0.7537
-21.6119 1.6964 0.8145
-21.6126 1.4878 0.8753
-21.5380 1.2750 0.9329
-21.5304 1.0672 0.9933
-21.5311 0.8600 1.0541
-21.6240 0.6558 1.1198
-21.6248 0.4479 1.1810
-21.6255 0.2401 1.2424
-21.6263 0.0323 1.3039
-21.6271 -0.1756 1.3656
-21.6278 -0.3835 1.4274
-21.6286 -0.5916 1.4894
-21.6294 -0.7998 1.5516
-21.6301 -1.0083 1.6140
-21.6309 -1.2170 1.6766
-21.6317 -1.4260 1.7394
-21.6324 -1.6354 1.8024
-21.6332 -1.8451 1.8657
-21.6340 -2.0552 1.9292
-21.6347 -2.2659 1.9931
-21.6355 -2.4770 2.0572
-21.6363 -2.6887 2.1216
-21.6371 -2.9010 2.1863
-21.6378 -3.1139 2.2514
-21.6386 -3.3276 2.3168
-21.6394 -3.5419 2.3826
-21.6402 -3.7571 2.4487
-21.5563 -3.9576 2.5054
-21.5570 -4.1736 2.5721
-21.9399 -4.4684 2.6860
-21.3929 -4.5731 2.6859
-20.8694 -4.6730 2.6859
-20.3675 -4.7683 2.6859
-19.8858 -4.8594 2.6859
-19.6989 -5.0168 2.7241
-19.6879 -5.2180 2.7864
-19.6027 -5.3997 2.8383
-19.1669 -5.4806 2.8383
-7.1915 -2.1322 1.0888
-7.1562 -2.1977 1.1074
-7.1210 -2.2630 1.1260
-17.5713 -5.7731 2.8383
-17.2053 -5.8393 2.8383
-16.8511 -5.9031 2.8383
-16.5080 -5.9644 2.8383
-16.1755 -6.0236 2.8383
-15.8530 -6.0806 2.8383
-15.5401 -6.1357 2.8383
-15.2362 -6.1888 2.8383
-14.9409 -6.2401 2.8383
-14.6538 -6.2896 2.8383
-14.3746 -6.3376 2.8383
-14.1028 -6.3839 2.8383
-13.8381 -6.4287 2.8383
-13.5803 -6.4721 2.8383
-13.3289 -6.5141 2.8383
-13.0838 -6.5547 2.8383
-12.8446 -6.5942 2.8383
-12.6111 -6.6324 2.8383
-12.3831 -6.6694 2.8383
-12.1603 -6.7053 2.8383
-11.9425 -6.7402 2.8383
-11.7295 -6.7740 2.8383
-11.5211 -6.8068 2.8383
-11.3172 -6.8387 2.8383
-11.1175 -6.8697 2.8383
-10.9220 -6.8998 2.8383
-10.7303 -6.9290 2.8383
-10.5425 -6.9574 2.8383
-10.3583 -6.9850 2.8383
-10.1776 -7.0119 2.8383
-10.0004 -7.0380 2.8383
-9.8264 -7.0634 2.8383
-9.1370 -6.7076 2.6859
-8.9782 -6.7304 2.6859
-8.8222 -6.7525 2.6859
-8.6688 -6.7741 2.6859
-8.5180 -6.7951 2.6859
-8.3697 -6.8156 2.6859
-8.2237 -6.8355 2.6859
-8.0802 -6.8549 2.6859
-7.9388 -6.8739 2.6859
-7.7997 -6.8923 2.6859
-7.6626 -6.9102 2.6859
-7.5276 -6.9277 2.6859
-7.3945 -6.9448 2.6859
-7.2634 -6.9614 2.6859
-7.1340 -6.9776 2.6859
-7.0065 -6.9934 2.6859
-6.8807 -7.0088 2.6859
-6.7565 -7.0238 2.6859
-6.6340 -7.0384 2.6859
-6.5130 -7.0527 2.6859
-6.3936 -7.0666 2.6859
-6.2756 -7.0801 2.6859
-6.1591 -7.0934 2.6859
-6.0439 -7.1063 2.6859
-5.9301 -7.1188 2.6859
-5.8175 -7.1311 2.6859
-5.7624 -7.2133 2.7124
-5.7545 -7.3570 2.7619
-5.7464 -7.5043 2.8128
-5.6849 -7.5843 2.8383
-5.5722 -7.5957 2.8383
-5.4607 -7.6068 2.8383
-5.3503 -7.6176 2.8383
-5.2410 -7.6282 2.8383
-5.1327 -7.6385 2.8383
-5.0254 -7.6485 2.8383
-4.9191 -7.6583 2.8383
-4.8137 -7.6677 2.8383
-4.7093 -7.6770 2.8383
-4.6057 -7.6860 2.8383
-4.5030 -7.6948 2.8383
-4.4012 -7.7033 2.8383
-4.3001 -7.7116 2.8383
-4.1999 -7.7197 2.8383
-4.1004 -7.7275 2.8383
-4.0016 -7.7352 2.8383
-21.5976 5.3969 0.8350
-21.5984 5.1776 0.8944
-21.5992 4.9595 0.9537
-21.6000 4.7422 1.0130
-21.6008 4.5259 1.0723
-21.6016 4.3104 1.1316
-21.6024 4.0957 1.1910
-21.6032 3.8818 1.2503
-21.6039 3.6686 1.3097
-21.6047 3.4561 1.3691
-21.6055 3.2442 1.4286
-21.6063 3.0329 1.4882
-21.6070 2.8221 1.5479
-21.6078 2.6119 1.6077
-21.6086 2.4020 1.6675
-21.6094 2.1926 1.7275
-21.6101 1.9835 1.7877
-21.6109 1.7748 1.8480
-21.6117 1.5663 1.9084
-21.5370 1.3534 1.9621
-21.5294 1.1456 2.0219
-21.5302 0.9385 2.0826
-21.6231 0.7347 2.1528
-21.6238 0.5269 2.2142
-21.6246 0.3192 2.2758
-21.6253 0.1114 2.3377
-21.6261 -0.0964 2.3999
-21.6269 -0.3044 2.4623
-21.6276 -0.5124 2.5250
-21.6284 -0.7207 2.5880
-21.9118 -0.9413 2.6860
-21.3989 -1.1257 2.6859
-20.9071 -1.3019 2.6859
-20.4349 -1.4702 2.6859
-19.9812 -1.6313 2.6859
-19.6940 -1.7992 2.7064
-19.6837 -1.9899 2.7645
-19.6734 -2.1809 2.8228
-19.3689 -2.3368 2.8383
-18.9706 -2.4749 2.8383
-18.5857 -2.6077 2.8383
-18.2137 -2.7353 2.8383
-17.8538 -2.8582 2.8383
-17.5053 -2.9766 2.8383
-17.1678 -3.0906 2.8383
-16.8406 -3.2006 2.8383
-16.5232 -3.3067 2.8383
-16.2151 -3.4090 2.8383
-15.9159 -3.5079 2.8383
-15.6251 -3.6034 2.8383
-15.3424 -3.6957 2.8383
-15.0674 -3.7850 2.8383
-14.7997 -3.8714 2.8383
-14.5390 -3.9550 2.8383
-14.2850 -4.0360 2.8383
-7.2034 -2.1113 1.4565
-7.1675 -2.1771 1.4746
-7.1320 -2.2427 1.4928
-7.0967 -2.3081 1.5111
-13.1056 -4.4048 2.8383
-12.8861 -4.4720 2.8383
-12.6716 -4.5373 2.8383
-12.4618 -4.6007 2.8383
-12.2566 -4.6622 2.8383
-12.0558 -4.7221 2.8383
-11.8592 -4.7802 2.8383
-11.6667 -4.8367 2.8383
-11.4780 -4.8917 2.8383
-11.2932 -4.9451 2.8383
-11.1119 -4.9971 2.8383
-10.9342 -5.0478 2.8383
-10.7598 -5.0970 2.8383
-10.5887 -5.1450 2.8383
-10.4207 -5.1917 2.8383
-10.2557 -5.2372 2.8383
-10.0937 -5.2814 2.8383
-9.9344 -5.3246 2.8383
-9.7779 -5.3667 2.8383
-9.1073 -5.1173 2.6859
-8.9641 -5.1552 2.6859
-8.8232 -5.1920 2.6859
-8.6846 -5.2280 2.6859
-8.5482 -5.2631 2.6859
-8.4139 -5.2973 2.6859
-8.2816 -5.3307 2.6859
-8.1513 -5.3632 2.6859
-8.0229 -5.3950 2.6859
-7.8964 -5.4260 2.6859
-7.7717 -5.4563 2.6859
-7.6487 -5.4858 2.6859
-7.5274 -5.5147 2.6859
-7.4078 -5.5428 2.6859
-7.2897 -5.5704 2.6859
-7.1732 -5.5972 2.6859
-7.0582 -5.6234 2.6859
-6.9447 -5.6490 2.6859
-6.8325 -5.6741 2.6859
-6.7217 -5.6985 2.6859
-6.6123 -5.7224 2.6859
-6.5042 -5.7457 2.6859
-6.3973 -5.7684 2.6859
-6.2916 -5.7907 2.6859
-6.1871 -5.8124 2.6859
-6.0838 -5.8337 2.6859
-5.9816 -5.8544 2.6859
-5.8804 -5.8747 2.6859
-5.7804 -5.8945 2.6859
-5.7577 -5.9933 2.7220
-5.7506 -6.1105 2.7664
-5.7433 -6.2301 2.8118
-5.6959 -6.3079 2.8383
-5.5953 -6.3265 2.8383
-5.4956 -6.3447 2.8383
-5.3969 -6.3624 2.8383
-5.2990 -6.3798 2.8383
-5.2020 -6.3967 2.8383
-5.1059 -6.4133 2.8383
-5.0105 -6.4294 2.8383
-4.9160 -6.4452 2.8383
-4.8222 -6.4606 2.8383
-4.7292 -6.4756 2.8383
-4.6370 -6.4903 2.8383
-4.5454 -6.5046 2.8383
-4.4545 -6.5186 2.8383
-4.3643 -6.5322 2.8383
-4.2748 -6.5455 2.8383
-4.1859 -6.5584 2.8383
-4.0976 -6.5710 2.8383
-4.0099 -6.5834 2.8383
-3.9228 -6.5954 2.8383
-3.8363 -6.6071 2.8383
-3.7503 -6.6185 2.8383
-3.6649 -6.6295 2.8383
-3.5799 -6.6403 2.8383
-3.4955 -6.6508 2.8383
-21.5958 5.6932 1.8404
-21.5966 5.4733 1.8976
-21.5974 5.2545 1.9548
-21.5982 5.0367 2.0121
-21.5990 4.8198 2.0695
-21.5998 4.6039 2.1270
-21.6006 4.3887 2.1847
-21.6014 4.1744 2.2425
-21.6022 3.9608 2.3004
-21.6030 3.7479 2.3585
-21.6037 3.5356 2.4167
-21.6045 3.3240 2.4751
-21.6053 3.1129 2.5337
-21.6061 2.9024 2.5926
-21.8870 2.7273 2.6860
-21.4093 2.4600 2.6859
-20.9504 2.2042 2.6859
-20.5090 1.9595 2.6859
-20.0841 1.7250 2.6859
-19.6985 1.5019 2.6892
-19.6795 1.3109 2.7416
-19.6700 1.1210 2.7955
-19.5821 0.9277 2.8383
-19.2061 0.7253 2.8383
-18.8425 0.5306 2.8383
-18.4904 0.3430 2.8383
-18.1494 0.1624 2.8383
-17.8189 -0.0118 2.8383
-17.4983 -0.1798 2.8383
-17.1872 -0.3419 2.8383
-16.8851 -0.4985 2.8383
-16.5915 -0.6497 2.8383
-16.3061 -0.7959 2.8383
-16.0286 -0.9373 2.8383
-15.7584 -1.0740 2.8383
-15.4954 -1.2064 2.8383
-15.2391 -1.3346 2.8383
-14.9894 -1.4587 2.8383
-14.7458 -1.5791 2.8383
-14.5082 -1.6957 2.8383
-14.2764 -1.8088 2.8383
-14.0499 -1.9185 2.8383
-13.8288 -2.0250 2.8383
-13.6126 -2.1284 2.8383
-13.4013 -2.2288 2.8383
-13.1947 -2.3263 2.8383
-12.9925 -2.4211 2.8383
-12.7946 -2.5132 2.8383
-12.6008 -2.6028 2.8383
-12.4110 -2.6898 2.8383
-12.2251 -2.7746 2.8383
-12.0429 -2.8571 2.8383
-11.8642 -2.9373 2.8383
-11.6889 -3.0155 2.8383
-11.5170 -3.0916 2.8383
-11.3482 -3.1657 2.8383
-7.2159 -2.0894 1.8315
-7.1798 -2.1554 1.8493
-7.1439 -2.2213 1.8671
-7.1081 -2.2871 1.8850
-7.0728 -2.3527 1.9030
-10.3972 -3.5725 2.8383
-10.2480 -3.6346 2.8383
-10.1013 -3.6951 2.8383
-9.9569 -3.7541 2.8383
-9.8149 -3.8118 2.8383
-9.1555 -3.6603 2.6859
-9.0252 -3.7123 2.6859
-8.8969 -3.7631 2.6859
-8.7704 -3.8126 2.6859
-8.6459 -3.8610 2.6859
-8.5231 -3.9083 2.6859
-8.4021 -3.9545 2.6859
-8.2827 -3.9996 2.6859
-8.1650 -4.0437 2.6859
-8.0489 -4.0868 2.6859
-7.9344 -4.1290 2.6859
-7.8214 -4.1702 2.6859
-7.7098 -4.2104 2.6859
-7.5996 -4.2498 2.6859
-7.4909 -4.2883 2.6859
-7.3834 -4.3259 2.6859
-7.2773 -4.3627 2.6859
-7.1725 -4.3988 2.6859
-7.0689 -4.4340 2.6859
-6.9665 -4.4684 2.6859
-6.8652 -4.5021 2.6859
-6.7651 -4.5351 2.6859
-6.6662 -4.5674 2.6859
-6.5683 -4.5989 2.6859
-6.4714 -4.6298 2.6859
-6.3756 -4.6600 2.6859
-6.2807 -4.6896 2.6859
-6.1869 -4.7186 2.6859
-6.0939 -4.7469 2.6859
-6.0019 -4.7746 2.6859
-5.9108 -4.8017 2.6859
-5.8206 -4.8282 2.6859
-5.7587 -4.8775 2.6988
-5.7524 -4.9745 2.7382
-5.7459 -5.0732 2.7783
-5.7394 -5.1735 2.8192
-5.6872 -5.2337 2.8383
-5.5969 -5.2584 2.8383
-5.5074 -5.2825 2.8383
-5.4186 -5.3061 2.8383
-5.3306 -5.3292 2.8383
-5.2433 -5.3518 2.8383
-5.1567 -5.3739 2.8383
-5.0708 -5.3955 2.8383
-4.9855 -5.4167 2.8383
-4.9009 -5.4374 2.8383
-4.8169 -5.4576 2.8383
-4.7335 -5.4774 2.8383
-4.6507 -5.4968 2.8383
-4.5685 -5.5157 2.8383
-4.4869 -5.5342 2.8383
-4.4058 -5.5523 2.8383
-4.3252 -5.5700 2.8383
-4.2452 -5.5873 2.8383
-4.1657 -5.6042 2.8383
-4.0867 -5.6207 2.8383
-4.0082 -5.6368 2.8383
-3.9301 -5.6526 2.8383
-3.8526 -5.6680 2.8383
-3.7754 -5.6830 2.8383
-3.6987 -5.6977 2.8383
-3.6225 -5.7120 2.8383
-3.5466 -5.7259 2.8383
-3.4712 -5.7395 2.8383
-3.3961 -5.7528 2.8383
-3.3214 -5.7658 2.8383
-3.2471 -5.7784 2.8383
-3.1732 -5.7907 2.8383
-3.0996 -5.8027 2.8383
-20.2796 5.6289 2.6859
-19.8984 5.3197 2.6859
-19.6764 5.0601 2.7061
-19.6678 4.8589 2.7551
-19.6592 4.6587 2.8044
-19.5448 4.4356 2.8383
-19.2030 4.1662 2.8383
-18.8716 3.9064 2.8383
-18.5500 3.6559 2.8383
-18.2378 3.4141 2.8383
-17.9346 3.1808 2.8383
-17.6398 2.9553 2.8383
-17.3532 2.7374 2.8383
-17.0744 2.5267 2.8383
-16.8029 2.3229 2.8383
-16.5385 2.1256 2.8383
-16.2809 1.9347 2.8383
-16.0297 1.7496 2.8383
-15.7847 1.5704 2.8383
-15.5457 1.3966 2.8383
-15.3124 1.2281 2.8383
-15.0845 1.0647 2.8383
-14.8619 0.9060 2.8383
-14.6443 0.7521 2.8383
-14.4315 0.6025 2.8383
-14.2234 0.4572 2.8383
-14.0198 0.3160 2.8383
-13.8205 0.1788 2.8383
-13.6253 0.0454 2.8383
-13.4342 -0.0843 2.8383
-13.2468 -0.2106 2.8383
-13.0632 -0.3334 2.8383
-12.8832 -0.4530 2.8383
-12.7066 -0.5694 2.8383
-12.5334 -0.6828 2.8383
-12.3634 -0.7933 2.8383
-12.1965 -0.9009 2.8383
-12.0327 -1.0057 2.8383
-11.8717 -1.1080 2.8383
-11.7135 -1.2076 2.8383
-11.5581 -1.3049 2.8383
-11.4053 -1.3997 2.8383
-11.2551 -1.4922 2.8383
-11.1073 -1.5825 2.8383
-10.9620 -1.6706 2.8383
-10.8189 -1.7566 2.8383
-10.6781 -1.8406 2.8383
-10.5395 -1.9225 2.8383
-10.4030 -2.0027 2.8383
-10.2686 -2.0809 2.8383
-10.1362 -2.1574 2.8383
-10.0057 -2.2321 2.8383
-9.8770 -2.3050 2.8383
-9.7502 -2.3764 2.8383
-9.1084 -2.3148 2.6859
-8.9918 -2.3794 2.6859
-8.8767 -2.4425 2.6859
-7.2293 -2.0659 2.2158
-7.1930 -2.1323 2.2333
-7.1569 -2.1986 2.2508
-7.1208 -2.2646 2.2684
-7.0848 -2.3305 2.2862
-8.2172 -2.7933 2.6859
-8.1120 -2.8474 2.6859
-8.0082 -2.9004 2.6859
-7.9056 -2.9523 2.6859
-7.8042 -3.0030 2.6859
-7.7040 -3.0528 2.6859
-7.6049 -3.1015 2.6859
-7.5070 -3.1492 2.6859
-7.4101 -3.1959 2.6859
-7.3143 -3.2416 2.6859
-7.2196 -3.2864 2.6859
-7.1258 -3.3302 2.6859
-7.0331 -3.3732 2.6859
-6.9413 -3.4153 2.6859
-6.8504 -3.4566 2.6859
-6.7605 -3.4970 2.6859
-6.6714 -3.5366 2.6859
-6.5832 -3.5754 2.6859
-6.4959 -3.6134 2.6859
-6.4094 -3.6507 2.6859
-6.3237 -3.6872 2.6859
-6.2388 -3.7230 2.6859
-6.1547 -3.7580 2.6859
-6.0714 -3.7924 2.6859
-5.9887 -3.8261 2.6859
-5.9068 -3.8591 2.6859
-5.8256 -3.8915 2.6859
-5.7574 -3.9317 2.6917
-5.7518 -4.0147 2.7270
-5.7460 -4.0989 2.7629
-5.7401 -4.1842 2.7994
-5.7342 -4.2708 2.8366
-5.6560 -4.3038 2.8383
-5.5749 -4.3335 2.8383
-5.4944 -4.3626 2.8383
-5.4146 -4.3912 2.8383
-5.3353 -4.4192 2.8383
-5.2567 -4.4466 2.8383
-5.1785 -4.4735 2.8383
-5.1010 -4.4998 2.8383
-5.0239 -4.5257 2.8383
-4.9474 -4.5510 2.8383
-4.8714 -4.5758 2.8383
-4.7959 -4.6001 2.8383
-4.7209 -4.6239 2.8383
-4.6464 -4.6472 2.8383
-4.5724 -4.6700 2.8383
-4.4988 -4.6924 2.8383
-4.4256 -4.7143 2.8383
-4.3529 -4.7357 2.8383
-4.2806 -4.7567 2.8383
-4.2087 -4.7773 2.8383
-4.1373 -4.7975 2.8383
-4.0662 -4.8172 2.8383
-3.9955 -4.8365 2.8383
-3.9252 -4.8554 2.8383
-3.8553 -4.8738 2.8383
-3.7858 -4.8919 2.8383
-3.7165 -4.9096 2.8383
-3.6477 -4.9269 2.8383
-3.5791 -4.9438 2.8383
-3.5109 -4.9603 2.8383
-3.4431 -4.9764 2.8383
-3.3755 -4.9922 2.8383
-3.3082 -5.0076 2.8383
-3.2413 -5.0227 2.8383
-3.1746 -5.0374 2.8383
-3.1082 -5.0518 2.8383
-3.0421 -5.0658 2.8383
-2.9762 -5.0794 2.8383
-2.9106 -5.0928 2.8383
-2.8453 -5.1057 2.8383
-2.7802 -5.1184 2.8383
-15.7197 4.5865 2.8383
-15.5110 4.3665 2.8383
-15.3066 4.1529 2.8383
-15.1064 3.9452 2.8383
-14.9101 3.7434 2.8383
-14.7178 3.5470 2.8383
-14.5292 3.3560 2.8383
-14.3443 3.1702 2.8383
-14.1628 2.9894 2.8383
-13.9847 2.8133 2.8383
-13.8098 2.6419 2.8383
-13.6381 2.4749 2.8383
-13.4695 2.3123 2.8383
-13.3038 2.1537 2.8383
-13.1410 1.9992 2.8383
-12.9810 1.8486 2.8383
-12.8236 1.7017 2.8383
-12.6689 1.5585 2.8383
-12.5167 1.4187 2.8383
-12.3669 1.2824 2.8383
-12.2195 1.1493 2.8383
-12.0744 1.0194 2.8383
-11.9316 0.8926 2.8383
-11.7909 0.7687 2.8383
-11.6524 0.6478 2.8383
-11.5159 0.5296 2.8383
-11.3814 0.4142 2.8383
-11.2488 0.3014 2.8383
-11.1181 0.1912 2.8383
-10.9893 0.0835 2.8383
-10.8622 -0.0219 2.8383
-10.7369 -0.1248 2.8383
-10.6133 -0.2256 2.8383
-10.4913 -0.3241 2.8383
-10.3710 -0.4204 2.8383
-10.2522 -0.5147 2.8383
-10.1349 -0.6069 2.8383
-10.0191 -0.6972 2.8383
-9.9047 -0.7856 2.8383
-9.7918 -0.8721 2.8383
-9.1605 -0.9054 2.6859
-9.0562 -0.9838 2.6859
-8.9531 -1.0606 2.6859
-8.8512 -1.1359 2.6859
-8.7505 -1.2096 2.6859
-8.6510 -1.2817 2.6859
-8.5526 -1.3524 2.6859
-8.4553 -1.4217 2.6859
-8.3590 -1.4895 2.6859
-8.2638 -1.5561 2.6859
-8.1696 -1.6213 2.6859
-8.0764 -1.6851 2.6859
-7.9842 -1.7478 2.6859
-7.8930 -1.8091 2.6859
-7.8026 -1.8693 2.6859
-7.7132 -1.9283 2.6859
-7.6247 -1.9862 2.6859
-7.5370 -2.0429 2.6859
-7.2438 -2.0404 2.6116
-7.2074 -2.1072 2.6287
-7.1710 -2.1738 2.6461
-7.1347 -2.2403 2.6636
-7.0985 -2.3065 2.6812
-7.0282 -2.3610 2.6859
-6.9461 -2.4106 2.6859
-6.8647 -2.4592 2.6859
-6.7840 -2.5069 2.6859
-6.7041 -2.5537 2.6859
-6.6248 -2.5996 2.6859
-6.5462 -2.6446 2.6859
-6.4682 -2.6888 2.6859
-6.3909 -2.7322 2.6859
-6.3142 -2.7748 2.6859
-6.2381 -2.8166 2.6859
-6.1626 -2.8576 2.6859
-6.0877 -2.8978 2.6859
-6.0134 -2.9373 2.6859
-5.9396 -2.9760 2.6859
-5.8664 -3.0141 2.6859
-5.7938 -3.0515 2.6859
-5.7538 -3.1056 2.7010
-5.7487 -3.1788 2.7328
-5.7435 -3.2527 2.7652
-5.7382 -3.3275 2.7980
-5.7328 -3.4031 2.8314
-5.6732 -3.4467 2.8383
-5.6001 -3.4814 2.8383
-5.5275 -3.5154 2.8383
-5.4553 -3.5488 2.8383
-5.3837 -3.5816 2.8383
-5.3125 -3.6137 2.8383
-5.2417 -3.6453 2.8383
-5.1714 -3.6763 2.8383
-5.1015 -3.7067 2.8383
-5.0320 -3.7365 2.8383
-4.9630 -3.7658 2.8383
-4.8943 -3.7946 2.8383
-4.8260 -3.8228 2.8383
-4.7582 -3.8505 2.8383
-4.6907 -3.8776 2.8383
-4.6235 -3.9043 2.8383
-4.5568 -3.9304 2.8383
-4.4904 -3.9561 2.8383
-4.4243 -3.9812 2.8383
-4.3586 -4.0059 2.8383
-4.2933 -4.0301 2.8383
-4.2282 -4.0539 2.8383
-4.1635 -4.0771 2.8383
-4.0991 -4.0999 2.8383
-4.0350 -4.1223 2.8383
-3.9712 -4.1443 2.8383
-3.9077 -4.1658 2.8383
-3.8445 -4.1868 2.8383
-3.7816 -4.2075 2.8383
-3.7190 -4.2277 2.8383
-3.6566 -4.2475 2.8383
-3.5945 -4.2670 2.8383
-3.5327 -4.2860 2.8383
-3.4711 -4.3046 2.8383
-3.4098 -4.3228 2.8383
-3.3487 -4.3407 2.8383
-3.2878 -4.3582 2.8383
-3.2272 -4.3752 2.8383
-3.1668 -4.3919 2.8383
-3.1066 -4.4083 2.8383
-3.0467 -4.4243 2.8383
-2.9869 -4.4399 2.8383
-2.9274 -4.4552 2.8383
-2.8681 -4.4701 2.8383
-2.8089 -4.4847 2.8383
-2.7500 -4.4989 2.8383
-2.6912 -4.5128 2.8383
-2.6327 -4.5264 2.8383
-2.5743 -4.5396 2.8383
-2.5161 -4.5525 2.8383
-12.3511 3.7832 2.8383
-12.2277 3.6196 2.8383
-12.1057 3.4596 2.8383
-11.9852 3.3032 2.8383
-11.8660 3.1501 2.8383
-11.7482 3.0004 2.8383
-11.6317 2.8538 2.8383
-11.5165 2.7104 2.8383
-11.4026 2.5701 2.8383
-11.2899 2.4327 2.8383
-11.1785 2.2981 2.8383
-11.0682 2.1664 2.8383
-10.9592 2.0375 2.8383
-10.8512 1.9111 2.8383
-10.7444 1.7874 2.8383
-10.6388 1.6662 2.8383
-10.5342 1.5475 2.8383
-10.4306 1.4312 2.8383
-10.3281 1.3171 2.8383
-10.2266 1.2054 2.8383
-10.1261 1.0959 2.8383
-10.0266 0.9886 2.8383
-9.9281 0.8834 2.8383
-9.8305 0.7802 2.8383
-9.7338 0.6790 2.8383
-9.1206 0.5487 2.6859
-9.0308 0.4567 2.6859
-8.9419 0.3664 2.6859
-8.8537 0.2779 2.6859
-8.7664 0.1911 2.6859
-8.6798 0.1059 2.6859
-8.5940 0.0223 2.6859
-8.5090 -0.0597 2.6859
-8.4247 -0.1402 2.6859
-8.3412 -0.2192 2.6859
-8.2583 -0.2967 2.6859
-8.1762 -0.3727 2.6859
-8.0947 -0.4474 2.6859
-8.0139 -0.5207 2.6859
-7.9338 -0.5926 2.6859
-7.8544 -0.6633 2.6859
-7.7755 -0.7326 2.6859
-7.6974 -0.8007 2.6859
-7.6198 -0.8675 2.6859
-7.5428 -0.9332 2.6859
-7.4664 -0.9976 2.6859
-7.3906 -1.0610 2.6859
-7.3154 -1.1232 2.6859
-7.2408 -1.1842 2.6859
-7.1667 -1.2442 2.6859
-7.0931 -1.3032 2.6859
-7.0201 -1.3611 2.6859
-6.9477 -1.4179 2.6859
-6.8757 -1.4738 2.6859
-6.8042 -1.5287 2.6859
-6.7333 -1.5826 2.6859
-6.6628 -1.6356 2.6859
-6.5928 -1.6876 2.6859
-6.5233 -1.7388 2.6859
-6.4543 -1.7891 2.6859
-6.3857 -1.8385 2.6859
-6.3176 -1.8870 2.6859
-6.2499 -1.9348 2.6859
-6.1827 -1.9816 2.6859
-6.1159 -2.0277 2.6859
-6.0495 -2.0730 2.6859
-5.9835 -2.1175 2.6859
-5.9179 -2.1611 2.6859
-5.8527 -2.2042 2.6859
-5.7879 -2.2465 2.6859
-5.7520 -2.2994 2.6993
-5.7474 -2.3650 2.7277
-5.7428 -2.4311 2.7565
-5.7381 -2.4978 2.7857
-5.7333 -2.5651 2.8154
-5.7140 -2.6263 2.8383
-5.6482 -2.6659 2.8383
-5.5829 -2.7047 2.8383
-5.5178 -2.7430 2.8383
-5.4532 -2.7806 2.8383
-5.3889 -2.8175 2.8383
-5.3249 -2.8538 2.8383
-5.2612 -2.8895 2.8383
-5.1979 -2.9246 2.8383
-5.1349 -2.9590 2.8383
-5.0722 -2.9929 2.8383
-5.0099 -3.0262 2.8383
-4.9478 -3.0589 2.8383
-4.8860 -3.0910 2.8383
-4.8246 -3.1226 2.8383
-4.7634 -3.1536 2.8383
-4.7025 -3.1841 2.8383
-4.6419 -3.2141 2.8383
-4.5815 -3.2436 2.8383
-4.4021 -3.3288 2.8383
-4.5215 -3.2725 2.8383
-4.3429 -3.3562 2.8383
-4.4617 -3.3009 2.8383
-4.2838 -3.3831 2.8383
-4.1665 -3.4356 2.8383
-4.2251 -3.4096 2.8383
-4.1082 -3.4610 2.8383
-3.9347 -3.5348 2.8383
-4.0502 -3.4861 2.8383
-3.8773 -3.5585 2.8383
-3.9923 -3.5107 2.8383
-3.8202 -3.5818 2.8383
-3.7065 -3.6270 2.8383
-3.7632 -3.6046 2.8383
-3.6499 -3.6490 2.8383
-3.4815 -3.7124 2.8383
-3.5936 -3.6705 2.8383
-3.4258 -3.7328 2.8383
-3.5375 -3.6917 2.8383
-3.3702 -3.7527 2.8383
-3.2597 -3.7914 2.8383
-3.3149 -3.7722 2.8383
-3.2046 -3.8102 2.8383
-3.0406 -3.8643 2.8383
-3.1498 -3.8286 2.8383
-2.9863 -3.8816 2.8383
-3.0951 -3.8467 2.8383
-2.9321 -3.8985 2.8383
-2.8242 -3.9313 2.8383
-2.8780 -3.9151 2.8383
-2.7704 -3.9472 2.8383
-2.7169 -3.9627 2.8383
-2.6634 -3.9779 2.8383
-2.6101 -3.9928 2.8383
-2.5570 -4.0073 2.8383
-2.5039 -4.0214 2.8383
-2.4510 -4.0353 2.8383
-2.3983 -4.0488 2.8383
-2.3456 -4.0619 2.8383
-2.2931 -4.0748 2.8383
-10.1210 3.2513 2.8383
-10.0420 3.1224 2.8383
-9.9633 2.9956 2.8383
-9.8850 2.8712 2.8383
-9.8071 2.7488 2.8383
-9.7295 2.6288 2.8383
-9.1341 2.3759 2.6859
-9.0613 2.2662 2.6859
-8.9890 2.1584 2.6859
-8.9169 2.0525 2.6859
-8.8452 1.9483 2.6859
-8.7739 1.8460 2.6859
-8.7029 1.7455 2.6859
-8.6322 1.6467 2.6859
-8.5619 1.5495 2.6859
-8.4920 1.4540 2.6859
-8.4223 1.3602 2.6859
-8.3530 1.2680 2.6859
-8.2841 1.1773 2.6859
-8.2155 1.0881 2.6859
-8.1472 1.0005 2.6859
-8.0793 0.9143 2.6859
-8.0117 0.8296 2.6859
-7.9444 0.7463 2.6859
-7.8775 0.6643 2.6859
-7.8109 0.5838 2.6859
-7.7446 0.5046 2.6859
-7.6787 0.4267 2.6859
-7.6130 0.3501 2.6859
-7.5477 0.2747 2.6859
-7.4827 0.2006 2.6859
-7.4181 0.1277 2.6859
-7.3537 0.0560 2.6859
-7.2897 -0.0145 2.6859
-7.2260 -0.0839 2.6859
-7.1626 -0.1521 2.6859
-7.0995 -0.2192 2.6859
-7.0367 -0.2853 2.6859
-6.9742 -0.3503 2.6859
-6.9120 -0.4142 2.6859
-6.8501 -0.4771 2.6859
-6.7885 -0.5389 2.6859
-6.7271 -0.5999 2.6859
-6.6661 -0.6597 2.6859
-6.6054 -0.7187 2.6859
-6.5449 -0.7767 2.6859
-6.4847 -0.8338 2.6859
-6.4248 -0.8899 2.6859
-6.3652 -0.9452 2.6859
-6.3058 -0.9996 2.6859
-6.2468 -1.0530 2.6859
-6.1879 -1.1057 2.6859
-6.1294 -1.1575 2.6859
-6.0711 -1.2085 2.6859
-6.0131 -1.2587 2.6859
-5.9553 -1.3081 2.6859
-5.8978 -1.3568 2.6859
-5.8405 -1.4046 2.6859
-5.7835 -1.4517 2.6859
-5.7503 -1.5042 2.6970
-5.7463 -1.5644 2.7220
-5.7422 -1.6249 2.7473
-5.7381 -1.6857 2.7731
-5.7339 -1.7469 2.7991
-5.7297 -1.8084 2.8256
-5.6970 -1.8611 2.8383
-5.6388 -1.9049 2.8383
-5.5807 -1.9480 2.8383
-5.5230 -1.9904 2.8383
-5.4654 -2.0322 2.8383
-5.4081 -2.0732 2.8383
-5.3510 -2.1137 2.8383
-5.2941 -2.1535 2.8383
-5.2375 -2.1927 2.8383
-5.1811 -2.2312 2.8383
-5.1249 -2.2691 2.8383
-5.0689 -2.3065 2.8383
-5.0131 -2.3432 2.8383
-4.9575 -2.3793 2.8383
-4.8469 -2.4499 2.8383
-4.9021 -2.4149 2.8383
-4.7920 -2.4843 2.8383
-4.6282 -2.5844 2.8383
-4.7372 -2.5182 2.8383
-4.5740 -2.6166 2.8383
-4.6826 -2.5516 2.8383
-4.5200 -2.6483 2.8383
-4.4125 -2.7103 2.8383
-4.4662 -2.6796 2.8383
-4.3591 -2.7405 2.8383
-4.1997 -2.8281 2.8383
-4.3058 -2.7702 2.8383
-4.1469 -2.8564 2.8383
-4.2527 -2.7994 2.8383
-4.0943 -2.8842 2.8383
-3.9896 -2.9383 2.8383
-4.0419 -2.9115 2.8383
-3.9375 -2.9647 2.8383
-3.7821 -3.0413 2.8383
-3.8855 -2.9907 2.8383
-3.7306 -3.0659 2.8383
-3.8337 -3.0162 2.8383
-3.6792 -3.0901 2.8383
-3.5770 -3.1373 2.8383
-3.6280 -3.1139 2.8383
-3.5261 -3.1602 2.8383
-3.3741 -3.2266 2.8383
-3.4753 -3.1828 2.8383
-3.3238 -3.2480 2.8383
-3.4246 -3.2049 2.8383
-3.2735 -3.2690 2.8383
-3.1734 -3.3097 2.8383
-3.2234 -3.2896 2.8383
-3.1236 -3.3296 2.8383
-2.9747 -3.3868 2.8383
-3.0738 -3.3490 2.8383
-2.9253 -3.4051 2.8383
-3.0242 -3.3681 2.8383
-2.8761 -3.4231 2.8383
-2.7779 -3.4580 2.8383
-2.8269 -3.4407 2.8383
-2.7289 -3.4749 2.8383
-2.5827 -3.5236 2.8383
-2.6801 -3.4915 2.8383
-2.5342 -3.5392 2.8383
-2.6313 -3.5077 2.8383
-2.4857 -3.5544 2.8383
-2.4374 -3.5693 2.8383
-2.3892 -3.5838 2.8383
-2.3410 -3.5981 2.8383
-2.2930 -3.6120 2.8383
-2.2450 -3.6256 2.8383
-2.1971 -3.6389 2.8383
-2.1493 -3.6519 2.8383
-2.1016 -3.6645 2.8383
-8.0717 2.7176 2.6859
-8.0213 2.6176 2.6859
-7.9709 2.5191 2.6859
-7.9203 2.4220 2.6859
-7.8697 2.3264 2.6859
-7.8190 2.2321 2.6859
-7.7682 2.1392 2.6859
-7.7174 2.0477 2.6859
-7.6665 1.9575 2.6859
-7.6157 1.8686 2.6859
-7.5647 1.7811 2.6859
-7.5138 1.6948 2.6859
-7.4628 1.6097 2.6859
-7.4119 1.5259 2.6859
-7.3609 1.4434 2.6859
-7.3099 1.3620 2.6859
-7.2590 1.2818 2.6859
-7.2080 1.2028 2.6859
-7.1571 1.1250 2.6859
-7.1062 1.0483 2.6859
-7.0554 0.9726 2.6859
-7.0046 0.8982 2.6859
-6.9538 0.8247 2.6859
-6.9030 0.7524 2.6859
-6.8524 0.6811 2.6859
-6.8017 0.6108 2.6859
-6.7511 0.5415 2.6859
-6.7006 0.4733 2.6859
-6.6502 0.4060 2.6859
-6.5998 0.3398 2.6859
-6.5495 0.2745 2.6859
-6.4992 0.2101 2.6859
-6.4491 0.1467 2.6859
-6.3990 0.0841 2.6859
-6.3490 0.0225 2.6859
-6.2990 -0.0382 2.6859
-6.2492 -0.0981 2.6859
-6.1994 -0.1570 2.6859
-6.1497 -0.2152 2.6859
-6.1002 -0.2725 2.6859
-6.0507 -0.3289 2.6859
-6.0013 -0.3845 2.6859
-5.9520 -0.4394 2.6859
-5.9028 -0.4934 2.6859
-5.8537 -0.5467 2.6859
-5.8047 -0.5992 2.6859
-5.7558 -0.6509 2.6859
-5.7470 -0.7068 2.7048
-5.7435 -0.7635 2.7264
-5.7400 -0.8203 2.7484
-5.7364 -0.8773 2.7706
-5.7328 -0.9345 2.7932
-5.7292 -0.9918 2.8161
-5.7236 -1.0490 2.8383
-5.6727 -1.0977 2.8383
-5.6220 -1.1456 2.8383
-5.5714 -1.1928 2.8383
-5.5210 -1.2394 2.8383
-5.4706 -1.2853 2.8383
-5.4203 -1.3305 2.8383
-5.3702 -1.3751 2.8383
-5.3202 -1.4189 2.8383
-5.2703 -1.4622 2.8383
-5.2204 -1.5049 2.8383
-5.1708 -1.5469 2.8383
-5.1212 -1.5882 2.8383
-5.0717 -1.6291 2.8383
-5.0223 -1.6692 2.8383
-4.9731 -1.7088 2.8383
-4.9240 -1.7478 2.8383
-4.8750 -1.7863 2.8383
-4.8260 -1.8241 2.8383
-4.7772 -1.8614 2.8383
-4.7285 -1.8982 2.8383
-4.6800 -1.9344 2.8383
-4.6315 -1.9700 2.8383
-4.5831 -2.0052 2.8383
-4.5349 -2.0398 2.8383
-4.4867 -2.0739 2.8383
-4.4387 -2.1074 2.8383
-4.3907 -2.1405 2.8383
-4.3429 -2.1730 2.8383
-4.2952 -2.2051 2.8383
-4.2475 -2.2366 2.8383
-4.2000 -2.2678 2.8383
-4.1526 -2.2983 2.8383
-4.0109 -2.3874 2.8383
-4.1053 -2.3285 2.8383
-3.9639 -2.4161 2.8383
-4.0580 -2.3582 2.8383
-3.9170 -2.4444 2.8383
-3.8234 -2.4997 2.8383
-3.8701 -2.4723 2.8383
-3.7768 -2.5266 2.8383
-3.6374 -2.6050 2.8383
-3.7302 -2.5532 2.8383
-3.5912 -2.6303 2.8383
-3.6838 -2.5793 2.8383
-3.5450 -2.6551 2.8383
-3.4529 -2.7037 2.8383
-3.4989 -2.6796 2.8383
-3.4070 -2.7273 2.8383
-3.2698 -2.7959 2.8383
-3.3612 -2.7506 2.8383
-3.2243 -2.8180 2.8383
-3.3155 -2.7734 2.8383
-3.1788 -2.8397 2.8383
-3.0881 -2.8821 2.8383
-3.1334 -2.8611 2.8383
-3.0428 -2.9027 2.8383
-2.9076 -2.9623 2.8383
-2.9977 -2.9229 2.8383
-2.8626 -2.9814 2.8383
-2.9526 -2.9428 2.8383
-2.8178 -3.0002 2.8383
-2.7283 -3.0368 2.8383
-2.5502 -3.1059 2.8383
-2.7730 -3.0187 2.8383
-2.6837 -3.0546 2.8383
-2.5058 -3.1223 2.8383
-2.3731 -3.1696 2.8383
-2.6391 -3.0720 2.8383
-2.4615 -3.1384 2.8383
-2.3290 -3.1847 2.8383
-2.5946 -3.0891 2.8383
-2.4172 -3.1542 2.8383
-2.2849 -3.1995 2.8383
-2.1970 -3.2282 2.8383
-2.2409 -3.2140 2.8383
-2.1531 -3.2421 2.8383
-2.1093 -3.2557 2.8383
-2.0656 -3.2689 2.8383
-2.0219 -3.2819 2.8383
-1.9782 -3.2945 2.8383
-1.9346 -3.3069 2.8383
-6.9388 2.4475 2.6859
-6.9037 2.3634 2.6859
-6.8684 2.2803 2.6859
-6.8327 2.1983 2.6859
-6.7968 2.1173 2.6859
-6.7606 2.0373 2.6859
-6.7242 1.9582 2.6859
-6.6875 1.8802 2.6859
-6.6506 1.8031 2.6859
-6.6135 1.7271 2.6859
-6.5762 1.6519 2.6859
-6.5387 1.5777 2.6859
-6.5010 1.5044 2.6859
-6.4631 1.4321 2.6859
-6.4250 1.3607 2.6859
-6.3868 1.2901 2.6859
-6.3484 1.2205 2.6859
-6.3099 1.1517 2.6859
-6.2713 1.0839 2.6859
-6.2325 1.0168 2.6859
-6.1935 0.9507 2.6859
-6.1545 0.8854 2.6859
-6.1153 0.8209 2.6859
-6.0760 0.7572 2.6859
-6.0366 0.6944 2.6859
-5.9972 0.6323 2.6859
-5.9576 0.5711 2.6859
-5.9179 0.5106 2.6859
-5.8782 0.4509 2.6859
-5.8384 0.3921 2.6859
-5.7985 0.3339 2.6859
-5.7586 0.2765 2.6859
-5.7456 0.2209 2.6987
-5.7428 0.1658 2.7164
-5.7400 0.1107 2.7343
-5.7371 0.0556 2.7526
-5.7341 0.0005 2.7711
-5.7311 -0.0546 2.7898
-5.7281 -0.1098 2.8089
-5.7250 -0.1649 2.8282
-5.7029 -0.2194 2.8383
-5.6603 -0.2727 2.8383
-5.6176 -0.3251 2.8383
-5.5749 -0.3770 2.8383
-5.5321 -0.4281 2.8383
-5.4894 -0.4786 2.8383
-5.4466 -0.5284 2.8383
-5.4038 -0.5775 2.8383
-5.3610 -0.6260 2.8383
-5.3182 -0.6739 2.8383
-5.2754 -0.7211 2.8383
-5.2326 -0.7676 2.8383
-5.1899 -0.8136 2.8383
-5.1471 -0.8590 2.8383
-5.1043 -0.9037 2.8383
-5.0615 -0.9478 2.8383
-5.0188 -0.9914 2.8383
-4.9760 -1.0344 2.8383
-4.9333 -1.0768 2.8383
-4.8906 -1.1186 2.8383
-4.8479 -1.1598 2.8383
-4.8052 -1.2005 2.8383
-4.7626 -1.2407 2.8383
-4.7199 -1.2802 2.8383
-4.6773 -1.3193 2.8383
-4.6347 -1.3578 2.8383
-4.5922 -1.3958 2.8383
-4.5497 -1.4333 2.8383
-4.5072 -1.4702 2.8383
-4.4647 -1.5067 2.8383
-4.4223 -1.5426 2.8383
-4.3799 -1.5780 2.8383
-4.3375 -1.6130 2.8383
-4.2952 -1.6474 2.8383
-4.2529 -1.6814 2.8383
-4.2106 -1.7149 2.8383
-4.1684 -1.7479 2.8383
-4.1262 -1.7804 2.8383
-4.0840 -1.8125 2.8383
-4.0419 -1.8441 2.8383
-3.9998 -1.8753 2.8383
-3.9578 -1.9060 2.8383
-3.9158 -1.9363 2.8383
-3.8738 -1.9661 2.8383
-3.8319 -1.9955 2.8383
-3.7900 -2.0245 2.8383
-3.7481 -2.0531 2.8383
-3.7063 -2.0812 2.8383
-3.6646 -2.1089 2.8383
-3.6229 -2.1362 2.8383
-3.5812 -2.1631 2.8383
-3.5396 -2.1895 2.8383
-3.4980 -2.2156 2.8383
-3.4564 -2.2413 2.8383
-3.4149 -2.2665 2.8383
-3.3734 -2.2914 2.8383
-3.3320 -2.3159 2.8383
-3.2906 -2.3400 2.8383
-3.2493 -2.3638 2.8383
-3.2080 -2.3871 2.8383
-3.1667 -2.4101 2.8383
-3.1255 -2.4328 2.8383
-3.0844 -2.4550 2.8383
-3.0432 -2.4769 2.8383
-3.0021 -2.4984 2.8383
-2.9611 -2.5196 2.8383
-2.9201 -2.5405 2.8383
-2.8791 -2.5609 2.8383
-2.8382 -2.5811 2.8383
-2.7973 -2.6008 2.8383
-2.7565 -2.6203 2.8383
-2.7156 -2.6394 2.8383
-2.6749 -2.6582 2.8383
-2.6342 -2.6766 2.8383
-2.5935 -2.6947 2.8383
-2.5528 -2.7125 2.8383
-2.5122 -2.7299 2.8383
-2.4716 -2.7471 2.8383
-2.4311 -2.7638 2.8383
-2.3906 -2.7803 2.8383
-2.3501 -2.7965 2.8383
-2.3097 -2.8124 2.8383
-2.2693 -2.8279 2.8383
-2.2289 -2.8432 2.8383
-2.1886 -2.8581 2.8383
-2.1483 -2.8727 2.8383
-2.1081 -2.8870 2.8383
-2.0679 -2.9011 2.8383
-2.0277 -2.9148 2.8383
-1.9875 -2.9283 2.8383
-1.9474 -2.9414 2.8383
-1.9073 -2.9542 2.8383
-1.8672 -2.9668 2.8383
-1.8272 -2.9791 2.8383
-1.7872 -2.9910 2.8383
-6.0523 2.2361 2.6859
-6.0273 2.1640 2.6859
-6.0019 2.0927 2.6859
-5.9762 2.0221 2.6859
-5.9501 1.9523 2.6859
-5.9237 1.8832 2.6859
-5.8970 1.8149 2.6859
-5.8699 1.7473 2.6859
-5.8425 1.6804 2.6859
-5.8149 1.6142 2.6859
-5.7869 1.5488 2.6859
-5.7587 1.4841 2.6859
-5.7436 1.4234 2.6922
-5.7416 1.3663 2.7049
-5.7396 1.3095 2.7178
-5.7376 1.2528 2.7309
-5.7355 1.1964 2.7443
-5.7334 1.1402 2.7579
-5.7312 1.0841 2.7718
-5.7290 1.0282 2.7858
-5.7268 0.9725 2.8002
-5.7245 0.9169 2.8147
-5.7222 0.8614 2.8296
-5.7072 0.8043 2.8383
-5.6742 0.7452 2.8383
-5.6410 0.6868 2.8383
-5.6077 0.6291 2.8383
-5.5742 0.5720 2.8383
-5.5405 0.5156 2.8383
-5.5066 0.4598 2.8383
-5.4726 0.4047 2.8383
-5.4384 0.3502 2.8383
-5.4041 0.2963 2.8383
-5.3697 0.2431 2.8383
-5.3351 0.1905 2.8383
-5.3003 0.1385 2.8383
-5.2655 0.0872 2.8383
-5.2305 0.0364 2.8383
-5.1954 -0.0137 2.8383
-5.1602 -0.0633 2.8383
-5.1249 -0.1123 2.8383
-5.0894 -0.1607 2.8383
-5.0539 -0.2085 2.8383
-5.0183 -0.2557 2.8383
-4.9825 -0.3024 2.8383
-4.9467 -0.3485 2.8383
-4.9108 -0.3940 2.8383
-4.8749 -0.4390 2.8383
-4.8388 -0.4834 2.8383
-4.8027 -0.5273 2.8383
-4.7665 -0.5707 2.8383
-4.7302 -0.6135 2.8383
-4.6939 -0.6558 2.8383
-4.6574 -0.6976 2.8383
-4.6210 -0.7388 2.8383
-4.5845 -0.7795 2.8383
-4.5479 -0.8198 2.8383
-4.5113 -0.8595 2.8383
-4.4746 -0.8988 2.8383
-4.4379 -0.9375 2.8383
-4.4011 -0.9757 2.8383
-4.3643 -1.0135 2.8383
-4.3275 -1.0508 2.8383
-4.2906 -1.0876 2.8383
-4.2537 -1.1239 2.8383
-4.2167 -1.1598 2.8383
-4.1797 -1.1952 2.8383
-4.1427 -1.2302 2.8383
-4.1057 -1.2646 2.8383
-4.0686 -1.2987 2.8383
-4.0315 -1.3323 2.8383
-3.9944 -1.3655 2.8383
-3.9573 -1.3982 2.8383
-3.9202 -1.4304 2.8383
-3.8830 -1.4623 2.8383
-3.8458 -1.4937 2.8383
-3.8086 -1.5247 2.8383
-3.7714 -1.5553 2.8383
-3.7342 -1.5855 2.8383
-3.6970 -1.6152 2.8383
-3.6597 -1.6446 2.8383
-3.6225 -1.6736 2.8383
-3.5852 -1.7021 2.8383
-3.5480 -1.7303 2.8383
-3.5107 -1.7581 2.8383
-3.4734 -1.7854 2.8383
-3.4362 -1.8124 2.8383
-3.3989 -1.8390 2.8383
-3.3616 -1.8653 2.8383
-3.3244 -1.8911 2.8383
-3.2871 -1.9166 2.8383
-3.2498 -1.9417 2.8383
-3.2126 -1.9664 2.8383
-3.1753 -1.9908 2.8383
-3.1380 -2.0149 2.8383
-3.1008 -2.0385 2.8383
-3.0635 -2.0618 2.8383
-3.0263 -2.0848 2.8383
-2.9891 -2.1074 2.8383
-2.9518 -2.1296 2.8383
-2.9146 -2.1516 2.8383
-2.8774 -2.1731 2.8383
-2.8402 -2.1944 2.8383
-2.8030 -2.2152 2.8383
-2.7658 -2.2358 2.8383
-2.7286 -2.2561 2.8383
-2.6915 -2.2760 2.8383
-2.6543 -2.2955 2.8383
-2.6172 -2.3148 2.8383
-2.5800 -2.3338 2.8383
-2.5429 -2.3524 2.8383
-2.5058 -2.3707 2.8383
-2.4687 -2.3887 2.8383
-2.4316 -2.4063 2.8383
-2.3945 -2.4237 2.8383
-2.3574 -2.4407 2.8383
-2.3204 -2.4575 2.8383
-2.2833 -2.4740 2.8383
-2.2463 -2.4901 2.8383
-2.2093 -2.5060 2.8383
-2.1723 -2.5215 2.8383
-2.1353 -2.5368 2.8383
-2.0983 -2.5517 2.8383
-2.0613 -2.5664 2.8383
-2.0244 -2.5808 2.8383
-1.9874 -2.5949 2.8383
-1.9505 -2.6087 2.8383
-1.9136 -2.6222 2.8383
-1.8767 -2.6354 2.8383
-1.8398 -2.6484 2.8383
-1.8029 -2.6610 2.8383
-1.7661 -2.6734 2.8383
-1.7292 -2.6856 2.8383
-1.6924 -2.6974 2.8383
-1.6555 -2.7090 2.8383
-5.6396 2.1826 2.8383
-5.6205 2.1164 2.8383
-5.6010 2.0508 2.8383
-5.5811 1.9858 2.8383
-5.5608 1.9214 2.8383
-5.5402 1.8576 2.8383
-5.5191 1.7944 2.8383
-5.4977 1.7317 2.8383
-5.4759 1.6697 2.8383
-5.4537 1.6082 2.8383
-5.4312 1.5473 2.8383
-5.4084 1.4870 2.8383
-5.3853 1.4273 2.8383
-5.3618 1.3681 2.8383
-5.3380 1.3096 2.8383
-5.3139 1.2516 2.8383
-5.2895 1.1941 2.8383
-5.2648 1.1372 2.8383
-5.2399 1.0810 2.8383
-5.2146 1.0253 2.8383
-5.1891 0.9701 2.8383
-5.1634 0.9155 2.8383
-5.1373 0.8613 2.8383
-5.1111 0.8079 2.8383
-5.0846 0.7549 2.8383
-5.0578 0.7024 2.8383
-5.0308 0.6506 2.8383
-5.0036 0.5992 2.8383
-4.9762 0.5484 2.8383
-4.9486 0.4981 2.8383
-4.9207 0.4483 2.8383
-4.8927 0.3991 2.8383
-4.8645 0.3504 2.8383
-4.8360 0.3022 2.8383
-4.8074 0.2546 2.8383
-4.7786 0.2074 2.8383
-4.7497 0.1607 2.8383
-4.7205 0.1145 2.8383
-4.6912 0.0689 2.8383
-4.6618 0.0237 2.8383
-4.6321 -0.0210 2.8383
-4.6024 -0.0651 2.8383
-4.5725 -0.1088 2.8383
-4.5424 -0.1520 2.8383
-4.5122 -0.1947 2.8383
-4.4819 -0.2370 2.8383
-4.4514 -0.2788 2.8383
-4.4208 -0.3201 2.8383
-4.3901 -0.3609 2.8383
-4.3592 -0.4013 2.8383
-4.3283 -0.4412 2.8383
-4.2972 -0.4806 2.8383
-4.2660 -0.5197 2.8383
-4.2347 -0.5582 2.8383
-4.2034 -0.5963 2.8383
-4.1719 -0.6340 2.8383
-4.1403 -0.6712 2.8383
-4.1086 -0.7080 2.8383
-4.0768 -0.7444 2.8383
-4.0450 -0.7803 2.8383
-4.0130 -0.8158 2.8383
-3.9810 -0.8509 2.8383
-3.9489 -0.8856 2.8383
-3.9167 -0.9198 2.8383
-3.8845 -0.9537 2.8383
-3.8521 -0.9871 2.8383
-3.8197 -1.0201 2.8383
-3.7873 -1.0527 2.8383
-3.7547 -1.0849 2.8383
-3.7221 -1.1167 2.8383
-3.6895 -1.1482 2.8383
-3.6567 -1.1792 2.8383
-3.6240 -1.2098 2.8383
-3.5911 -1.2401 2.8383
-3.5583 -1.2699 2.8383
-3.5253 -1.2995 2.8383
-3.4923 -1.3286 2.8383
-3.4593 -1.3573 2.8383
-3.4262 -1.3857 2.8383
-3.3931 -1.4137 2.8383
-3.3600 -1.4413 2.8383
-3.3267 -1.4686 2.8383
-3.2935 -1.4955 2.8383
-3.2602 -1.5220 2.8383
-3.2269 -1.5482 2.8383
-3.1935 -1.5741 2.8383
-3.1602 -1.5995 2.8383
-3.1267 -1.6247 2.8383
-3.0933 -1.6495 2.8383
-3.0598 -1.6740 2.8383
-3.0263 -1.6981 2.8383
-2.9928 -1.7218 2.8383
-2.9592 -1.7453 2.8383
-2.9256 -1.7684 2.8383
-2.8920 -1.7912 2.8383
-2.8584 -1.8136 2.8383
-2.8247 -1.8358 2.8383
-2.7910 -1.8576 2.8383
-2.7573 -1.8790 2.8383
-2.7236 -1.9002 2.8383
-2.6899 -1.9211 2.8383
-2.6561 -1.9416 2.8383
-2.6224 -1.9618 2.8383
-2.5886 -1.9817 2.8383
-2.5548 -2.0013 2.8383
-2.5210 -2.0206 2.8383
-2.4871 -2.0396 2.8383
-2.4533 -2.0583 2.8383
-2.4194 -2.0766 2.8383
-2.3856 -2.0947 2.8383
-2.3517 -2.1125 2.8383
-2.3178 -2.1300 2.8383
-2.2839 -2.1472 2.8383
-2.2500 -2.1641 2.8383
-2.2161 -2.1807 2.8383
-2.1822 -2.1970 2.8383
-2.1483 -2.2131 2.8383
-2.1143 -2.2288 2.8383
-2.0804 -2.2443 2.8383
-2.0464 -2.2595 2.8383
-2.0125 -2.2744 2.8383
-1.9785 -2.2890 2.8383
-1.9446 -2.3034 2.8383
-1.9106 -2.3174 2.8383
-1.8766 -2.3312 2.8383
-1.8426 -2.3448 2.8383
-1.8087 -2.3580 2.8383
-1.7747 -2.3710 2.8383
-1.7407 -2.3837 2.8383
-1.7067 -2.3962 2.8383
-1.6727 -2.4084 2.8383
-1.6387 -2.4203 2.8383
-1.6047 -2.4319 2.8383
-1.5707 -2.4433 2.8383
-1.5367 -2.4545 2.8383
