ply
format ascii 1.0
element vertex 2060
property float32 x
property float32 y
property float32 z
end_header
-26.4933 13.8166 -9.7696
-26.6788 13.2361 -9.5703
-26.8401 12.3221 -9.2396
-26.7451 12.9352 -9.4630
-26.9273 12.0366 -9.1435
-26.8103 12.6358 -9.3567
-27.0141 11.7521 -9.0483
-27.1862 11.1857 -8.8605
-27.1003 11.4685 -8.9540
-27.2716 10.9038 -8.7678
-23.7595 8.6855 -7.3322
-26.8258 10.4165 -8.5075
-23.8379 8.4464 -7.2566
-23.6808 8.9248 -7.4083
-23.9161 8.2077 -7.1816
-24.0718 7.7311 -7.0332
-23.9940 7.9693 -7.1071
-24.1493 7.4930 -6.9598
-25.6845 7.1421 -7.1031
-24.2266 7.2551 -6.8869
-24.6845 6.6025 -6.7329
-25.2141 7.2802 -7.0697
-24.9185 5.8825 -6.5198
-24.7626 6.3626 -6.6615
-24.9964 5.6422 -6.4495
-24.8406 6.1227 -6.5904
-25.0742 5.4016 -6.3797
-26.1438 5.0979 -6.4673
-25.1519 5.1608 -6.3102
-26.2181 4.8464 -6.3946
-25.8981 4.0058 -6.0519
-26.2923 4.5946 -6.3222
-26.0941 3.7757 -6.0105
-26.1778 3.5276 -5.9431
-25.7044 4.2333 -6.0933
-26.3285 3.0269 -5.8054
-26.2531 3.2776 -5.8741
-28.3167 2.1443 -5.8836
-26.4039 2.7755 -5.7370
-28.5888 1.8860 -5.8511
-33.2193 1.8681 -6.6962
-26.4794 2.5234 -5.6688
-33.3184 1.5499 -6.6140
-28.4122 2.4292 -5.9926
-7.4514 -0.3019 -1.2809
-7.4661 -0.3747 -1.2620
-7.5107 -0.5949 -1.2059
-7.4809 -0.4477 -1.2433
-7.5257 -0.6690 -1.1873
-7.4957 -0.5211 -1.2245
-7.5409 -0.7435 -1.1687
-7.5642 -0.8930 -1.1306
-7.5562 -0.8185 -1.1502
-7.3851 -0.9440 -1.0836
-7.3067 -1.1488 -1.0126
-7.3588 -1.0125 -1.0597
-7.2809 -1.2165 -0.9894
-7.3327 -1.0808 -1.0360
-7.2553 -1.2839 -0.9665
-6.2852 -1.1746 -0.8205
-6.8538 -1.3490 -0.8765
-7.1795 -1.4848 -0.8991
-7.4736 -1.7712 -0.8769
-7.1546 -1.5513 -0.8771
-7.5189 -1.8583 -0.8625
-7.1297 -1.6177 -0.8552
-7.2935 -1.8769 -0.8176
-7.5815 -2.1068 -0.8104
-7.1102 -1.9026 -0.7785
-7.3074 -2.1062 -0.7621
-7.0968 -2.1194 -0.7218
-7.0117 -2.2413 -0.6769
-6.9697 -2.3016 -0.6549
-7.0541 -2.1805 -0.6992
-5.9043 -2.1399 -0.5092
-6.3322 -2.1587 -0.5787
-6.8041 -2.5401 -0.5693
-6.1114 -2.1490 -0.5427
-6.7633 -2.5990 -0.5485
-6.7730 -2.7529 -0.5145
-6.7227 -2.6576 -0.5279
-6.7171 -2.8055 -0.4929
-7.2372 -3.2703 -0.4752
-6.6617 -2.8577 -0.4717
-7.2025 -3.3382 -0.4544
-6.6068 -2.9095 -0.4509
-36.1496 -17.1780 -2.1871
-36.1647 -18.0442 -2.0008
-36.1724 -18.4838 -1.9073
-36.1571 -17.6089 -2.0941
-36.1802 -18.9281 -1.8135
-36.1960 -19.8313 -1.6252
-36.2041 -20.2905 -1.5305
-36.1881 -19.3772 -1.7195
-36.2122 -20.7550 -1.4355
-36.2288 -21.7007 -1.2444
-36.2204 -21.2250 -1.3402
-21.9273 -18.2462 0.2205
-21.7093 -18.4233 0.2822
-21.6164 -19.4528 0.4756
-21.7106 -18.7891 0.3468
-21.7019 -19.9139 0.5439
-21.7034 -20.3066 0.6111
-21.6582 -19.1138 0.4109
-21.7049 -20.7067 0.6790
-21.7064 -21.1145 0.7476
-21.7080 -21.5304 0.8171
-21.7096 -21.9546 0.8874
-21.7112 -22.3876 0.9586
-26.9235 15.8929 -9.0213
-27.1330 14.2288 -8.4285
-22.7532 11.6428 -6.9618
-22.8242 11.3923 -6.8786
-22.8949 11.1429 -6.7961
-22.9651 10.8946 -6.7144
-23.0349 10.6474 -6.6333
-22.8442 10.2841 -6.4791
-23.0771 10.1137 -6.4463
-23.0804 9.8425 -6.3496
-23.1530 9.6026 -6.2729
-23.5392 9.4900 -6.2806
-23.7220 9.2911 -6.2328
-23.8165 9.0569 -6.1619
-23.8887 8.8145 -6.0858
-23.9606 8.5727 -6.0101
-24.0323 8.3313 -5.9350
-24.1037 8.0903 -5.8603
-24.7031 8.0211 -5.9124
-24.7225 7.7588 -5.8245
-24.1732 7.3256 -5.6055
-24.3695 7.1240 -5.5617
-24.5680 6.9205 -5.5179
-24.7687 6.7151 -5.4741
-24.9718 6.5076 -5.4303
-25.1773 6.2981 -5.3865
-25.2633 6.0571 -5.3169
-25.3420 5.8141 -5.2460
-25.8093 5.6559 -5.2545
-26.0253 5.4371 -5.2104
-26.2443 5.2157 -5.1662
-28.1289 5.3051 -5.4436
-28.2201 5.0376 -5.3682
-28.3115 4.7695 -5.2930
-33.9470 5.3792 -6.2366
-34.2976 5.0928 -6.1906
-34.0336 4.7154 -6.0344
-32.7802 4.2171 -5.7083
-32.8824 3.9057 -5.6228
-34.3233 3.7390 -5.7621
-34.0765 3.3776 -5.6150
-34.0446 3.0410 -5.5050
-34.2912 2.7280 -5.4401
-34.3989 2.4012 -5.3528
-34.5070 2.0729 -5.2655
-49.1913 2.4770 -7.3588
-7.3647 -0.4840 -0.8458
-7.3639 -0.5552 -0.8250
-7.3631 -0.6266 -0.8043
-7.3623 -0.6981 -0.7837
-7.3616 -0.7696 -0.7631
-7.3610 -0.8413 -0.7426
-7.3604 -0.9131 -0.7222
-7.3599 -0.9851 -0.7019
-7.3594 -1.0572 -0.6816
-7.3118 -1.1223 -0.6571
-7.3102 -1.1942 -0.6369
-7.0842 -1.2274 -0.5979
-7.3073 -1.3386 -0.5968
-7.3060 -1.4111 -0.5768
-7.3047 -1.4839 -0.5568
-7.2885 -1.5538 -0.5358
-7.2490 -1.6184 -0.5132
-6.4414 -1.5033 -0.4385
-7.0606 -1.7196 -0.4615
-7.2522 -1.8404 -0.4544
-7.1203 -1.8800 -0.4269
-7.0776 -1.9417 -0.4051
-7.0352 -2.0031 -0.3836
-6.9931 -2.0640 -0.3624
-6.9513 -2.1246 -0.3413
-6.5090 -2.0581 -0.3020
-6.2769 -2.0514 -0.2741
-6.0597 -2.0452 -0.2481
-6.7868 -2.3636 -0.2594
-6.7463 -2.4226 -0.2395
-6.7812 -2.5091 -0.2222
-6.6931 -2.5501 -0.2009
-6.6703 -2.6153 -0.1819
-6.6157 -2.6677 -0.1622
-7.1638 -2.9694 -0.1558
-7.1311 -3.0367 -0.1354
-36.1289 -15.7985 -0.5855
-36.1360 -16.2187 -0.4848
-36.1432 -16.6428 -0.3837
-36.1504 -17.0710 -0.2822
-36.1577 -17.5034 -0.1802
-36.1651 -17.9402 -0.0777
-36.1726 -18.3815 0.0254
-36.1802 -18.8276 0.1289
-36.1878 -19.2784 0.2331
-36.1955 -19.7343 0.3379
-21.6728 -12.0898 0.2654
-21.6739 -12.3670 0.3288
-21.6749 -12.6474 0.3927
-21.6760 -12.9311 0.4570
-21.6770 -13.2182 0.5217
-21.6781 -13.5090 0.5869
-21.6792 -13.8034 0.6526
-21.5963 -14.0470 0.7160
-21.5975 -14.3480 0.7825
-21.6945 -14.7182 0.8532
-21.6957 -15.0288 0.9212
-21.6969 -15.3439 0.9897
-21.6981 -15.6636 1.0588
-21.6993 -15.9880 1.1286
-21.7005 -16.3172 1.1991
-21.7018 -16.6515 1.2704
-21.7030 -16.9911 1.3423
-21.7043 -17.3361 1.4151
-21.7056 -17.6868 1.4887
-21.7070 -18.0433 1.5631
-21.7083 -18.4058 1.6385
-21.7097 -18.7747 1.7147
-21.6698 -19.1137 1.7885
-21.6154 -19.4450 1.8618
-21.7010 -19.9097 1.9483
-21.7025 -20.3060 2.0287
-21.7040 -20.7100 2.1102
-21.7055 -21.1219 2.1929
-21.7071 -21.5420 2.2768
-21.7087 -21.9707 2.3621
-27.0125 15.5806 -8.9150
-27.1008 15.2701 -8.8096
-27.4469 15.1036 -8.7881
-27.0436 14.5297 -8.5288
-28.2205 14.8746 -7.1637
-28.3203 14.5687 -7.0673
-23.0821 11.5851 -5.6622
-23.8428 11.6717 -5.7490
-23.6557 11.2903 -5.6061
-25.5853 11.9011 -5.9590
-24.9414 11.3022 -5.7086
-25.2236 11.1303 -5.6728
-25.2998 10.8661 -5.5905
-25.3757 10.6028 -5.5087
-25.4512 10.3402 -5.4273
-25.5265 10.0784 -5.3464
-25.6015 9.8172 -5.2660
-25.6539 9.5484 -5.1815
-25.2647 9.1213 -5.0100
-24.8901 8.7102 -4.8452
-26.3077 8.9170 -5.0264
-26.3835 8.6546 -4.9469
-28.3766 9.0008 -5.2204
-28.4566 8.7199 -5.1357
-28.6076 8.4603 -5.0639
-31.9728 9.1158 -5.5498
-31.3788 8.6152 -5.3400
-32.2998 8.5291 -5.3878
-32.4016 8.2180 -5.2965
-32.5034 7.9066 -5.2054
-32.6052 7.5949 -5.1145
-32.7070 7.2829 -5.0237
-32.8089 6.9704 -4.9332
-32.9108 6.6575 -4.8427
-33.1106 6.3628 -4.7665
-33.2169 6.0485 -4.6766
-47.8852 4.4521 -5.4194
-49.0176 4.0787 -5.4013
-49.6830 2.2019 -4.8889
-7.1703 -0.7936 -0.3786
-7.1696 -0.8636 -0.3584
-7.1690 -0.9338 -0.3383
-7.1684 -1.0041 -0.3182
-7.1678 -1.0746 -0.2982
-7.1672 -1.1453 -0.2781
-7.1667 -1.2162 -0.2580
-7.1662 -1.2874 -0.2380
-7.1657 -1.3588 -0.2179
-7.1653 -1.4304 -0.1978
-7.1649 -1.5024 -0.1778
-7.1645 -1.5746 -0.1576
-7.1642 -1.6472 -0.1375
-7.1639 -1.7201 -0.1174
-7.1661 -1.7940 -0.0972
-7.1922 -1.8745 -0.0773
-7.0902 -1.9212 -0.0561
-6.7373 -1.8956 -0.0342
-6.6957 -1.9539 -0.0150
-6.4513 -1.9504 0.0039
-6.2232 -1.9473 0.0216
-6.7704 -2.1906 0.0429
-6.7906 -2.2699 0.0626
-6.6354 -2.2896 0.0803
-6.6802 -2.3776 0.1002
-6.6258 -2.4307 0.1187
-7.0759 -2.6739 0.1474
-7.0438 -2.7400 0.1674
-7.0118 -2.8061 0.1873
-21.5763 -8.8781 0.6405
-21.5792 -9.1249 0.7049
-21.6621 -9.4087 0.7725
-21.6630 -9.6600 0.8378
-21.6640 -9.9136 0.9035
-21.6649 -10.1696 0.9697
-21.6659 -10.4280 1.0363
-21.6669 -10.6891 1.1033
-21.6678 -10.9528 1.1708
-21.6688 -11.2193 1.2388
-21.6698 -11.4885 1.3073
-21.6708 -11.7608 1.3764
-21.6719 -12.0361 1.4460
-21.6729 -12.3146 1.5162
-21.6740 -12.5964 1.5870
-21.6750 -12.8815 1.6585
-21.6761 -13.1701 1.7306
-21.6772 -13.4624 1.8034
-21.6783 -13.7584 1.8769
-21.6073 -14.0116 1.9447
-21.5965 -14.3066 2.0184
-21.6936 -14.6784 2.1033
-21.6947 -14.9911 2.1800
-21.6959 -15.3082 2.2576
-21.6971 -15.6299 2.3362
-21.6983 -15.9565 2.4156
-21.6996 -16.2880 2.4961
-21.7008 -16.6247 2.5776
-21.9129 -17.1316 2.6859
-21.2462 -16.9497 2.6859
-20.6105 -16.7772 2.6859
-20.0038 -16.6135 2.6859
-19.7296 -16.7170 2.7282
-19.7160 -17.0423 2.8066
-19.3770 -17.0862 2.8383
-18.8377 -16.9442 2.8383
-18.3197 -16.8087 2.8383
-17.8218 -16.6793 2.8383
-17.3425 -16.5556 2.8383
-16.8808 -16.4373 2.8383
-16.4356 -16.3241 2.8383
-28.8353 17.1531 -6.3049
-28.9231 16.8186 -6.2022
-29.0104 16.4863 -6.1002
-29.0378 16.1230 -5.9868
-29.1832 15.8276 -5.8984
-29.2689 15.5010 -5.7986
-29.8745 15.4452 -5.8005
-30.6560 15.4672 -5.8325
-31.0203 15.2685 -5.7820
-30.6682 14.7210 -5.5994
-27.8051 11.6997 -4.5633
-27.8808 11.4104 -4.4760
-27.9562 11.1220 -4.3890
-28.0314 10.8345 -4.3025
-28.1063 10.5478 -4.2163
-28.1125 10.2370 -4.1204
-28.2553 9.9767 -4.0449
-28.3296 9.6921 -3.9596
-30.2921 9.0575 -3.8322
-30.2577 8.7264 -3.7295
-40.7408 11.3206 -4.8901
-40.6461 10.8686 -4.7486
-40.5525 10.4212 -4.6086
-40.4600 9.9784 -4.4702
-40.3685 9.5400 -4.3333
-40.2780 9.1058 -4.1979
-40.1885 8.6757 -4.0640
-40.0999 8.2494 -3.9314
-40.0123 7.8270 -3.8001
-39.9255 7.4082 -3.6701
-39.8395 6.9928 -3.5414
-39.8449 6.5959 -3.4216
-42.4867 6.6104 -3.5209
-48.6448 7.0861 -3.8858
-48.3039 6.5589 -3.7148
-48.5020 6.1077 -3.5863
-48.5354 5.6349 -3.4455
-49.3898 4.7667 -3.2162
-47.8890 4.1544 -2.9786
-48.0919 3.7035 -2.8513
-42.3384 -4.1239 -0.3308
-37.7911 -4.0499 -0.1877
-38.3681 -4.4871 -0.0813
-38.3470 -4.8607 0.0281
-38.3537 -5.2386 0.1376
-38.3880 -5.6217 0.2475
-21.6399 -3.3831 0.2015
-6.9856 -1.1614 0.0851
-6.9849 -1.2308 0.1052
-6.9842 -1.3004 0.1253
-6.9834 -1.3703 0.1454
-6.9827 -1.4404 0.1656
-7.4565 -1.6136 0.1985
-7.3652 -1.6686 0.2176
-7.2757 -1.7225 0.2362
-7.1879 -1.7754 0.2545
-7.1769 -1.8467 0.2752
-6.8927 -1.8450 0.2847
-6.6352 -1.8451 0.2938
-6.3952 -1.8454 0.3022
-6.7534 -2.0199 0.3394
-6.5827 -2.0387 0.3506
-6.6908 -2.1435 0.3766
-6.6366 -2.1975 0.3938
-6.9925 -2.3909 0.4363
-6.9611 -2.4560 0.4558
-6.9297 -2.5210 0.4752
-21.6586 -8.1187 1.5527
-21.6595 -8.3604 1.6207
-21.6604 -8.6039 1.6891
-21.5754 -8.8145 1.7511
-21.5763 -9.0612 1.8203
-21.6611 -9.3464 1.8974
-21.6621 -9.5985 1.9679
-21.6630 -9.8531 2.0390
-21.6640 -10.1100 2.1107
-21.6649 -10.3694 2.1829
-21.6659 -10.6315 2.2559
-21.6669 -10.8963 2.3295
-21.6679 -11.1639 2.4038
-21.6689 -11.4343 2.4788
-21.6699 -11.7078 2.5545
-22.1243 -12.2351 2.6860
-21.4928 -12.1628 2.6859
-20.8911 -12.0947 2.6859
-20.3163 -12.0299 2.6859
-19.7662 -11.9682 2.6859
-19.7135 -12.2029 2.7521
-19.7008 -12.4650 2.8245
-19.2846 -12.4693 2.8383
-18.7922 -12.4153 2.8383
-18.3184 -12.3636 2.8383
-17.8623 -12.3141 2.8383
-17.4227 -12.2667 2.8383
-16.9987 -12.2213 2.8383
-16.5893 -12.1777 2.8383
-16.1938 -12.1359 2.8383
-15.8114 -12.0957 2.8383
-15.4412 -12.0571 2.8383
-15.0828 -12.0199 2.8383
-14.7354 -11.9842 2.8383
-14.3984 -11.9498 2.8383
-14.0714 -11.9167 2.8383
-13.7539 -11.8847 2.8383
-13.4452 -11.8539 2.8383
-13.1452 -11.8243 2.8383
-12.8532 -11.7956 2.8383
-12.5689 -11.7679 2.8383
-12.2919 -11.7413 2.8383
-12.0220 -11.7155 2.8383
-40.2712 17.0607 -4.5020
-40.1773 16.5596 -4.3577
-40.0846 16.0650 -4.2152
-39.9930 15.5769 -4.0745
-39.9025 15.0949 -3.9355
-39.8131 14.6188 -3.7981
-39.7248 14.1484 -3.6624
-39.6374 13.6836 -3.5282
-39.5510 13.2241 -3.3955
-39.4656 12.7698 -3.2642
-39.3811 12.3205 -3.1343
-39.2974 11.8759 -3.0058
-30.1061 8.7798 -2.2100
-38.7883 10.9040 -2.7284
-39.1274 10.5903 -2.6329
-39.2106 10.2053 -2.5196
-39.2177 9.8017 -2.4017
-39.3008 9.4183 -2.2887
-39.3078 9.0178 -2.1716
-39.3148 8.6190 -2.0550
-39.1695 8.1901 -1.9313
-39.1764 7.7961 -1.8159
-39.1833 7.4036 -1.7010
-39.3608 7.0431 -1.5933
-40.9969 6.9269 -1.5397
-49.1364 5.3938 -0.9922
-21.6285 0.0654 0.2431
-21.6293 -0.1436 0.3048
-21.6301 -0.3526 0.3666
-21.6309 -0.5618 0.4284
-21.6316 -0.7711 0.4902
-21.6324 -0.9805 0.5522
-21.6332 -1.1902 0.6142
-21.6339 -1.4002 0.6764
-21.6347 -1.6104 0.7387
-21.6355 -1.8211 0.8011
-21.6363 -2.0321 0.8636
-21.6371 -2.2435 0.9263
-21.6378 -2.4554 0.9892
-21.6386 -2.6679 1.0522
-21.6394 -2.8809 1.1155
-21.6402 -3.0946 1.1789
-21.6410 -3.3089 1.2426
-21.5571 -3.5101 1.3014
-21.5578 -3.7251 1.3654
-21.5595 -3.9410 1.4296
-7.4439 -1.4354 0.5159
-21.6441 -4.3920 1.5649
-21.6449 -4.6113 1.6302
-21.6457 -4.8316 1.6959
-21.6465 -5.0530 1.7619
-7.1945 -1.7533 0.6076
-7.1577 -1.8182 0.6266
-6.5761 -1.7387 0.5960
-21.6498 -5.9502 2.0297
-21.6507 -6.1777 2.0977
-21.6515 -6.4066 2.1661
-6.9127 -2.1189 0.7135
-6.8819 -2.1831 0.7324
-6.8512 -2.2471 0.7512
-21.6550 -7.3374 2.4446
-21.6558 -7.5741 2.5155
-21.6567 -7.8127 2.5870
-21.8765 -8.1345 2.6859
-21.2955 -8.1564 2.6859
-20.7399 -8.1772 2.6859
-20.2081 -8.1971 2.6859
-19.7244 -8.2268 2.6895
-19.7033 -8.4458 2.7550
-19.6914 -8.6703 2.8223
-19.3262 -8.7370 2.8383
-18.8672 -8.7537 2.8383
-18.4251 -8.7697 2.8383
-17.9990 -8.7851 2.8383
-17.5878 -8.7998 2.8383
-17.1908 -8.8140 2.8383
-16.8071 -8.8276 2.8383
-16.4361 -8.8406 2.8383
-16.0770 -8.8532 2.8383
-15.7292 -8.8653 2.8383
-15.3920 -8.8770 2.8383
-15.0651 -8.8882 2.8383
-14.7478 -8.8990 2.8383
-14.4397 -8.9095 2.8383
-14.1403 -8.9196 2.8383
-13.8492 -8.9293 2.8383
-13.5660 -8.9387 2.8383
-13.2902 -8.9478 2.8383
-13.0218 -8.9566 2.8383
-12.7601 -8.9650 2.8383
-12.5050 -8.9733 2.8383
-12.2561 -8.9812 2.8383
-12.0133 -8.9889 2.8383
-11.7761 -8.9964 2.8383
-11.5445 -9.0036 2.8383
-11.3180 -9.0106 2.8383
-11.0966 -9.0174 2.8383
-10.8800 -9.0240 2.8383
-10.6681 -9.0304 2.8383
-10.4605 -9.0365 2.8383
-10.2573 -9.0425 2.8383
-10.0581 -9.0484 2.8383
-9.8629 -9.0540 2.8383
-9.1521 -8.5731 2.6859
-8.9744 -8.5781 2.6859
-39.2328 18.5697 -2.8437
-38.6667 17.8428 -2.6795
-39.0056 17.5406 -2.5796
-39.0135 17.0898 -2.4576
-39.0213 16.6427 -2.3363
-39.0291 16.1994 -2.2159
-39.0368 15.7596 -2.0961
-39.0445 15.3233 -1.9770
-39.0520 14.8903 -1.8586
-39.0596 14.4606 -1.7408
-38.8979 13.9731 -1.6165
-39.0745 13.6101 -1.5069
-39.0819 13.1892 -1.3908
-39.0892 12.7711 -1.2751
-39.0965 12.3555 -1.1600
-38.9921 11.9084 -1.0423
-30.1349 8.8853 -0.7173
-37.8852 10.7730 -0.7913
-39.2773 10.7591 -0.7063
-39.2844 10.3535 -0.5926
-37.9057 9.5991 -0.4624
-37.8474 9.1958 -0.3528
-37.9040 8.8223 -0.2445
-38.6611 8.6055 -0.1387
-39.1672 8.3217 -0.0286
-38.7795 7.8485 0.0822
-39.1810 7.5365 0.1945
-39.2438 7.1561 0.3063
-21.9783 3.7888 0.2339
-21.6068 3.5102 0.2911
-21.6076 3.2965 0.3523
-21.6084 3.0835 0.4134
-21.6092 2.8710 0.4745
-21.6100 2.6590 0.5356
-21.6107 2.4476 0.5966
-21.6115 2.2366 0.6577
-21.6123 2.0260 0.7187
-21.5376 1.8094 0.7771
-21.5301 1.5996 0.8377
-21.5309 1.3908 0.8987
-21.6237 1.1872 0.9638
-21.6245 0.9779 1.0251
-21.6253 0.7688 1.0866
-21.6260 0.5597 1.1481
-21.6268 0.3507 1.2098
-21.6276 0.1418 1.2716
-21.6284 -0.0672 1.3335
-21.6291 -0.2763 1.3956
-21.6299 -0.4854 1.4579
-21.6307 -0.6947 1.5203
-21.6314 -0.9042 1.5829
-21.6322 -1.1140 1.6457
-21.6330 -1.3240 1.7088
-21.6338 -1.5343 1.7721
-21.6346 -1.7450 1.8356
-21.6353 -1.9561 1.8993
-21.6361 -2.1677 1.9634
-21.6369 -2.3797 2.0277
-21.6377 -2.5923 2.0924
-21.6385 -2.8055 2.1573
-21.6392 -3.0194 2.2226
-21.6400 -3.2339 2.2882
-21.5561 -3.4356 2.3449
-21.5569 -3.6508 2.4110
-21.5586 -3.8670 2.4776
-21.6423 -4.0995 2.5543
-22.1731 -4.4239 2.6861
-21.6121 -4.5311 2.6859
-21.0764 -4.6335 2.6859
-20.5633 -4.7311 2.6859
-7.1752 -1.7247 0.9602
-7.1384 -1.7896 0.9783
-19.6933 -5.1419 2.7629
-19.6822 -5.3448 2.8258
-19.3253 -5.4512 2.8383
-18.8972 -5.5304 2.8383
-18.4843 -5.6064 2.8383
-18.0858 -5.6794 2.8383
-17.7008 -5.7496 2.8383
-17.3286 -5.8170 2.8383
-16.9685 -5.8819 2.8383
-16.6199 -5.9444 2.8383
-16.2821 -6.0046 2.8383
-15.9547 -6.0627 2.8383
-15.6370 -6.1186 2.8383
-15.3287 -6.1726 2.8383
-15.0292 -6.2247 2.8383
-14.7381 -6.2751 2.8383
-14.4551 -6.3237 2.8383
-14.1797 -6.3707 2.8383
-13.9116 -6.4162 2.8383
-13.6505 -6.4602 2.8383
-13.3960 -6.5028 2.8383
-13.1479 -6.5441 2.8383
-12.9058 -6.5840 2.8383
-12.6696 -6.6228 2.8383
-12.4390 -6.6603 2.8383
-12.2137 -6.6967 2.8383
-11.9935 -6.7320 2.8383
-11.7783 -6.7662 2.8383
-11.5677 -6.7995 2.8383
-11.3617 -6.8317 2.8383
-11.1600 -6.8631 2.8383
-10.9625 -6.8935 2.8383
-10.7690 -6.9231 2.8383
-10.5794 -6.9518 2.8383
-10.3935 -6.9797 2.8383
-10.2112 -7.0069 2.8383
-10.0323 -7.0333 2.8383
-9.8568 -7.0590 2.8383
-9.1644 -6.7036 2.6859
-9.0043 -6.7266 2.6859
-8.8469 -6.7490 2.6859
-8.6923 -6.7708 2.6859
-8.5402 -6.7920 2.6859
-8.3908 -6.8126 2.6859
-8.2437 -6.8328 2.6859
-8.0990 -6.8524 2.6859
-7.9566 -6.8714 2.6859
-7.8164 -6.8900 2.6859
-7.6784 -6.9081 2.6859
-7.5424 -6.9258 2.6859
-7.4084 -6.9430 2.6859
-41.0658 22.0513 -1.4260
-41.7245 21.8861 -1.3226
-42.3953 21.7164 -1.2165
-43.0789 21.5419 -1.1074
-43.7756 21.3625 -0.9953
-39.2617 18.6911 -0.7768
-37.3164 17.3238 -0.6287
-37.4191 16.9332 -0.5212
-37.4266 16.5022 -0.4125
-39.0194 16.7555 -0.3172
-38.9739 16.2915 -0.2046
-39.0236 15.8709 -0.0929
-39.0313 15.4361 0.0185
-39.0500 15.0089 0.1296
-39.0575 14.5804 0.2404
-39.0326 14.1432 0.3505
-21.5949 7.5897 0.2547
-21.5958 7.3566 0.3154
-21.5091 7.0962 0.3744
-21.5099 6.8671 0.4345
-21.5108 6.6395 0.4945
-21.5953 6.4381 0.5565
-21.5961 6.2123 0.6165
-21.5970 5.9877 0.6764
-21.5978 5.7643 0.7362
-21.5986 5.5421 0.7960
-21.5994 5.3210 0.8557
-21.6002 5.1010 0.9154
-21.6011 4.8819 0.9750
-21.6019 4.6638 1.0347
-21.6027 4.4466 1.0943
-21.6035 4.2302 1.1539
-21.6043 4.0146 1.2136
-21.6051 3.7998 1.2733
-21.6059 3.5857 1.3330
-21.6066 3.3723 1.3928
-21.6074 3.1595 1.4527
-21.6082 2.9472 1.5126
-21.6090 2.7355 1.5727
-21.6098 2.5242 1.6328
-21.6106 2.3134 1.6931
-21.6113 2.1030 1.7535
-21.6121 1.8929 1.8140
-21.5291 1.6766 1.8674
-21.5299 1.4679 1.9280
-21.5307 1.2594 1.9888
-21.6235 1.0556 2.0586
-21.6243 0.8465 2.1200
-21.6251 0.6376 2.1816
-21.6259 0.4287 2.2435
-21.6266 0.2197 2.3056
-21.6274 0.0108 2.3680
-21.6282 -0.1982 2.4306
-21.6289 -0.4074 2.4935
-21.6297 -0.6167 2.5567
-22.1742 -0.8470 2.6861
-21.6465 -1.0367 2.6859
-21.1420 -1.2178 2.6859
-20.6579 -1.3907 2.6859
-20.1931 -1.5562 2.6859
-19.7462 -1.7144 2.6859
-19.6895 -1.9021 2.7378
-19.6792 -2.0940 2.7963
-19.5528 -2.2727 2.8383
-19.1459 -2.4141 2.8383
-18.7531 -2.5500 2.8383
-18.3735 -2.6806 2.8383
-18.0064 -2.8062 2.8383
-17.6512 -2.9271 2.8383
-17.3073 -3.0435 2.8383
-16.9741 -3.1558 2.8383
-16.6510 -3.2640 2.8383
-16.3374 -3.3684 2.8383
-16.0331 -3.4692 2.8383
-15.7375 -3.5665 2.8383
-7.1782 -1.7007 1.3187
-7.1428 -1.7663 1.3364
-7.1076 -1.8317 1.3541
-14.6341 -3.9245 2.8383
-14.3763 -4.0069 2.8383
-14.1250 -4.0866 2.8383
-13.8801 -4.1639 2.8383
-13.6411 -4.2388 2.8383
-13.4079 -4.3113 2.8383
-13.1802 -4.3817 2.8383
-12.9578 -4.4501 2.8383
-12.7405 -4.5163 2.8383
-12.5281 -4.5806 2.8383
-12.3203 -4.6431 2.8383
-12.1171 -4.7038 2.8383
-11.9181 -4.7628 2.8383
-11.7233 -4.8201 2.8383
-11.5325 -4.8758 2.8383
-11.3456 -4.9300 2.8383
-11.1623 -4.9827 2.8383
-10.9827 -5.0339 2.8383
-10.8064 -5.0838 2.8383
-10.6335 -5.1324 2.8383
-10.4638 -5.1797 2.8383
-10.2971 -5.2257 2.8383
-10.1335 -5.2706 2.8383
-9.9727 -5.3142 2.8383
-9.8147 -5.3568 2.8383
-9.1407 -5.1084 2.6859
-8.9962 -5.1467 2.6859
-8.8540 -5.1840 2.6859
-8.7142 -5.2203 2.6859
-8.5765 -5.2558 2.6859
-8.4410 -5.2903 2.6859
-8.3076 -5.3241 2.6859
-8.1762 -5.3570 2.6859
-8.0468 -5.3891 2.6859
-7.9192 -5.4204 2.6859
-7.7935 -5.4510 2.6859
-7.6696 -5.4808 2.6859
-7.5473 -5.5099 2.6859
-7.4268 -5.5384 2.6859
-7.3078 -5.5661 2.6859
-7.1904 -5.5932 2.6859
-7.0746 -5.6197 2.6859
-6.9602 -5.6455 2.6859
-6.8473 -5.6707 2.6859
-6.7357 -5.6954 2.6859
-6.6255 -5.7194 2.6859
-6.5166 -5.7430 2.6859
-6.4090 -5.7659 2.6859
-6.3026 -5.7883 2.6859
-37.8532 24.8928 -0.2291
-37.8349 24.3600 -0.1200
-37.8438 23.8516 -0.0117
-37.8526 23.3492 0.0960
-37.8887 22.8693 0.2033
-37.8973 22.3782 0.3100
-21.9118 12.6552 0.2405
-21.4934 12.1385 0.2958
-21.4974 11.8687 0.3554
-21.5791 11.6438 0.4163
-21.5801 11.3771 0.4756
-21.5810 11.1133 0.5346
-21.5820 10.8520 0.5935
-21.5830 10.5934 0.6521
-21.5839 10.3372 0.7106
-21.5849 10.0834 0.7689
-21.5858 9.8319 0.8270
-21.5868 9.5826 0.8850
-21.5877 9.3355 0.9428
-21.5886 9.0905 1.0005
-21.5895 8.8475 1.0582
-21.5904 8.6064 1.1157
-21.5913 8.3672 1.1732
-21.5922 8.1297 1.2305
-21.5931 7.8940 1.2879
-21.5939 7.6600 1.3452
-21.5948 7.4275 1.4024
-21.5956 7.1966 1.4596
-21.5089 6.9389 1.5107
-21.5098 6.7118 1.5677
-21.5145 6.4872 1.6250
-21.5952 6.2859 1.6883
-21.5960 6.0618 1.7456
-21.5968 5.8389 1.8030
-21.5976 5.6171 1.8604
-21.5985 5.3965 1.9179
-21.5993 5.1768 1.9755
-21.6001 4.9581 2.0331
-21.6009 4.7404 2.0909
-21.6017 4.5235 2.1488
-21.6025 4.3075 2.2068
-21.6033 4.0922 2.2650
-21.6041 3.8777 2.3233
-21.6049 3.6639 2.3817
-21.6057 3.4507 2.4404
-21.6065 3.2382 2.4992
-21.6072 3.0262 2.5582
-22.1749 2.8885 2.6861
-21.6820 2.6125 2.6859
-21.2099 2.3488 2.6859
-20.7562 2.0965 2.6859
-20.3199 1.8550 2.6859
-19.8996 1.6235 2.6859
-19.6857 1.4153 2.7123
-19.6762 1.2242 2.7664
-19.6666 1.0334 2.8207
-19.4046 0.8321 2.8383
-19.0325 0.6322 2.8383
-18.6725 0.4399 2.8383
-18.3239 0.2548 2.8383
-17.9862 0.0763 2.8383
-17.6589 -0.0957 2.8383
-17.3413 -0.2617 2.8383
-17.0331 -0.4218 2.8383
-16.7338 -0.5765 2.8383
-16.4429 -0.7259 2.8383
-16.1601 -0.8703 2.8383
-15.8850 -1.0101 2.8383
-15.6172 -1.1452 2.8383
-15.3564 -1.2760 2.8383
-15.1023 -1.4026 2.8383
-14.8546 -1.5254 2.8383
-14.6131 -1.6442 2.8383
-14.3774 -1.7595 2.8383
-14.1474 -1.8713 2.8383
-13.9228 -1.9798 2.8383
-13.7033 -2.0850 2.8383
-13.4889 -2.1872 2.8383
-13.2792 -2.2865 2.8383
-13.0740 -2.3829 2.8383
-12.8733 -2.4765 2.8383
-12.6769 -2.5676 2.8383
-12.4845 -2.6561 2.8383
-12.2961 -2.7423 2.8383
-7.1912 -1.6780 1.6853
-7.1553 -1.7438 1.7023
-7.1197 -1.8094 1.7194
-7.0845 -1.8748 1.7366
-11.4081 -3.1394 2.8383
-11.2405 -3.2127 2.8383
-11.0759 -3.2841 2.8383
-10.9142 -3.3537 2.8383
-10.7555 -3.4215 2.8383
-10.5994 -3.4876 2.8383
-10.4460 -3.5521 2.8383
-10.2953 -3.6149 2.8383
-10.1469 -3.6763 2.8383
-10.0011 -3.7361 2.8383
-9.8575 -3.7945 2.8383
-9.1945 -3.6447 2.6859
-9.0629 -3.6973 2.6859
-8.9333 -3.7486 2.6859
-8.8057 -3.7988 2.6859
-8.6799 -3.8478 2.6859
-8.5560 -3.8956 2.6859
-8.4338 -3.9424 2.6859
-8.3134 -3.9880 2.6859
-8.1946 -4.0326 2.6859
-8.0775 -4.0762 2.6859
-7.9619 -4.1188 2.6859
-7.8479 -4.1605 2.6859
-7.7354 -4.2012 2.6859
-7.6243 -4.2410 2.6859
-7.5147 -4.2799 2.6859
-7.4064 -4.3179 2.6859
-7.2994 -4.3551 2.6859
-7.1937 -4.3914 2.6859
-7.0893 -4.4270 2.6859
-6.9861 -4.4618 2.6859
-6.8841 -4.4958 2.6859
-6.7832 -4.5291 2.6859
-6.6835 -4.5617 2.6859
-6.5849 -4.5936 2.6859
-6.4873 -4.6247 2.6859
-6.3908 -4.6552 2.6859
-6.2953 -4.6851 2.6859
-6.2008 -4.7142 2.6859
-6.1072 -4.7428 2.6859
-6.0146 -4.7708 2.6859
-5.9228 -4.7981 2.6859
-5.8320 -4.8249 2.6859
-5.7606 -4.8667 2.6946
-5.7542 -4.9641 2.7341
-5.7478 -5.0631 2.7743
-5.7412 -5.1639 2.8154
-21.5645 16.0853 0.7670
-21.5657 15.7658 0.8230
-21.5669 15.4509 0.8787
-21.5681 15.1403 0.9341
-21.5693 14.8340 0.9894
-21.5704 14.5317 1.0444
-21.5715 14.2334 1.0992
-21.5726 13.9389 1.1538
-21.5737 13.6481 1.2083
-21.5748 13.3608 1.2626
-21.5759 13.0769 1.3168
-21.5769 12.7964 1.3709
-21.5780 12.5191 1.4248
-21.4925 12.1958 1.4727
-21.4935 11.9257 1.5263
-21.5781 11.7038 1.5859
-21.5791 11.4384 1.6395
-21.5801 11.1756 1.6930
-21.5810 10.9154 1.7465
-21.5820 10.6578 1.8000
-21.5830 10.4026 1.8535
-21.5839 10.1498 1.9069
-21.5848 9.8992 1.9604
-21.5858 9.6509 2.0139
-21.5867 9.4046 2.0674
-21.5876 9.1604 2.1209
-21.5885 8.9182 2.1745
-21.5894 8.6778 2.2281
-21.5903 8.4393 2.2818
-21.5912 8.2026 2.3356
-21.5921 7.9676 2.3895
-21.5929 7.7341 2.4434
-21.5938 7.5023 2.4975
-21.5947 7.2720 2.5517
-21.5080 7.0146 2.5954
-21.8030 6.8809 2.6859
-21.3656 6.5189 2.6859
-20.9441 6.1719 2.6859
-20.5377 5.8393 2.6859
-20.1456 5.5201 2.6859
-19.7669 5.2130 2.6859
-19.6743 4.9883 2.7238
-19.6657 4.7864 2.7732
-19.6570 4.5853 2.8227
-19.4154 4.3334 2.8383
-19.0757 4.0663 2.8383
-18.7463 3.8087 2.8383
-18.4267 3.5603 2.8383
-18.1164 3.3207 2.8383
-17.8150 3.0892 2.8383
-17.5220 2.8656 2.8383
-17.2371 2.6495 2.8383
-16.9598 2.4406 2.8383
-16.6899 2.2384 2.8383
-16.4270 2.0429 2.8383
-16.1708 1.8535 2.8383
-15.9210 1.6700 2.8383
-15.6774 1.4923 2.8383
-15.4396 1.3200 2.8383
-15.2075 1.1529 2.8383
-14.9809 0.9908 2.8383
-14.7594 0.8335 2.8383
-14.5429 0.6807 2.8383
-14.3313 0.5324 2.8383
-14.1242 0.3884 2.8383
-13.9216 0.2484 2.8383
-13.7233 0.1123 2.8383
-13.5291 -0.0200 2.8383
-13.3388 -0.1486 2.8383
-13.1524 -0.2738 2.8383
-12.9697 -0.3956 2.8383
-12.7905 -0.5142 2.8383
-12.6147 -0.6296 2.8383
-12.4423 -0.7421 2.8383
-12.2730 -0.8516 2.8383
-12.1069 -0.9583 2.8383
-11.9437 -1.0623 2.8383
-11.7835 -1.1636 2.8383
-11.6260 -1.2625 2.8383
-11.4712 -1.3589 2.8383
-11.3191 -1.4529 2.8383
-11.1694 -1.5446 2.8383
-11.0223 -1.6341 2.8383
-10.8775 -1.7214 2.8383
-10.7350 -1.8067 2.8383
-10.5948 -1.8899 2.8383
-10.4567 -1.9712 2.8383
-10.3207 -2.0506 2.8383
-10.1868 -2.1281 2.8383
-10.0548 -2.2039 2.8383
-7.2050 -1.6537 2.0605
-7.1689 -1.7199 2.0770
-7.1329 -1.7858 2.0936
-7.0971 -1.8514 2.1103
-7.0618 -1.9169 2.1271
-8.8022 -2.4829 2.6859
-8.6891 -2.5441 2.6859
-8.5774 -2.6039 2.6859
-8.4672 -2.6625 2.6859
-8.3583 -2.7197 2.6859
-8.2509 -2.7758 2.6859
-8.1448 -2.8305 2.6859
-8.0400 -2.8842 2.6859
-7.9364 -2.9367 2.6859
-7.8341 -2.9881 2.6859
-7.7330 -3.0384 2.6859
-7.6331 -3.0876 2.6859
-7.5343 -3.1359 2.6859
-7.4366 -3.1831 2.6859
-7.3400 -3.2293 2.6859
-7.2444 -3.2746 2.6859
-7.1499 -3.3189 2.6859
-7.0564 -3.3624 2.6859
-6.9639 -3.4049 2.6859
-6.8723 -3.4466 2.6859
-6.7816 -3.4875 2.6859
-6.6919 -3.5275 2.6859
-6.6030 -3.5667 2.6859
-6.5150 -3.6051 2.6859
-6.4279 -3.6427 2.6859
-6.3416 -3.6796 2.6859
-6.2560 -3.7157 2.6859
-6.1713 -3.7511 2.6859
-6.0873 -3.7858 2.6859
-6.0041 -3.8199 2.6859
-5.9216 -3.8531 2.6859
-5.8399 -3.8858 2.6859
-5.7595 -3.9183 2.6863
-5.7538 -4.0016 2.7216
-5.7480 -4.0861 2.7576
-5.7421 -4.1718 2.7942
-5.7361 -4.2586 2.8316
-5.6676 -4.2994 2.8383
-5.5860 -4.3294 2.8383
-5.5051 -4.3588 2.8383
-5.4247 -4.3876 2.8383
-5.3449 -4.4158 2.8383
-5.2657 -4.4434 2.8383
-5.1871 -4.4705 2.8383
-5.1091 -4.4971 2.8383
-21.5623 16.4489 2.0045
-21.5636 16.1269 2.0519
-21.5648 15.8096 2.0992
-21.5659 15.4967 2.1465
-21.5671 15.1881 2.1939
-21.5683 14.8836 2.2412
-21.5694 14.5831 2.2886
-21.5705 14.2865 2.3360
-21.5716 13.9936 2.3834
-21.5727 13.7044 2.4309
-21.5738 13.4186 2.4784
-21.5749 13.1362 2.5260
-21.5759 12.8571 2.5737
-22.1088 12.8913 2.6861
-21.7118 12.3846 2.6859
-21.3302 11.8995 2.6859
-20.9605 11.4333 2.6859
-20.6026 10.9852 2.6859
-20.2559 10.5542 2.6859
-19.9197 10.1394 2.6859
-19.6708 9.7783 2.6965
-19.6597 9.5407 2.7392
-19.6523 9.3074 2.7826
-19.6448 9.0763 2.8260
-19.4237 8.7510 2.8383
-19.1251 8.3987 2.8383
-18.8346 8.0584 2.8383
-18.5517 7.7295 2.8383
-18.2760 7.4115 2.8383
-18.0074 7.1040 2.8383
-17.7454 6.8063 2.8383
-17.4898 6.5181 2.8383
-17.2403 6.2390 2.8383
-16.9968 5.9687 2.8383
-16.7588 5.7066 2.8383
-16.5263 5.4525 2.8383
-16.2991 5.2060 2.8383
-16.0768 4.9669 2.8383
-15.8594 4.7348 2.8383
-15.6466 4.5094 2.8383
-15.4383 4.2905 2.8383
-15.2343 4.0778 2.8383
-15.0345 3.8711 2.8383
-14.8386 3.6702 2.8383
-14.6467 3.4748 2.8383
-14.4584 3.2848 2.8383
-14.2738 3.0999 2.8383
-14.0927 2.9200 2.8383
-13.9149 2.7448 2.8383
-13.7404 2.5742 2.8383
-13.5690 2.4081 2.8383
-13.4007 2.2463 2.8383
-13.2353 2.0886 2.8383
-13.0728 1.9349 2.8383
-12.9130 1.7851 2.8383
-12.7560 1.6390 2.8383
-12.6015 1.4965 2.8383
-12.4495 1.3575 2.8383
-12.3000 1.2219 2.8383
-12.1529 1.0896 2.8383
-12.0081 0.9604 2.8383
-11.8655 0.8343 2.8383
-11.7250 0.7111 2.8383
-11.5867 0.5909 2.8383
-11.4505 0.4734 2.8383
-11.3162 0.3587 2.8383
-11.1838 0.2466 2.8383
-11.0534 0.1370 2.8383
-10.9247 0.0299 2.8383
-10.7979 -0.0748 2.8383
-10.6728 -0.1772 2.8383
-10.5493 -0.2773 2.8383
-10.4276 -0.3752 2.8383
-10.3074 -0.4710 2.8383
-10.1887 -0.5647 2.8383
-10.0716 -0.6564 2.8383
-9.9560 -0.7461 2.8383
-9.8418 -0.8338 2.8383
-9.7290 -0.9198 2.8383
-9.1012 -0.9500 2.6859
-8.9970 -1.0279 2.6859
-8.8941 -1.1043 2.6859
-8.7924 -1.1790 2.6859
-8.6918 -1.2522 2.6859
-8.5924 -1.3238 2.6859
-8.4941 -1.3941 2.6859
-8.3969 -1.4629 2.6859
-8.3008 -1.5303 2.6859
-8.2057 -1.5963 2.6859
-8.1116 -1.6610 2.6859
-8.0185 -1.7245 2.6859
-7.2200 -1.6274 2.4466
-7.1837 -1.6940 2.4626
-7.1475 -1.7602 2.4787
-7.1115 -1.8262 2.4950
-7.0756 -1.8919 2.5114
-7.4796 -2.0797 2.6859
-7.3929 -2.1349 2.6859
-7.3070 -2.1890 2.6859
-7.2219 -2.2421 2.6859
-7.1375 -2.2942 2.6859
-7.0540 -2.3453 2.6859
-6.9712 -2.3954 2.6859
-6.8892 -2.4446 2.6859
-6.8079 -2.4928 2.6859
-6.7273 -2.5401 2.6859
-6.6473 -2.5865 2.6859
-6.5681 -2.6321 2.6859
-6.4895 -2.6767 2.6859
-6.4116 -2.7206 2.6859
-6.3343 -2.7636 2.6859
-6.2577 -2.8059 2.6859
-6.1816 -2.8473 2.6859
-6.1062 -2.8879 2.6859
-6.0313 -2.9278 2.6859
-5.9570 -2.9670 2.6859
-5.8833 -3.0054 2.6859
-5.8101 -3.0432 2.6859
-5.7560 -3.0901 2.6946
-5.7508 -3.1635 2.7265
-5.7456 -3.2378 2.7589
-5.7403 -3.3128 2.7918
-5.7349 -3.3887 2.8253
-5.6873 -3.4399 2.8383
-5.6137 -3.4749 2.8383
-5.5406 -3.5092 2.8383
-5.4680 -3.5429 2.8383
-5.3959 -3.5760 2.8383
-5.3242 -3.6084 2.8383
-5.2530 -3.6403 2.8383
-5.1822 -3.6715 2.8383
-5.1118 -3.7022 2.8383
-5.0419 -3.7323 2.8383
-4.9724 -3.7618 2.8383
-4.9034 -3.7908 2.8383
-4.8347 -3.8192 2.8383
-4.7664 -3.8471 2.8383
-4.6985 -3.8745 2.8383
-4.6309 -3.9013 2.8383
-4.5638 -3.9277 2.8383
-18.7090 14.5966 2.8383
-18.4921 14.1483 2.8383
-18.2790 13.7133 2.8383
-18.0695 13.2912 2.8383
-17.8635 12.8813 2.8383
-17.6609 12.4834 2.8383
-17.4617 12.0968 2.8383
-17.2657 11.7213 2.8383
-17.0729 11.3563 2.8383
-16.8832 11.0015 2.8383
-16.6964 10.6565 2.8383
-16.5127 10.3212 2.8383
-16.3317 9.9949 2.8383
-16.1536 9.6774 2.8383
-15.9782 9.3684 2.8383
-15.8054 9.0677 2.8383
-15.6352 8.7749 2.8383
-15.4675 8.4897 2.8383
-15.3022 8.2120 2.8383
-15.1394 7.9414 2.8383
-14.9789 7.6777 2.8383
-14.8207 7.4207 2.8383
-14.6647 7.1702 2.8383
-14.5108 6.9259 2.8383
-14.3591 6.6877 2.8383
-14.2095 6.4554 2.8383
-14.0619 6.2287 2.8383
-13.9163 6.0075 2.8383
-13.7726 5.7917 2.8383
-13.6308 5.5810 2.8383
-13.4909 5.3753 2.8383
-13.3527 5.1745 2.8383
-13.2164 4.9784 2.8383
-13.0817 4.7868 2.8383
-12.9488 4.5997 2.8383
-12.8175 4.4168 2.8383
-12.6878 4.2382 2.8383
-12.5596 4.0635 2.8383
-12.4331 3.8928 2.8383
-12.3080 3.7259 2.8383
-12.1845 3.5628 2.8383
-12.0623 3.4032 2.8383
-11.9416 3.2471 2.8383
-11.8223 3.0944 2.8383
-11.7043 2.9451 2.8383
-11.5877 2.7990 2.8383
-11.4724 2.6559 2.8383
-11.3583 2.5160 2.8383
-11.2455 2.3790 2.8383
-11.1340 2.2449 2.8383
-11.0236 2.1135 2.8383
-10.9144 1.9850 2.8383
-10.8064 1.8591 2.8383
-10.6995 1.7357 2.8383
-10.5937 1.6149 2.8383
-10.4889 1.4966 2.8383
-10.3853 1.3806 2.8383
-10.2827 1.2670 2.8383
-10.1811 1.1557 2.8383
-10.0805 1.0466 2.8383
-9.9809 0.9397 2.8383
-9.8823 0.8349 2.8383
-9.7846 0.7321 2.8383
-9.1676 0.5975 2.6859
-9.0769 0.5040 2.6859
-8.9871 0.4123 2.6859
-8.8981 0.3224 2.6859
-8.8098 0.2343 2.6859
-8.7224 0.1477 2.6859
-8.6358 0.0629 2.6859
-8.5499 -0.0203 2.6859
-8.4648 -0.1020 2.6859
-8.3805 -0.1821 2.6859
-8.2968 -0.2607 2.6859
-8.2139 -0.3378 2.6859
-8.1317 -0.4135 2.6859
-8.0502 -0.4879 2.6859
-7.9693 -0.5608 2.6859
-7.8892 -0.6324 2.6859
-7.8096 -0.7027 2.6859
-7.7307 -0.7717 2.6859
-7.6525 -0.8394 2.6859
-7.5748 -0.9059 2.6859
-7.4978 -0.9712 2.6859
-7.4213 -1.0354 2.6859
-7.3455 -1.0984 2.6859
-7.2702 -1.1602 2.6859
-7.1955 -1.2210 2.6859
-7.1213 -1.2806 2.6859
-7.0477 -1.3392 2.6859
-6.9746 -1.3968 2.6859
-6.9021 -1.4533 2.6859
-6.8301 -1.5089 2.6859
-6.7585 -1.5634 2.6859
-6.6875 -1.6171 2.6859
-6.6170 -1.6697 2.6859
-6.5469 -1.7215 2.6859
-6.4774 -1.7723 2.6859
-6.4083 -1.8223 2.6859
-6.3396 -1.8714 2.6859
-6.2714 -1.9196 2.6859
-6.2037 -1.9670 2.6859
-6.1363 -2.0136 2.6859
-6.0695 -2.0594 2.6859
-6.0030 -2.1044 2.6859
-5.9369 -2.1486 2.6859
-5.8713 -2.1920 2.6859
-5.8060 -2.2347 2.6859
-5.7543 -2.2818 2.6921
-5.7497 -2.3477 2.7205
-5.7451 -2.4141 2.7493
-5.7404 -2.4810 2.7786
-5.7356 -2.5485 2.8083
-5.7303 -2.6164 2.8383
-5.6641 -2.6563 2.8383
-5.5983 -2.6956 2.8383
-5.5328 -2.7342 2.8383
-5.4677 -2.7721 2.8383
-5.4030 -2.8094 2.8383
-5.3386 -2.8460 2.8383
-5.2745 -2.8821 2.8383
-5.2108 -2.9174 2.8383
-5.1473 -2.9522 2.8383
-5.0843 -2.9864 2.8383
-5.0215 -3.0200 2.8383
-4.9590 -3.0530 2.8383
-4.8969 -3.0854 2.8383
-4.7735 -3.1485 2.8383
-4.8350 -3.1172 2.8383
-4.7122 -3.1793 2.8383
-4.5301 -3.2683 2.8383
-4.6512 -3.2095 2.8383
-4.4699 -3.2970 2.8383
-4.5905 -3.2392 2.8383
-4.4100 -3.3251 2.8383
-4.3504 -3.3527 2.8383
-4.2910 -3.3799 2.8383
-4.2319 -3.4065 2.8383
-4.1730 -3.4327 2.8383
-4.1143 -3.4583 2.8383
-13.3810 10.6784 2.8383
-13.2960 10.4082 2.8383
-13.2107 10.1433 2.8383
-13.1252 9.8836 2.8383
-13.0394 9.6289 2.8383
-12.9534 9.3792 2.8383
-12.8673 9.1344 2.8383
-12.7810 8.8943 2.8383
-12.6947 8.6589 2.8383
-12.6083 8.4280 2.8383
-12.5219 8.2017 2.8383
-12.4355 7.9796 2.8383
-12.3492 7.7619 2.8383
-12.2629 7.5483 2.8383
-12.1766 7.3388 2.8383
-12.0905 7.1334 2.8383
-12.0045 6.9318 2.8383
-11.9187 6.7341 2.8383
-11.8330 6.5402 2.8383
-11.7475 6.3498 2.8383
-11.6622 6.1632 2.8383
-11.5771 5.9800 2.8383
-11.4923 5.8003 2.8383
-11.4076 5.6239 2.8383
-11.3232 5.4509 2.8383
-11.2391 5.2810 2.8383
-11.1552 5.1144 2.8383
-11.0717 4.9508 2.8383
-10.9884 4.7902 2.8383
-10.9054 4.6326 2.8383
-10.8227 4.4779 2.8383
-10.7404 4.3260 2.8383
-10.6583 4.1770 2.8383
-10.5766 4.0306 2.8383
-10.4952 3.8869 2.8383
-10.4142 3.7457 2.8383
-10.3335 3.6072 2.8383
-10.2531 3.4711 2.8383
-10.1731 3.3375 2.8383
-10.0934 3.2063 2.8383
-10.0141 3.0774 2.8383
-9.9352 2.9508 2.8383
-9.8566 2.8264 2.8383
-9.7784 2.7043 2.8383
-9.1797 2.4456 2.6859
-9.1063 2.3340 2.6859
-9.0333 2.2244 2.6859
-8.9607 2.1167 2.6859
-8.8884 2.0110 2.6859
-8.8165 1.9070 2.6859
-8.7449 1.8048 2.6859
-8.6736 1.7045 2.6859
-8.6027 1.6058 2.6859
-8.5322 1.5089 2.6859
-8.4620 1.4136 2.6859
-8.3921 1.3199 2.6859
-8.3226 1.2279 2.6859
-8.2534 1.1373 2.6859
-8.1846 1.0484 2.6859
-8.1161 0.9610 2.6859
-8.0479 0.8750 2.6859
-7.9801 0.7904 2.6859
-7.9127 0.7074 2.6859
-7.8455 0.6256 2.6859
-7.7787 0.5453 2.6859
-7.7122 0.4663 2.6859
-7.6461 0.3886 2.6859
-7.5803 0.3122 2.6859
-7.5148 0.2371 2.6859
-7.4496 0.1632 2.6859
-7.3847 0.0905 2.6859
-7.3202 0.0190 2.6859
-7.2560 -0.0513 2.6859
-7.1921 -0.1204 2.6859
-7.1285 -0.1884 2.6859
-7.0652 -0.2553 2.6859
-7.0022 -0.3211 2.6859
-6.9396 -0.3859 2.6859
-6.8772 -0.4496 2.6859
-6.8151 -0.5122 2.6859
-6.7533 -0.5739 2.6859
-6.6918 -0.6345 2.6859
-6.6306 -0.6942 2.6859
-6.5697 -0.7529 2.6859
-6.5091 -0.8107 2.6859
-6.4488 -0.8675 2.6859
-6.3887 -0.9234 2.6859
-6.3289 -0.9785 2.6859
-6.2694 -1.0326 2.6859
-6.2102 -1.0858 2.6859
-6.1512 -1.1383 2.6859
-6.0925 -1.1899 2.6859
-6.0341 -1.2406 2.6859
-5.9759 -1.2906 2.6859
-5.9180 -1.3398 2.6859
-5.8603 -1.3881 2.6859
-5.8029 -1.4358 2.6859
-5.7527 -1.4844 2.6892
-5.7487 -1.5448 2.7142
-5.7446 -1.6055 2.7396
-5.7405 -1.6665 2.7653
-5.7363 -1.7280 2.7914
-5.7320 -1.7897 2.8179
-5.7146 -1.8477 2.8383
-5.6560 -1.8919 2.8383
-5.5976 -1.9355 2.8383
-5.5394 -1.9783 2.8383
-5.4815 -2.0205 2.8383
-5.4238 -2.0620 2.8383
-5.3663 -2.1028 2.8383
-5.3091 -2.1430 2.8383
-5.2521 -2.1826 2.8383
-5.1953 -2.2215 2.8383
-5.1387 -2.2598 2.8383
-5.0824 -2.2975 2.8383
-5.0262 -2.3346 2.8383
-4.9703 -2.3710 2.8383
-4.9146 -2.4069 2.8383
-4.8590 -2.4422 2.8383
-4.8037 -2.4770 2.8383
-4.7486 -2.5112 2.8383
-4.6937 -2.5448 2.8383
-4.6390 -2.5779 2.8383
-4.5844 -2.6104 2.8383
-4.5301 -2.6425 2.8383
-4.4759 -2.6739 2.8383
-4.4220 -2.7049 2.8383
-4.3682 -2.7353 2.8383
-4.3146 -2.7653 2.8383
-4.2611 -2.7947 2.8383
-4.2079 -2.8237 2.8383
-4.1548 -2.8522 2.8383
-4.1019 -2.8802 2.8383
-4.0491 -2.9077 2.8383
-3.9965 -2.9348 2.8383
-3.9441 -2.9614 2.8383
-3.8918 -2.9875 2.8383
-3.8397 -3.0132 2.8383
-3.7878 -3.0385 2.8383
-3.7360 -3.0633 2.8383
-10.3389 8.4412 2.8383
-10.3044 8.2548 2.8383
-10.2689 8.0711 2.8383
-10.2323 7.8898 2.8383
-10.1948 7.7111 2.8383
-10.1563 7.5348 2.8383
-10.1169 7.3610 2.8383
-10.0767 7.1896 2.8383
-10.0356 7.0207 2.8383
-9.9938 6.8541 2.8383
-9.9512 6.6899 2.8383
-9.9079 6.5280 2.8383
-9.8639 6.3684 2.8383
-9.8192 6.2111 2.8383
-9.7740 6.0560 2.8383
-9.7281 5.9032 2.8383
-9.1618 5.4438 2.6859
-9.1174 5.3033 2.6859
-9.0725 5.1648 2.6859
-9.0271 5.0284 2.6859
-8.9813 4.8940 2.6859
-8.9351 4.7615 2.6859
-8.8885 4.6309 2.6859
-8.8415 4.5023 2.6859
-8.7942 4.3755 2.6859
-8.7465 4.2506 2.6859
-8.6985 4.1275 2.6859
-8.6503 4.0063 2.6859
-8.6017 3.8867 2.6859
-8.5529 3.7690 2.6859
-8.5039 3.6530 2.6859
-8.4546 3.5387 2.6859
-8.4052 3.4261 2.6859
-8.3555 3.3151 2.6859
-8.3056 3.2058 2.6859
-8.2556 3.0980 2.6859
-8.2055 2.9919 2.6859
-8.1552 2.8873 2.6859
-8.1047 2.7843 2.6859
-8.0541 2.6828 2.6859
-8.0035 2.5827 2.6859
-7.9527 2.4842 2.6859
-7.9019 2.3870 2.6859
-7.8509 2.2914 2.6859
-7.7999 2.1971 2.6859
-7.7489 2.1043 2.6859
-7.6977 2.0127 2.6859
-7.6466 1.9226 2.6859
-7.5954 1.8337 2.6859
-7.5442 1.7462 2.6859
-7.4930 1.6600 2.6859
-7.4417 1.5750 2.6859
-7.3905 1.4912 2.6859
-7.3392 1.4087 2.6859
-7.2880 1.3274 2.6859
-7.2368 1.2473 2.6859
-7.1856 1.1684 2.6859
-7.1344 1.0906 2.6859
-7.0832 1.0140 2.6859
-7.0321 0.9385 2.6859
-6.9810 0.8641 2.6859
-6.9300 0.7908 2.6859
-6.8790 0.7185 2.6859
-6.8281 0.6473 2.6859
-6.7772 0.5771 2.6859
-6.7264 0.5080 2.6859
-6.6756 0.4399 2.6859
-6.6249 0.3728 2.6859
-6.5743 0.3066 2.6859
-6.5237 0.2414 2.6859
-6.4732 0.1772 2.6859
-6.4228 0.1139 2.6859
-6.3725 0.0515 2.6859
-6.3223 -0.0100 2.6859
-6.2721 -0.0705 2.6859
-6.2220 -0.1303 2.6859
-6.1721 -0.1891 2.6859
-5.9731 -0.4160 2.6859
-6.1222 -0.2470 2.6859
-5.9235 -0.4707 2.6859
-6.0724 -0.3042 2.6859
-5.8741 -0.5246 2.6859
-6.0227 -0.3605 2.6859
-5.8248 -0.5776 2.6859
-5.7756 -0.6300 2.6859
-5.7388 -0.8555 2.7625
-5.7494 -0.6842 2.6967
-5.7352 -0.9129 2.7851
-5.7459 -0.7412 2.7183
-5.7316 -0.9705 2.8080
-5.7424 -0.7983 2.7403
-5.7278 -1.0283 2.8312
-5.6911 -1.0801 2.8383
-5.4877 -1.2697 2.8383
-5.6401 -1.1286 2.8383
-5.4371 -1.3154 2.8383
-5.5892 -1.1763 2.8383
-5.3867 -1.3604 2.8383
-5.3364 -1.4048 2.8383
-5.5384 -1.2234 2.8383
-5.2861 -1.4485 2.8383
-5.0864 -1.6170 2.8383
-5.2360 -1.4916 2.8383
-5.0367 -1.6576 2.8383
-5.1860 -1.5340 2.8383
-5.1361 -1.5758 2.8383
-4.9872 -1.6975 2.8383
-4.8884 -1.7757 2.8383
-4.9377 -1.7369 2.8383
-4.8392 -1.8140 2.8383
-4.6922 -1.9252 2.8383
-4.7901 -1.8516 2.8383
-4.7411 -1.8887 2.8383
-4.6435 -1.9612 2.8383
-4.4978 -2.0660 2.8383
-4.5948 -1.9967 2.8383
-4.4495 -2.0999 2.8383
-4.5462 -2.0316 2.8383
-4.4012 -2.1332 2.8383
-4.3531 -2.1661 2.8383
-4.3051 -2.1984 2.8383
-4.1141 -2.3228 2.8383
-4.2572 -2.2303 2.8383
-4.0666 -2.3528 2.8383
-4.0192 -2.3822 2.8383
-4.2094 -2.2616 2.8383
-3.9719 -2.4112 2.8383
-4.1617 -2.2924 2.8383
-3.9247 -2.4397 2.8383
-3.8776 -2.4678 2.8383
-3.7369 -2.5494 2.8383
-3.8306 -2.4954 2.8383
-3.6902 -2.5757 2.8383
-3.7837 -2.5226 2.8383
-3.6436 -2.6016 2.8383
-3.5970 -2.6271 2.8383
-3.5506 -2.6521 2.8383
-3.5043 -2.6768 2.8383
-3.4580 -2.7010 2.8383
-3.4118 -2.7248 2.8383
-7.9152 6.6138 2.6859
-7.9044 6.4824 2.6859
-7.8925 6.3522 2.6859
-7.8796 6.2233 2.6859
-7.8656 6.0958 2.6859
-7.8507 5.9695 2.6859
-7.8348 5.8445 2.6859
-7.8180 5.7209 2.6859
-7.8002 5.5985 2.6859
-7.7816 5.4774 2.6859
-7.7622 5.3576 2.6859
-7.7419 5.2391 2.6859
-7.7208 5.1218 2.6859
-7.6990 5.0058 2.6859
-7.6764 4.8912 2.6859
-7.6531 4.7777 2.6859
-7.6290 4.6656 2.6859
-7.6043 4.5547 2.6859
-7.5789 4.4451 2.6859
-7.5529 4.3367 2.6859
-7.5263 4.2296 2.6859
-7.4990 4.1237 2.6859
-7.4712 4.0190 2.6859
-7.4429 3.9155 2.6859
-7.4139 3.8132 2.6859
-7.3845 3.7122 2.6859
-7.3546 3.6123 2.6859
-7.3241 3.5136 2.6859
-7.2932 3.4161 2.6859
-7.2619 3.3198 2.6859
-7.2301 3.2246 2.6859
-7.1979 3.1305 2.6859
-7.1652 3.0376 2.6859
-7.1322 2.9458 2.6859
-7.0988 2.8551 2.6859
-7.0651 2.7656 2.6859
-7.0310 2.6771 2.6859
-6.9965 2.5897 2.6859
-6.9617 2.5034 2.6859
-6.9266 2.4182 2.6859
-6.8912 2.3340 2.6859
-6.8556 2.2508 2.6859
-6.8196 2.1687 2.6859
-6.7834 2.0876 2.6859
-6.7469 2.0075 2.6859
-6.7102 1.9285 2.6859
-6.6733 1.8504 2.6859
-6.6361 1.7733 2.6859
-6.5987 1.6971 2.6859
-6.5611 1.6220 2.6859
-6.5233 1.5477 2.6859
-6.4853 1.4744 2.6859
-6.4472 1.4021 2.6859
-6.4088 1.3307 2.6859
-6.3703 1.2601 2.6859
-6.3317 1.1905 2.6859
-6.2929 1.1217 2.6859
-6.2539 1.0539 2.6859
-6.2149 0.9869 2.6859
-6.1757 0.9208 2.6859
-6.1363 0.8555 2.6859
-6.0969 0.7910 2.6859
-6.0574 0.7274 2.6859
-6.0177 0.6646 2.6859
-5.9780 0.6026 2.6859
-5.9382 0.5414 2.6859
-5.8982 0.4810 2.6859
-5.8583 0.4214 2.6859
-5.8182 0.3625 2.6859
-5.7781 0.3045 2.6859
-5.7480 0.2476 2.6907
-5.7452 0.1921 2.7084
-5.7423 0.1367 2.7263
-5.7394 0.0813 2.7445
-5.7365 0.0259 2.7630
-5.7335 -0.0295 2.7817
-5.7305 -0.0849 2.8008
-5.7274 -0.1404 2.8201
-5.7217 -0.1959 2.8383
-5.6788 -0.2496 2.8383
-5.6358 -0.3027 2.8383
-5.5929 -0.3552 2.8383
-5.5499 -0.4069 2.8383
-5.5069 -0.4579 2.8383
-5.4639 -0.5082 2.8383
-5.4209 -0.5579 2.8383
-5.3779 -0.6069 2.8383
-5.3349 -0.6553 2.8383
-5.2919 -0.7030 2.8383
-5.2488 -0.7501 2.8383
-5.2058 -0.7965 2.8383
-5.1628 -0.8423 2.8383
-5.1198 -0.8876 2.8383
-5.0768 -0.9322 2.8383
-5.0338 -0.9762 2.8383
-4.9908 -1.0195 2.8383
-4.9478 -1.0624 2.8383
-4.9049 -1.1046 2.8383
-4.8619 -1.1463 2.8383
-4.8190 -1.1874 2.8383
-4.7761 -1.2279 2.8383
-4.7333 -1.2679 2.8383
-4.6904 -1.3073 2.8383
-4.6476 -1.3462 2.8383
-4.6048 -1.3846 2.8383
-4.5620 -1.4224 2.8383
-4.5193 -1.4597 2.8383
-4.4766 -1.4965 2.8383
-4.4339 -1.5327 2.8383
-4.3913 -1.5685 2.8383
-4.3487 -1.6038 2.8383
-4.3061 -1.6385 2.8383
-4.2635 -1.6728 2.8383
-4.2210 -1.7066 2.8383
-4.1786 -1.7399 2.8383
-4.1361 -1.7728 2.8383
-4.0937 -1.8051 2.8383
-4.0514 -1.8370 2.8383
-4.0090 -1.8685 2.8383
-3.9668 -1.8994 2.8383
-3.9245 -1.9300 2.8383
-3.8823 -1.9601 2.8383
-3.8402 -1.9897 2.8383
-3.7980 -2.0189 2.8383
-3.7560 -2.0477 2.8383
-3.7139 -2.0761 2.8383
-3.6719 -2.1040 2.8383
-3.6300 -2.1315 2.8383
-3.5881 -2.1586 2.8383
-3.5462 -2.1853 2.8383
-3.5044 -2.2116 2.8383
-3.4626 -2.2374 2.8383
-3.4208 -2.2629 2.8383
-3.3791 -2.2880 2.8383
-3.3375 -2.3127 2.8383
-3.2959 -2.3370 2.8383
-3.2543 -2.3609 2.8383
-3.2128 -2.3844 2.8383
-3.1713 -2.4076 2.8383
-3.1298 -2.4304 2.8383
-6.5997 5.6463 2.6859
-6.5999 5.5434 2.6859
-6.5990 5.4411 2.6859
-6.5972 5.3395 2.6859
-6.5945 5.2388 2.6859
-6.5908 5.1388 2.6859
-6.5862 5.0395 2.6859
-6.5807 4.9410 2.6859
-6.5744 4.8432 2.6859
-6.5672 4.7463 2.6859
-6.5592 4.6501 2.6859
-6.5504 4.5548 2.6859
-6.5408 4.4602 2.6859
-6.5305 4.3664 2.6859
-6.5193 4.2734 2.6859
-6.5075 4.1813 2.6859
-6.4949 4.0899 2.6859
-6.4816 3.9993 2.6859
-6.4676 3.9096 2.6859
-6.4530 3.8206 2.6859
-6.4377 3.7325 2.6859
-6.4218 3.6452 2.6859
-6.4053 3.5587 2.6859
-6.3882 3.4730 2.6859
-6.3704 3.3881 2.6859
-6.3521 3.3040 2.6859
-6.3333 3.2208 2.6859
-6.3139 3.1383 2.6859
-6.2939 3.0567 2.6859
-6.2735 2.9758 2.6859
-6.2526 2.8958 2.6859
-6.2311 2.8165 2.6859
-6.2092 2.7381 2.6859
-6.1869 2.6604 2.6859
-6.1640 2.5836 2.6859
-6.1408 2.5075 2.6859
-6.1171 2.4322 2.6859
-6.0930 2.3577 2.6859
-6.0685 2.2839 2.6859
-6.0436 2.2110 2.6859
-6.0183 2.1388 2.6859
-5.9927 2.0673 2.6859
-5.9667 1.9966 2.6859
-5.9404 1.9267 2.6859
-5.9137 1.8575 2.6859
-5.8867 1.7891 2.6859
-5.8594 1.7214 2.6859
-5.8317 1.6544 2.6859
-5.8038 1.5882 2.6859
-5.7756 1.5227 2.6859
-5.7457 1.4575 2.6853
-5.7438 1.4000 2.6979
-5.7418 1.3428 2.7107
-5.7398 1.2857 2.7238
-5.7377 1.2288 2.7371
-5.7356 1.1721 2.7507
-5.7334 1.1157 2.7645
-5.7312 1.0594 2.7785
-5.7290 1.0032 2.7928
-5.7267 0.9473 2.8073
-5.7244 0.8914 2.8220
-5.7221 0.8357 2.8371
-5.6915 0.7763 2.8383
-5.6583 0.7172 2.8383
-5.6249 0.6588 2.8383
-5.5913 0.6011 2.8383
-5.5575 0.5440 2.8383
-5.5235 0.4876 2.8383
-5.4894 0.4318 2.8383
-5.4551 0.3767 2.8383
-5.4207 0.3223 2.8383
-5.3514 0.2152 2.8383
-5.3861 0.2684 2.8383
-5.3165 0.1627 2.8383
-5.2112 0.0087 2.8383
-5.1758 -0.0413 2.8383
-5.1404 -0.0908 2.8383
-5.1048 -0.1398 2.8383
-5.0691 -0.1881 2.8383
-5.0333 -0.2358 2.8383
-4.9974 -0.2830 2.8383
-4.9615 -0.3295 2.8383
-4.9254 -0.3755 2.8383
-4.8893 -0.4210 2.8383
-4.8530 -0.4659 2.8383
-4.8167 -0.5102 2.8383
-4.7804 -0.5541 2.8383
-4.7439 -0.5973 2.8383
-4.7074 -0.6401 2.8383
-4.6708 -0.6822 2.8383
-4.6342 -0.7239 2.8383
-4.5975 -0.7651 2.8383
-4.5607 -0.8057 2.8383
-4.5239 -0.8458 2.8383
-4.4871 -0.8854 2.8383
-4.3392 -1.0389 2.8383
-4.4502 -0.9246 2.8383
-4.4132 -0.9632 2.8383
-4.3021 -1.0761 2.8383
-4.3762 -1.0013 2.8383
-4.2650 -1.1128 2.8383
-4.1907 -1.1847 2.8383
-4.1535 -1.2200 2.8383
-4.2279 -1.1490 2.8383
-4.1163 -1.2548 2.8383
-4.0417 -1.3231 2.8383
-4.0790 -1.2892 2.8383
-4.0044 -1.3565 2.8383
-3.8924 -1.4543 2.8383
-3.8550 -1.4860 2.8383
-3.9671 -1.3895 2.8383
-3.7428 -1.5786 2.8383
-3.8176 -1.5173 2.8383
-3.9297 -1.4221 2.8383
-3.7053 -1.6086 2.8383
-3.7802 -1.5481 2.8383
-3.4431 -1.8074 2.8383
-3.5930 -1.6962 2.8383
-3.6679 -1.6382 2.8383
-3.4057 -1.8342 2.8383
-3.3682 -1.8606 2.8383
-3.5555 -1.7246 2.8383
-3.6305 -1.6674 2.8383
-3.3307 -1.8867 2.8383
-3.5181 -1.7526 2.8383
-3.2932 -1.9124 2.8383
-3.1434 -2.0114 2.8383
-3.1059 -2.0352 2.8383
-3.4806 -1.7802 2.8383
-3.2558 -1.9377 2.8383
-3.0685 -2.0587 2.8383
-2.9936 -2.1046 2.8383
-3.2183 -1.9626 2.8383
-3.0310 -2.0818 2.8383
-2.9561 -2.1271 2.8383
-3.1808 -1.9872 2.8383
-5.2815 0.1108 2.8383
-2.9187 -2.1491 2.8383
-5.2464 0.0595 2.8383
-2.8813 -2.1709 2.8383
-5.7278 5.0204 2.7376
-5.7285 4.9306 2.7350
-5.7291 4.8421 2.7329
-5.7296 4.7549 2.7310
-5.7300 4.6689 2.7296
-5.7304 4.5840 2.7286
-5.7308 4.5003 2.7279
-5.7310 4.4177 2.7276
-5.7312 4.3361 2.7276
-5.7314 4.2555 2.7279
-5.7315 4.1760 2.7286
-5.7315 4.0973 2.7297
-5.7315 4.0197 2.7310
-5.7314 3.9429 2.7327
-5.7313 3.8671 2.7347
-5.7311 3.7920 2.7370
-5.7308 3.7179 2.7397
-5.7305 3.6445 2.7426
-5.7302 3.5718 2.7458
-5.7298 3.5000 2.7493
-5.7293 3.4289 2.7531
-5.7288 3.3584 2.7573
-5.7283 3.2887 2.7617
-5.7277 3.2196 2.7663
-5.7270 3.1512 2.7713
-5.7263 3.0834 2.7765
-5.7256 3.0162 2.7820
-5.7248 2.9496 2.7878
-5.7240 2.8835 2.7939
-5.7231 2.8180 2.8002
-5.7221 2.7530 2.8068
-5.7212 2.6886 2.8137
-5.7201 2.6247 2.8208
-5.7191 2.5612 2.8282
-5.7180 2.4982 2.8358
-5.7059 2.4310 2.8383
-5.6883 2.3622 2.8383
-5.6703 2.2941 2.8383
-5.6519 2.2265 2.8383
-5.6330 2.1596 2.8383
-5.6137 2.0932 2.8383
-5.5939 2.0275 2.8383
-5.5738 1.9623 2.8383
-5.5532 1.8978 2.8383
-5.5323 1.8338 2.8383
-5.5110 1.7705 2.8383
-5.4893 1.7077 2.8383
-5.4672 1.6455 2.8383
-5.4448 1.5840 2.8383
-5.4221 1.5230 2.8383
-5.3990 1.4626 2.8383
-5.3756 1.4028 2.8383
-5.3518 1.3436 2.8383
-5.3278 1.2849 2.8383
-5.3034 1.2268 2.8383
-5.2788 1.1693 2.8383
-5.2538 1.1124 2.8383
-5.2286 1.0560 2.8383
-5.2031 1.0003 2.8383
-5.1774 0.9450 2.8383
-5.1513 0.8904 2.8383
-5.1251 0.8363 2.8383
-5.0985 0.7827 2.8383
-5.0717 0.7297 2.8383
-5.0447 0.6773 2.8383
-5.0175 0.6253 2.8383
-4.9900 0.5740 2.8383
-4.9624 0.5232 2.8383
-4.9345 0.4728 2.8383
-4.9064 0.4231 2.8383
-4.8781 0.3739 2.8383
-4.8496 0.3251 2.8383
-4.8209 0.2770 2.8383
-4.7921 0.2293 2.8383
-4.7630 0.1822 2.8383
-4.7338 0.1355 2.8383
-4.7044 0.0894 2.8383
-4.6749 0.0437 2.8383
-4.6451 -0.0014 2.8383
-4.6153 -0.0460 2.8383
-4.5853 -0.0902 2.8383
-4.5551 -0.1338 2.8383
-4.5248 -0.1770 2.8383
-4.4943 -0.2196 2.8383
-4.4638 -0.2618 2.8383
-4.4330 -0.3036 2.8383
-4.4022 -0.3448 2.8383
-4.3713 -0.3856 2.8383
-4.3402 -0.4259 2.8383
-4.3090 -0.4658 2.8383
-4.2777 -0.5052 2.8383
-4.2463 -0.5441 2.8383
-4.2147 -0.5825 2.8383
-4.1831 -0.6206 2.8383
-4.1514 -0.6582 2.8383
-4.1196 -0.6953 2.8383
-4.0876 -0.7320 2.8383
-4.0556 -0.7683 2.8383
-4.0236 -0.8042 2.8383
-3.9914 -0.8396 2.8383
-3.9591 -0.8745 2.8383
-3.9268 -0.9091 2.8383
-3.8944 -0.9433 2.8383
-3.8619 -0.9770 2.8383
-3.8293 -1.0103 2.8383
-3.7967 -1.0432 2.8383
-3.7640 -1.0758 2.8383
-3.7313 -1.1079 2.8383
-3.6984 -1.1396 2.8383
-3.6656 -1.1709 2.8383
-3.6326 -1.2018 2.8383
-3.5996 -1.2323 2.8383
-3.5666 -1.2624 2.8383
-3.5335 -1.2922 2.8383
-3.5003 -1.3215 2.8383
-3.4671 -1.3505 2.8383
-3.4339 -1.3791 2.8383
-3.4006 -1.4073 2.8383
-3.3672 -1.4352 2.8383
-3.3339 -1.4627 2.8383
-3.3004 -1.4898 2.8383
-3.2670 -1.5166 2.8383
-3.2335 -1.5430 2.8383
-3.2000 -1.5691 2.8383
-3.1664 -1.5948 2.8383
-3.1328 -1.6201 2.8383
-3.0992 -1.6451 2.8383
-3.0655 -1.6698 2.8383
-3.0318 -1.6941 2.8383
-2.9981 -1.7181 2.8383
-2.9644 -1.7417 2.8383
-2.9306 -1.7650 2.8383
-2.8968 -1.7879 2.8383
-2.8630 -1.8105 2.8383
-2.8292 -1.8328 2.8383
-2.7953 -1.8548 2.8383
-2.7614 -1.8765 2.8383
-2.7275 -1.8978 2.8383
-2.6936 -1.9188 2.8383
-2.6597 -1.9395 2.8383
