ply
format ascii 1.0
element vertex 2256
property float32 x
property float32 y
property float32 z
end_header
7.1561 -3.3708 -0.4395
6.9234 -2.9437 -0.4962
7.0957 -3.2599 -0.4540
6.8688 -2.8433 -0.5099
7.0368 -3.1519 -0.4683
6.8154 -2.7454 -0.5234
6.9794 -3.0465 -0.4824
6.7727 -2.6533 -0.5374
6.7399 -2.5666 -0.5521
6.6140 -2.2336 -0.6095
6.7077 -2.4813 -0.5666
6.5838 -2.1537 -0.6236
6.6760 -2.3974 -0.5810
6.5541 -2.0749 -0.6376
6.6448 -2.3148 -0.5953
6.5324 -1.9997 -0.6523
6.5236 -1.9291 -0.6682
6.4889 -1.6525 -0.7318
6.5148 -1.8592 -0.6841
6.4803 -1.5846 -0.7477
6.5061 -1.7897 -0.7000
6.4719 -1.5172 -0.7636
6.4974 -1.7208 -0.7159
6.4635 -1.4503 -0.7796
6.4551 -1.3838 -0.7955
6.4677 -1.1301 -0.8655
6.4490 -1.3183 -0.8117
6.4740 -1.0675 -0.8836
6.4553 -1.2554 -0.8295
6.4802 -1.0050 -0.9018
6.4615 -1.1927 -0.8475
6.4864 -0.9426 -0.9202
6.4926 -0.8802 -0.9386
6.5226 -0.6311 -1.0143
6.4988 -0.8178 -0.9571
6.5343 -0.5691 -1.0342
6.5050 -0.7554 -0.9758
6.5461 -0.5070 -1.0543
6.5112 -0.6930 -0.9946
6.5697 -0.3823 -1.0950
6.5579 -0.4447 -1.0746
6.5816 -0.3197 -1.1156
6.6174 -0.1305 -1.1787
6.5934 -0.2568 -1.1365
6.6274 -0.0670 -1.1997
6.6054 -0.1938 -1.1575
6.6367 -0.0033 -1.2208
6.6548 0.1247 -1.2635
6.6461 0.0606 -1.2421
6.6590 0.1890 -1.2841
6.6716 0.3827 -1.3472
6.6632 0.2534 -1.3050
6.6758 0.4477 -1.3686
6.6674 0.3180 -1.3260
6.6801 0.5128 -1.3902
6.6886 0.6438 -1.4340
6.6843 0.5782 -1.4120
6.6929 0.7097 -1.4562
6.7058 0.9089 -1.5242
6.6972 0.7758 -1.4787
6.7102 0.9760 -1.5473
6.7015 0.8422 -1.5013
6.7146 1.0433 -1.5707
6.7234 1.1791 -1.6181
6.7190 1.1110 -1.5943
6.7278 1.2475 -1.6423
6.7414 1.4553 -1.7163
6.7323 1.3163 -1.6667
6.7459 1.5254 -1.7415
6.7368 1.3856 -1.6913
6.7505 1.5960 -1.7671
6.7598 1.7387 -1.8191
6.7551 1.6671 -1.7929
6.7645 1.8108 -1.8456
6.7787 2.0305 -1.9272
6.7692 1.8835 -1.8725
6.7836 2.1050 -1.9551
6.7739 1.9567 -1.8997
6.7885 2.1801 -1.9834
6.7984 2.3323 -2.0411
6.7934 2.2558 -2.0121
6.8034 2.4094 -2.0706
6.8274 2.6488 -2.1644
6.8084 2.4873 -2.1005
6.8328 2.7293 -2.1957
6.8135 2.5660 -2.1309
6.8383 2.8106 -2.2276
6.8493 2.9759 -2.2927
6.8438 2.8928 -2.2599
6.8550 3.0600 -2.3261
6.8723 3.3182 -2.4294
6.8607 3.1450 -2.3599
6.8782 3.4065 -2.4650
6.8664 3.2311 -2.3944
6.8842 3.4958 -2.5012
6.8964 3.6782 -2.5756
6.8902 3.5864 -2.5381
6.9026 3.7712 -2.6138
6.9219 4.0585 -2.7326
6.9089 3.8656 -2.6526
6.9285 4.1571 -2.7737
6.9154 3.9613 -2.6922
6.9352 4.2572 -2.8156
6.9489 4.4623 -2.9018
6.9420 4.3589 -2.8583
6.9560 4.5673 -2.9463
6.9778 4.8933 -3.0853
6.9631 4.6741 -2.9917
6.9854 5.0058 -3.1336
6.9704 4.7827 -3.0380
6.9930 5.1203 -3.1830
7.0088 5.3560 -3.2850
7.0009 5.2370 -3.2334
7.0170 5.4772 -3.3378
7.0201 5.5967 -3.3894
7.0369 5.8512 -3.5011
7.0284 5.7226 -3.4446
7.0455 5.9824 -3.5589
7.0726 6.3935 -3.7414
7.0544 6.1165 -3.6182
7.0820 6.5368 -3.8054
7.0634 6.2535 -3.6791
7.0917 6.6835 -3.8711
7.1117 6.9874 -4.0079
7.1016 6.8336 -3.9385
7.1221 7.1451 -4.0791
7.1548 7.6429 -4.3053
7.1327 7.3067 -4.1524
7.1663 7.8178 -4.3853
7.1436 7.4726 -4.2277
7.1782 7.9975 -4.4676
7.2029 8.3726 -4.6401
7.1904 8.1824 -4.5525
7.2158 8.5684 -4.7306
7.2593 9.1960 -5.0221
7.2311 8.7727 -4.8254
7.2741 9.4179 -5.1256
7.2450 8.9810 -4.9221
7.2894 9.6472 -5.2328
7.3052 9.8844 -5.3439
7.3215 10.1298 -5.4592
7.0798 -3.2308 -0.0822
7.0210 -3.1229 -0.1010
6.9637 -3.0176 -0.1195
6.9078 -2.9149 -0.1377
6.8532 -2.8147 -0.1554
6.7999 -2.7169 -0.1729
6.7628 -2.6271 -0.1905
6.7300 -2.5403 -0.2080
6.6978 -2.4551 -0.2252
6.6661 -2.3712 -0.2423
6.6349 -2.2887 -0.2592
6.6042 -2.2075 -0.2759
6.5740 -2.1276 -0.2924
6.5442 -2.0489 -0.3088
6.5294 -1.9758 -0.3258
6.5206 -1.9051 -0.3429
6.5118 -1.8350 -0.3600
6.5030 -1.7655 -0.3771
6.4944 -1.6966 -0.3941
6.4858 -1.6281 -0.4111
6.4773 -1.5602 -0.4280
6.4688 -1.4928 -0.4449
6.4604 -1.4258 -0.4618
6.4521 -1.3593 -0.4786
6.4514 -1.2948 -0.4960
6.4576 -1.2318 -0.5140
6.4639 -1.1690 -0.5320
6.4701 -1.1062 -0.5501
6.4764 -1.0435 -0.5683
6.4826 -0.9809 -0.5865
6.4888 -0.9183 -0.6048
6.4950 -0.8558 -0.6232
6.5012 -0.7933 -0.6417
6.5074 -0.7308 -0.6602
6.5155 -0.6685 -0.6790
6.5272 -0.6066 -0.6983
6.5390 -0.5444 -0.7178
6.5508 -0.4822 -0.7373
6.5626 -0.4198 -0.7571
6.5744 -0.3572 -0.7769
6.5863 -0.2944 -0.7969
6.5982 -0.2315 -0.8170
6.6102 -0.1683 -0.8373
6.6218 -0.1050 -0.8577
6.6311 -0.0413 -0.8780
6.6405 0.0225 -0.8984
6.6498 0.0865 -0.9190
6.6568 0.1506 -0.9394
6.6610 0.2149 -0.9595
6.6652 0.2793 -0.9798
6.6694 0.3439 -1.0002
6.6736 0.4087 -1.0208
6.6778 0.4737 -1.0415
6.6820 0.5389 -1.0624
6.6863 0.6042 -1.0834
6.6906 0.6699 -1.1046
6.6948 0.7357 -1.1260
6.6991 0.8019 -1.1475
6.7035 0.8683 -1.1692
6.7078 0.9350 -1.1912
6.7121 1.0020 -1.2133
6.7165 1.0693 -1.2356
6.7209 1.1370 -1.2581
6.7254 1.2050 -1.2808
6.7298 1.2734 -1.3038
6.7343 1.3422 -1.3269
6.7388 1.4114 -1.3504
6.7433 1.4811 -1.3740
6.7479 1.5511 -1.3979
6.7524 1.6217 -1.4220
6.7571 1.6927 -1.4464
6.7617 1.7642 -1.4711
6.7664 1.8362 -1.4961
6.7711 1.9088 -1.5213
6.7759 1.9820 -1.5468
6.7807 2.0557 -1.5727
6.8052 2.4339 -1.7067
6.7855 2.1300 -1.5988
6.8103 2.5117 -1.7346
6.7904 2.2050 -1.6253
6.8234 2.5933 -1.7649
6.7953 2.2806 -1.6521
6.8287 2.6727 -1.7935
6.8002 2.3569 -1.6792
6.8341 2.7530 -1.8226
6.8562 3.0827 -1.9432
6.8396 2.8340 -1.8521
6.8619 3.1675 -1.9745
6.8450 2.9160 -1.8820
6.8676 3.2533 -2.0062
6.8506 2.9989 -1.9124
6.8735 3.3402 -2.0385
6.8793 3.4281 -2.0712
6.9037 3.7915 -2.2077
6.8853 3.5172 -2.1045
6.9100 3.8854 -2.2432
6.8914 3.6074 -2.1383
6.9164 3.9807 -2.2794
6.8975 3.6988 -2.1727
6.9228 4.0775 -2.3163
6.9294 4.1756 -2.3538
6.9568 4.5836 -2.5109
6.9361 4.2752 -2.3919
6.9639 4.6898 -2.5520
6.9429 4.3764 -2.4308
6.9711 4.7978 -2.5940
6.9498 4.4792 -2.4705
6.9785 4.9077 -2.6369
7.0173 5.4876 -2.8650
6.9860 5.0195 -2.6806
6.9936 5.1333 -2.7253
7.0205 5.6062 -2.9116
7.0013 5.2492 -2.7709
7.0288 5.7312 -2.9613
7.0093 5.3673 -2.8174
7.0371 5.8586 -3.0121
7.0457 5.9888 -3.0641
7.0819 6.5381 -3.2849
7.0545 6.1217 -3.1173
7.0914 6.6833 -3.3436
7.0634 6.2574 -3.1718
7.1012 6.8319 -3.4039
7.1112 6.9840 -3.4657
7.0725 6.3962 -3.2277
7.1215 7.1399 -3.5293
7.1652 7.8045 -3.8015
7.1320 7.2997 -3.5945
7.1769 7.9818 -3.8746
7.1428 7.4636 -3.6616
7.1889 8.1642 -3.9499
7.1538 7.6318 -3.7306
7.2012 8.3517 -4.0275
7.2139 8.5447 -4.1074
7.2711 9.3805 -4.4559
7.2289 8.7457 -4.1911
7.2862 9.6059 -4.5502
7.2425 8.9508 -4.2765
7.3017 9.8387 -4.6479
7.2566 9.1623 -4.3647
7.3177 10.0796 -4.7491
7.3343 10.3289 -4.8540
7.0061 -3.0954 0.2635
6.9488 -2.9902 0.2405
6.8929 -2.8876 0.2181
6.8384 -2.7875 0.1961
6.7868 -2.6905 0.1746
6.7534 -2.6022 0.1540
6.7206 -2.5154 0.1336
6.6883 -2.4301 0.1135
6.6566 -2.3463 0.0937
6.6254 -2.2638 0.0742
6.5948 -2.1826 0.0549
6.5646 -2.1027 0.0359
6.5355 -2.0243 0.0171
6.5266 -1.9529 -0.0015
6.5177 -1.8822 -0.0200
6.5089 -1.8120 -0.0383
6.5001 -1.7424 -0.0566
6.4915 -1.6734 -0.0748
6.4829 -1.6049 -0.0929
6.4744 -1.5369 -0.1109
6.4659 -1.4694 -0.1289
6.4575 -1.4024 -0.1468
6.4491 -1.3359 -0.1646
6.4536 -1.2723 -0.1827
6.4599 -1.2092 -0.2009
6.4661 -1.1462 -0.2191
6.4724 -1.0833 -0.2373
6.4786 -1.0205 -0.2556
6.4849 -0.9578 -0.2739
6.4911 -0.8951 -0.2922
6.4973 -0.8325 -0.3106
6.5036 -0.7699 -0.3290
6.5098 -0.7073 -0.3475
6.5199 -0.6451 -0.3662
6.5317 -0.5830 -0.3852
6.5435 -0.5207 -0.4042
6.5553 -0.4584 -0.4233
6.6028 -0.2072 -0.5008
6.5671 -0.3958 -0.4425
6.6148 -0.1440 -0.5205
6.5790 -0.3331 -0.4618
6.6254 -0.0805 -0.5402
6.5909 -0.2703 -0.4813
6.6347 -0.0168 -0.5599
6.6441 0.0471 -0.5797
6.6670 0.3041 -0.6587
6.6535 0.1112 -0.5996
6.6712 0.3688 -0.6786
6.6586 0.1754 -0.6193
6.6754 0.4336 -0.6985
6.6628 0.2397 -0.6389
6.6839 0.5637 -0.7388
6.6797 0.4985 -0.7186
6.6882 0.6291 -0.7592
6.7010 0.8267 -0.8210
6.6924 0.6947 -0.7797
6.7053 0.8931 -0.8419
6.6967 0.7606 -0.8003
6.7097 0.9598 -0.8629
6.7184 1.0941 -0.9055
6.7140 1.0268 -0.8841
6.7228 1.1617 -0.9270
6.7361 1.3668 -0.9926
6.7272 1.2297 -0.9486
6.7406 1.4360 -1.0148
6.7317 1.2981 -0.9705
6.7452 1.5056 -1.0372
6.7543 1.6460 -1.0827
6.7497 1.5756 -1.0598
6.7589 1.7170 -1.1057
6.7729 1.9328 -1.1762
6.7635 1.7884 -1.1290
6.7777 2.0059 -1.2002
6.7682 1.8604 -1.1525
6.7825 2.0795 -1.2245
6.7922 2.2286 -1.2737
6.7873 2.1537 -1.2490
6.7971 2.3040 -1.2988
6.8121 2.5346 -1.3756
6.8020 2.3802 -1.3241
6.8247 2.6159 -1.4034
6.8070 2.4571 -1.3497
6.8300 2.6951 -1.4300
6.8408 2.8560 -1.4843
6.8353 2.7751 -1.4570
6.8462 2.9378 -1.5119
6.8630 3.1885 -1.5972
6.8518 3.0204 -1.5400
6.8687 3.2740 -1.6264
6.8574 3.1040 -1.5684
6.8864 3.5369 -1.7166
6.8745 3.3606 -1.6560
6.8924 3.6268 -1.7475
6.8804 3.4482 -1.6861
6.8985 3.7178 -1.7790
6.9109 3.9036 -1.8434
6.9046 3.8101 -1.8109
6.9173 3.9985 -1.8764
6.9369 4.2915 -1.9787
6.9237 4.0948 -1.9099
6.9436 4.3922 -2.0139
6.9302 4.1924 -1.9440
6.9505 4.4944 -2.0499
6.9574 4.5983 -2.0864
6.9645 4.7038 -2.1237
6.9940 5.1445 -2.2798
6.9717 4.8112 -2.1616
7.0017 5.2595 -2.3208
6.9790 4.9203 -2.2003
7.0096 5.3768 -2.3627
6.9864 5.0314 -2.2397
7.0176 5.4962 -2.4054
7.0208 5.6140 -2.4473
7.0545 6.1251 -2.6312
7.0290 5.7379 -2.4918
7.0633 6.2596 -2.6798
7.0373 5.8644 -2.5372
7.0723 6.3971 -2.7296
7.0458 5.9934 -2.5837
7.0816 6.5376 -2.7805
7.0910 6.6813 -2.8327
7.1312 7.2910 -3.0551
7.1418 7.4529 -3.1144
7.1007 6.8283 -2.8862
7.1106 6.9789 -2.9411
7.1527 7.6191 -3.1753
7.1208 7.1330 -2.9973
7.1640 7.7895 -3.2379
7.2266 8.7174 -3.5804
7.1755 7.9646 -3.3023
7.2400 8.9193 -3.6552
7.1873 8.1445 -3.3686
7.2539 9.1274 -3.7324
7.1995 8.3294 -3.4368
7.2681 9.3420 -3.8121
7.2120 8.5196 -3.5071
7.2829 9.5634 -3.8946
7.2981 9.7922 -3.9798
7.3139 10.0286 -4.0680
7.3301 10.2732 -4.1593
7.3470 10.5263 -4.2540
6.9344 -2.9637 0.5995
6.8786 -2.8613 0.5726
6.8241 -2.7613 0.5464
6.7776 -2.6663 0.5213
6.7442 -2.5780 0.4975
6.7114 -2.4912 0.4742
6.6792 -2.4059 0.4513
6.6475 -2.3220 0.4287
6.6163 -2.2396 0.4064
6.5856 -2.1584 0.3845
6.5554 -2.0786 0.3629
6.5327 -2.0021 0.3420
6.5238 -1.9307 0.3220
6.5149 -1.8598 0.3021
6.5061 -1.7896 0.2824
6.4973 -1.7199 0.2629
6.4886 -1.6508 0.2434
6.4800 -1.5822 0.2241
6.4715 -1.5142 0.2050
6.4630 -1.4467 0.1859
6.4546 -1.3796 0.1669
6.4495 -1.3137 0.1482
6.4558 -1.2503 0.1297
6.4621 -1.1871 0.1113
6.4684 -1.1240 0.0928
6.4746 -1.0610 0.0744
6.4809 -0.9981 0.0560
6.4871 -0.9352 0.0375
6.4934 -0.8725 0.0191
6.4996 -0.8097 0.0007
6.5058 -0.7470 -0.0178
6.5125 -0.6844 -0.0363
6.5242 -0.6223 -0.0548
6.5360 -0.5600 -0.0734
6.5478 -0.4977 -0.0921
6.5597 -0.4351 -0.1108
6.5715 -0.3725 -0.1296
6.5834 -0.3097 -0.1485
6.5954 -0.2467 -0.1674
6.6073 -0.1836 -0.1864
6.6193 -0.1202 -0.2055
6.6289 -0.0566 -0.2246
6.6382 0.0072 -0.2438
6.6476 0.0711 -0.2631
6.6563 0.1352 -0.2824
6.6605 0.1994 -0.3016
6.6646 0.2638 -0.3209
6.6688 0.3282 -0.3402
6.6730 0.3929 -0.3596
6.6773 0.4577 -0.3790
6.6815 0.5227 -0.3986
6.6857 0.5879 -0.4182
6.6900 0.6532 -0.4379
6.6942 0.7189 -0.4577
6.6985 0.7847 -0.4777
6.7028 0.8508 -0.4977
6.7071 0.9172 -0.5178
6.7115 0.9839 -0.5380
6.7158 1.0508 -0.5584
6.7202 1.1181 -0.5788
6.7246 1.1857 -0.5994
6.7290 1.2537 -0.6201
6.7335 1.3220 -0.6410
6.7379 1.3906 -0.6620
6.7424 1.4597 -0.6831
6.7470 1.5292 -0.7044
6.7515 1.5992 -0.7259
6.7561 1.6695 -0.7475
6.7607 1.7404 -0.7693
6.7653 1.8117 -0.7912
6.7700 1.8836 -0.8134
6.7747 1.9560 -0.8357
6.7795 2.0289 -0.8582
6.7842 2.1024 -0.8810
6.7891 2.1765 -0.9039
6.7939 2.2512 -0.9271
6.7988 2.3265 -0.9504
6.8038 2.4025 -0.9741
6.8087 2.4792 -0.9979
6.8138 2.5566 -1.0220
6.8259 2.6375 -1.0474
6.8312 2.7165 -1.0721
6.8365 2.7963 -1.0971
6.8419 2.8770 -1.1223
6.8474 2.9585 -1.1478
6.8529 3.0409 -1.1736
6.8698 3.2936 -1.2531
6.8584 3.1242 -1.1998
6.8756 3.3799 -1.2802
6.8641 3.2084 -1.2263
6.8814 3.4672 -1.3077
6.8933 3.6451 -1.3639
6.8873 3.5556 -1.3356
6.8994 3.7357 -1.3926
6.9181 4.0152 -1.4811
6.9055 3.8276 -1.4216
6.9245 4.1110 -1.5115
6.9118 3.9208 -1.4511
6.9310 4.2081 -1.5424
6.9376 4.3068 -1.5737
6.9443 4.4069 -1.6056
6.9722 4.8234 -1.7385
6.9511 4.5085 -1.6380
6.9795 4.9319 -1.7732
6.9580 4.6118 -1.6709
6.9869 5.0422 -1.8086
6.9651 4.7167 -1.7045
6.9944 5.1545 -1.8445
7.0020 5.2688 -1.8812
7.0291 5.7436 -2.0337
7.0098 5.3852 -1.9186
7.0374 5.8689 -2.0741
7.0177 5.5037 -1.9567
7.0458 5.9969 -2.1153
7.0210 5.6206 -1.9941
7.0544 6.1274 -2.1575
7.0631 6.2607 -2.2005
7.1002 6.8238 -2.3827
7.0721 6.3969 -2.2445
7.1100 6.9727 -2.4310
7.0813 6.5360 -2.2895
7.1200 7.1252 -2.4805
7.0906 6.6783 -2.3356
7.1303 7.2813 -2.5312
7.1408 7.4414 -2.5832
7.1857 8.1240 -2.8055
7.1516 7.6055 -2.6366
7.1977 8.3063 -2.8649
7.1627 7.7738 -2.6914
7.2100 8.4938 -2.9261
7.1740 7.9466 -2.7476
7.2242 8.6885 -2.9897
7.2375 8.8873 -3.0547
7.2511 9.0921 -3.1217
7.2651 9.3031 -3.1908
7.2796 9.5209 -3.2621
7.2946 9.7456 -3.3357
7.3100 9.9777 -3.4118
7.3260 10.2177 -3.4906
7.3425 10.4659 -3.5721
7.3596 10.7229 -3.6565
6.8644 -2.8352 0.9276
6.8099 -2.7353 0.8970
6.7686 -2.6424 0.8687
6.7352 -2.5540 0.8418
6.7024 -2.4672 0.8154
6.6701 -2.3819 0.7895
6.6384 -2.2981 0.7640
6.6072 -2.2156 0.7390
6.5766 -2.1345 0.7143
6.5464 -2.0547 0.6901
6.5300 -1.9802 0.6676
6.5210 -1.9086 0.6461
6.5121 -1.8377 0.6248
6.5033 -1.7673 0.6037
6.4945 -1.6976 0.5828
6.4858 -1.6284 0.5620
6.4772 -1.5598 0.5415
6.4687 -1.4917 0.5211
6.4602 -1.4241 0.5008
6.4518 -1.3570 0.4807
6.4516 -1.2921 0.4614
6.4580 -1.2286 0.4425
6.4643 -1.1652 0.4238
6.4705 -1.1020 0.4050
6.4768 -1.0389 0.3863
6.4831 -0.9759 0.3677
6.4893 -0.9129 0.3491
6.4956 -0.8500 0.3305
6.5018 -0.7872 0.3119
6.5081 -0.7244 0.2933
6.5167 -0.6619 0.2749
6.5285 -0.5996 0.2566
6.5403 -0.5373 0.2382
6.5522 -0.4748 0.2199
6.5640 -0.4122 0.2015
6.5759 -0.3494 0.1830
6.5878 -0.2865 0.1646
6.5998 -0.2234 0.1461
6.6118 -0.1602 0.1275
6.6230 -0.0967 0.1089
6.6323 -0.0330 0.0902
6.6417 0.0308 0.0715
6.6511 0.0948 0.0527
6.6581 0.1589 0.0339
6.6623 0.2232 0.0150
6.6664 0.2875 -0.0039
6.6706 0.3520 -0.0229
6.6748 0.4167 -0.0419
6.6791 0.4815 -0.0609
6.6833 0.5465 -0.0800
6.6875 0.6117 -0.0991
6.6918 0.6770 -0.1182
6.6960 0.7426 -0.1375
6.7003 0.8085 -0.1567
6.7046 0.8746 -0.1761
6.7089 0.9409 -0.1955
6.7133 1.0075 -0.2150
6.7176 1.0745 -0.2346
6.7220 1.1417 -0.2542
6.7264 1.2093 -0.2740
6.7308 1.2772 -0.2938
6.7353 1.3454 -0.3137
6.7397 1.4140 -0.3337
6.7442 1.4831 -0.3539
6.7487 1.5525 -0.3741
6.7533 1.6223 -0.3945
6.7578 1.6926 -0.4149
6.7624 1.7634 -0.4355
6.7671 1.8346 -0.4563
6.7717 1.9064 -0.4771
6.7764 1.9786 -0.4982
6.7812 2.0514 -0.5193
6.7860 2.1248 -0.5406
6.7908 2.1988 -0.5621
6.7956 2.2733 -0.5838
6.8005 2.3485 -0.6056
6.8054 2.4243 -0.6276
6.8104 2.5008 -0.6498
6.8154 2.5781 -0.6722
6.8270 2.6586 -0.6954
6.8323 2.7374 -0.7182
6.8376 2.8170 -0.7413
6.8430 2.8974 -0.7646
6.8484 2.9787 -0.7881
6.8539 3.0608 -0.8118
6.8595 3.1439 -0.8358
6.8651 3.2278 -0.8601
6.8708 3.3128 -0.8846
6.8766 3.3987 -0.9094
6.8824 3.4857 -0.9345
6.8883 3.5737 -0.9599
6.8942 3.6628 -0.9856
6.9003 3.7531 -1.0117
6.9064 3.8446 -1.0380
6.9126 3.9373 -1.0647
6.9189 4.0313 -1.0918
6.9253 4.1266 -1.1192
6.9317 4.2233 -1.1471
6.9383 4.3214 -1.1753
6.9450 4.4210 -1.2039
6.9517 4.5221 -1.2330
6.9586 4.6247 -1.2625
6.9656 4.7291 -1.2924
6.9727 4.8351 -1.3229
6.9799 4.9428 -1.3538
6.9872 5.0525 -1.3853
6.9947 5.1640 -1.4173
7.0023 5.2774 -1.4498
7.0100 5.3930 -1.4829
7.0179 5.5106 -1.5167
7.0212 5.6267 -1.5500
7.0293 5.7486 -1.5849
7.0374 5.8730 -1.6205
7.0458 5.9998 -1.6568
7.0543 6.1292 -1.6938
7.0630 6.2613 -1.7316
7.0718 6.3962 -1.7702
7.0809 6.5340 -1.8096
7.0902 6.6748 -1.8499
7.0996 6.8189 -1.8910
7.1093 6.9662 -1.9331
7.1192 7.1170 -1.9761
7.1294 7.2714 -2.0202
7.1398 7.4295 -2.0653
7.1504 7.5916 -2.1116
7.1614 7.7579 -2.1590
7.1726 7.9284 -2.2076
7.1841 8.1035 -2.2576
7.1959 8.2833 -2.3088
7.2081 8.4681 -2.3615
7.2219 8.6598 -2.4161
7.2350 8.8556 -2.4718
7.2484 9.0571 -2.5292
7.2622 9.2648 -2.5883
7.2764 9.4789 -2.6492
7.2911 9.6997 -2.7120
7.3063 9.9277 -2.7769
7.3219 10.1632 -2.8439
7.3381 10.4067 -2.9131
7.3549 10.6587 -2.9847
7.3722 10.9196 -3.0588
6.7957 -2.7091 1.2495
6.7594 -2.6182 1.2184
6.7260 -2.5298 1.1882
6.6932 -2.4430 1.1587
6.6610 -2.3577 1.1297
6.6293 -2.2739 1.1012
6.5981 -2.1915 1.0733
6.5675 -2.1104 1.0459
6.5373 -2.0306 1.0189
6.5272 -1.9580 0.9954
6.5182 -1.8863 0.9723
6.5093 -1.8153 0.9495
6.5005 -1.7449 0.9269
6.4917 -1.6751 0.9045
6.4830 -1.6059 0.8824
6.4744 -1.5372 0.8605
6.4658 -1.4690 0.8388
6.4573 -1.4014 0.8173
6.4489 -1.3343 0.7960
6.4538 -1.2702 0.7764
6.4601 -1.2066 0.7572
6.4664 -1.1432 0.7380
6.4727 -1.0798 0.7189
6.4790 -1.0166 0.6999
6.4853 -0.9534 0.6809
6.4916 -0.8904 0.6621
6.4978 -0.8274 0.6432
6.5041 -0.7645 0.6245
6.5104 -0.7016 0.6057
6.5210 -0.6392 0.5875
6.5329 -0.5768 0.5693
6.5447 -0.5143 0.5512
6.5565 -0.4517 0.5331
6.5684 -0.3890 0.5149
6.5803 -0.3262 0.4968
6.5923 -0.2632 0.4787
6.6042 -0.2000 0.4606
6.6162 -0.1366 0.4424
6.6265 -0.0731 0.4241
6.6358 -0.0093 0.4058
6.6452 0.0546 0.3874
6.6546 0.1187 0.3691
6.6599 0.1828 0.3505
6.6641 0.2470 0.3319
6.6682 0.3114 0.3132
6.6724 0.3759 0.2946
6.6766 0.4406 0.2759
6.6809 0.5054 0.2573
6.6851 0.5703 0.2387
6.6893 0.6355 0.2200
6.6936 0.7009 0.2013
6.6978 0.7665 0.1826
6.7021 0.8323 0.1639
6.7064 0.8984 0.1451
6.7107 0.9647 0.1263
6.7151 1.0313 0.1075
6.7194 1.0982 0.0887
6.7238 1.1653 0.0698
6.7282 1.2329 0.0508
6.5752 1.2703 0.0311
6.7370 1.3689 0.0127
6.7415 1.4374 -0.0064
6.7460 1.5064 -0.0256
6.7505 1.5757 -0.0448
6.7550 1.6455 -0.0642
6.7596 1.7157 -0.0836
6.7642 1.7864 -0.1031
6.7688 1.8575 -0.1227
6.7735 1.9292 -0.1424
6.7782 2.0013 -0.1621
6.7829 2.0740 -0.1820
6.7877 2.1472 -0.2020
6.7925 2.2210 -0.2221
6.7973 2.2955 -0.2423
6.8022 2.3705 -0.2627
6.8071 2.4462 -0.2831
6.8121 2.5225 -0.3038
6.8230 2.6018 -0.3248
6.8282 2.6797 -0.3457
6.8334 2.7583 -0.3668
6.8388 2.8377 -0.3880
6.8441 2.9178 -0.4095
6.8495 2.9989 -0.4311
6.8550 3.0807 -0.4528
6.8606 3.1635 -0.4748
6.8662 3.2472 -0.4970
6.8718 3.3318 -0.5193
6.8775 3.4174 -0.5419
6.8833 3.5040 -0.5647
6.8892 3.5917 -0.5877
6.8951 3.6805 -0.6110
6.9012 3.7704 -0.6345
6.9073 3.8615 -0.6583
6.9134 3.9538 -0.6824
6.9197 4.0474 -0.7067
6.9260 4.1422 -0.7313
6.9325 4.2384 -0.7562
6.9390 4.3360 -0.7815
6.9456 4.4350 -0.8070
6.9524 4.5356 -0.8329
6.9592 4.6376 -0.8591
6.9661 4.7413 -0.8857
6.9732 4.8467 -0.9127
6.9803 4.9538 -0.9401
6.9876 5.0627 -0.9678
6.9950 5.1734 -0.9960
7.0026 5.2861 -1.0247
7.0102 5.4008 -1.0538
7.0181 5.5176 -1.0833
7.0214 5.6328 -1.1127
7.0294 5.7538 -1.1432
7.0375 5.8771 -1.1743
7.0458 6.0029 -1.2059
7.0542 6.1312 -1.2381
7.0628 6.2621 -1.2709
7.0716 6.3957 -1.3043
7.0806 6.5322 -1.3384
7.0897 6.6716 -1.3731
7.0991 6.8142 -1.4086
7.1087 6.9600 -1.4448
7.1185 7.1091 -1.4818
7.1285 7.2618 -1.5196
7.1388 7.4181 -1.5582
7.1493 7.5783 -1.5977
7.1601 7.7425 -1.6382
7.1712 7.9108 -1.6796
7.1825 8.0836 -1.7221
7.1942 8.2610 -1.7656
7.2062 8.4432 -1.8102
7.2197 8.6320 -1.8563
7.2325 8.8249 -1.9034
7.2457 9.0233 -1.9518
7.2593 9.2277 -2.0015
7.2733 9.4383 -2.0527
7.2877 9.6554 -2.1054
7.3026 9.8794 -2.1597
7.3180 10.1106 -2.2157
7.3339 10.3496 -2.2734
7.3503 10.5967 -2.3331
7.3673 10.8523 -2.3947
7.3849 11.1171 -2.4585
6.7500 -2.5932 1.5719
6.7166 -2.5049 1.5384
6.6838 -2.4181 1.5055
6.6515 -2.3328 1.4734
6.6199 -2.2490 1.4418
6.5887 -2.1666 1.4109
6.5581 -2.0856 1.3805
6.5334 -2.0075 1.3519
6.5243 -1.9351 1.3268
6.5153 -1.8634 1.3020
6.5064 -1.7923 1.2776
6.4976 -1.7218 1.2534
6.4888 -1.6519 1.2295
6.4801 -1.5827 1.2059
6.4715 -1.5139 1.1826
6.4629 -1.4458 1.1595
6.4544 -1.3781 1.1366
6.4497 -1.3117 1.1147
6.4560 -1.2478 1.0948
6.4624 -1.1841 1.0750
6.4687 -1.1205 1.0554
6.4750 -1.0570 1.0359
6.4813 -0.9937 1.0165
6.4876 -0.9305 0.9971
6.4939 -0.8673 0.9779
6.5001 -0.8042 0.9588
6.5064 -0.7412 0.9398
6.5136 -0.6784 0.9210
6.5254 -0.6159 0.9029
6.5373 -0.5534 0.8848
6.5491 -0.4909 0.8669
6.5610 -0.4282 0.8489
6.5729 -0.3653 0.8310
6.5848 -0.3024 0.8131
6.5968 -0.2393 0.7953
6.6088 -0.1760 0.7774
6.6207 -0.1126 0.7596
6.6300 -0.0489 0.7415
6.6394 0.0149 0.7235
6.6487 0.0789 0.7055
6.6575 0.1429 0.6874
6.6617 0.2071 0.6689
6.6659 0.2714 0.6504
6.6701 0.3357 0.6320
6.6743 0.4003 0.6136
6.6785 0.4649 0.5953
6.6827 0.5297 0.5769
6.6869 0.5947 0.5586
6.6912 0.6598 0.5404
6.6954 0.7252 0.5221
6.6997 0.7908 0.5039
6.7040 0.8566 0.4856
6.7083 0.9226 0.4674
6.7126 0.9889 0.4492
6.7169 1.0554 0.4310
6.7212 1.1223 0.4128
6.7256 1.1894 0.3945
6.7300 1.2569 0.3763
6.7344 1.3247 0.3581
6.7388 1.3928 0.3398
6.7433 1.4613 0.3215
6.7478 1.5302 0.3032
6.3618 1.5070 0.2683
6.4137 1.5844 0.2529
6.4471 1.6584 0.2365
6.4526 1.7260 0.2189
6.4581 1.7941 0.2013
6.4637 1.8626 0.1836
6.4694 1.9317 0.1659
6.4469 1.9926 0.1475
5.1526 1.6469 0.1036
6.7942 2.2437 0.1177
6.7991 2.3180 0.0988
4.8781 1.7156 0.0572
4.8692 1.7652 0.0435
4.8737 1.8200 0.0298
4.8902 1.8800 0.0161
6.8294 2.7011 0.0032
6.8346 2.7795 -0.0163
6.8399 2.8587 -0.0358
6.8453 2.9386 -0.0554
6.8507 3.0194 -0.0752
6.8561 3.1010 -0.0951
6.8616 3.1835 -0.1151
6.8672 3.2669 -0.1353
6.8729 3.3512 -0.1556
6.8786 3.4365 -0.1761
6.8843 3.5229 -0.1967
6.8902 3.6102 -0.2174
6.8961 3.6986 -0.2384
6.9021 3.7881 -0.2595
6.9081 3.8788 -0.2808
6.9143 3.9707 -0.3023
6.9205 4.0638 -0.3241
6.9268 4.1582 -0.3460
6.9332 4.2539 -0.3681
6.9397 4.3510 -0.3905
6.9463 4.4495 -0.4131
6.9530 4.5495 -0.4360
6.9598 4.6510 -0.4591
6.9667 4.7541 -0.4824
6.9737 4.8588 -0.5061
6.9808 4.9652 -0.5301
6.9880 5.0734 -0.5543
6.9954 5.1834 -0.5789
7.0029 5.2953 -0.6038
7.0105 5.4092 -0.6291
7.0183 5.5252 -0.6546
7.0217 5.6395 -0.6802
7.0296 5.7596 -0.7065
7.0376 5.8819 -0.7333
7.0458 6.0066 -0.7604
7.0542 6.1338 -0.7880
7.0627 6.2636 -0.8160
7.0714 6.3960 -0.8445
7.0803 6.5312 -0.8736
7.0893 6.6693 -0.9031
7.0986 6.8104 -0.9332
7.1081 6.9546 -0.9638
7.1178 7.1022 -0.9950
7.1277 7.2532 -1.0268
7.1379 7.4077 -1.0593
7.1483 7.5660 -1.0925
7.1589 7.7282 -1.1263
7.1699 7.8945 -1.1609
7.1811 8.0651 -1.1963
7.1926 8.2401 -1.2325
7.2044 8.4199 -1.2695
7.2176 8.6058 -1.3076
7.2302 8.7958 -1.3465
7.2432 8.9913 -1.3864
7.2566 9.1925 -1.4273
7.2703 9.3997 -1.4693
7.2845 9.6132 -1.5125
7.2992 9.8334 -1.5569
7.3143 10.0605 -1.6026
7.3299 10.2951 -1.6496
7.3460 10.5376 -1.6980
7.3626 10.7882 -1.7480
7.3799 11.0477 -1.7995
7.3977 11.3164 -1.8528
6.7067 -2.4786 1.8937
6.6739 -2.3919 1.8574
6.6417 -2.3067 1.8219
6.6100 -2.2229 1.7872
6.5789 -2.1406 1.7531
6.5483 -2.0596 1.7197
6.5304 -1.9837 1.6902
6.5213 -1.9112 1.6633
6.5123 -1.8394 1.6367
6.5034 -1.7682 1.6106
6.4945 -1.6977 1.5847
6.4858 -1.6278 1.5592
6.4771 -1.5584 1.5340
6.4684 -1.4897 1.5092
6.4599 -1.4215 1.4846
6.4514 -1.3538 1.4603
6.4520 -1.2884 1.4384
6.4584 -1.2244 1.4179
6.4647 -1.1606 1.3976
6.4711 -1.0969 1.3774
6.4774 -1.0333 1.3574
6.4837 -0.9699 1.3375
6.4900 -0.9065 1.3177
6.4963 -0.8433 1.2981
6.5025 -0.7801 1.2786
6.5088 -0.7170 1.2593
6.5182 -0.6543 1.2406
6.5300 -0.5917 1.2226
6.5419 -0.5291 1.2046
6.5538 -0.4664 1.1866
6.5657 -0.4036 1.1688
6.5776 -0.3407 1.1510
6.5895 -0.2776 1.1333
6.6015 -0.2144 1.1157
6.6135 -0.1511 1.0981
6.6244 -0.0875 1.0804
6.6337 -0.0238 1.0625
6.6430 0.0401 1.0447
6.6524 0.1041 1.0270
6.6594 0.1682 1.0089
6.6636 0.2323 0.9905
6.6678 0.2966 0.9721
6.6720 0.3610 0.9539
6.6762 0.4255 0.9357
6.6804 0.4902 0.9175
6.6846 0.5550 0.8995
6.6888 0.6199 0.8815
6.6931 0.6851 0.8635
6.6973 0.7504 0.8456
6.7016 0.8159 0.8278
6.7058 0.8817 0.8100
6.7101 0.9477 0.7922
6.7145 1.0140 0.7745
6.7188 1.0805 0.7568
6.7231 1.1473 0.7392
6.7275 1.2144 0.7216
6.7319 1.2818 0.7040
6.7363 1.3495 0.6864
6.7407 1.4175 0.6689
6.7452 1.4860 0.6514
6.4949 1.4961 0.6099
6.2756 1.5089 0.5727
6.1613 1.5439 0.5459
6.7632 1.7636 0.5814
6.7678 1.8340 0.5639
6.7724 1.9050 0.5464
6.7771 1.9764 0.5289
6.7818 2.0483 0.5114
5.1407 1.6065 0.3741
5.0746 1.6392 0.3559
4.9828 1.6623 0.3363
4.9873 1.7170 0.3235
6.8057 2.4160 0.4235
6.8106 2.4914 0.4058
6.8156 2.5674 0.3881
6.8254 2.6460 0.3706
5.1493 2.0531 0.2660
5.1542 2.1124 0.2526
5.1874 2.1842 0.2404
5.1923 2.2451 0.2269
5.1973 2.3066 0.2132
5.2024 2.3687 0.1995
5.2075 2.4315 0.1858
5.2127 2.4950 0.1720
5.1894 2.5453 0.1572
5.1947 2.6100 0.1433
6.5596 3.3749 0.1632
6.5664 3.4584 0.1455
6.8971 3.7176 0.1339
6.9031 3.8067 0.1151
6.9091 3.8970 0.0962
4.9701 2.8666 0.0554
4.9639 2.9269 0.0415
4.9695 2.9950 0.0276
5.3925 3.3210 0.0148
6.9405 4.3670 -0.0006
6.9471 4.4650 -0.0204
6.9537 4.5644 -0.0403
6.9605 4.6653 -0.0604
6.9673 4.7678 -0.0807
6.9743 4.8719 -0.1012
6.9813 4.9777 -0.1219
6.9885 5.0852 -0.1428
6.9958 5.1945 -0.1639
7.0033 5.3056 -0.1852
7.0108 5.4187 -0.2068
7.0143 5.5304 -0.2285
7.0220 5.6474 -0.2505
7.0298 5.7665 -0.2728
7.0378 5.8879 -0.2954
7.0459 6.0116 -0.3183
7.0542 6.1377 -0.3415
7.0626 6.2663 -0.3650
7.0713 6.3976 -0.3888
7.0801 6.5315 -0.4130
7.0891 6.6683 -0.4375
7.0982 6.8080 -0.4624
7.1076 6.9508 -0.4877
7.1172 7.0969 -0.5135
7.1270 7.2462 -0.5396
7.1371 7.3991 -0.5662
7.1473 7.5555 -0.5933
7.1579 7.7158 -0.6209
7.1687 7.8801 -0.6490
7.1797 8.0485 -0.6776
7.1911 8.2213 -0.7069
7.2027 8.3986 -0.7367
7.2156 8.5818 -0.7672
7.2281 8.7692 -0.7984
7.2409 8.9618 -0.8302
7.2540 9.1599 -0.8628
7.2676 9.3638 -0.8961
7.2815 9.5739 -0.9303
7.2959 9.7904 -0.9653
7.3107 10.0137 -1.0013
7.3260 10.2441 -1.0381
7.3419 10.4821 -1.0760
7.3582 10.7280 -1.1150
7.3751 10.9824 -1.1551
7.3926 11.2456 -1.1964
7.4107 11.5183 -1.2390
6.6633 -2.3639 2.2158
6.6311 -2.2788 2.1769
6.5995 -2.1951 2.1388
6.5684 -2.1128 2.1015
6.5378 -2.0319 2.0649
6.5272 -1.9582 2.0352
6.5181 -1.8857 2.0064
6.5091 -1.8138 1.9780
6.5002 -1.7426 1.9499
6.4913 -1.6720 1.9223
6.4825 -1.6021 1.8951
6.4738 -1.5327 1.8682
6.4652 -1.4639 1.8418
6.4566 -1.3957 1.8156
6.4481 -1.3280 1.7898
6.4545 -1.2637 1.7684
6.4608 -1.1996 1.7473
6.4672 -1.1356 1.7263
6.4735 -1.0718 1.7055
6.4799 -1.0081 1.6849
6.4862 -0.9446 1.6644
6.4925 -0.8812 1.6442
6.4988 -0.8178 1.6241
6.5051 -0.7546 1.6042
6.5114 -0.6914 1.5845
6.5230 -0.6288 1.5661
6.5349 -0.5662 1.5480
6.5467 -0.5034 1.5300
6.5586 -0.4406 1.5121
6.5706 -0.3777 1.4943
6.5825 -0.3147 1.4766
6.5945 -0.2515 1.4591
6.6064 -0.1882 1.4416
6.6185 -0.1248 1.4242
6.6282 -0.0611 1.4064
6.6376 0.0027 1.3887
6.6469 0.0666 1.3710
6.6563 0.1307 1.3535
6.6614 0.1947 1.3351
6.6656 0.2589 1.3167
6.6698 0.3232 1.2984
6.6740 0.3876 1.2803
6.6781 0.4521 1.2622
6.6824 0.5167 1.2442
6.6866 0.5815 1.2264
6.6908 0.6465 1.2086
6.6950 0.7116 1.1909
6.6993 0.7769 1.1733
6.7035 0.8424 1.1558
6.7078 0.9082 1.1384
6.7121 0.9741 1.1210
6.7164 1.0403 1.1038
6.7208 1.1068 1.0866
6.7251 1.1736 1.0695
6.7295 1.2406 1.0524
6.7338 1.3079 1.0354
6.7382 1.3756 1.0185
6.7427 1.4436 1.0016
6.7471 1.5119 0.9848
6.4173 1.5025 0.9201
6.2683 1.5307 0.8826
6.1614 1.5669 0.8518
5.9804 1.5817 0.8115
5.8089 1.5957 0.7735
5.6461 1.6089 0.7375
5.4914 1.6215 0.7034
5.2314 1.5991 0.6570
5.1138 1.6165 0.6293
5.1464 1.6808 0.6205
5.1228 1.7273 0.6048
6.8027 2.3660 0.7862
6.8076 2.4405 0.7698
6.8125 2.5157 0.7535
6.8216 2.5932 0.7376
6.6079 2.5842 0.6981
6.4975 2.6125 0.6704
6.5210 2.6944 0.6567
6.5613 2.7844 0.6446
6.5675 2.8612 0.6290
6.5738 2.9387 0.6134
6.5802 3.0170 0.5978
6.5867 3.0962 0.5822
6.5932 3.1763 0.5665
6.5998 3.2573 0.5508
6.6065 3.3392 0.5351
6.6132 3.4221 0.5194
6.6201 3.5060 0.5036
6.6270 3.5910 0.4877
6.6576 3.6901 0.4735
6.6176 3.7508 0.4543
6.6483 3.8525 0.4399
6.9224 4.1000 0.4409
6.9286 4.1935 0.4240
6.9350 4.2883 0.4071
6.9414 4.3844 0.3901
6.9479 4.4819 0.3730
6.9545 4.5808 0.3558
5.2708 3.5444 0.2564
5.3062 3.6423 0.2446
5.3127 3.7220 0.2314
5.3193 3.8030 0.2181
5.3260 3.8853 0.2047
5.3328 3.9690 0.1912
5.3397 4.0542 0.1776
5.3176 4.1182 0.1630
5.3247 4.2059 0.1493
7.0224 5.6570 0.1784
7.0302 5.7752 0.1599
7.0381 5.8957 0.1413
7.0461 6.0184 0.1225
7.0544 6.1435 0.1036
7.0627 6.2710 0.0844
5.1046 4.6208 0.0470
5.1096 4.7154 0.0329
5.1275 4.8241 0.0187
7.0980 6.8077 0.0059
7.1073 6.9491 -0.0144
7.1168 7.0937 -0.0348
7.1265 7.2415 -0.0555
7.1364 7.3927 -0.0765
7.1466 7.5474 -0.0978
7.1570 7.7058 -0.1194
7.1676 7.8682 -0.1413
7.1786 8.0345 -0.1635
7.1898 8.2051 -0.1861
7.2013 8.3802 -0.2090
7.2131 8.5598 -0.2324
7.2261 8.7455 -0.2562
7.2387 8.9353 -0.2803
7.2517 9.1306 -0.3050
7.2650 9.3314 -0.3301
7.2788 9.5382 -0.3557
7.2929 9.7512 -0.3819
7.3075 9.9707 -0.4086
7.3225 10.1972 -0.4359
7.3380 10.4309 -0.4638
7.3541 10.6723 -0.4924
7.3706 10.9218 -0.5217
7.3878 11.1799 -0.5517
7.4055 11.4471 -0.5825
7.4249 11.7255 -0.6143
6.6197 -2.2485 2.5399
6.5881 -2.1650 2.4982
6.5570 -2.0828 2.4575
6.5330 -2.0041 2.4201
6.5238 -1.9307 2.3887
6.5147 -1.8581 2.3577
6.5056 -1.7862 2.3273
6.4967 -1.7150 2.2974
6.4878 -1.6444 2.2678
6.4791 -1.5744 2.2388
6.4703 -1.5050 2.2102
6.4617 -1.4362 2.1819
6.4532 -1.3680 2.1541
6.4507 -1.3015 2.1287
6.4571 -1.2371 2.1065
6.4635 -1.1729 2.0846
6.4699 -1.1088 2.0628
6.4762 -1.0449 2.0414
6.4826 -0.9812 2.0201
6.4889 -0.9175 1.9990
6.4952 -0.8540 1.9782
6.5015 -0.7906 1.9576
6.5078 -0.7272 1.9371
6.5163 -0.6642 1.9176
6.5282 -0.6015 1.8992
6.5401 -0.5388 1.8809
6.5520 -0.4759 1.8628
6.5639 -0.4130 1.8449
6.5758 -0.3500 1.8271
6.5878 -0.2869 1.8094
6.5997 -0.2236 1.7919
6.6117 -0.1602 1.7745
6.6230 -0.0967 1.7571
6.6323 -0.0329 1.7392
6.6417 0.0309 1.7216
6.6511 0.0949 1.7040
6.6593 0.1589 1.6863
6.6635 0.2230 1.6677
6.6677 0.2872 1.6493
6.6719 0.3515 1.6310
6.6761 0.4159 1.6128
6.6803 0.4804 1.5948
6.6845 0.5450 1.5769
6.6887 0.6098 1.5592
6.6929 0.6748 1.5416
6.6971 0.7399 1.5241
6.7014 0.8052 1.5068
6.7056 0.8706 1.4895
6.7099 0.9363 1.4724
6.7142 1.0023 1.4554
6.7185 1.0684 1.4385
6.7228 1.1349 1.4218
6.7272 1.2016 1.4051
6.7315 1.2686 1.3886
6.7359 1.3358 1.3721
6.7403 1.4034 1.3557
6.7447 1.4714 1.3395
6.7492 1.5397 1.3233
6.3208 1.5053 1.2235
6.2584 1.5533 1.1958
6.0892 1.5728 1.1483
5.9126 1.5872 1.1005
5.7452 1.6009 1.0552
5.5863 1.6138 1.0124
5.3072 1.5878 0.9490
5.1795 1.6033 0.9137
5.1435 1.6457 0.8950
5.1480 1.7011 0.8835
6.7999 2.3186 1.1509
6.8047 2.3924 1.1357
6.8096 2.4668 1.1205
6.8144 2.5418 1.1054
6.8231 2.6189 1.0909
6.5571 2.5883 1.0332
6.5277 2.6484 1.0135
6.5055 2.7114 0.9951
6.5632 2.8087 0.9889
6.5695 2.8852 0.9749
6.5758 2.9625 0.9609
6.5821 3.0406 0.9470
6.5886 3.1196 0.9330
6.5951 3.1994 0.9191
6.6017 3.2802 0.9053
6.6083 3.3618 0.8914
6.6150 3.4444 0.8776
6.6219 3.5280 0.8638
6.6287 3.6127 0.8500
6.6256 3.6927 0.8349
6.6193 3.7718 0.8195
6.6500 3.8731 0.8087
6.6572 3.9623 0.7949
6.6646 4.0526 0.7812
6.6721 4.1442 0.7674
6.6796 4.2371 0.7537
6.6873 4.3314 0.7400
6.6951 4.4271 0.7262
6.7030 4.5242 0.7124
6.7110 4.6228 0.6987
6.7192 4.7230 0.6849
6.6895 4.7975 0.6673
6.6000 4.8288 0.6439
6.5080 4.8570 0.6208
6.3924 4.8659 0.5958
6.2564 4.8568 0.5695
6.1465 4.8657 0.5461
7.0230 5.6688 0.6086
5.9068 4.8613 0.4989
5.8239 4.8866 0.4792
5.8322 4.9889 0.4670
7.0547 6.1516 0.5494
7.0630 6.2781 0.5345
7.0715 6.4071 0.5195
5.3159 4.9094 0.3787
5.2502 4.9421 0.3624
7.0979 6.8101 0.4740
7.1071 6.9502 0.4587
7.1165 7.0933 0.4433
7.1261 7.2396 0.4279
7.1360 7.3892 0.4123
7.1460 7.5423 0.3966
7.1563 7.6989 0.3807
7.1668 7.8594 0.3648
7.1776 8.0238 0.3487
7.1887 8.1923 0.3325
7.2000 8.3652 0.3162
7.2117 8.5425 0.2996
7.2244 8.7255 0.2830
7.2368 8.9127 0.2661
7.2496 9.1052 0.2490
7.2628 9.3030 0.2318
7.2763 9.5067 0.2143
7.2902 9.7163 0.1966
7.3045 9.9323 0.1787
7.3193 10.1550 0.1605
7.3345 10.3847 0.1420
7.3503 10.6218 0.1233
7.3665 10.8668 0.1043
7.3834 11.1200 0.0849
7.4007 11.3819 0.0652
7.4191 11.6538 0.0451
7.4371 11.9337 0.0246
6.1805 -2.0039 2.6948
6.2479 -1.9571 2.6948
6.3157 -1.9094 2.6948
6.3840 -1.8610 2.6948
6.4527 -1.8116 2.6948
6.5019 -1.7561 2.6866
6.4929 -1.6848 2.6545
6.4841 -1.6142 2.6230
6.4753 -1.5442 2.5920
6.4666 -1.4748 2.5614
6.4579 -1.4061 2.5314
6.4494 -1.3378 2.5018
6.4536 -1.2727 2.4775
6.4600 -1.2081 2.4544
6.4664 -1.1438 2.4316
6.4728 -1.0797 2.4090
6.4791 -1.0157 2.3868
6.4855 -0.9518 2.3647
6.4918 -0.8881 2.3430
6.4981 -0.8245 2.3215
6.5044 -0.7610 2.3002
6.5107 -0.6976 2.2792
6.5219 -0.6347 2.2601
6.5338 -0.5719 2.2415
6.5457 -0.5090 2.2230
6.5576 -0.4461 2.2048
6.5695 -0.3831 2.1867
6.5815 -0.3200 2.1688
6.5935 -0.2567 2.1511
6.6055 -0.1934 2.1336
6.6175 -0.1299 2.1163
6.6275 -0.0662 2.0985
6.6368 -0.0024 2.0806
6.6462 0.0615 2.0629
6.6556 0.1255 2.0454
6.6616 0.1895 2.0270
6.6658 0.2536 2.0083
6.6699 0.3178 1.9897
6.6741 0.3821 1.9714
6.6783 0.4465 1.9532
6.6825 0.5110 1.9352
6.6867 0.5756 1.9173
6.6909 0.6404 1.8997
6.6952 0.7053 1.8822
6.6994 0.7704 1.8648
6.7036 0.8356 1.8477
6.7079 0.9011 1.8307
6.7122 0.9668 1.8138
6.7165 1.0327 1.7971
6.7208 1.0988 1.7806
6.7251 1.1652 1.7642
6.7294 1.2318 1.7479
6.7338 1.2988 1.7318
6.7381 1.3660 1.7158
6.7425 1.4335 1.7000
6.7470 1.5014 1.6843
6.4507 1.4997 1.5944
6.2686 1.5201 1.5340
6.1944 1.5643 1.5008
6.0130 1.5790 1.4424
5.8410 1.5930 1.3872
5.6779 1.6063 1.3350
5.5229 1.6190 1.2856
5.2890 1.6048 1.2189
5.1245 1.6078 1.1691
5.1453 1.6678 1.1621
5.1217 1.7137 1.1451
6.8021 2.3474 1.5055
6.8068 2.4211 1.4914
6.8117 2.4953 1.4773
6.8166 2.5702 1.4634
6.8247 2.6470 1.4502
6.5026 2.5928 1.3677
6.5299 2.6751 1.3594
6.5592 2.7595 1.3515
6.5654 2.8351 1.3389
6.5716 2.9115 1.3263
6.5779 2.9886 1.3139
6.5842 3.0665 1.3015
6.5907 3.1452 1.2892
6.5971 3.2248 1.2770
6.6037 3.3053 1.2649
6.6103 3.3867 1.2528
6.6170 3.4690 1.2409
6.6238 3.5524 1.2290
6.6307 3.6367 1.2172
6.5904 3.6956 1.1969
6.6212 3.7951 1.1896
6.6518 3.8962 1.1822
6.6591 3.9850 1.1707
6.6664 4.0749 1.1593
6.6738 4.1661 1.1479
6.6814 4.2587 1.1366
6.6890 4.3525 1.1254
6.6968 4.4477 1.1142
6.7046 4.5443 1.1032
6.7126 4.6425 1.0921
6.7208 4.7421 1.0812
6.6761 4.8053 1.0620
6.5867 4.8356 1.0357
6.4890 4.8585 1.0088
6.3755 4.8678 0.9798
6.2642 4.8768 0.9516
6.1553 4.8857 0.9242
6.0252 4.8756 0.8941
5.8944 4.8623 0.8644
5.8542 4.9225 0.8484
7.0471 6.0397 1.0091
7.0552 6.1628 0.9982
7.0634 6.2883 0.9874
7.0718 6.4163 0.9766
7.0804 6.5467 0.9658
7.0892 6.6799 0.9551
7.0981 6.8158 0.9445
7.1072 6.9546 0.9340
7.1165 7.0963 0.9235
7.1260 7.2412 0.9130
7.1357 7.3893 0.9027
7.1457 7.5408 0.8923
7.1559 7.6958 0.8821
7.1663 7.8545 0.8719
7.1769 8.0170 0.8618
7.1879 8.1836 0.8517
7.1991 8.3543 0.8416
7.2106 8.5294 0.8317
7.2230 8.7099 0.8218
7.2353 8.8946 0.8120
7.2479 9.0844 0.8022
7.2608 9.2795 0.7925
7.2741 9.4802 0.7829
7.2878 9.6866 0.7733
7.3019 9.8993 0.7637
7.3165 10.1184 0.7543
7.3314 10.3442 0.7449
7.3469 10.5773 0.7355
7.3629 10.8179 0.7262
7.3794 11.0665 0.7170
7.3964 11.3235 0.7079
7.4139 11.5891 0.6988
7.4315 11.8634 0.6897
7.4497 12.1475 0.6807
5.5014 -1.6963 2.6948
5.5574 -1.6529 2.6948
5.6136 -1.6087 2.6948
5.6701 -1.5639 2.6948
5.7268 -1.5183 2.6948
5.7837 -1.4721 2.6948
5.8409 -1.4250 2.6948
5.8983 -1.3772 2.6948
5.9560 -1.3287 2.6948
6.0139 -1.2793 2.6948
6.0721 -1.2292 2.6948
6.1305 -1.1782 2.6948
6.1892 -1.1264 2.6948
6.2482 -1.0738 2.6948
6.3075 -1.0204 2.6948
6.3670 -0.9660 2.6948
6.4268 -0.9108 2.6948
6.4868 -0.8547 2.6948
6.5013 -0.7921 2.6760
6.5077 -0.7286 2.6540
6.5161 -0.6653 2.6332
6.5280 -0.6024 2.6140
6.5399 -0.5395 2.5950
6.5518 -0.4765 2.5763
6.5638 -0.4134 2.5579
6.5757 -0.3503 2.5396
6.5877 -0.2871 2.5216
6.5997 -0.2238 2.5038
6.6117 -0.1603 2.4862
6.6230 -0.0967 2.4685
6.6323 -0.0330 2.4504
6.6417 0.0309 2.4324
6.6511 0.0948 2.4147
6.6599 0.1589 2.3969
6.6640 0.2229 2.3778
6.6682 0.2870 2.3588
6.6724 0.3512 2.3401
6.6766 0.4155 2.3215
6.6808 0.4799 2.3033
6.6850 0.5444 2.2852
6.6892 0.6090 2.2673
6.6934 0.6737 2.2497
6.6976 0.7386 2.2322
6.7018 0.8037 2.2150
6.7061 0.8689 2.1979
6.7103 0.9343 2.1810
6.7146 1.0000 2.1644
6.7189 1.0658 2.1479
6.7232 1.1319 2.1316
6.7275 1.1982 2.1155
6.7318 1.2648 2.0996
6.7362 1.3317 2.0839
6.7406 1.3989 2.0683
6.7450 1.4664 2.0530
6.7494 1.5342 2.0378
6.3385 1.5038 1.8983
6.2579 1.5472 1.8592
6.1080 1.5713 1.8002
5.9318 1.5857 1.7344
5.7648 1.5993 1.6722
5.6061 1.6122 1.6133
5.3269 1.5862 1.5209
5.1996 1.6017 1.4729
5.1147 1.6283 1.4376
5.1473 1.6920 1.4354
6.7996 2.3060 1.8815
6.8044 2.3790 1.8682
6.8092 2.4526 1.8551
6.8140 2.5267 1.8422
6.8215 2.6024 1.8300
6.5912 2.5856 1.7548
6.5263 2.6309 1.7243
6.5099 2.6953 1.7069
6.5616 2.7889 1.7075
6.5678 2.8643 1.6963
6.5740 2.9405 1.6851
6.5803 3.0174 1.6742
6.5866 3.0951 1.6633
6.5930 3.1737 1.6526
6.5994 3.2531 1.6421
6.6060 3.3333 1.6317
6.6126 3.4145 1.6214
6.6193 3.4966 1.6112
6.6261 3.5796 1.6012
6.6329 3.6637 1.5913
6.6163 3.7355 1.5760
6.5946 3.8048 1.5596
6.6540 3.9223 1.5625
6.6612 4.0107 1.5532
6.6685 4.1003 1.5440
6.6759 4.1911 1.5350
6.6834 4.2832 1.5261
6.6910 4.3767 1.5173
6.6987 4.4714 1.5087
6.7065 4.5676 1.5002
6.7145 4.6653 1.4919
6.7226 4.7644 1.4837
6.7069 4.8479 1.4705
6.5803 4.8504 1.4332
6.4666 4.8603 1.3993
6.3545 4.8695 1.3662
6.2447 4.8784 1.3340
6.1371 4.8872 1.3027
6.0085 4.8770 1.2674
5.8790 4.8636 1.2324
5.8553 4.9367 1.2199
7.0479 6.0555 1.4595
7.0560 6.1777 1.4524
7.0641 6.3023 1.4455
7.0725 6.4292 1.4388
7.0810 6.5587 1.4323
7.0896 6.6907 1.4260
7.0985 6.8255 1.4198
7.1075 6.9630 1.4139
7.1167 7.1035 1.4082
7.1262 7.2470 1.4026
7.1358 7.3937 1.3973
7.1456 7.5437 1.3922
7.1557 7.6971 1.3874
7.1660 7.8541 1.3827
7.1766 8.0149 1.3783
7.1874 8.1795 1.3742
7.1984 8.3483 1.3703
7.2098 8.5213 1.3667
7.2219 8.6994 1.3634
7.2340 8.8818 1.3604
7.2465 9.0691 1.3577
7.2592 9.2615 1.3552
7.2723 9.4593 1.3531
7.3288 10.3103 1.3481
7.2858 9.6628 1.3513
7.3440 10.5395 1.3478
7.2997 9.8723 1.3499
7.3597 10.7760 1.3479
7.3140 10.0880 1.3488
7.3759 11.0202 1.3484
7.3926 11.2726 1.3494
7.4091 11.5323 1.3507
7.4264 11.8012 1.3525
7.4442 12.0796 1.3548
7.4626 12.3681 1.3577
4.9406 -1.4423 2.6948
4.9879 -1.4020 2.6948
5.0353 -1.3611 2.6948
5.0828 -1.3195 2.6948
5.1304 -1.2774 2.6948
5.1781 -1.2346 2.6948
5.2260 -1.1913 2.6948
5.2739 -1.1472 2.6948
5.3219 -1.1025 2.6948
5.3701 -1.0572 2.6948
5.4183 -1.0112 2.6948
5.4667 -0.9645 2.6948
5.5152 -0.9171 2.6948
5.5637 -0.8691 2.6948
5.6124 -0.8203 2.6948
5.6612 -0.7708 2.6948
5.7101 -0.7206 2.6948
5.7590 -0.6696 2.6948
5.8081 -0.6179 2.6948
5.8573 -0.5654 2.6948
5.9066 -0.5122 2.6948
5.9560 -0.4581 2.6948
6.0054 -0.4034 2.6948
6.0550 -0.3477 2.6948
6.1047 -0.2913 2.6948
6.1545 -0.2340 2.6948
6.2043 -0.1759 2.6948
6.2542 -0.1170 2.6948
6.3043 -0.0571 2.6948
6.3544 0.0036 2.6948
6.4046 0.0652 2.6948
6.4549 0.1276 2.6948
6.5052 0.1911 2.6948
6.5557 0.2554 2.6948
6.6062 0.3207 2.6948
6.6567 0.3870 2.6948
6.6792 0.4523 2.6835
6.6834 0.5166 2.6651
6.6876 0.5811 2.6468
6.6918 0.6457 2.6289
6.6960 0.7104 2.6112
6.7003 0.7753 2.5937
6.7045 0.8403 2.5765
6.7087 0.9055 2.5595
6.7130 0.9709 2.5427
6.7173 1.0365 2.5262
6.7215 1.1023 2.5099
6.7258 1.1684 2.4938
6.7302 1.2346 2.4780
6.7345 1.3012 2.4624
6.7388 1.3680 2.4470
6.7432 1.4352 2.4318
6.7476 1.5026 2.4168
6.4490 1.4999 2.2942
6.2359 1.5122 2.2036
6.1155 1.5439 2.1466
6.0155 1.5788 2.0976
5.8448 1.5927 2.0247
5.6829 1.6059 1.9558
5.5290 1.6185 1.8905
5.2888 1.6020 1.7968
5.1323 1.6072 1.7325
5.1450 1.6641 1.7259
5.1256 1.7108 1.7086
6.8022 2.3412 2.2534
6.8070 2.4140 2.2411
6.8117 2.4875 2.2290
6.8166 2.5615 2.2171
6.8235 2.6369 2.2060
6.5236 2.5911 2.0965
6.5290 2.6638 2.0859
6.5582 2.7471 2.0831
6.5643 2.8217 2.0730
6.5704 2.8969 2.0631
6.5766 2.9729 2.0534
6.5829 3.0497 2.0439
6.5892 3.1272 2.0345
6.5956 3.2055 2.0254
6.6020 3.2847 2.0164
6.6085 3.3648 2.0077
6.6151 3.4457 1.9991
6.6218 3.5276 1.9907
6.6286 3.6104 1.9825
6.6254 3.6886 1.9716
6.5841 3.7459 1.9495
6.6493 3.8649 1.9592
6.6564 3.9519 1.9518
6.6636 4.0400 1.9446
6.6708 4.1293 1.9376
6.6782 4.2198 1.9308
6.6857 4.3115 1.9243
6.6933 4.4046 1.9179
6.7009 4.4989 1.9118
6.7088 4.5947 1.9059
6.7167 4.6919 1.9002
6.7298 4.7942 1.8962
6.6608 4.8385 1.8693
6.5530 4.8533 1.8319
6.4401 4.8625 1.7936
6.3296 4.8715 1.7564
6.2213 4.8803 1.7202
6.1151 4.8890 1.6850
5.9908 4.8809 1.6452
5.8600 4.8651 1.6042
5.8568 4.9546 1.5983
7.0491 6.0757 1.9180
7.0570 6.1971 1.9146
7.0651 6.3207 1.9116
7.0734 6.4467 1.9089
7.0818 6.5752 1.9065
7.0904 6.7062 1.9044
7.0992 6.8399 1.9027
7.1082 6.9763 1.9013
7.1173 7.1155 1.9002
7.1266 7.2578 1.8995
7.1362 7.4031 1.8991
7.1459 7.5517 1.8991
7.1559 7.7036 1.8995
7.1661 7.8591 1.9003
7.1872 8.1810 1.9032
7.1765 8.0181 1.9015
7.1982 8.3479 1.9053
7.2332 8.8750 1.9145
7.2094 8.5190 1.9078
7.2455 9.0599 1.9186
7.2213 8.6949 1.9109
7.2580 9.2499 1.9232
7.2843 9.6457 1.9342
7.2710 9.4451 1.9284
7.2980 9.8522 1.9406
7.3415 10.5092 1.9637
7.3121 10.0647 1.9476
7.3570 10.7419 1.9729
7.3266 10.2836 1.9553
7.3729 10.9821 1.9828
7.3893 11.2300 1.9935
7.4063 11.4863 2.0051
7.4218 11.7480 2.0170
7.4393 12.0211 2.0302
7.4574 12.3038 2.0444
7.4761 12.5969 2.0597
4.7203 -1.2975 2.8472
4.7631 -1.2580 2.8472
4.7926 -1.2145 2.8394
4.7998 -1.1653 2.8185
4.8068 -1.1163 2.7979
4.8139 -1.0674 2.7776
4.8208 -1.0187 2.7577
4.8277 -0.9701 2.7380
4.8345 -0.9217 2.7186
4.8467 -0.8745 2.7026
4.8735 -0.8295 2.6948
4.9142 -0.7866 2.6948
4.9548 -0.7431 2.6948
4.9955 -0.6991 2.6948
5.0362 -0.6544 2.6948
5.0768 -0.6091 2.6948
5.1175 -0.5632 2.6948
5.1581 -0.5167 2.6948
5.1988 -0.4696 2.6948
5.2394 -0.4219 2.6948
5.2800 -0.3735 2.6948
5.3206 -0.3244 2.6948
5.3612 -0.2748 2.6948
5.4018 -0.2244 2.6948
5.4423 -0.1734 2.6948
5.4828 -0.1217 2.6948
5.5233 -0.0693 2.6948
5.5637 -0.0163 2.6948
5.6041 0.0375 2.6948
5.6445 0.0920 2.6948
5.6848 0.1472 2.6948
5.7251 0.2032 2.6948
5.7653 0.2598 2.6948
5.8054 0.3172 2.6948
5.8455 0.3754 2.6948
5.8855 0.4343 2.6948
5.9254 0.4940 2.6948
5.9652 0.5545 2.6948
6.0050 0.6157 2.6948
6.0447 0.6778 2.6948
6.0843 0.7406 2.6948
6.1237 0.8043 2.6948
6.1631 0.8688 2.6948
6.2023 0.9342 2.6948
6.2415 1.0004 2.6948
6.2805 1.0674 2.6948
6.3194 1.1353 2.6948
6.3581 1.2041 2.6948
6.3967 1.2738 2.6948
6.4351 1.3443 2.6948
6.4734 1.4158 2.6948
6.5115 1.4882 2.6948
6.4370 1.5347 2.6486
6.4423 1.5998 2.6356
6.6246 1.7109 2.6948
6.6619 1.7871 2.6948
6.6990 1.8642 2.6948
5.4628 1.5752 2.1855
5.3174 1.5870 2.1158
5.1918 1.6023 2.0548
5.1149 1.6308 2.0137
5.1474 1.6940 2.0159
6.8004 2.3082 2.6495
6.8051 2.3804 2.6379
6.8098 2.4532 2.6265
6.8146 2.5265 2.6153
6.8208 2.6009 2.6050
6.5955 2.5852 2.5068
6.5261 2.6279 2.4687
6.5175 2.6947 2.4540
6.8410 2.9027 2.5640
6.2857 2.7359 2.3452
6.2883 2.8063 2.3358
6.2048 2.8380 2.2947
6.0548 2.8372 2.2297
6.0708 2.9132 2.2262
6.0865 2.9900 2.2228
6.1021 3.0677 2.2194
6.1174 3.1463 2.2162
6.1333 3.2261 2.2134
6.1515 3.3083 2.2116
6.1693 3.3913 2.2098
6.1869 3.4754 2.2081
6.2041 3.5604 2.2064
6.2209 3.6464 2.2049
6.3212 3.7836 2.2330
6.9300 4.2348 2.4401
6.2693 3.9105 2.2006
6.2847 4.0006 2.1993
6.2997 4.0918 2.1981
6.3158 4.1850 2.1975
6.3315 4.2794 2.1970
6.3467 4.3749 2.1965
6.3613 4.4715 2.1960
6.3753 4.5692 2.1957
6.3888 4.6679 2.1953
6.4017 4.7678 2.1950
6.3843 4.8464 2.1846
6.2950 4.8700 2.1500
6.1933 4.8826 2.1115
6.0888 4.8911 2.0724
5.9366 4.8589 2.0176
5.8368 4.8670 1.9809
5.8496 4.9691 1.9828
7.0505 6.1010 2.3873
7.0584 6.2216 2.3877
7.0665 6.3444 2.3885
7.0747 6.4696 2.3897
7.0830 6.5972 2.3914
7.0916 6.7272 2.3935
7.1003 6.8599 2.3960
7.1092 6.9952 2.3990
7.1182 7.1333 2.4025
7.1275 7.2744 2.4065
7.1369 7.4185 2.4110
7.1466 7.5657 2.4161
7.1565 7.7162 2.4216
7.1666 7.8702 2.4278
7.1769 8.0277 2.4345
7.1983 8.3541 2.4498
7.1875 8.1890 2.4418
7.2094 8.5234 2.4584
7.2449 9.0579 2.4885
7.2210 8.6971 2.4677
7.2574 9.2455 2.5001
7.2968 9.8399 2.5396
7.2328 8.8752 2.4778
7.2701 9.4382 2.5124
7.3106 10.0495 2.5545
7.3549 10.7166 2.6053
7.2833 9.6363 2.5256
7.3249 10.2653 2.5704
7.3705 10.9529 2.6243
7.4179 11.7048 2.6876
7.3397 10.4875 2.5873
7.3867 11.1968 2.6445
7.3898 11.9001 2.6948
7.4034 11.4487 2.6659
7.3394 12.0639 2.6948
7.2865 12.2278 2.6948
7.2313 12.3918 2.6948
4.2915 -1.1033 2.8472
4.3286 -1.0665 2.8472
4.3656 -1.0293 2.8472
4.4026 -0.9915 2.8472
4.4395 -0.9533 2.8472
4.4764 -0.9146 2.8472
4.5132 -0.8753 2.8472
4.5500 -0.8356 2.8472
4.5867 -0.7954 2.8472
4.6234 -0.7547 2.8472
4.6601 -0.7134 2.8472
4.6966 -0.6716 2.8472
4.7331 -0.6293 2.8472
4.7696 -0.5865 2.8472
4.8059 -0.5431 2.8472
4.8391 -0.4989 2.8454
4.8454 -0.4517 2.8279
4.8517 -0.4046 2.8108
4.8580 -0.3575 2.7939
4.8642 -0.3103 2.7773
4.8704 -0.2633 2.7610
4.8765 -0.2162 2.7449
4.8826 -0.1691 2.7290
4.8886 -0.1221 2.7134
4.9009 -0.0750 2.7015
4.9222 -0.0279 2.6948
4.9556 0.0196 2.6948
4.9889 0.0676 2.6948
5.0220 0.1163 2.6948
5.0551 0.1655 2.6948
5.0880 0.2153 2.6948
5.1208 0.2657 2.6948
5.1534 0.3166 2.6948
5.1860 0.3683 2.6948
5.2183 0.4204 2.6948
5.2505 0.4733 2.6948
5.2826 0.5267 2.6948
5.3145 0.5807 2.6948
5.3462 0.6355 2.6948
5.3778 0.6908 2.6948
5.4092 0.7467 2.6948
5.4404 0.8033 2.6948
5.4714 0.8606 2.6948
5.5022 0.9185 2.6948
5.5328 0.9771 2.6948
5.5632 1.0364 2.6948
5.5934 1.0963 2.6948
5.6233 1.1569 2.6948
5.6531 1.2182 2.6948
5.6825 1.2801 2.6948
5.7118 1.3428 2.6948
5.7407 1.4062 2.6948
5.7695 1.4703 2.6948
5.7979 1.5351 2.6948
5.8260 1.6005 2.6948
5.8539 1.6668 2.6948
5.8815 1.7337 2.6948
5.9088 1.8014 2.6948
5.1133 1.6108 2.3215
5.1458 1.6734 2.3258
5.1220 1.7182 2.3049
6.0145 2.0796 2.6948
6.0401 2.1510 2.6948
6.0653 2.2231 2.6948
6.0902 2.2961 2.6948
6.1146 2.3698 2.6948
6.1386 2.4442 2.6948
6.1623 2.5195 2.6948
6.1855 2.5955 2.6948
6.2083 2.6723 2.6948
6.2306 2.7499 2.6948
6.2524 2.8283 2.6948
6.2738 2.9074 2.6948
6.2947 2.9874 2.6948
6.3151 3.0682 2.6948
6.3350 3.1497 2.6948
6.3544 3.2321 2.6948
6.3732 3.3152 2.6948
6.3915 3.3992 2.6948
6.4092 3.4840 2.6948
6.4263 3.5696 2.6948
6.4429 3.6560 2.6948
6.4588 3.7431 2.6948
6.4740 3.8311 2.6948
6.4887 3.9199 2.6948
6.5026 4.0096 2.6948
6.5159 4.1000 2.6948
6.5285 4.1912 2.6948
6.5404 4.2832 2.6948
6.5515 4.3761 2.6948
6.5619 4.4697 2.6948
6.5716 4.5641 2.6948
6.5804 4.6593 2.6948
6.5885 4.7553 2.6948
6.5957 4.8521 2.6948
6.6021 4.9496 2.6948
6.6076 5.0479 2.6948
6.6123 5.1470 2.6948
6.6160 5.2469 2.6948
6.6189 5.3474 2.6948
5.9070 4.8613 2.4043
5.8235 4.8817 2.3700
5.8314 4.9789 2.3732
6.6206 5.7571 2.6948
6.6185 5.8612 2.6948
6.6154 5.9661 2.6948
6.6113 6.0716 2.6948
6.6060 6.1779 2.6948
6.5997 6.2847 2.6948
6.5922 6.3922 2.6948
6.5836 6.5003 2.6948
6.5738 6.6091 2.6948
6.5628 6.7183 2.6948
6.5505 6.8282 2.6948
6.5371 6.9386 2.6948
6.5224 7.0495 2.6948
6.5064 7.1610 2.6948
6.4891 7.2729 2.6948
6.4705 7.3852 2.6948
6.4506 7.4980 2.6948
6.4292 7.6112 2.6948
6.4065 7.7248 2.6948
6.3824 7.8387 2.6948
6.3568 7.9530 2.6948
6.3298 8.0675 2.6948
6.3014 8.1824 2.6948
6.2714 8.2974 2.6948
6.2399 8.4126 2.6948
6.2069 8.5280 2.6948
6.1723 8.6435 2.6948
6.1362 8.7592 2.6948
6.0984 8.8748 2.6948
6.0591 8.9905 2.6948
6.0181 9.1062 2.6948
5.9755 9.2217 2.6948
5.9312 9.3372 2.6948
5.8853 9.4525 2.6948
5.8377 9.5676 2.6948
5.7883 9.6825 2.6948
5.7373 9.7971 2.6948
5.6845 9.9113 2.6948
3.9181 -0.9342 2.8472
3.9504 -0.9000 2.8472
3.9827 -0.8653 2.8472
4.0149 -0.8302 2.8472
4.0470 -0.7947 2.8472
4.0790 -0.7588 2.8472
4.1109 -0.7224 2.8472
4.1428 -0.6856 2.8472
4.1745 -0.6484 2.8472
4.2062 -0.6107 2.8472
4.2377 -0.5726 2.8472
4.2691 -0.5340 2.8472
4.3005 -0.4950 2.8472
4.3317 -0.4555 2.8472
4.3628 -0.4156 2.8472
4.3938 -0.3752 2.8472
4.4247 -0.3343 2.8472
4.4555 -0.2930 2.8472
4.4861 -0.2512 2.8472
4.5166 -0.2090 2.8472
4.5470 -0.1662 2.8472
4.5772 -0.1230 2.8472
4.6073 -0.0793 2.8472
4.6372 -0.0351 2.8472
4.6670 0.0096 2.8472
4.6966 0.0548 2.8472
4.7261 0.1005 2.8472
4.7554 0.1467 2.8472
4.7846 0.1933 2.8472
4.8135 0.2406 2.8472
4.8423 0.2883 2.8472
4.8709 0.3365 2.8472
4.8976 0.3851 2.8463
4.9032 0.4324 2.8332
4.9087 0.4797 2.8203
4.9142 0.5272 2.8077
4.9197 0.5748 2.7954
4.9251 0.6226 2.7833
4.9305 0.6705 2.7714
4.9359 0.7185 2.7597
4.9412 0.7667 2.7483
4.9465 0.8151 2.7371
4.9517 0.8636 2.7261
4.9570 0.9124 2.7154
4.9650 0.9619 2.7064
4.9756 1.0121 2.6990
4.9917 1.0639 2.6948
5.0152 1.1178 2.6948
5.0385 1.1722 2.6948
5.0614 1.2272 2.6948
5.0841 1.2827 2.6948
5.1065 1.3387 2.6948
5.1286 1.3953 2.6948
5.1580 1.4546 2.6988
5.1719 1.5102 2.6948
5.1930 1.5684 2.6948
5.1460 1.6060 2.6598
5.1445 1.6576 2.6486
5.1428 1.7094 2.6376
5.2741 1.8070 2.6948
5.2935 1.8680 2.6948
5.3125 1.9297 2.6948
5.3312 1.9919 2.6948
5.3494 2.0546 2.6948
5.3672 2.1179 2.6948
5.3847 2.1818 2.6948
5.4017 2.2463 2.6948
5.4182 2.3113 2.6948
5.4343 2.3769 2.6948
5.4500 2.4431 2.6948
5.4652 2.5098 2.6948
5.4800 2.5771 2.6948
5.4942 2.6450 2.6948
5.5080 2.7134 2.6948
5.5212 2.7824 2.6948
5.5340 2.8520 2.6948
5.5462 2.9222 2.6948
5.5579 2.9929 2.6948
5.5690 3.0641 2.6948
5.5796 3.1359 2.6948
5.5896 3.2083 2.6948
5.5990 3.2813 2.6948
5.6078 3.3547 2.6948
5.6160 3.4288 2.6948
5.6236 3.5034 2.6948
5.6305 3.5785 2.6948
5.6368 3.6541 2.6948
5.6425 3.7303 2.6948
5.6475 3.8070 2.6948
5.6517 3.8843 2.6948
5.6553 3.9620 2.6948
5.6582 4.0403 2.6948
5.6604 4.1190 2.6948
5.6618 4.1983 2.6948
5.6624 4.2780 2.6948
5.6623 4.3583 2.6948
5.6614 4.4390 2.6948
5.6598 4.5201 2.6948
5.6573 4.6018 2.6948
5.6540 4.6838 2.6948
5.6498 4.7663 2.6948
5.6448 4.8492 2.6948
5.6390 4.9326 2.6948
5.6322 5.0163 2.6948
5.6246 5.1005 2.6948
5.6161 5.1850 2.6948
5.6066 5.2699 2.6948
5.5962 5.3551 2.6948
5.5849 5.4407 2.6948
5.5726 5.5265 2.6948
5.5593 5.6127 2.6948
5.5450 5.6992 2.6948
5.5297 5.7860 2.6948
5.5134 5.8730 2.6948
5.4961 5.9603 2.6948
5.4777 6.0478 2.6948
5.4582 6.1354 2.6948
5.4377 6.2234 2.6948
5.4161 6.3114 2.6948
5.3934 6.3995 2.6948
5.3696 6.4878 2.6948
5.3481 6.5808 2.6966
5.3445 6.6974 2.7080
5.3484 6.8260 2.7239
5.3540 6.9602 2.7415
5.3597 7.0977 2.7599
5.3655 7.2387 2.7792
5.3714 7.3833 2.7994
5.3773 7.5316 2.8206
5.3833 7.6840 2.8428
5.3541 7.7892 2.8472
5.3152 7.8822 2.8472
5.2750 7.9750 2.8472
5.2334 8.0675 2.8472
5.1906 8.1599 2.8472
5.1464 8.2519 2.8472
5.1008 8.3436 2.8472
5.0539 8.4349 2.8472
5.0056 8.5258 2.8472
4.9560 8.6163 2.8472
4.9050 8.7063 2.8472
