ply
format ascii 1.0
element vertex 2192
property float32 x
property float32 y
property float32 z
end_header
-5.7392 -26.1789 2.8470
-4.5956 -25.8407 2.8470
-5.4475 -26.0866 2.8470
-4.3185 -25.7687 2.8470
-5.1599 -25.9996 2.8470
-4.0444 -25.7013 2.8470
-4.8760 -25.9177 2.8470
-3.7732 -25.6386 2.8470
-3.5046 -25.5801 2.8470
-2.4520 -25.3874 2.8465
-3.2383 -25.5254 2.8469
-2.1935 -25.3499 2.8464
-2.9742 -25.4751 2.8468
-1.9365 -25.3166 2.8463
-2.7122 -25.4291 2.8466
-1.6808 -25.2873 2.8462
-1.4262 -25.2621 2.8461
-0.4158 -25.2011 2.8457
-1.1726 -25.2409 2.8460
-0.1643 -25.1957 2.8456
-0.9197 -25.2237 2.8459
0.0870 -25.1943 2.8455
-0.6676 -25.2104 2.8458
0.3384 -25.1972 2.8455
0.5900 -25.2044 2.8455
1.6019 -25.2729 2.8455
0.8420 -25.2155 2.8455
1.8572 -25.3001 2.8455
1.0945 -25.2306 2.8455
2.1143 -25.3406 2.8465
1.3478 -25.2497 2.8455
2.3727 -25.3798 2.8470
2.6323 -25.4196 2.8470
3.6246 -25.1639 2.7963
2.8937 -25.4633 2.8470
3.8224 -24.7852 2.7477
3.1570 -25.5112 2.8470
4.0245 -24.4746 2.7063
3.4225 -25.5635 2.8470
4.2656 -24.4190 2.6927
4.5265 -24.4725 2.6908
4.7925 -24.5419 2.6901
5.6076 -24.7621 2.6861
5.0622 -24.6178 2.6895
5.8870 -24.8458 2.6848
5.3349 -24.6955 2.6887
6.1705 -24.9345 2.6834
6.6214 -24.6447 2.6291
6.4053 -24.8225 2.6600
6.8490 -24.5171 2.6033
7.5725 -24.2906 2.5398
7.0856 -24.4252 2.5808
7.3217 -24.3334 2.5580
7.8311 -24.2699 2.5234
8.0923 -24.2532 2.5070
8.6362 -24.2694 2.4776
8.3633 -24.2613 2.4926
8.9063 -24.2644 2.4607
9.1751 -24.2516 2.4425
9.7418 -24.2852 2.4102
9.4572 -24.2683 2.4266
10.0290 -24.3023 2.3932
10.3188 -24.3195 2.3755
10.9067 -24.3544 2.3382
10.6113 -24.3369 2.3572
11.2050 -24.3721 2.3186
11.5063 -24.3900 2.2984
12.1185 -24.4264 2.2557
11.8108 -24.4081 2.2774
12.4271 -24.4400 2.2329
13.3812 -24.4960 2.1612
12.7415 -24.4584 2.2097
13.7067 -24.5151 2.1357
13.0595 -24.4771 2.1858
14.0362 -24.5345 2.1095
14.7076 -24.5739 2.0545
14.3698 -24.5541 2.0824
15.0498 -24.5940 2.0256
16.1019 -24.6520 1.9335
15.3950 -24.6118 1.9957
16.4627 -24.6725 1.9009
15.7460 -24.6317 1.9651
16.8288 -24.6933 1.8673
17.5772 -24.7359 1.7971
17.2002 -24.7144 1.8327
17.9600 -24.7576 1.7603
19.1460 -24.8264 1.6434
18.3495 -24.7808 1.7226
19.5541 -24.8497 1.6020
18.7445 -24.8034 1.6836
19.9691 -24.8734 1.5593
20.7601 -24.8495 1.4657
20.3706 -24.8723 1.5138
21.1549 -24.8260 1.4164
22.3436 -24.7199 1.2588
21.5428 -24.7877 1.3650
22.7475 -24.6797 1.2034
21.9389 -24.7524 1.3125
23.1504 -24.6317 1.1463
23.9829 -24.5435 1.0282
23.5621 -24.5863 1.0879
24.3944 -24.4843 0.9664
25.6704 -24.3072 0.7720
24.8134 -24.4259 0.9032
26.0972 -24.2358 0.7037
25.2418 -24.3699 0.8385
26.5336 -24.1665 0.6338
27.4134 -24.0132 0.4887
26.9784 -24.0977 0.5623
27.8582 -23.9304 0.4134
29.2167 -23.6601 0.1764
28.3133 -23.8493 0.3363
29.7348 -23.6077 0.0937
28.7618 -23.7556 0.2573
30.3645 -23.6332 0.0088
33.8921 -23.3627 -0.5581
31.6872 -23.6951 -0.1702
31.0168 -23.6638 -0.0791
34.4297 -23.2474 -0.6610
32.3570 -23.7130 -0.2644
34.9812 -23.1327 -0.7667
36.1297 -22.9052 -0.9868
35.3865 -22.9142 -0.8713
32.8567 -23.5955 -0.3600
36.7278 -22.7922 -1.1015
38.6286 -22.4558 -1.4663
33.3681 -23.4788 -0.4578
37.3431 -22.6797 -1.2195
39.3010 -22.3444 -1.5954
39.9946 -22.2332 -1.7286
37.9764 -22.5675 -1.3411
7.8976 -4.2916 -0.3620
7.6223 -4.0477 -0.3693
7.5071 -3.8947 -0.3833
7.3966 -3.7477 -0.3968
7.2903 -3.6064 -0.4100
7.1879 -3.4704 -0.4229
-4.0161 -18.0686 2.8407
-3.8177 -18.0326 2.8403
-3.6212 -17.9983 2.8398
-3.2335 -17.9352 2.8389
-3.4265 -17.9659 2.8394
-3.0420 -17.9062 2.8385
-2.4761 -17.8293 2.8372
-2.8520 -17.8789 2.8380
-2.6634 -17.8533 2.8376
-2.2899 -17.8069 2.8367
-1.7376 -17.7493 2.8354
-2.1048 -17.7862 2.8363
-1.5553 -17.7332 2.8350
-1.9208 -17.7670 2.8359
-1.3737 -17.7185 2.8346
-1.1928 -17.7054 2.8341
-1.0125 -17.6938 2.8337
-0.2954 -17.6621 2.8320
-0.8327 -17.6837 2.8333
-0.1167 -17.6578 2.8316
-0.6533 -17.6750 2.8329
0.0618 -17.6549 2.8312
-0.4742 -17.6678 2.8325
0.2403 -17.6535 2.8308
0.4188 -17.6536 2.8304
1.1351 -17.6683 2.8287
0.5975 -17.6551 2.8299
1.3151 -17.6756 2.8282
1.4956 -17.6844 2.8278
0.7764 -17.6580 2.8295
1.6768 -17.6947 2.8274
1.8586 -17.7065 2.8270
0.9556 -17.6624 2.8291
2.0411 -17.7197 2.8265
2.2246 -17.7345 2.8261
2.5944 -17.7687 2.8252
2.4090 -17.7508 2.8256
3.3482 -17.8560 2.8234
2.7809 -17.7881 2.8247
3.5401 -17.8819 2.8229
2.9687 -17.8091 2.8243
3.7337 -17.9096 2.8224
3.1577 -17.8317 2.8238
3.9289 -17.9389 2.8220
4.9346 -18.1128 2.8196
4.1260 -17.9700 2.8215
5.1425 -18.1532 2.8191
4.3250 -18.0029 2.8210
5.3528 -18.1957 2.8185
5.5635 -18.2324 2.8168
4.5260 -18.0377 2.8205
5.7676 -18.2423 2.8106
4.7292 -18.0743 2.8200
5.9696 -18.2413 2.8025
6.1748 -18.2462 2.7949
6.5858 -18.2454 2.7773
6.3795 -18.2452 2.7862
6.7935 -18.2454 2.7680
7.4297 -18.2552 2.7398
7.0030 -18.2461 2.7586
7.6471 -18.2631 2.7304
7.2153 -18.2502 2.7493
7.8668 -18.2721 2.7208
8.0892 -18.2827 2.7111
8.3145 -18.2949 2.7012
9.1591 -18.1866 2.6352
8.5397 -18.3022 2.6903
9.3740 -18.1599 2.6178
8.7586 -18.2921 2.6764
9.5911 -18.1343 2.6003
9.8106 -18.1101 2.5826
8.9659 -18.2546 2.6582
10.0325 -18.0870 2.5647
10.9473 -18.0073 2.4907
10.2570 -18.0652 2.5465
11.1835 -17.9905 2.4716
10.4842 -18.0447 2.5282
10.7143 -18.0254 2.5096
11.4230 -17.9751 2.4522
11.9124 -17.9480 2.4126
11.6659 -17.9609 2.4325
12.1627 -17.9365 2.3923
12.4169 -17.9263 2.3717
12.9379 -17.9100 2.3294
12.6752 -17.9175 2.3507
13.2051 -17.9040 2.3077
14.0360 -17.8947 2.2403
13.4771 -17.8995 2.2857
14.3235 -17.8947 2.2169
14.6167 -17.8962 2.1931
13.7540 -17.8963 2.2632
14.9159 -17.8993 2.1687
15.2213 -17.9040 2.1439
16.2586 -17.6655 2.0076
15.5012 -17.8735 2.1141
16.5080 -17.5866 1.9699
15.7548 -17.8088 2.0797
16.7495 -17.4963 1.9303
16.9886 -17.4010 1.8896
16.0124 -17.7451 2.0449
17.2995 -17.3750 1.8558
18.8278 -17.4835 1.7331
17.6663 -17.3989 1.8264
18.0429 -17.4249 1.7962
19.2371 -17.5164 1.7001
18.4299 -17.4531 1.7651
19.6586 -17.5516 1.6661
20.5404 -17.6301 1.5948
20.0927 -17.5895 1.6310
21.0024 -17.6736 1.5574
22.3776 -17.7393 1.4306
21.4794 -17.7200 1.5187
21.9342 -17.7387 1.4762
22.8114 -17.7241 1.3823
24.0639 -17.5955 1.2226
23.2363 -17.6943 1.3315
24.4695 -17.5297 1.1649
23.6533 -17.6509 1.2782
24.8685 -17.4525 1.1051
25.2770 -17.3752 1.0438
25.6953 -17.2979 0.9811
27.3979 -16.9386 0.7115
26.1128 -17.2132 0.9163
27.8276 -16.8339 0.6393
26.5316 -17.1225 0.8498
28.2677 -16.7286 0.5654
28.7189 -16.6225 0.4895
26.9605 -17.0314 0.7815
29.1651 -16.5062 0.4115
8.1366 -4.5017 0.0911
7.4812 -3.8602 0.0190
7.8344 -4.2361 0.0649
7.3709 -3.7137 -0.0023
7.5960 -4.0128 0.0411
7.2649 -3.5728 -0.0230
7.1629 -3.4372 -0.0429
7.0987 -3.3225 -0.0625
-3.0992 -13.7526 2.8392
-2.9489 -13.7384 2.8388
-2.7996 -13.7248 2.8385
-2.6513 -13.7119 2.8381
-2.5039 -13.6996 2.8378
-2.3574 -13.6880 2.8375
-2.2117 -13.6770 2.8371
-0.9063 -5.9932 1.2440
-0.8422 -5.9825 1.2425
-0.7785 -5.9722 1.2411
-0.7152 -5.9621 1.2396
-0.6523 -5.9524 1.2381
-0.5897 -5.9429 1.2367
-0.5275 -5.9338 1.2353
-0.4656 -5.9249 1.2338
-0.4040 -5.9163 1.2324
-0.3427 -5.9080 1.2310
-0.2816 -5.8999 1.2296
-0.2207 -5.8922 1.2282
-0.1601 -5.8846 1.2268
-0.0996 -5.8774 1.2253
-0.0393 -5.8704 1.2239
0.0208 -5.8637 1.2225
0.0808 -5.8571 1.2212
0.1407 -5.8509 1.2198
0.2005 -5.8449 1.2184
0.2602 -5.8391 1.2170
0.3199 -5.8336 1.2156
0.3795 -5.8283 1.2142
0.4392 -5.8233 1.2128
0.4988 -5.8185 1.2114
0.5584 -5.8139 1.2100
0.6181 -5.8096 1.2086
0.6779 -5.8054 1.2072
0.7377 -5.8016 1.2058
0.7976 -5.7979 1.2044
0.8576 -5.7945 1.2030
2.1592 -13.6242 2.8267
2.3036 -13.6316 2.8264
2.4486 -13.6397 2.8260
2.5945 -13.6483 2.8257
2.7412 -13.6576 2.8253
2.8888 -13.6675 2.8250
3.0373 -13.6780 2.8246
3.1868 -13.6892 2.8242
3.3374 -13.7010 2.8239
3.4891 -13.7135 2.8235
3.6419 -13.7267 2.8232
3.7960 -13.7405 2.8228
3.9514 -13.7551 2.8224
4.1082 -13.7703 2.8220
4.2664 -13.7863 2.8217
4.4261 -13.8030 2.8213
4.5873 -13.8205 2.8209
4.7502 -13.8387 2.8205
4.9149 -13.8578 2.8201
5.0813 -13.8775 2.8197
5.2496 -13.8982 2.8193
5.4199 -13.9196 2.8189
5.5923 -13.9420 2.8185
5.7668 -13.9652 2.8180
5.9355 -13.9704 2.8138
6.1007 -13.9642 2.8071
6.2670 -13.9576 2.8001
6.4360 -13.9540 2.7936
6.6050 -13.9475 2.7863
6.7757 -13.9416 2.7790
6.9482 -13.9365 2.7716
7.1215 -13.9298 2.7637
7.2978 -13.9259 2.7562
7.4759 -13.9219 2.7485
7.6558 -13.9184 2.7406
7.8383 -13.9160 2.7328
8.0228 -13.9140 2.7248
8.2098 -13.9126 2.7167
8.3990 -13.9115 2.7085
8.5908 -13.9110 2.7001
8.7695 -13.8862 2.6868
8.9472 -13.8572 2.6725
9.1267 -13.8287 2.6580
9.3081 -13.8004 2.6434
9.4915 -13.7725 2.6287
10.0546 -13.6905 2.5833
9.6770 -13.7449 2.6137
10.2469 -13.6638 2.5678
9.8647 -13.7175 2.5986
10.4416 -13.6374 2.5521
10.6389 -13.6112 2.5362
10.8388 -13.5854 2.5200
11.5910 -13.3964 2.4371
11.0416 -13.5599 2.5037
11.7540 -13.3147 2.4094
11.2472 -13.5346 2.4871
11.9472 -13.2656 2.3874
11.4218 -13.4695 2.4629
12.1702 -13.2462 2.3705
13.3454 -13.1531 2.2809
12.3970 -13.2270 2.3532
13.5938 -13.1353 2.2619
12.6277 -13.2081 2.3357
13.8471 -13.1177 2.2425
12.8626 -13.1895 2.3178
14.1054 -13.1005 2.2228
14.3691 -13.0835 2.2025
13.1018 -13.1711 2.2995
14.6383 -13.0668 2.1819
15.4820 -13.0183 2.1171
14.9134 -13.0503 2.1608
15.7761 -13.0027 2.0944
15.1945 -13.0342 2.1392
16.0771 -12.9874 2.0713
16.7015 -12.9577 2.0231
16.3855 -12.9724 2.0475
17.0255 -12.9434 1.9981
17.3579 -12.9293 1.9724
18.0494 -12.9021 1.9190
17.6990 -12.9155 1.9461
18.4096 -12.8890 1.8911
19.5137 -12.8255 1.7987
19.8834 -12.7921 1.7644
18.7800 -12.8762 1.8624
20.2474 -12.7484 1.7277
19.1536 -12.8588 1.8321
20.6179 -12.7024 1.6898
20.9903 -12.6510 1.6503
8.0749 -4.4475 0.5294
7.7759 -4.1847 0.4849
21.3614 -12.5923 1.6087
7.5714 -3.9802 0.4481
21.7422 -12.5329 1.5661
7.4569 -3.8279 0.4179
22.1141 -12.4619 1.5210
7.3469 -3.6817 0.3888
7.2411 -3.5411 0.3607
7.1469 -3.4095 0.3340
7.0837 -3.2953 0.3094
7.0222 -3.1842 0.2853
-2.5267 -11.0577 2.8382
-2.4056 -11.0530 2.8379
-2.2850 -11.0485 2.8376
-0.9541 -4.8669 1.2504
-0.9007 -4.8608 1.2491
-0.8477 -4.8547 1.2479
-0.7949 -4.8488 1.2467
-0.7425 -4.8429 1.2454
-0.6903 -4.8372 1.2442
-0.6385 -4.8316 1.2430
-0.5869 -4.8260 1.2418
-0.5355 -4.8206 1.2406
-0.4844 -4.8152 1.2394
-0.4335 -4.8100 1.2382
-0.3828 -4.8048 1.2371
-0.3322 -4.7997 1.2359
-0.2819 -4.7947 1.2347
-0.2317 -4.7898 1.2335
-0.1817 -4.7850 1.2324
-0.1318 -4.7803 1.2312
-0.0820 -4.7756 1.2300
-0.0324 -4.7710 1.2289
0.0171 -4.7665 1.2277
0.0666 -4.7621 1.2266
0.1160 -4.7577 1.2254
0.1653 -4.7535 1.2243
0.2145 -4.7493 1.2231
0.2638 -4.7451 1.2220
0.3130 -4.7411 1.2208
0.3621 -4.7371 1.2197
0.4113 -4.7331 1.2185
0.4605 -4.7293 1.2174
0.5097 -4.7255 1.2162
0.5589 -4.7218 1.2151
0.6082 -4.7181 1.2139
0.6575 -4.7145 1.2127
0.7069 -4.7110 1.2116
0.7564 -4.7075 1.2104
0.8059 -4.7041 1.2093
0.8556 -4.7008 1.2081
2.1207 -11.0034 2.8271
2.2396 -11.0054 2.8268
2.3590 -11.0076 2.8265
2.4790 -11.0100 2.8262
2.5996 -11.0125 2.8260
2.7208 -11.0153 2.8257
2.8427 -11.0182 2.8254
2.9654 -11.0213 2.8251
3.0887 -11.0246 2.8248
3.2129 -11.0280 2.8245
3.3379 -11.0317 2.8242
3.4638 -11.0355 2.8239
3.5906 -11.0396 2.8236
3.7183 -11.0438 2.8233
3.8470 -11.0483 2.8230
3.9767 -11.0529 2.8227
4.1075 -11.0578 2.8223
4.2395 -11.0629 2.8220
4.3726 -11.0681 2.8217
4.5069 -11.0737 2.8214
4.6424 -11.0794 2.8211
4.7793 -11.0853 2.8207
4.9176 -11.0916 2.8204
5.0573 -11.0980 2.8201
5.1984 -11.1047 2.8197
5.3411 -11.1116 2.8194
5.4854 -11.1188 2.8190
5.6314 -11.1263 2.8187
5.7790 -11.1340 2.8183
5.9285 -11.1420 2.8180
6.3567 -11.1125 2.8030
6.0743 -11.1401 2.8151
6.5009 -11.1005 2.7973
6.2153 -11.1271 2.8092
6.6456 -11.0871 2.7912
6.9390 -11.0599 2.7786
6.7916 -11.0735 2.7849
7.0881 -11.0465 2.7722
7.5446 -11.0057 2.7526
7.7000 -10.9918 2.7458
7.2381 -11.0321 2.7656
7.8578 -10.9787 2.7391
7.3904 -11.0189 2.7591
8.0172 -10.9654 2.7322
8.1787 -10.9520 2.7253
8.8103 -10.8547 2.6858
8.3421 -10.9386 2.7183
9.0008 -10.8639 2.6839
9.1611 -10.8335 2.6722
8.5078 -10.9252 2.7111
9.3232 -10.8029 2.6603
8.6756 -10.9117 2.7039
9.4873 -10.7722 2.6483
9.6533 -10.7413 2.6361
10.1642 -10.6472 2.5986
9.8215 -10.7101 2.6238
10.3389 -10.6154 2.5858
9.9917 -10.6788 2.6113
10.8780 -10.5184 2.5462
10.5161 -10.5833 2.5728
11.0629 -10.4855 2.5326
10.6958 -10.5510 2.5596
11.2506 -10.4524 2.5187
11.6347 -10.3850 2.4905
11.4412 -10.4189 2.5047
11.8314 -10.3509 2.4760
12.4413 -10.2461 2.4310
12.6517 -10.2104 2.4155
12.0313 -10.3163 2.4613
12.8658 -10.1742 2.3997
12.2345 -10.2814 2.4463
13.0839 -10.1376 2.3836
14.2390 -9.9468 2.2982
13.3060 -10.1005 2.3672
14.4843 -9.9069 2.2801
13.5325 -10.0629 2.3505
14.7347 -9.8664 2.2616
13.7633 -10.0247 2.3334
14.9906 -9.8253 2.2426
15.2523 -9.7834 2.2233
13.9987 -9.9860 2.3160
15.5198 -9.7408 2.2035
15.7935 -9.6975 2.1832
16.3608 -9.6084 2.1411
16.0738 -9.6534 2.1624
16.6549 -9.5626 2.1193
7.7202 -4.1358 0.9003
7.5478 -3.9488 0.8540
16.9564 -9.5158 2.0970
7.4335 -3.7968 0.8155
8.0163 -4.3960 0.9629
7.3237 -3.6509 0.7785
7.2182 -3.5107 0.7429
7.1323 -3.3832 0.7101
7.0692 -3.2691 0.6804
7.0077 -3.1580 0.6514
6.9478 -3.0499 0.6231
-0.9429 -4.0688 1.2538
-0.8973 -4.0657 1.2527
-0.8520 -4.0626 1.2517
-0.8070 -4.0595 1.2506
-0.7622 -4.0564 1.2496
-0.7176 -4.0533 1.2485
-0.6733 -4.0502 1.2475
-0.6291 -4.0471 1.2464
-0.5852 -4.0440 1.2454
-0.5414 -4.0409 1.2444
-0.4978 -4.0378 1.2434
-0.4544 -4.0347 1.2423
-0.4112 -4.0316 1.2413
-0.3681 -4.0284 1.2403
-0.3251 -4.0253 1.2393
-0.2823 -4.0221 1.2383
-0.2395 -4.0190 1.2373
-0.1970 -4.0158 1.2363
-0.1545 -4.0127 1.2353
-0.1121 -4.0095 1.2343
-0.0698 -4.0063 1.2333
-0.0276 -4.0031 1.2323
0.0146 -3.9999 1.2313
0.0567 -3.9967 1.2304
0.0987 -3.9935 1.2294
0.1407 -3.9902 1.2284
0.1826 -3.9870 1.2274
0.2245 -3.9837 1.2264
0.2664 -3.9804 1.2255
0.3082 -3.9771 1.2245
0.3501 -3.9738 1.2235
0.3919 -3.9705 1.2225
0.4338 -3.9672 1.2215
0.4757 -3.9638 1.2206
0.5176 -3.9604 1.2196
0.5595 -3.9570 1.2186
0.6015 -3.9536 1.2176
0.6435 -3.9501 1.2166
0.6856 -3.9467 1.2156
0.7277 -3.9432 1.2147
0.7700 -3.9397 1.2137
0.8123 -3.9361 1.2127
1.9944 -9.1772 2.8276
2.0951 -9.1755 2.8274
2.1962 -9.1739 2.8271
2.2977 -9.1722 2.8269
2.3996 -9.1704 2.8267
2.5021 -9.1686 2.8264
2.6050 -9.1668 2.8262
2.7084 -9.1649 2.8259
2.8123 -9.1630 2.8257
2.9169 -9.1610 2.8254
3.0220 -9.1589 2.8252
3.1277 -9.1568 2.8249
3.2340 -9.1547 2.8247
3.3410 -9.1524 2.8244
3.4488 -9.1502 2.8241
3.5572 -9.1479 2.8239
3.6664 -9.1455 2.8236
3.7763 -9.1430 2.8234
3.8871 -9.1405 2.8231
3.9987 -9.1380 2.8228
4.1111 -9.1354 2.8226
4.2245 -9.1327 2.8223
4.3388 -9.1299 2.8220
4.4540 -9.1271 2.8217
4.5703 -9.1243 2.8215
4.6875 -9.1213 2.8212
4.8059 -9.1183 2.8209
4.9254 -9.1152 2.8206
5.0460 -9.1121 2.8203
5.1678 -9.1088 2.8200
5.2908 -9.1055 2.8197
5.4151 -9.1021 2.8194
5.5408 -9.0986 2.8191
5.6678 -9.0951 2.8188
5.7962 -9.0914 2.8185
5.9260 -9.0878 2.8182
6.0574 -9.0839 2.8179
6.1861 -9.0738 2.8157
6.3093 -9.0537 2.8103
6.4335 -9.0332 2.8049
6.5586 -9.0121 2.7993
6.6861 -8.9926 2.7943
6.8139 -8.9716 2.7887
6.9432 -8.9505 2.7832
7.0737 -8.9291 2.7777
7.2057 -8.9077 2.7721
7.3387 -8.8854 2.7663
7.4735 -8.8635 2.7606
7.6099 -8.8412 2.7549
7.7478 -8.8186 2.7491
7.8871 -8.7954 2.7431
8.0282 -8.7722 2.7371
8.1709 -8.7484 2.7310
8.3153 -8.7242 2.7249
8.4615 -8.6997 2.7186
8.6096 -8.6748 2.7122
8.7597 -8.6496 2.7058
8.9117 -8.6238 2.6993
9.0637 -8.5958 2.6921
9.2177 -8.5671 2.6847
9.3738 -8.5380 2.6772
9.5322 -8.5084 2.6696
9.6928 -8.4784 2.6619
9.8554 -8.4482 2.6541
10.0168 -8.4131 2.6450
10.1803 -8.3779 2.6358
10.3462 -8.3421 2.6265
10.5146 -8.3058 2.6171
10.6856 -8.2688 2.6075
10.8594 -8.2312 2.5977
11.0354 -8.1925 2.5877
11.2105 -8.1504 2.5766
11.3884 -8.1076 2.5654
11.5691 -8.0640 2.5539
11.7529 -8.0196 2.5423
11.9398 -7.9744 2.5305
12.1300 -7.9284 2.5185
12.3235 -7.8815 2.5063
12.5204 -7.8337 2.4938
12.7180 -7.7831 2.4806
12.9178 -7.7307 2.4668
13.0748 -7.6501 2.4441
13.3287 -7.6229 2.4385
13.5400 -7.5673 2.4239
7.9592 -4.3457 1.3939
7.6659 -4.0880 1.3132
7.5246 -3.9179 1.2604
7.4105 -3.7662 1.2135
7.3010 -3.6206 1.1685
7.1957 -3.4807 1.1253
7.1179 -3.3572 1.0873
7.0548 -3.2431 1.0523
6.9934 -3.1322 1.0182
6.9335 -3.0241 0.9851
6.8753 -2.9188 0.9528
-0.8282 -3.5235 1.2725
-0.7885 -3.5223 1.2716
-0.7490 -3.5211 1.2707
-0.7097 -3.5200 1.2698
-0.6706 -3.5188 1.2690
-0.6316 -3.5177 1.2681
-0.5928 -3.5165 1.2673
-0.5542 -3.5154 1.2666
-0.5157 -3.5142 1.2658
-0.4773 -3.5131 1.2651
-0.4391 -3.5120 1.2644
-0.4010 -3.5108 1.2637
-0.3630 -3.5097 1.2631
-0.3251 -3.5086 1.2625
-0.2872 -3.5075 1.2619
-0.2495 -3.5063 1.2613
-0.2119 -3.5052 1.2608
-0.1743 -3.5041 1.2602
-0.1367 -3.5030 1.2597
-0.0993 -3.5019 1.2593
-0.0618 -3.5008 1.2588
-0.0244 -3.4997 1.2584
0.0129 -3.4986 1.2580
0.0503 -3.4975 1.2576
0.0876 -3.4964 1.2573
0.1249 -3.4953 1.2569
0.1623 -3.4942 1.2566
0.1996 -3.4931 1.2564
0.2370 -3.4920 1.2561
0.2744 -3.4909 1.2559
0.3118 -3.4898 1.2556
0.3492 -3.4887 1.2554
0.3867 -3.4875 1.2553
0.4243 -3.4864 1.2551
0.4619 -3.4853 1.2550
0.4996 -3.4842 1.2549
0.5374 -3.4831 1.2548
0.5753 -3.4820 1.2548
0.6133 -3.4809 1.2548
0.6513 -3.4797 1.2547
0.6895 -3.4786 1.2548
0.7279 -3.4775 1.2548
0.7663 -3.4764 1.2549
0.8049 -3.4752 1.2550
1.9009 -7.8280 2.8280
1.9882 -7.8239 2.8278
2.0757 -7.8198 2.8276
2.1636 -7.8154 2.8274
2.2519 -7.8109 2.8272
2.3404 -7.8062 2.8270
2.4294 -7.8014 2.8267
2.5187 -7.7964 2.8265
2.6084 -7.7912 2.8263
2.6986 -7.7858 2.8261
2.7891 -7.7803 2.8259
2.8802 -7.7745 2.8257
2.9716 -7.7686 2.8254
3.0636 -7.7625 2.8252
3.1561 -7.7562 2.8250
3.2491 -7.7497 2.8248
3.3426 -7.7431 2.8246
3.4367 -7.7362 2.8243
3.5313 -7.7291 2.8241
3.6266 -7.7218 2.8239
3.7225 -7.7143 2.8237
3.8190 -7.7067 2.8234
3.9162 -7.6988 2.8232
4.0141 -7.6906 2.8230
4.1126 -7.6823 2.8227
4.2119 -7.6737 2.8225
4.3120 -7.6649 2.8223
4.4128 -7.6559 2.8220
4.5145 -7.6467 2.8218
4.6169 -7.6371 2.8215
4.7203 -7.6274 2.8213
4.8245 -7.6174 2.8210
4.9296 -7.6071 2.8208
5.0356 -7.5966 2.8205
5.1426 -7.5858 2.8203
5.2507 -7.5748 2.8200
5.3597 -7.5634 2.8198
5.4699 -7.5518 2.8195
5.5811 -7.5399 2.8192
5.6934 -7.5277 2.8190
5.8069 -7.5152 2.8187
5.9216 -7.5023 2.8184
6.0376 -7.4892 2.8181
6.1548 -7.4757 2.8179
6.2700 -7.4579 2.8161
6.3798 -7.4320 2.8113
6.4904 -7.4057 2.8066
6.6018 -7.3787 2.8016
6.7147 -7.3518 2.7969
6.8284 -7.3242 2.7920
6.9431 -7.2962 2.7870
7.0592 -7.2680 2.7821
7.1763 -7.2392 2.7771
7.2948 -7.2101 2.7722
7.4143 -7.1803 2.7671
7.5352 -7.1502 2.7620
7.6575 -7.1196 2.7569
7.7810 -7.0885 2.7517
7.9059 -7.0568 2.7465
8.0323 -7.0245 2.7412
8.1600 -6.9916 2.7358
8.2891 -6.9580 2.7303
8.4200 -6.9239 2.7248
8.5524 -6.8892 2.7192
8.6865 -6.8539 2.7136
8.8222 -6.8178 2.7079
8.9590 -6.7805 2.7018
9.0971 -6.7421 2.6956
8.7902 -6.3787 2.5591
8.9243 -6.3402 2.5528
9.0678 -6.3062 2.5485
9.1977 -6.2607 2.5397
9.3378 -6.2201 2.5332
9.4799 -6.1787 2.5266
9.6240 -6.1365 2.5198
9.7704 -6.0935 2.5130
9.9190 -6.0495 2.5061
10.0699 -6.0047 2.4990
10.2232 -5.9589 2.4919
10.3791 -5.9121 2.4846
10.5373 -5.8643 2.4772
7.9018 -4.2953 1.8241
7.6199 -4.0446 1.7271
7.5011 -3.8867 1.6692
7.3872 -3.7353 1.6138
7.2779 -3.5900 1.5606
7.1729 -3.4504 1.5095
7.1034 -3.3309 1.4670
7.0403 -3.2169 1.4266
6.9789 -3.1060 1.3874
6.9191 -2.9980 1.3493
6.8609 -2.8928 1.3122
6.8041 -2.7903 1.2761
-0.8407 -3.5249 1.4664
-0.8003 -3.5237 1.4650
-0.7602 -3.5225 1.4636
-0.7203 -3.5213 1.4622
-0.6806 -3.5201 1.4609
-0.6410 -3.5189 1.4597
-0.6016 -3.5178 1.4585
-0.5624 -3.5166 1.4573
-0.5233 -3.5155 1.4562
-0.4844 -3.5143 1.4551
-0.4456 -3.5132 1.4541
-0.4069 -3.5120 1.4532
-0.3683 -3.5109 1.4523
-0.3298 -3.5097 1.4514
-0.2915 -3.5086 1.4506
-0.2532 -3.5075 1.4498
-0.2150 -3.5063 1.4490
-0.1768 -3.5052 1.4484
-0.1387 -3.5041 1.4477
-0.1007 -3.5030 1.4471
-0.0627 -3.5018 1.4465
-0.0248 -3.5007 1.4460
0.0131 -3.4996 1.4456
0.0510 -3.4985 1.4451
0.0889 -3.4973 1.4448
0.1268 -3.4962 1.4444
0.1646 -3.4951 1.4441
0.2025 -3.4940 1.4439
0.2404 -3.4929 1.4437
0.2783 -3.4918 1.4435
0.3163 -3.4906 1.4434
0.3543 -3.4895 1.4433
0.3924 -3.4884 1.4433
0.4305 -3.4873 1.4433
0.4687 -3.4861 1.4433
0.5069 -3.4850 1.4434
0.5453 -3.4839 1.4435
0.5837 -3.4828 1.4437
0.6223 -3.4816 1.4439
0.6609 -3.4805 1.4442
0.6997 -3.4793 1.4445
0.7386 -3.4782 1.4449
0.7776 -3.4770 1.4453
0.8168 -3.4759 1.4457
1.6745 -6.7962 2.8287
1.7510 -6.7909 2.8285
1.8277 -6.7854 2.8283
1.9046 -6.7797 2.8281
1.9818 -6.7738 2.8279
2.0592 -6.7676 2.8277
2.1368 -6.7612 2.8276
2.2148 -6.7546 2.8274
2.2930 -6.7477 2.8272
2.3715 -6.7406 2.8270
2.4502 -6.7333 2.8268
2.5293 -6.7257 2.8266
2.6088 -6.7179 2.8264
2.6885 -6.7097 2.8262
2.7686 -6.7014 2.8261
2.8491 -6.6928 2.8259
2.9300 -6.6839 2.8257
3.0112 -6.6748 2.8255
3.0928 -6.6654 2.8253
3.1748 -6.6558 2.8251
3.2573 -6.6458 2.8249
3.3402 -6.6356 2.8247
3.4236 -6.6251 2.8245
3.5074 -6.6143 2.8243
3.5917 -6.6033 2.8241
3.6765 -6.5919 2.8239
3.7618 -6.5802 2.8237
3.8477 -6.5683 2.8235
3.9340 -6.5560 2.8233
4.0210 -6.5434 2.8231
4.1085 -6.5305 2.8229
4.1966 -6.5173 2.8227
4.2854 -6.5037 2.8225
4.3747 -6.4899 2.8222
4.4647 -6.4756 2.8220
4.5554 -6.4611 2.8218
4.6468 -6.4461 2.8216
4.7389 -6.4308 2.8214
4.8317 -6.4152 2.8212
4.9252 -6.3991 2.8209
5.0195 -6.3827 2.8207
5.1146 -6.3659 2.8205
5.2105 -6.3488 2.8203
5.3073 -6.3311 2.8200
5.4049 -6.3131 2.8198
5.5034 -6.2947 2.8196
5.6028 -6.2758 2.8193
5.7031 -6.2566 2.8191
5.8045 -6.2368 2.8188
5.9068 -6.2166 2.8186
6.0101 -6.1959 2.8184
6.1144 -6.1748 2.8181
6.2199 -6.1531 2.8179
6.3250 -6.1296 2.8170
6.4237 -6.0984 2.8128
6.5231 -6.0666 2.8085
6.6264 -6.0371 2.8056
6.7315 -6.0078 2.8029
6.8371 -5.9774 2.7999
6.9434 -5.9461 2.7969
7.0507 -5.9142 2.7938
6.8165 -5.6003 2.6571
6.9211 -5.5691 2.6542
7.0265 -5.5370 2.6512
7.1332 -5.5044 2.6481
7.2381 -5.4689 2.6440
7.3460 -5.4342 2.6405
7.4551 -5.3988 2.6370
7.5654 -5.3628 2.6335
7.6770 -5.3260 2.6299
7.7847 -5.2850 2.6245
7.8947 -5.2441 2.6195
8.0090 -5.2043 2.6153
8.1244 -5.1637 2.6111
8.2326 -5.1169 2.6041
8.3451 -5.0712 2.5981
8.4633 -5.0274 2.5933
8.5750 -4.9781 2.5861
8.6853 -4.9264 2.5779
8.1565 -4.5191 2.3827
7.8425 -4.2432 2.2548
7.5953 -4.0119 2.1491
7.4767 -3.8543 2.0820
7.3631 -3.7033 2.0178
7.2541 -3.5583 1.9563
7.1532 -3.4210 1.8983
7.0883 -3.3037 1.8510
7.0252 -3.1898 1.8050
6.9639 -3.0789 1.7605
6.9042 -2.9710 1.7172
6.8460 -2.8660 1.6751
6.7893 -2.7636 1.6342
6.7521 -2.6709 1.5986
-0.8536 -3.5263 1.6682
-0.8126 -3.5251 1.6662
-0.7719 -3.5239 1.6643
-0.7313 -3.5227 1.6624
-0.6910 -3.5215 1.6606
-0.6508 -3.5203 1.6589
-0.6108 -3.5191 1.6573
-0.5709 -3.5179 1.6557
-0.5312 -3.5168 1.6542
-0.4917 -3.5156 1.6528
-0.4523 -3.5144 1.6515
-0.4130 -3.5132 1.6502
-0.3738 -3.5121 1.6490
-0.3348 -3.5109 1.6479
-0.2958 -3.5098 1.6468
-0.2570 -3.5086 1.6458
-0.2182 -3.5075 1.6448
-0.1795 -3.5063 1.6440
-0.1408 -3.5052 1.6432
-0.1022 -3.5040 1.6424
-0.0637 -3.5029 1.6418
-0.0252 -3.5018 1.6411
0.0133 -3.5006 1.6406
0.0518 -3.4995 1.6401
0.0902 -3.4983 1.6397
0.1286 -3.4972 1.6394
0.1671 -3.4961 1.6391
0.2055 -3.4949 1.6389
0.2440 -3.4938 1.6387
0.2825 -3.4927 1.6386
0.3210 -3.4915 1.6386
0.3596 -3.4904 1.6386
0.3983 -3.4893 1.6387
0.4369 -3.4881 1.6389
0.4757 -3.4870 1.6391
0.5146 -3.4858 1.6394
0.5535 -3.4847 1.6398
0.5925 -3.4835 1.6402
0.6316 -3.4824 1.6407
0.6709 -3.4812 1.6413
0.7103 -3.4801 1.6419
0.7498 -3.4789 1.6426
0.7894 -3.4778 1.6434
0.8292 -3.4766 1.6442
1.4948 -5.9768 2.8292
1.5628 -5.9709 2.8290
1.6309 -5.9647 2.8289
1.6992 -5.9583 2.8287
1.7677 -5.9516 2.8285
1.8365 -5.9452 2.8286
1.9055 -5.9385 2.8287
1.9747 -5.9316 2.8288
2.0441 -5.9244 2.8289
2.1138 -5.9170 2.8290
2.1837 -5.9094 2.8292
2.2538 -5.9014 2.8293
2.3242 -5.8933 2.8295
2.3949 -5.8848 2.8296
2.4658 -5.8762 2.8298
2.5371 -5.8672 2.8300
2.6086 -5.8579 2.8302
2.6804 -5.8484 2.8304
2.7525 -5.8387 2.8306
2.8249 -5.8286 2.8309
2.8977 -5.8182 2.8311
2.9708 -5.8076 2.8314
3.0442 -5.7965 2.8316
3.1180 -5.7852 2.8318
3.1921 -5.7735 2.8320
3.2666 -5.7615 2.8322
3.3414 -5.7492 2.8324
3.4167 -5.7366 2.8327
3.4924 -5.7236 2.8329
3.5685 -5.7104 2.8332
3.6451 -5.6968 2.8335
3.7221 -5.6828 2.8337
3.7996 -5.6686 2.8340
3.8775 -5.6540 2.8343
3.9559 -5.6390 2.8346
4.0349 -5.6237 2.8350
4.1143 -5.6079 2.8352
4.1941 -5.5917 2.8355
4.2745 -5.5750 2.8357
4.3554 -5.5580 2.8360
4.4369 -5.5406 2.8363
4.5189 -5.5228 2.8365
4.6016 -5.5046 2.8368
4.6849 -5.4860 2.8371
4.7688 -5.4669 2.8374
4.8533 -5.4475 2.8377
4.9385 -5.4276 2.8381
5.0244 -5.4072 2.8384
5.1110 -5.3864 2.8388
5.1982 -5.3650 2.8391
5.2860 -5.3431 2.8393
5.3747 -5.3207 2.8396
5.4640 -5.2978 2.8399
5.5542 -5.2744 2.8402
5.6451 -5.2504 2.8405
5.7352 -5.2244 2.8400
5.8257 -5.1976 2.8393
5.9171 -5.1703 2.8386
6.0089 -5.1420 2.8378
6.1014 -5.1131 2.8369
5.9566 -4.8882 2.7270
5.9671 -4.7950 2.6900
6.0581 -4.7665 2.6895
6.1499 -4.7374 2.6890
6.2424 -4.7075 2.6884
6.3357 -4.6769 2.6877
6.4301 -4.6457 2.6871
6.5253 -4.6139 2.6864
6.6213 -4.5812 2.6856
6.7179 -4.5475 2.6847
6.8155 -4.5131 2.6838
6.9142 -4.4780 2.6828
7.0109 -4.4403 2.6807
7.1084 -4.4017 2.6785
7.2073 -4.3626 2.6764
7.3089 -4.3237 2.6750
7.4117 -4.2839 2.6734
7.5149 -4.2430 2.6717
7.6152 -4.1990 2.6685
7.7151 -4.1533 2.6647
7.5691 -3.9770 2.5768
7.4508 -3.8198 2.5003
7.3375 -3.6692 2.4271
7.2288 -3.5247 2.3570
7.1372 -3.3920 2.2939
7.0724 -3.2749 2.2407
7.0093 -3.1610 2.1890
6.9481 -3.0503 2.1389
6.8884 -2.9426 2.0903
6.8303 -2.8376 2.0431
6.7776 -2.7370 1.9984
6.7421 -2.6450 1.9595
6.7073 -2.5548 1.9214
-0.8672 -3.5279 1.8793
-0.8255 -3.5266 1.8767
-0.7841 -3.5254 1.8742
-0.7429 -3.5242 1.8718
-0.7018 -3.5229 1.8695
-0.6610 -3.5217 1.8673
-0.6203 -3.5205 1.8652
-0.5799 -3.5193 1.8632
-0.5395 -3.5181 1.8613
-0.4994 -3.5169 1.8595
-0.4593 -3.5157 1.8578
-0.4194 -3.5145 1.8562
-0.3796 -3.5134 1.8547
-0.3400 -3.5122 1.8533
-0.3004 -3.5110 1.8519
-0.2609 -3.5098 1.8507
-0.2215 -3.5087 1.8495
-0.1822 -3.5075 1.8485
-0.1430 -3.5063 1.8475
-0.1038 -3.5052 1.8466
-0.0646 -3.5040 1.8458
-0.0255 -3.5029 1.8451
0.0135 -3.5017 1.8445
0.0526 -3.5006 1.8439
0.0916 -3.4994 1.8435
0.1306 -3.4982 1.8431
0.1697 -3.4971 1.8429
0.2087 -3.4959 1.8427
0.2478 -3.4948 1.8426
0.2869 -3.4936 1.8426
0.3260 -3.4925 1.8426
0.3652 -3.4913 1.8428
0.4044 -3.4902 1.8431
0.4437 -3.4890 1.8434
0.4831 -3.4879 1.8438
0.5225 -3.4867 1.8444
0.5621 -3.4855 1.8450
0.6017 -3.4844 1.8457
0.6414 -3.4832 1.8465
0.6813 -3.4820 1.8473
0.7213 -3.4809 1.8483
0.7615 -3.4797 1.8494
0.8017 -3.4785 1.8505
1.2943 -5.3439 2.8458
1.3557 -5.3382 2.8458
1.4172 -5.3322 2.8458
1.4789 -5.3259 2.8458
1.5406 -5.3194 2.8458
1.6025 -5.3126 2.8458
1.6646 -5.3055 2.8458
1.7268 -5.2981 2.8458
1.7891 -5.2905 2.8458
1.8515 -5.2826 2.8458
1.9142 -5.2743 2.8458
1.9769 -5.2659 2.8458
2.0399 -5.2571 2.8458
2.1030 -5.2480 2.8459
2.1663 -5.2387 2.8459
2.2298 -5.2290 2.8459
2.2935 -5.2190 2.8459
2.3574 -5.2088 2.8460
2.4215 -5.1982 2.8460
2.4858 -5.1874 2.8460
2.5503 -5.1762 2.8461
2.6150 -5.1647 2.8461
2.6800 -5.1529 2.8462
2.7452 -5.1408 2.8462
2.8107 -5.1283 2.8463
2.8764 -5.1156 2.8463
2.9423 -5.1025 2.8464
3.0085 -5.0889 2.8464
3.0749 -5.0751 2.8464
3.1417 -5.0609 2.8464
3.2087 -5.0463 2.8464
3.2760 -5.0314 2.8465
3.3436 -5.0161 2.8465
3.4115 -5.0005 2.8465
3.4797 -4.9845 2.8465
3.5482 -4.9681 2.8465
3.6171 -4.9513 2.8466
3.6863 -4.9342 2.8466
3.7559 -4.9167 2.8466
3.8258 -4.8988 2.8467
3.8961 -4.8804 2.8467
3.9667 -4.8617 2.8467
4.0377 -4.8426 2.8468
4.1092 -4.8230 2.8468
4.1810 -4.8030 2.8468
4.2532 -4.7826 2.8469
4.3259 -4.7617 2.8469
4.3989 -4.7404 2.8469
4.4725 -4.7187 2.8470
4.5464 -4.6964 2.8470
4.6208 -4.6737 2.8470
4.6957 -4.6505 2.8470
4.7710 -4.6268 2.8470
4.8468 -4.6025 2.8470
4.9231 -4.5778 2.8470
4.9999 -4.5526 2.8470
5.0773 -4.5269 2.8470
5.1551 -4.5006 2.8470
5.2336 -4.4738 2.8470
5.3126 -4.4464 2.8470
5.3922 -4.4185 2.8470
5.4723 -4.3900 2.8470
5.4737 -4.2986 2.8063
5.3967 -4.1484 2.7269
5.4105 -4.0707 2.6946
5.4887 -4.0415 2.6946
5.5676 -4.0117 2.6946
5.6471 -3.9812 2.6946
5.7272 -3.9502 2.6946
5.8081 -3.9185 2.6946
5.8896 -3.8862 2.6946
5.9718 -3.8532 2.6946
6.0548 -3.8195 2.6946
6.1385 -3.7852 2.6946
6.2229 -3.7501 2.6946
6.3081 -3.7144 2.6946
6.3941 -3.6779 2.6946
6.4810 -3.6407 2.6946
6.5686 -3.6026 2.6946
6.6571 -3.5639 2.6946
6.7464 -3.5242 2.6946
6.8365 -3.4838 2.6945
6.9276 -3.4424 2.6945
7.0192 -3.4001 2.6943
7.1114 -3.3568 2.6940
7.0551 -3.2438 2.6377
6.9922 -3.1301 2.5802
6.9310 -3.0195 2.5243
6.8715 -2.9120 2.4702
6.8135 -2.8072 2.4177
6.7669 -2.7092 2.3701
6.7314 -2.6172 2.3272
6.6966 -2.5271 2.2854
6.6625 -2.4386 2.2444
-0.8815 -3.5295 2.1014
-0.8391 -3.5282 2.0982
-0.7969 -3.5269 2.0951
-0.7550 -3.5257 2.0921
-0.7133 -3.5244 2.0892
-0.6717 -3.5232 2.0865
-0.6304 -3.5220 2.0839
-0.5892 -3.5207 2.0815
-0.5482 -3.5195 2.0791
-0.5074 -3.5183 2.0769
-0.4667 -3.5171 2.0748
-0.4262 -3.5159 2.0728
-0.3857 -3.5147 2.0709
-0.3454 -3.5135 2.0692
-0.3052 -3.5123 2.0676
-0.2651 -3.5111 2.0661
-0.2251 -3.5099 2.0647
-0.1851 -3.5087 2.0634
-0.1453 -3.5076 2.0622
-0.1054 -3.5064 2.0612
-0.0657 -3.5052 2.0603
-0.0260 -3.5040 2.0594
0.0137 -3.5028 2.0587
0.0534 -3.5017 2.0581
0.0931 -3.5005 2.0576
0.1327 -3.4993 2.0573
0.1724 -3.4982 2.0570
0.2120 -3.4970 2.0569
0.2517 -3.4958 2.0568
0.2914 -3.4946 2.0569
0.3312 -3.4935 2.0571
0.3710 -3.4923 2.0574
0.4108 -3.4911 2.0578
0.4508 -3.4900 2.0584
0.4908 -3.4888 2.0590
0.5309 -3.4876 2.0598
0.5711 -3.4864 2.0607
0.6113 -3.4852 2.0616
0.6517 -3.4841 2.0628
0.6923 -3.4829 2.0640
0.7329 -3.4817 2.0653
0.7737 -3.4805 2.0668
0.8147 -3.4793 2.0684
0.9536 -3.8753 2.3065
1.2328 -4.7777 2.8470
1.2886 -4.7715 2.8470
1.3445 -4.7651 2.8470
1.4004 -4.7584 2.8470
1.4565 -4.7514 2.8470
1.5126 -4.7441 2.8470
1.5689 -4.7365 2.8470
1.6252 -4.7287 2.8470
1.6817 -4.7205 2.8470
1.7383 -4.7121 2.8470
1.7949 -4.7034 2.8470
1.8517 -4.6943 2.8470
1.9087 -4.6850 2.8470
1.9657 -4.6754 2.8470
2.0229 -4.6655 2.8470
2.0802 -4.6552 2.8470
2.1377 -4.6447 2.8470
2.1952 -4.6338 2.8470
2.2530 -4.6227 2.8470
2.3109 -4.6112 2.8470
2.3689 -4.5994 2.8470
2.4271 -4.5872 2.8470
2.4855 -4.5748 2.8470
2.5441 -4.5620 2.8470
2.6028 -4.5489 2.8470
2.6617 -4.5354 2.8470
2.7208 -4.5217 2.8470
2.7800 -4.5075 2.8470
2.8395 -4.4931 2.8470
2.8991 -4.4783 2.8470
2.9590 -4.4631 2.8470
3.0191 -4.4476 2.8470
3.0793 -4.4317 2.8470
3.1398 -4.4154 2.8470
3.2005 -4.3988 2.8470
3.2615 -4.3818 2.8470
3.3227 -4.3644 2.8470
3.3841 -4.3467 2.8470
3.4457 -4.3285 2.8470
3.5076 -4.3100 2.8470
3.5698 -4.2911 2.8470
3.6322 -4.2717 2.8470
3.6949 -4.2520 2.8470
3.7579 -4.2318 2.8470
3.8211 -4.2113 2.8470
3.8846 -4.1903 2.8470
3.9484 -4.1688 2.8470
4.0125 -4.1470 2.8470
4.0770 -4.1247 2.8470
4.1417 -4.1019 2.8470
4.2067 -4.0787 2.8470
4.2721 -4.0550 2.8470
4.3378 -4.0309 2.8470
4.4038 -4.0063 2.8470
4.4701 -3.9812 2.8470
4.5369 -3.9556 2.8470
4.6039 -3.9295 2.8470
4.6714 -3.9029 2.8470
4.7392 -3.8758 2.8470
4.8074 -3.8482 2.8470
4.8760 -3.8200 2.8470
4.9450 -3.7913 2.8470
5.0144 -3.7621 2.8470
5.0842 -3.7323 2.8470
5.1285 -3.6833 2.8327
5.0968 -3.5809 2.7772
5.0660 -3.4813 2.7233
5.0803 -3.4142 2.6946
5.1485 -3.3832 2.6946
5.2171 -3.3516 2.6946
5.2861 -3.3194 2.6946
5.3556 -3.2866 2.6946
5.4256 -3.2532 2.6946
5.4960 -3.2192 2.6946
5.5670 -3.1845 2.6946
5.6384 -3.1492 2.6946
5.7104 -3.1132 2.6946
5.7829 -3.0766 2.6946
5.8559 -3.0392 2.6946
5.9294 -3.0011 2.6946
6.0035 -2.9623 2.6946
6.0782 -2.9228 2.6946
6.1534 -2.8826 2.6946
6.2293 -2.8415 2.6946
6.3057 -2.7997 2.6946
6.3828 -2.7571 2.6946
6.4605 -2.7137 2.6946
6.5388 -2.6694 2.6946
6.6178 -2.6243 2.6946
6.6974 -2.5784 2.6946
6.6850 -2.4969 2.6577
6.6509 -2.4085 2.6129
6.6174 -2.3218 2.5692
-0.8965 -3.5312 2.3365
-0.8534 -3.5299 2.3325
-0.8105 -3.5286 2.3287
-0.7678 -3.5273 2.3251
-0.7254 -3.5260 2.3217
-0.6831 -3.5248 2.3184
-0.6410 -3.5235 2.3152
-0.5992 -3.5223 2.3122
-0.5575 -3.5210 2.3094
-0.5159 -3.5198 2.3067
-0.4745 -3.5186 2.3042
-0.4333 -3.5173 2.3018
-0.3922 -3.5161 2.2996
-0.3512 -3.5149 2.2975
-0.3103 -3.5137 2.2955
-0.2695 -3.5124 2.2938
-0.2288 -3.5112 2.2921
-0.1882 -3.5100 2.2906
-0.1477 -3.5088 2.2892
-0.1072 -3.5076 2.2880
-0.0668 -3.5064 2.2869
-0.0264 -3.5052 2.2860
0.0140 -3.5041 2.2852
0.0543 -3.5029 2.2845
0.0946 -3.5017 2.2840
0.1349 -3.5005 2.2836
0.1752 -3.4993 2.2834
0.2155 -3.4981 2.2833
0.2559 -3.4969 2.2833
0.2962 -3.4957 2.2835
0.3367 -3.4945 2.2838
0.3771 -3.4933 2.2843
0.4177 -3.4921 2.2849
0.4583 -3.4910 2.2856
0.4989 -3.4898 2.2865
0.5397 -3.4886 2.2875
0.5806 -3.4874 2.2887
0.6215 -3.4862 2.2900
0.6626 -3.4850 2.2914
0.7039 -3.4837 2.2930
0.7452 -3.4825 2.2948
0.7867 -3.4813 2.2967
0.8284 -3.4801 2.2987
0.9335 -3.7316 2.4680
1.1277 -4.2987 2.8470
1.1786 -4.2925 2.8470
1.2296 -4.2861 2.8470
1.2806 -4.2793 2.8470
1.3317 -4.2723 2.8470
1.3829 -4.2650 2.8470
1.4341 -4.2574 2.8470
1.4854 -4.2495 2.8470
1.5368 -4.2414 2.8470
1.5882 -4.2329 2.8470
1.6398 -4.2242 2.8470
1.6914 -4.2151 2.8470
1.7431 -4.2058 2.8470
1.7949 -4.1961 2.8470
1.8468 -4.1862 2.8470
1.8988 -4.1760 2.8470
1.9509 -4.1654 2.8470
2.0031 -4.1545 2.8470
2.0553 -4.1434 2.8470
2.1077 -4.1319 2.8470
2.1602 -4.1201 2.8470
2.2128 -4.1080 2.8470
2.2656 -4.0956 2.8470
2.3184 -4.0829 2.8470
2.3714 -4.0698 2.8470
2.4245 -4.0564 2.8470
2.4777 -4.0426 2.8470
2.5310 -4.0286 2.8470
2.5845 -4.0142 2.8470
2.6381 -3.9995 2.8470
2.6919 -3.9844 2.8470
2.7458 -3.9690 2.8470
2.7998 -3.9532 2.8470
2.8540 -3.9370 2.8470
2.9084 -3.9206 2.8470
2.9629 -3.9037 2.8470
3.0175 -3.8865 2.8470
3.0724 -3.8689 2.8470
3.1274 -3.8510 2.8470
3.1825 -3.8326 2.8470
3.2379 -3.8140 2.8470
3.2934 -3.7948 2.8470
3.3491 -3.7754 2.8470
3.4049 -3.7555 2.8470
3.4610 -3.7352 2.8470
3.5173 -3.7145 2.8470
3.5737 -3.6934 2.8470
3.6304 -3.6720 2.8470
3.6872 -3.6501 2.8470
3.7443 -3.6277 2.8470
3.8015 -3.6049 2.8470
3.8590 -3.5817 2.8470
3.9167 -3.5581 2.8470
3.9746 -3.5340 2.8470
4.0328 -3.5095 2.8470
4.0912 -3.4845 2.8470
4.1498 -3.4590 2.8470
4.2087 -3.4331 2.8470
4.2678 -3.4067 2.8470
4.3271 -3.3798 2.8470
4.3867 -3.3524 2.8470
4.4466 -3.3245 2.8470
4.5067 -3.2961 2.8470
4.5671 -3.2672 2.8470
4.6278 -3.2378 2.8470
4.6887 -3.2079 2.8470
4.7499 -3.1774 2.8470
4.8114 -3.1464 2.8470
4.8732 -3.1148 2.8470
4.9043 -3.0633 2.8291
4.8942 -2.9867 2.7880
4.8842 -2.9116 2.7479
4.8751 -2.8382 2.7090
4.9092 -2.7905 2.6946
4.9694 -2.7573 2.6946
5.0300 -2.7235 2.6946
5.0909 -2.6892 2.6946
5.1521 -2.6542 2.6946
5.2136 -2.6186 2.6946
5.2755 -2.5824 2.6946
5.3377 -2.5456 2.6946
5.4002 -2.5081 2.6946
5.4631 -2.4699 2.6946
5.5264 -2.4311 2.6946
5.5900 -2.3917 2.6946
5.6540 -2.3515 2.6946
5.7184 -2.3106 2.6946
5.7831 -2.2690 2.6946
5.8483 -2.2267 2.6946
5.9138 -2.1836 2.6946
5.9797 -2.1398 2.6946
6.0461 -2.0952 2.6946
6.1129 -2.0499 2.6946
-0.9126 -3.5330 2.5867
-0.8687 -3.5317 2.5820
-0.8249 -3.5303 2.5774
-0.7815 -3.5290 2.5731
-0.7382 -3.5277 2.5690
-0.6952 -3.5265 2.5651
-0.6524 -3.5252 2.5613
-0.6097 -3.5239 2.5578
-0.5673 -3.5226 2.5544
-0.5250 -3.5214 2.5512
-0.4828 -3.5201 2.5482
-0.4409 -3.5189 2.5454
-0.3990 -3.5176 2.5428
-0.3573 -3.5164 2.5403
-0.3157 -3.5151 2.5380
-0.2742 -3.5139 2.5359
-0.2328 -3.5126 2.5340
-0.1915 -3.5114 2.5322
-0.1502 -3.5102 2.5306
-0.1090 -3.5090 2.5292
-0.0679 -3.5078 2.5280
-0.0268 -3.5065 2.5269
0.0142 -3.5053 2.5260
0.0552 -3.5041 2.5253
0.0962 -3.5029 2.5247
0.1372 -3.5017 2.5243
0.1782 -3.5005 2.5241
0.2193 -3.4993 2.5241
0.2603 -3.4981 2.5242
0.3014 -3.4969 2.5244
0.3425 -3.4956 2.5249
0.3837 -3.4944 2.5255
0.4249 -3.4932 2.5263
0.4662 -3.4920 2.5273
0.5076 -3.4908 2.5284
0.5491 -3.4896 2.5297
0.5907 -3.4884 2.5312
0.6324 -3.4871 2.5329
0.6742 -3.4859 2.5347
0.7162 -3.4847 2.5367
0.7583 -3.4835 2.5389
0.8006 -3.4822 2.5413
0.8430 -3.4810 2.5438
0.9901 -3.8903 2.8470
1.0368 -3.8845 2.8470
1.0835 -3.8784 2.8470
1.1302 -3.8720 2.8470
1.1770 -3.8653 2.8470
1.2239 -3.8584 2.8470
1.2708 -3.8511 2.8470
1.3177 -3.8436 2.8470
1.3647 -3.8358 2.8470
1.4117 -3.8277 2.8470
1.4588 -3.8194 2.8470
1.5059 -3.8107 2.8470
1.5531 -3.8018 2.8470
1.6004 -3.7926 2.8470
1.6477 -3.7831 2.8470
1.6951 -3.7732 2.8470
1.7425 -3.7631 2.8470
1.7900 -3.7527 2.8470
1.8376 -3.7420 2.8470
1.8853 -3.7310 2.8470
1.9330 -3.7197 2.8470
1.9808 -3.7081 2.8470
2.0287 -3.6961 2.8470
2.0766 -3.6839 2.8470
2.1246 -3.6714 2.8470
2.1728 -3.6585 2.8470
2.2209 -3.6453 2.8470
2.2692 -3.6318 2.8470
2.3176 -3.6180 2.8470
2.3661 -3.6039 2.8470
2.4146 -3.5894 2.8470
2.4632 -3.5746 2.8470
2.5120 -3.5594 2.8470
2.5608 -3.5440 2.8470
2.6098 -3.5282 2.8470
2.6588 -3.5120 2.8470
2.7080 -3.4955 2.8470
2.7572 -3.4787 2.8470
2.8066 -3.4615 2.8470
2.8560 -3.4440 2.8470
2.9056 -3.4260 2.8470
2.9553 -3.4078 2.8470
3.0051 -3.3891 2.8470
3.0550 -3.3701 2.8470
3.1051 -3.3507 2.8470
3.1552 -3.3310 2.8470
3.2055 -3.3109 2.8470
3.2560 -3.2904 2.8470
3.3065 -3.2695 2.8470
3.3572 -3.2482 2.8470
3.4080 -3.2264 2.8470
3.4590 -3.2044 2.8470
3.5101 -3.1818 2.8470
3.5613 -3.1589 2.8470
3.6127 -3.1356 2.8470
3.6642 -3.1119 2.8470
3.7158 -3.0877 2.8470
3.7676 -3.0631 2.8470
3.8196 -3.0380 2.8470
3.8717 -3.0126 2.8470
3.9240 -2.9866 2.8470
3.9764 -2.9603 2.8470
4.0290 -2.9334 2.8470
4.0818 -2.9061 2.8470
4.1347 -2.8784 2.8470
4.1878 -2.8501 2.8470
4.2411 -2.8214 2.8470
4.2945 -2.7922 2.8470
4.3481 -2.7625 2.8470
4.4019 -2.7323 2.8470
4.4559 -2.7015 2.8470
4.5100 -2.6703 2.8470
4.5644 -2.6386 2.8470
4.6189 -2.6063 2.8470
4.6736 -2.5735 2.8470
4.7285 -2.5401 2.8470
4.7836 -2.5062 2.8470
4.7861 -2.4448 2.8160
4.7830 -2.3813 2.7822
4.7843 -2.3207 2.7516
4.7859 -2.2609 2.7218
4.7967 -2.2061 2.6977
4.8446 -2.1682 2.6946
4.8981 -2.1322 2.6946
4.9518 -2.0957 2.6946
5.0058 -2.0586 2.6946
5.0599 -2.0208 2.6946
5.1143 -1.9825 2.6946
5.1689 -1.9435 2.6946
5.2237 -1.9039 2.6946
5.2787 -1.8637 2.6946
5.3339 -1.8228 2.6946
5.3894 -1.7813 2.6946
5.4451 -1.7391 2.6946
-0.9273 -3.5253 2.8470
-0.8843 -3.5308 2.8470
-0.8413 -3.5361 2.8470
-0.7984 -3.5411 2.8470
-0.7555 -3.5459 2.8470
-0.7126 -3.5503 2.8470
-0.6697 -3.5545 2.8470
-0.6268 -3.5585 2.8470
-0.5840 -3.5622 2.8470
-0.5411 -3.5656 2.8470
-0.4983 -3.5688 2.8470
-0.4555 -3.5717 2.8470
-0.4127 -3.5743 2.8470
-0.3699 -3.5767 2.8470
-0.3272 -3.5788 2.8470
-0.2844 -3.5807 2.8470
-0.2416 -3.5823 2.8470
-0.1989 -3.5836 2.8470
-0.1562 -3.5847 2.8470
-0.1134 -3.5855 2.8470
-0.0707 -3.5861 2.8470
-0.0279 -3.5863 2.8470
0.0148 -3.5864 2.8470
0.0575 -3.5862 2.8470
0.1003 -3.5857 2.8470
0.1430 -3.5849 2.8470
0.1857 -3.5839 2.8470
0.2285 -3.5827 2.8470
0.2712 -3.5812 2.8470
0.3140 -3.5794 2.8470
0.3568 -3.5774 2.8470
0.3996 -3.5751 2.8470
0.4423 -3.5725 2.8470
0.4852 -3.5697 2.8470
0.5280 -3.5666 2.8470
0.5708 -3.5633 2.8470
0.6136 -3.5596 2.8470
0.6565 -3.5558 2.8470
0.6994 -3.5517 2.8470
0.7423 -3.5473 2.8470
0.7852 -3.5426 2.8470
0.8281 -3.5377 2.8470
0.8711 -3.5325 2.8470
0.9141 -3.5270 2.8470
0.9571 -3.5213 2.8470
1.0001 -3.5153 2.8470
1.0432 -3.5090 2.8470
1.0863 -3.5025 2.8470
1.1294 -3.4956 2.8470
1.1725 -3.4885 2.8470
1.2157 -3.4812 2.8470
1.2589 -3.4735 2.8470
1.3022 -3.4656 2.8470
1.3455 -3.4574 2.8470
1.3888 -3.4490 2.8470
1.4321 -3.4402 2.8470
1.4755 -3.4312 2.8470
1.5190 -3.4219 2.8470
1.5624 -3.4123 2.8470
1.6060 -3.4024 2.8470
1.6495 -3.3922 2.8470
1.6931 -3.3817 2.8470
1.7368 -3.3710 2.8470
1.7805 -3.3599 2.8470
1.8242 -3.3486 2.8470
1.8680 -3.3369 2.8470
1.9119 -3.3250 2.8470
1.9557 -3.3127 2.8470
1.9997 -3.3002 2.8470
2.0437 -3.2873 2.8470
2.0877 -3.2741 2.8470
2.1319 -3.2607 2.8470
2.1760 -3.2469 2.8470
2.2202 -3.2328 2.8470
2.2645 -3.2184 2.8470
2.3089 -3.2037 2.8470
2.3533 -3.1886 2.8470
2.3977 -3.1733 2.8470
2.4423 -3.1576 2.8470
2.4869 -3.1415 2.8470
2.5315 -3.1252 2.8470
2.5763 -3.1085 2.8470
2.6211 -3.0915 2.8470
2.6659 -3.0741 2.8470
2.7109 -3.0564 2.8470
2.7559 -3.0384 2.8470
2.8009 -3.0200 2.8470
2.8461 -3.0012 2.8470
2.8913 -2.9821 2.8470
2.9366 -2.9626 2.8470
2.9820 -2.9428 2.8470
3.0275 -2.9226 2.8470
3.0730 -2.9021 2.8470
3.1186 -2.8811 2.8470
3.1643 -2.8599 2.8470
3.2101 -2.8382 2.8470
3.2560 -2.8161 2.8470
3.3019 -2.7937 2.8470
3.3480 -2.7708 2.8470
3.3941 -2.7476 2.8470
3.4403 -2.7239 2.8470
3.4866 -2.6999 2.8470
3.5330 -2.6755 2.8470
3.6260 -2.6254 2.8470
3.5795 -2.6506 2.8470
3.6727 -2.5997 2.8470
3.8132 -2.5200 2.8470
3.7194 -2.5736 2.8470
3.8603 -2.4926 2.8470
3.9074 -2.4648 2.8470
3.7663 -2.5470 2.8470
3.9547 -2.4364 2.8470
4.0020 -2.4077 2.8470
4.1923 -2.2880 2.8470
4.0494 -2.3784 2.8470
4.2402 -2.2569 2.8470
4.0970 -2.3488 2.8470
4.2881 -2.2253 2.8470
4.1446 -2.3186 2.8470
4.3362 -2.1932 2.8470
4.3843 -2.1606 2.8470
4.5780 -2.0251 2.8470
4.6267 -1.9899 2.8470
4.4326 -2.1275 2.8470
4.6755 -1.9542 2.8470
4.4809 -2.0939 2.8470
4.7244 -1.9179 2.8470
4.5294 -2.0598 2.8470
4.7521 -1.8727 2.8343
4.7578 -1.8190 2.8088
4.7634 -1.7657 2.7837
4.7690 -1.7126 2.7590
4.7746 -1.6601 2.7348
4.7819 -1.6084 2.7119
4.7998 -1.5603 2.6953
4.8456 -1.5213 2.6946
4.8929 -1.4820 2.6946
-0.8588 -3.2028 2.8470
-0.8190 -3.2082 2.8470
-0.7793 -3.2133 2.8470
-0.7396 -3.2182 2.8470
-0.6998 -3.2228 2.8470
-0.6601 -3.2272 2.8470
-0.6204 -3.2313 2.8470
-0.5807 -3.2352 2.8470
-0.5411 -3.2387 2.8470
-0.5014 -3.2421 2.8470
-0.4617 -3.2452 2.8470
-0.4221 -3.2480 2.8470
-0.3825 -3.2506 2.8470
-0.3428 -3.2529 2.8470
-0.3032 -3.2550 2.8470
-0.2636 -3.2568 2.8470
-0.2239 -3.2583 2.8470
-0.1843 -3.2596 2.8470
-0.1447 -3.2607 2.8470
-0.1051 -3.2615 2.8470
-0.0655 -3.2621 2.8470
-0.0259 -3.2623 2.8470
0.0137 -3.2624 2.8470
0.0533 -3.2621 2.8470
0.0929 -3.2617 2.8470
0.1325 -3.2610 2.8470
0.1721 -3.2600 2.8470
0.2118 -3.2588 2.8470
0.2514 -3.2573 2.8470
0.2910 -3.2556 2.8470
0.3306 -3.2536 2.8470
0.3703 -3.2513 2.8470
0.4099 -3.2488 2.8470
0.4495 -3.2461 2.8470
0.4892 -3.2431 2.8470
0.5289 -3.2398 2.8470
0.5685 -3.2363 2.8470
0.6082 -3.2325 2.8470
0.6479 -3.2285 2.8470
0.6876 -3.2242 2.8470
0.7273 -3.2196 2.8470
0.7671 -3.2148 2.8470
0.8068 -3.2098 2.8470
0.8466 -3.2044 2.8470
0.8863 -3.1988 2.8470
0.9261 -3.1930 2.8470
0.9659 -3.1869 2.8470
1.0057 -3.1805 2.8470
1.0456 -3.1739 2.8470
1.0854 -3.1670 2.8470
1.1253 -3.1598 2.8470
1.1652 -3.1524 2.8470
1.2051 -3.1446 2.8470
1.2450 -3.1367 2.8470
1.2850 -3.1284 2.8470
1.3250 -3.1199 2.8470
1.3650 -3.1111 2.8470
1.4050 -3.1021 2.8470
1.4450 -3.0927 2.8470
1.4851 -3.0831 2.8470
1.5252 -3.0732 2.8470
1.5653 -3.0630 2.8470
1.6055 -3.0526 2.8470
1.6456 -3.0419 2.8470
1.6859 -3.0308 2.8470
1.7261 -3.0195 2.8470
1.7663 -3.0079 2.8470
1.8066 -2.9961 2.8470
1.8469 -2.9839 2.8470
1.8873 -2.9714 2.8470
1.9277 -2.9587 2.8470
1.9681 -2.9456 2.8470
2.0085 -2.9323 2.8470
2.0490 -2.9186 2.8470
2.0895 -2.9047 2.8470
2.1300 -2.8904 2.8470
2.1706 -2.8759 2.8470
2.2112 -2.8610 2.8470
2.2518 -2.8459 2.8470
2.2925 -2.8304 2.8470
2.3332 -2.8146 2.8470
2.3740 -2.7985 2.8470
2.4148 -2.7820 2.8470
2.4556 -2.7653 2.8470
2.4965 -2.7482 2.8470
2.5374 -2.7308 2.8470
2.5783 -2.7131 2.8470
2.6193 -2.6950 2.8470
2.6603 -2.6767 2.8470
2.7013 -2.6579 2.8470
2.7424 -2.6389 2.8470
2.7836 -2.6195 2.8470
2.8247 -2.5997 2.8470
2.8660 -2.5796 2.8470
2.9072 -2.5592 2.8470
2.9485 -2.5384 2.8470
2.9898 -2.5172 2.8470
3.0312 -2.4957 2.8470
3.0726 -2.4738 2.8470
3.1141 -2.4516 2.8470
3.1556 -2.4290 2.8470
3.1972 -2.4060 2.8470
3.3221 -2.3348 2.8470
3.2388 -2.3827 2.8470
3.2804 -2.3589 2.8470
3.3638 -2.3103 2.8470
3.4892 -2.2345 2.8470
3.4055 -2.2854 2.8470
3.5311 -2.2084 2.8470
3.4473 -2.2602 2.8470
3.5730 -2.1819 2.8470
3.6150 -2.1550 2.8470
3.6570 -2.1277 2.8470
3.6991 -2.1000 2.8470
3.8255 -2.0143 2.8470
3.7412 -2.0718 2.8470
3.8677 -1.9848 2.8470
3.9100 -1.9549 2.8470
3.7833 -2.0432 2.8470
3.9523 -1.9246 2.8470
3.9946 -1.8939 2.8470
4.1644 -1.7662 2.8470
4.0370 -1.8626 2.8470
4.2069 -1.7331 2.8470
4.2495 -1.6996 2.8470
4.0794 -1.8310 2.8470
4.2921 -1.6655 2.8470
4.1219 -1.7988 2.8470
4.3347 -1.6310 2.8470
4.3774 -1.5960 2.8470
4.4201 -1.5605 2.8470
4.4629 -1.5245 2.8470
4.5057 -1.4879 2.8470
4.5485 -1.4509 2.8470
4.5913 -1.4133 2.8470
4.6342 -1.3752 2.8470
4.6771 -1.3366 2.8470
-0.7973 -2.9133 2.8470
-0.7604 -2.9186 2.8470
-0.7236 -2.9236 2.8470
-0.6867 -2.9283 2.8470
-0.6499 -2.9328 2.8470
-0.6130 -2.9370 2.8470
-0.5762 -2.9410 2.8470
-0.5394 -2.9448 2.8470
-0.5025 -2.9483 2.8470
-0.4657 -2.9515 2.8470
-0.4289 -2.9545 2.8470
-0.3921 -2.9572 2.8470
-0.3553 -2.9597 2.8470
-0.3185 -2.9620 2.8470
-0.2817 -2.9640 2.8470
-0.2448 -2.9658 2.8470
-0.2080 -2.9673 2.8470
-0.1712 -2.9686 2.8470
-0.1344 -2.9696 2.8470
-0.0976 -2.9703 2.8470
-0.0609 -2.9709 2.8470
-0.0241 -2.9712 2.8470
0.0127 -2.9712 2.8470
0.0495 -2.9710 2.8470
0.0863 -2.9705 2.8470
0.1231 -2.9698 2.8470
0.1599 -2.9689 2.8470
0.1967 -2.9677 2.8470
0.2335 -2.9663 2.8470
0.2703 -2.9646 2.8470
0.3071 -2.9626 2.8470
0.3439 -2.9605 2.8470
0.3808 -2.9580 2.8470
0.4176 -2.9554 2.8470
0.4544 -2.9525 2.8470
0.4912 -2.9493 2.8470
0.5280 -2.9459 2.8470
0.5649 -2.9422 2.8470
0.6017 -2.9383 2.8470
0.6385 -2.9341 2.8470
0.6754 -2.9297 2.8470
0.7122 -2.9250 2.8470
0.7491 -2.9201 2.8470
0.7860 -2.9150 2.8470
0.8228 -2.9095 2.8470
0.8597 -2.9039 2.8470
0.8966 -2.8979 2.8470
0.9335 -2.8918 2.8470
0.9704 -2.8853 2.8470
1.1181 -2.8570 2.8470
1.0073 -2.8786 2.8470
1.0442 -2.8717 2.8470
1.1551 -2.8493 2.8470
1.0812 -2.8645 2.8470
1.1920 -2.8413 2.8470
1.2660 -2.8245 2.8470
1.2290 -2.8330 2.8470
1.3030 -2.8157 2.8470
1.3400 -2.8067 2.8470
1.4140 -2.7878 2.8470
1.3770 -2.7974 2.8470
1.4510 -2.7780 2.8470
1.5622 -2.7469 2.8470
1.4881 -2.7679 2.8470
1.5993 -2.7359 2.8470
1.6363 -2.7247 2.8470
1.5251 -2.7575 2.8470
1.6734 -2.7133 2.8470
1.7106 -2.7015 2.8470
1.8591 -2.6517 2.8470
1.7477 -2.6895 2.8470
1.8963 -2.6385 2.8470
1.7848 -2.6772 2.8470
1.9335 -2.6251 2.8470
1.9707 -2.6114 2.8470
1.8220 -2.6646 2.8470
2.0079 -2.5974 2.8470
2.0451 -2.5831 2.8470
2.1569 -2.5384 2.8470
2.3061 -2.4746 2.8470
2.0824 -2.5685 2.8470
2.1942 -2.5229 2.8470
2.3434 -2.4579 2.8470
2.1196 -2.5535 2.8470
2.3808 -2.4409 2.8470
2.2315 -2.5071 2.8470
2.4555 -2.4059 2.8470
2.4181 -2.4235 2.8470
2.4929 -2.3879 2.8470
2.2688 -2.4910 2.8470
2.6051 -2.3322 2.8470
2.5303 -2.3697 2.8470
2.7548 -2.2533 2.8470
2.6425 -2.3130 2.8470
2.5677 -2.3511 2.8470
2.6799 -2.2934 2.8470
2.7923 -2.2328 2.8470
2.9047 -2.1691 2.8470
2.7174 -2.2735 2.8470
2.9422 -2.1472 2.8470
2.8298 -2.2119 2.8470
3.0548 -2.0794 2.8470
2.9797 -2.1249 2.8470
2.8672 -2.1907 2.8470
3.0923 -2.0560 2.8470
3.0173 -2.1023 2.8470
3.1298 -2.0324 2.8470
3.2049 -1.9840 2.8470
3.1674 -2.0084 2.8470
3.3551 -1.8827 2.8470
3.2425 -1.9592 2.8470
3.5053 -1.7754 2.8470
3.3927 -1.8565 2.8470
3.5429 -1.7476 2.8470
3.2800 -1.9341 2.8470
3.4302 -1.8298 2.8470
3.5804 -1.7193 2.8470
3.3176 -1.9086 2.8470
3.4678 -1.8028 2.8470
3.6179 -1.6907 2.8470
3.9554 -1.4147 2.8470
3.8055 -1.5416 2.8470
3.6555 -1.6617 2.8470
3.9928 -1.3819 2.8470
3.8430 -1.5105 2.8470
3.6930 -1.6323 2.8470
4.0302 -1.3487 2.8470
3.8805 -1.4790 2.8470
4.0675 -1.3150 2.8470
3.7305 -1.6025 2.8470
3.9179 -1.4471 2.8470
3.7680 -1.5723 2.8470
4.1049 -1.2808 2.8470
4.1422 -1.2463 2.8470
4.1795 -1.2112 2.8470
4.2168 -1.1757 2.8470
4.2540 -1.1397 2.8470
-0.7416 -2.6510 2.8470
-0.7074 -2.6561 2.8470
-0.6731 -2.6609 2.8470
-0.6388 -2.6655 2.8470
-0.6046 -2.6699 2.8470
-0.5703 -2.6740 2.8470
-0.5361 -2.6778 2.8470
-0.5018 -2.6814 2.8470
-0.4676 -2.6848 2.8470
-0.4333 -2.6880 2.8470
-0.3991 -2.6909 2.8470
-0.3648 -2.6935 2.8470
-0.3306 -2.6959 2.8470
-0.2964 -2.6981 2.8470
-0.2621 -2.7001 2.8470
-0.2279 -2.7018 2.8470
-0.1936 -2.7032 2.8470
-0.1594 -2.7044 2.8470
-0.1251 -2.7054 2.8470
-0.0909 -2.7062 2.8470
-0.0566 -2.7067 2.8470
-0.0224 -2.7070 2.8470
0.0119 -2.7070 2.8470
0.0461 -2.7068 2.8470
0.0803 -2.7064 2.8470
0.1146 -2.7057 2.8470
0.1488 -2.7048 2.8470
0.1831 -2.7036 2.8470
0.2173 -2.7022 2.8470
0.2516 -2.7006 2.8470
0.2858 -2.6987 2.8470
0.3201 -2.6966 2.8470
0.3543 -2.6943 2.8470
0.3886 -2.6917 2.8470
0.4228 -2.6889 2.8470
0.4571 -2.6858 2.8470
0.4913 -2.6825 2.8470
0.5256 -2.6790 2.8470
0.5598 -2.6752 2.8470
0.5941 -2.6711 2.8470
0.6283 -2.6669 2.8470
0.6626 -2.6624 2.8470
0.6968 -2.6576 2.8470
0.7311 -2.6526 2.8470
0.7653 -2.6474 2.8470
0.7996 -2.6419 2.8470
0.8338 -2.6362 2.8470
0.8681 -2.6302 2.8470
0.9023 -2.6240 2.8470
0.9366 -2.6175 2.8470
0.9709 -2.6108 2.8470
1.0051 -2.6038 2.8470
1.0394 -2.5966 2.8470
1.0736 -2.5892 2.8470
1.1764 -2.5653 2.8470
1.1079 -2.5815 2.8470
1.2107 -2.5569 2.8470
1.1422 -2.5735 2.8470
1.2450 -2.5481 2.8470
1.3135 -2.5299 2.8470
1.2792 -2.5391 2.8470
1.3477 -2.5204 2.8470
1.4505 -2.4905 2.8470
1.3820 -2.5107 2.8470
1.4848 -2.4799 2.8470
1.4163 -2.5007 2.8470
1.5190 -2.4692 2.8470
1.5876 -2.4468 2.8470
1.5533 -2.4581 2.8470
1.6218 -2.4352 2.8470
1.7246 -2.3989 2.8470
1.6561 -2.4234 2.8470
1.6903 -2.4113 2.8470
1.7588 -2.3863 2.8470
1.8615 -2.3467 2.8470
1.7930 -2.3734 2.8470
1.8958 -2.3330 2.8470
1.8273 -2.3602 2.8470
1.9300 -2.3190 2.8470
1.9984 -2.2901 2.8470
1.9642 -2.3047 2.8470
2.0326 -2.2752 2.8470
2.1352 -2.2290 2.8470
2.0668 -2.2601 2.8470
2.1694 -2.2130 2.8470
2.2036 -2.1967 2.8470
2.1010 -2.2447 2.8470
2.2378 -2.1801 2.8470
2.2720 -2.1633 2.8470
2.4085 -2.0928 2.8470
2.3061 -2.1461 2.8470
2.4426 -2.0745 2.8470
2.3403 -2.1287 2.8470
2.4767 -2.0558 2.8470
2.3744 -2.1109 2.8470
2.5108 -2.0368 2.8470
2.5449 -2.0176 2.8470
2.6810 -1.9373 2.8470
2.5790 -1.9980 2.8470
2.7151 -1.9165 2.8470
2.6130 -1.9781 2.8470
2.7491 -1.8954 2.8470
2.6471 -1.9579 2.8470
2.7830 -1.8739 2.8470
2.8170 -1.8521 2.8470
3.0877 -1.6656 2.8470
2.9525 -1.7615 2.8470
2.8509 -1.8299 2.8470
3.2223 -1.5642 2.8470
3.1214 -1.6408 2.8470
2.9863 -1.7381 2.8470
2.8848 -1.8075 2.8470
3.2559 -1.5380 2.8470
3.1551 -1.6156 2.8470
2.9187 -1.7847 2.8470
3.0201 -1.7143 2.8470
3.2895 -1.5114 2.8470
3.1887 -1.5901 2.8470
3.3565 -1.4571 2.8470
3.3230 -1.4844 2.8470
3.4899 -1.3441 2.8470
3.3899 -1.4294 2.8470
3.0539 -1.6901 2.8470
3.5232 -1.3149 2.8470
3.6226 -1.2250 2.8470
3.4233 -1.4013 2.8470
3.5564 -1.2853 2.8470
3.4566 -1.3729 2.8470
3.6557 -1.1943 2.8470
3.5896 -1.2554 2.8470
3.6887 -1.1632 2.8470
3.7216 -1.1317 2.8470
3.7545 -1.0998 2.8470
3.7873 -1.0675 2.8470
3.8200 -1.0347 2.8470
3.8527 -1.0016 2.8470
3.8853 -0.9681 2.8470
