ply
format ascii 1.0
element vertex 2093
property float32 x
property float32 y
property float32 z
end_header
-40.2412 -7.8721 -5.1590
-39.9968 -8.2213 -5.0222
-39.7563 -8.5680 -4.8874
-39.5198 -8.9124 -4.7548
-39.2869 -9.2545 -4.6241
-39.0577 -9.5946 -4.4953
-38.8319 -9.9327 -4.3684
-38.6096 -10.2690 -4.2432
-38.3905 -10.6037 -4.1198
-38.1746 -10.9368 -3.9981
-37.9617 -11.2685 -3.8779
-37.7518 -11.5989 -3.7593
-37.5447 -11.9282 -3.6423
-37.3405 -12.2564 -3.5266
-37.1389 -12.5836 -3.4124
-36.9399 -12.9101 -3.2995
-36.7434 -13.2358 -3.1880
-36.5494 -13.5609 -3.0777
-36.3577 -13.8856 -2.9686
-36.1683 -14.2099 -2.8607
-35.9810 -14.5339 -2.7539
-35.8189 -14.8674 -2.6499
-35.8388 -15.2780 -2.5597
-36.9626 -16.1754 -2.5453
-36.9919 -16.6106 -2.4526
-41.5223 -27.4764 -0.9065
-40.7479 -27.5291 -0.7793
-39.9920 -27.5806 -0.6561
-39.3952 -28.8768 -0.3208
-39.4704 -27.7833 -0.5395
-39.5986 -29.6148 -0.2120
-39.3538 -28.2699 -0.4295
-38.1010 -29.0697 -0.0970
-38.9853 -30.9479 0.1221
-38.1960 -29.7272 0.0108
-22.6071 -19.4105 0.3338
-22.5858 -19.0174 0.2670
-22.6289 -19.8112 0.4015
-7.3990 -6.8658 0.1986
-22.6511 -20.2196 0.4698
-22.7330 -21.5067 0.6804
-22.5854 -20.5557 0.5369
-22.7571 -21.9498 0.7523
-22.7817 -22.4024 0.8253
-22.8068 -22.8649 0.8992
-22.9132 -24.8227 1.2063
-22.8325 -23.3377 0.9742
-22.9414 -25.3416 1.2861
-22.8588 -23.8213 1.0504
-22.8764 -25.7675 1.3618
-22.8857 -24.3162 1.1277
-22.9954 -26.4131 1.4498
-23.0258 -26.9720 1.5339
-23.1556 -29.3616 1.8872
-23.0569 -27.5456 1.6197
-23.1903 -30.0013 1.9801
-23.0889 -28.1345 1.7071
-23.2261 -30.6596 2.0750
-23.1218 -28.7396 1.7962
-23.1654 -31.2061 2.1630
-23.2939 -32.0264 2.2708
-23.4683 -35.0640 2.6944
-23.3330 -32.7464 2.3725
-22.5688 -34.4430 2.6944
-23.3734 -33.4893 2.4767
-21.7168 -33.8598 2.6944
-23.4151 -34.2563 2.5835
-21.4127 -34.1148 2.7594
-21.2785 -34.6491 2.8468
-18.3880 -32.7524 2.8468
-20.5050 -34.1339 2.8468
-17.7419 -32.3402 2.8468
-19.7671 -33.6475 2.8468
-17.1221 -31.9494 2.8468
-19.0623 -33.1876 2.8468
-16.5266 -31.5786 2.8468
-7.9186 -15.4989 1.4130
-13.8612 -29.9833 2.8468
-13.3814 -29.7091 2.8468
-15.4024 -30.8920 2.8468
-12.9167 -29.4480 2.8468
-14.8706 -30.5738 2.8468
-12.4663 -29.1991 2.8468
-14.3572 -30.2713 2.8468
-12.0292 -28.9619 2.8468
-11.6047 -28.7357 2.8468
-9.8425 -26.6131 2.6944
-11.1920 -28.5201 2.8468
-9.4816 -26.4362 2.6944
-10.2127 -26.7987 2.6944
-9.1295 -26.2674 2.6944
-8.4496 -25.9532 2.6944
-8.7857 -26.1065 2.6944
-8.1209 -25.8071 2.6944
-7.7992 -25.6679 2.6944
-7.1749 -25.4092 2.6944
-7.4840 -25.5354 2.6944
-7.0093 -25.7955 2.7483
-6.9458 -26.5993 2.8468
-6.6366 -26.4850 2.8468
-6.3326 -26.3765 2.8468
-6.0334 -26.2737 2.8468
-41.8432 -4.3425 -4.3467
-41.1493 -4.6694 -4.1611
-37.0471 -4.5637 -3.6443
-36.8297 -4.8955 -3.5219
-36.6155 -5.2243 -3.4012
-36.4044 -5.5503 -3.2821
-36.1963 -5.8737 -3.1647
-35.9912 -6.1946 -3.0489
-35.7889 -6.5131 -2.9346
-35.5892 -6.8293 -2.8218
-35.3923 -7.1433 -2.7103
-35.3119 -7.4795 -2.6087
-35.3278 -7.8368 -2.5145
-36.4361 -8.4493 -2.4950
-36.4616 -8.8237 -2.3984
-36.4873 -9.2004 -2.3018
-36.5131 -9.5795 -2.2050
-36.5391 -9.9610 -2.1081
-36.5652 -10.3451 -2.0110
-36.5916 -10.7319 -1.9138
-36.6181 -11.1214 -1.8164
-36.6448 -11.5138 -1.7188
-36.6717 -11.9092 -1.6209
-36.7825 -13.5235 -1.2267
-36.6989 -12.3078 -1.5228
-36.8114 -13.9360 -1.1273
-36.7262 -12.7095 -1.4244
-36.7539 -13.1147 -1.3257
-36.8396 -14.3518 -1.0276
-36.8966 -15.1951 -0.8268
-36.9255 -15.6229 -0.7258
-36.9546 -16.0549 -0.6242
-36.8680 -14.7715 -0.9274
-36.9841 -16.4914 -0.5222
-37.0139 -16.9325 -0.4196
-22.2342 -12.3187 0.2528
-22.2985 -13.5023 0.5153
-22.2500 -12.6089 0.3177
-22.3151 -13.8082 0.5822
-22.2659 -12.9028 0.3830
-22.3319 -14.1184 0.6498
-22.2821 -13.2006 0.4489
-22.3490 -14.4329 0.7180
-22.3663 -14.7521 0.7868
-22.4247 -16.0682 1.0683
-22.4434 -16.4127 1.1407
-22.3489 -15.0524 0.8549
-22.4625 -16.7628 1.2140
-22.3011 -15.3356 0.9222
-22.4818 -17.1188 1.2880
-22.3326 -15.6775 0.9934
-22.5014 -17.4809 1.3630
-22.5837 -18.9951 1.6728
-22.5215 -17.8493 1.4390
-22.6052 -19.3914 1.7529
-22.5418 -18.2244 1.5159
-22.6271 -19.7954 1.8341
-22.5625 -18.6062 1.5938
-22.6495 -20.2073 1.9165
-22.5840 -20.5472 1.9925
-22.7812 -22.4107 2.3501
-7.3988 -6.8644 0.6798
-22.8065 -22.8779 2.4410
-22.7321 -21.5061 2.1728
-22.8325 -23.3558 2.5336
-22.7563 -21.9535 2.2607
-23.4395 -24.4503 2.6945
-22.6383 -24.0815 2.6944
-20.8615 -24.0098 2.8367
-21.8793 -23.7352 2.6944
-21.1576 -23.4080 2.6944
-20.2745 -23.8016 2.8468
-20.8530 -23.5303 2.7447
-19.6421 -23.5229 2.8468
-18.4559 -23.0061 2.8468
-19.0365 -23.2580 2.8468
-17.8986 -22.7662 2.8468
-16.3516 -22.1119 2.8468
-17.3630 -22.5377 2.8468
-15.8733 -21.9133 2.8468
-16.8478 -22.3198 2.8468
-15.4117 -21.7236 2.8468
-14.5347 -21.3686 2.8468
-14.9658 -21.5421 2.8468
-14.1175 -21.2024 2.8468
-13.7134 -21.0432 2.8468
-12.9417 -20.7445 2.8468
-13.3217 -20.8907 2.8468
-12.5727 -20.6043 2.8468
-11.5262 -20.2168 2.8468
-12.2142 -20.4698 2.8468
-11.1957 -20.0978 2.8468
-11.8655 -20.3407 2.8468
-10.8737 -19.9834 2.8468
-7.9770 -15.3798 2.2148
-7.8829 -15.5750 2.2545
-9.9943 -18.8097 2.6944
-8.6085 -18.3477 2.6944
-9.1441 -18.5216 2.6944
-8.3492 -18.2658 2.6944
-8.8734 -18.4329 2.6944
-8.0952 -18.1870 2.6944
-7.6020 -18.0385 2.6944
-7.8462 -18.1113 2.6944
-7.3624 -17.9686 2.6944
-6.6687 -17.7750 2.6944
-7.1271 -17.9014 2.6944
-6.8959 -17.8369 2.6944
-6.6008 -18.1433 2.7594
-6.1208 -18.5364 2.8456
-6.5772 -18.6567 2.8467
-5.8977 -18.4799 2.8451
-6.3473 -18.5953 2.8461
-5.6779 -18.4257 2.8446
-5.4610 -18.3738 2.8441
-5.2470 -18.3240 2.8436
-5.0358 -18.2764 2.8431
-4.8272 -18.2309 2.8426
-4.6210 -18.1873 2.8421
-4.4172 -18.1458 2.8417
-4.2156 -18.1061 2.8412
-45.4187 -4.1070 -2.6629
-44.3500 -4.4398 -2.4764
-42.2766 -4.6424 -2.2426
-39.8209 -4.7599 -2.0014
-38.1075 -4.9264 -1.8091
-36.2035 -5.0339 -1.6179
-36.2279 -5.3921 -1.5182
-36.2524 -5.7518 -1.4184
-36.2773 -6.1131 -1.3185
-36.3028 -6.4762 -1.2184
-36.3284 -6.8411 -1.1181
-36.3541 -7.2079 -1.0177
-36.3800 -7.5766 -0.9170
-36.4060 -7.9474 -0.8161
-36.4321 -8.3203 -0.7149
-36.4576 -8.6952 -0.6134
-36.4831 -9.0724 -0.5117
-36.5087 -9.4519 -0.4095
-36.5345 -9.8340 -0.3071
-36.5605 -10.2187 -0.2042
-36.5867 -10.6060 -0.1010
-36.6130 -10.9962 0.0026
-36.6396 -11.3893 0.1068
-36.6663 -11.7854 0.2113
-36.6933 -12.1847 0.3164
-21.9616 -7.5281 0.2524
-21.9747 -7.7697 0.3159
-21.9879 -8.0133 0.3797
-22.0012 -8.2590 0.4438
-22.0147 -8.5069 0.5083
-22.0282 -8.7570 0.5732
-22.0419 -9.0094 0.6385
-22.0558 -9.2643 0.7042
-22.0697 -9.5217 0.7703
-22.0838 -9.7816 0.8369
-22.0121 -10.0051 0.9005
-22.0264 -10.2694 0.9678
-22.1393 -10.5836 1.0403
-22.1540 -10.8550 1.1090
-22.1689 -11.1294 1.1782
-22.1840 -11.4070 1.2481
-22.1992 -11.6879 1.3186
-22.2146 -11.9722 1.3897
-22.2302 -12.2600 1.4614
-22.2461 -12.5515 1.5339
-22.2621 -12.8468 1.6071
-22.2783 -13.1459 1.6811
-22.2948 -13.4491 1.7558
-22.3115 -13.7565 1.8313
-22.3284 -14.0683 1.9077
-22.3455 -14.3845 1.9850
-22.3630 -14.7054 2.0632
-22.3806 -15.0312 2.1423
-22.2979 -15.2929 2.2124
-22.3296 -15.6367 2.2946
-22.4218 -16.0295 2.3843
-22.4406 -16.3761 2.4676
-22.4597 -16.7286 2.5520
-22.9643 -17.4558 2.6945
-22.2506 -17.2591 2.6944
-21.5725 -17.0737 2.6944
-20.9263 -16.8979 2.6944
-20.5049 -16.8921 2.7203
-20.5079 -17.2347 2.8020
-20.2395 -17.3505 2.8468
-19.1211 -17.0544 2.8468
-19.6687 -17.1990 2.8468
-18.5954 -16.9164 2.8468
-17.1357 -16.5385 2.8468
-7.3974 -6.8636 1.1641
-16.6843 -16.4233 2.8468
-17.6039 -16.6589 2.8468
-16.2486 -16.3130 2.8468
-15.4213 -16.1059 2.8468
-15.8279 -16.2073 2.8468
-15.0279 -16.0086 2.8468
-13.9201 -15.7393 2.8468
-14.6470 -15.9152 2.8468
-13.5728 -15.6564 2.8468
-14.2780 -15.8255 2.8468
-13.2356 -15.5766 2.8468
-12.5892 -15.4260 2.8468
-12.9079 -15.4999 2.8468
-12.2791 -15.3547 2.8468
-11.3963 -15.1563 2.8468
-11.9772 -15.2862 2.8468
-11.1166 -15.0949 2.8468
-11.6831 -15.2200 2.8468
-10.8435 -15.0355 2.8468
-9.7641 -14.1242 2.6944
-10.5769 -14.9783 2.8468
-8.8304 -13.9325 2.6944
-9.5230 -14.0737 2.6944
-8.6090 -13.8886 2.6944
-9.2872 -14.0250 2.6944
-8.3920 -13.8462 2.6944
-9.0564 -13.9779 2.6944
-8.1791 -13.8052 2.6944
-7.9703 -13.7656 2.6944
-7.1720 -13.6202 2.6944
-7.7654 -13.7273 2.6944
-6.9809 -13.5868 2.6944
-7.5641 -13.6904 2.6944
-6.7928 -13.5546 2.6944
-7.3664 -13.6547 2.6944
-6.6078 -13.5235 2.6944
-6.4256 -13.4935 2.6944
-6.3683 -13.7278 2.7471
-6.0450 -14.1364 2.8460
-6.3749 -14.1132 2.8301
-5.8650 -14.1077 2.8456
-6.2276 -14.1661 2.8464
-5.6873 -14.0800 2.8452
-5.3388 -14.0275 2.8443
-5.5120 -14.0533 2.8447
-5.1678 -14.0026 2.8439
-4.6664 -13.9330 2.8428
-4.9987 -13.9785 2.8435
-4.5029 -13.9115 2.8424
-4.8316 -13.9553 2.8432
-4.3411 -13.8908 2.8420
-4.1809 -13.8709 2.8416
-4.0223 -13.8517 2.8413
-3.8651 -13.8333 2.8409
-3.7094 -13.8157 2.8405
-3.5550 -13.7987 2.8402
-3.4018 -13.7825 2.8398
-3.2499 -13.7670 2.8395
-39.0686 -0.7565 -1.1993
-38.3825 -1.1123 -1.0695
-38.4077 -1.4825 -0.9615
-38.4330 -1.8535 -0.8534
-38.4583 -2.2253 -0.7452
-38.4837 -2.5980 -0.6369
-38.5091 -2.9717 -0.5285
-38.5347 -3.3465 -0.4198
-38.5603 -3.7224 -0.3110
-38.5860 -4.0995 -0.2020
-38.0366 -4.4112 -0.0914
-38.5487 -4.8465 0.0167
-36.7093 -4.9742 0.1201
-36.2259 -5.2638 0.2216
-36.2502 -5.6238 0.3250
-21.7491 -3.5886 0.2570
-21.7609 -3.8059 0.3194
-21.7727 -4.0242 0.3819
-21.7846 -4.2436 0.4447
-21.7966 -4.4641 0.5078
-21.7217 -4.6671 0.5688
-21.7338 -4.8890 0.6321
-21.7479 -5.1127 0.6957
-21.8431 -5.3577 0.7625
-21.8554 -5.5845 0.8269
-21.8678 -5.8128 0.8917
-21.8803 -6.0426 0.9568
-21.8928 -6.2740 1.0222
-21.9055 -6.5069 1.0881
-21.9182 -6.7416 1.1543
-21.9310 -6.9781 1.2210
-21.9439 -7.2163 1.2880
-21.9570 -7.4565 1.3556
-21.9701 -7.6986 1.4236
-21.9833 -7.9428 1.4920
-21.9967 -8.1891 1.5610
-22.0102 -8.4376 1.6306
-22.0238 -8.6884 1.7006
-22.0375 -8.9415 1.7713
-22.0514 -9.1971 1.8425
-22.0654 -9.4552 1.9144
-22.0795 -9.7159 1.9869
-22.0200 -9.9460 2.0532
-22.0222 -10.2057 2.1256
-22.1351 -10.5206 2.2097
-22.1499 -10.7929 2.2851
-22.1648 -11.0683 2.3612
-22.1799 -11.3470 2.4382
-22.1952 -11.6290 2.5159
-22.2107 -11.9145 2.5946
-22.3948 -12.2960 2.6943
-21.7564 -12.2233 2.6944
-21.1471 -12.1542 2.6944
-20.5650 -12.0885 2.6944
-20.2528 -12.1730 2.7273
-20.2534 -12.4447 2.8021
-20.0363 -12.5831 2.8468
-19.5178 -12.5258 2.8468
-19.0197 -12.4710 2.8468
-18.5405 -12.4186 2.8468
-18.0792 -12.3685 2.8468
-17.6347 -12.3204 2.8468
-17.2060 -12.2744 2.8468
-16.7922 -12.2303 2.8468
-16.3925 -12.1879 2.8468
-16.0060 -12.1471 2.8468
-15.6319 -12.1080 2.8468
-15.2698 -12.0704 2.8468
-14.9188 -12.0342 2.8468
-14.5785 -11.9993 2.8468
-14.2482 -11.9657 2.8468
-13.9275 -11.9334 2.8468
-13.6158 -11.9022 2.8468
-13.3128 -11.8721 2.8468
-13.0180 -11.8434 2.8468
-7.3952 -6.8631 1.6536
-12.4516 -11.7880 2.8468
-12.1792 -11.7619 2.8468
-11.9136 -11.7366 2.8468
-11.6544 -11.7122 2.8468
-11.4015 -11.6886 2.8468
-11.1544 -11.6658 2.8468
-10.9130 -11.6437 2.8468
-10.6769 -11.6223 2.8468
-10.4461 -11.6016 2.8468
-9.6730 -10.9615 2.6944
-9.4637 -10.9432 2.6944
-9.2587 -10.9254 2.6944
-9.0578 -10.9081 2.6944
-8.8609 -10.8914 2.6944
-8.6678 -10.8752 2.6944
-8.4783 -10.8595 2.6944
-8.2923 -10.8443 2.6944
-8.1097 -10.8296 2.6944
-7.9303 -10.8153 2.6944
-7.7540 -10.8014 2.6944
-7.5807 -10.7879 2.6944
-7.4102 -10.7749 2.6944
-7.2426 -10.7622 2.6944
-7.0776 -10.7500 2.6944
-6.9151 -10.7381 2.6944
-6.7551 -10.7265 2.6944
-6.5975 -10.7153 2.6944
-6.4421 -10.7045 2.6944
-6.2890 -10.6940 2.6944
-6.2169 -10.8212 2.7290
-6.2194 -11.0846 2.7980
-6.1721 -11.2670 2.8466
-6.0180 -11.2558 2.8463
-5.8658 -11.2448 2.8459
-5.7155 -11.2342 2.8456
-5.5671 -11.2239 2.8452
-5.4204 -11.2139 2.8449
-5.2755 -11.2042 2.8445
-5.1321 -11.1947 2.8442
-4.9903 -11.1856 2.8439
-4.8501 -11.1767 2.8435
-4.7113 -11.1681 2.8432
-4.5739 -11.1597 2.8429
-4.4378 -11.1516 2.8426
-4.3030 -11.1438 2.8423
-4.1695 -11.1361 2.8419
-4.0372 -11.1288 2.8416
-3.9060 -11.1216 2.8413
-3.7759 -11.1147 2.8410
-3.6469 -11.1080 2.8407
-3.5189 -11.1015 2.8404
-3.3919 -11.0953 2.8401
-3.2658 -11.0892 2.8398
-3.1406 -11.0834 2.8395
-3.0162 -11.0777 2.8392
-2.8927 -11.0723 2.8389
-2.7699 -11.0671 2.8387
-2.6479 -11.0620 2.8384
-21.5610 -0.1333 0.3009
-21.5723 -0.3408 0.3623
-21.5835 -0.5485 0.4239
-21.5948 -0.7567 0.4855
-21.6061 -0.9651 0.5473
-21.6175 -1.1740 0.6092
-21.6288 -1.3833 0.6713
-21.6402 -1.5932 0.7336
-21.6516 -1.8036 0.7961
-21.6631 -2.0146 0.8588
-21.6745 -2.2263 0.9216
-21.6861 -2.4386 0.9848
-21.6976 -2.6517 1.0481
-21.7092 -2.8655 1.1117
-21.7209 -3.0802 1.1756
-21.7325 -3.2958 1.2398
-21.7443 -3.5123 1.3043
-21.7561 -3.7297 1.3691
-21.7679 -3.9482 1.4342
-21.7798 -4.1678 1.4997
-21.7918 -4.3884 1.5656
-21.7170 -4.5919 1.6253
-21.7290 -4.8142 1.6917
-21.7411 -5.0377 1.7584
-21.8384 -5.2831 1.8328
-21.8507 -5.5102 1.9007
-21.8631 -5.7389 1.9691
-21.8756 -5.9690 2.0379
-21.8881 -6.2007 2.1073
-21.9008 -6.4341 2.1772
-21.9136 -6.6692 2.2476
-21.9264 -6.9061 2.3186
-21.9393 -7.1448 2.3902
-21.9524 -7.3855 2.4624
-21.9656 -7.6281 2.5352
-22.7029 -8.1323 2.6946
-22.0869 -8.1548 2.6944
-21.5008 -8.1768 2.6944
-20.9404 -8.1979 2.6944
-20.4039 -8.2179 2.6944
-20.0493 -8.3031 2.7160
-20.0487 -8.5328 2.7849
-19.9934 -8.7407 2.8468
-19.5124 -8.7583 2.8468
-19.0497 -8.7752 2.8468
-18.6040 -8.7913 2.8468
-18.1743 -8.8068 2.8468
-17.7599 -8.8217 2.8468
-17.3596 -8.8360 2.8468
-16.9729 -8.8498 2.8468
-16.5989 -8.8629 2.8468
-16.2370 -8.8757 2.8468
-15.8865 -8.8878 2.8468
-15.5467 -8.8996 2.8468
-15.2173 -8.9109 2.8468
-14.8976 -8.9219 2.8468
-14.5871 -8.9324 2.8468
-14.2854 -8.9426 2.8468
-13.9922 -8.9525 2.8468
-13.7068 -8.9619 2.8468
-13.4291 -8.9711 2.8468
-13.1587 -8.9800 2.8468
-12.8951 -8.9886 2.8468
-12.6382 -8.9969 2.8468
-12.3876 -9.0049 2.8468
-12.1430 -9.0127 2.8468
-11.9042 -9.0202 2.8468
-11.6709 -9.0275 2.8468
-11.4429 -9.0346 2.8468
-11.2200 -9.0414 2.8468
-11.0019 -9.0481 2.8468
-10.7886 -9.0545 2.8468
-10.5797 -9.0608 2.8468
-10.3751 -9.0669 2.8468
-10.1746 -9.0728 2.8468
-9.4439 -8.5924 2.6944
-7.3927 -6.8628 2.1507
-9.0827 -8.6028 2.6944
-8.9071 -8.6078 2.6944
-8.7348 -8.6126 2.6944
-8.5656 -8.6173 2.6944
-8.3993 -8.6218 2.6944
-8.2359 -8.6262 2.6944
-8.0753 -8.6306 2.6944
-7.9174 -8.6347 2.6944
-7.7620 -8.6388 2.6944
-7.6091 -8.6427 2.6944
-7.4586 -8.6466 2.6944
-7.3104 -8.6503 2.6944
-7.1644 -8.6539 2.6944
-7.0206 -8.6575 2.6944
-6.8789 -8.6609 2.6944
-6.7392 -8.6642 2.6944
-6.6014 -8.6675 2.6944
-6.4655 -8.6707 2.6944
-6.3313 -8.6737 2.6944
-6.1990 -8.6767 2.6944
-6.1090 -8.7378 2.7124
-6.1094 -8.9311 2.7715
-6.1098 -9.1305 2.8325
-6.0070 -9.1785 2.8465
-5.8748 -9.1803 2.8462
-5.7442 -9.1819 2.8459
-5.6151 -9.1836 2.8456
-5.4874 -9.1851 2.8453
-5.3612 -9.1866 2.8450
-5.2362 -9.1881 2.8447
-5.1126 -9.1894 2.8444
-4.9902 -9.1908 2.8441
-4.8691 -9.1920 2.8438
-4.7491 -9.1932 2.8436
-4.6303 -9.1944 2.8433
-4.5125 -9.1955 2.8430
-4.3958 -9.1965 2.8427
-4.2802 -9.1975 2.8424
-4.1655 -9.1985 2.8422
-4.0518 -9.1994 2.8419
-3.9390 -9.2002 2.8416
-3.8270 -9.2010 2.8414
-3.7160 -9.2017 2.8411
-3.6057 -9.2024 2.8408
-3.4963 -9.2031 2.8406
-3.3876 -9.2037 2.8403
-3.2797 -9.2042 2.8401
-3.1725 -9.2047 2.8398
-3.0659 -9.2052 2.8396
-2.9601 -9.2056 2.8393
-2.8548 -9.2060 2.8391
-2.7502 -9.2064 2.8388
-2.6461 -9.2067 2.8386
-2.5426 -9.2069 2.8383
-2.4396 -9.2072 2.8381
-2.3372 -9.2073 2.8378
-0.9876 -4.0681 1.2537
-21.4620 0.1505 1.2590
-21.5562 -0.0561 1.3258
-21.5674 -0.2634 1.3881
-21.5787 -0.4712 1.4505
-21.5900 -0.6792 1.5132
-21.6013 -0.8876 1.5761
-21.6126 -1.0965 1.6393
-21.6239 -1.3058 1.7028
-21.6353 -1.5157 1.7665
-21.6467 -1.7261 1.8306
-21.6582 -1.9371 1.8950
-21.6697 -2.1488 1.9597
-21.6812 -2.3612 2.0248
-21.6927 -2.5743 2.0902
-21.7043 -2.7883 2.1560
-21.7160 -3.0030 2.2222
-21.7277 -3.2187 2.2888
-21.7394 -3.4353 2.3558
-21.7512 -3.6529 2.4233
-21.7631 -3.8716 2.4913
-21.7750 -4.0913 2.5597
-22.3335 -4.4204 2.6945
-21.7696 -4.5282 2.6944
-21.2313 -4.6311 2.6944
-20.7156 -4.7294 2.6944
-20.2209 -4.8231 2.6944
-19.8717 -4.9441 2.7115
-19.8707 -5.1491 2.7755
-19.8697 -5.3553 2.8400
-19.4704 -5.4511 2.8468
-19.0400 -5.5309 2.8468
-18.6250 -5.6074 2.8468
-18.2244 -5.6808 2.8468
-17.8374 -5.7514 2.8468
-17.4633 -5.8193 2.8468
-17.1013 -5.8846 2.8468
-16.7509 -5.9475 2.8468
-16.4114 -6.0081 2.8468
-16.0822 -6.0665 2.8468
-15.7629 -6.1228 2.8468
-15.4530 -6.1772 2.8468
-15.1519 -6.2297 2.8468
-14.8593 -6.2804 2.8468
-14.5748 -6.3294 2.8468
-14.2980 -6.3767 2.8468
-14.0285 -6.4225 2.8468
-13.7660 -6.4669 2.8468
-13.5102 -6.5098 2.8468
-13.2608 -6.5513 2.8468
-13.0175 -6.5916 2.8468
-12.7801 -6.6306 2.8468
-12.5483 -6.6684 2.8468
-12.3218 -6.7050 2.8468
-12.1005 -6.7406 2.8468
-11.8842 -6.7751 2.8468
-11.6726 -6.8086 2.8468
-11.4655 -6.8411 2.8468
-11.2628 -6.8727 2.8468
-11.0643 -6.9034 2.8468
-10.8699 -6.9332 2.8468
-10.6794 -6.9621 2.8468
-10.4925 -6.9903 2.8468
-10.3093 -7.0176 2.8468
-10.1296 -7.0443 2.8468
-9.4204 -6.6918 2.6944
-9.2565 -6.7155 2.6944
-9.0955 -6.7387 2.6944
-8.9374 -6.7613 2.6944
-8.7820 -6.7833 2.6944
-8.6292 -6.8047 2.6944
-8.4790 -6.8255 2.6944
-8.3313 -6.8458 2.6944
-8.1859 -6.8656 2.6944
-8.0429 -6.8848 2.6944
-7.9020 -6.9036 2.6944
-7.7634 -6.9219 2.6944
-7.6268 -6.9397 2.6944
-7.3902 -6.8624 2.6577
-7.3595 -6.9740 2.6944
-7.2287 -6.9904 2.6944
-7.0998 -7.0065 2.6944
-6.9726 -7.0222 2.6944
-6.8471 -7.0375 2.6944
-6.7232 -7.0523 2.6944
-6.6010 -7.0669 2.6944
-6.4803 -7.0811 2.6944
-6.3611 -7.0948 2.6944
-6.2434 -7.1083 2.6944
-6.1271 -7.1214 2.6944
-6.0266 -7.1513 2.7009
-6.0259 -7.3010 2.7526
-6.0252 -7.4545 2.8057
-5.9959 -7.5760 2.8467
-5.8793 -7.5875 2.8464
-5.7639 -7.5987 2.8461
-5.6497 -7.6096 2.8459
-5.5367 -7.6201 2.8456
-5.4249 -7.6304 2.8453
-5.3142 -7.6405 2.8451
-5.2046 -7.6502 2.8448
-5.0960 -7.6597 2.8446
-4.9884 -7.6690 2.8443
-4.8819 -7.6779 2.8441
-4.7763 -7.6867 2.8438
-4.6716 -7.6951 2.8436
-4.5678 -7.7034 2.8433
-4.4649 -7.7114 2.8431
-4.3629 -7.7192 2.8428
-4.2616 -7.7267 2.8426
-4.1612 -7.7341 2.8423
-4.0615 -7.7412 2.8421
-3.9626 -7.7481 2.8418
-3.8644 -7.7548 2.8416
-3.7670 -7.7612 2.8414
-3.6702 -7.7675 2.8411
-3.5740 -7.7736 2.8409
-3.4785 -7.7795 2.8407
-3.3836 -7.7852 2.8405
-3.2893 -7.7907 2.8402
-3.1956 -7.7960 2.8400
-3.1024 -7.8011 2.8398
-3.0098 -7.8060 2.8396
-2.9177 -7.8108 2.8393
-2.8260 -7.8154 2.8391
-2.7349 -7.8198 2.8389
-2.6442 -7.8240 2.8387
-2.5540 -7.8281 2.8385
-2.4642 -7.8319 2.8383
-2.3748 -7.8357 2.8380
-2.2858 -7.8392 2.8378
-0.9881 -3.5270 1.2761
-0.9477 -3.5258 1.2751
-0.9076 -3.5247 1.2741
-0.8677 -3.5236 1.2731
-21.4450 0.4348 2.2218
-21.4561 0.2289 2.2842
-21.4682 0.0227 2.3470
-21.5625 -0.1845 2.4193
-21.5737 -0.3921 2.4829
-21.5850 -0.6001 2.5468
-22.2870 -0.8343 2.6946
-21.7579 -1.0243 2.6944
-21.2527 -1.2058 2.6944
-20.7678 -1.3791 2.6944
-20.3022 -1.5449 2.6944
-19.8662 -1.7045 2.6960
-19.7050 -1.8823 2.7334
-19.7041 -2.0744 2.7929
-19.6612 -2.2620 2.8468
-19.2534 -2.4038 2.8468
-18.8597 -2.5400 2.8468
-18.4793 -2.6710 2.8468
-18.1114 -2.7970 2.8468
-17.7553 -2.9183 2.8468
-17.4105 -3.0351 2.8468
-17.0765 -3.1477 2.8468
-16.7525 -3.2563 2.8468
-16.4382 -3.3611 2.8468
-16.1330 -3.4623 2.8468
-15.8365 -3.5600 2.8468
-15.5484 -3.6544 2.8468
-15.2682 -3.7457 2.8468
-14.9955 -3.8340 2.8468
-14.7300 -3.9194 2.8468
-14.4714 -4.0021 2.8468
-14.2194 -4.0822 2.8468
-13.9737 -4.1598 2.8468
-13.7340 -4.2350 2.8468
-13.5001 -4.3079 2.8468
-13.2717 -4.3787 2.8468
-13.0486 -4.4473 2.8468
-12.8306 -4.5139 2.8468
-12.6175 -4.5785 2.8468
-12.4091 -4.6413 2.8468
-12.2051 -4.7023 2.8468
-12.0055 -4.7616 2.8468
-11.8101 -4.8192 2.8468
-11.6187 -4.8752 2.8468
-11.4311 -4.9297 2.8468
-11.2473 -4.9827 2.8468
-11.0670 -5.0342 2.8468
-10.8902 -5.0844 2.8468
-10.7167 -5.1332 2.8468
-10.5464 -5.1808 2.8468
-10.3792 -5.2271 2.8468
-10.2150 -5.2722 2.8468
-10.0537 -5.3161 2.8468
-9.3654 -5.0721 2.6944
-9.2179 -5.1116 2.6944
-9.0729 -5.1501 2.6944
-8.9303 -5.1876 2.6944
-8.7899 -5.2242 2.6944
-8.6518 -5.2599 2.6944
-8.5158 -5.2947 2.6944
-8.3820 -5.3286 2.6944
-8.2501 -5.3618 2.6944
-8.1203 -5.3941 2.6944
-7.9923 -5.4256 2.6944
-7.8661 -5.4564 2.6944
-7.7418 -5.4865 2.6944
-7.6191 -5.5158 2.6944
-7.4982 -5.5445 2.6944
-7.3788 -5.5724 2.6944
-7.2611 -5.5997 2.6944
-7.1449 -5.6264 2.6944
-7.0301 -5.6525 2.6944
-6.9168 -5.6779 2.6944
-6.8049 -5.7027 2.6944
-6.6944 -5.7270 2.6944
-6.5851 -5.7507 2.6944
-6.4772 -5.7738 2.6944
-6.3705 -5.7965 2.6944
-6.2650 -5.8185 2.6944
-6.1607 -5.8401 2.6944
-6.0575 -5.8612 2.6944
-5.9601 -5.8865 2.6965
-5.9589 -6.0072 2.7424
-5.9576 -6.1306 2.7895
-5.9562 -6.2566 2.8376
-5.8716 -6.2962 2.8466
-5.7686 -6.3150 2.8463
-5.6667 -6.3334 2.8461
-5.5657 -6.3513 2.8458
-5.4657 -6.3688 2.8456
-5.3666 -6.3859 2.8453
-5.2684 -6.4026 2.8451
-5.1712 -6.4189 2.8449
-5.0747 -6.4348 2.8446
-4.9791 -6.4503 2.8444
-4.8843 -6.4654 2.8442
-4.7903 -6.4801 2.8440
-4.6971 -6.4945 2.8437
-4.6045 -6.5085 2.8435
-4.5128 -6.5222 2.8433
-4.4217 -6.5355 2.8431
-4.3313 -6.5485 2.8429
-4.2415 -6.5612 2.8426
-4.1525 -6.5735 2.8424
-4.0640 -6.5856 2.8422
-3.9761 -6.5973 2.8420
-3.8889 -6.6087 2.8418
-3.8022 -6.6197 2.8416
-3.7161 -6.6305 2.8414
-3.6305 -6.6410 2.8412
-3.5454 -6.6512 2.8410
-3.4609 -6.6611 2.8408
-3.3768 -6.6707 2.8406
-3.2933 -6.6801 2.8404
-3.2102 -6.6892 2.8402
-3.1275 -6.6980 2.8400
-3.0453 -6.7065 2.8398
-2.9635 -6.7148 2.8396
-2.8821 -6.7228 2.8394
-2.8012 -6.7305 2.8392
-2.7206 -6.7380 2.8390
-2.6403 -6.7453 2.8388
-2.5605 -6.7523 2.8386
-2.4810 -6.7590 2.8384
-2.4018 -6.7655 2.8382
-2.3230 -6.7718 2.8380
-2.2444 -6.7779 2.8378
-2.1662 -6.7837 2.8376
-2.0882 -6.7892 2.8375
-2.0106 -6.7946 2.8373
-1.0031 -3.5284 1.4722
-0.9621 -3.5272 1.4705
-0.9213 -3.5261 1.4690
-0.8807 -3.5250 1.4674
-19.1063 0.6434 2.8468
-18.7466 0.4512 2.8468
-18.3982 0.2660 2.8468
-18.0606 0.0876 2.8468
-17.7334 -0.0845 2.8468
-17.4159 -0.2504 2.8468
-17.1077 -0.4107 2.8468
-16.8084 -0.5654 2.8468
-16.5175 -0.7149 2.8468
-16.2346 -0.8595 2.8468
-15.9593 -0.9993 2.8468
-15.6914 -1.1346 2.8468
-15.4305 -1.2656 2.8468
-15.1763 -1.3924 2.8468
-14.9284 -1.5152 2.8468
-14.6867 -1.6343 2.8468
-14.4509 -1.7498 2.8468
-14.2206 -1.8618 2.8468
-13.9958 -1.9704 2.8468
-13.7761 -2.0759 2.8468
-13.5614 -2.1784 2.8468
-13.3514 -2.2778 2.8468
-13.1461 -2.3744 2.8468
-12.9451 -2.4683 2.8468
-12.7484 -2.5596 2.8468
-12.5558 -2.6484 2.8468
-12.3671 -2.7348 2.8468
-12.1822 -2.8188 2.8468
-12.0009 -2.9005 2.8468
-11.8231 -2.9801 2.8468
-11.6488 -3.0576 2.8468
-11.4777 -3.1331 2.8468
-11.3098 -3.2066 2.8468
-11.1449 -3.2783 2.8468
-10.9830 -3.3481 2.8468
-10.8239 -3.4161 2.8468
-10.6676 -3.4825 2.8468
-10.5140 -3.5472 2.8468
-10.3629 -3.6103 2.8468
-10.2144 -3.6718 2.8468
-10.0682 -3.7319 2.8468
-9.9244 -3.7905 2.8468
-9.2591 -3.6418 2.6944
-9.1272 -3.6946 2.6944
-8.9974 -3.7462 2.6944
-8.8694 -3.7966 2.6944
-8.7434 -3.8458 2.6944
-8.6192 -3.8939 2.6944
-8.4968 -3.9408 2.6944
-8.3761 -3.9867 2.6944
-8.2571 -4.0316 2.6944
-8.1397 -4.0754 2.6944
-8.0239 -4.1182 2.6944
-7.9097 -4.1601 2.6944
-7.7969 -4.2010 2.6944
-7.6856 -4.2410 2.6944
-7.5757 -4.2801 2.6944
-7.4671 -4.3183 2.6944
-7.3599 -4.3557 2.6944
-7.2540 -4.3923 2.6944
-7.1494 -4.4281 2.6944
-7.0460 -4.4631 2.6944
-6.9437 -4.4973 2.6944
-6.8427 -4.5308 2.6944
-6.7427 -4.5636 2.6944
-6.6439 -4.5956 2.6944
-6.5461 -4.6270 2.6944
-6.4494 -4.6577 2.6944
-6.3537 -4.6878 2.6944
-6.2590 -4.7171 2.6944
-6.1652 -4.7459 2.6944
-6.0724 -4.7741 2.6944
-5.9805 -4.8016 2.6944
-5.9038 -4.8403 2.7009
-5.9023 -4.9412 2.7422
-5.9007 -5.0438 2.7843
-5.8991 -5.1482 2.8274
-5.8469 -5.2097 2.8468
-5.7550 -5.2352 2.8468
-5.6640 -5.2602 2.8468
-5.5738 -5.2847 2.8468
-5.4844 -5.3087 2.8468
-5.3957 -5.3321 2.8468
-5.3077 -5.3551 2.8468
-5.2204 -5.3775 2.8468
-5.1338 -5.3995 2.8468
-5.0479 -5.4210 2.8468
-4.9627 -5.4420 2.8468
-4.8780 -5.4626 2.8468
-4.7940 -5.4827 2.8468
-4.7107 -5.5023 2.8468
-4.6279 -5.5216 2.8468
-4.5457 -5.5404 2.8468
-4.4640 -5.5588 2.8468
-4.3829 -5.5767 2.8468
-4.3024 -5.5943 2.8468
-4.2223 -5.6115 2.8468
-4.1428 -5.6282 2.8468
-4.0638 -5.6446 2.8468
-3.9852 -5.6607 2.8468
-3.9071 -5.6763 2.8468
-3.8295 -5.6916 2.8468
-3.7523 -5.7065 2.8468
-3.6756 -5.7210 2.8468
-3.5993 -5.7352 2.8468
-3.5234 -5.7491 2.8468
-3.4479 -5.7626 2.8468
-3.3727 -5.7757 2.8468
-3.2980 -5.7886 2.8468
-3.2236 -5.8011 2.8468
-3.1496 -5.8132 2.8467
-3.0758 -5.8250 2.8467
-3.0024 -5.8364 2.8466
-2.9294 -5.8475 2.8465
-2.8565 -5.8580 2.8463
-2.7839 -5.8682 2.8461
-2.7117 -5.8782 2.8460
-2.6397 -5.8878 2.8458
-2.5680 -5.8969 2.8455
-2.4966 -5.9059 2.8452
-2.4254 -5.9144 2.8449
-2.3545 -5.9226 2.8446
-2.2839 -5.9306 2.8443
-2.2135 -5.9382 2.8440
-2.1433 -5.9455 2.8436
-2.0733 -5.9525 2.8433
-2.0036 -5.9592 2.8429
-1.9341 -5.9657 2.8426
-1.8648 -5.9720 2.8422
-1.7958 -5.9780 2.8419
-1.7269 -5.9836 2.8415
-0.9770 -3.5287 1.6740
-0.9356 -3.5275 1.6718
-0.8943 -3.5264 1.6697
-14.5963 0.6898 2.8468
-14.3849 0.5417 2.8468
-14.1781 0.3977 2.8468
-13.9756 0.2578 2.8468
-13.7775 0.1218 2.8468
-13.5834 -0.0104 2.8468
-13.3933 -0.1391 2.8468
-13.2070 -0.2642 2.8468
-13.0244 -0.3861 2.8468
-12.8453 -0.5047 2.8468
-12.6696 -0.6201 2.8468
-12.4973 -0.7326 2.8468
-12.3281 -0.8421 2.8468
-12.1620 -0.9489 2.8468
-11.9988 -1.0530 2.8468
-11.8386 -1.1544 2.8468
-11.6811 -1.2534 2.8468
-11.5263 -1.3499 2.8468
-11.3742 -1.4440 2.8468
-11.2245 -1.5358 2.8468
-11.0773 -1.6254 2.8468
-10.9325 -1.7129 2.8468
-10.7900 -1.7983 2.8468
-10.6497 -1.8817 2.8468
-10.5116 -1.9631 2.8468
-10.3756 -2.0426 2.8468
-10.2416 -2.1203 2.8468
-10.1096 -2.1963 2.8468
-9.9795 -2.2705 2.8468
-9.8513 -2.3430 2.8468
-9.2042 -2.2846 2.6944
-9.0863 -2.3502 2.6944
-8.9699 -2.4143 2.6944
-8.8551 -2.4771 2.6944
-8.7418 -2.5384 2.6944
-8.6301 -2.5984 2.6944
-8.5197 -2.6571 2.6944
-8.4108 -2.7145 2.6944
-8.3033 -2.7707 2.6944
-8.1971 -2.8257 2.6944
-8.0922 -2.8795 2.6944
-7.9885 -2.9322 2.6944
-7.8861 -2.9838 2.6944
-7.7849 -3.0343 2.6944
-7.6848 -3.0837 2.6944
-7.5859 -3.1321 2.6944
-7.4881 -3.1795 2.6944
-7.3914 -3.2259 2.6944
-7.2958 -3.2714 2.6944
-7.2012 -3.3159 2.6944
-7.1075 -3.3596 2.6944
-7.0149 -3.4023 2.6944
-6.9232 -3.4442 2.6944
-6.8324 -3.4852 2.6944
-6.7426 -3.5254 2.6944
-6.6536 -3.5648 2.6944
-6.5655 -3.6034 2.6944
-6.4783 -3.6412 2.6944
-6.3919 -3.6782 2.6944
-6.3062 -3.7145 2.6944
-6.2214 -3.7501 2.6944
-6.1373 -3.7850 2.6944
-6.0540 -3.8192 2.6944
-5.9714 -3.8527 2.6944
-5.8896 -3.8856 2.6944
-5.8540 -3.9485 2.7155
-5.8524 -4.0351 2.7529
-5.8507 -4.1230 2.7910
-5.8489 -4.2122 2.8298
-5.8009 -4.2688 2.8468
-5.7186 -4.2996 2.8468
-5.6370 -4.3297 2.8468
-5.5559 -4.3593 2.8468
-5.4755 -4.3883 2.8468
-5.3956 -4.4167 2.8468
-5.3164 -4.4445 2.8468
-5.2377 -4.4718 2.8468
-5.1596 -4.4985 2.8468
-5.0820 -4.5247 2.8468
-5.0050 -4.5504 2.8468
-4.9284 -4.5755 2.8468
-4.8524 -4.6002 2.8468
-4.7769 -4.6243 2.8468
-4.7019 -4.6480 2.8468
-4.6273 -4.6712 2.8468
-4.5532 -4.6939 2.8468
-4.4796 -4.7161 2.8468
-4.4064 -4.7379 2.8468
-4.3337 -4.7592 2.8468
-4.2613 -4.7801 2.8468
-4.1894 -4.8005 2.8468
-4.1179 -4.8205 2.8468
-4.0468 -4.8401 2.8468
-3.9761 -4.8593 2.8468
-3.9057 -4.8780 2.8468
-3.8357 -4.8964 2.8468
-3.7661 -4.9143 2.8468
-3.6968 -4.9319 2.8468
-3.6279 -4.9491 2.8468
-3.5593 -4.9659 2.8468
-3.4910 -4.9823 2.8468
-3.4231 -4.9983 2.8468
-3.3554 -5.0140 2.8468
-3.2881 -5.0293 2.8468
-3.2210 -5.0442 2.8468
-3.1543 -5.0588 2.8468
-3.0878 -5.0731 2.8468
-3.0216 -5.0870 2.8468
-2.9557 -5.1005 2.8468
-2.8900 -5.1137 2.8468
-2.8245 -5.1266 2.8468
-2.7594 -5.1392 2.8468
-2.6944 -5.1514 2.8468
-2.6297 -5.1633 2.8468
-2.5652 -5.1749 2.8468
-2.5009 -5.1862 2.8468
-2.4369 -5.1971 2.8468
-2.3731 -5.2078 2.8468
-2.3094 -5.2181 2.8468
-2.2460 -5.2282 2.8468
-2.1827 -5.2379 2.8468
-2.1196 -5.2473 2.8468
-2.0567 -5.2565 2.8468
-1.9940 -5.2653 2.8468
-1.9314 -5.2739 2.8468
-1.8690 -5.2822 2.8468
-1.8067 -5.2901 2.8468
-1.7446 -5.2978 2.8468
-1.6827 -5.3053 2.8468
-1.6208 -5.3124 2.8468
-1.5592 -5.3193 2.8468
-0.9927 -3.5302 1.8870
-0.9505 -3.5291 1.8841
-0.9086 -3.5279 1.8814
-11.7665 0.7190 2.8468
-11.6284 0.5989 2.8468
-11.4923 0.4815 2.8468
-11.3582 0.3669 2.8468
-11.2260 0.2549 2.8468
-11.0958 0.1454 2.8468
-10.9673 0.0383 2.8468
-10.8406 -0.0664 2.8468
-10.7156 -0.1687 2.8468
-10.5923 -0.2688 2.8468
-10.4706 -0.3667 2.8468
-10.3506 -0.4624 2.8468
-10.2321 -0.5561 2.8468
-10.1150 -0.6478 2.8468
-9.9995 -0.7375 2.8468
-9.8854 -0.8254 2.8468
-9.7727 -0.9113 2.8468
-9.1442 -0.9422 2.6944
-9.0400 -1.0202 2.6944
-8.9371 -1.0966 2.6944
-8.8354 -1.1714 2.6944
-8.7349 -1.2447 2.6944
-8.6355 -1.3164 2.6944
-8.5373 -1.3868 2.6944
-8.4401 -1.4556 2.6944
-8.3440 -1.5231 2.6944
-8.2489 -1.5893 2.6944
-8.1548 -1.6541 2.6944
-8.0618 -1.7177 2.6944
-7.9697 -1.7800 2.6944
-7.8785 -1.8410 2.6944
-7.7883 -1.9009 2.6944
-7.6989 -1.9596 2.6944
-7.6105 -2.0171 2.6944
-7.5229 -2.0736 2.6944
-7.4361 -2.1289 2.6944
-7.3502 -2.1832 2.6944
-7.2651 -2.2364 2.6944
-7.1808 -2.2886 2.6944
-7.0972 -2.3399 2.6944
-7.0144 -2.3901 2.6944
-6.9324 -2.4394 2.6944
-6.8510 -2.4878 2.6944
-6.7704 -2.5352 2.6944
-6.6905 -2.5818 2.6944
-6.6112 -2.6275 2.6944
-6.5326 -2.6723 2.6944
-6.4547 -2.7163 2.6944
-6.3774 -2.7595 2.6944
-6.3007 -2.8019 2.6944
-6.2246 -2.8434 2.6944
-6.1491 -2.8842 2.6944
-6.0742 -2.9243 2.6944
-5.9999 -2.9636 2.6944
-5.9262 -3.0023 2.6944
-5.8529 -3.0401 2.6944
-5.8098 -3.0929 2.7081
-5.8082 -3.1683 2.7416
-5.8066 -3.2446 2.7756
-5.8049 -3.3218 2.8103
-5.8031 -3.3999 2.8456
-5.7315 -3.4371 2.8468
-5.6579 -3.4722 2.8468
-5.5847 -3.5067 2.8468
-5.5121 -3.5406 2.8468
-5.4400 -3.5738 2.8468
-5.3683 -3.6064 2.8468
-5.2970 -3.6384 2.8468
-5.2263 -3.6698 2.8468
-5.1559 -3.7007 2.8468
-5.0860 -3.7309 2.8468
-5.0165 -3.7606 2.8468
-4.9474 -3.7898 2.8468
-4.8787 -3.8184 2.8468
-4.8104 -3.8464 2.8468
-4.7424 -3.8740 2.8468
-4.6749 -3.9010 2.8468
-4.6077 -3.9275 2.8468
-4.5409 -3.9535 2.8468
-4.4745 -3.9790 2.8468
-4.4084 -4.0040 2.8468
-4.3426 -4.0286 2.8468
-4.2772 -4.0526 2.8468
-4.2121 -4.0762 2.8468
-4.1473 -4.0994 2.8468
-4.0828 -4.1221 2.8468
-4.0187 -4.1444 2.8468
-3.9548 -4.1662 2.8468
-3.8913 -4.1875 2.8468
-3.8280 -4.2085 2.8468
-3.7650 -4.2290 2.8468
-3.7023 -4.2491 2.8468
-3.6398 -4.2689 2.8468
-3.5776 -4.2881 2.8468
-3.5157 -4.3071 2.8468
-3.4541 -4.3256 2.8468
-3.3926 -4.3437 2.8468
-3.3315 -4.3614 2.8468
-3.2705 -4.3788 2.8468
-3.2098 -4.3957 2.8468
-3.1493 -4.4123 2.8468
-3.0891 -4.4286 2.8468
-3.0290 -4.4445 2.8468
-2.9692 -4.4600 2.8468
-2.9095 -4.4751 2.8468
-2.8501 -4.4900 2.8468
-2.7909 -4.5044 2.8468
-2.7318 -4.5186 2.8468
-2.6730 -4.5324 2.8468
-2.6143 -4.5458 2.8468
-2.5558 -4.5589 2.8468
-2.4975 -4.5717 2.8468
-2.4393 -4.5842 2.8468
-2.3814 -4.5963 2.8468
-2.3235 -4.6081 2.8468
-2.2658 -4.6197 2.8468
-2.2083 -4.6309 2.8468
-2.1509 -4.6417 2.8468
-2.0937 -4.6523 2.8468
-2.0366 -4.6626 2.8468
-1.9797 -4.6725 2.8468
-1.9228 -4.6822 2.8468
-1.8661 -4.6915 2.8468
-1.8095 -4.7006 2.8468
-1.7531 -4.7094 2.8468
-1.6967 -4.7178 2.8468
-1.6405 -4.7261 2.8468
-1.5844 -4.7339 2.8468
-1.5283 -4.7416 2.8468
-1.4724 -4.7489 2.8468
-1.4166 -4.7559 2.8468
-1.3608 -4.7627 2.8468
-0.9662 -3.5306 2.1075
-0.9236 -3.5294 2.1040
-9.8183 0.7391 2.8468
-9.7217 0.6385 2.8468
-9.6260 0.5398 2.8468
-9.0210 0.4193 2.6944
-8.9321 0.3295 2.6944
-8.8440 0.2414 2.6944
-8.7567 0.1550 2.6944
-8.6702 0.0702 2.6944
-8.5845 -0.0130 2.6944
-8.4995 -0.0946 2.6944
-8.4152 -0.1747 2.6944
-8.3317 -0.2533 2.6944
-8.2489 -0.3305 2.6944
-8.1667 -0.4062 2.6944
-8.0853 -0.4805 2.6944
-8.0045 -0.5534 2.6944
-7.9244 -0.6250 2.6944
-7.8450 -0.6953 2.6944
-7.7662 -0.7644 2.6944
-7.6880 -0.8322 2.6944
-7.6104 -0.8987 2.6944
-7.5335 -0.9641 2.6944
-7.4571 -1.0282 2.6944
-7.3813 -1.0913 2.6944
-7.3061 -1.1532 2.6944
-7.2314 -1.2140 2.6944
-7.1573 -1.2737 2.6944
-7.0838 -1.3324 2.6944
-7.0107 -1.3901 2.6944
-6.9382 -1.4467 2.6944
-6.8663 -1.5023 2.6944
-6.7948 -1.5569 2.6944
-6.7238 -1.6106 2.6944
-6.6533 -1.6634 2.6944
-6.5833 -1.7153 2.6944
-6.5138 -1.7662 2.6944
-6.4447 -1.8163 2.6944
-6.3761 -1.8655 2.6944
-6.3080 -1.9138 2.6944
-6.2402 -1.9613 2.6944
-6.1730 -2.0080 2.6944
-6.1061 -2.0539 2.6944
-6.0397 -2.0990 2.6944
-5.9736 -2.1433 2.6944
-5.9080 -2.1869 2.6944
-5.8428 -2.2297 2.6944
-5.7780 -2.2717 2.6944
-5.7675 -2.3350 2.7198
-5.7661 -2.4023 2.7500
-5.7646 -2.4703 2.7806
-5.7630 -2.5390 2.8117
-5.7614 -2.6083 2.8434
-5.7021 -2.6515 2.8468
-5.6364 -2.6909 2.8468
-5.5709 -2.7296 2.8468
-5.5059 -2.7677 2.8468
-5.4412 -2.8051 2.8468
-5.3768 -2.8419 2.8468
-5.3127 -2.8780 2.8468
-5.2490 -2.9135 2.8468
-5.1857 -2.9484 2.8468
-5.1226 -2.9827 2.8468
-5.0599 -3.0165 2.8468
-4.9974 -3.0496 2.8468
-4.9353 -3.0821 2.8468
-4.8735 -3.1141 2.8468
-4.8119 -3.1456 2.8468
-4.7507 -3.1765 2.8468
-4.6897 -3.2068 2.8468
-4.6291 -3.2367 2.8468
-4.5687 -3.2660 2.8468
-4.5085 -3.2948 2.8468
-4.4486 -3.3230 2.8468
-4.3890 -3.3508 2.8468
-4.3297 -3.3781 2.8468
-4.2706 -3.4049 2.8468
-4.2117 -3.4312 2.8468
-4.1531 -3.4571 2.8468
-4.0947 -3.4825 2.8468
-4.0366 -3.5074 2.8468
-3.9787 -3.5318 2.8468
-3.9210 -3.5559 2.8468
-3.8635 -3.5794 2.8468
-3.8063 -3.6026 2.8468
-3.7492 -3.6253 2.8468
-3.6924 -3.6476 2.8468
-3.6358 -3.6694 2.8468
-3.5793 -3.6909 2.8468
-3.5231 -3.7119 2.8468
-3.4671 -3.7325 2.8468
-3.4113 -3.7528 2.8468
-3.3556 -3.7726 2.8468
-3.3001 -3.7920 2.8468
-3.2448 -3.8111 2.8468
-3.1897 -3.8298 2.8468
-3.1348 -3.8481 2.8468
-3.0800 -3.8660 2.8468
-3.0254 -3.8836 2.8468
-2.9710 -3.9007 2.8468
-2.9167 -3.9176 2.8468
-2.8625 -3.9340 2.8468
-2.8086 -3.9502 2.8468
-2.7547 -3.9659 2.8468
-2.7010 -3.9813 2.8468
-2.6475 -3.9964 2.8468
-2.5941 -4.0112 2.8468
-2.5408 -4.0255 2.8468
-2.4877 -4.0396 2.8468
-2.4347 -4.0533 2.8468
-2.3818 -4.0667 2.8468
-2.3290 -4.0798 2.8468
-2.2764 -4.0926 2.8468
-2.2239 -4.1050 2.8468
-2.1715 -4.1171 2.8468
-2.1192 -4.1289 2.8468
-2.0670 -4.1404 2.8468
-2.0149 -4.1516 2.8468
-1.9629 -4.1625 2.8468
-1.9110 -4.1731 2.8468
-1.8593 -4.1833 2.8468
-1.8076 -4.1933 2.8468
-1.7560 -4.2030 2.8468
-1.7045 -4.2124 2.8468
-1.6531 -4.2214 2.8468
-1.6017 -4.2302 2.8468
-1.5505 -4.2387 2.8468
-1.4993 -4.2469 2.8468
-1.4482 -4.2549 2.8468
-1.3972 -4.2625 2.8468
-1.3462 -4.2698 2.8468
-1.2953 -4.2769 2.8468
-1.2445 -4.2837 2.8468
-0.9828 -3.5323 2.3439
-0.9394 -3.5311 2.3397
-7.9407 0.7134 2.6944
-7.8737 0.6318 2.6944
-7.8070 0.5516 2.6944
-7.7406 0.4727 2.6944
-7.6746 0.3951 2.6944
-7.6089 0.3187 2.6944
-7.5435 0.2437 2.6944
-7.4785 0.1698 2.6944
-7.4137 0.0972 2.6944
-7.3493 0.0258 2.6944
-7.2852 -0.0445 2.6944
-7.2214 -0.1136 2.6944
-7.1579 -0.1816 2.6944
-7.0947 -0.2485 2.6944
-7.0318 -0.3143 2.6944
-6.9692 -0.3790 2.6944
-6.9070 -0.4427 2.6944
-6.8450 -0.5053 2.6944
-6.7833 -0.5670 2.6944
-6.7219 -0.6277 2.6944
-6.6608 -0.6873 2.6944
-6.6000 -0.7461 2.6944
-6.5394 -0.8039 2.6944
-6.4792 -0.8607 2.6944
-6.4192 -0.9167 2.6944
-6.3595 -0.9717 2.6944
-6.3000 -1.0259 2.6944
-6.2409 -1.0792 2.6944
-6.1820 -1.1317 2.6944
-6.1234 -1.1834 2.6944
-6.0650 -1.2342 2.6944
-6.0069 -1.2842 2.6944
-5.9490 -1.3334 2.6944
-5.8914 -1.3819 2.6944
-5.8341 -1.4295 2.6944
-5.7770 -1.4765 2.6944
-5.7281 -1.5248 2.6981
-5.7269 -1.5856 2.7245
-5.7257 -1.6469 2.7513
-5.7245 -1.7086 2.7786
-5.7232 -1.7707 2.8062
-5.7218 -1.8333 2.8342
-5.6885 -1.8857 2.8468
-5.6302 -1.9294 2.8468
-5.5721 -1.9723 2.8468
-5.5143 -2.0146 2.8468
-5.4566 -2.0562 2.8468
-5.3992 -2.0971 2.8468
-5.3420 -2.1374 2.8468
-5.2851 -2.1771 2.8468
-5.2284 -2.2161 2.8468
-5.1719 -2.2545 2.8468
-5.1156 -2.2923 2.8468
-5.0595 -2.3295 2.8468
-5.0036 -2.3660 2.8468
-4.9479 -2.4021 2.8468
-4.8925 -2.4375 2.8468
-4.8372 -2.4724 2.8468
-4.7822 -2.5066 2.8468
-4.7273 -2.5404 2.8468
-4.6726 -2.5736 2.8468
-4.6181 -2.6063 2.8468
-4.5639 -2.6384 2.8468
-4.5098 -2.6700 2.8468
-4.4558 -2.7011 2.8468
-4.4021 -2.7317 2.8468
-4.3485 -2.7618 2.8468
-4.2952 -2.7913 2.8468
-4.2420 -2.8204 2.8468
-4.1889 -2.8490 2.8468
-4.1361 -2.8772 2.8468
-4.0834 -2.9048 2.8468
-4.0308 -2.9320 2.8468
-3.9785 -2.9588 2.8468
-3.9262 -2.9850 2.8468
-3.8742 -3.0109 2.8468
-3.8223 -3.0363 2.8468
-3.7706 -3.0612 2.8468
-3.7190 -3.0858 2.8468
-3.6675 -3.1099 2.8468
-3.6162 -3.1336 2.8468
-3.5650 -3.1568 2.8468
-3.5140 -3.1797 2.8468
-3.4632 -3.2021 2.8468
-3.4124 -3.2241 2.8468
-3.3618 -3.2458 2.8468
-3.3113 -3.2670 2.8468
-3.2610 -3.2879 2.8468
-3.2108 -3.3083 2.8468
-3.1607 -3.3284 2.8468
-3.1107 -3.3481 2.8468
-3.0609 -3.3675 2.8468
-3.0112 -3.3864 2.8468
-2.9616 -3.4050 2.8468
-2.9121 -3.4232 2.8468
-2.8627 -3.4411 2.8468
-2.8134 -3.4587 2.8468
-2.7643 -3.4758 2.8468
-2.7152 -3.4927 2.8468
-2.6663 -3.5091 2.8468
-2.6174 -3.5253 2.8468
-2.5687 -3.5410 2.8468
-2.5201 -3.5565 2.8468
-2.4715 -3.5716 2.8468
-2.4231 -3.5864 2.8468
-2.3747 -3.6009 2.8468
-2.2302 -3.6424 2.8468
-2.3265 -3.6151 2.8468
-2.1822 -3.6555 2.8468
-2.2783 -3.6289 2.8468
-2.1343 -3.6684 2.8468
-2.0387 -3.6932 2.8468
-2.0864 -3.6810 2.8468
-1.9910 -3.7052 2.8468
-1.8484 -3.7392 2.8468
-1.9434 -3.7168 2.8468
-1.8010 -3.7499 2.8468
-1.8959 -3.7281 2.8468
-1.7537 -3.7603 2.8468
-1.6593 -3.7803 2.8468
-1.7064 -3.7704 2.8468
-1.6121 -3.7898 2.8468
-1.4711 -3.8168 2.8468
-1.5651 -3.7991 2.8468
-1.4242 -3.8252 2.8468
-1.5181 -3.8081 2.8468
-1.3774 -3.8333 2.8468
-1.2839 -3.8487 2.8468
-1.3306 -3.8411 2.8468
-1.2372 -3.8560 2.8468
-1.1905 -3.8630 2.8468
-1.1439 -3.8697 2.8468
-1.0974 -3.8761 2.8468
-0.9563 -3.5329 2.5905
-6.9030 0.7241 2.6944
-6.8522 0.6530 2.6944
-6.8014 0.5830 2.6944
-6.7507 0.5139 2.6944
-6.7000 0.4458 2.6944
-6.6494 0.3788 2.6944
-6.5989 0.3128 2.6944
-6.5485 0.2476 2.6944
-6.4981 0.1834 2.6944
-6.4478 0.1202 2.6944
-6.3976 0.0578 2.6944
-6.3474 -0.0036 2.6944
-6.2974 -0.0642 2.6944
-6.2474 -0.1238 2.6944
-6.1975 -0.1826 2.6944
-6.1477 -0.2406 2.6944
-6.0980 -0.2977 2.6944
-6.0484 -0.3540 2.6944
-5.9989 -0.4095 2.6944
-5.9494 -0.4642 2.6944
-5.9001 -0.5180 2.6944
-5.8509 -0.5711 2.6944
-5.8018 -0.6235 2.6944
-5.7527 -0.6751 2.6944
-5.7038 -0.7259 2.6944
-5.6867 -0.7804 2.7095
-5.6858 -0.8371 2.7326
-5.6849 -0.8940 2.7561
-5.6840 -0.9512 2.7799
-5.6830 -1.0087 2.8041
-5.6820 -1.0664 2.8286
-5.6676 -1.1218 2.8468
-5.6168 -1.1696 2.8468
-5.5661 -1.2167 2.8468
-5.5155 -1.2631 2.8468
-5.4650 -1.3088 2.8468
-5.4147 -1.3539 2.8468
-5.3644 -1.3983 2.8468
-5.3143 -1.4421 2.8468
-5.2642 -1.4852 2.8468
-5.2143 -1.5277 2.8468
-5.1645 -1.5696 2.8468
-5.1148 -1.6108 2.8468
-5.0653 -1.6515 2.8468
-5.0158 -1.6915 2.8468
-4.9664 -1.7310 2.8468
-4.9172 -1.7699 2.8468
-4.8681 -1.8082 2.8468
-4.8191 -1.8459 2.8468
-4.7701 -1.8831 2.8468
-4.7213 -1.9197 2.8468
-4.6727 -1.9558 2.8468
-4.6241 -1.9913 2.8468
-4.5756 -2.0263 2.8468
-4.5272 -2.0608 2.8468
-4.4790 -2.0948 2.8468
-4.4308 -2.1282 2.8468
-4.3828 -2.1612 2.8468
-4.3348 -2.1936 2.8468
-4.2870 -2.2255 2.8468
-4.2393 -2.2570 2.8468
-4.1916 -2.2880 2.8468
-4.1441 -2.3185 2.8468
-4.0967 -2.3485 2.8468
-4.0494 -2.3780 2.8468
-4.0021 -2.4072 2.8468
-3.9550 -2.4358 2.8468
-3.9080 -2.4640 2.8468
-3.8611 -2.4917 2.8468
-3.8142 -2.5190 2.8468
-3.7675 -2.5459 2.8468
-3.7208 -2.5723 2.8468
-3.6743 -2.5984 2.8468
-3.6278 -2.6239 2.8468
-3.5814 -2.6491 2.8468
-3.5352 -2.6739 2.8468
-3.4890 -2.6982 2.8468
-3.4429 -2.7222 2.8468
-3.3969 -2.7458 2.8468
-3.3509 -2.7689 2.8468
-3.3051 -2.7917 2.8468
-3.2594 -2.8141 2.8468
-3.2137 -2.8361 2.8468
-3.1681 -2.8577 2.8468
-3.1226 -2.8789 2.8468
-3.0772 -2.8998 2.8468
-3.0318 -2.9203 2.8468
-2.9865 -2.9404 2.8468
-2.9414 -2.9602 2.8468
-2.8962 -2.9796 2.8468
-2.8512 -2.9987 2.8468
-2.8062 -3.0174 2.8468
-2.7613 -3.0358 2.8468
-2.7165 -3.0538 2.8468
-2.6718 -3.0714 2.8468
-2.6271 -3.0888 2.8468
-2.5825 -3.1058 2.8468
-2.5379 -3.1224 2.8468
-2.4935 -3.1388 2.8468
-2.4491 -3.1548 2.8468
-2.4047 -3.1705 2.8468
-2.3604 -3.1858 2.8468
-2.3162 -3.2009 2.8468
-2.2720 -3.2156 2.8468
-2.2279 -3.2300 2.8468
-2.1839 -3.2441 2.8468
-2.1399 -3.2578 2.8468
-2.0960 -3.2713 2.8468
-2.0521 -3.2845 2.8468
-2.0083 -3.2973 2.8468
-1.9645 -3.3099 2.8468
-1.9208 -3.3221 2.8468
-1.8772 -3.3341 2.8468
-1.8336 -3.3457 2.8468
-1.7900 -3.3571 2.8468
-1.7465 -3.3682 2.8468
-1.7030 -3.3789 2.8468
-1.6596 -3.3894 2.8468
-1.6162 -3.3997 2.8468
-1.5729 -3.4096 2.8468
-1.5296 -3.4192 2.8468
-1.4863 -3.4285 2.8468
-1.3568 -3.4549 2.8468
-1.4431 -3.4376 2.8468
-1.3137 -3.4631 2.8468
-1.3999 -3.4464 2.8468
-1.2706 -3.4711 2.8468
-1.1846 -3.4862 2.8468
-1.2276 -3.4788 2.8468
-1.1416 -3.4933 2.8468
-1.0987 -3.5002 2.8468
-1.0558 -3.5068 2.8468
-1.0129 -3.5131 2.8468
-0.9700 -3.5191 2.8468
-6.0783 0.7326 2.6944
-6.0387 0.6699 2.6944
-5.9991 0.6080 2.6944
-5.9593 0.5469 2.6944
-5.9195 0.4866 2.6944
-5.8796 0.4270 2.6944
-5.8396 0.3682 2.6944
-5.7996 0.3102 2.6944
-5.7595 0.2530 2.6944
-5.7193 0.1964 2.6944
-5.6791 0.1406 2.6944
-5.6429 0.0856 2.6963
-5.6425 0.0315 2.7156
-5.6421 -0.0227 2.7351
-5.6417 -0.0771 2.7549
-5.6413 -0.1314 2.7750
-5.6407 -0.1859 2.7954
-5.6402 -0.2405 2.8161
-5.6396 -0.2952 2.8372
-5.6158 -0.3486 2.8468
-5.5730 -0.4002 2.8468
-5.5301 -0.4512 2.8468
-5.4872 -0.5016 2.8468
-5.4443 -0.5512 2.8468
-5.4014 -0.6003 2.8468
-5.3584 -0.6486 2.8468
-5.3155 -0.6964 2.8468
-5.2726 -0.7434 2.8468
-5.2297 -0.7899 2.8468
-5.1867 -0.8357 2.8468
-5.1438 -0.8810 2.8468
-5.1009 -0.9256 2.8468
-5.0580 -0.9696 2.8468
-5.0151 -1.0131 2.8468
-4.9723 -1.0559 2.8468
-4.9294 -1.0982 2.8468
-4.8866 -1.1399 2.8468
-4.8437 -1.1810 2.8468
-4.8009 -1.2216 2.8468
-4.7582 -1.2616 2.8468
-4.7154 -1.3011 2.8468
-4.6727 -1.3401 2.8468
-4.6300 -1.3785 2.8468
-4.5873 -1.4163 2.8468
-4.5447 -1.4537 2.8468
-4.5020 -1.4905 2.8468
-4.4594 -1.5269 2.8468
-4.4169 -1.5627 2.8468
-4.3744 -1.5981 2.8468
-4.3319 -1.6329 2.8468
-4.2894 -1.6672 2.8468
-4.2470 -1.7011 2.8468
-4.2046 -1.7345 2.8468
-4.1623 -1.7674 2.8468
-4.1200 -1.7998 2.8468
-4.0777 -1.8318 2.8468
-4.0354 -1.8633 2.8468
-3.9933 -1.8944 2.8468
-3.9511 -1.9250 2.8468
-3.9090 -1.9552 2.8468
-3.8669 -1.9849 2.8468
-3.8249 -2.0142 2.8468
-3.7829 -2.0431 2.8468
-3.7409 -2.0716 2.8468
-3.6990 -2.0996 2.8468
-3.6571 -2.1272 2.8468
-3.6153 -2.1544 2.8468
-3.5735 -2.1812 2.8468
-3.5318 -2.2076 2.8468
-3.4900 -2.2335 2.8468
-3.4484 -2.2591 2.8468
-3.4068 -2.2843 2.8468
-3.3652 -2.3091 2.8468
-3.3236 -2.3335 2.8468
-3.2822 -2.3575 2.8468
-3.2407 -2.3812 2.8468
-3.1993 -2.4044 2.8468
-3.1579 -2.4274 2.8468
-3.1166 -2.4499 2.8468
-3.0753 -2.4720 2.8468
-3.0341 -2.4938 2.8468
-2.9929 -2.5153 2.8468
-2.8695 -2.5775 2.8468
-2.9517 -2.5364 2.8468
-2.7056 -2.6556 2.8468
-2.8285 -2.5975 2.8468
-2.9106 -2.5571 2.8468
-2.6647 -2.6743 2.8468
-2.7875 -2.6172 2.8468
-2.5423 -2.7283 2.8468
-2.6239 -2.6926 2.8468
-2.7465 -2.6366 2.8468
-2.5016 -2.7457 2.8468
-2.5831 -2.7106 2.8468
-2.3797 -2.7959 2.8468
-2.2176 -2.8583 2.8468
-2.4609 -2.7627 2.8468
-2.0560 -2.9159 2.8468
-2.3391 -2.8119 2.8468
-2.1771 -2.8732 2.8468
-2.4203 -2.7795 2.8468
-2.0157 -2.9295 2.8468
-2.2985 -2.8277 2.8468
-2.1367 -2.8877 2.8468
-1.8950 -2.9687 2.8468
-1.9755 -2.9429 2.8468
-2.2580 -2.8432 2.8468
-2.0964 -2.9020 2.8468
-1.8548 -2.9811 2.8468
-1.9352 -2.9559 2.8468
-1.7345 -3.0168 2.8468
-1.5744 -3.0604 2.8468
-1.8147 -2.9933 2.8468
-1.4148 -3.0995 2.8468
-1.6944 -3.0281 2.8468
-1.5345 -3.0706 2.8468
-1.7746 -3.0052 2.8468
-1.3749 -3.1086 2.8468
-1.6544 -3.0391 2.8468
-1.4945 -3.0805 2.8468
-1.2555 -3.1342 2.8468
-1.3351 -3.1174 2.8468
-1.6144 -3.0499 2.8468
-1.4546 -3.0901 2.8468
-1.2157 -3.1422 2.8468
-1.1760 -3.1500 2.8468
-1.2953 -3.1259 2.8468
-1.1363 -3.1574 2.8468
-1.0966 -3.1647 2.8468
-1.0569 -3.1716 2.8468
-1.0172 -3.1783 2.8468
-0.9776 -3.1847 2.8468
-0.9379 -3.1909 2.8468
-0.8983 -3.1968 2.8468
-5.5915 0.7652 2.7877
-5.5916 0.7116 2.8040
-5.5917 0.6580 2.8206
-5.5917 0.6045 2.8375
-5.5763 0.5494 2.8468
-5.5424 0.4931 2.8468
-5.5084 0.4374 2.8468
-5.4742 0.3824 2.8468
-5.4399 0.3280 2.8468
-5.4054 0.2743 2.8468
-5.3708 0.2212 2.8468
-5.3360 0.1687 2.8468
-5.3011 0.1168 2.8468
-5.2661 0.0655 2.8468
-5.2309 0.0149 2.8468
-5.1957 -0.0352 2.8468
-5.1603 -0.0847 2.8468
-5.1248 -0.1335 2.8468
-5.0892 -0.1818 2.8468
-5.0536 -0.2295 2.8468
-5.0178 -0.2766 2.8468
-4.9819 -0.3232 2.8468
-4.9459 -0.3692 2.8468
-4.9099 -0.4147 2.8468
-4.8738 -0.4596 2.8468
-4.8376 -0.5039 2.8468
-4.8013 -0.5477 2.8468
-4.7649 -0.5909 2.8468
-4.7285 -0.6337 2.8468
-4.6920 -0.6759 2.8468
-4.6555 -0.7176 2.8468
-4.6189 -0.7588 2.8468
-4.5822 -0.7994 2.8468
-4.5455 -0.8395 2.8468
-4.5088 -0.8792 2.8468
-4.4719 -0.9183 2.8468
-4.4351 -0.9570 2.8468
-4.3982 -0.9951 2.8468
-4.3613 -1.0328 2.8468
-4.3243 -1.0700 2.8468
-4.2873 -1.1067 2.8468
-4.2502 -1.1429 2.8468
-4.2131 -1.1787 2.8468
-4.1760 -1.2140 2.8468
-4.1389 -1.2489 2.8468
-4.1017 -1.2833 2.8468
-4.0645 -1.3173 2.8468
-4.0273 -1.3508 2.8468
-3.9901 -1.3839 2.8468
-3.9528 -1.4165 2.8468
-3.9156 -1.4487 2.8468
-3.8783 -1.4804 2.8468
-3.8410 -1.5118 2.8468
-3.8036 -1.5427 2.8468
-3.7663 -1.5732 2.8468
-3.7290 -1.6033 2.8468
-3.6916 -1.6330 2.8468
-3.6543 -1.6623 2.8468
-3.6169 -1.6911 2.8468
-3.5795 -1.7196 2.8468
-3.5422 -1.7477 2.8468
-3.5048 -1.7754 2.8468
-3.4674 -1.8027 2.8468
-3.4300 -1.8296 2.8468
-3.3926 -1.8561 2.8468
-3.3552 -1.8822 2.8468
-3.3178 -1.9080 2.8468
-3.2805 -1.9334 2.8468
-3.2431 -1.9584 2.8468
-3.2057 -1.9831 2.8468
-3.1683 -2.0074 2.8468
-3.1309 -2.0313 2.8468
-3.0936 -2.0549 2.8468
-3.0562 -2.0781 2.8468
-3.0188 -2.1010 2.8468
-2.9815 -2.1235 2.8468
-2.9442 -2.1457 2.8468
-2.9068 -2.1675 2.8468
-2.8695 -2.1890 2.8468
-2.8322 -2.2102 2.8468
-2.7949 -2.2310 2.8468
-2.7576 -2.2515 2.8468
-2.7203 -2.2716 2.8468
-2.6830 -2.2915 2.8468
-2.6457 -2.3109 2.8468
-2.6085 -2.3301 2.8468
-2.5712 -2.3490 2.8468
-2.5340 -2.3675 2.8468
-2.4967 -2.3857 2.8468
-2.4595 -2.4037 2.8468
-2.4223 -2.4212 2.8468
-2.3851 -2.4385 2.8468
-2.3480 -2.4555 2.8468
-2.3108 -2.4722 2.8468
-2.2736 -2.4886 2.8468
-2.2365 -2.5046 2.8468
-2.1994 -2.5204 2.8468
-2.1622 -2.5358 2.8468
-2.1251 -2.5510 2.8468
-2.0881 -2.5659 2.8468
-2.0510 -2.5805 2.8468
-2.0139 -2.5948 2.8468
-1.9769 -2.6088 2.8468
-1.9398 -2.6225 2.8468
-1.9028 -2.6359 2.8468
-1.8658 -2.6491 2.8468
-1.8288 -2.6619 2.8468
-1.7918 -2.6745 2.8468
-1.7548 -2.6868 2.8468
-1.7178 -2.6989 2.8468
-1.6809 -2.7106 2.8468
-1.6439 -2.7221 2.8468
-1.6070 -2.7333 2.8468
-1.5701 -2.7442 2.8468
-1.5332 -2.7549 2.8468
-1.4963 -2.7653 2.8468
-1.4594 -2.7754 2.8468
-1.4225 -2.7853 2.8468
-1.3857 -2.7949 2.8468
-1.3488 -2.8042 2.8468
-1.3120 -2.8133 2.8468
-1.2752 -2.8221 2.8468
-1.2383 -2.8306 2.8468
-1.2015 -2.8389 2.8468
-1.1647 -2.8469 2.8468
-1.1279 -2.8547 2.8468
-1.0912 -2.8622 2.8468
-1.0544 -2.8694 2.8468
-1.0176 -2.8764 2.8468
-0.9809 -2.8832 2.8468
-0.9441 -2.8896 2.8468
-0.9074 -2.8959 2.8468
-0.8707 -2.9018 2.8468
-0.8340 -2.9076 2.8468
-5.1149 0.7875 2.8468
-5.0882 0.7346 2.8468
-5.0613 0.6822 2.8468
-5.0341 0.6304 2.8468
-5.0068 0.5791 2.8468
-4.9792 0.5284 2.8468
-4.9514 0.4782 2.8468
-4.9233 0.4285 2.8468
-4.8951 0.3793 2.8468
-4.8667 0.3307 2.8468
-4.8381 0.2826 2.8468
-4.8093 0.2349 2.8468
-4.7804 0.1879 2.8468
-4.7513 0.1413 2.8468
-4.7220 0.0952 2.8468
-4.6925 0.0496 2.8468
-4.6629 0.0045 2.8468
-4.6331 -0.0401 2.8468
-4.6032 -0.0842 2.8468
-4.5731 -0.1278 2.8468
-4.5429 -0.1709 2.8468
-4.5125 -0.2136 2.8468
-4.4820 -0.2558 2.8468
-4.4514 -0.2975 2.8468
-4.4207 -0.3387 2.8468
-4.3898 -0.3795 2.8468
-4.3588 -0.4198 2.8468
-4.3277 -0.4596 2.8468
-4.2965 -0.4990 2.8468
-4.2652 -0.5380 2.8468
-4.2337 -0.5764 2.8468
-4.2022 -0.6145 2.8468
-4.1706 -0.6521 2.8468
-4.1389 -0.6893 2.8468
-4.1070 -0.7260 2.8468
-4.0751 -0.7623 2.8468
-4.0431 -0.7981 2.8468
-4.0110 -0.8335 2.8468
-3.9789 -0.8686 2.8468
-3.9466 -0.9032 2.8468
-3.9143 -0.9373 2.8468
-3.8819 -0.9711 2.8468
-3.8495 -1.0044 2.8468
-3.8169 -1.0374 2.8468
-3.7843 -1.0699 2.8468
-3.7517 -1.1021 2.8468
-3.7189 -1.1338 2.8468
-3.6862 -1.1652 2.8468
-3.6533 -1.1961 2.8468
-3.6204 -1.2267 2.8468
-3.5874 -1.2569 2.8468
-3.5544 -1.2867 2.8468
-3.5214 -1.3161 2.8468
-3.4883 -1.3451 2.8468
-3.4551 -1.3738 2.8468
-3.4219 -1.4021 2.8468
-3.3887 -1.4300 2.8468
-3.3554 -1.4576 2.8468
-3.3221 -1.4848 2.8468
-3.2887 -1.5116 2.8468
-3.2553 -1.5381 2.8468
-3.2218 -1.5642 2.8468
-3.1884 -1.5900 2.8468
-3.1549 -1.6154 2.8468
-3.1213 -1.6405 2.8468
-3.0878 -1.6652 2.8468
-3.0542 -1.6896 2.8468
-3.0205 -1.7136 2.8468
-2.9869 -1.7373 2.8468
-2.9532 -1.7607 2.8468
-2.9195 -1.7837 2.8468
-2.8858 -1.8065 2.8468
-2.8520 -1.8288 2.8468
-2.8182 -1.8509 2.8468
-2.7845 -1.8726 2.8468
-2.7506 -1.8940 2.8468
-2.7168 -1.9151 2.8468
-2.6830 -1.9359 2.8468
-2.6491 -1.9563 2.8468
-2.6152 -1.9765 2.8468
-2.5813 -1.9963 2.8468
-2.5474 -2.0158 2.8468
-2.5135 -2.0351 2.8468
-2.4795 -2.0540 2.8468
-2.4456 -2.0726 2.8468
-2.4116 -2.0909 2.8468
-2.3776 -2.1089 2.8468
-2.3436 -2.1266 2.8468
-2.3097 -2.1440 2.8468
-2.2756 -2.1611 2.8468
-2.2416 -2.1780 2.8468
-2.2076 -2.1945 2.8468
-2.1736 -2.2107 2.8468
-2.1395 -2.2267 2.8468
-2.1055 -2.2424 2.8468
-2.0714 -2.2578 2.8468
-2.0374 -2.2729 2.8468
-2.0033 -2.2877 2.8468
-1.9693 -2.3023 2.8468
-1.9352 -2.3165 2.8468
-1.9011 -2.3305 2.8468
-1.8670 -2.3442 2.8468
-1.8329 -2.3577 2.8468
-1.7989 -2.3709 2.8468
-1.7648 -2.3838 2.8468
-1.7307 -2.3964 2.8468
-1.6966 -2.4088 2.8468
-1.6625 -2.4209 2.8468
-1.6284 -2.4327 2.8468
-1.5943 -2.4443 2.8468
-1.5602 -2.4556 2.8468
-1.5260 -2.4667 2.8468
-1.4919 -2.4774 2.8468
-1.4578 -2.4880 2.8468
-1.4237 -2.4982 2.8468
-1.3896 -2.5082 2.8468
-1.3555 -2.5180 2.8468
-1.3214 -2.5275 2.8468
-1.2873 -2.5368 2.8468
-1.2532 -2.5457 2.8468
-1.2191 -2.5545 2.8468
-1.1849 -2.5630 2.8468
-1.1508 -2.5712 2.8468
-1.1167 -2.5792 2.8468
-1.0826 -2.5869 2.8468
-1.0485 -2.5944 2.8468
-1.0144 -2.6017 2.8468
-0.9803 -2.6087 2.8468
-0.9462 -2.6154 2.8468
-0.9121 -2.6219 2.8468
-0.8780 -2.6282 2.8468
-0.8439 -2.6342 2.8468
-0.8097 -2.6400 2.8468
-0.7756 -2.6455 2.8468
