ply
format ascii 1.0
element vertex 2176
property float32 x
property float32 y
property float32 z
end_header
-2.7350 -25.4435 2.8479
-2.4756 -25.4026 2.8479
-2.2179 -25.3657 2.8479
-1.9617 -25.3325 2.8478
-1.7067 -25.3031 2.8477
-1.4528 -25.2778 2.8476
-1.2000 -25.2566 2.8476
-0.9480 -25.2421 2.8478
-0.6966 -25.2297 2.8479
-0.4455 -25.2208 2.8479
-0.1948 -25.2158 2.8479
0.0558 -25.2147 2.8479
0.3064 -25.2176 2.8479
0.5572 -25.2243 2.8479
0.8084 -25.2349 2.8479
1.0601 -25.2494 2.8479
1.3125 -25.2678 2.8479
1.5658 -25.2903 2.8479
1.7858 -24.8402 2.7943
1.9987 -24.4087 2.7424
2.2128 -24.0799 2.7018
2.4510 -24.0480 2.6941
2.6970 -24.0880 2.6941
2.9447 -24.1307 2.6939
3.1942 -24.1765 2.6935
3.4448 -24.2187 2.6924
3.6976 -24.2658 2.6913
3.9510 -24.3068 2.6890
4.2062 -24.3489 2.6865
4.4654 -24.4036 2.6848
4.7072 -24.3576 2.6715
4.9269 -24.2036 2.6461
5.1488 -24.0704 2.6225
5.3829 -23.9997 2.6054
5.6167 -23.9291 2.5879
6.1053 -23.8744 2.5608
5.8542 -23.8750 2.5717
6.3576 -23.8737 2.5495
6.6161 -23.8908 2.5395
7.1366 -23.9195 2.5175
6.8789 -23.9167 2.5300
7.3969 -23.9257 2.5049
8.1877 -23.9436 2.4637
7.6601 -23.9356 2.4921
8.4531 -23.9444 2.4484
7.9252 -23.9462 2.4789
8.7215 -23.9488 2.4329
8.9931 -23.9567 2.4172
9.2682 -23.9681 2.4012
9.5414 -23.9690 2.3837
10.3751 -23.9754 2.3277
10.6606 -23.9844 2.3085
9.8157 -23.9677 2.3653
10.9461 -23.9875 2.2881
10.0935 -23.9698 2.3466
11.2308 -23.9837 2.2664
11.5195 -23.9833 2.2444
12.7042 -23.9869 2.1499
13.0054 -23.9836 2.1241
11.8125 -23.9862 2.2220
13.3115 -23.9835 2.0979
12.1100 -23.9926 2.1992
13.6226 -23.9868 2.0712
13.9320 -23.9812 2.0430
12.4077 -23.9935 2.1752
14.2422 -23.9713 2.0136
15.2050 -23.9608 1.9223
14.5575 -23.9646 1.9838
15.5251 -23.9446 1.8892
14.8784 -23.9611 1.9533
16.5195 -23.9129 1.7858
15.8506 -23.9310 1.8554
16.8564 -23.8985 1.7492
16.1820 -23.9204 1.8209
17.1929 -23.8777 1.7113
17.5357 -23.8598 1.6725
17.8851 -23.8448 1.6330
19.3057 -23.7535 1.4625
18.2381 -23.8284 1.5924
19.7071 -23.7714 1.4196
18.5866 -23.8001 1.5500
20.1416 -23.8207 1.3772
20.5913 -23.8783 1.3338
18.9425 -23.7753 1.5067
21.0507 -23.9373 1.2890
22.9895 -24.1832 1.0932
21.5194 -23.9968 1.2425
23.4255 -24.1689 1.0366
21.9986 -24.0578 1.1945
23.8303 -24.1151 0.9767
22.4887 -24.1202 1.1447
24.6373 -23.9857 0.8520
24.2329 -24.0527 0.9151
25.0502 -23.9205 0.7874
26.1872 -23.5947 0.5812
25.4719 -23.8571 0.7214
25.8851 -23.7791 0.6533
26.7373 -23.6270 0.5127
28.0403 -23.3702 0.2886
27.1693 -23.5462 0.4398
28.4904 -23.2841 0.2104
27.6001 -23.4576 0.3651
28.9312 -23.1835 0.1302
29.3817 -23.0838 0.0481
29.8425 -22.9851 -0.0359
31.7566 -22.5699 -0.3927
30.3071 -22.8821 -0.1219
30.7789 -22.7773 -0.2100
32.2635 -22.4672 -0.4876
31.2619 -22.6732 -0.3002
32.7832 -22.3651 -0.5849
33.3165 -22.2636 -0.6849
33.8639 -22.1627 -0.7876
36.2102 -21.7638 -1.2287
36.6739 -21.5673 -1.3413
34.4262 -22.0622 -0.8932
37.4894 -21.5667 -1.4697
38.1590 -21.4686 -1.5960
35.0041 -21.9623 -1.0018
38.8500 -21.3707 -1.7264
35.5985 -21.8628 -1.1136
39.5637 -21.2731 -1.8612
7.7864 -3.9031 -0.4268
40.3014 -21.1755 -2.0006
7.6138 -3.7260 -0.4370
7.9688 -4.0903 -0.4162
7.3631 -3.3454 -0.4794
7.5200 -3.5915 -0.4510
7.2880 -3.2277 -0.4932
7.4403 -3.4666 -0.4654
7.2151 -3.1134 -0.5068
7.1097 -2.9082 -0.5358
7.1546 -3.0066 -0.5209
7.0657 -2.8118 -0.5505
7.0225 -2.7174 -0.5651
6.9802 -2.6247 -0.5796
-1.9346 -17.7558 2.8339
-1.7522 -17.7381 2.8334
-1.5706 -17.7219 2.8330
-1.3899 -17.7073 2.8326
-1.2097 -17.6941 2.8322
-1.0300 -17.6825 2.8318
-0.8510 -17.6722 2.8314
-0.6724 -17.6635 2.8309
-0.4940 -17.6562 2.8305
-0.3160 -17.6504 2.8301
-0.1382 -17.6459 2.8297
0.0395 -17.6429 2.8293
0.2172 -17.6413 2.8289
0.3950 -17.6412 2.8284
0.5729 -17.6425 2.8280
0.7509 -17.6453 2.8276
0.9293 -17.6495 2.8272
1.1079 -17.6552 2.8268
1.2870 -17.6622 2.8264
1.4667 -17.6707 2.8259
1.6469 -17.6807 2.8255
1.8278 -17.6922 2.8251
0.8445 -7.4414 1.1872
0.9193 -7.4319 1.1845
2.3753 -17.7355 2.8237
3.1198 -17.8149 2.8220
3.3091 -17.8387 2.8215
2.5597 -17.7530 2.8233
3.4999 -17.8642 2.8210
3.6923 -17.8914 2.8206
2.7451 -17.7720 2.8229
3.8863 -17.9202 2.8201
2.9318 -17.7927 2.8224
4.0821 -17.9508 2.8196
4.2798 -17.9832 2.8191
4.6659 -17.9943 2.8090
4.4740 -17.9954 2.8152
4.8572 -17.9873 2.8015
5.4369 -17.9687 2.7778
5.0503 -17.9838 2.7943
5.6317 -17.9616 2.7692
5.8277 -17.9549 2.7604
5.2429 -17.9755 2.7861
6.0260 -17.9519 2.7519
6.2256 -17.9492 2.7431
7.0446 -17.9572 2.7077
6.4275 -17.9493 2.7344
7.2543 -17.9621 2.6985
6.6312 -17.9506 2.7256
7.4620 -17.9579 2.6876
6.8369 -17.9532 2.7167
7.6624 -17.9333 2.6733
8.6505 -17.7439 2.5875
7.8431 -17.8610 2.6517
8.8571 -17.7180 2.5711
8.0419 -17.8288 2.6357
9.0657 -17.6932 2.5546
9.2765 -17.6695 2.5378
8.2430 -17.7993 2.6198
9.4894 -17.6470 2.5209
8.4459 -17.7711 2.6037
9.7048 -17.6256 2.5038
9.9226 -17.6054 2.4864
10.3662 -17.5685 2.4510
10.1430 -17.5864 2.4688
10.5922 -17.5519 2.4330
11.2888 -17.5091 2.3773
10.8212 -17.5364 2.4147
11.5277 -17.4973 2.3581
11.7701 -17.4867 2.3387
11.0534 -17.5221 2.3961
12.0164 -17.4775 2.3189
12.2666 -17.4695 2.2988
13.3104 -17.4508 2.2149
12.5209 -17.4628 2.2784
13.5832 -17.4496 2.1929
12.7795 -17.4574 2.2576
13.8321 -17.4131 2.1659
14.0601 -17.3472 2.1347
13.0426 -17.4534 2.2364
14.2891 -17.2800 2.1029
15.1630 -16.9371 1.9623
14.5100 -17.2003 2.0692
14.7335 -17.1215 2.0351
15.4796 -16.9536 1.9377
14.9456 -17.0272 1.9987
15.8037 -16.9718 1.9124
16.4759 -17.0137 1.8599
16.1357 -16.9918 1.8865
16.8247 -17.0375 1.8326
17.1826 -17.0632 1.8045
17.9275 -17.1210 1.7460
17.5500 -17.0910 1.7757
18.3156 -17.1532 1.7154
19.5491 -17.2642 1.6179
18.7147 -17.1877 1.6839
19.9818 -17.3032 1.5830
20.3941 -17.3161 1.5444
19.1257 -17.2247 1.6514
20.8019 -17.3171 1.5034
21.2076 -17.3089 1.4604
22.7967 -17.1762 1.2671
21.6115 -17.2916 1.4153
23.1845 -17.1187 1.2137
22.0065 -17.2600 1.3677
23.5756 -17.0572 1.1587
23.9635 -16.9869 1.1017
22.4015 -17.2215 1.3184
24.3606 -16.9165 1.0434
26.0008 -16.6038 0.7936
24.7672 -16.8462 0.9836
26.4292 -16.5204 0.7269
25.1745 -16.7696 0.9220
26.8513 -16.4260 0.6581
25.5827 -16.6869 0.8586
27.7228 -16.2328 0.5151
27.2817 -16.3298 0.5875
28.1669 -16.1303 0.4407
29.5304 -15.7963 0.2052
28.6105 -16.0203 0.3642
29.0652 -15.9092 0.2857
29.9882 -15.6718 0.1224
7.5812 -3.6876 -0.0336
7.9243 -4.0447 0.0097
7.4992 -3.5590 -0.0543
7.4197 -3.4343 -0.0745
7.7432 -3.8588 -0.0124
7.3426 -3.3133 -0.0942
7.2677 -3.1959 -0.1135
7.0527 -2.7835 -0.1878
7.0096 -2.6891 -0.2059
6.9674 -2.5965 -0.2236
7.1950 -3.0818 -0.1322
6.9259 -2.5057 -0.2412
7.1416 -2.9782 -0.1510
7.0967 -2.8798 -0.1695
-0.6618 -5.9920 1.2463
-0.5986 -5.9788 1.2441
-0.5359 -5.9659 1.2419
-0.4736 -5.9532 1.2397
-0.4117 -5.9410 1.2375
-0.3501 -5.9290 1.2353
-0.2888 -5.9173 1.2332
-0.2279 -5.9059 1.2310
-0.1672 -5.8948 1.2289
-0.1068 -5.8840 1.2267
-0.0466 -5.8735 1.2246
0.0133 -5.8632 1.2225
0.0731 -5.8532 1.2203
0.1326 -5.8435 1.2182
0.1920 -5.8340 1.2161
0.2512 -5.8248 1.2140
0.3104 -5.8159 1.2119
0.3694 -5.8072 1.2098
0.4283 -5.7987 1.2077
0.4871 -5.7905 1.2056
0.5459 -5.7825 1.2035
0.6047 -5.7748 1.2014
0.6635 -5.7673 1.1994
0.7222 -5.7600 1.1973
0.7810 -5.7530 1.1952
0.8398 -5.7462 1.1931
2.1322 -13.6171 2.8256
2.2758 -13.6244 2.8252
2.4202 -13.6323 2.8249
2.5653 -13.6408 2.8245
2.7112 -13.6499 2.8242
2.8580 -13.6596 2.8238
3.0057 -13.6700 2.8235
3.1544 -13.6810 2.8231
3.3041 -13.6926 2.8228
3.4549 -13.7049 2.8224
3.6068 -13.7179 2.8220
3.7600 -13.7315 2.8217
3.9145 -13.7458 2.8213
4.0703 -13.7608 2.8209
4.2274 -13.7766 2.8205
4.3861 -13.7931 2.8202
4.5463 -13.8103 2.8198
4.7081 -13.8282 2.8194
4.8716 -13.8470 2.8190
5.0325 -13.8543 2.8161
5.1901 -13.8495 2.8106
5.3464 -13.8388 2.8038
5.5059 -13.8338 2.7979
5.6654 -13.8259 2.7913
5.8258 -13.8179 2.7845
5.9876 -13.8101 2.7776
6.1506 -13.8026 2.7706
6.3145 -13.7943 2.7633
6.4809 -13.7886 2.7563
6.8177 -13.7771 2.7418
6.6484 -13.7827 2.7491
6.9890 -13.7726 2.7345
7.1620 -13.7685 2.7271
7.5139 -13.7618 2.7120
7.3370 -13.7650 2.7196
7.6928 -13.7591 2.7043
8.2039 -13.6890 2.6677
7.8676 -13.7458 2.6943
8.3744 -13.6612 2.6543
8.0350 -13.7173 2.6811
8.5465 -13.6335 2.6407
8.8959 -13.5793 2.6131
8.7203 -13.6063 2.6270
9.6177 -13.4746 2.5561
9.0734 -13.5527 2.5991
9.8034 -13.4492 2.5414
9.2527 -13.5264 2.5849
9.9914 -13.4240 2.5265
9.4342 -13.5003 2.5706
10.1817 -13.3991 2.5114
11.0369 -13.1171 2.4031
10.3746 -13.3745 2.4961
11.2457 -13.0993 2.3878
10.5460 -13.3198 2.4750
11.4578 -13.0818 2.3723
10.7076 -13.2512 2.4510
11.6735 -13.0646 2.3564
10.8636 -13.1744 2.4254
11.8927 -13.0477 2.3403
12.8087 -12.9827 2.2728
12.1156 -13.0310 2.3239
13.0483 -12.9672 2.2551
12.3425 -13.0146 2.3072
13.2926 -12.9520 2.2370
12.5735 -12.9985 2.2902
13.5416 -12.9371 2.2186
13.7958 -12.9224 2.1997
14.8671 -12.8669 2.1201
14.0551 -12.9081 2.1805
15.1499 -12.8537 2.0990
14.3199 -12.8941 2.1608
15.4393 -12.8410 2.0774
14.5905 -12.8803 2.1407
15.7355 -12.8285 2.0553
16.0389 -12.8164 2.0327
17.3314 -12.7714 1.9359
16.3498 -12.8046 2.0094
17.6763 -12.7610 1.9100
16.6686 -12.7932 1.9855
18.0307 -12.7511 1.8833
16.9956 -12.7821 1.9610
18.7125 -12.6932 1.8221
18.3684 -12.7230 1.8532
19.0612 -12.6603 1.7897
20.1129 -12.5285 1.6826
19.4061 -12.6188 1.7552
20.4674 -12.4748 1.6439
19.7600 -12.5770 1.7198
20.7429 -12.3679 1.5973
21.5538 -12.2905 1.5189
21.1894 -12.3568 1.5621
21.9274 -12.2232 1.4745
8.0732 -4.1975 0.4660
7.8827 -4.0020 0.4304
22.2930 -12.1452 1.4277
7.7027 -3.8173 0.3967
22.6680 -12.0661 1.3798
7.5615 -3.6567 0.3661
7.4796 -3.5282 0.3392
7.1759 -3.0519 0.2390
7.4003 -3.4038 0.3131
7.1293 -2.9512 0.2163
7.3233 -3.2830 0.2877
7.0844 -2.8529 0.1940
7.2485 -3.1658 0.2630
7.0404 -2.7566 0.1721
6.9974 -2.6622 0.1505
6.9551 -2.5697 0.1294
6.9137 -2.4790 0.1086
6.8731 -2.3900 0.0881
-0.5420 -4.8412 1.2459
-0.4906 -4.8334 1.2441
-0.4395 -4.8257 1.2423
-0.3886 -4.8181 1.2405
-0.3379 -4.8106 1.2387
-0.2875 -4.8032 1.2369
-0.2373 -4.7959 1.2351
-0.1873 -4.7887 1.2333
-0.1375 -4.7816 1.2315
-0.0878 -4.7746 1.2298
-0.0384 -4.7677 1.2280
0.0110 -4.7608 1.2263
0.0601 -4.7541 1.2245
0.1092 -4.7474 1.2228
0.1582 -4.7409 1.2210
0.2070 -4.7344 1.2193
0.2558 -4.7280 1.2176
0.3044 -4.7216 1.2158
0.3530 -4.7154 1.2141
0.4016 -4.7092 1.2124
0.4501 -4.7031 1.2106
0.4986 -4.6970 1.2089
0.5471 -4.6911 1.2072
0.5955 -4.6852 1.2055
0.6440 -4.6793 1.2037
0.6925 -4.6736 1.2020
0.7410 -4.6679 1.2003
0.7895 -4.6622 1.1985
1.9796 -10.9983 2.8267
2.0974 -11.0002 2.8264
2.2157 -11.0021 2.8261
2.3345 -11.0043 2.8259
2.4539 -11.0066 2.8256
2.5738 -11.0091 2.8253
2.6945 -11.0119 2.8250
2.8157 -11.0147 2.8247
2.9377 -11.0178 2.8244
3.0604 -11.0210 2.8241
3.1839 -11.0244 2.8238
3.3082 -11.0280 2.8235
3.4334 -11.0318 2.8232
3.5595 -11.0358 2.8229
3.6864 -11.0400 2.8226
3.8144 -11.0444 2.8223
3.9433 -11.0490 2.8220
4.0734 -11.0537 2.8217
4.2045 -11.0587 2.8214
4.3367 -11.0640 2.8211
4.4702 -11.0694 2.8208
4.6049 -11.0750 2.8204
4.7409 -11.0809 2.8201
4.8782 -11.0871 2.8198
5.0169 -11.0934 2.8195
5.1571 -11.1000 2.8191
5.2988 -11.1069 2.8188
5.4367 -11.1031 2.8157
5.5714 -11.0905 2.8103
5.7063 -11.0763 2.8044
5.8433 -11.0640 2.7990
5.9813 -11.0515 2.7934
6.1200 -11.0380 2.7876
6.2599 -11.0248 2.7817
6.4012 -11.0116 2.7757
6.5436 -10.9981 2.7696
6.6871 -10.9843 2.7634
6.8326 -10.9716 2.7573
6.9797 -10.9586 2.7512
7.1278 -10.9451 2.7448
7.2780 -10.9323 2.7385
7.4296 -10.9193 2.7321
7.5830 -10.9063 2.7256
7.7383 -10.8933 2.7190
7.8953 -10.8804 2.7123
8.0543 -10.8673 2.7055
8.2131 -10.8514 2.6980
8.3616 -10.8196 2.6863
8.5069 -10.7818 2.6731
8.6301 -10.7149 2.6526
8.7859 -10.6869 2.6417
8.9761 -10.6976 2.6402
9.1361 -10.6692 2.6290
9.2980 -10.6407 2.6177
9.4619 -10.6120 2.6061
9.6278 -10.5830 2.5945
9.7959 -10.5540 2.5827
9.9662 -10.5247 2.5707
10.1388 -10.4951 2.5585
10.3138 -10.4654 2.5462
10.4912 -10.4354 2.5337
10.6713 -10.4052 2.5210
10.8539 -10.3747 2.5082
11.0394 -10.3439 2.4951
11.2277 -10.3128 2.4818
11.4190 -10.2815 2.4683
11.6134 -10.2498 2.4545
11.8111 -10.2177 2.4406
12.0120 -10.1854 2.4264
12.2165 -10.1526 2.4119
12.4245 -10.1195 2.3972
12.6363 -10.0859 2.3822
12.8520 -10.0520 2.3669
13.0718 -10.0176 2.3513
13.2958 -9.9827 2.3355
13.5243 -9.9474 2.3193
13.7573 -9.9115 2.3027
13.9951 -9.8751 2.2859
14.2379 -9.8382 2.2686
14.4859 -9.8007 2.2510
14.7393 -9.7626 2.2330
14.9984 -9.7238 2.2146
15.2633 -9.6844 2.1957
15.5345 -9.6442 2.1765
15.8121 -9.6033 2.1567
16.0965 -9.5617 2.1365
16.3879 -9.5193 2.1157
16.6868 -9.4760 2.0944
16.9711 -9.4194 2.0698
17.2607 -9.3609 2.0445
17.5572 -9.3013 2.0186
8.0323 -4.1555 0.8958
7.8428 -3.9611 0.8479
7.6639 -3.7775 0.8027
7.5425 -3.6269 0.7647
7.4608 -3.4986 0.7316
7.3815 -3.3743 0.6995
7.3046 -3.2537 0.6683
7.2300 -3.1367 0.6381
7.1632 -3.0254 0.6091
7.1173 -2.9250 0.5825
7.0725 -2.8268 0.5564
7.0285 -2.7305 0.5309
6.9855 -2.6362 0.5058
6.9433 -2.5437 0.4811
6.9019 -2.4531 0.4570
6.8613 -2.3641 0.4332
6.8329 -2.2807 0.4106
-0.4592 -4.0453 1.2456
-0.4158 -4.0405 1.2441
-0.3726 -4.0356 1.2425
-0.3296 -4.0308 1.2410
-0.2867 -4.0259 1.2395
-0.2440 -4.0211 1.2379
-0.2015 -4.0163 1.2364
-0.1590 -4.0114 1.2349
-0.1168 -4.0066 1.2334
-0.0746 -4.0017 1.2319
-0.0326 -3.9969 1.2304
0.0093 -3.9920 1.2289
0.0511 -3.9872 1.2274
0.0929 -3.9823 1.2259
0.1345 -3.9775 1.2245
0.1761 -3.9726 1.2230
0.2176 -3.9677 1.2215
0.2590 -3.9628 1.2200
0.3004 -3.9579 1.2185
0.3418 -3.9530 1.2171
0.3831 -3.9481 1.2156
0.4244 -3.9431 1.2141
0.4656 -3.9382 1.2127
0.5069 -3.9332 1.2112
0.5482 -3.9282 1.2097
0.5894 -3.9232 1.2083
0.6307 -3.9182 1.2068
0.6720 -3.9132 1.2053
0.7133 -3.9081 1.2038
0.7546 -3.9030 1.2024
1.8742 -9.1777 2.8275
1.9741 -9.1762 2.8273
2.0743 -9.1746 2.8270
2.1749 -9.1729 2.8268
2.2759 -9.1713 2.8266
2.3773 -9.1695 2.8263
2.4793 -9.1678 2.8261
2.5817 -9.1659 2.8258
2.6846 -9.1641 2.8256
2.7880 -9.1621 2.8253
2.8920 -9.1602 2.8251
2.9965 -9.1582 2.8248
3.1017 -9.1561 2.8246
3.2075 -9.1540 2.8243
3.3139 -9.1518 2.8241
3.4210 -9.1495 2.8238
3.5289 -9.1473 2.8236
3.6374 -9.1449 2.8233
3.7467 -9.1425 2.8231
3.8568 -9.1400 2.8228
3.9678 -9.1375 2.8225
4.0796 -9.1349 2.8223
4.1922 -9.1323 2.8220
4.3058 -9.1296 2.8217
4.4203 -9.1268 2.8215
4.5358 -9.1240 2.8212
4.6524 -9.1211 2.8209
4.7700 -9.1181 2.8206
4.8886 -9.1151 2.8204
5.0084 -9.1119 2.8201
5.1294 -9.1087 2.8198
5.2516 -9.1055 2.8195
5.3750 -9.1021 2.8192
5.4997 -9.0987 2.8189
5.6257 -9.0951 2.8186
5.7456 -9.0795 2.8146
5.8644 -9.0606 2.8095
5.9840 -9.0412 2.8044
6.1050 -9.0221 2.7993
6.2274 -9.0035 2.7944
6.3503 -8.9837 2.7892
6.4745 -8.9640 2.7841
6.5998 -8.9440 2.7788
6.7264 -8.9239 2.7736
6.8539 -8.9032 2.7681
6.9829 -8.8824 2.7627
7.1134 -8.8616 2.7574
7.2453 -8.8406 2.7519
7.3783 -8.8188 2.7463
7.5130 -8.7972 2.7407
7.6491 -8.7752 2.7350
7.7867 -8.7527 2.7293
7.9260 -8.7299 2.7234
8.0669 -8.7068 2.7175
8.2095 -8.6833 2.7115
8.3539 -8.6595 2.7055
8.5000 -8.6352 2.6993
8.6462 -8.6086 2.6924
8.7942 -8.5817 2.6855
8.9442 -8.5544 2.6784
9.0963 -8.5266 2.6713
9.2504 -8.4984 2.6641
9.4055 -8.4686 2.6564
9.5603 -8.4363 2.6480
9.7173 -8.4034 2.6394
9.8765 -8.3701 2.6307
10.0380 -8.3362 2.6219
10.2020 -8.3017 2.6129
10.3683 -8.2667 2.6039
10.5368 -8.2307 2.5945
10.7048 -8.1918 2.5843
10.8755 -8.1521 2.5739
11.0488 -8.1118 2.5634
11.2248 -8.0708 2.5527
11.4038 -8.0291 2.5418
11.5857 -7.9866 2.5307
11.7707 -7.9433 2.5194
11.9589 -7.8993 2.5080
12.1505 -7.8544 2.4963
12.3438 -7.8076 2.4841
12.4943 -7.7311 2.4626
12.6921 -7.6814 2.4496
12.9396 -7.6580 2.4451
13.1457 -7.6062 2.4316
13.3558 -7.5533 2.4178
13.5700 -7.4992 2.4037
13.7885 -7.4441 2.3894
14.0115 -7.3877 2.3748
7.9920 -4.1142 1.3245
7.8037 -3.9209 1.2643
7.6259 -3.7385 1.2075
7.5238 -3.5975 1.1639
7.4421 -3.4694 1.1245
7.3629 -3.3452 1.0863
7.2862 -3.2248 1.0493
7.2117 -3.1080 1.0134
7.1514 -2.9996 0.9802
7.1055 -2.8992 0.9495
7.0607 -2.8009 0.9195
7.0167 -2.7047 0.8902
6.9737 -2.6104 0.8614
6.9315 -2.5180 0.8332
6.8902 -2.4274 0.8056
6.8503 -2.3388 0.7786
6.8257 -2.2566 0.7537
6.8015 -2.1756 0.7292
-0.4050 -3.5180 1.2664
-0.3669 -3.5161 1.2654
-0.3290 -3.5142 1.2645
-0.2912 -3.5123 1.2636
-0.2535 -3.5104 1.2628
-0.2159 -3.5085 1.2619
-0.1784 -3.5066 1.2611
-0.1409 -3.5047 1.2603
-0.1035 -3.5028 1.2596
-0.0662 -3.5009 1.2589
-0.0289 -3.4990 1.2581
0.0083 -3.4971 1.2575
0.0455 -3.4952 1.2568
0.0826 -3.4933 1.2562
0.1197 -3.4914 1.2556
0.1568 -3.4896 1.2550
0.1939 -3.4877 1.2544
0.2311 -3.4858 1.2538
0.2682 -3.4839 1.2533
0.3053 -3.4820 1.2528
0.3424 -3.4802 1.2524
0.3796 -3.4783 1.2519
0.4168 -3.4764 1.2515
0.4541 -3.4745 1.2511
0.4914 -3.4726 1.2507
0.5288 -3.4707 1.2503
0.5662 -3.4688 1.2500
0.6038 -3.4669 1.2497
0.6414 -3.4650 1.2494
0.6791 -3.4631 1.2491
0.7169 -3.4612 1.2488
0.7548 -3.4593 1.2486
1.7961 -7.8321 2.8281
1.8827 -7.8284 2.8279
1.9696 -7.8244 2.8277
2.0568 -7.8203 2.8275
2.1443 -7.8160 2.8273
2.2321 -7.8115 2.8271
2.3203 -7.8069 2.8269
2.4088 -7.8021 2.8266
2.4977 -7.7972 2.8264
2.5870 -7.7921 2.8262
2.6767 -7.7867 2.8260
2.7668 -7.7813 2.8258
2.8573 -7.7756 2.8256
2.9484 -7.7698 2.8254
3.0399 -7.7637 2.8252
3.1318 -7.7575 2.8249
3.2243 -7.7511 2.8247
3.3174 -7.7445 2.8245
3.4109 -7.7378 2.8243
3.5051 -7.7308 2.8241
3.5998 -7.7236 2.8238
3.6952 -7.7162 2.8236
3.7912 -7.7086 2.8234
3.8878 -7.7008 2.8232
3.9851 -7.6928 2.8229
4.0831 -7.6845 2.8227
4.1818 -7.6761 2.8225
4.2812 -7.6674 2.8222
4.3814 -7.6585 2.8220
4.4824 -7.6494 2.8218
4.5843 -7.6400 2.8215
4.6869 -7.6304 2.8213
4.7905 -7.6205 2.8210
4.8949 -7.6104 2.8208
5.0002 -7.6000 2.8206
5.1065 -7.5893 2.8203
5.2138 -7.5784 2.8201
5.3221 -7.5672 2.8198
5.4314 -7.5558 2.8195
5.5419 -7.5440 2.8193
5.6534 -7.5319 2.8190
5.7661 -7.5196 2.8188
5.8784 -7.5051 2.8178
5.9851 -7.4816 2.8136
6.0921 -7.4572 2.8091
6.1997 -7.4321 2.8045
6.3082 -7.4065 2.7998
6.4184 -7.3815 2.7954
6.5290 -7.3555 2.7908
6.6407 -7.3291 2.7861
6.7535 -7.3024 2.7815
6.8674 -7.2753 2.7768
6.9824 -7.2479 2.7721
7.0983 -7.2197 2.7672
7.2157 -7.1914 2.7624
7.3342 -7.1625 2.7576
7.4540 -7.1332 2.7527
7.5750 -7.1033 2.7478
7.6973 -7.0729 2.7428
7.8210 -7.0420 2.7377
7.9459 -7.0103 2.7325
8.0723 -6.9782 2.7273
8.2001 -6.9454 2.7220
8.3295 -6.9120 2.7166
8.4606 -6.8782 2.7113
8.5932 -6.8436 2.7058
8.7273 -6.8082 2.7002
8.8616 -6.7710 2.6940
8.9974 -6.7329 2.6877
9.1350 -6.6942 2.6814
9.2745 -6.6547 2.6749
9.4158 -6.6145 2.6684
9.5591 -6.5735 2.6618
9.2369 -6.2171 2.5272
9.3772 -6.1765 2.5207
9.5196 -6.1352 2.5141
9.6646 -6.0933 2.5076
9.8118 -6.0506 2.5010
9.9613 -6.0071 2.4942
10.1132 -5.9626 2.4874
10.2675 -5.9171 2.4804
10.4215 -5.8690 2.4727
10.5761 -5.8190 2.4644
10.7333 -5.7679 2.4560
10.8931 -5.7157 2.4474
7.9515 -4.0726 1.7540
7.7643 -3.8805 1.6813
7.5891 -3.6999 1.6131
7.5048 -3.5678 1.5657
7.4232 -3.4398 1.5197
7.3442 -3.3158 1.4753
7.2675 -3.1956 1.4323
7.1932 -3.0790 1.3905
7.1394 -2.9734 1.3536
7.0936 -2.8731 1.3188
7.0488 -2.7748 1.2848
7.0048 -2.6786 1.2515
6.9618 -2.5844 1.2190
6.9197 -2.4921 1.1872
6.8784 -2.4015 1.1560
6.8431 -2.3145 1.1264
6.8185 -2.2323 1.0989
6.7942 -2.1513 1.0718
6.7702 -2.0713 1.0452
-0.4109 -3.5193 1.4562
-0.3723 -3.5174 1.4550
-0.3338 -3.5154 1.4538
-0.2955 -3.5135 1.4526
-0.2572 -3.5115 1.4515
-0.2190 -3.5096 1.4504
-0.1810 -3.5077 1.4494
-0.1430 -3.5057 1.4484
-0.1050 -3.5038 1.4475
-0.0672 -3.5019 1.4466
-0.0294 -3.5000 1.4457
0.0084 -3.4981 1.4449
0.0461 -3.4961 1.4442
0.0838 -3.4942 1.4435
0.1215 -3.4923 1.4428
0.1591 -3.4904 1.4422
0.1968 -3.4885 1.4416
0.2344 -3.4866 1.4410
0.2721 -3.4847 1.4405
0.3097 -3.4828 1.4401
0.3474 -3.4809 1.4397
0.3851 -3.4790 1.4393
0.4229 -3.4771 1.4390
0.4607 -3.4751 1.4387
0.4986 -3.4732 1.4384
0.5365 -3.4713 1.4382
0.5745 -3.4694 1.4381
0.6126 -3.4675 1.4379
0.6508 -3.4655 1.4379
0.6891 -3.4636 1.4378
0.7274 -3.4616 1.4378
0.7659 -3.4597 1.4379
1.5827 -6.8023 2.8289
1.6587 -6.7973 2.8287
1.7349 -6.7921 2.8286
1.8112 -6.7867 2.8284
1.8878 -6.7811 2.8282
1.9646 -6.7752 2.8280
2.0417 -6.7692 2.8278
2.1190 -6.7628 2.8277
2.1966 -6.7563 2.8275
2.2744 -6.7495 2.8273
2.3525 -6.7425 2.8271
2.4310 -6.7352 2.8269
2.5097 -6.7277 2.8267
2.5887 -6.7200 2.8265
2.6681 -6.7120 2.8264
2.7478 -6.7037 2.8262
2.8279 -6.6953 2.8260
2.9083 -6.6865 2.8258
2.9892 -6.6775 2.8256
3.0704 -6.6682 2.8254
3.1520 -6.6587 2.8252
3.2340 -6.6488 2.8250
3.3165 -6.6388 2.8248
3.3994 -6.6284 2.8246
3.4828 -6.6177 2.8245
3.5667 -6.6068 2.8243
3.6510 -6.5956 2.8241
3.7358 -6.5841 2.8239
3.8212 -6.5722 2.8237
3.9071 -6.5601 2.8235
3.9936 -6.5477 2.8233
4.0806 -6.5350 2.8231
4.1682 -6.5219 2.8229
4.2564 -6.5085 2.8226
4.3452 -6.4948 2.8224
4.4347 -6.4807 2.8222
4.5248 -6.4663 2.8220
4.6156 -6.4516 2.8218
4.7071 -6.4365 2.8216
4.7993 -6.4210 2.8214
4.8922 -6.4052 2.8212
4.9859 -6.3890 2.8210
5.0804 -6.3724 2.8207
5.1757 -6.3555 2.8205
5.2718 -6.3381 2.8203
5.3687 -6.3203 2.8201
5.4665 -6.3021 2.8198
5.5652 -6.2835 2.8196
5.6648 -6.2644 2.8194
5.7654 -6.2450 2.8191
5.8670 -6.2250 2.8189
5.9695 -6.2046 2.8187
6.0710 -6.1816 2.8175
6.1674 -6.1521 2.8135
6.2645 -6.1221 2.8095
6.3622 -6.0913 2.8053
6.4606 -6.0600 2.8011
6.5600 -6.0283 2.7970
6.6603 -5.9962 2.7928
6.7615 -5.9634 2.7886
6.8654 -5.9318 2.7852
6.9716 -5.9007 2.7822
7.0790 -5.8690 2.7792
7.1867 -5.8362 2.7759
7.2955 -5.8027 2.7726
7.0501 -5.4918 2.6364
7.1561 -5.4588 2.6332
7.2632 -5.4252 2.6300
7.3713 -5.3907 2.6267
7.4783 -5.3540 2.6226
7.5880 -5.3176 2.6189
7.6988 -5.2804 2.6151
7.8108 -5.2425 2.6113
7.9200 -5.2011 2.6061
8.0305 -5.1590 2.6009
8.1453 -5.1180 2.5965
8.2612 -5.0762 2.5921
8.3711 -5.0290 2.5853
8.4839 -4.9819 2.5789
8.6027 -4.9368 2.5739
8.7167 -4.8873 2.5670
8.8266 -4.8339 2.5584
8.9434 -4.7827 2.5514
9.0751 -4.7376 2.5481
7.9097 -4.0297 2.1857
7.7237 -3.8388 2.1005
7.5694 -3.6689 2.0259
7.4852 -3.5370 1.9714
7.4038 -3.4092 1.9189
7.3248 -3.2855 1.8680
7.2483 -3.1655 1.8188
7.1741 -3.0491 1.7712
7.1271 -2.9464 1.7311
7.0813 -2.8461 1.6920
7.0365 -2.7479 1.6538
6.9926 -2.6518 1.6165
6.9496 -2.5576 1.5801
6.9075 -2.4654 1.5445
6.8662 -2.3749 1.5097
6.8356 -2.2895 1.4778
6.8110 -2.2073 1.4476
6.7867 -2.1262 1.4179
6.7628 -2.0463 1.3888
6.7391 -1.9675 1.3601
-0.4171 -3.5207 1.6538
-0.3779 -3.5187 1.6522
-0.3389 -3.5167 1.6506
-0.2999 -3.5147 1.6492
-0.2611 -3.5127 1.6478
-0.2223 -3.5108 1.6464
-0.1837 -3.5088 1.6452
-0.1451 -3.5069 1.6440
-0.1066 -3.5049 1.6429
-0.0682 -3.5030 1.6418
-0.0298 -3.5010 1.6408
0.0085 -3.4991 1.6399
0.0468 -3.4971 1.6390
0.0851 -3.4952 1.6382
0.1233 -3.4932 1.6375
0.1615 -3.4913 1.6368
0.1997 -3.4894 1.6362
0.2379 -3.4874 1.6357
0.2761 -3.4855 1.6352
0.3143 -3.4836 1.6348
0.3526 -3.4816 1.6344
0.3909 -3.4797 1.6341
0.4292 -3.4778 1.6339
0.4676 -3.4758 1.6337
0.5060 -3.4739 1.6337
0.5445 -3.4719 1.6336
0.5831 -3.4700 1.6337
0.6218 -3.4680 1.6338
0.6605 -3.4660 1.6339
0.6994 -3.4641 1.6341
0.7384 -3.4621 1.6344
0.7775 -3.4601 1.6348
1.4132 -5.9839 2.8296
1.4808 -5.9784 2.8294
1.5485 -5.9726 2.8292
1.6163 -5.9665 2.8291
1.6844 -5.9601 2.8289
1.7526 -5.9536 2.8288
1.8209 -5.9467 2.8286
1.8894 -5.9396 2.8284
1.9582 -5.9322 2.8283
2.0271 -5.9246 2.8281
2.0962 -5.9166 2.8280
2.1655 -5.9085 2.8278
2.2351 -5.9000 2.8276
2.3048 -5.8913 2.8275
2.3748 -5.8822 2.8273
2.4451 -5.8730 2.8271
2.5156 -5.8634 2.8270
2.5863 -5.8535 2.8268
2.6573 -5.8433 2.8266
2.7286 -5.8329 2.8265
2.8002 -5.8221 2.8263
2.8721 -5.8111 2.8261
2.9443 -5.7997 2.8260
3.0168 -5.7881 2.8258
3.0896 -5.7761 2.8256
3.1627 -5.7638 2.8255
3.2362 -5.7512 2.8253
3.3100 -5.7382 2.8251
3.3842 -5.7250 2.8250
3.4588 -5.7114 2.8248
3.5337 -5.6975 2.8246
3.6091 -5.6832 2.8244
3.6848 -5.6686 2.8243
3.7610 -5.6536 2.8241
3.8376 -5.6383 2.8239
3.9146 -5.6226 2.8237
3.9921 -5.6065 2.8235
4.0700 -5.5900 2.8234
4.1484 -5.5732 2.8232
4.2273 -5.5560 2.8230
4.3067 -5.5384 2.8228
4.3866 -5.5205 2.8226
4.4670 -5.5020 2.8225
4.5480 -5.4832 2.8223
4.6295 -5.4640 2.8221
4.7116 -5.4443 2.8219
4.7943 -5.4242 2.8217
4.8776 -5.4037 2.8215
4.9615 -5.3827 2.8213
5.0460 -5.3613 2.8211
5.1335 -5.3418 2.8222
5.2215 -5.3216 2.8232
5.3103 -5.3009 2.8241
5.3999 -5.2797 2.8251
5.4903 -5.2580 2.8261
5.5816 -5.2359 2.8272
5.6734 -5.2129 2.8280
5.7659 -5.1893 2.8289
5.8594 -5.1651 2.8297
5.9507 -5.1377 2.8291
6.0418 -5.1089 2.8280
6.1334 -5.0794 2.8268
6.2254 -5.0488 2.8254
6.3182 -5.0177 2.8240
6.1822 -4.8074 2.7215
6.1837 -4.7080 2.6813
6.2750 -4.6772 2.6802
6.3670 -4.6455 2.6790
6.4598 -4.6132 2.6778
6.5535 -4.5802 2.6766
6.6482 -4.5466 2.6753
6.7437 -4.5122 2.6740
6.8398 -4.4769 2.6726
6.9369 -4.4408 2.6711
7.0350 -4.4040 2.6696
7.1310 -4.3645 2.6669
7.2266 -4.3235 2.6637
7.3239 -4.2821 2.6608
7.4245 -4.2413 2.6587
7.5263 -4.1997 2.6565
7.6289 -4.1570 2.6542
7.7295 -4.1119 2.6509
7.8282 -4.0644 2.6464
7.8655 -3.9844 2.6212
7.6808 -3.7948 2.5232
7.5485 -3.6362 2.4445
7.4645 -3.5044 2.3829
7.3832 -3.3769 2.3235
7.3044 -3.2534 2.2660
7.2281 -3.1337 2.2105
7.1609 -3.0205 2.1588
7.1141 -2.9180 2.1141
7.0683 -2.8177 2.0706
7.0235 -2.7196 2.0282
6.9797 -2.6235 1.9867
6.9368 -2.5295 1.9462
6.8947 -2.4373 1.9067
6.8535 -2.3470 1.8681
6.8277 -2.2633 1.8343
6.8031 -2.1811 1.8013
6.7788 -2.1000 1.7689
6.7549 -2.0201 1.7371
6.7313 -1.9413 1.7058
6.7080 -1.8636 1.6751
-0.4236 -3.5221 1.8603
-0.3838 -3.5201 1.8583
-0.3441 -3.5180 1.8564
-0.3046 -3.5160 1.8546
-0.2651 -3.5140 1.8530
-0.2258 -3.5120 1.8513
-0.1865 -3.5100 1.8498
-0.1473 -3.5080 1.8484
-0.1082 -3.5061 1.8471
-0.0692 -3.5041 1.8458
-0.0303 -3.5021 1.8447
0.0087 -3.5001 1.8436
0.0475 -3.4981 1.8427
0.0864 -3.4962 1.8418
0.1252 -3.4942 1.8410
0.1640 -3.4922 1.8403
0.2028 -3.4903 1.8396
0.2416 -3.4883 1.8391
0.2804 -3.4864 1.8386
0.3192 -3.4844 1.8383
0.3580 -3.4824 1.8380
0.3969 -3.4804 1.8378
0.4358 -3.4785 1.8377
0.4748 -3.4765 1.8377
0.5138 -3.4745 1.8377
0.5529 -3.4726 1.8379
0.5921 -3.4706 1.8381
0.6314 -3.4686 1.8385
0.6708 -3.4666 1.8389
0.7102 -3.4646 1.8394
0.7498 -3.4626 1.8400
1.2140 -5.3211 2.8302
1.2747 -5.3155 2.8301
1.3355 -5.3096 2.8299
1.3963 -5.3035 2.8298
1.4573 -5.2971 2.8297
1.5185 -5.2904 2.8295
1.5796 -5.2835 2.8294
1.6406 -5.2762 2.8292
1.7024 -5.2687 2.8291
1.7640 -5.2610 2.8289
1.8257 -5.2529 2.8288
1.8876 -5.2446 2.8287
1.9496 -5.2359 2.8285
2.0118 -5.2270 2.8284
2.0741 -5.2178 2.8282
2.1366 -5.2083 2.8281
2.1993 -5.1985 2.8279
2.2622 -5.1884 2.8278
2.3256 -5.1788 2.8281
2.3893 -5.1692 2.8285
2.4533 -5.1593 2.8290
2.5175 -5.1492 2.8295
2.5820 -5.1387 2.8300
2.6467 -5.1280 2.8305
2.7117 -5.1169 2.8310
2.7770 -5.1056 2.8316
2.8425 -5.0939 2.8321
2.9082 -5.0817 2.8326
2.9742 -5.0692 2.8330
3.0405 -5.0563 2.8335
3.1071 -5.0431 2.8339
3.1739 -5.0296 2.8344
3.2412 -5.0157 2.8349
3.3087 -5.0015 2.8354
3.3765 -4.9870 2.8359
3.4448 -4.9721 2.8364
3.5132 -4.9567 2.8368
3.5819 -4.9408 2.8372
3.6510 -4.9246 2.8376
3.7205 -4.9080 2.8380
3.7903 -4.8910 2.8385
3.8606 -4.8736 2.8389
3.9312 -4.8559 2.8394
4.0022 -4.8378 2.8398
4.0737 -4.8192 2.8403
4.1455 -4.8001 2.8407
4.2176 -4.7805 2.8411
4.2902 -4.7605 2.8414
4.3633 -4.7401 2.8418
4.4368 -4.7192 2.8422
4.5107 -4.6979 2.8426
4.5851 -4.6760 2.8430
4.6599 -4.6536 2.8433
4.7352 -4.6308 2.8436
4.8110 -4.6074 2.8440
4.8873 -4.5836 2.8443
4.9642 -4.5593 2.8447
5.0413 -4.5342 2.8449
5.1191 -4.5086 2.8451
5.1973 -4.4825 2.8454
5.2762 -4.4559 2.8456
5.3552 -4.4284 2.8456
5.4345 -4.4000 2.8455
5.5142 -4.3709 2.8452
5.5945 -4.3413 2.8450
5.6754 -4.3111 2.8448
5.7277 -4.2585 2.8301
5.6347 -4.1001 2.7447
5.6111 -3.9954 2.6948
5.6905 -3.9647 2.6947
5.7706 -3.9333 2.6947
5.8513 -3.9013 2.6946
5.9323 -3.8684 2.6943
6.0141 -3.8348 2.6941
6.0966 -3.8006 2.6939
6.1798 -3.7658 2.6937
6.2638 -3.7302 2.6934
6.3485 -3.6939 2.6932
6.4341 -3.6569 2.6930
6.5204 -3.6192 2.6928
6.6076 -3.5807 2.6926
6.6956 -3.5414 2.6923
6.7844 -3.5013 2.6921
6.8740 -3.4603 2.6919
6.9645 -3.4185 2.6916
7.0559 -3.3759 2.6913
7.1483 -3.3324 2.6910
7.2416 -3.2879 2.6908
7.2824 -3.2190 2.6708
7.2063 -3.0996 2.6087
7.1469 -2.9898 2.5538
7.1002 -2.8874 2.5044
7.0544 -2.7873 2.4563
7.0097 -2.6893 2.4094
6.9659 -2.5934 2.3636
6.9231 -2.4994 2.3189
6.8810 -2.4074 2.2753
6.8443 -2.3188 2.2342
6.8194 -2.2353 2.1976
6.7947 -2.1531 2.1616
6.7705 -2.0721 2.1264
6.7466 -1.9923 2.0918
6.7230 -1.9135 2.0578
6.6997 -1.8358 2.0244
6.6768 -1.7591 1.9916
-0.4304 -3.5236 2.0774
-0.3900 -3.5215 2.0750
-0.3496 -3.5194 2.0728
-0.3094 -3.5174 2.0707
-0.2693 -3.5154 2.0686
-0.2294 -3.5133 2.0667
-0.1895 -3.5113 2.0650
-0.1497 -3.5093 2.0633
-0.1100 -3.5073 2.0617
-0.0703 -3.5052 2.0603
-0.0307 -3.5032 2.0590
0.0088 -3.5012 2.0578
0.0483 -3.4992 2.0567
0.0877 -3.4972 2.0557
0.1272 -3.4952 2.0548
0.1666 -3.4932 2.0541
0.2060 -3.4912 2.0534
0.2454 -3.4892 2.0529
0.2848 -3.4872 2.0524
0.3242 -3.4852 2.0521
0.3637 -3.4832 2.0519
0.4032 -3.4812 2.0518
0.4427 -3.4792 2.0518
0.4823 -3.4772 2.0520
0.5220 -3.4752 2.0522
0.5618 -3.4732 2.0526
0.6016 -3.4712 2.0530
0.6415 -3.4692 2.0536
0.6815 -3.4672 2.0543
0.7216 -3.4652 2.0551
0.7619 -3.4631 2.0560
0.8869 -3.8262 2.2741
1.1638 -4.7766 2.8422
1.2192 -4.7710 2.8424
1.2747 -4.7652 2.8425
1.3303 -4.7590 2.8426
1.3861 -4.7526 2.8427
1.4419 -4.7459 2.8428
1.4978 -4.7389 2.8429
1.5538 -4.7317 2.8431
1.6099 -4.7242 2.8432
1.6661 -4.7164 2.8433
1.7224 -4.7083 2.8435
1.7789 -4.6999 2.8436
1.8355 -4.6912 2.8438
1.8922 -4.6823 2.8439
1.9490 -4.6730 2.8441
2.0060 -4.6634 2.8442
2.0631 -4.6535 2.8443
2.1204 -4.6433 2.8445
2.1778 -4.6329 2.8446
2.2353 -4.6221 2.8448
2.2930 -4.6110 2.8449
2.3509 -4.5996 2.8451
2.4089 -4.5879 2.8453
2.4671 -4.5758 2.8454
2.5255 -4.5633 2.8455
2.5840 -4.5506 2.8456
2.6427 -4.5374 2.8457
2.7016 -4.5240 2.8458
2.7606 -4.5103 2.8460
2.8199 -4.4962 2.8461
2.8794 -4.4817 2.8462
2.9391 -4.4669 2.8463
2.9990 -4.4517 2.8465
3.0591 -4.4363 2.8466
3.1194 -4.4204 2.8467
3.1800 -4.4042 2.8469
3.2408 -4.3876 2.8470
3.3018 -4.3706 2.8472
3.3630 -4.3532 2.8472
3.4244 -4.3353 2.8473
3.4860 -4.3170 2.8473
3.5479 -4.2984 2.8474
3.6101 -4.2794 2.8474
3.6725 -4.2599 2.8475
3.7352 -4.2400 2.8475
3.7982 -4.2198 2.8476
3.8615 -4.1991 2.8476
3.9250 -4.1780 2.8477
3.9889 -4.1565 2.8478
4.0530 -4.1345 2.8478
4.1174 -4.1121 2.8479
4.1821 -4.0891 2.8479
4.2471 -4.0657 2.8479
4.3125 -4.0419 2.8479
4.3781 -4.0175 2.8479
4.4441 -3.9927 2.8479
4.5105 -3.9674 2.8479
4.5772 -3.9416 2.8479
4.6442 -3.9154 2.8479
4.7116 -3.8885 2.8479
4.7794 -3.8612 2.8479
4.8476 -3.8334 2.8479
4.9162 -3.8050 2.8479
4.9851 -3.7761 2.8479
5.0545 -3.7467 2.8479
5.1243 -3.7166 2.8479
5.1945 -3.6861 2.8479
5.2652 -3.6549 2.8479
5.3334 -3.6212 2.8463
5.2904 -3.5129 2.7861
5.2594 -3.4147 2.7333
5.2551 -3.3357 2.6955
5.3242 -3.3033 2.6955
5.3937 -3.2703 2.6955
5.4637 -3.2367 2.6955
5.5341 -3.2024 2.6955
5.6051 -3.1676 2.6955
5.6765 -3.1320 2.6955
5.7485 -3.0958 2.6955
5.8210 -3.0589 2.6955
5.8940 -3.0214 2.6955
5.9675 -2.9831 2.6955
6.0417 -2.9441 2.6955
6.1164 -2.9043 2.6955
6.1916 -2.8638 2.6955
6.2675 -2.8226 2.6955
6.3440 -2.7805 2.6955
6.4210 -2.7377 2.6955
6.4988 -2.6941 2.6955
6.5771 -2.6496 2.6955
6.6562 -2.6042 2.6955
6.7358 -2.5581 2.6955
6.8162 -2.5109 2.6955
6.8973 -2.4630 2.6955
6.8663 -2.3751 2.6519
6.8353 -2.2884 2.6091
6.8103 -2.2051 2.5692
6.7857 -2.1229 2.5302
6.7615 -2.0420 2.4919
6.7376 -1.9622 2.4544
6.7140 -1.8835 2.4175
6.6908 -1.8059 2.3814
6.6678 -1.7293 2.3459
6.6456 -1.6538 2.3113
-0.4377 -3.5251 2.3070
-0.3965 -3.5230 2.3042
-0.3555 -3.5209 2.3015
-0.3146 -3.5188 2.2990
-0.2738 -3.5168 2.2967
-0.2332 -3.5147 2.2944
-0.1926 -3.5126 2.2924
-0.1522 -3.5106 2.2904
-0.1118 -3.5085 2.2886
-0.0715 -3.5065 2.2870
-0.0312 -3.5044 2.2855
0.0089 -3.5024 2.2841
0.0491 -3.5004 2.2829
0.0892 -3.4983 2.2818
0.1293 -3.4963 2.2808
0.1693 -3.4943 2.2800
0.2094 -3.4922 2.2794
0.2494 -3.4902 2.2788
0.2895 -3.4882 2.2784
0.3296 -3.4861 2.2782
0.3697 -3.4841 2.2780
0.4099 -3.4821 2.2781
0.4501 -3.4800 2.2782
0.4903 -3.4780 2.2785
0.5307 -3.4760 2.2789
0.5711 -3.4739 2.2795
0.6116 -3.4719 2.2802
0.6522 -3.4698 2.2811
0.6928 -3.4678 2.2821
0.7337 -3.4657 2.2832
0.7746 -3.4637 2.2845
0.8655 -3.6733 2.4257
0.9224 -3.7240 2.4624
1.1174 -4.3010 2.8478
1.1681 -4.2950 2.8478
1.2189 -4.2886 2.8478
1.2698 -4.2820 2.8478
1.3207 -4.2751 2.8478
1.3717 -4.2679 2.8478
1.4227 -4.2604 2.8478
1.4738 -4.2526 2.8479
1.5250 -4.2446 2.8479
1.5763 -4.2362 2.8479
1.6276 -4.2275 2.8479
1.6790 -4.2186 2.8479
1.7305 -4.2094 2.8479
1.7821 -4.1998 2.8479
1.8338 -4.1900 2.8479
1.8856 -4.1799 2.8479
1.9375 -4.1695 2.8479
1.9895 -4.1587 2.8479
2.0415 -4.1477 2.8479
2.0937 -4.1363 2.8479
2.1460 -4.1247 2.8479
2.1984 -4.1127 2.8479
2.2509 -4.1004 2.8479
2.3035 -4.0878 2.8479
2.3563 -4.0749 2.8479
2.4091 -4.0616 2.8479
2.4621 -4.0480 2.8479
2.5153 -4.0341 2.8479
2.5685 -4.0199 2.8479
2.6219 -4.0053 2.8479
2.6754 -3.9904 2.8479
2.7291 -3.9751 2.8479
2.7829 -3.9595 2.8479
2.8369 -3.9436 2.8479
2.8910 -3.9273 2.8479
2.9452 -3.9106 2.8479
2.9996 -3.8936 2.8479
3.0542 -3.8762 2.8479
3.1090 -3.8584 2.8479
3.1639 -3.8403 2.8479
3.2190 -3.8218 2.8479
3.2742 -3.8029 2.8479
3.3296 -3.7836 2.8479
3.3853 -3.7640 2.8479
3.4411 -3.7439 2.8479
3.4970 -3.7235 2.8479
3.5532 -3.7026 2.8479
3.6096 -3.6813 2.8479
3.6662 -3.6597 2.8479
3.7230 -3.6376 2.8479
3.7799 -3.6151 2.8479
3.8371 -3.5921 2.8479
3.8945 -3.5687 2.8479
3.9522 -3.5449 2.8479
4.0100 -3.5206 2.8479
4.0681 -3.4959 2.8479
4.1264 -3.4707 2.8479
4.1850 -3.4451 2.8479
4.2438 -3.4190 2.8479
4.3028 -3.3924 2.8479
4.3621 -3.3653 2.8479
4.4217 -3.3377 2.8479
4.4815 -3.3097 2.8479
4.5415 -3.2811 2.8479
4.6019 -3.2520 2.8479
4.6625 -3.2224 2.8479
4.7233 -3.1923 2.8479
4.7845 -3.1616 2.8479
4.8460 -3.1304 2.8479
4.9077 -3.0986 2.8479
4.9697 -3.0663 2.8479
5.0321 -3.0334 2.8479
5.0782 -2.9902 2.8386
5.0604 -2.9100 2.7941
5.0455 -2.8327 2.7521
5.0352 -2.7594 2.7135
5.0623 -2.7071 2.6955
5.1231 -2.6725 2.6955
5.1843 -2.6374 2.6955
5.2458 -2.6016 2.6955
5.3076 -2.5652 2.6955
5.3697 -2.5282 2.6955
5.4322 -2.4905 2.6955
5.4951 -2.4522 2.6955
5.5583 -2.4132 2.6955
5.6219 -2.3735 2.6955
5.6858 -2.3331 2.6955
5.7502 -2.2921 2.6955
5.8149 -2.2503 2.6955
5.8800 -2.2078 2.6955
5.9455 -2.1645 2.6955
6.0114 -2.1205 2.6955
6.0777 -2.0757 2.6955
6.1444 -2.0302 2.6955
6.2115 -1.9839 2.6955
6.2791 -1.9367 2.6955
6.3471 -1.8887 2.6955
6.4156 -1.8398 2.6955
6.4845 -1.7901 2.6955
6.5539 -1.7395 2.6955
6.6237 -1.6881 2.6955
6.6440 -1.6235 2.6753
6.6401 -1.5532 2.6458
-0.4453 -3.5268 2.5513
-0.4034 -3.5246 2.5480
-0.3617 -3.5225 2.5449
-0.3201 -3.5204 2.5420
-0.2786 -3.5183 2.5392
-0.2372 -3.5162 2.5366
-0.1960 -3.5141 2.5342
-0.1548 -3.5120 2.5320
-0.1137 -3.5099 2.5299
-0.0727 -3.5078 2.5281
-0.0318 -3.5057 2.5263
0.0091 -3.5036 2.5248
0.0499 -3.5016 2.5234
0.0907 -3.4995 2.5222
0.1315 -3.4974 2.5212
0.1723 -3.4954 2.5203
0.2130 -3.4933 2.5196
0.2538 -3.4912 2.5191
0.2945 -3.4892 2.5187
0.3353 -3.4871 2.5185
0.3761 -3.4850 2.5185
0.4170 -3.4830 2.5186
0.4579 -3.4809 2.5189
0.4988 -3.4788 2.5194
0.5399 -3.4768 2.5200
0.5810 -3.4747 2.5209
0.6222 -3.4726 2.5218
0.6635 -3.4705 2.5230
0.7049 -3.4684 2.5243
0.7465 -3.4663 2.5258
0.7881 -3.4642 2.5275
0.9344 -3.8981 2.8479
0.9809 -3.8926 2.8479
1.0274 -3.8869 2.8479
1.0739 -3.8808 2.8479
1.1205 -3.8745 2.8479
1.1671 -3.8679 2.8479
1.2138 -3.8610 2.8479
1.2605 -3.8539 2.8479
1.3073 -3.8465 2.8479
1.3541 -3.8388 2.8479
1.4009 -3.8308 2.8479
1.4478 -3.8225 2.8479
1.4948 -3.8140 2.8479
1.5418 -3.8051 2.8479
1.5889 -3.7960 2.8479
1.6360 -3.7866 2.8479
1.6832 -3.7769 2.8479
1.7305 -3.7669 2.8479
1.7778 -3.7566 2.8479
1.8252 -3.7460 2.8479
1.8727 -3.7351 2.8479
1.9202 -3.7240 2.8479
1.9678 -3.7125 2.8479
2.0155 -3.7007 2.8479
2.0633 -3.6886 2.8479
2.1111 -3.6761 2.8479
2.1590 -3.6634 2.8479
2.2070 -3.6504 2.8479
2.2551 -3.6370 2.8479
2.3033 -3.6234 2.8479
2.3516 -3.6094 2.8479
2.3999 -3.5950 2.8479
2.4484 -3.5804 2.8479
2.4969 -3.5654 2.8479
2.5455 -3.5501 2.8479
2.5943 -3.5345 2.8479
2.6431 -3.5185 2.8479
2.6921 -3.5022 2.8479
2.7411 -3.4855 2.8479
2.7902 -3.4685 2.8479
2.8395 -3.4511 2.8479
2.8889 -3.4334 2.8479
2.9383 -3.4153 2.8479
2.9879 -3.3969 2.8479
3.0376 -3.3781 2.8479
3.0875 -3.3589 2.8479
3.1374 -3.3394 2.8479
3.1875 -3.3195 2.8479
3.2377 -3.2992 2.8479
3.2880 -3.2785 2.8479
3.3385 -3.2574 2.8479
3.3891 -3.2360 2.8479
3.4398 -3.2141 2.8479
3.4906 -3.1918 2.8479
3.5416 -3.1691 2.8479
3.5928 -3.1461 2.8479
3.6440 -3.1226 2.8479
3.6955 -3.0987 2.8479
3.7470 -3.0743 2.8479
3.7988 -3.0496 2.8479
3.8506 -3.0244 2.8479
3.9027 -2.9987 2.8479
3.9548 -2.9726 2.8479
4.0072 -2.9461 2.8479
4.0597 -2.9191 2.8479
4.1123 -2.8916 2.8479
4.1652 -2.8637 2.8479
4.2182 -2.8353 2.8479
4.2713 -2.8064 2.8479
4.3247 -2.7770 2.8479
4.3782 -2.7471 2.8479
4.4319 -2.7167 2.8479
4.4858 -2.6859 2.8479
4.5399 -2.6545 2.8479
4.5941 -2.6226 2.8479
4.6485 -2.5901 2.8479
4.7032 -2.5572 2.8479
4.7580 -2.5236 2.8479
4.8130 -2.4896 2.8479
4.8682 -2.4549 2.8479
4.9236 -2.4198 2.8479
4.9326 -2.3617 2.8212
4.9291 -2.2982 2.7879
4.9255 -2.2355 2.7552
4.9220 -2.1736 2.7232
4.9314 -2.1180 2.6988
4.9790 -2.0787 2.6955
5.0329 -2.0415 2.6955
5.0869 -2.0036 2.6955
5.1412 -1.9651 2.6955
5.1957 -1.9260 2.6955
5.2504 -1.8862 2.6955
5.3053 -1.8458 2.6955
5.3605 -1.8048 2.6955
5.4159 -1.7631 2.6955
5.4715 -1.7207 2.6955
5.5273 -1.6777 2.6955
5.5834 -1.6339 2.6955
5.6397 -1.5895 2.6955
5.6963 -1.5443 2.6955
5.7531 -1.4984 2.6955
5.8101 -1.4518 2.6955
5.8674 -1.4045 2.6955
5.9249 -1.3563 2.6955
5.9827 -1.3074 2.6955
-0.4592 -3.5725 2.8479
-0.4166 -3.5751 2.8479
-0.3739 -3.5775 2.8479
-0.3313 -3.5796 2.8479
-0.2887 -3.5815 2.8479
-0.2461 -3.5831 2.8479
-0.2035 -3.5845 2.8479
-0.1609 -3.5856 2.8479
-0.1183 -3.5865 2.8479
-0.0757 -3.5870 2.8479
-0.0331 -3.5874 2.8479
0.0095 -3.5874 2.8479
0.0521 -3.5872 2.8479
0.0947 -3.5868 2.8479
0.1372 -3.5861 2.8479
0.1798 -3.5851 2.8479
0.2224 -3.5839 2.8479
0.2650 -3.5824 2.8479
0.3076 -3.5807 2.8479
0.3503 -3.5787 2.8479
0.3929 -3.5765 2.8479
0.4355 -3.5740 2.8479
0.4782 -3.5712 2.8479
0.5209 -3.5682 2.8479
0.5635 -3.5649 2.8479
0.6062 -3.5613 2.8479
0.6489 -3.5575 2.8479
0.6917 -3.5535 2.8479
0.7344 -3.5491 2.8479
0.7772 -3.5445 2.8479
0.8199 -3.5397 2.8479
0.8628 -3.5345 2.8479
0.9056 -3.5292 2.8479
0.9484 -3.5235 2.8479
0.9913 -3.5176 2.8479
1.0342 -3.5114 2.8479
1.0772 -3.5049 2.8479
1.1201 -3.4982 2.8479
1.1631 -3.4912 2.8479
1.2061 -3.4839 2.8479
1.2492 -3.4764 2.8479
1.2923 -3.4685 2.8479
1.3354 -3.4604 2.8479
1.3786 -3.4521 2.8479
1.4218 -3.4434 2.8479
1.4650 -3.4345 2.8479
1.5083 -3.4253 2.8479
1.5516 -3.4158 2.8479
1.5949 -3.4060 2.8479
1.6383 -3.3959 2.8479
1.6818 -3.3856 2.8479
1.7253 -3.3749 2.8479
1.7688 -3.3640 2.8479
1.8124 -3.3528 2.8479
1.8560 -3.3412 2.8479
1.8997 -3.3294 2.8479
1.9434 -3.3173 2.8479
1.9872 -3.3049 2.8479
2.0310 -3.2922 2.8479
2.0749 -3.2792 2.8479
2.1188 -3.2658 2.8479
2.1628 -3.2522 2.8479
2.2069 -3.2382 2.8479
2.2510 -3.2240 2.8479
2.2952 -3.2094 2.8479
2.3394 -3.1945 2.8479
2.3837 -3.1793 2.8479
2.4280 -3.1638 2.8479
2.4724 -3.1479 2.8479
2.5169 -3.1318 2.8479
2.5615 -3.1152 2.8479
2.6061 -3.0984 2.8479
2.6508 -3.0812 2.8479
2.6955 -3.0637 2.8479
2.7404 -3.0458 2.8479
2.7853 -3.0276 2.8479
2.8302 -3.0090 2.8479
2.8753 -2.9901 2.8479
2.9204 -2.9709 2.8479
2.9656 -2.9513 2.8479
3.0109 -2.9313 2.8479
3.0562 -2.9109 2.8479
3.1016 -2.8902 2.8479
3.1471 -2.8692 2.8479
3.1927 -2.8477 2.8479
3.2384 -2.8259 2.8479
3.2842 -2.8036 2.8479
3.3300 -2.7811 2.8479
3.3759 -2.7581 2.8479
3.4219 -2.7347 2.8479
3.4680 -2.7109 2.8479
3.5142 -2.6867 2.8479
3.5605 -2.6621 2.8479
3.6069 -2.6371 2.8479
3.6533 -2.6117 2.8479
3.6999 -2.5859 2.8479
3.7465 -2.5596 2.8479
3.7933 -2.5329 2.8479
3.8401 -2.5058 2.8479
3.8870 -2.4782 2.8479
3.9341 -2.4502 2.8479
3.9812 -2.4218 2.8479
4.0284 -2.3929 2.8479
4.0757 -2.3635 2.8479
4.1231 -2.3337 2.8479
4.1707 -2.3034 2.8479
4.2183 -2.2726 2.8479
4.2660 -2.2414 2.8479
4.3139 -2.2096 2.8479
4.3618 -2.1774 2.8479
4.4098 -2.1447 2.8479
4.4580 -2.1114 2.8479
4.5062 -2.0777 2.8479
4.5546 -2.0434 2.8479
4.6030 -2.0086 2.8479
4.6516 -1.9733 2.8479
4.7003 -1.9374 2.8479
4.7491 -1.9010 2.8479
4.7980 -1.8641 2.8479
4.8470 -1.8266 2.8479
4.8750 -1.7808 2.8356
4.8803 -1.7268 2.8104
4.8856 -1.6732 2.7856
4.8908 -1.6200 2.7613
4.8959 -1.5671 2.7372
5.0099 -1.3844 2.6955
4.9009 -1.5145 2.7136
5.0573 -1.3432 2.6955
4.9166 -1.4653 2.6962
5.1049 -1.3014 2.6955
4.9625 -1.4249 2.6955
5.1525 -1.2590 2.6955
5.2003 -1.2160 2.6955
5.2482 -1.1723 2.6955
5.2962 -1.1280 2.6955
5.3443 -1.0830 2.6955
-0.4255 -3.2487 2.8479
-0.3860 -3.2513 2.8479
-0.3465 -3.2536 2.8479
-0.3070 -3.2557 2.8479
-0.2675 -3.2575 2.8479
-0.2280 -3.2591 2.8479
-0.1886 -3.2605 2.8479
-0.1491 -3.2615 2.8479
-0.1096 -3.2623 2.8479
-0.0702 -3.2629 2.8479
-0.0307 -3.2633 2.8479
0.0088 -3.2633 2.8479
0.0483 -3.2631 2.8479
0.0877 -3.2627 2.8479
0.1272 -3.2620 2.8479
0.1667 -3.2611 2.8479
0.2061 -3.2599 2.8479
0.2456 -3.2585 2.8479
0.2851 -3.2568 2.8479
0.3246 -3.2548 2.8479
0.3641 -3.2526 2.8479
0.4036 -3.2502 2.8479
0.4431 -3.2475 2.8479
0.4826 -3.2445 2.8479
0.5221 -3.2413 2.8479
0.5617 -3.2379 2.8479
0.6012 -3.2341 2.8479
0.6408 -3.2302 2.8479
0.6803 -3.2259 2.8479
0.7199 -3.2215 2.8479
0.7595 -3.2167 2.8479
0.7991 -3.2117 2.8479
0.8387 -3.2065 2.8479
0.8783 -3.2010 2.8479
0.9180 -3.1952 2.8479
0.9576 -3.1892 2.8479
0.9973 -3.1828 2.8479
1.0370 -3.1763 2.8479
1.0767 -3.1695 2.8479
1.1165 -3.1624 2.8479
1.1562 -3.1550 2.8479
1.1960 -3.1474 2.8479
1.2358 -3.1395 2.8479
1.2756 -3.1314 2.8479
1.3154 -3.1230 2.8479
1.3553 -3.1143 2.8479
1.3951 -3.1053 2.8479
1.4350 -3.0961 2.8479
1.4750 -3.0866 2.8479
1.5149 -3.0768 2.8479
1.5549 -3.0667 2.8479
1.5949 -3.0564 2.8479
1.6349 -3.0457 2.8479
1.6750 -3.0348 2.8479
1.7150 -3.0237 2.8479
1.7552 -3.0122 2.8479
1.7953 -3.0004 2.8479
1.8355 -2.9884 2.8479
1.8757 -2.9761 2.8479
1.9159 -2.9634 2.8479
1.9561 -2.9505 2.8479
1.9964 -2.9373 2.8479
2.0368 -2.9238 2.8479
2.0771 -2.9100 2.8479
2.1175 -2.8959 2.8479
2.1579 -2.8815 2.8479
2.1984 -2.8668 2.8479
2.2389 -2.8518 2.8479
2.2794 -2.8365 2.8479
2.3199 -2.8208 2.8479
2.3605 -2.8049 2.8479
2.4012 -2.7886 2.8479
2.4418 -2.7721 2.8479
2.4825 -2.7552 2.8479
2.5233 -2.7379 2.8479
2.5641 -2.7204 2.8479
2.6049 -2.7025 2.8479
2.6457 -2.6843 2.8479
2.6866 -2.6658 2.8479
2.7276 -2.6469 2.8479
2.7685 -2.6277 2.8479
2.8096 -2.6082 2.8479
2.8506 -2.5883 2.8479
2.8917 -2.5680 2.8479
2.9329 -2.5475 2.8479
2.9740 -2.5265 2.8479
3.0152 -2.5052 2.8479
3.0565 -2.4836 2.8479
3.0978 -2.4616 2.8479
3.1392 -2.4392 2.8479
3.1805 -2.4165 2.8479
3.2220 -2.3934 2.8479
3.2634 -2.3699 2.8479
3.3049 -2.3460 2.8479
3.3465 -2.3217 2.8479
3.3881 -2.2971 2.8479
3.4297 -2.2721 2.8479
3.4714 -2.2467 2.8479
3.5131 -2.2209 2.8479
3.5549 -2.1947 2.8479
3.5967 -2.1681 2.8479
3.6386 -2.1410 2.8479
3.6805 -2.1136 2.8479
3.7224 -2.0857 2.8479
3.7644 -2.0575 2.8479
3.8064 -2.0288 2.8479
3.8484 -1.9997 2.8479
3.8905 -1.9701 2.8479
3.9327 -1.9401 2.8479
3.9748 -1.9096 2.8479
4.0171 -1.8788 2.8479
4.0593 -1.8474 2.8479
4.1016 -1.8156 2.8479
4.2712 -1.6838 2.8479
4.1439 -1.7834 2.8479
4.3136 -1.6497 2.8479
4.1863 -1.7507 2.8479
4.3562 -1.6150 2.8479
4.2287 -1.7175 2.8479
4.3987 -1.5799 2.8479
4.4413 -1.5443 2.8479
4.6119 -1.3967 2.8479
4.4839 -1.5081 2.8479
4.6546 -1.3585 2.8479
4.5265 -1.4715 2.8479
4.6974 -1.3198 2.8479
4.5692 -1.4343 2.8479
4.7402 -1.2805 2.8479
4.7830 -1.2407 2.8479
4.9188 -1.0681 2.8274
4.8258 -1.2003 2.8479
4.9290 -1.0191 2.8089
4.8687 -1.1594 2.8479
4.9391 -0.9702 2.7907
4.9092 -1.1174 2.8465
4.9492 -0.9213 2.7728
-0.3952 -2.9579 2.8479
-0.3586 -2.9604 2.8479
-0.3219 -2.9627 2.8479
-0.2852 -2.9647 2.8479
-0.2485 -2.9665 2.8479
-0.2118 -2.9680 2.8479
-0.1752 -2.9693 2.8479
-0.1385 -2.9703 2.8479
-0.1018 -2.9711 2.8479
-0.0652 -2.9717 2.8479
-0.0285 -2.9720 2.8479
0.0082 -2.9720 2.8479
0.0448 -2.9719 2.8479
0.0815 -2.9714 2.8479
0.1182 -2.9708 2.8479
0.1548 -2.9699 2.8479
0.1915 -2.9687 2.8479
0.2282 -2.9673 2.8479
0.2649 -2.9657 2.8479
0.3015 -2.9638 2.8479
0.3382 -2.9617 2.8479
0.3749 -2.9593 2.8479
0.4116 -2.9567 2.8479
0.4483 -2.9538 2.8479
0.4850 -2.9507 2.8479
0.5217 -2.9473 2.8479
0.5584 -2.9437 2.8479
0.5951 -2.9399 2.8479
0.6318 -2.9358 2.8479
0.6685 -2.9314 2.8479
0.7052 -2.9268 2.8479
0.7420 -2.9220 2.8479
0.7787 -2.9169 2.8479
0.8154 -2.9115 2.8479
0.8522 -2.9059 2.8479
0.8889 -2.9001 2.8479
0.9257 -2.8940 2.8479
0.9625 -2.8876 2.8479
0.9993 -2.8810 2.8479
1.0361 -2.8741 2.8479
1.0729 -2.8670 2.8479
1.1097 -2.8596 2.8479
1.1465 -2.8520 2.8479
1.1833 -2.8441 2.8479
1.2201 -2.8359 2.8479
1.2570 -2.8275 2.8479
1.2939 -2.8188 2.8479
1.3307 -2.8099 2.8479
1.3676 -2.8007 2.8479
1.4045 -2.7912 2.8479
1.4414 -2.7815 2.8479
1.4783 -2.7715 2.8479
1.5152 -2.7612 2.8479
1.5521 -2.7507 2.8479
1.5891 -2.7399 2.8479
1.6260 -2.7288 2.8479
1.6630 -2.7174 2.8479
1.7000 -2.7058 2.8479
1.7370 -2.6939 2.8479
1.7740 -2.6817 2.8479
1.8110 -2.6693 2.8479
1.8480 -2.6565 2.8479
1.8851 -2.6435 2.8479
1.9221 -2.6302 2.8479
1.9592 -2.6166 2.8479
1.9963 -2.6027 2.8479
2.0334 -2.5886 2.8479
2.0705 -2.5741 2.8479
2.1076 -2.5594 2.8479
2.1447 -2.5443 2.8479
2.1819 -2.5290 2.8479
2.2190 -2.5134 2.8479
2.2562 -2.4974 2.8479
2.2934 -2.4812 2.8479
2.3306 -2.4647 2.8479
2.3678 -2.4478 2.8479
2.4050 -2.4307 2.8479
2.4422 -2.4132 2.8479
2.4795 -2.3954 2.8479
2.5168 -2.3774 2.8479
2.5540 -2.3590 2.8479
2.5913 -2.3403 2.8479
2.6286 -2.3212 2.8479
2.6659 -2.3019 2.8479
2.7032 -2.2822 2.8479
2.7405 -2.2622 2.8479
2.7778 -2.2418 2.8479
2.8152 -2.2211 2.8479
2.8525 -2.2001 2.8479
2.8899 -2.1788 2.8479
2.9273 -2.1571 2.8479
3.0020 -2.1127 2.8479
2.9646 -2.1351 2.8479
3.0394 -2.0900 2.8479
3.1516 -2.0197 2.8479
3.0768 -2.0669 2.8479
3.1890 -1.9955 2.8479
3.1142 -2.0435 2.8479
3.2264 -1.9710 2.8479
3.3013 -1.9209 2.8479
3.2638 -1.9462 2.8479
3.3387 -1.8953 2.8479
3.4509 -1.8162 2.8479
3.3761 -1.8693 2.8479
3.4884 -1.7890 2.8479
3.4135 -1.8429 2.8479
3.5258 -1.7615 2.8479
3.6006 -1.7053 2.8479
3.5632 -1.7336 2.8479
3.7502 -1.5880 2.8479
3.6380 -1.6766 2.8479
3.8996 -1.4642 2.8479
4.0487 -1.3335 2.8479
3.7875 -1.5577 2.8479
3.6754 -1.6475 2.8479
3.9369 -1.4322 2.8479
4.0859 -1.2997 2.8479
3.8249 -1.5269 2.8479
3.7128 -1.6180 2.8479
3.9742 -1.3997 2.8479
4.1232 -1.2655 2.8479
3.8622 -1.4958 2.8479
4.1975 -1.1956 2.8479
4.0115 -1.3668 2.8479
4.1603 -1.2308 2.8479
4.3458 -1.0504 2.8479
4.2346 -1.1600 2.8479
4.4935 -0.8976 2.8479
4.3828 -1.0130 2.8479
4.2717 -1.1240 2.8479
4.4198 -0.9750 2.8479
4.5304 -0.8581 2.8479
4.3088 -1.0875 2.8479
4.4567 -0.9365 2.8479
4.5671 -0.8182 2.8479
4.6038 -0.7778 2.8479
-0.3678 -2.6941 2.8479
-0.3337 -2.6965 2.8479
-0.2995 -2.6987 2.8479
-0.2654 -2.7007 2.8479
-0.2313 -2.7024 2.8479
-0.1972 -2.7039 2.8479
-0.1630 -2.7051 2.8479
-0.1289 -2.7061 2.8479
-0.0948 -2.7069 2.8479
-0.0607 -2.7074 2.8479
-0.0265 -2.7077 2.8479
0.0076 -2.7078 2.8479
0.0417 -2.7076 2.8479
0.0758 -2.7072 2.8479
0.1100 -2.7066 2.8479
0.1441 -2.7057 2.8479
0.1782 -2.7046 2.8479
0.2124 -2.7032 2.8479
0.2465 -2.7016 2.8479
0.2806 -2.6998 2.8479
0.3147 -2.6978 2.8479
0.3489 -2.6955 2.8479
0.3830 -2.6929 2.8479
0.4171 -2.6901 2.8479
0.4512 -2.6871 2.8479
0.4854 -2.6839 2.8479
0.5195 -2.6804 2.8479
0.5536 -2.6767 2.8479
0.5878 -2.6727 2.8479
0.6219 -2.6685 2.8479
0.6560 -2.6641 2.8479
0.6902 -2.6594 2.8479
0.7243 -2.6544 2.8479
0.7584 -2.6493 2.8479
0.7926 -2.6439 2.8479
0.8267 -2.6382 2.8479
0.8608 -2.6323 2.8479
0.8950 -2.6261 2.8479
0.9291 -2.6197 2.8479
0.9633 -2.6131 2.8479
0.9974 -2.6062 2.8479
1.0315 -2.5991 2.8479
1.0657 -2.5917 2.8479
1.0998 -2.5841 2.8479
1.1340 -2.5763 2.8479
1.1681 -2.5681 2.8479
1.2023 -2.5598 2.8479
1.2364 -2.5512 2.8479
1.2705 -2.5423 2.8479
1.3047 -2.5332 2.8479
1.3388 -2.5238 2.8479
1.3730 -2.5141 2.8479
1.4071 -2.5042 2.8479
1.4413 -2.4941 2.8479
1.4754 -2.4837 2.8479
1.5095 -2.4730 2.8479
1.5437 -2.4621 2.8479
1.5778 -2.4509 2.8479
1.6119 -2.4395 2.8479
1.6461 -2.4277 2.8479
1.6802 -2.4158 2.8479
1.7143 -2.4035 2.8479
1.7485 -2.3910 2.8479
1.7826 -2.3782 2.8479
1.8167 -2.3652 2.8479
1.8508 -2.3518 2.8479
1.8849 -2.3382 2.8479
1.9191 -2.3244 2.8479
1.9532 -2.3102 2.8479
1.9873 -2.2958 2.8479
2.0214 -2.2811 2.8479
2.0555 -2.2661 2.8479
2.0895 -2.2508 2.8479
2.1236 -2.2353 2.8479
2.1577 -2.2194 2.8479
2.1918 -2.2033 2.8479
2.2258 -2.1869 2.8479
2.2599 -2.1702 2.8479
2.2939 -2.1532 2.8479
2.3279 -2.1359 2.8479
2.3620 -2.1184 2.8479
2.3960 -2.1005 2.8479
2.4300 -2.0823 2.8479
2.4640 -2.0639 2.8479
2.4979 -2.0451 2.8479
2.5319 -2.0260 2.8479
2.5658 -2.0066 2.8479
2.5998 -1.9869 2.8479
2.6337 -1.9669 2.8479
2.6676 -1.9465 2.8479
2.7015 -1.9259 2.8479
2.7354 -1.9050 2.8479
2.7692 -1.8837 2.8479
2.8031 -1.8621 2.8479
2.8369 -1.8402 2.8479
2.8707 -1.8179 2.8479
2.9044 -1.7954 2.8479
2.9382 -1.7725 2.8479
2.9719 -1.7492 2.8479
3.0056 -1.7257 2.8479
3.0393 -1.7018 2.8479
3.0729 -1.6775 2.8479
3.1065 -1.6529 2.8479
3.1401 -1.6280 2.8479
3.1737 -1.6027 2.8479
3.2072 -1.5771 2.8479
3.2407 -1.5511 2.8479
3.2741 -1.5248 2.8479
3.3075 -1.4981 2.8479
3.3409 -1.4710 2.8479
3.3743 -1.4436 2.8479
3.4076 -1.4158 2.8479
3.4408 -1.3877 2.8479
3.4740 -1.3592 2.8479
3.5072 -1.3303 2.8479
3.5403 -1.3010 2.8479
3.5733 -1.2714 2.8479
3.6064 -1.2413 2.8479
3.6393 -1.2109 2.8479
3.6722 -1.1801 2.8479
3.7051 -1.1489 2.8479
3.7378 -1.1173 2.8479
3.7706 -1.0854 2.8479
3.8032 -1.0530 2.8479
3.8358 -1.0202 2.8479
3.8684 -0.9870 2.8479
3.9008 -0.9534 2.8479
3.9332 -0.9194 2.8479
3.9655 -0.8849 2.8479
3.9977 -0.8501 2.8479
4.0299 -0.8148 2.8479
4.0619 -0.7791 2.8479
4.0939 -0.7430 2.8479
4.1258 -0.7065 2.8479
4.1576 -0.6695 2.8479
4.1893 -0.6320 2.8479
