ply
format ascii 1.0
element vertex 2125
property float32 x
property float32 y
property float32 z
end_header
-44.4533 -17.9535 -3.4029
-45.5816 -17.4046 -3.7226
-45.2142 -17.7607 -3.5769
-43.3781 -18.0028 -3.2096
-43.3731 -19.4754 -2.8758
-43.3133 -18.4627 -3.0939
-43.4210 -19.9975 -2.7674
-43.3427 -18.9664 -2.9849
-7.7218 -3.6461 -0.4723
-7.6842 -3.7185 -0.4502
-43.2603 -21.4473 -2.4230
-43.8196 -22.2491 -2.3411
-43.9480 -22.8454 -2.2341
-27.0924 -22.3828 0.2435
-27.2248 -22.9372 0.3243
-27.3607 -23.5064 0.4066
-27.5004 -24.0914 0.4906
-28.2530 -27.2707 0.9374
-27.5260 -24.5872 0.5738
-28.9497 -30.1935 1.3343
-28.4193 -27.9673 1.0330
-27.7832 -25.3034 0.6634
-29.1391 -30.9865 1.4401
-28.5909 -28.6860 1.1309
-29.3351 -31.8073 1.5488
-27.9352 -25.9398 0.7528
-29.5381 -32.6574 1.6606
-28.0917 -26.5953 0.8440
-28.7682 -29.4282 1.2314
-29.7485 -33.5387 1.7757
-29.9669 -34.4530 1.8944
-30.6686 -37.4085 2.2733
-30.1208 -39.8055 2.6977
-30.1879 -35.3957 2.0164
-9.7623 -12.1468 0.7603
-29.0380 -39.1622 2.7180
-10.1856 -12.1806 0.7174
-29.1650 -40.1459 2.8501
-26.8319 -38.4925 2.8501
-25.7680 -37.7467 2.8501
-27.9619 -39.2904 2.8501
-24.7640 -37.0483 2.8501
-22.9156 -35.7782 2.8501
-23.8149 -36.3935 2.8501
-19.7408 -33.6541 2.8501
-22.0622 -35.1994 2.8501
-17.0977 -31.9587 2.8501
-19.0366 -33.1950 2.8501
-21.2508 -34.6542 2.8501
-15.6202 -29.8994 2.6977
-18.3628 -32.7605 2.8501
-15.0785 -29.5667 2.6977
-20.4779 -34.1398 2.8501
-17.7172 -32.3489 2.8501
-14.5567 -29.2505 2.6977
-13.8332 -28.4958 2.6553
-11.1700 -28.5352 2.8501
-12.2050 -27.8860 2.6977
-10.7685 -28.3299 2.8501
-13.5680 -28.6640 2.6977
-10.3773 -28.1342 2.8501
-12.1861 -28.6072 2.7910
-13.0987 -28.3919 2.6977
-9.9960 -27.9476 2.8501
-9.6239 -27.7697 2.8501
-12.0072 -28.9761 2.8501
-12.6447 -28.1328 2.6977
-9.2606 -27.6001 2.8501
-8.9055 -27.4384 2.8501
-11.5827 -28.7504 2.8501
-8.5582 -27.2844 2.8501
-8.2181 -27.1376 2.8501
-7.8850 -26.9979 2.8501
-7.5583 -26.8651 2.8501
-40.7743 -1.0706 -5.1555
-40.5925 -1.4564 -5.0170
-40.4138 -1.8389 -4.8803
-40.2380 -2.2184 -4.7455
-40.0650 -2.5950 -4.6125
-39.8948 -2.9688 -4.4811
-39.7273 -3.3401 -4.3515
-39.5623 -3.7088 -4.2234
-39.3999 -4.0752 -4.0968
-39.2399 -4.4395 -3.9718
-39.0823 -4.8016 -3.8481
-38.9269 -5.1619 -3.7259
-38.7738 -5.5203 -3.6050
-38.6229 -5.8770 -3.4853
-38.4740 -6.2322 -3.3669
-38.3272 -6.5860 -3.2497
-38.1824 -6.9384 -3.1337
-38.0395 -7.2896 -3.0187
-37.8984 -7.6397 -2.9048
-37.7592 -7.9888 -2.7920
-37.6217 -8.3370 -2.6801
-37.6663 -8.7263 -2.5815
-46.2378 -17.5013 -1.4168
-45.4460 -17.7019 -1.2683
-44.6750 -17.8973 -1.1243
-43.9239 -18.0876 -0.9847
-43.1918 -18.2731 -0.8492
-42.9111 -18.6422 -0.7250
-43.0201 -19.1829 -0.6074
-42.5418 -19.4618 -0.4822
-41.8572 -19.6373 -0.3574
-7.6836 -3.6953 -0.0440
-42.0671 -20.7320 -0.1224
-43.6708 -23.1126 0.2459
-42.2731 -21.3415 -0.0033
-42.5480 -21.9966 0.1178
-25.0541 -13.8841 0.2856
-25.1310 -14.5669 0.4332
-25.0564 -14.2027 0.3586
-25.3363 -15.0143 0.5114
-25.6201 -16.2028 0.7467
-25.4291 -15.4027 0.5887
-25.7185 -16.6151 0.8276
-25.5236 -15.7988 0.6671
-25.8190 -17.0360 0.9097
-26.0265 -17.9051 1.0780
-25.9216 -17.4658 0.9931
-26.1337 -18.3541 1.1643
-26.3602 -19.6815 1.4267
-26.2433 -18.8131 1.2521
-26.5826 -20.2519 1.5253
-26.2964 -19.2396 1.3386
-26.7030 -20.7563 1.6199
-26.9530 -21.8033 1.8152
-26.8264 -21.2732 1.7165
-27.0829 -22.3473 1.9159
-27.4939 -24.0690 2.2319
-27.2162 -22.9058 2.0189
-27.5208 -24.5700 2.3321
-27.3532 -23.4794 2.1241
-27.7792 -25.2915 2.4544
-28.1802 -26.6802 2.6976
-27.9325 -25.9337 2.5702
-27.1143 -26.1777 2.6977
-25.6461 -26.2557 2.8501
-26.1116 -25.7070 2.6977
-24.7547 -25.8441 2.8501
-25.9014 -26.0035 2.7764
-23.9099 -25.4563 2.8501
-22.3455 -24.7450 2.8501
-23.1080 -25.0906 2.8501
-21.6194 -24.4181 2.8501
-19.6333 -23.5363 2.8501
-20.9270 -24.1085 2.8501
-9.7836 -11.9657 1.4654
-20.2657 -23.8150 2.8501
-9.7341 -12.1471 1.5039
-17.3541 -22.5515 2.8501
-17.8897 -22.7799 2.8501
-16.8388 -22.3337 2.8501
-15.4024 -21.7377 2.8501
-16.3426 -22.1258 2.8501
-14.9565 -21.5564 2.8501
-15.8641 -21.9274 2.8501
-12.9710 -19.9316 2.6977
-13.7486 -20.2394 2.6977
-12.6002 -19.7873 2.6977
-13.3536 -20.0822 2.6977
-12.2404 -19.6491 2.6977
-11.5516 -19.3892 2.6977
-11.8910 -19.5164 2.6977
-11.2215 -19.2671 2.6977
-10.2823 -18.9291 2.6977
-10.9001 -19.1498 2.6977
-9.9849 -18.8252 2.6977
-10.5873 -19.0372 2.6977
-9.9669 -19.2514 2.7734
-9.6502 -19.5846 2.8501
-9.9428 -19.6819 2.8501
-8.5408 -19.2301 2.8499
-9.3640 -19.4910 2.8501
-8.2772 -19.1494 2.8498
-9.0840 -19.4010 2.8501
-8.0187 -19.0718 2.8496
-8.8098 -19.3141 2.8500
-7.7651 -18.9972 2.8495
-7.5160 -18.9255 2.8494
-6.5470 -18.6245 2.8426
-6.3176 -18.5637 2.8421
-7.2698 -18.8473 2.8480
-6.0916 -18.5053 2.8416
-7.0207 -18.7647 2.8452
-5.8690 -18.4492 2.8411
-5.6495 -18.3955 2.8407
-6.7801 -18.6879 2.8431
-5.4331 -18.3440 2.8402
-5.2195 -18.2947 2.8397
-37.3653 2.3986 -3.9013
-37.2056 2.0284 -3.7757
-37.0483 1.6620 -3.6517
-36.8933 1.2990 -3.5292
-36.7405 0.9395 -3.4083
-36.5899 0.5832 -3.2889
-36.4413 0.2300 -3.1709
-36.2948 -0.1202 -3.0543
-36.1501 -0.4675 -2.9389
-36.0074 -0.8121 -2.8249
-35.8666 -1.1541 -2.7121
-35.8376 -1.4983 -2.6085
-35.9172 -1.8476 -2.5129
-37.1211 -2.2675 -2.4926
-37.2135 -2.6323 -2.3942
-37.3065 -2.9994 -2.2956
-37.4002 -3.3689 -2.1966
-37.4944 -3.7408 -2.0972
-37.5893 -4.1154 -1.9975
-37.6848 -4.4926 -1.8974
-37.7811 -4.8725 -1.7969
-37.8781 -5.2554 -1.6960
-37.9758 -5.6413 -1.5946
-38.0744 -6.0302 -1.4927
-38.1737 -6.4224 -1.3903
-38.2743 -6.8181 -1.2873
-38.3757 -7.2171 -1.1838
-38.4775 -7.6197 -1.0797
-38.5802 -8.0260 -0.9749
-23.6901 -8.1184 0.2717
-23.7569 -8.3979 0.3410
-23.8244 -8.6809 0.4109
-23.8929 -8.9677 0.4816
-23.8526 -9.2160 0.5504
-23.9374 -9.5151 0.6226
-24.0891 -9.8456 0.6976
-24.1614 -10.1485 0.7713
-24.2348 -10.4557 0.8459
-24.3092 -10.7676 0.9213
-24.3848 -11.0842 0.9977
-24.4615 -11.4057 1.0751
-7.6856 -3.6745 0.3612
-24.6188 -12.0643 1.2328
-24.6993 -12.4017 1.3132
-24.7812 -12.7449 1.3948
-24.8646 -13.0939 1.4776
-24.9494 -13.4491 1.5615
-25.0357 -13.8107 1.6468
-25.0611 -14.1436 1.7290
-25.1132 -14.4963 1.8140
-25.3188 -14.9447 1.9117
-25.4119 -15.3346 2.0026
-25.5068 -15.7323 2.0950
-25.6036 -16.1379 2.1891
-25.7025 -16.5520 2.2848
-25.8034 -16.9748 2.3823
-25.9066 -17.4068 2.4816
-26.0120 -17.8482 2.5829
-26.2316 -18.3779 2.6977
-25.3482 -18.1305 2.6977
-24.5130 -17.8977 2.6977
-23.9789 -17.8696 2.7269
-24.0625 -18.3006 2.8258
-23.5157 -18.2508 2.8501
-22.7987 -18.0548 2.8501
-22.1153 -17.8689 2.8501
-21.4631 -17.6925 2.8501
-20.8397 -17.5249 2.8501
-20.2434 -17.3655 2.8501
-19.6720 -17.2137 2.8501
-19.1241 -17.0691 2.8501
-18.5980 -16.9310 2.8501
-18.0923 -16.7993 2.8501
-17.6057 -16.6734 2.8501
-17.1371 -16.5529 2.8501
-16.6853 -16.4377 2.8501
-16.2494 -16.3274 2.8501
-15.8283 -16.2216 2.8501
-15.4214 -16.1202 2.8501
-15.0277 -16.0229 2.8501
-14.6465 -15.9294 2.8501
-14.2771 -15.8397 2.8501
-13.2340 -15.5908 2.8501
-13.9190 -15.7534 2.8501
-12.2159 -14.6843 2.6977
-13.5715 -15.6705 2.8501
-9.7771 -11.9930 2.2138
-11.3343 -14.4820 2.6977
-9.7265 -12.1762 2.2580
-11.0557 -14.4194 2.6977
-10.2604 -14.2448 2.6977
-10.7840 -14.3591 2.6977
-10.0078 -14.1906 2.6977
-10.5190 -14.3009 2.6977
-9.7609 -14.1383 2.6977
-9.5197 -14.0878 2.6977
-9.2836 -14.0391 2.6977
-9.0526 -13.9920 2.6977
-8.8582 -14.6381 2.8491
-8.8264 -13.9466 2.6977
-8.6348 -14.5975 2.8496
-8.7611 -14.1553 2.7467
-8.4126 -14.5532 2.8491
-8.1946 -14.5104 2.8486
-7.9805 -14.4690 2.8481
-7.1608 -14.3166 2.8463
-7.7703 -14.4290 2.8477
-6.9643 -14.2816 2.8459
-7.5637 -14.3902 2.8472
-6.7709 -14.2478 2.8455
-7.3606 -14.3528 2.8468
-6.5804 -14.2151 2.8451
-6.3927 -14.1835 2.8447
-5.6681 -14.0675 2.8431
-6.2078 -14.1530 2.8442
-5.4929 -14.0409 2.8427
-6.0254 -14.1235 2.8438
-5.3199 -14.0153 2.8423
-5.8455 -14.0950 2.8434
-5.1490 -13.9905 2.8419
-4.9801 -13.9666 2.8415
-4.8132 -13.9436 2.8412
-4.6480 -13.9215 2.8408
-4.4847 -13.9001 2.8404
-4.3230 -13.8796 2.8401
-4.1629 -13.8598 2.8397
-4.0044 -13.8408 2.8394
-35.8432 2.7768 -2.1300
-35.9297 2.4355 -2.0313
-36.0164 2.0931 -1.9324
-36.1035 1.7495 -1.8333
-36.1908 1.4046 -1.7340
-36.2786 1.0583 -1.6344
-36.3667 0.7106 -1.5345
-36.4551 0.3614 -1.4343
-36.5441 0.0106 -1.3338
-36.6342 -0.3419 -1.2329
-36.7247 -0.6961 -1.1317
-36.8157 -1.0523 -1.0301
-36.9072 -1.4103 -0.9281
-36.9992 -1.7704 -0.8257
-37.0907 -2.1326 -0.7227
-37.1828 -2.4970 -0.6193
-37.2755 -2.8636 -0.5153
-37.3687 -3.2327 -0.4108
-37.4626 -3.6042 -0.3057
-37.5572 -3.9783 -0.2001
-37.6524 -4.3551 -0.0938
-37.7483 -4.7347 0.0131
-37.8450 -5.1172 0.1207
-37.9425 -5.5027 0.2290
-38.0407 -5.8914 0.3381
-22.6291 -3.7280 0.2657
-22.6078 -3.9484 0.3302
-22.6512 -4.1812 0.3958
-22.7077 -4.4182 0.4621
-22.8682 -4.6786 0.5313
-22.9261 -4.9210 0.5989
-22.9846 -5.1658 0.6671
-23.0436 -5.4130 0.7359
-23.1031 -5.6626 0.8053
-23.1633 -5.9148 0.8753
-23.2242 -6.1697 0.9459
-23.2857 -6.4273 1.0172
-23.3478 -6.6878 1.0893
-23.4107 -6.9511 1.1620
-23.4743 -7.2176 1.2355
-23.5387 -7.4871 1.3098
-23.6038 -7.7600 1.3848
-23.6697 -8.0362 1.4608
-23.7365 -8.3159 1.5375
-23.8041 -8.5993 1.6152
-23.8727 -8.8864 1.6939
-23.8326 -9.1354 1.7653
-23.9027 -9.4290 1.8456
-24.0692 -9.7656 1.9345
-24.1416 -10.0688 2.0172
-24.2150 -10.3766 2.1010
-24.2896 -10.6890 2.1860
-24.3653 -11.0063 2.2721
-24.4423 -11.3285 2.3596
-7.6981 -3.6593 0.7686
-24.5998 -11.9886 2.5384
-25.3185 -12.6455 2.6978
-24.5340 -12.5539 2.6977
-23.7914 -12.4682 2.6977
-23.0858 -12.3871 2.6977
-22.6941 -12.4637 2.7313
-22.7543 -12.7878 2.8190
-22.3603 -12.8555 2.8501
-21.7443 -12.7860 2.8501
-21.1551 -12.7198 2.8501
-20.5908 -12.6568 2.8501
-20.0498 -12.5966 2.8501
-19.5305 -12.5392 2.8501
-19.0316 -12.4844 2.8501
-18.5518 -12.4319 2.8501
-18.0899 -12.3817 2.8501
-17.6448 -12.3336 2.8501
-17.2155 -12.2875 2.8501
-16.8011 -12.2433 2.8501
-16.4008 -12.2009 2.8501
-16.0138 -12.1601 2.8501
-15.6393 -12.1209 2.8501
-15.2766 -12.0832 2.8501
-14.9252 -12.0470 2.8501
-14.5844 -12.0121 2.8501
-14.2538 -11.9785 2.8501
-13.9326 -11.9461 2.8501
-13.6206 -11.9149 2.8501
-13.3173 -11.8848 2.8501
-13.0221 -11.8557 2.8501
-12.7348 -11.8277 2.8501
-12.4550 -11.8006 2.8501
-11.5308 -11.1449 2.6977
-11.2791 -11.1209 2.6977
-11.0335 -11.0978 2.6977
-10.7938 -11.0754 2.6977
-10.5596 -11.0538 2.6977
-10.3308 -11.0329 2.6977
-10.1072 -11.0126 2.6977
-9.8884 -10.9930 2.6977
-9.6743 -10.9740 2.6977
-9.4648 -10.9556 2.6977
-9.2595 -10.9378 2.6977
-9.0583 -10.9206 2.6977
-8.8612 -10.9039 2.6977
-8.6678 -10.8877 2.6977
-8.4781 -10.8720 2.6977
-8.2918 -10.8567 2.6977
-8.1090 -10.8420 2.6977
-7.9972 -10.9203 2.7207
-8.0590 -11.2408 2.8042
-8.0070 -11.4097 2.8499
-7.8256 -11.3943 2.8495
-7.6472 -11.3793 2.8491
-7.4716 -11.3648 2.8487
-7.2989 -11.3507 2.8483
-7.1287 -11.3369 2.8479
-6.9612 -11.3236 2.8475
-6.7961 -11.3107 2.8471
-6.6334 -11.2981 2.8468
-6.4730 -11.2859 2.8464
-6.3148 -11.2741 2.8461
-6.1587 -11.2626 2.8457
-6.0046 -11.2514 2.8454
-5.8525 -11.2405 2.8450
-5.7023 -11.2300 2.8447
-5.5539 -11.2197 2.8443
-5.4073 -11.2098 2.8440
-5.2624 -11.2001 2.8437
-5.1191 -11.1908 2.8434
-4.9773 -11.1817 2.8430
-4.8371 -11.1728 2.8427
-4.6983 -11.1643 2.8424
-4.5609 -11.1560 2.8421
-4.4249 -11.1479 2.8418
-4.2901 -11.1401 2.8415
-4.1566 -11.1326 2.8412
-4.0243 -11.1253 2.8409
-3.8931 -11.1182 2.8406
-3.7630 -11.1113 2.8403
-3.6340 -11.1047 2.8400
-3.5060 -11.0983 2.8397
-3.3790 -11.0921 2.8394
-3.2529 -11.0861 2.8391
-35.7321 3.2410 -0.5213
-35.8184 2.9016 -0.4204
-35.9045 2.5610 -0.3192
-35.9909 2.2192 -0.2175
-36.0776 1.8763 -0.1155
-36.1646 1.5320 -0.0130
-36.2519 1.1863 0.0899
-36.3396 0.8393 0.1933
-36.4277 0.4907 0.2972
-21.7186 0.0835 0.2388
-21.7686 -0.1257 0.3012
-21.8188 -0.3360 0.3639
-21.8692 -0.5473 0.4270
-21.9199 -0.7598 0.4904
-21.9709 -0.9733 0.5542
-22.0221 -1.1881 0.6183
-22.0737 -1.4042 0.6829
-22.1256 -1.6215 0.7479
-22.1778 -1.8402 0.8133
-22.2303 -2.0603 0.8792
-22.2832 -2.2819 0.9455
-22.3365 -2.5051 1.0123
-22.3902 -2.7299 1.0797
-22.4442 -2.9563 1.1475
-22.4987 -3.1845 1.2160
-22.5536 -3.4145 1.2849
-22.6089 -3.6463 1.3545
-22.6647 -3.8801 1.4247
-22.6437 -4.1019 1.4904
-22.6875 -4.3365 1.5608
-22.8479 -4.5964 1.6400
-22.9057 -4.8388 1.7129
-22.9642 -5.0835 1.7865
-23.0231 -5.3306 1.8609
-23.0827 -5.5803 1.9361
-23.1429 -5.8325 2.0120
-23.2038 -6.0874 2.0888
-23.2653 -6.3450 2.1665
-23.3274 -6.6055 2.2450
-23.3903 -6.8690 2.3245
-23.4540 -7.1356 2.4049
-23.5183 -7.4053 2.4863
-23.5835 -7.6784 2.5688
-24.0552 -8.0912 2.6977
-23.3767 -8.1169 2.6977
-22.7314 -8.1414 2.6977
-22.1159 -8.1647 2.6977
-21.6957 -8.2504 2.7186
-21.7428 -8.5118 2.7975
-21.5830 -8.6928 2.8501
-21.0386 -8.7131 2.8501
-20.5164 -8.7324 2.8501
-20.0150 -8.7508 2.8501
-19.5331 -8.7685 2.8501
-19.0693 -8.7854 2.8501
-7.7142 -3.6459 1.1806
-7.6844 -3.7244 1.2039
-17.7769 -8.8321 2.8501
-17.3759 -8.8464 2.8501
-16.9885 -8.8601 2.8501
-16.6138 -8.8734 2.8501
-16.2512 -8.8861 2.8501
-15.9000 -8.8983 2.8501
-15.5597 -8.9101 2.8501
-15.2297 -8.9215 2.8501
-14.9094 -8.9324 2.8501
-14.5984 -8.9430 2.8501
-14.2962 -8.9532 2.8501
-14.0024 -8.9630 2.8501
-13.7166 -8.9725 2.8501
-13.4384 -8.9817 2.8501
-13.1675 -8.9906 2.8501
-12.9036 -8.9992 2.8501
-12.6462 -9.0075 2.8501
-12.3952 -9.0155 2.8501
-12.1502 -9.0234 2.8501
-11.9110 -9.0309 2.8501
-11.6774 -9.0382 2.8501
-10.8369 -8.5616 2.6977
-10.6255 -8.5681 2.6977
-10.4189 -8.5744 2.6977
-10.2166 -8.5805 2.6977
-10.0185 -8.5864 2.6977
-9.8246 -8.5922 2.6977
-9.6346 -8.5978 2.6977
-9.4483 -8.6032 2.6977
-9.2657 -8.6085 2.6977
-9.0865 -8.6136 2.6977
-8.9107 -8.6185 2.6977
-8.7381 -8.6233 2.6977
-8.5686 -8.6280 2.6977
-8.4021 -8.6326 2.6977
-8.2384 -8.6370 2.6977
-8.0776 -8.6413 2.6977
-7.9194 -8.6455 2.6977
-7.7638 -8.6495 2.6977
-7.6107 -8.6535 2.6977
-7.4646 -8.6628 2.6994
-7.5072 -8.8929 2.7699
-7.5514 -9.1315 2.8430
-7.4171 -9.1570 2.8497
-7.2663 -9.1595 2.8494
-7.1176 -9.1619 2.8491
-6.9711 -9.1642 2.8487
-6.8265 -9.1665 2.8484
-6.6839 -9.1687 2.8481
-6.5432 -9.1708 2.8477
-6.4044 -9.1729 2.8474
-6.2673 -9.1748 2.8471
-6.1319 -9.1767 2.8468
-5.9981 -9.1786 2.8465
-5.8660 -9.1803 2.8462
-5.7353 -9.1820 2.8459
-5.6062 -9.1837 2.8456
-5.4785 -9.1852 2.8453
-5.3522 -9.1868 2.8450
-5.2272 -9.1882 2.8447
-5.1036 -9.1896 2.8444
-4.9812 -9.1909 2.8441
-4.8600 -9.1922 2.8439
-4.7400 -9.1934 2.8436
-4.6211 -9.1946 2.8433
-4.5033 -9.1957 2.8430
-4.3866 -9.1968 2.8428
-4.2709 -9.1978 2.8425
-4.1562 -9.1988 2.8422
-4.0424 -9.1997 2.8420
-3.9296 -9.2006 2.8417
-3.8176 -9.2014 2.8415
-3.7065 -9.2021 2.8412
-3.5962 -9.2029 2.8409
-3.4868 -9.2036 2.8407
-3.3780 -9.2042 2.8404
-3.2701 -9.2047 2.8402
-3.1628 -9.2053 2.8399
-3.0562 -9.2058 2.8397
-2.9503 -9.2062 2.8394
-2.8450 -9.2066 2.8392
-2.7403 -9.2070 2.8390
-21.2135 2.2052 0.6427
-21.2616 2.0038 0.7040
-21.3098 1.8018 0.7655
-21.3582 1.5993 0.8274
-21.4067 1.3961 0.8896
-21.4553 1.1922 0.9521
-21.4170 0.9836 1.0109
-21.4658 0.7790 1.0739
-21.5168 0.5737 1.1374
-21.6498 0.3689 1.2058
-21.6994 0.1610 1.2703
-21.7493 -0.0480 1.3352
-21.7994 -0.2579 1.4005
-21.8498 -0.4688 1.4663
-21.9004 -0.6809 1.5326
-21.9513 -0.8942 1.5993
-22.0025 -1.1086 1.6666
-22.0540 -1.3244 1.7344
-22.1058 -1.5414 1.8028
-22.1579 -1.7598 1.8717
-22.2104 -1.9797 1.9412
-22.2632 -2.2010 2.0114
-22.3164 -2.4240 2.0822
-22.3700 -2.6485 2.1536
-22.4240 -2.8747 2.2257
-22.4784 -3.1027 2.2985
-22.5333 -3.3325 2.3720
-22.5886 -3.5641 2.4462
-22.6443 -3.7977 2.5212
-22.6233 -4.0197 2.5882
-22.9612 -4.3094 2.6977
-22.3708 -4.4233 2.6977
-21.8065 -4.5317 2.6977
-21.2665 -4.6350 2.6977
-20.8679 -4.7607 2.7131
-20.9072 -4.9836 2.7848
-20.8940 -5.1954 2.8501
-20.4105 -5.2862 2.8501
-19.9455 -5.3732 2.8501
-19.4977 -5.4566 2.8501
-19.0663 -5.5365 2.8501
-18.6502 -5.6132 2.8501
-18.2485 -5.6868 2.8501
-17.8606 -5.7576 2.8501
-17.4856 -5.8257 2.8501
-17.1227 -5.8912 2.8501
-16.7714 -5.9542 2.8501
-16.4311 -6.0149 2.8501
-16.1012 -6.0735 2.8501
-15.7812 -6.1299 2.8501
-15.4706 -6.1845 2.8501
-15.1688 -6.2370 2.8501
-14.8756 -6.2878 2.8501
-14.5905 -6.3369 2.8501
-14.3131 -6.3844 2.8501
-14.0430 -6.4303 2.8501
-7.7515 -3.6421 1.6032
-7.6788 -3.7008 1.6183
-13.2737 -6.5593 2.8501
-13.0300 -6.5996 2.8501
-12.7921 -6.6387 2.8501
-12.5598 -6.6766 2.8501
-12.3329 -6.7133 2.8501
-12.1112 -6.7489 2.8501
-11.8945 -6.7835 2.8501
-11.6825 -6.8171 2.8501
-11.4750 -6.8496 2.8501
-11.2720 -6.8813 2.8501
-10.4810 -6.5424 2.6977
-10.2966 -6.5707 2.6977
-10.1160 -6.5981 2.6977
-9.9388 -6.6248 2.6977
-9.7651 -6.6507 2.6977
-9.5947 -6.6760 2.6977
-9.4274 -6.7005 2.6977
-9.2632 -6.7244 2.6977
-9.1020 -6.7477 2.6977
-8.9436 -6.7703 2.6977
-8.7879 -6.7923 2.6977
-8.6349 -6.8137 2.6977
-8.4844 -6.8346 2.6977
-8.3364 -6.8549 2.6977
-8.1908 -6.8747 2.6977
-8.0475 -6.8940 2.6977
-7.9064 -6.9128 2.6977
-7.7675 -6.9311 2.6977
-7.6306 -6.9489 2.6977
-7.4958 -6.9663 2.6977
-7.3629 -6.9832 2.6977
-7.2319 -6.9997 2.6977
-7.1027 -7.0158 2.6977
-7.0988 -7.1560 2.7454
-7.1308 -7.3361 2.8084
-7.1053 -7.4603 2.8500
-6.9752 -7.4749 2.8496
-6.8467 -7.4890 2.8493
-6.7199 -7.5029 2.8490
-6.5947 -7.5163 2.8488
-6.4710 -7.5294 2.8485
-6.3488 -7.5421 2.8482
-6.2280 -7.5546 2.8479
-6.1086 -7.5667 2.8476
-5.9906 -7.5785 2.8473
-5.8738 -7.5899 2.8471
-5.7583 -7.6011 2.8468
-5.6441 -7.6120 2.8465
-5.5310 -7.6226 2.8463
-5.4191 -7.6329 2.8460
-5.3084 -7.6429 2.8457
-5.1987 -7.6526 2.8455
-5.0900 -7.6622 2.8452
-4.9824 -7.6714 2.8450
-4.8758 -7.6804 2.8447
-4.7701 -7.6891 2.8445
-4.6654 -7.6976 2.8442
-4.5615 -7.7059 2.8440
-4.4586 -7.7139 2.8437
-4.3564 -7.7217 2.8435
-4.2552 -7.7292 2.8433
-4.1547 -7.7366 2.8430
-4.0549 -7.7437 2.8428
-3.9560 -7.7506 2.8426
-3.8577 -7.7573 2.8423
-3.7601 -7.7638 2.8421
-3.6633 -7.7700 2.8419
-3.5670 -7.7761 2.8416
-3.4715 -7.7820 2.8414
-3.3765 -7.7877 2.8412
-3.2821 -7.7932 2.8410
-3.1883 -7.7985 2.8407
-3.0951 -7.8036 2.8405
-3.0023 -7.8085 2.8403
-2.9102 -7.8133 2.8401
-2.8185 -7.8179 2.8399
-2.7272 -7.8223 2.8397
-2.6365 -7.8265 2.8394
-2.5462 -7.8306 2.8392
-2.4563 -7.8344 2.8390
-1.0776 -3.5686 1.2925
-21.1473 2.4800 1.5951
-21.1951 2.2796 1.6575
-21.2431 2.0787 1.7203
-21.2911 1.8772 1.7835
-21.3394 1.6751 1.8471
-21.3878 1.4724 1.9112
-21.4363 1.2689 1.9757
-21.3979 1.0605 2.0324
-21.4466 0.8564 2.0976
-21.4976 0.6515 2.1636
-21.6304 0.4474 2.2385
-21.6799 0.2398 2.3055
-21.7297 0.0313 2.3731
-21.7797 -0.1782 2.4412
-21.8300 -0.3888 2.5100
-21.8805 -0.6005 2.5793
-22.3324 -0.8283 2.6978
-21.8025 -1.0191 2.6977
-21.2954 -1.2013 2.6977
-20.8088 -1.3753 2.6977
-20.3415 -1.5416 2.6977
-20.1427 -1.7223 2.7316
-20.1776 -1.9217 2.7972
-20.1193 -2.1125 2.8501
-19.6953 -2.2607 2.8501
-19.2862 -2.4029 2.8501
-18.8913 -2.5396 2.8501
-18.5096 -2.6710 2.8501
-18.1406 -2.7974 2.8501
-17.7835 -2.9190 2.8501
-17.4377 -3.0362 2.8501
-17.1027 -3.1492 2.8501
-16.7778 -3.2581 2.8501
-16.4626 -3.3632 2.8501
-16.1566 -3.4647 2.8501
-15.8594 -3.5626 2.8501
-15.5704 -3.6573 2.8501
-15.2895 -3.7489 2.8501
-15.0161 -3.8374 2.8501
-14.7499 -3.9230 2.8501
-14.4907 -4.0060 2.8501
-14.2380 -4.0863 2.8501
-13.9917 -4.1641 2.8501
-13.7515 -4.2395 2.8501
-13.5170 -4.3126 2.8501
-13.2881 -4.3834 2.8501
-13.0644 -4.4522 2.8501
-12.8459 -4.5190 2.8501
-12.6323 -4.5838 2.8501
-12.4234 -4.6467 2.8501
-12.2191 -4.7078 2.8501
-12.0190 -4.7673 2.8501
-11.8232 -4.8250 2.8501
-11.6313 -4.8811 2.8501
-11.4434 -4.9357 2.8501
-11.2591 -4.9888 2.8501
-11.0785 -5.0404 2.8501
-10.9013 -5.0907 2.8501
-7.6809 -3.6800 2.0407
-9.9923 -4.9099 2.6977
-9.8337 -4.9538 2.6977
-9.6780 -4.9966 2.6977
-9.5250 -5.0383 2.6977
-9.3746 -5.0789 2.6977
-9.2268 -5.1185 2.6977
-9.0815 -5.1570 2.6977
-8.9386 -5.1946 2.6977
-8.7980 -5.2313 2.6977
-8.6596 -5.2671 2.6977
-8.5234 -5.3019 2.6977
-8.3892 -5.3359 2.6977
-8.2571 -5.3691 2.6977
-8.1270 -5.4015 2.6977
-7.9988 -5.4331 2.6977
-7.8724 -5.4639 2.6977
-7.7478 -5.4940 2.6977
-7.6249 -5.5234 2.6977
-7.5037 -5.5521 2.6977
-7.3841 -5.5801 2.6977
-7.2662 -5.6075 2.6977
-7.1497 -5.6342 2.6977
-7.0348 -5.6603 2.6977
-6.9212 -5.6857 2.6977
-6.8091 -5.7106 2.6977
-6.7805 -5.8052 2.7307
-6.8048 -5.9473 2.7860
-6.8297 -6.0931 2.8429
-6.7334 -6.1319 2.8498
-6.6212 -6.1547 2.8496
-6.5102 -6.1769 2.8493
-6.4004 -6.1986 2.8490
-6.2918 -6.2198 2.8488
-6.1844 -6.2405 2.8485
-6.0781 -6.2608 2.8483
-5.9730 -6.2805 2.8480
-5.8689 -6.2998 2.8477
-5.7658 -6.3186 2.8475
-5.6638 -6.3370 2.8473
-5.5627 -6.3550 2.8470
-5.4626 -6.3725 2.8468
-5.3634 -6.3896 2.8465
-5.2652 -6.4062 2.8463
-5.1678 -6.4225 2.8461
-5.0712 -6.4384 2.8458
-4.9756 -6.4539 2.8456
-4.8807 -6.4690 2.8454
-4.7866 -6.4838 2.8452
-4.6932 -6.4982 2.8449
-4.6006 -6.5122 2.8447
-4.5087 -6.5259 2.8445
-4.4176 -6.5392 2.8443
-4.3271 -6.5522 2.8441
-4.2373 -6.5649 2.8438
-4.1481 -6.5772 2.8436
-4.0595 -6.5892 2.8434
-3.9716 -6.6009 2.8432
-3.8842 -6.6123 2.8430
-3.7974 -6.6234 2.8428
-3.7112 -6.6342 2.8426
-3.6256 -6.6446 2.8424
-3.5404 -6.6548 2.8422
-3.4558 -6.6647 2.8420
-3.3717 -6.6744 2.8418
-3.2880 -6.6837 2.8416
-3.2048 -6.6928 2.8414
-3.1221 -6.7016 2.8412
-3.0398 -6.7101 2.8410
-2.9579 -6.7184 2.8408
-2.8764 -6.7264 2.8406
-2.7954 -6.7341 2.8404
-2.7147 -6.7416 2.8402
-2.6344 -6.7488 2.8400
-2.5544 -6.7558 2.8398
-2.4748 -6.7626 2.8396
-2.3956 -6.7691 2.8394
-2.3166 -6.7753 2.8392
-2.2380 -6.7814 2.8391
-2.1597 -6.7872 2.8389
-1.0941 -3.5704 1.4921
-21.0808 2.7557 2.5508
-21.8035 2.6381 2.6979
-21.3286 2.3735 2.6977
-20.8738 2.1206 2.6977
-20.4363 1.8783 2.6977
-20.0149 1.6462 2.6977
-19.6088 1.4236 2.6977
-19.4433 1.2241 2.7294
-19.4760 1.0386 2.7889
-19.5088 0.8526 2.8488
-19.1440 0.6524 2.8501
-18.7829 0.4595 2.8501
-18.4333 0.2736 2.8501
-18.0946 0.0945 2.8501
-17.7662 -0.0781 2.8501
-17.4477 -0.2447 2.8501
-17.1385 -0.4055 2.8501
-16.8381 -0.5608 2.8501
-16.5463 -0.7108 2.8501
-16.2625 -0.8559 2.8501
-15.9864 -0.9961 2.8501
-15.7177 -1.1319 2.8501
-15.4560 -1.2632 2.8501
-15.2010 -1.3905 2.8501
-14.9524 -1.5137 2.8501
-14.7100 -1.6332 2.8501
-14.4734 -1.7490 2.8501
-14.2425 -1.8613 2.8501
-14.0171 -1.9703 2.8501
-13.7968 -2.0761 2.8501
-13.5815 -2.1788 2.8501
-13.3710 -2.2785 2.8501
-13.1651 -2.3754 2.8501
-12.9636 -2.4696 2.8501
-12.7664 -2.5611 2.8501
-12.5732 -2.6501 2.8501
-12.3841 -2.7367 2.8501
-12.1987 -2.8210 2.8501
-12.0170 -2.9029 2.8501
-11.8388 -2.9827 2.8501
-11.6640 -3.0604 2.8501
-11.4925 -3.1361 2.8501
-11.3242 -3.2098 2.8501
-11.1589 -3.2816 2.8501
-10.9966 -3.3516 2.8501
-10.8372 -3.4198 2.8501
-10.6805 -3.4863 2.8501
-10.5265 -3.5512 2.8501
-10.3751 -3.6144 2.8501
-9.6794 -3.4795 2.6977
-9.5407 -3.5365 2.6977
-9.4043 -3.5921 2.6977
-9.2700 -3.6464 2.6977
-9.1379 -3.6994 2.6977
-9.0077 -3.7511 2.6977
-8.8795 -3.8016 2.6977
-8.7532 -3.8509 2.6977
-8.6287 -3.8991 2.6977
-8.5060 -3.9461 2.6977
-7.6886 -3.6605 2.4736
-8.2658 -4.0370 2.6977
-8.1482 -4.0809 2.6977
-8.0321 -4.1238 2.6977
-7.9176 -4.1658 2.6977
-7.8046 -4.2068 2.6977
-7.6931 -4.2469 2.6977
-7.5829 -4.2860 2.6977
-7.4742 -4.3244 2.6977
-7.3668 -4.3618 2.6977
-7.2606 -4.3985 2.6977
-7.1558 -4.4343 2.6977
-7.0521 -4.4694 2.6977
-6.9497 -4.5037 2.6977
-6.8484 -4.5372 2.6977
-6.7483 -4.5701 2.6977
-6.6493 -4.6022 2.6977
-6.5513 -4.6336 2.6977
-6.5220 -4.7132 2.7259
-6.5411 -4.8293 2.7751
-6.5606 -4.9479 2.8256
-6.5179 -5.0210 2.8499
-6.4191 -5.0503 2.8497
-6.3213 -5.0790 2.8495
-6.2244 -5.1071 2.8492
-6.1285 -5.1346 2.8490
-6.0335 -5.1615 2.8487
-5.9394 -5.1878 2.8485
-5.8462 -5.2135 2.8483
-5.7538 -5.2387 2.8481
-5.6623 -5.2633 2.8478
-5.5715 -5.2874 2.8476
-5.4815 -5.3110 2.8474
-5.3923 -5.3340 2.8472
-5.3039 -5.3565 2.8470
-5.2161 -5.3786 2.8468
-5.1291 -5.4002 2.8465
-5.0428 -5.4212 2.8463
-4.9571 -5.4418 2.8461
-4.8721 -5.4620 2.8459
-4.7877 -5.4817 2.8457
-4.7040 -5.5010 2.8455
-4.6208 -5.5198 2.8453
-4.5383 -5.5382 2.8451
-4.4563 -5.5562 2.8449
-4.3749 -5.5737 2.8447
-4.2941 -5.5909 2.8445
-4.2137 -5.6076 2.8443
-4.1339 -5.6240 2.8441
-4.0547 -5.6400 2.8439
-3.9759 -5.6556 2.8437
-3.8975 -5.6708 2.8435
-3.8197 -5.6857 2.8433
-3.7423 -5.7002 2.8431
-3.6654 -5.7144 2.8430
-3.5889 -5.7282 2.8428
-3.5128 -5.7416 2.8426
-3.4371 -5.7547 2.8424
-3.3618 -5.7675 2.8422
-3.2869 -5.7799 2.8420
-3.2124 -5.7920 2.8419
-3.1383 -5.8038 2.8417
-3.0645 -5.8153 2.8415
-2.9911 -5.8264 2.8413
-2.9180 -5.8373 2.8411
-2.8452 -5.8478 2.8410
-2.7728 -5.8581 2.8408
-2.7006 -5.8680 2.8406
-2.6288 -5.8776 2.8404
-2.5572 -5.8870 2.8403
-2.4859 -5.8960 2.8401
-2.4150 -5.9048 2.8399
-2.3442 -5.9133 2.8398
-2.2737 -5.9215 2.8396
-2.2035 -5.9294 2.8394
-2.1335 -5.9370 2.8393
-2.0638 -5.9444 2.8391
-1.9942 -5.9515 2.8389
-1.9249 -5.9584 2.8388
-1.8558 -5.9649 2.8386
-17.0430 2.4605 2.8501
-16.7727 2.2580 2.8501
-16.5095 2.0621 2.8501
-16.2529 1.8724 2.8501
-16.0027 1.6886 2.8501
-15.7587 1.5104 2.8501
-15.5206 1.3378 2.8501
-15.2881 1.1703 2.8501
-15.0610 1.0078 2.8501
-14.8392 0.8501 2.8501
-14.6223 0.6970 2.8501
-14.4102 0.5483 2.8501
-14.2027 0.4039 2.8501
-13.9997 0.2635 2.8501
-13.8009 0.1270 2.8501
-13.6063 -0.0056 2.8501
-13.4156 -0.1347 2.8501
-13.2288 -0.2603 2.8501
-13.0456 -0.3825 2.8501
-12.8660 -0.5014 2.8501
-12.6898 -0.6172 2.8501
-12.5169 -0.7301 2.8501
-12.3473 -0.8400 2.8501
-12.1807 -0.9470 2.8501
-12.0171 -1.0514 2.8501
-11.8565 -1.1532 2.8501
-11.6986 -1.2524 2.8501
-11.5434 -1.3491 2.8501
-11.3908 -1.4435 2.8501
-11.2408 -1.5356 2.8501
-11.0932 -1.6255 2.8501
-10.9480 -1.7132 2.8501
-10.8052 -1.7988 2.8501
-10.6645 -1.8824 2.8501
-10.5260 -1.9641 2.8501
-10.3897 -2.0438 2.8501
-10.2554 -2.1217 2.8501
-10.1230 -2.1978 2.8501
-9.4583 -2.1507 2.6977
-9.3366 -2.2195 2.6977
-9.2167 -2.2868 2.6977
-9.0984 -2.3525 2.6977
-8.9818 -2.4168 2.6977
-8.8667 -2.4797 2.6977
-8.7532 -2.5412 2.6977
-8.6411 -2.6013 2.6977
-8.5305 -2.6602 2.6977
-8.4214 -2.7177 2.6977
-8.3136 -2.7741 2.6977
-8.2071 -2.8292 2.6977
-8.1020 -2.8831 2.6977
-7.9981 -2.9359 2.6977
-7.8954 -2.9876 2.6977
-7.7940 -3.0382 2.6977
-7.6937 -3.0878 2.6977
-7.5946 -3.1363 2.6977
-7.4966 -3.1838 2.6977
-7.3997 -3.2303 2.6977
-7.3038 -3.2759 2.6977
-7.2090 -3.3205 2.6977
-7.1151 -3.3642 2.6977
-7.0223 -3.4070 2.6977
-6.9304 -3.4490 2.6977
-6.8394 -3.4901 2.6977
-6.7494 -3.5303 2.6977
-6.6603 -3.5698 2.6977
-6.5720 -3.6085 2.6977
-6.4845 -3.6464 2.6977
-6.3979 -3.6835 2.6977
-6.3121 -3.7199 2.6977
-6.3047 -3.8023 2.7313
-6.3203 -3.9000 2.7756
-6.3362 -3.9995 2.8209
-6.3141 -4.0761 2.8500
-6.2269 -4.1106 2.8498
-6.1405 -4.1443 2.8495
-6.0549 -4.1774 2.8493
-5.9700 -4.2098 2.8491
-5.8857 -4.2416 2.8489
-5.8022 -4.2727 2.8487
-5.7193 -4.3032 2.8485
-5.6371 -4.3331 2.8483
-5.5556 -4.3624 2.8481
-5.4747 -4.3910 2.8479
-5.3943 -4.4191 2.8477
-5.3146 -4.4467 2.8475
-5.2355 -4.4736 2.8473
-5.1569 -4.5001 2.8471
-5.0789 -4.5260 2.8469
-5.0015 -4.5513 2.8467
-4.9246 -4.5762 2.8465
-4.8482 -4.6005 2.8463
-4.7723 -4.6244 2.8461
-4.6969 -4.6477 2.8459
-4.6220 -4.6706 2.8457
-4.5476 -4.6930 2.8456
-4.4737 -4.7149 2.8454
-4.4002 -4.7364 2.8452
-4.3271 -4.7574 2.8450
-4.2545 -4.7779 2.8448
-4.1824 -4.7981 2.8446
-4.1106 -4.8178 2.8445
-4.0392 -4.8370 2.8443
-3.9682 -4.8559 2.8441
-3.8977 -4.8743 2.8439
-3.8275 -4.8924 2.8438
-3.7576 -4.9100 2.8436
-3.6882 -4.9272 2.8434
-3.6190 -4.9441 2.8433
-3.5503 -4.9605 2.8431
-3.4818 -4.9766 2.8429
-3.4137 -4.9923 2.8427
-3.3459 -5.0077 2.8426
-3.2784 -5.0227 2.8424
-3.2112 -5.0373 2.8423
-3.1443 -5.0515 2.8421
-3.0777 -5.0655 2.8419
-3.0114 -5.0790 2.8418
-2.9454 -5.0923 2.8416
-2.8796 -5.1052 2.8414
-2.8141 -5.1177 2.8413
-2.7488 -5.1300 2.8411
-2.6838 -5.1419 2.8410
-2.6190 -5.1535 2.8408
-2.5545 -5.1647 2.8406
-2.4902 -5.1757 2.8405
-2.4261 -5.1863 2.8403
-2.3622 -5.1966 2.8402
-2.2985 -5.2067 2.8400
-2.2350 -5.2164 2.8399
-2.1717 -5.2258 2.8397
-2.1087 -5.2349 2.8396
-2.0458 -5.2437 2.8394
-1.9830 -5.2523 2.8393
-1.9205 -5.2605 2.8391
-1.8581 -5.2685 2.8390
-1.7958 -5.2761 2.8388
-1.7338 -5.2835 2.8387
-1.6718 -5.2906 2.8385
-13.2978 2.1046 2.8501
-13.1352 1.9508 2.8501
-12.9753 1.8007 2.8501
-12.8181 1.6544 2.8501
-12.6635 1.5117 2.8501
-12.5114 1.3725 2.8501
-12.3617 1.2367 2.8501
-12.2144 1.1041 2.8501
-12.0694 0.9747 2.8501
-11.9266 0.8483 2.8501
-11.7860 0.7250 2.8501
-11.6475 0.6045 2.8501
-11.5111 0.4868 2.8501
-11.3766 0.3718 2.8501
-11.2441 0.2594 2.8501
-11.1134 0.1495 2.8501
-10.9846 0.0421 2.8501
-10.8575 -0.0628 2.8501
-10.7322 -0.1655 2.8501
-10.6086 -0.2658 2.8501
-10.4866 -0.3640 2.8501
-10.3662 -0.4601 2.8501
-10.2474 -0.5541 2.8501
-10.1301 -0.6460 2.8501
-10.0142 -0.7360 2.8501
-9.8998 -0.8240 2.8501
-9.7868 -0.9103 2.8501
-9.1578 -0.9415 2.6977
-9.0535 -1.0197 2.6977
-8.9503 -1.0963 2.6977
-8.8484 -1.1713 2.6977
-8.7476 -1.2448 2.6977
-8.6479 -1.3167 2.6977
-8.5494 -1.3872 2.6977
-8.4520 -1.4563 2.6977
-8.3557 -1.5240 2.6977
-8.2603 -1.5903 2.6977
-8.1661 -1.6553 2.6977
-8.0728 -1.7190 2.6977
-7.9804 -1.7815 2.6977
-7.8890 -1.8427 2.6977
-7.7986 -1.9027 2.6977
-7.7090 -1.9615 2.6977
-7.6204 -2.0192 2.6977
-7.5326 -2.0758 2.6977
-7.4456 -2.1313 2.6977
-7.3595 -2.1857 2.6977
-7.2742 -2.2391 2.6977
-7.1896 -2.2914 2.6977
-7.1059 -2.3427 2.6977
-7.0229 -2.3931 2.6977
-6.9407 -2.4425 2.6977
-6.8592 -2.4910 2.6977
-6.7783 -2.5385 2.6977
-6.6982 -2.5852 2.6977
-6.6188 -2.6310 2.6977
-6.5400 -2.6759 2.6977
-6.4619 -2.7200 2.6977
-6.3844 -2.7633 2.6977
-6.3076 -2.8057 2.6977
-6.2313 -2.8474 2.6977
-6.1557 -2.8883 2.6977
-6.1038 -2.9396 2.7079
-6.1167 -3.0225 2.7473
-6.1298 -3.1067 2.7875
-6.1431 -3.1922 2.8285
-6.1128 -3.2558 2.8500
-6.0359 -3.2941 2.8498
-5.9596 -3.3318 2.8496
-5.8839 -3.3688 2.8494
-5.8088 -3.4050 2.8492
-5.7342 -3.4407 2.8490
-5.6601 -3.4756 2.8488
-5.5865 -3.5099 2.8486
-5.5134 -3.5435 2.8484
-5.4407 -3.5766 2.8482
-5.3686 -3.6090 2.8480
-5.2969 -3.6408 2.8479
-5.2257 -3.6720 2.8477
-5.1549 -3.7026 2.8475
-5.0846 -3.7326 2.8473
-5.0147 -3.7621 2.8471
-4.9452 -3.7911 2.8470
-4.8762 -3.8194 2.8468
-4.8075 -3.8473 2.8466
-4.7392 -3.8746 2.8464
-4.6714 -3.9014 2.8463
-4.6039 -3.9277 2.8461
-4.5368 -3.9534 2.8459
-4.4700 -3.9787 2.8457
-4.4036 -4.0035 2.8456
-4.3376 -4.0278 2.8454
-4.2719 -4.0516 2.8452
-4.2065 -4.0750 2.8451
-4.1415 -4.0979 2.8449
-4.0767 -4.1203 2.8448
-4.0123 -4.1423 2.8446
-3.9483 -4.1639 2.8444
-3.8845 -4.1850 2.8443
-3.8210 -4.2057 2.8441
-3.7578 -4.2260 2.8440
-3.6949 -4.2458 2.8438
-3.6323 -4.2653 2.8436
-3.5699 -4.2843 2.8435
-3.5078 -4.3030 2.8433
-3.4460 -4.3212 2.8432
-3.3844 -4.3391 2.8430
-3.3231 -4.3565 2.8429
-3.2620 -4.3736 2.8427
-3.2011 -4.3903 2.8426
-3.1405 -4.4067 2.8424
-3.0801 -4.4227 2.8423
-3.0200 -4.4383 2.8421
-2.9600 -4.4535 2.8420
-2.9003 -4.4684 2.8418
-2.8408 -4.4830 2.8417
-2.7815 -4.4972 2.8415
-2.7223 -4.5111 2.8414
-2.6634 -4.5246 2.8412
-2.6047 -4.5378 2.8411
-2.5461 -4.5506 2.8410
-2.4877 -4.5631 2.8408
-2.4295 -4.5753 2.8407
-2.3715 -4.5872 2.8405
-2.3136 -4.5988 2.8404
-2.2559 -4.6100 2.8402
-2.1984 -4.6209 2.8401
-2.1410 -4.6315 2.8400
-2.0837 -4.6418 2.8398
-2.0266 -4.6518 2.8397
-1.9696 -4.6615 2.8395
-1.9128 -4.6709 2.8394
-1.8561 -4.6800 2.8393
-1.7996 -4.6888 2.8391
-1.7431 -4.6973 2.8390
-1.6868 -4.7055 2.8389
-1.6306 -4.7135 2.8387
-1.5745 -4.7211 2.8386
-1.5185 -4.7284 2.8385
-10.8562 1.8726 2.8501
-10.7492 1.7492 2.8501
-10.6434 1.6283 2.8501
-10.5386 1.5098 2.8501
-10.4349 1.3937 2.8501
-10.3322 1.2800 2.8501
-10.2305 1.1685 2.8501
-10.1299 1.0592 2.8501
-10.0302 0.9522 2.8501
-9.9315 0.8472 2.8501
-9.8338 0.7442 2.8501
-9.7369 0.6433 2.8501
-9.6410 0.5444 2.8501
-9.5460 0.4473 2.8501
-9.4518 0.3521 2.8501
-8.8581 0.2449 2.6977
-8.7705 0.1582 2.6977
-8.6838 0.0732 2.6977
-8.5978 -0.0102 2.6977
-8.5126 -0.0921 2.6977
-8.4282 -0.1724 2.6977
-8.3444 -0.2513 2.6977
-8.2614 -0.3286 2.6977
-8.1791 -0.4046 2.6977
-8.0974 -0.4791 2.6977
-8.0165 -0.5522 2.6977
-7.9361 -0.6240 2.6977
-7.8565 -0.6945 2.6977
-7.7775 -0.7638 2.6977
-7.6991 -0.8317 2.6977
-7.6213 -0.8985 2.6977
-7.5442 -0.9640 2.6977
-7.4676 -1.0283 2.6977
-7.3916 -1.0915 2.6977
-7.3162 -1.1536 2.6977
-7.2414 -1.2146 2.6977
-7.1671 -1.2745 2.6977
-7.0934 -1.3333 2.6977
-7.0202 -1.3910 2.6977
-6.9475 -1.4478 2.6977
-6.8754 -1.5036 2.6977
-6.8037 -1.5584 2.6977
-6.7326 -1.6122 2.6977
-6.6619 -1.6651 2.6977
-6.5918 -1.7171 2.6977
-6.5221 -1.7681 2.6977
-6.4528 -1.8183 2.6977
-6.3841 -1.8676 2.6977
-6.3158 -1.9161 2.6977
-6.2479 -1.9637 2.6977
-6.1804 -2.0105 2.6977
-6.1134 -2.0565 2.6977
-6.0468 -2.1017 2.6977
-5.9807 -2.1461 2.6977
-5.9276 -2.1945 2.7034
-5.9387 -2.2667 2.7388
-5.9499 -2.3399 2.7748
-5.9612 -2.4140 2.8114
-5.9726 -2.4891 2.8488
-5.9078 -2.5325 2.8501
-5.8408 -2.5741 2.8501
-5.7741 -2.6149 2.8501
-5.7078 -2.6551 2.8501
-5.6419 -2.6946 2.8501
-5.5763 -2.7334 2.8501
-5.5111 -2.7715 2.8501
-5.4463 -2.8090 2.8501
-5.3818 -2.8458 2.8501
-5.3176 -2.8821 2.8501
-5.2537 -2.9177 2.8501
-5.1902 -2.9526 2.8501
-5.1270 -2.9870 2.8501
-5.0642 -3.0208 2.8501
-5.0016 -3.0540 2.8501
-4.9393 -3.0866 2.8501
-4.8774 -3.1187 2.8501
-4.8157 -3.1502 2.8501
-4.7544 -3.1811 2.8501
-4.6933 -3.2115 2.8501
-4.6325 -3.2414 2.8501
-4.5719 -3.2707 2.8501
-4.5117 -3.2996 2.8501
-4.4517 -3.3279 2.8501
-4.3918 -3.3556 2.8500
-4.3321 -3.3828 2.8499
-4.2725 -3.4094 2.8496
-4.2131 -3.4354 2.8493
-4.1539 -3.4608 2.8490
-4.0948 -3.4857 2.8486
-4.0359 -3.5100 2.8480
-3.9772 -3.5339 2.8475
-3.9186 -3.5572 2.8470
-3.8603 -3.5800 2.8464
-3.8022 -3.6024 2.8458
-3.7442 -3.6242 2.8451
-3.6865 -3.6456 2.8444
-3.6293 -3.6669 2.8440
-3.5727 -3.6881 2.8438
-3.5163 -3.7090 2.8437
-3.4601 -3.7294 2.8435
-3.4041 -3.7494 2.8434
-3.3483 -3.7690 2.8432
-3.2927 -3.7883 2.8431
-3.2373 -3.8071 2.8430
-3.1820 -3.8256 2.8428
-3.1270 -3.8437 2.8427
-3.0721 -3.8614 2.8425
-3.0173 -3.8787 2.8424
-2.9628 -3.8957 2.8423
-2.9084 -3.9123 2.8421
-2.8542 -3.9285 2.8420
-2.8001 -3.9444 2.8419
-2.7462 -3.9600 2.8417
-2.6924 -3.9752 2.8416
-2.6388 -3.9900 2.8415
-2.5853 -4.0045 2.8413
-2.5320 -4.0187 2.8412
-2.4788 -4.0325 2.8411
-2.4257 -4.0460 2.8409
-2.3728 -4.0592 2.8408
-2.3200 -4.0721 2.8407
-2.2673 -4.0846 2.8405
-2.2148 -4.0968 2.8404
-2.1623 -4.1087 2.8403
-2.1100 -4.1203 2.8402
-2.0578 -4.1316 2.8400
-2.0057 -4.1425 2.8399
-1.9537 -4.1532 2.8398
-1.9018 -4.1635 2.8397
-1.8500 -4.1736 2.8395
-1.7984 -4.1833 2.8394
-1.7468 -4.1928 2.8393
-1.6953 -4.2019 2.8391
-1.6439 -4.2108 2.8390
-1.5926 -4.2193 2.8389
-1.5413 -4.2276 2.8388
-1.4902 -4.2356 2.8387
-1.4391 -4.2433 2.8385
-1.3881 -4.2507 2.8384
-9.1320 1.7089 2.8501
-8.5731 1.5204 2.6977
-8.5029 1.4250 2.6977
-8.4330 1.3312 2.6977
-8.3634 1.2391 2.6977
-8.2942 1.1485 2.6977
-8.2253 1.0594 2.6977
-8.1568 0.9718 2.6977
-8.0886 0.8857 2.6977
-8.0208 0.8010 2.6977
-7.9533 0.7178 2.6977
-7.8861 0.6359 2.6977
-7.8192 0.5555 2.6977
-7.7527 0.4763 2.6977
-7.6865 0.3985 2.6977
-7.6206 0.3219 2.6977
-7.5551 0.2466 2.6977
-7.4899 0.1726 2.6977
-7.4250 0.0998 2.6977
-7.3604 0.0281 2.6977
-7.2961 -0.0423 2.6977
-7.2322 -0.1116 2.6977
-7.1685 -0.1798 2.6977
-7.1052 -0.2469 2.6977
-7.0421 -0.3129 2.6977
-6.9794 -0.3778 2.6977
-6.9170 -0.4416 2.6977
-6.8548 -0.5045 2.6977
-6.7930 -0.5663 2.6977
-6.7315 -0.6271 2.6977
-6.6702 -0.6870 2.6977
-6.6092 -0.7458 2.6977
-6.5486 -0.8038 2.6977
-6.4882 -0.8608 2.6977
-6.4280 -0.9169 2.6977
-6.3682 -0.9721 2.6977
-6.3086 -1.0264 2.6977
-6.2493 -1.0799 2.6977
-6.1903 -1.1325 2.6977
-6.1315 -1.1842 2.6977
-6.0730 -1.2352 2.6977
-6.0147 -1.2853 2.6977
-5.9568 -1.3347 2.6977
-5.8990 -1.3832 2.6977
-5.8415 -1.4310 2.6977
-5.7843 -1.4781 2.6977
-5.7687 -1.5354 2.7171
-5.7785 -1.5998 2.7490
-5.7884 -1.6649 2.7814
-5.7984 -1.7307 2.8144
-5.8084 -1.7972 2.8480
-5.7536 -1.8436 2.8501
-5.6949 -1.8881 2.8501
-5.6365 -1.9318 2.8501
-5.5783 -1.9748 2.8501
-5.5203 -2.0172 2.8501
-5.4625 -2.0589 2.8501
-5.4050 -2.0999 2.8501
-5.3477 -2.1403 2.8501
-5.2906 -2.1800 2.8501
-5.2338 -2.2191 2.8501
-5.1771 -2.2576 2.8501
-5.1207 -2.2955 2.8501
-5.0645 -2.3327 2.8501
-5.0085 -2.3694 2.8501
-4.9527 -2.4055 2.8501
-4.8971 -2.4410 2.8501
-4.8417 -2.4759 2.8501
-4.7866 -2.5103 2.8501
-4.7316 -2.5441 2.8501
-4.6768 -2.5773 2.8501
-4.6222 -2.6101 2.8501
-4.5678 -2.6422 2.8501
-4.5136 -2.6739 2.8501
-4.4595 -2.7051 2.8501
-4.4057 -2.7357 2.8501
-4.3520 -2.7658 2.8501
-4.2985 -2.7955 2.8501
-4.2452 -2.8246 2.8501
-4.1921 -2.8533 2.8501
-4.1391 -2.8814 2.8501
-4.0863 -2.9092 2.8501
-4.0336 -2.9364 2.8501
-3.9811 -2.9632 2.8501
-3.9288 -2.9895 2.8501
-3.8766 -3.0154 2.8501
-3.8246 -3.0408 2.8501
-3.7728 -3.0658 2.8501
-3.7211 -3.0904 2.8501
-3.6695 -3.1145 2.8501
-3.6181 -3.1382 2.8501
-3.5669 -3.1615 2.8501
-3.5157 -3.1844 2.8501
-3.4647 -3.2069 2.8501
-3.4139 -3.2289 2.8501
-3.3632 -3.2506 2.8501
-3.3126 -3.2719 2.8501
-3.2622 -3.2928 2.8501
-3.2118 -3.3132 2.8501
-3.1616 -3.3334 2.8501
-3.1116 -3.3531 2.8501
-3.0616 -3.3724 2.8501
-3.0118 -3.3914 2.8501
-2.9620 -3.4100 2.8500
-2.9124 -3.4282 2.8500
-2.8629 -3.4460 2.8499
-2.8134 -3.4635 2.8499
-2.7641 -3.4806 2.8498
-2.7149 -3.4973 2.8497
-2.6657 -3.5136 2.8496
-2.6167 -3.5296 2.8494
-2.5677 -3.5452 2.8493
-2.5189 -3.5606 2.8492
-2.4701 -3.5755 2.8490
-2.4215 -3.5902 2.8489
-2.3729 -3.6044 2.8487
-2.3244 -3.6183 2.8486
-2.2760 -3.6319 2.8484
-2.2277 -3.6453 2.8482
-2.1795 -3.6582 2.8481
-2.1314 -3.6709 2.8479
-2.0834 -3.6832 2.8477
-2.0355 -3.6952 2.8476
-1.9876 -3.7069 2.8474
-1.9398 -3.7184 2.8472
-1.8922 -3.7295 2.8471
-1.8446 -3.7403 2.8469
-1.7970 -3.7508 2.8468
-1.7496 -3.7610 2.8466
-1.7022 -3.7709 2.8465
-1.6548 -3.7806 2.8463
-1.6076 -3.7899 2.8462
-1.5604 -3.7990 2.8461
-1.5133 -3.8078 2.8459
-1.4663 -3.8163 2.8458
-1.4193 -3.8245 2.8457
-1.3724 -3.8325 2.8456
-1.3255 -3.8402 2.8455
-1.2787 -3.8476 2.8454
-7.4252 1.5017 2.6977
-7.3740 1.4191 2.6977
-7.3227 1.3378 2.6977
-7.2715 1.2576 2.6977
-7.2203 1.1785 2.6977
-7.1691 1.1007 2.6977
-7.1179 1.0240 2.6977
-7.0668 0.9483 2.6977
-7.0157 0.8738 2.6977
-6.9646 0.8004 2.6977
-6.9136 0.7281 2.6977
-6.8627 0.6568 2.6977
-6.8118 0.5865 2.6977
-6.7609 0.5172 2.6977
-6.7102 0.4490 2.6977
-6.6595 0.3818 2.6977
-6.6088 0.3155 2.6977
-6.5582 0.2502 2.6977
-6.5077 0.1858 2.6977
-6.4573 0.1224 2.6977
-6.4070 0.0599 2.6977
-6.3567 -0.0017 2.6977
-6.3065 -0.0625 2.6977
-6.2564 -0.1223 2.6977
-6.2064 -0.1813 2.6977
-6.1565 -0.2394 2.6977
-6.1067 -0.2966 2.6977
-6.0570 -0.3531 2.6977
-6.0073 -0.4087 2.6977
-5.9578 -0.4635 2.6977
-5.9084 -0.5176 2.6977
-5.8590 -0.5708 2.6977
-5.8098 -0.6233 2.6977
-5.7606 -0.6750 2.6977
-5.7116 -0.7260 2.6977
-5.6626 -0.7762 2.6977
-5.6138 -0.8257 2.6977
-5.6128 -0.8820 2.7208
-5.6218 -0.9402 2.7492
-5.6308 -0.9988 2.7780
-5.6398 -1.0579 2.8073
-5.6489 -1.1176 2.8371
-5.6237 -1.1705 2.8501
-5.5729 -1.2178 2.8501
-5.5222 -1.2643 2.8501
-5.4716 -1.3101 2.8501
-5.4211 -1.3553 2.8501
-5.3707 -1.3998 2.8501
-5.3205 -1.4437 2.8501
-5.2703 -1.4869 2.8501
-5.2203 -1.5295 2.8501
-5.1704 -1.5715 2.8501
-5.1206 -1.6128 2.8501
-5.0709 -1.6536 2.8501
-5.0213 -1.6937 2.8501
-4.9719 -1.7333 2.8501
-4.9225 -1.7722 2.8501
-4.8733 -1.8106 2.8501
-4.8242 -1.8484 2.8501
-4.7751 -1.8857 2.8501
-4.7262 -1.9224 2.8501
-4.6774 -1.9585 2.8501
-4.6288 -1.9941 2.8501
-4.5802 -2.0292 2.8501
-4.5317 -2.0638 2.8501
-4.4833 -2.0978 2.8501
-4.4351 -2.1313 2.8501
-4.3869 -2.1643 2.8501
-4.3389 -2.1968 2.8501
-4.2909 -2.2288 2.8501
-4.2431 -2.2603 2.8501
-4.1954 -2.2914 2.8501
-4.1477 -2.3219 2.8501
-4.1002 -2.3520 2.8501
-4.0528 -2.3816 2.8501
-4.0054 -2.4107 2.8501
-3.9582 -2.4394 2.8501
-3.9111 -2.4677 2.8501
-3.8641 -2.4955 2.8501
-3.8171 -2.5228 2.8501
-3.7703 -2.5497 2.8501
-3.7235 -2.5762 2.8501
-3.6769 -2.6023 2.8501
-3.6303 -2.6279 2.8501
-3.5838 -2.6531 2.8501
-3.5375 -2.6779 2.8501
-3.4912 -2.7023 2.8501
-3.4450 -2.7263 2.8501
-3.3989 -2.7499 2.8501
-3.3528 -2.7731 2.8501
-3.3069 -2.7959 2.8501
-3.2610 -2.8183 2.8501
-3.2153 -2.8404 2.8501
-3.1696 -2.8620 2.8501
-3.1240 -2.8833 2.8501
-3.0785 -2.9042 2.8501
-3.0330 -2.9247 2.8501
-2.9876 -2.9449 2.8501
-2.9424 -2.9647 2.8501
-2.8971 -2.9841 2.8501
-2.8520 -3.0032 2.8501
-2.8069 -3.0219 2.8501
-2.7620 -3.0403 2.8501
-2.7170 -3.0584 2.8501
-2.6722 -3.0761 2.8501
-2.6274 -3.0934 2.8501
-2.5827 -3.1104 2.8501
-2.5381 -3.1271 2.8501
-2.4935 -3.1435 2.8501
-2.4490 -3.1595 2.8501
-2.4046 -3.1752 2.8501
-2.3602 -3.1905 2.8501
-2.3159 -3.2056 2.8501
-2.2716 -3.2203 2.8501
-2.2274 -3.2347 2.8501
-2.1833 -3.2488 2.8501
-2.1392 -3.2626 2.8501
-2.0952 -3.2761 2.8501
-2.0512 -3.2892 2.8501
-2.0073 -3.3021 2.8501
-1.9634 -3.3147 2.8501
-1.9196 -3.3269 2.8501
-1.8759 -3.3389 2.8501
-1.8322 -3.3505 2.8501
-1.7885 -3.3619 2.8501
-1.7449 -3.3730 2.8501
-1.7014 -3.3838 2.8501
-1.6578 -3.3943 2.8501
-1.6144 -3.4044 2.8501
-1.5709 -3.4144 2.8501
-1.5275 -3.4240 2.8501
-1.4842 -3.4333 2.8501
-1.4409 -3.4424 2.8501
-1.3976 -3.4512 2.8501
-1.3544 -3.4597 2.8501
-1.3112 -3.4679 2.8501
-1.2680 -3.4759 2.8501
-1.2249 -3.4835 2.8500
-1.1818 -3.4909 2.8500
-6.4772 1.4116 2.6977
-6.4388 1.3401 2.6977
-6.4003 1.2695 2.6977
-6.3617 1.1998 2.6977
-6.3229 1.1310 2.6977
-6.2839 1.0631 2.6977
-6.2449 0.9960 2.6977
-6.2057 0.9298 2.6977
-6.1664 0.8644 2.6977
-6.1269 0.7999 2.6977
-6.0874 0.7362 2.6977
-6.0477 0.6733 2.6977
-6.0080 0.6112 2.6977
-5.9682 0.5500 2.6977
-5.9283 0.4895 2.6977
-5.8883 0.4298 2.6977
-5.8482 0.3708 2.6977
-5.8081 0.3126 2.6977
-5.7679 0.2552 2.6977
-5.7276 0.1985 2.6977
-5.6873 0.1426 2.6977
-5.6469 0.0874 2.6977
-5.6065 0.0328 2.6977
-5.5661 -0.0209 2.6977
-5.5256 -0.0740 2.6977
-5.4850 -0.1264 2.6977
-5.4493 -0.1783 2.7000
-5.4577 -0.2314 2.7245
-5.4661 -0.2849 2.7494
-5.4746 -0.3386 2.7747
-5.4830 -0.3927 2.8004
-5.4914 -0.4470 2.8264
-5.4943 -0.5012 2.8501
-5.4513 -0.5510 2.8501
-5.4083 -0.6002 2.8501
-5.3653 -0.6486 2.8501
-5.3223 -0.6965 2.8501
-5.2793 -0.7437 2.8501
-5.2362 -0.7903 2.8501
-5.1932 -0.8362 2.8501
-5.1502 -0.8815 2.8501
-5.1072 -0.9263 2.8501
-5.0642 -0.9704 2.8501
-5.0212 -1.0140 2.8501
-4.9783 -1.0569 2.8501
-4.9353 -1.0993 2.8501
-4.8924 -1.1411 2.8501
-4.8495 -1.1823 2.8501
-4.8066 -1.2230 2.8501
-4.7637 -1.2631 2.8501
-4.7208 -1.3027 2.8501
-4.6780 -1.3417 2.8501
-4.6352 -1.3802 2.8501
-4.5924 -1.4181 2.8501
-4.5497 -1.4556 2.8501
-4.5070 -1.4925 2.8501
-4.4643 -1.5289 2.8501
-4.4216 -1.5648 2.8501
-4.3790 -1.6002 2.8501
-4.3364 -1.6352 2.8501
-4.2939 -1.6696 2.8501
-4.2514 -1.7035 2.8501
-4.2089 -1.7369 2.8501
-4.1665 -1.7699 2.8501
-4.1240 -1.8024 2.8501
-4.0817 -1.8345 2.8501
-4.0393 -1.8661 2.8501
-3.9548 -1.9279 2.8501
-3.9971 -1.8972 2.8501
-3.9126 -1.9581 2.8501
-3.7862 -2.0462 2.8501
-3.8704 -1.9879 2.8501
-3.7442 -2.0747 2.8501
-3.8283 -2.0173 2.8501
-3.7021 -2.1028 2.8501
-3.6183 -2.1577 2.8501
-3.6602 -2.1304 2.8501
-3.5764 -2.1845 2.8501
-3.4510 -2.2626 2.8501
-3.5345 -2.2109 2.8501
-3.4093 -2.2878 2.8501
-3.4927 -2.2370 2.8501
-3.3676 -2.3127 2.8501
-3.2844 -2.3612 2.8501
-3.3260 -2.3371 2.8501
-3.2428 -2.3848 2.8501
-3.1185 -2.4537 2.8501
-3.2013 -2.4082 2.8501
-3.0771 -2.4759 2.8501
-3.1599 -2.4311 2.8501
-3.0358 -2.4977 2.8501
-2.9532 -2.5403 2.8501
-2.9945 -2.5192 2.8501
-2.9120 -2.5611 2.8501
-2.7886 -2.6213 2.8501
-2.8708 -2.5815 2.8501
-2.7476 -2.6407 2.8501
-2.8297 -2.6015 2.8501
-2.7066 -2.6597 2.8501
-2.6247 -2.6968 2.8501
-2.6656 -2.6784 2.8501
-2.5838 -2.7148 2.8501
-2.5429 -2.7325 2.8501
-2.4613 -2.7669 2.8501
-2.5021 -2.7499 2.8501
-2.4206 -2.7837 2.8501
-2.2986 -2.8320 2.8501
-2.3799 -2.8001 2.8501
-2.2580 -2.8475 2.8501
-2.3392 -2.8162 2.8501
-2.2175 -2.8626 2.8501
-2.1364 -2.8920 2.8501
-2.1769 -2.8775 2.8501
-2.0960 -2.9063 2.8501
-1.9748 -2.9473 2.8501
-2.0556 -2.9202 2.8501
-1.9345 -2.9603 2.8501
-2.0152 -2.9339 2.8501
-1.8942 -2.9731 2.8501
-1.8137 -2.9977 2.8501
-1.8539 -2.9855 2.8501
-1.7735 -3.0096 2.8501
-1.6531 -3.0436 2.8501
-1.7333 -3.0212 2.8501
-1.6130 -3.0543 2.8501
-1.6932 -3.0325 2.8501
-1.5729 -3.0648 2.8501
-1.4928 -3.0849 2.8501
-1.5329 -3.0750 2.8501
-1.4529 -3.0945 2.8501
-1.4129 -3.1039 2.8501
-1.3730 -3.1130 2.8501
-1.3330 -3.1218 2.8501
-1.2932 -3.1303 2.8501
-1.2533 -3.1386 2.8501
-1.2134 -3.1466 2.8501
-1.1736 -3.1544 2.8501
-1.1338 -3.1618 2.8501
-1.0940 -3.1690 2.8501
-5.7155 1.3393 2.6977
-5.6862 1.2765 2.6977
-5.6566 1.2145 2.6977
-5.6269 1.1532 2.6977
-5.5969 1.0926 2.6977
-5.5666 1.0326 2.6977
-5.5362 0.9733 2.6977
-5.5055 0.9147 2.6977
-5.4746 0.8568 2.6977
-5.4436 0.7995 2.6977
-5.4123 0.7429 2.6977
-5.3808 0.6869 2.6977
-5.3492 0.6315 2.6977
-5.3174 0.5768 2.6977
-5.2855 0.5227 2.6977
-5.2917 0.4727 2.7174
-5.2999 0.4227 2.7384
-5.3082 0.3726 2.7598
-5.3164 0.3223 2.7816
-5.3246 0.2718 2.8036
-5.3328 0.2212 2.8261
-5.3410 0.1704 2.8488
-5.3083 0.1184 2.8501
-5.2732 0.0670 2.8501
-5.2380 0.0162 2.8501
-5.2026 -0.0339 2.8501
-5.1672 -0.0835 2.8501
-5.1316 -0.1325 2.8501
-5.0960 -0.1809 2.8501
-5.0602 -0.2287 2.8501
-5.0243 -0.2760 2.8501
-4.9884 -0.3227 2.8501
-4.9523 -0.3688 2.8501
-4.9162 -0.4143 2.8501
-4.8800 -0.4594 2.8501
-4.8437 -0.5038 2.8501
-4.8074 -0.5477 2.8501
-4.7709 -0.5911 2.8501
-4.7344 -0.6339 2.8501
-4.6979 -0.6762 2.8501
-4.6613 -0.7180 2.8501
-4.6246 -0.7593 2.8501
-4.5878 -0.8000 2.8501
-4.5510 -0.8402 2.8501
-4.5142 -0.8800 2.8501
-4.4773 -0.9192 2.8501
-4.4404 -0.9579 2.8501
-4.4034 -0.9962 2.8501
-4.3664 -1.0339 2.8501
-4.3293 -1.0712 2.8501
-4.2922 -1.1080 2.8501
-4.2551 -1.1443 2.8501
-4.2179 -1.1802 2.8501
-4.1807 -1.2156 2.8501
-4.1435 -1.2505 2.8501
-4.1062 -1.2850 2.8501
-4.0690 -1.3190 2.8501
-4.0317 -1.3526 2.8501
-3.9943 -1.3858 2.8501
-3.9570 -1.4185 2.8501
-3.9197 -1.4507 2.8501
-3.8823 -1.4826 2.8501
-3.8449 -1.5140 2.8501
-3.8075 -1.5450 2.8501
-3.7701 -1.5755 2.8501
-3.6203 -1.6937 2.8501
-3.7327 -1.6057 2.8501
-3.6952 -1.6354 2.8501
-3.5829 -1.7222 2.8501
-3.6578 -1.6648 2.8501
-3.5454 -1.7503 2.8501
-3.4705 -1.8054 2.8501
-3.4330 -1.8324 2.8501
-3.5079 -1.7781 2.8501
-3.3955 -1.8590 2.8501
-3.3206 -1.9110 2.8501
-3.3581 -1.8851 2.8501
-3.2831 -1.9364 2.8501
-3.1707 -2.0105 2.8501
-3.2456 -1.9615 2.8501
-3.1333 -2.0345 2.8501
-3.0958 -2.0581 2.8501
-3.2082 -1.9862 2.8501
-3.0584 -2.0814 2.8501
-3.0209 -2.1043 2.8501
-2.8712 -2.1924 2.8501
-2.9835 -2.1269 2.8501
-2.8338 -2.2136 2.8501
-2.7964 -2.2345 2.8501
-2.9460 -2.1491 2.8501
-2.7591 -2.2550 2.8501
-2.9086 -2.1709 2.8501
-2.7217 -2.2752 2.8501
-2.5723 -2.3527 2.8501
-2.6843 -2.2951 2.8501
-2.6470 -2.3146 2.8501
-2.5350 -2.3712 2.8501
-2.6096 -2.3338 2.8501
-2.4977 -2.3895 2.8501
-2.4231 -2.4250 2.8501
-2.4604 -2.4074 2.8501
-2.3858 -2.4423 2.8501
-2.3485 -2.4593 2.8501
-2.2740 -2.4924 2.8501
-2.3113 -2.4760 2.8501
-2.2368 -2.5085 2.8501
-2.1252 -2.5549 2.8501
-2.0881 -2.5698 2.8501
-2.1996 -2.5243 2.8501
-2.0509 -2.5844 2.8501
-2.1624 -2.5397 2.8501
-2.0137 -2.5987 2.8501
-1.9766 -2.6127 2.8501
-1.8282 -2.6660 2.8501
-1.7911 -2.6786 2.8501
-1.9395 -2.6265 2.8501
-1.7541 -2.6909 2.8501
-1.9024 -2.6399 2.8501
-1.7170 -2.7029 2.8501
-1.8653 -2.6531 2.8501
-1.6800 -2.7147 2.8501
-1.6430 -2.7261 2.8501
-1.5320 -2.7590 2.8501
-1.6059 -2.7373 2.8501
-1.4950 -2.7694 2.8501
-1.5689 -2.7483 2.8501
-1.3841 -2.7989 2.8501
-1.4580 -2.7795 2.8501
-1.3472 -2.8083 2.8501
-1.4211 -2.7893 2.8501
-1.3103 -2.8173 2.8501
-1.2365 -2.8347 2.8501
-1.2734 -2.8261 2.8501
-1.1996 -2.8429 2.8501
-1.1627 -2.8509 2.8501
-1.1258 -2.8587 2.8501
-1.0890 -2.8662 2.8501
-1.0521 -2.8734 2.8501
-1.0153 -2.8804 2.8501
-5.1013 1.2830 2.7049
-5.1099 1.2349 2.7216
-5.1184 1.1868 2.7386
-5.1269 1.1387 2.7559
-5.1353 1.0905 2.7734
-5.1437 1.0423 2.7913
-5.1521 0.9941 2.8095
-5.1604 0.9458 2.8279
-5.1686 0.8974 2.8467
-5.1485 0.8443 2.8501
-5.1220 0.7907 2.8501
-5.0952 0.7377 2.8501
-5.0683 0.6851 2.8501
-5.0410 0.6332 2.8501
-5.0136 0.5818 2.8501
-4.9860 0.5309 2.8501
-4.9581 0.4805 2.8501
-4.9300 0.4307 2.8501
-4.9018 0.3814 2.8501
-4.8733 0.3327 2.8501
-4.8446 0.2844 2.8501
-4.8158 0.2367 2.8501
-4.7868 0.1894 2.8501
-4.7576 0.1427 2.8501
-4.7282 0.0965 2.8501
-4.6987 0.0508 2.8501
-4.6690 0.0056 2.8501
-4.6392 -0.0391 2.8501
-4.6092 -0.0833 2.8501
-4.5790 -0.1270 2.8501
-4.5488 -0.1702 2.8501
-4.5183 -0.2130 2.8501
-4.4878 -0.2553 2.8501
-4.4571 -0.2971 2.8501
-4.4263 -0.3384 2.8501
-4.3954 -0.3793 2.8501
-4.3643 -0.4197 2.8501
-4.3331 -0.4596 2.8501
-4.3018 -0.4991 2.8501
-4.2705 -0.5382 2.8501
-4.2390 -0.5767 2.8501
-4.2074 -0.6149 2.8501
-4.1757 -0.6526 2.8501
-4.1439 -0.6898 2.8501
-4.1120 -0.7266 2.8501
-4.0800 -0.7630 2.8501
-4.0479 -0.7989 2.8501
-4.0158 -0.8344 2.8501
-3.9835 -0.8695 2.8501
-3.9512 -0.9042 2.8501
-3.9188 -0.9384 2.8501
-3.8864 -0.9723 2.8501
-3.8538 -1.0057 2.8501
-3.8212 -1.0387 2.8501
-3.7885 -1.0714 2.8501
-3.7558 -1.1036 2.8501
-3.7230 -1.1354 2.8501
-3.6901 -1.1668 2.8501
-3.6572 -1.1978 2.8501
-3.6242 -1.2284 2.8501
-3.5912 -1.2587 2.8501
-3.5581 -1.2885 2.8501
-3.5250 -1.3180 2.8501
-3.4918 -1.3471 2.8501
-3.4586 -1.3758 2.8501
-3.4253 -1.4042 2.8501
-3.3920 -1.4322 2.8501
-3.3586 -1.4598 2.8501
-3.3252 -1.4870 2.8501
-3.2918 -1.5139 2.8501
-3.2583 -1.5405 2.8501
-3.2248 -1.5666 2.8501
-3.1912 -1.5925 2.8501
-3.1576 -1.6179 2.8501
-3.1240 -1.6431 2.8501
-3.0904 -1.6678 2.8501
-3.0567 -1.6922 2.8501
-3.0230 -1.7163 2.8501
-2.9893 -1.7401 2.8501
-2.9555 -1.7635 2.8501
-2.9218 -1.7866 2.8501
-2.8879 -1.8093 2.8501
-2.8541 -1.8318 2.8501
-2.7864 -1.8756 2.8501
-2.8203 -1.8538 2.8501
-2.6507 -1.9595 2.8501
-2.7525 -1.8971 2.8501
-2.6168 -1.9796 2.8501
-2.7186 -1.9182 2.8501
-2.5148 -2.0383 2.8501
-2.5828 -1.9995 2.8501
-2.4808 -2.0572 2.8501
-2.5488 -2.0191 2.8501
-2.6847 -1.9390 2.8501
-2.4468 -2.0759 2.8501
-2.3787 -2.1122 2.8501
-2.2423 -2.1814 2.8501
-2.4127 -2.0942 2.8501
-2.3446 -2.1300 2.8501
-2.3105 -2.1474 2.8501
-2.1059 -2.2459 2.8501
-2.2082 -2.1980 2.8501
-2.2764 -2.1645 2.8501
-2.0718 -2.2613 2.8501
-2.1741 -2.2142 2.8501
-1.9693 -2.3058 2.8501
-2.0376 -2.2765 2.8501
-2.1400 -2.2302 2.8501
-1.9352 -2.3201 2.8501
-2.0035 -2.2913 2.8501
-1.9010 -2.3341 2.8501
-1.6960 -2.4125 2.8501
-1.8327 -2.3613 2.8501
-1.5593 -2.4593 2.8501
-1.8669 -2.3479 2.8501
-1.6619 -2.4246 2.8501
-1.7986 -2.3745 2.8501
-1.4226 -2.5020 2.8501
-1.5251 -2.4703 2.8501
-1.6277 -2.4364 2.8501
-1.3884 -2.5120 2.8501
-1.2858 -2.5405 2.8501
-1.7644 -2.3874 2.8501
-1.5935 -2.4480 2.8501
-1.4910 -2.4812 2.8501
-1.3542 -2.5217 2.8501
-1.2517 -2.5495 2.8501
-1.3200 -2.5312 2.8501
-1.7302 -2.4001 2.8501
-1.4568 -2.4917 2.8501
-1.1491 -2.5749 2.8501
-1.2175 -2.5582 2.8501
-1.1149 -2.5829 2.8501
-1.1833 -2.5667 2.8501
-1.0807 -2.5906 2.8501
-1.0465 -2.5981 2.8501
-1.0123 -2.6053 2.8501
-0.9782 -2.6123 2.8501
-0.9440 -2.6191 2.8501
