ply
format ascii 1.0
element vertex 2176
property float32 x
property float32 y
property float32 z
end_header
-11.7119 -27.5997 2.6958
-13.5009 -28.6106 2.6958
-13.0317 -28.3390 2.6958
-11.2983 -27.3762 2.6958
-12.5777 -28.0805 2.6958
-10.8966 -27.1632 2.6958
-12.1381 -27.8343 2.6958
-10.5697 -27.1233 2.7121
-9.1907 -27.5528 2.8482
-10.6985 -28.2797 2.8482
-8.8356 -27.3918 2.8482
-10.3074 -28.0847 2.8482
-8.4882 -27.2385 2.8482
-9.9261 -27.8988 2.8482
-8.1481 -27.0926 2.8482
-9.5540 -27.7216 2.8482
-7.8149 -26.9537 2.8482
-6.5432 -26.4634 2.8482
-7.4881 -26.8215 2.8482
-6.2388 -26.3562 2.8482
-7.1675 -26.6959 2.8482
-6.8526 -26.5767 2.8482
-5.9392 -26.2546 2.8482
-5.6441 -26.1585 2.8482
-5.3532 -26.0678 2.8482
-4.2266 -25.7559 2.8482
-5.0662 -25.9823 2.8482
-3.9530 -25.6901 2.8482
-4.7830 -25.9019 2.8482
-3.6822 -25.6288 2.8482
-3.4140 -25.5721 2.8482
-4.5032 -25.8265 2.8482
-3.1481 -25.5199 2.8482
-2.1041 -25.3539 2.8482
-2.8843 -25.4720 2.8482
-2.6225 -25.4284 2.8482
-1.8471 -25.3229 2.8482
-2.3625 -25.3891 2.8482
-1.5913 -25.2959 2.8482
-1.0827 -25.2540 2.8482
-1.3366 -25.2729 2.8482
-0.8296 -25.2391 2.8482
-0.5770 -25.2281 2.8482
-0.0727 -25.2180 2.8482
-0.3247 -25.2211 2.8482
0.8967 -24.1726 2.7272
0.1792 -25.2188 2.8482
1.1261 -23.9075 2.6955
0.4313 -25.2236 2.8482
1.3666 -23.9263 2.6955
0.6671 -24.6213 2.7792
1.6082 -23.9508 2.6956
1.8507 -23.9775 2.6955
2.8305 -24.0880 2.6914
2.0940 -24.0034 2.6950
3.0763 -24.1017 2.6877
2.3387 -24.0339 2.6945
3.3258 -24.1352 2.6857
2.5836 -24.0561 2.6926
3.5770 -24.1719 2.6836
4.7292 -23.7218 2.5969
3.8047 -24.0515 2.6637
4.9742 -23.7149 2.5874
5.2010 -23.6224 2.5682
4.0275 -23.9115 2.6412
5.4351 -23.5648 2.5523
5.6794 -23.5504 2.5407
4.2601 -23.8383 2.6258
5.9252 -23.5388 2.5289
4.4948 -23.7800 2.6115
6.1729 -23.5306 2.5171
6.4225 -23.5257 2.5051
6.6743 -23.5242 2.4929
7.6885 -23.4977 2.4373
6.9284 -23.5262 2.4807
7.9468 -23.4947 2.4225
7.1796 -23.5136 2.4664
8.2078 -23.4951 2.4075
8.4704 -23.4949 2.3920
7.4328 -23.5040 2.4520
8.7307 -23.4838 2.3747
9.8020 -23.4714 2.3035
8.9938 -23.4758 2.3573
9.2599 -23.4711 2.3396
10.0733 -23.4647 2.2838
9.5292 -23.4696 2.3217
10.3452 -23.4548 2.2633
10.8998 -23.4445 2.2213
11.1829 -23.4442 2.1999
10.6207 -23.4481 2.2425
11.4674 -23.4413 2.1775
12.0361 -23.4202 2.1294
11.7497 -23.4292 2.1536
13.2144 -23.3942 2.0263
12.3267 -23.4142 2.1047
13.5140 -23.3835 1.9984
13.8335 -23.4013 1.9721
12.6217 -23.4113 2.0796
14.1795 -23.4563 1.9481
12.9195 -23.4080 2.0538
14.5352 -23.5189 1.9237
14.8980 -23.5840 1.8985
16.0258 -23.7867 1.8173
15.2672 -23.6505 1.8725
16.4155 -23.8564 1.7882
15.6432 -23.7182 1.8454
17.6303 -24.0735 1.6941
16.8127 -23.9276 1.7580
17.9912 -24.0680 1.6549
17.2177 -24.0001 1.7266
18.3401 -24.0402 1.6131
18.6941 -24.0133 1.5703
19.0427 -23.9736 1.5257
20.3598 -23.6704 1.3283
19.3927 -23.9299 1.4798
20.6808 -23.5743 1.2754
19.7225 -23.8565 1.4310
21.1556 -23.6463 1.2303
21.6191 -23.6954 1.1823
20.0445 -23.7694 1.3805
21.9972 -23.6430 1.1278
23.5638 -23.4284 0.8965
22.3806 -23.5903 1.0720
25.1949 -23.1750 0.6411
22.7719 -23.5395 1.0150
23.9637 -23.3672 0.8349
25.6127 -23.1046 0.5732
23.1714 -23.4908 0.9567
24.3720 -23.3077 0.7720
26.0397 -23.0357 0.5037
26.8945 -22.8782 0.3593
24.7859 -23.2469 0.7075
27.3321 -22.7979 0.2845
26.4664 -22.9597 0.4324
27.7789 -22.7182 0.2079
28.2181 -22.6252 0.1293
-8.9804 -18.7504 2.7433
-9.0433 -19.3772 2.8482
-8.7688 -19.2909 2.8482
-8.4996 -19.2074 2.8481
-8.2357 -19.1268 2.8480
-7.2198 -18.8121 2.8441
-7.9763 -19.0480 2.8477
-6.9782 -18.7435 2.8436
-7.7158 -18.9579 2.8452
-6.7407 -18.6776 2.8431
-7.4656 -18.8835 2.8447
-6.5071 -18.6143 2.8426
-6.2772 -18.5535 2.8421
-5.3907 -18.3343 2.8401
-6.0507 -18.4952 2.8416
-5.1767 -18.2851 2.8396
-5.8276 -18.4393 2.8411
-4.9653 -18.2380 2.8392
-5.6076 -18.3856 2.8406
-4.7566 -18.1930 2.8387
-4.5502 -18.1501 2.8382
-3.7470 -17.9976 2.8364
-4.3462 -18.1091 2.8378
-4.1445 -18.0701 2.8373
-3.5511 -17.9640 2.8360
-3.9448 -18.0329 2.8369
-3.3569 -17.9323 2.8356
-2.9734 -17.8740 2.8347
-2.7839 -17.8473 2.8343
-3.1644 -17.9023 2.8351
-2.5957 -17.8224 2.8339
-2.2229 -17.7773 2.8330
-2.4087 -17.7990 2.8334
-2.0381 -17.7571 2.8326
-1.4894 -17.7059 2.8313
-1.3080 -17.6919 2.8309
-1.8543 -17.7385 2.8322
-1.1272 -17.6794 2.8305
-1.6715 -17.7214 2.8318
-0.9471 -17.6683 2.8301
-0.7674 -17.6588 2.8297
-0.0516 -17.6352 2.8280
-0.5879 -17.6508 2.8293
0.1270 -17.6329 2.8276
0.3056 -17.6321 2.8272
-0.4090 -17.6441 2.8289
0.4842 -17.6327 2.8268
-0.2302 -17.6389 2.8284
0.6630 -17.6348 2.8264
1.3814 -17.6575 2.8247
0.8421 -17.6383 2.8260
1.0214 -17.6432 2.8255
1.5622 -17.6668 2.8242
1.2012 -17.6496 2.8251
1.7436 -17.6777 2.8238
0.8842 -7.4235 1.1837
0.8094 -7.4350 1.1867
0.9591 -7.4125 1.1807
2.8503 -17.7746 2.8212
2.4774 -17.7361 2.8221
2.6633 -17.7546 2.8216
3.0387 -17.7963 2.8207
3.6120 -17.8707 2.8193
3.2283 -17.8196 2.8203
3.7994 -17.8668 2.8137
3.4194 -17.8445 2.8198
3.9861 -17.8568 2.8070
4.3618 -17.8386 2.7929
4.1737 -17.8478 2.8001
5.1194 -17.7935 2.7604
4.5499 -17.8264 2.7851
5.3120 -17.7863 2.7522
4.7390 -17.8155 2.7771
5.5055 -17.7794 2.7438
4.9287 -17.8040 2.7688
5.7010 -17.7752 2.7355
5.8980 -17.7722 2.7271
6.6999 -17.7649 2.6912
6.0965 -17.7705 2.7186
6.8894 -17.7261 2.6759
6.2968 -17.7701 2.7100
7.0734 -17.6719 2.6580
6.4990 -17.7712 2.7013
7.2665 -17.6391 2.6430
8.2540 -17.4926 2.5662
7.4609 -17.6076 2.6279
8.4565 -17.4666 2.5504
7.6569 -17.5771 2.6127
8.6609 -17.4418 2.5344
7.8542 -17.5479 2.5974
8.8673 -17.4182 2.5183
9.0759 -17.3956 2.5019
8.0533 -17.5197 2.5819
9.2866 -17.3741 2.4854
9.9334 -17.3166 2.4345
9.4997 -17.3538 2.4686
10.1542 -17.2998 2.4171
9.7153 -17.3347 2.4517
10.8342 -17.2562 2.3633
10.3779 -17.2840 2.3994
11.0672 -17.2440 2.3448
10.6045 -17.2695 2.3815
11.3036 -17.2331 2.3261
11.5436 -17.2233 2.3070
11.7873 -17.2148 2.2877
12.7747 -17.1557 2.2018
12.0349 -17.2076 2.2680
12.9900 -17.0890 2.1725
12.2866 -17.2017 2.2479
13.2042 -17.0187 2.1422
13.4128 -16.9389 2.1103
12.5426 -17.1971 2.2275
13.6203 -16.8559 2.0777
14.6578 -16.7424 1.9685
13.8205 -16.7622 2.0433
14.9668 -16.7592 1.9449
14.0600 -16.7137 2.0140
14.3556 -16.7273 1.9915
15.2830 -16.7777 1.9208
15.9383 -16.8199 1.8705
15.6067 -16.7979 1.8960
16.2783 -16.8438 1.8444
17.3523 -16.9276 1.7615
16.6269 -16.8697 1.8175
17.7300 -16.9597 1.7322
16.9848 -16.8976 1.7899
18.9297 -17.0705 1.6390
18.1184 -16.9942 1.7021
19.3217 -17.0840 1.6033
18.5181 -17.0311 1.6710
19.7146 -17.0907 1.5657
20.4922 -17.0747 1.4842
20.1057 -17.0883 1.5261
20.8820 -17.0567 1.4408
21.2656 -17.0267 1.3951
21.6517 -16.9918 1.3478
-6.9397 -14.2756 2.8455
-6.7458 -14.2417 2.8450
-6.5548 -14.2090 2.8446
-6.3666 -14.1773 2.8442
-6.1811 -14.1468 2.8438
-5.9983 -14.1172 2.8434
-5.8179 -14.0887 2.8430
-5.6400 -14.0612 2.8426
-5.4643 -14.0346 2.8422
-5.2909 -14.0089 2.8418
-5.1195 -13.9842 2.8414
-4.9502 -13.9604 2.8410
-4.7828 -13.9374 2.8406
-4.6172 -13.9152 2.8403
-4.4534 -13.8939 2.8399
-4.2913 -13.8733 2.8395
-4.1308 -13.8536 2.8392
-3.9719 -13.8347 2.8388
-3.8144 -13.8165 2.8384
-3.6583 -13.7990 2.8381
-3.5035 -13.7822 2.8377
-3.3500 -13.7662 2.8374
-3.1977 -13.7509 2.8370
-3.0465 -13.7363 2.8367
-2.8965 -13.7223 2.8363
-2.7474 -13.7090 2.8360
-2.5993 -13.6964 2.8357
-2.4521 -13.6843 2.8353
-2.3058 -13.6730 2.8350
-2.1603 -13.6622 2.8347
-0.8947 -6.0604 1.2582
-0.8292 -6.0444 1.2556
-0.7642 -6.0289 1.2531
-0.6997 -6.0137 1.2505
-0.6357 -5.9990 1.2480
-0.5721 -5.9845 1.2455
-0.5090 -5.9704 1.2430
-0.4464 -5.9566 1.2406
-0.3841 -5.9432 1.2381
-0.3222 -5.9301 1.2357
-0.2606 -5.9173 1.2333
-0.1994 -5.9048 1.2308
-0.1384 -5.8926 1.2284
-0.0778 -5.8807 1.2261
-0.0174 -5.8691 1.2237
0.0428 -5.8577 1.2213
0.1027 -5.8467 1.2189
0.1624 -5.8359 1.2166
0.2220 -5.8254 1.2142
0.2814 -5.8152 1.2119
0.3406 -5.8052 1.2096
0.3998 -5.7955 1.2072
0.4588 -5.7860 1.2049
0.5178 -5.7768 1.2026
0.5767 -5.7679 1.2002
0.6355 -5.7591 1.1979
0.6943 -5.7507 1.1956
0.7531 -5.7424 1.1933
0.8120 -5.7344 1.1909
0.8708 -5.7266 1.1886
2.2135 -13.6166 2.8244
2.3583 -13.6242 2.8241
2.5038 -13.6326 2.8237
2.6501 -13.6415 2.8234
2.7972 -13.6510 2.8230
2.9453 -13.6612 2.8227
3.0943 -13.6720 2.8223
3.2444 -13.6834 2.8220
3.3955 -13.6956 2.8216
3.5478 -13.7083 2.8212
4.0120 -13.7508 2.8201
3.7012 -13.7218 2.8209
4.1695 -13.7663 2.8197
3.8560 -13.7359 2.8205
4.3284 -13.7826 2.8194
4.6395 -13.7836 2.8117
4.4854 -13.7890 2.8168
4.7923 -13.7718 2.8051
4.9475 -13.7644 2.7993
5.2595 -13.7467 2.7866
5.1033 -13.7562 2.7932
5.4168 -13.7376 2.7800
5.8956 -13.7118 2.7595
5.5754 -13.7293 2.7734
6.0583 -13.7051 2.7527
5.7346 -13.7196 2.7663
6.2218 -13.6976 2.7456
6.3875 -13.6919 2.7386
6.5546 -13.6863 2.7316
7.2404 -13.6690 2.7024
6.7234 -13.6813 2.7244
7.4070 -13.6483 2.6914
6.8939 -13.6768 2.7172
7.5707 -13.6201 2.6787
7.0662 -13.6726 2.7098
7.7358 -13.5921 2.6659
7.9023 -13.5646 2.6530
8.5840 -13.4574 2.6001
8.7587 -13.4314 2.5865
8.0704 -13.5373 2.6400
8.9353 -13.4057 2.5727
8.2399 -13.5104 2.6268
9.1138 -13.3803 2.5588
9.2943 -13.3552 2.5448
8.4111 -13.4837 2.6135
9.4769 -13.3304 2.5305
10.0026 -13.2105 2.4778
9.6617 -13.3059 2.5161
9.8428 -13.2736 2.5000
10.1568 -13.1389 2.4539
10.7074 -13.0249 2.3996
10.3051 -13.0588 2.4282
10.9132 -13.0084 2.3849
11.1222 -12.9922 2.3700
10.5048 -13.0417 2.4140
11.3346 -12.9762 2.3548
11.5504 -12.9606 2.3393
12.4522 -12.9010 2.2745
11.7700 -12.9452 2.3236
12.6880 -12.8869 2.2575
12.9284 -12.8730 2.2402
11.9934 -12.9302 2.3075
13.1734 -12.8595 2.2225
12.2207 -12.9154 2.2912
13.4233 -12.8463 2.2044
13.6784 -12.8334 2.1859
14.4767 -12.7967 2.1280
13.9388 -12.8208 2.1671
14.7546 -12.7851 2.1078
14.2048 -12.8086 2.1477
15.0390 -12.7739 2.0871
15.3300 -12.7630 2.0658
15.6281 -12.7525 2.0441
15.9334 -12.7424 2.0218
16.2465 -12.7327 1.9989
16.5677 -12.7233 1.9754
-5.5346 -11.2156 2.8436
-5.3875 -11.2056 2.8432
-5.2421 -11.1959 2.8429
-5.0984 -11.1866 2.8426
-4.9562 -11.1775 2.8422
-4.8156 -11.1686 2.8419
-4.6764 -11.1600 2.8416
-4.5386 -11.1517 2.8413
-4.4021 -11.1437 2.8410
-4.2670 -11.1358 2.8407
-4.1330 -11.1283 2.8404
-4.0003 -11.1209 2.8400
-3.8688 -11.1139 2.8397
-3.7383 -11.1070 2.8394
-3.6089 -11.1004 2.8391
-3.4805 -11.0939 2.8389
-3.3531 -11.0877 2.8386
-3.2266 -11.0817 2.8383
-3.1010 -11.0760 2.8380
-2.9763 -11.0704 2.8377
-2.8523 -11.0650 2.8374
-2.7292 -11.0598 2.8371
-2.6067 -11.0549 2.8368
-2.4850 -11.0501 2.8366
-2.3639 -11.0455 2.8363
-1.0010 -4.9263 1.2654
-0.9460 -4.9164 1.2632
-0.8914 -4.9067 1.2610
-0.8373 -4.8972 1.2589
-0.7835 -4.8878 1.2568
-0.7302 -4.8785 1.2547
-0.6772 -4.8694 1.2526
-0.6245 -4.8603 1.2505
-0.5722 -4.8515 1.2484
-0.5202 -4.8427 1.2464
-0.4685 -4.8341 1.2443
-0.4171 -4.8256 1.2423
-0.3659 -4.8172 1.2403
-0.3150 -4.8089 1.2383
-0.2644 -4.8007 1.2363
-0.2140 -4.7927 1.2343
-0.1638 -4.7847 1.2323
-0.1138 -4.7768 1.2303
-0.0639 -4.7690 1.2284
-0.0143 -4.7614 1.2264
0.0352 -4.7538 1.2244
0.0845 -4.7463 1.2225
0.1337 -4.7389 1.2206
0.1828 -4.7316 1.2186
0.2317 -4.7244 1.2167
0.2806 -4.7173 1.2148
0.3294 -4.7102 1.2128
0.3781 -4.7032 1.2109
0.4267 -4.6963 1.2090
0.4753 -4.6895 1.2071
0.5238 -4.6828 1.2051
0.5723 -4.6761 1.2032
0.6208 -4.6695 1.2013
0.6693 -4.6629 1.1994
0.7178 -4.6565 1.1975
0.7664 -4.6500 1.1955
1.9295 -10.9951 2.8262
2.0477 -10.9968 2.8259
2.1664 -10.9988 2.8256
2.2856 -11.0009 2.8253
2.4053 -11.0032 2.8251
2.5257 -11.0057 2.8248
2.6467 -11.0083 2.8245
2.7683 -11.0111 2.8242
2.8906 -11.0141 2.8239
3.0137 -11.0173 2.8236
3.1375 -11.0207 2.8233
3.2622 -11.0242 2.8230
3.7696 -11.0404 2.8218
3.3877 -11.0280 2.8227
3.8988 -11.0450 2.8215
3.5140 -11.0319 2.8224
4.0292 -11.0497 2.8212
3.6413 -11.0361 2.8221
4.1606 -11.0547 2.8209
4.8358 -11.0828 2.8193
4.2931 -11.0599 2.8206
4.9728 -11.0848 2.8179
4.4269 -11.0653 2.8203
5.1058 -11.0752 2.8134
4.5619 -11.0709 2.8199
5.2377 -11.0613 2.8078
5.3703 -11.0471 2.8021
4.6981 -11.0767 2.8196
5.5058 -11.0365 2.7972
5.9143 -10.9965 2.7801
5.6408 -11.0229 2.7915
6.0529 -10.9835 2.7744
5.7770 -11.0097 2.7859
6.1924 -10.9699 2.7684
6.4757 -10.9440 2.7566
6.6196 -10.9310 2.7506
6.3332 -10.9564 2.7625
6.7646 -10.9178 2.7445
7.0597 -10.8923 2.7322
6.9114 -10.9052 2.7384
7.2095 -10.8795 2.7259
7.6693 -10.8412 2.7066
7.3610 -10.8667 2.7196
7.8261 -10.8282 2.7000
7.5143 -10.8540 2.7131
7.9716 -10.7974 2.6888
8.2358 -10.6953 2.6561
8.1141 -10.7607 2.6760
8.8892 -10.6268 2.6234
8.3885 -10.6687 2.6457
9.0496 -10.5996 2.6125
8.5740 -10.6808 2.6448
9.2119 -10.5723 2.6014
9.3763 -10.5448 2.5903
8.7307 -10.6539 2.6342
9.5428 -10.5171 2.5789
10.2313 -10.4044 2.5319
9.7114 -10.4892 2.5674
9.8823 -10.4611 2.5558
10.4095 -10.3756 2.5198
10.0556 -10.4329 2.5439
10.5904 -10.3466 2.5074
10.9604 -10.2879 2.4821
10.7740 -10.3174 2.4948
11.1498 -10.2581 2.4691
11.3422 -10.2281 2.4559
11.7367 -10.1670 2.4289
11.5378 -10.1977 2.4425
11.9390 -10.1359 2.4150
12.1448 -10.1045 2.4009
12.3544 -10.0727 2.3865
12.5679 -10.0405 2.3718
12.7853 -10.0080 2.3568
13.0069 -9.9750 2.3416
13.2329 -9.9415 2.3260
-4.6052 -9.1916 2.8423
-4.4870 -9.1927 2.8420
-4.3699 -9.1938 2.8418
-4.2538 -9.1948 2.8415
-4.1387 -9.1957 2.8412
-4.0246 -9.1966 2.8409
-3.9114 -9.1975 2.8407
-3.7991 -9.1983 2.8404
-3.6876 -9.1991 2.8402
-3.5770 -9.1998 2.8399
-3.4671 -9.2004 2.8397
-3.3581 -9.2010 2.8394
-3.2497 -9.2016 2.8391
-3.1421 -9.2021 2.8389
-3.0352 -9.2026 2.8386
-2.9289 -9.2030 2.8384
-2.8232 -9.2034 2.8381
-2.7182 -9.2037 2.8379
-2.6137 -9.2040 2.8376
-2.5098 -9.2043 2.8374
-2.4064 -9.2045 2.8372
-1.0301 -4.1161 1.2686
-0.9830 -4.1105 1.2667
-0.9362 -4.1049 1.2649
-0.8897 -4.0993 1.2630
-0.8435 -4.0937 1.2612
-0.7977 -4.0881 1.2594
-0.7521 -4.0826 1.2576
-0.7068 -4.0771 1.2558
-0.6618 -4.0716 1.2540
-0.6171 -4.0661 1.2522
-0.5726 -4.0606 1.2505
-0.5283 -4.0551 1.2487
-0.4843 -4.0497 1.2470
-0.4404 -4.0442 1.2453
-0.3968 -4.0388 1.2435
-0.3534 -4.0333 1.2418
-0.3102 -4.0279 1.2401
-0.2672 -4.0225 1.2384
-0.2243 -4.0171 1.2367
-0.1816 -4.0117 1.2350
-0.1390 -4.0063 1.2333
-0.0966 -4.0009 1.2316
-0.0543 -3.9954 1.2300
-0.0122 -3.9900 1.2283
0.0299 -3.9846 1.2266
0.0718 -3.9792 1.2250
0.1137 -3.9738 1.2233
0.1554 -3.9684 1.2217
0.1971 -3.9630 1.2200
0.2386 -3.9575 1.2184
0.2802 -3.9521 1.2167
0.3216 -3.9466 1.2151
0.3630 -3.9412 1.2135
0.4044 -3.9357 1.2118
0.4457 -3.9302 1.2102
0.4870 -3.9247 1.2086
0.5283 -3.9192 1.2069
0.5696 -3.9137 1.2053
0.6109 -3.9082 1.2037
0.6522 -3.9026 1.2020
0.6935 -3.8970 1.2004
0.7348 -3.8914 1.1988
1.8329 -9.1769 2.8272
1.9331 -9.1754 2.8269
2.0337 -9.1738 2.8267
2.1347 -9.1722 2.8265
2.2360 -9.1706 2.8262
2.3379 -9.1688 2.8260
2.4401 -9.1671 2.8257
2.5429 -9.1653 2.8255
2.6461 -9.1634 2.8253
2.7499 -9.1615 2.8250
2.8542 -9.1595 2.8248
2.9591 -9.1576 2.8245
3.0646 -9.1555 2.8243
3.1707 -9.1534 2.8240
3.2774 -9.1512 2.8238
3.3849 -9.1490 2.8235
3.4930 -9.1467 2.8233
3.6019 -9.1444 2.8230
3.7115 -9.1420 2.8228
3.8220 -9.1395 2.8225
3.9332 -9.1370 2.8222
4.0453 -9.1345 2.8220
4.1583 -9.1318 2.8217
4.2722 -9.1291 2.8214
4.3870 -9.1264 2.8212
4.5029 -9.1235 2.8209
4.6197 -9.1206 2.8206
4.7376 -9.1177 2.8203
4.8566 -9.1146 2.8201
4.9768 -9.1115 2.8198
5.0981 -9.1084 2.8195
5.2206 -9.1051 2.8192
5.3431 -9.0997 2.8183
5.4607 -9.0840 2.8142
5.5779 -9.0657 2.8093
5.6956 -9.0469 2.8043
5.8148 -9.0288 2.7995
5.9353 -9.0106 2.7947
6.0562 -8.9915 2.7896
6.1783 -8.9725 2.7846
6.3014 -8.9532 2.7796
6.4258 -8.9338 2.7745
6.5511 -8.9139 2.7693
6.6776 -8.8938 2.7640
6.8057 -8.8738 2.7588
6.9350 -8.8534 2.7536
7.0654 -8.8326 2.7481
7.1974 -8.8117 2.7428
7.3309 -8.7906 2.7373
7.4656 -8.7690 2.7317
7.6019 -8.7470 2.7261
7.7397 -8.7248 2.7204
7.8792 -8.7023 2.7147
8.0204 -8.6795 2.7088
8.1633 -8.6563 2.7029
8.3070 -8.6317 2.6966
8.4517 -8.6059 2.6899
8.5982 -8.5797 2.6832
8.7466 -8.5531 2.6764
8.8970 -8.5261 2.6694
9.0495 -8.4986 2.6624
9.2022 -8.4691 2.6547
9.3555 -8.4377 2.6466
9.5109 -8.4058 2.6383
9.6685 -8.3734 2.6298
9.8284 -8.3406 2.6213
9.9906 -8.3071 2.6126
10.1553 -8.2732 2.6038
10.3225 -8.2386 2.5949
10.4902 -8.2019 2.5853
10.6593 -8.1636 2.5753
10.8310 -8.1247 2.5652
11.0055 -8.0850 2.5548
-3.9424 -7.7483 2.8414
-3.8438 -7.7550 2.8411
-3.7459 -7.7615 2.8409
-3.6487 -7.7677 2.8407
-3.5521 -7.7738 2.8405
-3.4562 -7.7797 2.8402
-3.3609 -7.7854 2.8400
-3.2662 -7.7908 2.8398
-3.1721 -7.7961 2.8395
-3.0786 -7.8013 2.8393
-2.9855 -7.8062 2.8391
-2.8930 -7.8109 2.8389
-2.8010 -7.8155 2.8387
-2.7095 -7.8199 2.8384
-2.6184 -7.8241 2.8382
-2.5278 -7.8281 2.8380
-2.4376 -7.8320 2.8378
-1.0667 -3.5600 1.2892
-1.0249 -3.5575 1.2876
-0.9834 -3.5550 1.2861
-0.9422 -3.5526 1.2846
-0.9013 -3.5502 1.2831
-0.8606 -3.5478 1.2817
-0.8202 -3.5454 1.2803
-0.7799 -3.5430 1.2789
-0.7400 -3.5407 1.2776
-0.7002 -3.5383 1.2763
-0.6607 -3.5360 1.2750
-0.6213 -3.5337 1.2738
-0.5821 -3.5314 1.2726
-0.5431 -3.5291 1.2714
-0.5043 -3.5268 1.2702
-0.4656 -3.5245 1.2691
-0.4271 -3.5222 1.2680
-0.3887 -3.5200 1.2669
-0.3505 -3.5177 1.2659
-0.3124 -3.5155 1.2649
-0.2744 -3.5132 1.2639
-0.2365 -3.5110 1.2629
-0.1986 -3.5087 1.2620
-0.1609 -3.5065 1.2611
-0.1233 -3.5043 1.2602
-0.0857 -3.5021 1.2593
-0.0482 -3.4999 1.2585
-0.0108 -3.4977 1.2577
0.0266 -3.4955 1.2569
0.0639 -3.4933 1.2561
0.1013 -3.4911 1.2554
0.1385 -3.4889 1.2547
0.1758 -3.4867 1.2540
0.2131 -3.4845 1.2533
0.2503 -3.4823 1.2527
0.2876 -3.4801 1.2520
0.3249 -3.4779 1.2514
0.3622 -3.4757 1.2509
0.3995 -3.4735 1.2503
0.4368 -3.4713 1.2498
0.4743 -3.4691 1.2493
0.5117 -3.4669 1.2488
0.5492 -3.4647 1.2483
0.5868 -3.4624 1.2479
0.6245 -3.4602 1.2475
0.6622 -3.4580 1.2471
0.7001 -3.4558 1.2467
0.7380 -3.4535 1.2463
1.7613 -7.8329 2.8279
1.8482 -7.8291 2.8277
1.9354 -7.8252 2.8275
2.0230 -7.8211 2.8273
2.1108 -7.8169 2.8271
2.1989 -7.8125 2.8269
2.2874 -7.8079 2.8267
2.3763 -7.8032 2.8265
2.4655 -7.7982 2.8263
2.5551 -7.7931 2.8260
2.6451 -7.7879 2.8258
2.7356 -7.7825 2.8256
2.8265 -7.7768 2.8254
2.9178 -7.7710 2.8252
3.0096 -7.7651 2.8250
3.1019 -7.7589 2.8248
3.1948 -7.7525 2.8246
3.2881 -7.7460 2.8243
3.3820 -7.7392 2.8241
3.4765 -7.7322 2.8239
3.5715 -7.7251 2.8237
3.6672 -7.7177 2.8235
3.7635 -7.7102 2.8232
3.8604 -7.7024 2.8230
3.9580 -7.6944 2.8228
4.0564 -7.6862 2.8225
4.1554 -7.6778 2.8223
4.2552 -7.6691 2.8221
4.3557 -7.6602 2.8219
4.4571 -7.6511 2.8216
4.5592 -7.6417 2.8214
4.6622 -7.6321 2.8211
4.7661 -7.6222 2.8209
4.8709 -7.6121 2.8207
4.9766 -7.6018 2.8204
5.0832 -7.5911 2.8202
5.1908 -7.5802 2.8199
5.2995 -7.5690 2.8197
5.4092 -7.5576 2.8194
5.5200 -7.5458 2.8192
5.6315 -7.5333 2.8187
5.7374 -7.5115 2.8149
5.8430 -7.4880 2.8106
5.9493 -7.4640 2.8061
6.0563 -7.4394 2.8016
6.1649 -7.4154 2.7974
6.2740 -7.3903 2.7929
6.3840 -7.3650 2.7884
6.4951 -7.3393 2.7839
6.6072 -7.3133 2.7793
6.7204 -7.2868 2.7748
6.8347 -7.2600 2.7702
6.9499 -7.2326 2.7655
7.0665 -7.2048 2.7608
7.1842 -7.1767 2.7561
7.3032 -7.1481 2.7513
7.4233 -7.1188 2.7465
7.5448 -7.0892 2.7416
7.6676 -7.0589 2.7367
7.7916 -7.0281 2.7317
7.9170 -6.9966 2.7266
8.0439 -6.9646 2.7214
8.1723 -6.9320 2.7162
8.3024 -6.8990 2.7110
8.4340 -6.8652 2.7057
8.5671 -6.8307 2.7002
8.7003 -6.7943 2.6942
8.8351 -6.7572 2.6881
8.9717 -6.7193 2.6819
9.1101 -6.6808 2.6757
9.2504 -6.6416 2.6693
-3.4440 -6.6629 2.8407
-3.3596 -6.6725 2.8405
-3.2756 -6.6819 2.8403
-3.1921 -6.6909 2.8401
-3.1091 -6.6998 2.8399
-3.0265 -6.7083 2.8397
-2.9443 -6.7165 2.8395
-2.8626 -6.7245 2.8393
-2.7812 -6.7323 2.8391
-2.7003 -6.7398 2.8389
-2.6197 -6.7470 2.8387
-2.5394 -6.7540 2.8385
-2.4595 -6.7607 2.8383
-2.3800 -6.7672 2.8381
-2.3008 -6.7734 2.8379
-2.2219 -6.7794 2.8377
-2.1433 -6.7852 2.8375
-1.0831 -3.5619 1.4883
-1.0406 -3.5594 1.4860
-0.9985 -3.5569 1.4837
-0.9566 -3.5544 1.4815
-0.9150 -3.5520 1.4794
-0.8736 -3.5495 1.4773
-0.8325 -3.5471 1.4753
-0.7917 -3.5447 1.4734
-0.7511 -3.5423 1.4715
-0.7107 -3.5399 1.4696
-0.6705 -3.5375 1.4679
-0.6306 -3.5352 1.4661
-0.5908 -3.5328 1.4645
-0.5512 -3.5305 1.4628
-0.5118 -3.5282 1.4612
-0.4725 -3.5258 1.4597
-0.4334 -3.5235 1.4582
-0.3945 -3.5212 1.4568
-0.3556 -3.5189 1.4554
-0.3170 -3.5167 1.4541
-0.2784 -3.5144 1.4528
-0.2399 -3.5121 1.4516
-0.2016 -3.5098 1.4504
-0.1633 -3.5076 1.4493
-0.1251 -3.5053 1.4482
-0.0870 -3.5031 1.4471
-0.0489 -3.5008 1.4461
-0.0110 -3.4986 1.4452
0.0270 -3.4964 1.4442
0.0649 -3.4941 1.4434
0.1027 -3.4919 1.4425
0.1405 -3.4897 1.4418
0.1784 -3.4874 1.4410
0.2162 -3.4852 1.4403
0.2540 -3.4830 1.4397
0.2918 -3.4808 1.4391
0.3296 -3.4785 1.4385
0.3674 -3.4763 1.4380
0.4053 -3.4741 1.4375
0.4432 -3.4718 1.4371
0.4812 -3.4696 1.4367
0.5192 -3.4674 1.4363
0.5572 -3.4651 1.4360
0.5954 -3.4629 1.4357
0.6336 -3.4606 1.4355
0.6719 -3.4584 1.4353
0.7103 -3.4561 1.4352
0.7488 -3.4538 1.4351
1.5522 -6.8038 2.8288
1.6285 -6.7989 2.8286
1.7050 -6.7938 2.8285
1.7817 -6.7884 2.8283
1.8586 -6.7829 2.8281
1.9357 -6.7771 2.8279
2.0131 -6.7711 2.8277
2.0907 -6.7648 2.8276
2.1686 -6.7583 2.8274
2.2467 -6.7516 2.8272
2.3252 -6.7446 2.8270
2.4039 -6.7374 2.8268
2.4830 -6.7300 2.8267
2.5623 -6.7223 2.8265
2.6420 -6.7143 2.8263
2.7220 -6.7061 2.8261
2.8024 -6.6977 2.8259
2.8832 -6.6890 2.8257
2.9643 -6.6800 2.8255
3.0458 -6.6707 2.8254
3.1278 -6.6612 2.8252
3.2101 -6.6515 2.8250
3.2929 -6.6414 2.8248
3.3761 -6.6311 2.8246
3.4598 -6.6205 2.8244
3.5440 -6.6095 2.8242
3.6286 -6.5983 2.8240
3.7138 -6.5868 2.8238
3.7995 -6.5751 2.8236
3.8857 -6.5630 2.8234
3.9725 -6.5505 2.8232
4.0598 -6.5378 2.8230
4.1477 -6.5248 2.8228
4.2363 -6.5114 2.8226
4.3254 -6.4977 2.8224
4.4152 -6.4836 2.8222
4.5057 -6.4692 2.8220
4.5968 -6.4545 2.8218
4.6887 -6.4394 2.8216
4.7812 -6.4239 2.8214
4.8745 -6.4081 2.8212
4.9686 -6.3919 2.8209
5.0634 -6.3753 2.8207
5.1591 -6.3583 2.8205
5.2555 -6.3409 2.8203
5.3529 -6.3231 2.8201
5.4510 -6.3049 2.8198
5.5501 -6.2863 2.8196
5.6502 -6.2672 2.8194
5.7511 -6.2477 2.8192
5.8531 -6.2277 2.8189
5.9509 -6.2019 2.8163
6.0470 -6.1730 2.8124
6.1438 -6.1436 2.8085
6.2411 -6.1135 2.8044
6.3391 -6.0829 2.8003
6.4383 -6.0520 2.7963
6.5382 -6.0205 2.7923
6.6390 -5.9885 2.7882
6.7408 -5.9560 2.7842
6.8435 -5.9230 2.7801
6.9514 -5.8930 2.7776
7.0586 -5.8609 2.7745
7.1673 -5.8284 2.7714
7.2770 -5.7954 2.7683
7.0323 -5.4843 2.6321
7.1389 -5.4514 2.6290
7.2462 -5.4176 2.6258
7.3542 -5.3828 2.6223
7.4634 -5.3473 2.6188
7.5739 -5.3111 2.6152
-3.0541 -5.8138 2.8401
-2.9804 -5.8250 2.8399
-2.9070 -5.8359 2.8397
-2.8340 -5.8464 2.8396
-2.7613 -5.8566 2.8394
-2.6889 -5.8666 2.8392
-2.6168 -5.8762 2.8390
-2.5449 -5.8855 2.8389
-2.4734 -5.8946 2.8387
-2.4022 -5.9033 2.8385
-2.3312 -5.9118 2.8384
-2.2604 -5.9200 2.8382
-2.1900 -5.9279 2.8380
-2.1197 -5.9355 2.8378
-2.0497 -5.9429 2.8377
-1.9799 -5.9500 2.8375
-1.9103 -5.9568 2.8373
-1.8410 -5.9633 2.8372
-1.0570 -3.5614 1.6925
-1.0141 -3.5588 1.6895
-0.9715 -3.5563 1.6866
-0.9292 -3.5538 1.6838
-0.8872 -3.5513 1.6810
-0.8454 -3.5489 1.6784
-0.8039 -3.5464 1.6758
-0.7627 -3.5440 1.6733
-0.7216 -3.5415 1.6709
-0.6808 -3.5391 1.6685
-0.6402 -3.5367 1.6663
-0.5998 -3.5343 1.6641
-0.5596 -3.5320 1.6620
-0.5195 -3.5296 1.6600
-0.4797 -3.5272 1.6580
-0.4400 -3.5249 1.6561
-0.4004 -3.5225 1.6543
-0.3610 -3.5202 1.6526
-0.3217 -3.5179 1.6509
-0.2826 -3.5156 1.6493
-0.2435 -3.5133 1.6478
-0.2046 -3.5110 1.6464
-0.1657 -3.5087 1.6450
-0.1270 -3.5064 1.6437
-0.0883 -3.5041 1.6424
-0.0497 -3.5018 1.6412
-0.0111 -3.4996 1.6401
0.0274 -3.4973 1.6391
0.0658 -3.4950 1.6381
0.1042 -3.4928 1.6372
0.1426 -3.4905 1.6363
0.1810 -3.4882 1.6355
0.2194 -3.4860 1.6348
0.2577 -3.4837 1.6341
0.2961 -3.4815 1.6335
0.3345 -3.4792 1.6330
0.3729 -3.4769 1.6325
0.4113 -3.4747 1.6321
0.4498 -3.4724 1.6318
0.4883 -3.4701 1.6315
0.5269 -3.4679 1.6313
0.5655 -3.4656 1.6312
0.6043 -3.4633 1.6311
0.6431 -3.4610 1.6311
0.6820 -3.4587 1.6311
0.7210 -3.4564 1.6312
1.3183 -5.9912 2.8297
1.3861 -5.9860 2.8296
1.4540 -5.9805 2.8294
1.5220 -5.9747 2.8292
1.5901 -5.9687 2.8291
1.6585 -5.9625 2.8289
1.7270 -5.9559 2.8288
1.7956 -5.9492 2.8286
1.8644 -5.9421 2.8284
1.9335 -5.9348 2.8283
2.0027 -5.9272 2.8281
2.0721 -5.9193 2.8280
2.1417 -5.9112 2.8278
2.2115 -5.9028 2.8276
2.2816 -5.8941 2.8275
2.3519 -5.8851 2.8273
2.4224 -5.8759 2.8272
2.4932 -5.8664 2.8270
2.5643 -5.8565 2.8268
2.6356 -5.8464 2.8267
2.7072 -5.8360 2.8265
2.7790 -5.8253 2.8263
2.8512 -5.8143 2.8262
2.9237 -5.8030 2.8260
2.9965 -5.7913 2.8258
3.0696 -5.7794 2.8257
3.1430 -5.7671 2.8255
3.2168 -5.7545 2.8253
3.2909 -5.7416 2.8252
3.3654 -5.7284 2.8250
3.4403 -5.7148 2.8248
3.5156 -5.7009 2.8247
3.5912 -5.6866 2.8245
3.6673 -5.6720 2.8243
3.7437 -5.6570 2.8241
3.8207 -5.6417 2.8240
3.8980 -5.6260 2.8238
3.9758 -5.6100 2.8236
4.0540 -5.5935 2.8234
4.1328 -5.5767 2.8233
4.2120 -5.5595 2.8231
4.2917 -5.5419 2.8229
4.3720 -5.5239 2.8227
4.4527 -5.5054 2.8225
4.5340 -5.4866 2.8223
4.6159 -5.4674 2.8222
4.6984 -5.4477 2.8220
4.7814 -5.4275 2.8218
4.8650 -5.4070 2.8216
4.9493 -5.3859 2.8214
5.0342 -5.3645 2.8212
5.1197 -5.3425 2.8210
5.2059 -5.3201 2.8208
5.2928 -5.2971 2.8206
5.3804 -5.2737 2.8204
5.4687 -5.2498 2.8202
5.5577 -5.2253 2.8200
5.6528 -5.2052 2.8225
5.7465 -5.1824 2.8238
5.8412 -5.1590 2.8251
5.9348 -5.1334 2.8255
6.0257 -5.1042 2.8242
6.1174 -5.0743 2.8228
6.2099 -5.0439 2.8215
6.3033 -5.0129 2.8202
6.2899 -4.8975 2.7715
6.1713 -4.7041 2.6781
6.2630 -4.6732 2.6771
6.3557 -4.6418 2.6761
6.4492 -4.6096 2.6750
6.5432 -4.5765 2.6737
6.6381 -4.5426 2.6724
-2.7395 -5.1288 2.8396
-2.6742 -5.1407 2.8395
-2.6092 -5.1523 2.8393
-2.5444 -5.1636 2.8392
-2.4799 -5.1745 2.8390
-2.4155 -5.1852 2.8389
-2.3514 -5.1955 2.8387
-2.2875 -5.2055 2.8385
-2.2238 -5.2152 2.8384
-2.1603 -5.2246 2.8382
-2.0969 -5.2337 2.8381
-2.0338 -5.2425 2.8379
-1.9708 -5.2510 2.8378
-1.9080 -5.2593 2.8376
-1.8454 -5.2672 2.8375
-1.7829 -5.2748 2.8373
-1.7206 -5.2822 2.8372
-1.6585 -5.2893 2.8370
-1.0742 -3.5634 1.9088
-1.0305 -3.5609 1.9050
-0.9872 -3.5583 1.9012
-0.9441 -3.5557 1.8977
-0.9014 -3.5532 1.8942
-0.8589 -3.5507 1.8908
-0.8167 -3.5482 1.8876
-0.7748 -3.5457 1.8844
-0.7330 -3.5432 1.8814
-0.6915 -3.5408 1.8785
-0.6503 -3.5383 1.8756
-0.6092 -3.5359 1.8729
-0.5683 -3.5335 1.8703
-0.5277 -3.5311 1.8678
-0.4872 -3.5287 1.8654
-0.4468 -3.5263 1.8631
-0.4066 -3.5239 1.8609
-0.3666 -3.5216 1.8587
-0.3267 -3.5192 1.8567
-0.2869 -3.5169 1.8548
-0.2473 -3.5145 1.8530
-0.2077 -3.5122 1.8512
-0.1683 -3.5098 1.8496
-0.1289 -3.5075 1.8480
-0.0896 -3.5052 1.8465
-0.0504 -3.5029 1.8452
-0.0113 -3.5006 1.8439
0.0278 -3.4983 1.8427
0.0668 -3.4960 1.8416
0.1058 -3.4937 1.8406
0.1448 -3.4914 1.8396
0.1838 -3.4891 1.8388
0.2227 -3.4868 1.8380
0.2617 -3.4845 1.8374
0.3006 -3.4822 1.8368
0.3396 -3.4799 1.8363
0.3786 -3.4776 1.8359
0.4176 -3.4753 1.8356
0.4567 -3.4730 1.8353
0.4958 -3.4707 1.8352
0.5350 -3.4684 1.8351
0.5742 -3.4661 1.8352
0.6136 -3.4638 1.8353
0.6530 -3.4615 1.8355
0.6925 -3.4591 1.8358
0.7321 -3.4568 1.8362
1.1894 -5.3233 2.8303
1.2503 -5.3178 2.8302
1.3114 -5.3120 2.8300
1.3725 -5.3059 2.8299
1.4338 -5.2996 2.8297
1.4952 -5.2930 2.8296
1.5567 -5.2861 2.8294
1.6183 -5.2790 2.8293
1.6800 -5.2715 2.8292
1.7419 -5.2638 2.8290
1.8039 -5.2558 2.8289
1.8660 -5.2475 2.8287
1.9283 -5.2390 2.8286
1.9908 -5.2301 2.8284
2.0534 -5.2210 2.8283
2.1162 -5.2115 2.8282
2.1792 -5.2017 2.8280
2.2423 -5.1917 2.8279
2.3056 -5.1813 2.8277
2.3691 -5.1707 2.8276
2.4328 -5.1597 2.8274
2.4967 -5.1485 2.8273
2.5608 -5.1369 2.8271
2.6252 -5.1250 2.8270
2.6897 -5.1127 2.8268
2.7545 -5.1002 2.8267
2.8195 -5.0873 2.8266
2.8847 -5.0741 2.8264
2.9503 -5.0605 2.8263
3.0160 -5.0467 2.8261
3.0820 -5.0324 2.8260
3.1483 -5.0178 2.8258
3.2149 -5.0029 2.8257
3.2819 -4.9879 2.8257
3.3501 -4.9740 2.8265
3.4188 -4.9596 2.8273
3.4878 -4.9450 2.8281
3.5572 -4.9300 2.8290
3.6270 -4.9146 2.8299
3.6972 -4.8989 2.8308
3.7676 -4.8825 2.8315
3.8383 -4.8656 2.8322
3.9095 -4.8483 2.8329
3.9810 -4.8307 2.8337
4.0531 -4.8127 2.8344
4.1255 -4.7942 2.8352
4.1984 -4.7753 2.8360
4.2715 -4.7556 2.8366
4.3451 -4.7355 2.8372
4.4192 -4.7151 2.8378
4.4937 -4.6941 2.8384
4.5688 -4.6727 2.8391
4.6443 -4.6508 2.8397
4.7204 -4.6284 2.8404
4.7967 -4.6053 2.8409
4.8736 -4.5817 2.8414
4.9511 -4.5576 2.8419
5.0291 -4.5331 2.8425
5.1076 -4.5078 2.8430
5.1866 -4.4820 2.8434
5.2661 -4.4556 2.8439
5.3463 -4.4287 2.8444
5.4261 -4.4003 2.8443
5.5060 -4.3711 2.8440
5.5866 -4.3413 2.8437
5.6678 -4.3109 2.8435
5.7496 -4.2799 2.8432
5.7526 -4.1905 2.8042
5.6747 -4.0448 2.7271
5.6859 -3.9649 2.6941
5.7662 -3.9333 2.6939
5.8471 -3.9010 2.6937
-2.4793 -4.5622 2.8393
-2.4209 -4.5744 2.8391
-2.3626 -4.5863 2.8390
-2.3045 -4.5979 2.8388
-2.2466 -4.6091 2.8387
-2.1888 -4.6200 2.8386
-2.1312 -4.6306 2.8384
-2.0738 -4.6409 2.8383
-2.0165 -4.6509 2.8381
-1.9592 -4.6606 2.8380
-1.9021 -4.6700 2.8379
-1.8453 -4.6791 2.8377
-1.7885 -4.6878 2.8376
-1.7318 -4.6963 2.8374
-1.6753 -4.7045 2.8373
-1.6188 -4.7124 2.8372
-1.5626 -4.7200 2.8370
-1.5064 -4.7273 2.8369
-1.4502 -4.7344 2.8368
-1.0478 -3.5630 2.1318
-1.0037 -3.5604 2.1272
-0.9599 -3.5578 2.1228
-0.9163 -3.5552 2.1185
-0.8731 -3.5526 2.1144
-0.8302 -3.5501 2.1104
-0.7875 -3.5476 2.1065
-0.7450 -3.5450 2.1028
-0.7028 -3.5425 2.0993
-0.6609 -3.5400 2.0958
-0.6191 -3.5376 2.0925
-0.5776 -3.5351 2.0894
-0.5362 -3.5327 2.0863
-0.4950 -3.5302 2.0834
-0.4540 -3.5278 2.0806
-0.4132 -3.5254 2.0780
-0.3725 -3.5230 2.0754
-0.3319 -3.5206 2.0730
-0.2915 -3.5182 2.0707
-0.2512 -3.5158 2.0686
-0.2110 -3.5134 2.0665
-0.1710 -3.5111 2.0646
-0.1310 -3.5087 2.0628
-0.0911 -3.5063 2.0611
-0.0512 -3.5040 2.0595
-0.0115 -3.5016 2.0580
0.0282 -3.4993 2.0567
0.0679 -3.4970 2.0554
0.1075 -3.4946 2.0543
0.1471 -3.4923 2.0533
0.1867 -3.4900 2.0524
0.2263 -3.4876 2.0516
0.2658 -3.4853 2.0509
0.3054 -3.4830 2.0504
0.3450 -3.4806 2.0499
0.3846 -3.4783 2.0496
0.4243 -3.4760 2.0494
0.4640 -3.4736 2.0492
0.5037 -3.4713 2.0492
0.5435 -3.4689 2.0494
0.5834 -3.4666 2.0496
0.6233 -3.4642 2.0499
0.6634 -3.4619 2.0504
0.7036 -3.4595 2.0509
0.7438 -3.4572 2.0516
0.8664 -3.8171 2.2676
0.9353 -3.9152 2.3286
1.1923 -4.7535 2.8305
1.2479 -4.7479 2.8308
1.3037 -4.7424 2.8312
1.3596 -4.7365 2.8316
1.4156 -4.7305 2.8320
1.4717 -4.7241 2.8324
1.5279 -4.7175 2.8329
1.5843 -4.7106 2.8333
1.6407 -4.7035 2.8338
1.6974 -4.6960 2.8343
1.7540 -4.6882 2.8347
1.8109 -4.6799 2.8351
1.8678 -4.6715 2.8355
1.9249 -4.6627 2.8359
1.9822 -4.6537 2.8363
2.0396 -4.6443 2.8367
2.0972 -4.6347 2.8372
2.1549 -4.6248 2.8376
2.2128 -4.6146 2.8381
2.2708 -4.6039 2.8385
2.3290 -4.5929 2.8388
2.3873 -4.5815 2.8392
2.4459 -4.5699 2.8396
2.5046 -4.5579 2.8399
2.5635 -4.5456 2.8403
2.6226 -4.5330 2.8407
2.6819 -4.5200 2.8411
2.7414 -4.5068 2.8415
2.8011 -4.4931 2.8419
2.8610 -4.4790 2.8422
2.9211 -4.4645 2.8425
2.9814 -4.4497 2.8429
3.0419 -4.4346 2.8432
3.1027 -4.4191 2.8436
3.1636 -4.4031 2.8439
3.2248 -4.3868 2.8442
3.2862 -4.3700 2.8445
3.3479 -4.3529 2.8448
3.4098 -4.3355 2.8451
3.4720 -4.3176 2.8454
3.5343 -4.2992 2.8456
3.5969 -4.2803 2.8458
3.6598 -4.2611 2.8460
3.7230 -4.2415 2.8462
3.7864 -4.2214 2.8464
3.8502 -4.2009 2.8466
3.9142 -4.1800 2.8469
3.9786 -4.1587 2.8471
4.0433 -4.1370 2.8473
4.1082 -4.1146 2.8475
4.1732 -4.0917 2.8476
4.2387 -4.0684 2.8476
4.3044 -4.0446 2.8477
4.3705 -4.0203 2.8478
4.4369 -3.9955 2.8479
4.5037 -3.9702 2.8480
4.5709 -3.9444 2.8480
4.6384 -3.9182 2.8481
4.7063 -3.8914 2.8482
4.7744 -3.8640 2.8482
4.8429 -3.8361 2.8482
4.9118 -3.8076 2.8482
4.9812 -3.7785 2.8482
5.0509 -3.7490 2.8482
5.1210 -3.7188 2.8482
5.1916 -3.6881 2.8482
5.2626 -3.6568 2.8482
5.3341 -3.6249 2.8482
5.3939 -3.5844 2.8418
5.3574 -3.4807 2.7853
-2.2658 -4.0949 2.8466
-2.2129 -4.1071 2.8465
-2.1600 -4.1190 2.8463
-2.1073 -4.1305 2.8461
-2.0547 -4.1417 2.8459
-2.0023 -4.1526 2.8457
-1.9499 -4.1632 2.8455
-1.8976 -4.1735 2.8454
-1.8455 -4.1835 2.8452
-1.7935 -4.1932 2.8450
-1.7415 -4.2026 2.8449
-1.6896 -4.2117 2.8447
-1.6379 -4.2204 2.8445
-1.5862 -4.2290 2.8443
-1.5346 -4.2372 2.8442
-1.4832 -4.2451 2.8440
-1.4318 -4.2528 2.8439
-1.3804 -4.2602 2.8437
-1.3292 -4.2673 2.8436
-1.2780 -4.2741 2.8435
-1.0211 -3.5626 2.3664
-0.9765 -3.5599 2.3611
-0.9322 -3.5573 2.3559
-0.8881 -3.5547 2.3510
-0.8444 -3.5521 2.3462
-0.8010 -3.5495 2.3416
-0.7578 -3.5469 2.3371
-0.7148 -3.5444 2.3329
-0.6721 -3.5419 2.3288
-0.6296 -3.5393 2.3248
-0.5873 -3.5368 2.3211
-0.5452 -3.5343 2.3175
-0.5034 -3.5319 2.3140
-0.4616 -3.5294 2.3107
-0.4201 -3.5269 2.3076
-0.3787 -3.5245 2.3046
-0.3375 -3.5220 2.3017
-0.2964 -3.5196 2.2991
-0.2554 -3.5172 2.2965
-0.2146 -3.5148 2.2941
-0.1738 -3.5123 2.2919
-0.1331 -3.5100 2.2898
-0.0926 -3.5076 2.2878
-0.0521 -3.5052 2.2860
-0.0117 -3.5028 2.2844
0.0287 -3.5004 2.2828
0.0690 -3.4980 2.2814
0.1093 -3.4956 2.2802
0.1496 -3.4933 2.2791
0.1898 -3.4909 2.2781
0.2300 -3.4885 2.2773
0.2702 -3.4862 2.2766
0.3104 -3.4838 2.2761
0.3507 -3.4814 2.2757
0.3910 -3.4790 2.2754
0.4313 -3.4767 2.2753
0.4716 -3.4743 2.2753
0.5120 -3.4719 2.2755
0.5525 -3.4695 2.2758
0.5931 -3.4671 2.2762
0.6337 -3.4648 2.2768
0.6744 -3.4624 2.2775
0.7152 -3.4600 2.2784
0.7562 -3.4576 2.2794
0.8451 -3.6627 2.4175
0.9006 -3.7085 2.4508
1.0962 -4.2988 2.8447
1.1471 -4.2930 2.8448
1.1982 -4.2868 2.8450
1.2492 -4.2805 2.8451
1.3004 -4.2738 2.8452
1.3516 -4.2668 2.8453
1.4029 -4.2596 2.8455
1.4543 -4.2521 2.8456
1.5058 -4.2443 2.8458
1.5574 -4.2363 2.8459
1.6090 -4.2279 2.8460
1.6607 -4.2191 2.8461
1.7124 -4.2101 2.8462
1.7643 -4.2007 2.8463
1.8163 -4.1911 2.8464
1.8684 -4.1812 2.8465
1.9205 -4.1710 2.8467
1.9728 -4.1605 2.8468
2.0252 -4.1496 2.8469
2.0777 -4.1385 2.8470
2.1303 -4.1271 2.8471
2.1830 -4.1153 2.8473
2.2359 -4.1032 2.8474
2.2888 -4.0908 2.8475
2.3419 -4.0780 2.8476
2.3950 -4.0649 2.8477
2.4483 -4.0513 2.8477
2.5017 -4.0375 2.8477
2.5553 -4.0233 2.8478
2.6089 -4.0088 2.8478
2.6628 -3.9940 2.8479
2.7167 -3.9788 2.8479
2.7708 -3.9633 2.8480
2.8251 -3.9474 2.8480
2.8795 -3.9311 2.8481
2.9341 -3.9145 2.8481
2.9888 -3.8975 2.8482
3.0437 -3.8802 2.8482
3.0987 -3.8624 2.8482
3.1539 -3.8442 2.8482
3.2092 -3.8257 2.8482
3.2648 -3.8068 2.8482
3.3205 -3.7875 2.8482
3.3763 -3.7677 2.8482
3.4324 -3.7477 2.8482
3.4887 -3.7272 2.8482
3.5451 -3.7063 2.8482
3.6018 -3.6849 2.8482
3.6586 -3.6632 2.8482
3.7157 -3.6410 2.8482
3.7730 -3.6185 2.8482
3.8304 -3.5954 2.8482
3.8881 -3.5720 2.8482
3.9461 -3.5481 2.8482
4.0042 -3.5237 2.8482
4.0626 -3.4989 2.8482
4.1212 -3.4737 2.8482
4.1800 -3.4479 2.8482
4.2391 -3.4217 2.8482
4.2985 -3.3950 2.8482
4.3581 -3.3678 2.8482
4.4179 -3.3402 2.8482
4.4780 -3.3120 2.8482
4.5384 -3.2833 2.8482
4.5990 -3.2541 2.8482
4.6599 -3.2243 2.8482
4.7212 -3.1941 2.8482
4.7826 -3.1633 2.8482
4.8444 -3.1319 2.8482
4.9065 -3.1000 2.8482
-2.0779 -3.6853 2.8482
-2.0299 -3.6976 2.8482
-1.9819 -3.7095 2.8482
-1.9340 -3.7212 2.8482
-1.8862 -3.7325 2.8482
-1.8385 -3.7435 2.8482
-1.7908 -3.7543 2.8482
-1.7432 -3.7647 2.8482
-1.6957 -3.7748 2.8482
-1.6482 -3.7847 2.8482
-1.6008 -3.7942 2.8482
-1.5534 -3.8034 2.8482
-1.5062 -3.8124 2.8482
-1.4589 -3.8210 2.8482
-1.4117 -3.8294 2.8482
-1.3646 -3.8375 2.8482
-1.3175 -3.8453 2.8482
-1.2705 -3.8528 2.8482
-1.2236 -3.8601 2.8482
-1.1766 -3.8670 2.8482
-1.0397 -3.5649 2.6212
-0.9942 -3.5622 2.6148
-0.9490 -3.5595 2.6088
-0.9041 -3.5569 2.6029
-0.8596 -3.5542 2.5972
-0.8153 -3.5516 2.5918
-0.7713 -3.5490 2.5865
-0.7275 -3.5464 2.5815
-0.6840 -3.5438 2.5767
-0.6407 -3.5412 2.5721
-0.5977 -3.5387 2.5676
-0.5548 -3.5361 2.5634
-0.5122 -3.5336 2.5593
-0.4697 -3.5311 2.5555
-0.4275 -3.5286 2.5518
-0.3853 -3.5261 2.5483
-0.3434 -3.5236 2.5450
-0.3015 -3.5211 2.5419
-0.2599 -3.5186 2.5390
-0.2183 -3.5162 2.5362
-0.1768 -3.5137 2.5336
-0.1355 -3.5113 2.5312
-0.0942 -3.5088 2.5290
-0.0530 -3.5064 2.5269
-0.0119 -3.5040 2.5250
0.0292 -3.5015 2.5233
0.0702 -3.4991 2.5218
0.1112 -3.4967 2.5204
0.1521 -3.4943 2.5192
0.1931 -3.4919 2.5182
0.2340 -3.4895 2.5173
0.2749 -3.4871 2.5166
0.3158 -3.4846 2.5161
0.3567 -3.4822 2.5158
0.3977 -3.4798 2.5156
0.4387 -3.4774 2.5156
0.4798 -3.4750 2.5157
0.5209 -3.4726 2.5160
0.5621 -3.4702 2.5165
0.6033 -3.4677 2.5172
0.6447 -3.4653 2.5180
0.6861 -3.4629 2.5190
0.7277 -3.4604 2.5202
0.7694 -3.4580 2.5216
0.9157 -3.9007 2.8482
0.9624 -3.8953 2.8482
1.0091 -3.8896 2.8482
1.0559 -3.8837 2.8482
1.1027 -3.8775 2.8482
1.1496 -3.8709 2.8482
1.1965 -3.8641 2.8482
1.2434 -3.8571 2.8482
1.2904 -3.8497 2.8482
1.3374 -3.8420 2.8482
1.3845 -3.8341 2.8482
1.4317 -3.8259 2.8482
1.4789 -3.8174 2.8482
1.5261 -3.8086 2.8482
1.5734 -3.7996 2.8482
1.6208 -3.7902 2.8482
1.6683 -3.7805 2.8482
1.7158 -3.7706 2.8482
1.7633 -3.7603 2.8482
1.8109 -3.7497 2.8482
1.8586 -3.7389 2.8482
1.9064 -3.7277 2.8482
1.9543 -3.7163 2.8482
2.0022 -3.7045 2.8482
2.0502 -3.6924 2.8482
2.0983 -3.6800 2.8482
2.1464 -3.6673 2.8482
2.1947 -3.6543 2.8482
2.2430 -3.6410 2.8482
2.2914 -3.6273 2.8482
2.3399 -3.6133 2.8482
2.3885 -3.5990 2.8482
2.4372 -3.5843 2.8482
2.4860 -3.5694 2.8482
2.5349 -3.5540 2.8482
2.5838 -3.5384 2.8482
2.6329 -3.5224 2.8482
2.6821 -3.5061 2.8482
2.7314 -3.4894 2.8482
2.7808 -3.4724 2.8482
2.8303 -3.4550 2.8482
3.0294 -3.3818 2.8482
2.8799 -3.4372 2.8482
3.0795 -3.3626 2.8482
2.9296 -3.4191 2.8482
3.1297 -3.3430 2.8482
2.9795 -3.4006 2.8482
3.1800 -3.3230 2.8482
3.2305 -3.3027 2.8482
3.4336 -3.2174 2.8482
3.2810 -3.2819 2.8482
3.4847 -3.1950 2.8482
3.3318 -3.2608 2.8482
3.5359 -3.1723 2.8482
3.3826 -3.2393 2.8482
3.5873 -3.1491 2.8482
3.6389 -3.1256 2.8482
3.8465 -3.0269 2.8482
3.6906 -3.1016 2.8482
3.8988 -3.0012 2.8482
3.7424 -3.0771 2.8482
3.9513 -2.9750 2.8482
3.7944 -3.0522 2.8482
4.0039 -2.9484 2.8482
4.0567 -2.9213 2.8482
4.1096 -2.8937 2.8482
4.2695 -2.8081 2.8482
4.1627 -2.8656 2.8482
4.3231 -2.7785 2.8482
4.2160 -2.8371 2.8482
4.3769 -2.7485 2.8482
4.4309 -2.7180 2.8482
-1.9131 -3.3262 2.8482
-1.8691 -3.3382 2.8482
-1.8253 -3.3499 2.8482
-1.7814 -3.3612 2.8482
-1.7377 -3.3723 2.8482
-1.6939 -3.3831 2.8482
-1.6502 -3.3936 2.8482
-1.6066 -3.4038 2.8482
-1.5630 -3.4137 2.8482
-1.5194 -3.4233 2.8482
-1.4759 -3.4326 2.8482
-1.4324 -3.4417 2.8482
-1.3890 -3.4505 2.8482
-1.3456 -3.4590 2.8482
-1.3022 -3.4672 2.8482
-1.2589 -3.4751 2.8482
-1.2156 -3.4827 2.8482
-1.1723 -3.4901 2.8482
-1.1291 -3.4972 2.8482
-1.0859 -3.5040 2.8482
-1.0427 -3.5106 2.8482
-0.9996 -3.5169 2.8482
-0.9565 -3.5229 2.8482
-0.9134 -3.5286 2.8482
-0.8703 -3.5341 2.8482
-0.8273 -3.5393 2.8482
-0.7842 -3.5442 2.8482
-0.7412 -3.5489 2.8482
-0.6983 -3.5533 2.8482
-0.6553 -3.5574 2.8482
-0.6124 -3.5613 2.8482
-0.5694 -3.5649 2.8482
-0.5265 -3.5682 2.8482
-0.4836 -3.5713 2.8482
-0.4407 -3.5741 2.8482
-0.3979 -3.5766 2.8482
-0.3550 -3.5789 2.8482
-0.3121 -3.5810 2.8482
-0.2693 -3.5827 2.8482
-0.2265 -3.5842 2.8482
-0.1836 -3.5855 2.8482
-0.1408 -3.5865 2.8482
-0.0980 -3.5872 2.8482
-0.0552 -3.5876 2.8482
-0.0124 -3.5879 2.8482
0.0305 -3.5878 2.8482
0.0733 -3.5875 2.8482
0.1161 -3.5869 2.8482
0.1589 -3.5861 2.8482
0.2017 -3.5850 2.8482
0.2446 -3.5836 2.8482
0.2874 -3.5820 2.8482
0.3303 -3.5801 2.8482
0.3731 -3.5780 2.8482
0.4160 -3.5756 2.8482
0.4589 -3.5729 2.8482
0.5018 -3.5700 2.8482
0.5447 -3.5668 2.8482
0.5876 -3.5634 2.8482
0.6305 -3.5597 2.8482
0.6735 -3.5557 2.8482
0.7164 -3.5514 2.8482
0.7594 -3.5469 2.8482
0.8024 -3.5422 2.8482
0.8454 -3.5371 2.8482
0.8885 -3.5318 2.8482
0.9316 -3.5262 2.8482
0.9747 -3.5204 2.8482
1.0178 -3.5142 2.8482
1.0610 -3.5078 2.8482
1.1906 -3.4870 2.8482
1.1042 -3.5012 2.8482
1.2339 -3.4795 2.8482
1.1474 -3.4942 2.8482
1.2772 -3.4718 2.8482
1.3639 -3.4554 2.8482
1.3206 -3.4637 2.8482
1.4074 -3.4468 2.8482
1.5378 -3.4193 2.8482
1.4508 -3.4379 2.8482
1.5814 -3.4095 2.8482
1.4943 -3.4287 2.8482
1.6250 -3.3995 2.8482
1.7124 -3.3786 2.8482
1.6687 -3.3892 2.8482
1.7562 -3.3677 2.8482
1.8877 -3.3332 2.8482
1.8000 -3.3565 2.8482
1.9317 -3.3211 2.8482
1.8438 -3.3450 2.8482
1.9757 -3.3087 2.8482
2.0638 -3.2830 2.8482
2.0197 -3.2960 2.8482
2.1080 -3.2696 2.8482
2.2408 -3.2278 2.8482
2.1522 -3.2560 2.8482
2.2852 -3.2132 2.8482
2.1965 -3.2421 2.8482
2.3297 -3.1983 2.8482
2.4188 -3.1676 2.8482
2.3742 -3.1831 2.8482
2.4634 -3.1517 2.8482
2.5978 -3.1021 2.8482
2.5081 -3.1355 2.8482
2.6427 -3.0849 2.8482
2.5529 -3.1189 2.8482
2.6877 -3.0673 2.8482
2.7778 -3.0312 2.8482
2.7327 -3.0494 2.8482
2.8230 -3.0126 2.8482
2.9591 -2.9546 2.8482
2.8683 -2.9936 2.8482
3.0046 -2.9346 2.8482
2.9137 -2.9743 2.8482
3.0502 -2.9142 2.8482
3.1416 -2.8723 2.8482
3.0959 -2.8934 2.8482
3.1874 -2.8507 2.8482
3.3254 -2.7839 2.8482
3.2333 -2.8288 2.8482
3.3716 -2.7608 2.8482
3.2793 -2.8066 2.8482
3.4178 -2.7373 2.8482
3.5106 -2.6892 2.8482
3.4642 -2.7135 2.8482
3.5571 -2.6645 2.8482
3.6972 -2.5879 2.8482
3.6037 -2.6394 2.8482
3.7441 -2.5615 2.8482
3.6504 -2.6139 2.8482
3.7911 -2.5347 2.8482
3.8854 -2.4798 2.8482
3.8382 -2.5075 2.8482
3.9327 -2.4516 2.8482
3.9800 -2.4231 2.8482
4.0275 -2.3940 2.8482
-1.7675 -3.0091 2.8482
-1.7271 -3.0207 2.8482
-1.6868 -3.0320 2.8482
-1.6465 -3.0430 2.8482
-1.6063 -3.0538 2.8482
-1.5661 -3.0643 2.8482
-1.5259 -3.0745 2.8482
-1.4857 -3.0844 2.8482
-1.4456 -3.0940 2.8482
-1.4054 -3.1034 2.8482
-1.3653 -3.1124 2.8482
-1.3253 -3.1213 2.8482
-1.2852 -3.1298 2.8482
-1.2452 -3.1381 2.8482
-1.2052 -3.1460 2.8482
-1.1652 -3.1538 2.8482
-1.1252 -3.1612 2.8482
-1.0852 -3.1684 2.8482
-1.0453 -3.1753 2.8482
-1.0054 -3.1819 2.8482
-0.9655 -3.1883 2.8482
-0.9256 -3.1944 2.8482
-0.8858 -3.2003 2.8482
-0.8459 -3.2059 2.8482
-0.8061 -3.2112 2.8482
-0.7663 -3.2163 2.8482
-0.7265 -3.2211 2.8482
-0.6867 -3.2257 2.8482
-0.6469 -3.2299 2.8482
-0.6071 -3.2340 2.8482
-0.5674 -3.2377 2.8482
-0.5276 -3.2413 2.8482
-0.4879 -3.2445 2.8482
-0.4481 -3.2475 2.8482
-0.4084 -3.2503 2.8482
-0.3687 -3.2528 2.8482
-0.3290 -3.2550 2.8482
-0.2893 -3.2570 2.8482
-0.2496 -3.2587 2.8482
-0.2099 -3.2602 2.8482
-0.1702 -3.2614 2.8482
-0.1305 -3.2624 2.8482
-0.0908 -3.2631 2.8482
-0.0511 -3.2635 2.8482
-0.0115 -3.2637 2.8482
0.0282 -3.2637 2.8482
0.0679 -3.2634 2.8482
0.1076 -3.2628 2.8482
0.1473 -3.2620 2.8482
0.1870 -3.2609 2.8482
0.2267 -3.2596 2.8482
0.2664 -3.2580 2.8482
0.3061 -3.2562 2.8482
0.4649 -3.2463 2.8482
0.3458 -3.2541 2.8482
0.5047 -3.2432 2.8482
0.3855 -3.2517 2.8482
0.5444 -3.2398 2.8482
0.4252 -3.2491 2.8482
0.5842 -3.2362 2.8482
0.6239 -3.2323 2.8482
0.7831 -3.2142 2.8482
0.6637 -3.2282 2.8482
0.8229 -3.2090 2.8482
0.7035 -3.2238 2.8482
0.8628 -3.2036 2.8482
0.7433 -3.2191 2.8482
0.9026 -3.1979 2.8482
0.9425 -3.1919 2.8482
1.1021 -3.1654 2.8482
0.9824 -3.1857 2.8482
1.1421 -3.1581 2.8482
1.0223 -3.1792 2.8482
1.1821 -3.1505 2.8482
1.0622 -3.1724 2.8482
1.2221 -3.1427 2.8482
1.2621 -3.1346 2.8482
1.4224 -3.0994 2.8482
1.3021 -3.1262 2.8482
1.4625 -3.0900 2.8482
1.3422 -3.1176 2.8482
1.5027 -3.0802 2.8482
1.3823 -3.1086 2.8482
1.5429 -3.0702 2.8482
1.5831 -3.0599 2.8482
1.7442 -3.0158 2.8482
1.6233 -3.0493 2.8482
1.7845 -3.0041 2.8482
1.6636 -3.0384 2.8482
1.8249 -2.9920 2.8482
1.7039 -3.0272 2.8482
1.8653 -2.9797 2.8482
1.9057 -2.9671 2.8482
2.0678 -2.9137 2.8482
1.9462 -2.9542 2.8482
2.1084 -2.8996 2.8482
1.9867 -2.9410 2.8482
2.1490 -2.8852 2.8482
2.0272 -2.9275 2.8482
2.1897 -2.8704 2.8482
2.2304 -2.8554 2.8482
2.3936 -2.7922 2.8482
2.2711 -2.8401 2.8482
2.4345 -2.7756 2.8482
2.3119 -2.8244 2.8482
2.4754 -2.7586 2.8482
2.3527 -2.8084 2.8482
2.5163 -2.7414 2.8482
2.5573 -2.7238 2.8482
2.7217 -2.6501 2.8482
2.5984 -2.7059 2.8482
2.7629 -2.6309 2.8482
2.6394 -2.6876 2.8482
2.8041 -2.6113 2.8482
2.6805 -2.6691 2.8482
2.8454 -2.5913 2.8482
2.8867 -2.5710 2.8482
3.0524 -2.4863 2.8482
2.9281 -2.5504 2.8482
3.0939 -2.4642 2.8482
2.9695 -2.5294 2.8482
3.2187 -2.3957 2.8482
3.1355 -2.4417 2.8482
3.0109 -2.5080 2.8482
3.2604 -2.3721 2.8482
3.1771 -2.4189 2.8482
3.3857 -2.2991 2.8482
3.3021 -2.3481 2.8482
3.4276 -2.2739 2.8482
3.3439 -2.3238 2.8482
3.4695 -2.2484 2.8482
3.5115 -2.2225 2.8482
3.5534 -2.1961 2.8482
3.5955 -2.1694 2.8482
3.6376 -2.1422 2.8482
3.6797 -2.1147 2.8482
-1.6374 -2.7257 2.8482
-1.6002 -2.7370 2.8482
-1.5631 -2.7479 2.8482
-1.5259 -2.7586 2.8482
-1.4888 -2.7690 2.8482
-1.4517 -2.7791 2.8482
-1.4146 -2.7890 2.8482
-1.3775 -2.7985 2.8482
-1.3404 -2.8079 2.8482
-1.3034 -2.8169 2.8482
-1.2663 -2.8257 2.8482
-1.2292 -2.8342 2.8482
-1.1922 -2.8425 2.8482
-1.1552 -2.8505 2.8482
-1.1182 -2.8582 2.8482
-1.0811 -2.8657 2.8482
-1.0441 -2.8729 2.8482
-1.0072 -2.8799 2.8482
-0.9702 -2.8866 2.8482
-0.9332 -2.8931 2.8482
-0.8962 -2.8992 2.8482
-0.8593 -2.9052 2.8482
-0.8223 -2.9109 2.8482
-0.7854 -2.9163 2.8482
-0.7484 -2.9214 2.8482
-0.7115 -2.9264 2.8482
-0.6746 -2.9310 2.8482
-0.6377 -2.9355 2.8482
-0.6007 -2.9396 2.8482
-0.5638 -2.9435 2.8482
-0.5269 -2.9472 2.8482
-0.4900 -2.9506 2.8482
-0.4531 -2.9538 2.8482
-0.4163 -2.9567 2.8482
-0.3794 -2.9594 2.8482
-0.3425 -2.9618 2.8482
-0.3056 -2.9640 2.8482
-0.2687 -2.9659 2.8482
-0.2319 -2.9676 2.8482
-0.1950 -2.9690 2.8482
-0.1581 -2.9702 2.8482
-0.1212 -2.9711 2.8482
-0.0844 -2.9718 2.8482
-0.0475 -2.9722 2.8482
-0.0106 -2.9724 2.8482
0.0262 -2.9724 2.8482
0.0631 -2.9721 2.8482
0.1000 -2.9715 2.8482
0.1368 -2.9707 2.8482
0.1737 -2.9697 2.8482
0.2106 -2.9684 2.8482
0.2474 -2.9669 2.8482
0.2843 -2.9651 2.8482
0.3212 -2.9631 2.8482
0.3581 -2.9608 2.8482
0.3950 -2.9583 2.8482
0.4318 -2.9555 2.8482
0.4687 -2.9525 2.8482
0.5056 -2.9492 2.8482
0.5425 -2.9457 2.8482
0.5794 -2.9419 2.8482
0.6163 -2.9379 2.8482
0.6533 -2.9336 2.8482
0.6902 -2.9291 2.8482
0.7271 -2.9243 2.8482
0.7640 -2.9193 2.8482
0.8010 -2.9140 2.8482
0.8379 -2.9085 2.8482
0.8749 -2.9027 2.8482
0.9119 -2.8967 2.8482
0.9488 -2.8904 2.8482
0.9858 -2.8838 2.8482
1.0228 -2.8770 2.8482
1.0598 -2.8699 2.8482
1.0968 -2.8626 2.8482
1.1338 -2.8550 2.8482
1.1708 -2.8472 2.8482
1.2079 -2.8391 2.8482
1.2449 -2.8307 2.8482
1.2820 -2.8220 2.8482
1.3190 -2.8131 2.8482
1.3561 -2.8040 2.8482
1.3932 -2.7945 2.8482
1.4303 -2.7848 2.8482
1.4674 -2.7749 2.8482
1.5045 -2.7646 2.8482
1.5416 -2.7541 2.8482
1.5788 -2.7433 2.8482
1.6159 -2.7323 2.8482
1.7647 -2.6852 2.8482
1.6531 -2.7209 2.8482
1.8019 -2.6728 2.8482
1.6903 -2.7093 2.8482
1.8391 -2.6600 2.8482
1.7275 -2.6974 2.8482
1.8764 -2.6470 2.8482
1.9136 -2.6337 2.8482
2.0628 -2.5776 2.8482
1.9509 -2.6201 2.8482
2.1001 -2.5628 2.8482
2.2121 -2.5168 2.8482
1.9882 -2.6062 2.8482
2.2495 -2.5008 2.8482
2.1374 -2.5478 2.8482
2.0254 -2.5921 2.8482
2.3616 -2.4511 2.8482
2.2869 -2.4845 2.8482
2.1747 -2.5324 2.8482
2.5114 -2.3804 2.8482
2.3991 -2.4339 2.8482
2.5489 -2.3620 2.8482
2.3242 -2.4679 2.8482
2.6613 -2.3047 2.8482
2.4365 -2.4164 2.8482
2.5863 -2.3432 2.8482
2.8115 -2.2237 2.8482
2.6989 -2.2849 2.8482
2.4740 -2.3986 2.8482
2.6238 -2.3241 2.8482
2.8490 -2.2026 2.8482
2.7364 -2.2648 2.8482
2.9617 -2.1373 2.8482
3.1121 -2.0453 2.8482
2.8866 -2.1812 2.8482
2.7739 -2.2444 2.8482
3.1497 -2.0214 2.8482
2.9993 -2.1148 2.8482
2.9241 -2.1594 2.8482
3.1873 -1.9972 2.8482
3.0369 -2.0920 2.8482
3.2249 -1.9725 2.8482
3.0745 -2.0688 2.8482
3.2625 -1.9475 2.8482
3.3002 -1.9222 2.8482
3.3378 -1.8964 2.8482
3.3754 -1.8703 2.8482
-1.5200 -2.4701 2.8482
-1.4857 -2.4809 2.8482
-1.4514 -2.4914 2.8482
-1.4170 -2.5017 2.8482
-1.3827 -2.5117 2.8482
-1.2454 -2.5492 2.8482
-1.3484 -2.5215 2.8482
-1.2111 -2.5579 2.8482
-1.1081 -2.5826 2.8482
-1.3140 -2.5310 2.8482
-1.1767 -2.5664 2.8482
-1.0738 -2.5903 2.8482
-1.2797 -2.5402 2.8482
-1.1424 -2.5746 2.8482
-1.0394 -2.5978 2.8482
-0.8335 -2.6374 2.8482
-0.9708 -2.6120 2.8482
-0.6962 -2.6588 2.8482
-0.5589 -2.6764 2.8482
-1.0051 -2.6050 2.8482
-0.6619 -2.6636 2.8482
-0.7992 -2.6431 2.8482
-0.9364 -2.6187 2.8482
-0.5246 -2.6802 2.8482
-0.4217 -2.6901 2.8482
-0.6276 -2.6681 2.8482
-0.7648 -2.6486 2.8482
-0.9021 -2.6252 2.8482
-0.4903 -2.6837 2.8482
-0.3873 -2.6929 2.8482
-0.5932 -2.6724 2.8482
-0.7305 -2.6539 2.8482
-0.8678 -2.6314 2.8482
-0.4560 -2.6870 2.8482
-0.3530 -2.6955 2.8482
-0.2844 -2.6999 2.8482
-0.1471 -2.7059 2.8482
-0.0099 -2.7081 2.8482
0.1273 -2.7065 2.8482
-0.3187 -2.6978 2.8482
-0.2501 -2.7018 2.8482
-0.1128 -2.7068 2.8482
0.0244 -2.7081 2.8482
0.1617 -2.7055 2.8482
0.2646 -2.7011 2.8482
-0.2158 -2.7034 2.8482
-0.0785 -2.7075 2.8482
0.0587 -2.7078 2.8482
0.1960 -2.7042 2.8482
0.2989 -2.6991 2.8482
-0.1815 -2.7048 2.8482
0.0930 -2.7073 2.8482
0.3332 -2.6969 2.8482
0.2303 -2.7028 2.8482
-0.0442 -2.7079 2.8482
0.4018 -2.6918 2.8482
0.3675 -2.6944 2.8482
0.8137 -2.6407 2.8482
0.6764 -2.6616 2.8482
0.5391 -2.6786 2.8482
0.4362 -2.6888 2.8482
0.9510 -2.6159 2.8482
0.8480 -2.6349 2.8482
0.5734 -2.6747 2.8482
0.7107 -2.6568 2.8482
0.4705 -2.6857 2.8482
0.9853 -2.6091 2.8482
0.8823 -2.6288 2.8482
0.7450 -2.6517 2.8482
0.6077 -2.6706 2.8482
0.5048 -2.6823 2.8482
1.0196 -2.6020 2.8482
0.9166 -2.6225 2.8482
0.7793 -2.6463 2.8482
0.6421 -2.6662 2.8482
1.0883 -2.5871 2.8482
1.0539 -2.5947 2.8482
1.2256 -2.5543 2.8482
1.3629 -2.5174 2.8482
1.5002 -2.4763 2.8482
1.1226 -2.5793 2.8482
1.6375 -2.4311 2.8482
1.2599 -2.5454 2.8482
1.3972 -2.5075 2.8482
1.5345 -2.4654 2.8482
1.1569 -2.5712 2.8482
1.6718 -2.4191 2.8482
1.2942 -2.5363 2.8482
1.4315 -2.4974 2.8482
1.5688 -2.4542 2.8482
1.1912 -2.5629 2.8482
1.7061 -2.4069 2.8482
1.4659 -2.4870 2.8482
1.6032 -2.4428 2.8482
1.3286 -2.5270 2.8482
1.7747 -2.3816 2.8482
1.7404 -2.3944 2.8482
1.9119 -2.3277 2.8482
2.0491 -2.2693 2.8482
2.1861 -2.2064 2.8482
1.8090 -2.3685 2.8482
2.3231 -2.1389 2.8482
1.9462 -2.3135 2.8482
2.0834 -2.2540 2.8482
2.2204 -2.1900 2.8482
1.8433 -2.3552 2.8482
2.3573 -2.1212 2.8482
1.9805 -2.2990 2.8482
2.1176 -2.2384 2.8482
2.2546 -2.1732 2.8482
1.8776 -2.3416 2.8482
2.0148 -2.2843 2.8482
2.3915 -2.1033 2.8482
2.2888 -2.1562 2.8482
2.1519 -2.2226 2.8482
2.4598 -2.0665 2.8482
2.5964 -1.9893 2.8482
2.4257 -2.0851 2.8482
2.7327 -1.9070 2.8482
2.4940 -2.0477 2.8482
2.8688 -1.8196 2.8482
2.6305 -1.9692 2.8482
2.5281 -2.0285 2.8482
2.7668 -1.8857 2.8482
2.9027 -1.7970 2.8482
2.6646 -1.9488 2.8482
2.5623 -2.0091 2.8482
2.6987 -1.9281 2.8482
2.8008 -1.8640 2.8482
2.9367 -1.7740 2.8482
3.0044 -1.7270 2.8482
2.9706 -1.7506 2.8482
2.8348 -1.8420 2.8482
3.0383 -1.7029 2.8482
3.0721 -1.6786 2.8482
3.1059 -1.6539 2.8482
