ply
format ascii 1.0
element vertex 2076
property float32 x
property float32 y
property float32 z
end_header
-25.9407 -8.0777 -2.5567
-24.5627 -8.1659 -2.2947
-24.6173 -7.9240 -2.3630
-25.0001 -8.5770 -2.2715
-25.3635 -8.9730 -2.2395
-25.1367 -9.4362 -2.0908
-24.3590 -9.4104 -1.9638
-24.6070 -8.9704 -2.1097
-24.9137 -9.8990 -1.9448
-24.8157 -10.4127 -1.8102
-24.0009 -9.8025 -1.8122
-24.7520 -10.6650 -1.7421
-24.5663 -10.8643 -1.6661
-39.5911 -18.4207 -2.4819
-24.3817 -11.0622 -1.5911
-37.9863 -18.1174 -2.2836
-38.2476 -19.6070 -2.0032
-39.1428 -19.1302 -2.2523
-38.4689 -20.1872 -1.9151
-38.3118 -19.1797 -2.1056
-38.0067 -21.3572 -1.5950
-38.7056 -20.7858 -1.8263
-38.2992 -21.0420 -1.7074
-34.6778 -33.7294 1.1939
-31.9976 -31.7305 1.2035
-29.6403 -29.9670 1.2103
-27.5756 -28.4247 1.2159
-25.7233 -27.0344 1.2192
-24.0967 -25.8213 1.2228
-22.6233 -24.7185 1.2248
-21.2946 -23.7248 1.2261
-20.0908 -22.8252 1.2269
-18.9863 -21.9974 1.2268
-17.9798 -21.2449 1.2265
-17.0482 -20.5457 1.2252
-16.1895 -19.9015 1.2237
-15.3949 -19.3053 1.2219
-14.6752 -18.7747 1.2212
-13.8885 -18.1292 1.2102
-13.1554 -17.5233 1.1988
-12.5663 -17.0829 1.1963
-12.1272 -16.8272 1.2048
-11.7290 -16.6140 1.2150
-11.4225 -16.5198 1.2326
-11.1234 -16.4279 1.2495
-10.8470 -16.3617 1.2675
-10.5927 -16.3223 1.2868
-10.3427 -16.2836 1.3055
-10.1051 -16.2589 1.3245
-9.8850 -16.2576 1.3449
-9.6674 -16.2563 1.3647
-9.4524 -16.2550 1.3840
-9.2573 -16.2848 1.4054
-9.0664 -16.3195 1.4268
-8.8767 -16.3539 1.4477
-8.6921 -16.3957 1.4688
-7.9163 -16.8885 1.5953
-7.7781 -17.0276 1.6236
-7.6387 -17.1678 1.6518
-7.5057 -17.3264 1.6816
-7.3737 -17.4921 1.7119
-7.2402 -17.6598 1.7422
-7.1008 -17.8184 1.7715
-6.9598 -17.9782 1.8006
-6.8178 -18.1411 1.8299
-6.6808 -18.3239 1.8610
-6.5420 -18.5092 1.8922
-6.4013 -18.6969 1.9234
-6.2587 -18.8873 1.9548
-6.1140 -19.0803 1.9862
-5.9672 -19.2762 2.0177
-8.5320 -16.4828 1.4936
-5.8183 -19.4750 2.0494
-5.6671 -19.6767 2.0811
-5.5136 -19.8816 2.1130
-5.3576 -20.0896 2.1450
-5.1992 -20.3010 2.1772
-5.0367 -20.5101 2.2089
-4.8730 -20.7282 2.2414
-4.7066 -20.9500 2.2740
-8.3717 -16.5699 1.5182
-4.4777 -20.8979 2.2766
-4.2380 -20.7832 2.2719
-4.0023 -20.6725 2.2671
-8.2113 -16.6570 1.5424
-3.7703 -20.5656 2.2623
-3.5419 -20.4624 2.2574
-8.0535 -16.7504 1.5669
-3.3169 -20.3627 2.2525
-3.0951 -20.2672 2.2476
-2.8970 -20.3194 2.2587
-2.7204 -20.5383 2.2880
-2.5404 -20.7613 2.3176
-1.6781 -20.4131 2.2934
-1.4709 -20.3701 2.2913
-2.3381 -20.8213 2.3286
-1.2584 -20.2228 2.2771
-1.0491 -20.0757 2.2626
-0.8418 -19.9023 2.2447
-2.1203 -20.7371 2.3231
-0.6375 -19.7099 2.2243
-0.4382 -19.5677 2.2092
-0.2429 -19.5106 2.2033
-1.9023 -20.6282 2.3144
-25.4958 -8.3878 -1.0994
-24.5448 -8.3364 -0.9918
-24.8194 -8.9640 -0.8681
-24.6809 -8.6474 -0.9304
-24.5513 -9.1342 -0.7919
-24.4390 -9.9020 -0.5876
-24.7118 -10.2896 -0.5262
-24.9592 -9.5595 -0.7369
-24.5321 -10.4923 -0.4547
-24.3537 -10.6937 -0.3839
-24.8107 -9.7765 -0.6646
-38.7933 -19.3072 -0.0684
-38.5238 -19.6377 0.0414
-38.4339 -20.0601 0.1509
-38.8535 -18.8733 -0.1782
-38.1507 -20.3819 0.2592
-37.9057 -32.1536 2.8640
-36.2305 -31.3437 2.8640
-33.2372 -29.9052 2.8640
-34.6789 -30.5966 2.8640
-31.8935 -29.2636 2.8640
-26.8487 -26.1222 2.7116
-30.6045 -28.6354 2.8608
-25.8647 -25.6613 2.7116
-28.0200 -26.7344 2.7238
-24.9369 -25.2290 2.7116
-23.2303 -24.4405 2.7116
-24.0602 -24.8228 2.7116
-22.4433 -24.0802 2.7116
-19.9786 -22.7407 2.6678
-21.6957 -23.7400 2.7116
-18.8779 -21.9177 2.6037
-20.9845 -23.4185 2.7116
-17.8701 -21.1643 2.5447
-13.0439 -17.4393 2.2337
-16.0789 -19.8200 2.4378
-16.9380 -20.4648 2.4892
-12.4601 -17.0057 2.1983
-12.0442 -16.7827 2.1888
-15.2841 -19.2237 2.3899
-11.3538 -16.4987 2.1883
-11.6621 -16.5934 2.1828
-14.5633 -18.6917 2.3479
-10.2750 -16.2731 2.2246
-11.0530 -16.4062 2.1934
-13.7658 -18.0315 2.2876
-10.0421 -16.2585 2.2381
-10.7829 -16.3518 2.2030
-9.8201 -16.2572 2.2529
-9.3876 -16.2611 2.2822
-10.5268 -16.3121 2.2141
-9.6007 -16.2559 2.2673
-7.9963 -16.8080 2.4621
-9.1936 -16.2964 2.3010
-8.6331 -16.4278 2.3590
-7.8570 -16.9482 2.4940
-7.7165 -17.0896 2.5260
-7.5770 -17.2368 2.5586
-9.0009 -16.3314 2.3194
-8.4709 -16.5159 2.3841
-7.3459 -17.1740 2.5597
-8.8093 -16.3662 2.3374
-7.1045 -17.0791 2.5557
-8.3086 -16.6041 2.4090
-6.8683 -16.9874 2.5517
-8.1461 -16.6924 2.4337
-6.4100 -16.8130 2.5439
-6.6368 -16.8988 2.5478
-5.6145 -16.7054 2.5605
-6.1875 -16.7300 2.5400
-4.9816 -17.0568 2.6434
-4.7773 -16.9882 2.6394
-5.4820 -16.8683 2.5931
-5.9692 -16.6496 2.5361
-4.5752 -16.9188 2.6348
-5.3476 -17.0335 2.6259
-5.7556 -16.5740 2.5326
-4.3622 -16.7982 2.6220
-5.1884 -17.1251 2.6471
-4.1797 -16.7862 2.6259
-3.4191 -16.5386 2.6071
-2.6879 -16.2780 2.5820
-3.2333 -16.4731 2.6012
-3.9861 -16.7229 2.6214
-3.0498 -16.4096 2.5953
-2.5091 -16.2078 2.5743
-3.7950 -16.6615 2.6169
-2.8686 -16.3479 2.5894
-2.3313 -16.1314 2.5653
-1.9785 -15.9515 2.5423
-3.6065 -16.6020 2.6125
-2.1549 -16.0494 2.5552
-1.8013 -15.8251 2.5246
-1.3054 -15.6663 2.5053
-1.6328 -15.7546 2.5156
-1.4684 -15.7098 2.5105
-1.1435 -15.6240 2.5001
-0.9828 -15.5830 2.4950
-0.8232 -15.5430 2.4897
-0.6647 -15.5043 2.4845
-0.5070 -15.4667 2.4792
-0.3502 -15.4301 2.4739
-0.1943 -15.3947 2.4686
-17.9204 -4.1639 -0.3319
-24.8776 -8.9047 0.3865
-24.8389 -9.1618 0.4579
-24.6856 -9.6498 0.5992
-24.5067 -9.8534 0.6669
-32.5090 -14.9315 1.3701
-38.5511 -19.5467 2.0983
-42.4522 -23.0994 2.7116
-40.4281 -22.5089 2.7116
-40.7416 -23.2041 2.8640
-38.9399 -22.6814 2.8640
-37.2769 -22.2004 2.8640
-35.7367 -21.7563 2.8640
-34.3058 -21.3452 2.8640
-32.9728 -20.9634 2.8640
-31.7276 -20.6081 2.8640
-30.5615 -20.2767 2.8640
-29.4671 -19.9668 2.8640
-28.4376 -19.6764 2.8640
-27.4671 -19.4039 2.8640
-26.5505 -19.1477 2.8640
-25.6833 -18.9063 2.8640
-24.8615 -18.6787 2.8640
-24.0811 -18.4636 2.8640
-23.3392 -18.2601 2.8640
-22.6326 -18.0674 2.8640
-21.9589 -17.8846 2.8640
-21.3156 -17.7110 2.8640
-20.7004 -17.5459 2.8640
-20.1115 -17.3889 2.8640
-19.5471 -17.2393 2.8640
-19.0055 -17.0967 2.8640
-18.4853 -16.9606 2.8640
-17.9850 -16.8306 2.8640
-17.5035 -16.7064 2.8640
-17.0395 -16.5875 2.8640
-16.5921 -16.4737 2.8640
-16.1602 -16.3646 2.8640
-15.7429 -16.2602 2.8640
-15.3395 -16.1599 2.8640
-14.9490 -16.0637 2.8640
-14.5709 -15.9714 2.8640
-14.2043 -15.8826 2.8640
-13.8488 -15.7973 2.8640
-12.4085 -15.0342 2.7672
-11.9248 -14.7441 2.7266
-13.5037 -15.7152 2.8640
-11.5671 -14.5962 2.7116
-13.0441 -15.4886 2.8369
-11.2826 -14.5319 2.7116
-11.0050 -14.4693 2.7115
-9.9690 -14.2526 2.7134
-9.7545 -14.2467 2.7222
-10.7324 -14.4064 2.7109
-9.5532 -14.2562 2.7336
-9.3604 -14.2752 2.7466
-10.4643 -14.3428 2.7097
-9.1721 -14.2978 2.7601
-10.2006 -14.2783 2.7081
-8.9860 -14.3213 2.7735
-8.4560 -14.4222 2.8185
-8.8042 -14.3487 2.7875
-8.6280 -14.3831 2.8026
-8.2834 -14.4585 2.8336
-7.6086 -14.2605 2.8172
-8.0547 -14.3925 2.8284
-7.3985 -14.2091 2.8140
-7.8300 -14.3268 2.8230
-7.1923 -14.1591 2.8109
-6.9887 -14.1085 2.8074
-6.7886 -14.0589 2.8039
-6.0215 -13.8735 2.7902
-6.5920 -14.0107 2.8004
-5.8371 -13.8296 2.7867
-6.3987 -13.9638 2.7970
-5.6556 -13.7869 2.7832
-5.4768 -13.7453 2.7798
-6.2087 -13.9183 2.7936
-5.3007 -13.7049 2.7764
-5.1273 -13.6663 2.7732
-4.6209 -13.5554 2.7636
-4.9563 -13.6283 2.7700
-4.4565 -13.5204 2.7604
-4.7875 -13.5914 2.7668
-4.2941 -13.4863 2.7573
-3.9753 -13.4217 2.7512
-3.8186 -13.3905 2.7482
-4.1338 -13.4536 2.7543
-3.6635 -13.3602 2.7452
-3.3584 -13.3018 2.7393
-3.5102 -13.3306 2.7422
-2.7654 -13.1939 2.7275
-3.2080 -13.2737 2.7363
-2.6204 -13.1687 2.7245
-3.0591 -13.2464 2.7333
-2.4766 -13.1442 2.7216
-2.9116 -13.2198 2.7304
-2.3339 -13.1203 2.7187
-2.1923 -13.0970 2.7158
-0.7549 -6.0040 1.2479
-0.6913 -5.9918 1.2460
-2.0503 -13.0649 2.7109
-0.6282 -5.9799 1.2441
-0.8833 -6.0294 1.2519
-0.5655 -5.9683 1.2422
-0.5031 -5.9571 1.2403
-0.8189 -6.0165 1.2499
-0.4411 -5.9461 1.2384
-0.2570 -5.9151 1.2328
-0.3795 -5.9355 1.2365
-0.3181 -5.9251 1.2347
-0.1962 -5.9053 1.2310
-0.1356 -5.8959 1.2291
-0.0753 -5.8867 1.2273
-45.4844 -15.6440 2.8640
-43.3714 -15.3881 2.8640
-41.4348 -15.1542 2.8640
-24.8599 -9.3661 1.7955
-38.0080 -14.7418 2.8640
-36.4843 -14.5593 2.8640
-33.2024 -13.6244 2.7116
-31.9534 -13.4756 2.7116
-30.7868 -13.3371 2.7116
-29.6942 -13.2077 2.7116
-28.6686 -13.0868 2.7116
-27.7039 -12.9734 2.7116
-27.3588 -13.1378 2.7687
-27.3937 -13.4843 2.8640
-26.5357 -13.3846 2.8640
-25.7226 -13.2904 2.8640
-24.9508 -13.2015 2.8640
-24.2171 -13.1173 2.8640
-23.5185 -13.0375 2.8640
-22.8525 -12.9617 2.8640
-22.2167 -12.8897 2.8640
-21.6090 -12.8213 2.8640
-21.0273 -12.7561 2.8640
-20.4701 -12.6939 2.8640
-19.9356 -12.6347 2.8640
-19.4223 -12.5780 2.8640
-18.9290 -12.5239 2.8640
-18.4543 -12.4721 2.8640
-17.9972 -12.4226 2.8640
-17.5565 -12.3751 2.8640
-17.1314 -12.3295 2.8640
-16.7209 -12.2858 2.8640
-16.3242 -12.2439 2.8640
-15.9405 -12.2036 2.8640
-15.5691 -12.1648 2.8640
-15.2094 -12.1276 2.8640
-14.8607 -12.0917 2.8640
-14.5212 -12.0562 2.8637
-14.1912 -12.0214 2.8634
-13.8707 -11.9879 2.8630
-13.5593 -11.9556 2.8627
-13.2565 -11.9245 2.8624
-12.9627 -11.8951 2.8622
-12.6767 -11.8668 2.8621
-12.3981 -11.8395 2.8620
-12.1266 -11.8131 2.8619
-11.8617 -11.7876 2.8617
-11.6033 -11.7629 2.8616
-11.3510 -11.7391 2.8615
-11.1018 -11.7131 2.8607
-10.8537 -11.6829 2.8587
-10.6091 -11.6510 2.8561
-10.3677 -11.6172 2.8528
-10.1298 -11.5819 2.8490
-9.8932 -11.5429 2.8441
-9.6717 -11.5161 2.8421
-9.4606 -11.4971 2.8418
-9.2538 -11.4787 2.8415
-9.0509 -11.4608 2.8413
-8.8518 -11.4435 2.8410
-8.6564 -11.4267 2.8408
-8.4645 -11.4103 2.8405
-8.2760 -11.3945 2.8403
-8.0908 -11.3791 2.8401
-7.9088 -11.3642 2.8398
-7.7297 -11.3497 2.8396
-7.5535 -11.3357 2.8394
-7.3802 -11.3221 2.8392
-7.2095 -11.3088 2.8390
-7.0413 -11.2959 2.8387
-6.8757 -11.2834 2.8385
-6.7125 -11.2713 2.8383
-6.5516 -11.2595 2.8381
-6.3929 -11.2481 2.8379
-6.2363 -11.2369 2.8377
-6.0818 -11.2262 2.8375
-5.9293 -11.2157 2.8373
-5.7787 -11.2056 2.8371
-5.6300 -11.1957 2.8369
-5.4830 -11.1861 2.8367
-5.3377 -11.1769 2.8365
-5.1941 -11.1679 2.8363
-5.0520 -11.1592 2.8361
-4.9115 -11.1507 2.8359
-4.7724 -11.1425 2.8357
-4.6347 -11.1346 2.8355
-4.4985 -11.1269 2.8353
-4.3635 -11.1195 2.8352
-4.2284 -11.1088 2.8341
-4.0932 -11.0944 2.8320
-3.9593 -11.0802 2.8300
-3.8267 -11.0664 2.8279
-3.6945 -11.0501 2.8252
-3.5632 -11.0333 2.8223
-3.4336 -11.0179 2.8196
-3.3054 -11.0035 2.8172
-3.1782 -10.9893 2.8148
-3.0521 -10.9754 2.8124
-2.9268 -10.9606 2.8097
-2.8023 -10.9457 2.8070
-2.3140 -10.8889 2.7962
-2.6789 -10.9312 2.8043
-0.9843 -4.8789 1.2532
-2.5564 -10.9168 2.8016
-0.9305 -4.8711 1.2516
-0.8771 -4.8635 1.2500
-2.4348 -10.9027 2.7989
-0.8241 -4.8561 1.2484
-0.6153 -4.8274 1.2420
-0.7714 -4.8487 1.2468
-0.7191 -4.8415 1.2452
-0.5638 -4.8205 1.2405
-0.6670 -4.8344 1.2436
-0.5126 -4.8137 1.2389
-0.4110 -4.8004 1.2358
-0.4617 -4.8070 1.2374
-0.3605 -4.7939 1.2343
-0.3102 -4.7875 1.2328
-0.2103 -4.7750 1.2298
-0.2602 -4.7812 1.2313
-0.1606 -4.7689 1.2283
-0.1111 -4.7629 1.2268
-0.0617 -4.7570 1.2253
-40.8967 -7.9867 2.8640
-39.2213 -8.0536 2.8640
-37.6706 -8.1152 2.8640
-36.2310 -8.1723 2.8640
-17.9293 -4.2268 1.4717
-33.6398 -8.2747 2.8640
-32.4690 -8.3208 2.8640
-31.3709 -8.3638 2.8640
-30.3385 -8.4042 2.8640
-29.3661 -8.4421 2.8640
-28.4485 -8.4777 2.8640
-26.1131 -8.0583 2.7116
-25.3350 -8.0883 2.7116
-24.5969 -8.1167 2.7116
-23.8955 -8.1435 2.7116
-23.2282 -8.1689 2.7116
-22.5923 -8.1931 2.7116
-21.9856 -8.2160 2.7116
-21.4060 -8.2378 2.7116
-20.8685 -8.2653 2.7138
-21.4627 -8.7437 2.8640
-20.9252 -8.7636 2.8640
-20.4093 -8.7827 2.8640
-19.9137 -8.8009 2.8640
-19.4370 -8.8183 2.8640
-18.9783 -8.8350 2.8640
-18.5364 -8.8510 2.8640
-18.1102 -8.8664 2.8640
-17.6990 -8.8811 2.8640
-17.3017 -8.8952 2.8640
-16.9178 -8.9088 2.8640
-16.5464 -8.9219 2.8640
-16.1869 -8.9345 2.8640
-15.8379 -8.9462 2.8638
-15.4994 -8.9574 2.8637
-15.1711 -8.9682 2.8635
-14.8525 -8.9786 2.8634
-14.5431 -8.9886 2.8633
-14.2423 -8.9982 2.8631
-13.9500 -9.0076 2.8630
-13.6655 -9.0166 2.8629
-13.3885 -9.0253 2.8627
-13.1188 -9.0337 2.8626
-12.8559 -9.0419 2.8625
-12.5995 -9.0497 2.8624
-12.3479 -9.0561 2.8619
-12.0957 -9.0574 2.8599
-11.8461 -9.0558 2.8570
-11.5991 -9.0513 2.8533
-11.3559 -9.0450 2.8491
-11.1335 -9.0507 2.8488
-10.9159 -9.0563 2.8485
-10.7031 -9.0617 2.8481
-10.4947 -9.0669 2.8478
-10.2906 -9.0719 2.8475
-10.0906 -9.0768 2.8473
-9.8946 -9.0816 2.8470
-9.7025 -9.0862 2.8467
-9.5139 -9.0906 2.8464
-9.3290 -9.0949 2.8461
-9.1474 -9.0991 2.8459
-8.9691 -9.1032 2.8456
-8.7939 -9.1071 2.8454
-8.6218 -9.1109 2.8451
-8.4526 -9.1146 2.8449
-8.2862 -9.1182 2.8446
-8.1225 -9.1217 2.8444
-7.9615 -9.1251 2.8442
-7.8029 -9.1283 2.8439
-7.6468 -9.1315 2.8437
-7.4931 -9.1345 2.8435
-7.3416 -9.1375 2.8432
-7.1924 -9.1404 2.8430
-7.0452 -9.1432 2.8428
-6.9001 -9.1459 2.8426
-6.7570 -9.1485 2.8424
-6.6157 -9.1511 2.8422
-6.4763 -9.1535 2.8420
-6.3387 -9.1559 2.8418
-6.2028 -9.1582 2.8416
-6.0686 -9.1604 2.8414
-5.9360 -9.1626 2.8412
-5.8049 -9.1646 2.8410
-5.6754 -9.1667 2.8408
-5.5473 -9.1686 2.8406
-5.4206 -9.1705 2.8404
-5.2953 -9.1723 2.8402
-5.1713 -9.1741 2.8400
-5.0485 -9.1758 2.8399
-4.9270 -9.1774 2.8397
-4.8066 -9.1790 2.8395
-4.6874 -9.1805 2.8393
-4.5694 -9.1820 2.8391
-4.4524 -9.1834 2.8390
-4.3364 -9.1847 2.8388
-4.2214 -9.1860 2.8386
-4.1074 -9.1873 2.8385
-3.9943 -9.1885 2.8383
-3.8821 -9.1896 2.8381
-3.7707 -9.1907 2.8380
-3.6602 -9.1918 2.8378
-3.5505 -9.1928 2.8376
-3.4416 -9.1937 2.8375
-3.3334 -9.1946 2.8373
-3.2260 -9.1955 2.8372
-3.1193 -9.1963 2.8370
-3.0131 -9.1970 2.8369
-2.9077 -9.1978 2.8367
-2.8028 -9.1985 2.8365
-2.6986 -9.1991 2.8364
-2.5949 -9.1997 2.8362
-2.4917 -9.2002 2.8361
-1.0566 -4.0691 1.2542
-1.0103 -4.0650 1.2528
-0.9644 -4.0609 1.2514
-0.9187 -4.0568 1.2501
-0.8734 -4.0527 1.2487
-0.8283 -4.0486 1.2473
-0.7835 -4.0446 1.2460
-0.7389 -4.0405 1.2446
-0.6946 -4.0364 1.2433
-0.6505 -4.0324 1.2419
-0.6066 -4.0283 1.2406
-0.5630 -4.0243 1.2393
-0.5195 -4.0202 1.2380
-0.4763 -4.0162 1.2367
-0.4332 -4.0121 1.2354
-0.3903 -4.0080 1.2341
-0.3475 -4.0040 1.2328
-0.3050 -3.9999 1.2315
-0.2625 -3.9959 1.2302
-0.2202 -3.9918 1.2289
-0.1781 -3.9878 1.2276
-0.1360 -3.9837 1.2264
-0.0941 -3.9796 1.2251
-0.0523 -3.9755 1.2238
-24.7579 -4.5014 2.8640
-24.1140 -4.6259 2.8640
-23.4990 -4.7443 2.8640
-21.6918 -4.5986 2.7116
-21.1588 -4.7004 2.7116
-17.9131 -4.1621 2.3524
-20.1579 -4.8903 2.7116
-19.6872 -4.9790 2.7116
-19.2347 -5.0639 2.7116
-18.7992 -5.1452 2.7116
-18.3799 -5.2231 2.7116
-17.9756 -5.2978 2.7116
-17.5856 -5.3695 2.7116
-17.2091 -5.4384 2.7116
-17.4008 -5.6862 2.8010
-17.4203 -5.8813 2.8640
-17.0607 -5.9461 2.8640
-16.7124 -6.0085 2.8640
-16.3748 -6.0686 2.8640
-16.0476 -6.1265 2.8640
-15.7300 -6.1824 2.8640
-15.4216 -6.2364 2.8640
-15.1213 -6.2881 2.8638
-14.8294 -6.3382 2.8637
-14.5456 -6.3865 2.8636
-14.2693 -6.4332 2.8634
-14.0003 -6.4784 2.8633
-13.7384 -6.5222 2.8632
-13.4818 -6.5639 2.8628
-13.2226 -6.5995 2.8604
-12.9616 -6.6301 2.8563
-12.7220 -6.6669 2.8555
-12.4899 -6.7034 2.8551
-12.2631 -6.7388 2.8547
-12.0416 -6.7732 2.8544
-11.8249 -6.8065 2.8540
-11.6131 -6.8388 2.8536
-11.4058 -6.8702 2.8533
-11.2030 -6.9007 2.8529
-11.0043 -6.9302 2.8526
-10.8098 -6.9590 2.8523
-10.6191 -6.9868 2.8519
-10.4323 -7.0139 2.8516
-10.2489 -7.0403 2.8513
-10.0691 -7.0659 2.8510
-9.8927 -7.0909 2.8507
-9.7195 -7.1151 2.8504
-9.5495 -7.1387 2.8501
-9.3824 -7.1616 2.8499
-9.2182 -7.1839 2.8496
-9.0569 -7.2056 2.8493
-8.8982 -7.2267 2.8491
-8.7422 -7.2473 2.8488
-8.5887 -7.2673 2.8485
-8.4376 -7.2868 2.8483
-8.2889 -7.3058 2.8480
-8.1425 -7.3243 2.8478
-7.9982 -7.3424 2.8476
-7.8561 -7.3599 2.8473
-7.7161 -7.3770 2.8471
-7.5780 -7.3936 2.8469
-7.4419 -7.4099 2.8467
-7.3077 -7.4257 2.8464
-7.1752 -7.4411 2.8462
-7.0445 -7.4561 2.8460
-6.9155 -7.4707 2.8458
-6.7882 -7.4849 2.8456
-6.6624 -7.4988 2.8454
-6.5382 -7.5123 2.8452
-6.4155 -7.5255 2.8450
-6.2942 -7.5384 2.8448
-6.1744 -7.5509 2.8446
-6.0558 -7.5630 2.8444
-5.9386 -7.5749 2.8442
-5.8227 -7.5865 2.8440
-5.7080 -7.5977 2.8438
-5.5946 -7.6087 2.8436
-5.4823 -7.6194 2.8434
-5.3711 -7.6298 2.8433
-5.2610 -7.6399 2.8431
-5.1520 -7.6497 2.8429
-5.0441 -7.6593 2.8427
-4.9371 -7.6687 2.8426
-4.8311 -7.6778 2.8424
-4.7260 -7.6866 2.8422
-4.6219 -7.6952 2.8421
-4.5186 -7.7036 2.8419
-4.4162 -7.7117 2.8417
-4.3146 -7.7196 2.8416
-4.2139 -7.7273 2.8414
-4.1139 -7.7347 2.8412
-4.0146 -7.7419 2.8411
-3.9161 -7.7490 2.8409
-3.8183 -7.7558 2.8408
-3.7212 -7.7624 2.8406
-3.6248 -7.7688 2.8405
-3.5290 -7.7750 2.8403
-3.4338 -7.7810 2.8402
-3.3392 -7.7868 2.8400
-3.2452 -7.7924 2.8399
-3.1517 -7.7979 2.8397
-3.0588 -7.8031 2.8396
-2.9665 -7.8082 2.8394
-2.8746 -7.8131 2.8393
-2.7832 -7.8178 2.8391
-2.6923 -7.8224 2.8390
-2.6018 -7.8267 2.8389
-2.5118 -7.8309 2.8387
-2.4222 -7.8349 2.8386
-1.0633 -3.5725 1.2936
-1.0215 -3.5698 1.2920
-0.9801 -3.5671 1.2903
-0.9389 -3.5644 1.2888
-0.8980 -3.5617 1.2872
-0.8574 -3.5591 1.2857
-0.8170 -3.5564 1.2842
-0.7768 -3.5538 1.2828
-0.7369 -3.5512 1.2813
-0.6972 -3.5486 1.2799
-0.6577 -3.5460 1.2786
-0.6184 -3.5435 1.2773
-0.5793 -3.5409 1.2760
-0.5404 -3.5384 1.2747
-0.5016 -3.5358 1.2735
-0.4630 -3.5333 1.2722
-0.4246 -3.5308 1.2711
-0.3863 -3.5283 1.2699
-0.3481 -3.5258 1.2688
-0.3101 -3.5233 1.2677
-0.2722 -3.5208 1.2666
-0.2344 -3.5184 1.2656
-0.1967 -3.5159 1.2645
-0.1591 -3.5135 1.2636
-0.1216 -3.5110 1.2626
-0.0841 -3.5086 1.2616
-0.0467 -3.5061 1.2607
-16.7819 -2.8239 2.7116
-16.4573 -2.9337 2.7116
-16.1427 -3.0395 2.7116
-15.8376 -3.1415 2.7116
-15.5415 -3.2400 2.7116
-15.2539 -3.3351 2.7116
-14.9745 -3.4270 2.7116
-14.7029 -3.5158 2.7116
-14.7221 -3.6724 2.7648
-14.9786 -3.8918 2.8640
-14.7138 -3.9767 2.8639
-14.4510 -4.0574 2.8629
-14.1975 -4.1363 2.8624
-13.9503 -4.2127 2.8619
-13.7092 -4.2867 2.8614
-13.4740 -4.3584 2.8610
-13.2444 -4.4280 2.8605
-13.0201 -4.4954 2.8600
-12.8010 -4.5609 2.8596
-12.5868 -4.6244 2.8592
-12.3774 -4.6861 2.8588
-12.1725 -4.7460 2.8584
-11.9721 -4.8042 2.8580
-11.7758 -4.8608 2.8576
-11.5836 -4.9158 2.8572
-11.3953 -4.9692 2.8569
-11.2107 -5.0212 2.8565
-11.0298 -5.0718 2.8561
-10.8524 -5.1210 2.8558
-10.6783 -5.1688 2.8555
-10.5074 -5.2155 2.8551
-10.3397 -5.2608 2.8548
-10.1750 -5.3050 2.8545
-10.0132 -5.3481 2.8542
-9.8543 -5.3900 2.8539
-9.6980 -5.4308 2.8536
-9.5444 -5.4707 2.8533
-9.3933 -5.5094 2.8530
-9.2447 -5.5473 2.8527
-9.0984 -5.5841 2.8524
-8.9545 -5.6201 2.8522
-8.8128 -5.6552 2.8519
-8.6732 -5.6894 2.8516
-8.5357 -5.7227 2.8514
-8.4003 -5.7553 2.8511
-8.2668 -5.7871 2.8509
-8.1352 -5.8181 2.8506
-8.0054 -5.8483 2.8504
-7.8774 -5.8778 2.8502
-7.7512 -5.9067 2.8499
-7.6266 -5.9348 2.8497
-7.5037 -5.9623 2.8495
-7.3824 -5.9891 2.8493
-7.2625 -6.0152 2.8490
-7.1442 -6.0408 2.8488
-7.0273 -6.0658 2.8486
-6.9118 -6.0902 2.8484
-6.7977 -6.1140 2.8482
-6.6849 -6.1372 2.8480
-6.5734 -6.1599 2.8478
-6.4632 -6.1821 2.8476
-6.3541 -6.2037 2.8474
-6.2463 -6.2249 2.8472
-6.1395 -6.2455 2.8470
-6.0339 -6.2657 2.8468
-5.9294 -6.2854 2.8466
-5.8259 -6.3046 2.8464
-5.7235 -6.3233 2.8463
-5.6220 -6.3417 2.8461
-5.5215 -6.3596 2.8459
-5.4220 -6.3771 2.8457
-5.3233 -6.3941 2.8455
-5.2256 -6.4108 2.8454
-5.1287 -6.4270 2.8452
-5.0326 -6.4429 2.8450
-4.9374 -6.4584 2.8449
-4.8430 -6.4735 2.8447
-4.7494 -6.4882 2.8445
-4.6564 -6.5026 2.8444
-4.5643 -6.5166 2.8442
-4.4728 -6.5303 2.8440
-4.3820 -6.5436 2.8439
-4.2919 -6.5566 2.8437
-4.2025 -6.5693 2.8436
-4.1137 -6.5816 2.8434
-4.0255 -6.5936 2.8433
-3.9379 -6.6053 2.8431
-3.8509 -6.6168 2.8430
-3.7644 -6.6279 2.8428
-3.6785 -6.6387 2.8427
-3.5931 -6.6492 2.8425
-3.5083 -6.6594 2.8424
-3.4240 -6.6693 2.8423
-3.3401 -6.6790 2.8421
-3.2567 -6.6884 2.8420
-3.1738 -6.6975 2.8418
-3.0913 -6.7063 2.8417
-3.0092 -6.7149 2.8416
-2.9276 -6.7232 2.8414
-2.8463 -6.7312 2.8413
-2.7655 -6.7390 2.8412
-2.6850 -6.7466 2.8410
-2.6049 -6.7539 2.8409
-2.5251 -6.7609 2.8408
-2.4457 -6.7677 2.8406
-2.3666 -6.7742 2.8405
-2.2878 -6.7806 2.8404
-2.2094 -6.7867 2.8403
-2.1312 -6.7925 2.8401
-1.0794 -3.5737 1.4930
-1.0370 -3.5709 1.4906
-0.9948 -3.5682 1.4882
-0.9530 -3.5654 1.4859
-0.9114 -3.5627 1.4837
-0.8701 -3.5600 1.4816
-0.8291 -3.5573 1.4795
-0.7883 -3.5547 1.4774
-0.7478 -3.5520 1.4754
-0.7075 -3.5494 1.4735
-0.6674 -3.5468 1.4716
-0.6275 -3.5442 1.4698
-0.5878 -3.5416 1.4680
-0.5483 -3.5390 1.4663
-0.5089 -3.5364 1.4646
-0.4698 -3.5339 1.4630
-0.4308 -3.5313 1.4614
-0.3919 -3.5288 1.4599
-0.3532 -3.5262 1.4584
-0.3146 -3.5237 1.4570
-0.2761 -3.5212 1.4556
-0.2378 -3.5187 1.4543
-0.1995 -3.5162 1.4530
-0.1614 -3.5137 1.4518
-0.1233 -3.5112 1.4506
-0.0853 -3.5087 1.4495
-0.0474 -3.5063 1.4484
-13.0410 -2.0160 2.7116
-12.8382 -2.1125 2.7116
-12.8087 -2.2357 2.7478
-13.0049 -2.4006 2.8334
-12.9432 -2.5197 2.8637
-12.7448 -2.6102 2.8632
-12.5506 -2.6981 2.8628
-12.3603 -2.7836 2.8623
-12.1740 -2.8669 2.8619
-11.9913 -2.9478 2.8615
-11.8122 -3.0266 2.8611
-11.6366 -3.1033 2.8607
-11.4643 -3.1780 2.8603
-11.2952 -3.2507 2.8600
-11.1292 -3.3215 2.8596
-10.9662 -3.3906 2.8592
-10.8062 -3.4578 2.8589
-10.6489 -3.5234 2.8585
-10.4943 -3.5874 2.8582
-10.3423 -3.6497 2.8579
-10.1929 -3.7105 2.8575
-10.0460 -3.7698 2.8572
-9.9013 -3.8277 2.8569
-9.7591 -3.8842 2.8566
-9.6190 -3.9393 2.8563
-9.4811 -3.9931 2.8560
-9.3452 -4.0456 2.8557
-9.2114 -4.0969 2.8554
-9.0796 -4.1470 2.8551
-8.9497 -4.1959 2.8549
-8.8216 -4.2437 2.8546
-8.6954 -4.2903 2.8543
-8.5708 -4.3360 2.8541
-8.4480 -4.3805 2.8538
-8.3268 -4.4241 2.8535
-8.2072 -4.4666 2.8533
-8.0892 -4.5083 2.8531
-7.9727 -4.5489 2.8528
-7.8576 -4.5887 2.8526
-7.7440 -4.6276 2.8523
-7.6317 -4.6656 2.8521
-7.5208 -4.7028 2.8519
-7.4113 -4.7391 2.8517
-7.3029 -4.7747 2.8514
-7.1959 -4.8095 2.8512
-7.0900 -4.8435 2.8510
-6.9853 -4.8767 2.8508
-6.8818 -4.9093 2.8506
-6.7793 -4.9411 2.8504
-6.6780 -4.9723 2.8502
-6.5777 -5.0028 2.8500
-6.4784 -5.0326 2.8498
-6.3802 -5.0618 2.8496
-6.2829 -5.0903 2.8494
-6.1865 -5.1182 2.8492
-6.0911 -5.1455 2.8490
-5.9966 -5.1723 2.8488
-5.9030 -5.1984 2.8487
-5.8102 -5.2240 2.8485
-5.7183 -5.2491 2.8483
-5.6271 -5.2735 2.8481
-5.5368 -5.2975 2.8479
-5.4472 -5.3209 2.8478
-5.3584 -5.3439 2.8476
-5.2704 -5.3663 2.8474
-5.1830 -5.3882 2.8473
-5.0964 -5.4097 2.8471
-5.0104 -5.4306 2.8469
-4.9251 -5.4512 2.8468
-4.8404 -5.4712 2.8466
-4.7563 -5.4908 2.8464
-4.6729 -5.5100 2.8463
-4.5901 -5.5288 2.8461
-4.5078 -5.5471 2.8460
-4.4262 -5.5650 2.8458
-4.3450 -5.5825 2.8457
-4.2645 -5.5996 2.8455
-4.1844 -5.6163 2.8454
-4.1049 -5.6326 2.8452
-4.0258 -5.6486 2.8451
-3.9473 -5.6641 2.8449
-3.8692 -5.6793 2.8448
-3.7916 -5.6941 2.8446
-3.7144 -5.7086 2.8445
-3.6377 -5.7227 2.8444
-3.5614 -5.7365 2.8442
-3.4855 -5.7499 2.8441
-3.4101 -5.7630 2.8440
-3.3350 -5.7757 2.8438
-3.2603 -5.7881 2.8437
-3.1859 -5.8002 2.8436
-3.1120 -5.8120 2.8434
-3.0383 -5.8234 2.8433
-2.9651 -5.8346 2.8432
-2.8921 -5.8454 2.8430
-2.8195 -5.8559 2.8429
-2.7472 -5.8662 2.8428
-2.6752 -5.8761 2.8427
-2.6035 -5.8857 2.8425
-2.5320 -5.8951 2.8424
-2.4609 -5.9041 2.8423
-2.3900 -5.9129 2.8422
-2.3194 -5.9214 2.8421
-2.2490 -5.9296 2.8419
-2.1789 -5.9375 2.8418
-2.1090 -5.9452 2.8417
-2.0393 -5.9525 2.8416
-1.9698 -5.9596 2.8415
-1.9006 -5.9665 2.8414
-1.8316 -5.9731 2.8413
-1.0530 -3.5721 1.6973
-1.0102 -3.5693 1.6942
-0.9677 -3.5665 1.6912
-0.9254 -3.5637 1.6882
-0.8835 -3.5610 1.6854
-0.8418 -3.5583 1.6826
-0.8003 -3.5556 1.6799
-0.7591 -3.5529 1.6773
-0.7182 -3.5502 1.6748
-0.6774 -3.5475 1.6724
-0.6369 -3.5449 1.6700
-0.5966 -3.5423 1.6677
-0.5565 -3.5396 1.6655
-0.5165 -3.5370 1.6634
-0.4768 -3.5344 1.6613
-0.4372 -3.5318 1.6593
-0.3977 -3.5293 1.6574
-0.3584 -3.5267 1.6556
-0.3192 -3.5241 1.6538
-0.2802 -3.5216 1.6521
-0.2413 -3.5190 1.6505
-0.2025 -3.5165 1.6489
-0.1637 -3.5140 1.6474
-0.1251 -3.5114 1.6460
-0.0866 -3.5089 1.6446
-0.0481 -3.5064 1.6434
-11.2302 -1.5803 2.8630
-11.0815 -1.6694 2.8626
-10.9353 -1.7563 2.8623
-10.7914 -1.8412 2.8619
-10.6499 -1.9241 2.8616
-10.5105 -2.0050 2.8612
-10.3732 -2.0840 2.8609
-10.2381 -2.1612 2.8605
-10.1049 -2.2366 2.8602
-9.9737 -2.3102 2.8599
-9.8445 -2.3822 2.8595
-9.7170 -2.4525 2.8592
-9.5914 -2.5213 2.8589
-9.4675 -2.5885 2.8586
-9.3453 -2.6542 2.8583
-9.2248 -2.7185 2.8580
-9.1059 -2.7813 2.8578
-8.9885 -2.8428 2.8575
-8.8726 -2.9029 2.8572
-8.7582 -2.9618 2.8569
-8.6453 -3.0193 2.8566
-8.5337 -3.0757 2.8564
-8.4235 -3.1308 2.8561
-8.3147 -3.1847 2.8559
-8.2071 -3.2375 2.8556
-8.1008 -3.2892 2.8554
-7.9957 -3.3398 2.8551
-7.8918 -3.3894 2.8549
-7.7891 -3.4379 2.8546
-7.6875 -3.4854 2.8544
-7.5870 -3.5319 2.8542
-7.4876 -3.5775 2.8540
-7.3892 -3.6221 2.8537
-7.2919 -3.6659 2.8535
-7.1956 -3.7087 2.8533
-7.1002 -3.7506 2.8531
-7.0058 -3.7917 2.8529
-6.9123 -3.8320 2.8527
-6.8198 -3.8714 2.8525
-6.7281 -3.9101 2.8523
-6.6373 -3.9480 2.8521
-6.5473 -3.9851 2.8519
-6.4582 -4.0214 2.8517
-6.3698 -4.0571 2.8515
-6.2822 -4.0920 2.8513
-6.1954 -4.1262 2.8511
-6.1094 -4.1597 2.8509
-6.0241 -4.1926 2.8507
-5.9395 -4.2248 2.8505
-5.8556 -4.2563 2.8504
-5.7724 -4.2873 2.8502
-5.6898 -4.3176 2.8500
-5.6080 -4.3473 2.8498
-5.5267 -4.3764 2.8497
-5.4460 -4.4049 2.8495
-5.3660 -4.4328 2.8493
-5.2866 -4.4602 2.8492
-5.2077 -4.4870 2.8490
-5.1294 -4.5133 2.8488
-5.0517 -4.5390 2.8487
-4.9745 -4.5643 2.8485
-4.8978 -4.5890 2.8484
-4.8216 -4.6132 2.8482
-4.7460 -4.6369 2.8480
-4.6708 -4.6601 2.8479
-4.5962 -4.6828 2.8477
-4.5219 -4.7051 2.8476
-4.4482 -4.7269 2.8474
-4.3749 -4.7483 2.8473
-4.3021 -4.7692 2.8471
-4.2297 -4.7896 2.8470
-4.1576 -4.8097 2.8469
-4.0860 -4.8293 2.8467
-4.0149 -4.8484 2.8466
-3.9441 -4.8672 2.8464
-3.8736 -4.8856 2.8463
-3.8036 -4.9035 2.8462
-3.7339 -4.9211 2.8460
-3.6646 -4.9382 2.8459
-3.5956 -4.9550 2.8458
-3.5270 -4.9714 2.8456
-3.4587 -4.9874 2.8455
-3.3907 -5.0031 2.8454
-3.3230 -5.0183 2.8452
-3.2556 -5.0332 2.8451
-3.1886 -5.0478 2.8450
-3.1218 -5.0620 2.8449
-3.0553 -5.0759 2.8447
-2.9891 -5.0894 2.8446
-2.9231 -5.1026 2.8445
-2.8575 -5.1154 2.8444
-2.7920 -5.1280 2.8443
-2.7269 -5.1402 2.8441
-2.6619 -5.1520 2.8440
-2.5972 -5.1636 2.8439
-2.5328 -5.1748 2.8438
-2.4685 -5.1857 2.8437
-2.4045 -5.1963 2.8436
-2.3406 -5.2066 2.8435
-2.2770 -5.2166 2.8433
-2.2136 -5.2263 2.8432
-2.1504 -5.2357 2.8431
-2.0873 -5.2448 2.8430
-2.0245 -5.2536 2.8429
-1.9618 -5.2621 2.8428
-1.8993 -5.2703 2.8427
-1.8369 -5.2782 2.8426
-1.7747 -5.2859 2.8425
-1.7126 -5.2932 2.8424
-1.6507 -5.3003 2.8423
-1.0699 -3.5733 1.9136
-1.0263 -3.5704 1.9097
-0.9830 -3.5676 1.9059
-0.9400 -3.5648 1.9022
-0.8974 -3.5620 1.8986
-0.8550 -3.5592 1.8951
-0.8128 -3.5565 1.8917
-0.7710 -3.5538 1.8885
-0.7294 -3.5510 1.8853
-0.6880 -3.5483 1.8823
-0.6468 -3.5456 1.8793
-0.6058 -3.5430 1.8765
-0.5651 -3.5403 1.8738
-0.5245 -3.5376 1.8711
-0.4841 -3.5350 1.8686
-0.4439 -3.5324 1.8662
-0.4038 -3.5298 1.8639
-0.3639 -3.5271 1.8616
-0.3241 -3.5245 1.8595
-0.2845 -3.5220 1.8574
-0.2449 -3.5194 1.8555
-0.2055 -3.5168 1.8536
-0.1662 -3.5142 1.8518
-0.1270 -3.5117 1.8502
-0.0879 -3.5091 1.8486
-0.0488 -3.5066 1.8471
-9.4481 -1.1959 2.8612
-9.3395 -1.2746 2.8609
-9.2322 -1.3517 2.8606
-9.1261 -1.4272 2.8603
-9.0213 -1.5012 2.8600
-8.9176 -1.5736 2.8598
-8.8151 -1.6446 2.8595
-8.7137 -1.7141 2.8592
-8.6134 -1.7822 2.8589
-8.5142 -1.8490 2.8587
-8.4161 -1.9144 2.8584
-8.3189 -1.9786 2.8582
-8.2228 -2.0414 2.8579
-8.1276 -2.1030 2.8576
-8.0334 -2.1635 2.8574
-7.9401 -2.2227 2.8572
-7.8478 -2.2808 2.8569
-7.7563 -2.3377 2.8567
-7.6657 -2.3936 2.8564
-7.5760 -2.4483 2.8562
-7.4871 -2.5021 2.8560
-7.3990 -2.5548 2.8558
-7.3117 -2.6064 2.8555
-7.2252 -2.6571 2.8553
-7.1394 -2.7069 2.8551
-7.0544 -2.7557 2.8549
-6.9702 -2.8035 2.8547
-6.8866 -2.8505 2.8545
-6.8038 -2.8966 2.8543
-6.7216 -2.9418 2.8541
-6.6402 -2.9861 2.8539
-6.5593 -3.0296 2.8537
-6.4791 -3.0724 2.8535
-6.3996 -3.1143 2.8533
-6.3207 -3.1554 2.8531
-6.2423 -3.1958 2.8529
-6.1646 -3.2354 2.8527
-6.0875 -3.2743 2.8525
-6.0109 -3.3124 2.8524
-5.9349 -3.3499 2.8522
-5.8594 -3.3866 2.8520
-5.7844 -3.4227 2.8518
-5.7100 -3.4581 2.8517
-5.6361 -3.4928 2.8515
-5.5627 -3.5269 2.8513
-5.4898 -3.5603 2.8512
-5.4173 -3.5932 2.8510
-5.3454 -3.6254 2.8508
-5.2739 -3.6570 2.8507
-5.2028 -3.6880 2.8505
-5.1322 -3.7184 2.8504
-5.0620 -3.7483 2.8502
-4.9923 -3.7776 2.8500
-4.9230 -3.8064 2.8499
-4.8541 -3.8346 2.8497
-4.7856 -3.8623 2.8496
-4.7174 -3.8894 2.8494
-4.6497 -3.9160 2.8493
-4.5824 -3.9422 2.8491
-4.5154 -3.9678 2.8490
-4.4487 -3.9929 2.8488
-4.3825 -4.0176 2.8487
-4.3165 -4.0418 2.8485
-4.2510 -4.0655 2.8484
-4.1857 -4.0887 2.8483
-4.1208 -4.1115 2.8481
-4.0562 -4.1338 2.8480
-3.9919 -4.1557 2.8479
-3.9279 -4.1771 2.8477
-3.8642 -4.1981 2.8476
-3.8008 -4.2187 2.8475
-3.7377 -4.2389 2.8473
-3.6749 -4.2587 2.8472
-3.4263 -4.3337 2.8467
-3.6124 -4.2780 2.8471
-3.3648 -4.3514 2.8466
-3.5501 -4.2970 2.8469
-3.3036 -4.3688 2.8465
-3.4881 -4.3155 2.8468
-3.2426 -4.3858 2.8463
-3.1818 -4.4025 2.8462
-2.9409 -4.4653 2.8457
-3.1212 -4.4187 2.8461
-2.8812 -4.4802 2.8456
-3.0609 -4.4346 2.8460
-2.8218 -4.4947 2.8455
-3.0008 -4.4502 2.8459
-2.7625 -4.5088 2.8454
-2.7034 -4.5226 2.8453
-2.4690 -4.5744 2.8448
-2.6445 -4.5360 2.8452
-2.4108 -4.5866 2.8447
-2.5858 -4.5492 2.8451
-2.3528 -4.5984 2.8446
-2.5273 -4.5620 2.8450
-2.2949 -4.6099 2.8445
-2.2373 -4.6211 2.8444
-2.0080 -4.6627 2.8440
-2.1797 -4.6320 2.8443
-1.9511 -4.6724 2.8439
-2.1224 -4.6425 2.8442
-1.8943 -4.6818 2.8438
-2.0651 -4.6528 2.8441
-1.8375 -4.6908 2.8437
-1.7810 -4.6996 2.8436
-1.5559 -4.7317 2.8432
-1.7245 -4.7080 2.8435
-1.6682 -4.7162 2.8434
-1.4999 -4.7390 2.8431
-1.6120 -4.7241 2.8433
-1.4440 -4.7460 2.8430
-0.9991 -3.5688 2.1317
-1.0432 -3.5717 2.1364
-0.9554 -3.5659 2.1272
-0.8260 -3.5575 2.1144
-0.9120 -3.5631 2.1228
-0.7834 -3.5547 2.1105
-0.8689 -3.5603 2.1186
-0.7411 -3.5519 2.1066
-0.6572 -3.5464 2.0994
-0.6990 -3.5492 2.1030
-0.6155 -3.5437 2.0960
-0.4918 -3.5356 2.0865
-0.5741 -3.5410 2.0927
-0.4509 -3.5329 2.0836
-0.5328 -3.5383 2.0895
-0.4102 -3.5303 2.0808
-0.3292 -3.5250 2.0756
-0.3696 -3.5276 2.0781
-0.2889 -3.5224 2.0731
-0.1688 -3.5145 2.0666
-0.2488 -3.5197 2.0708
-0.1290 -3.5119 2.0646
-0.2088 -3.5171 2.0686
-0.0893 -3.5093 2.0628
-0.0496 -3.5067 2.0611
-8.1279 -0.9112 2.8599
-8.0451 -0.9813 2.8596
-7.9629 -1.0501 2.8594
-7.8813 -1.1177 2.8592
-7.8004 -1.1841 2.8589
-7.7202 -1.2493 2.8587
-7.6405 -1.3133 2.8585
-7.5615 -1.3761 2.8582
-7.4830 -1.4379 2.8580
-7.4051 -1.4985 2.8578
-7.3278 -1.5580 2.8575
-7.2511 -1.6165 2.8573
-7.1749 -1.6740 2.8571
-7.0992 -1.7305 2.8569
-7.0242 -1.7859 2.8567
-6.9496 -1.8404 2.8565
-6.8755 -1.8939 2.8563
-6.8020 -1.9465 2.8561
-6.7289 -1.9982 2.8559
-6.6563 -2.0490 2.8557
-6.5842 -2.0989 2.8555
-6.5126 -2.1479 2.8553
-6.4415 -2.1960 2.8551
-6.3708 -2.2434 2.8549
-6.3005 -2.2899 2.8547
-6.2307 -2.3356 2.8545
-6.1614 -2.3805 2.8543
-6.0924 -2.4247 2.8542
-6.0239 -2.4680 2.8540
-5.9558 -2.5107 2.8538
-5.8881 -2.5526 2.8536
-5.8208 -2.5937 2.8535
-5.7538 -2.6342 2.8533
-5.6873 -2.6740 2.8531
-5.6211 -2.7130 2.8529
-5.5554 -2.7514 2.8528
-5.4899 -2.7892 2.8526
-5.4249 -2.8263 2.8525
-5.3602 -2.8627 2.8523
-5.2958 -2.8985 2.8521
-5.2318 -2.9337 2.8520
-5.1681 -2.9683 2.8518
-5.1047 -3.0023 2.8517
-5.0417 -3.0357 2.8515
-4.9790 -3.0685 2.8514
-4.9166 -3.1007 2.8512
-4.8545 -3.1324 2.8511
-4.7927 -3.1635 2.8509
-4.7312 -3.1941 2.8508
-4.6700 -3.2241 2.8506
-4.6090 -3.2536 2.8505
-4.5484 -3.2826 2.8503
-4.4880 -3.3110 2.8502
-4.4279 -3.3390 2.8500
-4.3681 -3.3664 2.8499
-4.3085 -3.3934 2.8498
-4.2492 -3.4199 2.8496
-4.1902 -3.4459 2.8495
-4.1314 -3.4714 2.8494
-4.0728 -3.4964 2.8492
-4.0145 -3.5210 2.8491
-3.9564 -3.5452 2.8490
-3.8986 -3.5689 2.8488
-3.8409 -3.5921 2.8487
-3.7835 -3.6149 2.8486
-3.7263 -3.6373 2.8485
-3.6694 -3.6593 2.8483
-3.6126 -3.6808 2.8482
-3.5560 -3.7020 2.8481
-3.4997 -3.7227 2.8480
-3.4435 -3.7430 2.8478
-3.3876 -3.7629 2.8477
-3.3318 -3.7825 2.8476
-3.2762 -3.8016 2.8475
-3.2208 -3.8203 2.8474
-3.1656 -3.8387 2.8473
-3.1106 -3.8567 2.8471
-3.0557 -3.8743 2.8470
-3.0010 -3.8916 2.8469
-2.9464 -3.9085 2.8468
-2.8921 -3.9250 2.8467
-2.8379 -3.9412 2.8466
-2.7838 -3.9570 2.8465
-2.7299 -3.9724 2.8464
-2.6761 -3.9875 2.8463
-2.6225 -4.0023 2.8462
-2.5691 -4.0168 2.8461
-2.5158 -4.0309 2.8459
-2.4626 -4.0446 2.8458
-2.4095 -4.0581 2.8457
-2.3566 -4.0712 2.8456
-2.3038 -4.0840 2.8455
-2.2511 -4.0964 2.8454
-2.1985 -4.1086 2.8453
-2.1461 -4.1204 2.8452
-2.0937 -4.1320 2.8451
-2.0415 -4.1432 2.8450
-1.9894 -4.1541 2.8449
-1.9374 -4.1647 2.8448
-1.8855 -4.1750 2.8448
-1.8337 -4.1850 2.8447
-1.7820 -4.1946 2.8446
-1.7304 -4.2040 2.8445
-1.6789 -4.2131 2.8444
-1.6275 -4.2219 2.8443
-1.5761 -4.2305 2.8442
-1.5249 -4.2387 2.8441
-1.4737 -4.2466 2.8440
-1.4226 -4.2543 2.8439
-1.3716 -4.2616 2.8438
-1.3206 -4.2687 2.8438
-1.0611 -3.5730 2.3764
-1.0162 -3.5700 2.3707
-0.9717 -3.5671 2.3653
-0.9275 -3.5642 2.3600
-0.8836 -3.5614 2.3549
-0.8400 -3.5585 2.3500
-0.7966 -3.5557 2.3453
-0.7535 -3.5528 2.3407
-0.7107 -3.5501 2.3363
-0.6681 -3.5473 2.3321
-0.6258 -3.5445 2.3280
-0.5836 -3.5417 2.3241
-0.5417 -3.5390 2.3203
-0.4999 -3.5363 2.3167
-0.4583 -3.5336 2.3133
-0.4169 -3.5308 2.3100
-0.3757 -3.5281 2.3069
-0.3346 -3.5255 2.3039
-0.2937 -3.5228 2.3011
-0.2529 -3.5201 2.2984
-0.2122 -3.5175 2.2958
-0.1716 -3.5148 2.2935
-0.1311 -3.5122 2.2912
-0.0907 -3.5095 2.2891
-0.0504 -3.5069 2.2871
-7.1068 -0.6910 2.8589
-7.0415 -0.7539 2.8587
-6.9765 -0.8158 2.8585
-6.9119 -0.8767 2.8582
-6.8475 -0.9366 2.8580
-6.7835 -0.9956 2.8578
-6.7198 -1.0536 2.8576
-6.6563 -1.1106 2.8574
-6.5932 -1.1668 2.8572
-6.5304 -1.2221 2.8571
-6.4678 -1.2764 2.8569
-6.4056 -1.3299 2.8567
-6.3436 -1.3825 2.8565
-6.2820 -1.4343 2.8563
-6.2206 -1.4853 2.8561
-6.1594 -1.5355 2.8559
-6.0986 -1.5848 2.8558
-6.0380 -1.6334 2.8556
-5.9777 -1.6812 2.8554
-5.9177 -1.7282 2.8552
-5.8579 -1.7745 2.8551
-5.7984 -1.8200 2.8549
-5.7391 -1.8648 2.8547
-5.6801 -1.9089 2.8546
-5.6213 -1.9523 2.8544
-5.5628 -1.9950 2.8542
-5.5045 -2.0370 2.8541
-5.4465 -2.0784 2.8539
-5.3887 -2.1191 2.8537
-5.3312 -2.1591 2.8536
-5.2738 -2.1985 2.8534
-5.2167 -2.2373 2.8533
-5.1599 -2.2754 2.8531
-5.1032 -2.3129 2.8530
-5.0468 -2.3498 2.8528
-4.9906 -2.3862 2.8527
-4.9346 -2.4219 2.8525
-4.8788 -2.4571 2.8524
-4.8232 -2.4917 2.8522
-4.7679 -2.5257 2.8521
-4.7127 -2.5591 2.8519
-4.6578 -2.5921 2.8518
-4.6030 -2.6245 2.8517
-4.5484 -2.6563 2.8515
-4.4941 -2.6877 2.8514
-4.4399 -2.7185 2.8512
-4.3859 -2.7488 2.8511
-4.3321 -2.7786 2.8510
-4.2784 -2.8079 2.8508
-4.2250 -2.8367 2.8507
-4.1717 -2.8650 2.8506
-4.1187 -2.8929 2.8504
-4.0657 -2.9203 2.8503
-4.0130 -2.9472 2.8502
-3.9604 -2.9737 2.8501
-3.9080 -2.9997 2.8499
-3.8557 -3.0252 2.8498
-3.8036 -3.0503 2.8497
-3.7517 -3.0750 2.8496
-3.6999 -3.0993 2.8494
-3.6483 -3.1231 2.8493
-3.5968 -3.1465 2.8492
-3.5455 -3.1695 2.8491
-3.4943 -3.1920 2.8490
-3.4433 -3.2142 2.8488
-3.3924 -3.2360 2.8487
-3.3417 -3.2573 2.8486
-3.2910 -3.2783 2.8485
-3.2406 -3.2989 2.8484
-3.1902 -3.3191 2.8483
-3.1400 -3.3389 2.8482
-3.0899 -3.3583 2.8481
-3.0399 -3.3774 2.8480
-2.9901 -3.3961 2.8478
-2.9404 -3.4144 2.8477
-2.8908 -3.4324 2.8476
-2.8413 -3.4500 2.8475
-2.7919 -3.4672 2.8474
-2.7427 -3.4841 2.8473
-2.6935 -3.5007 2.8472
-2.6445 -3.5169 2.8471
-2.5956 -3.5328 2.8470
-2.5467 -3.5483 2.8469
-2.4980 -3.5635 2.8468
-2.4494 -3.5784 2.8467
-2.4009 -3.5929 2.8466
-2.3524 -3.6071 2.8465
-2.3041 -3.6210 2.8464
-2.2559 -3.6345 2.8463
-2.2077 -3.6478 2.8462
-2.1597 -3.6607 2.8461
-2.1117 -3.6733 2.8460
-2.0638 -3.6856 2.8459
-2.0160 -3.6976 2.8459
-1.9683 -3.7093 2.8458
-1.9206 -3.7207 2.8457
-1.8730 -3.7317 2.8456
-1.8255 -3.7425 2.8455
-1.6835 -3.7731 2.8452
-1.7781 -3.7530 2.8454
-1.6362 -3.7826 2.8451
-1.7307 -3.7632 2.8453
-1.5891 -3.7919 2.8451
-1.4950 -3.8097 2.8449
-1.5420 -3.8010 2.8450
-1.4480 -3.8181 2.8448
-1.4011 -3.8263 2.8447
-1.3074 -3.8418 2.8445
-1.3542 -3.8342 2.8446
-1.2607 -3.8491 2.8445
-1.2140 -3.8561 2.8444
-1.0344 -3.5713 2.6252
-1.1673 -3.8629 2.8443
-0.9890 -3.5684 2.6187
-0.8548 -3.5596 2.6007
-0.9440 -3.5654 2.6125
-0.8106 -3.5567 2.5951
-0.8992 -3.5625 2.6065
-0.7668 -3.5538 2.5897
-0.6798 -3.5482 2.5795
-0.7231 -3.5510 2.5845
-0.6366 -3.5453 2.5747
-0.5085 -3.5370 2.5616
-0.5937 -3.5425 2.5702
-0.4662 -3.5342 2.5576
-0.5510 -3.5397 2.5658
-0.4241 -3.5314 2.5537
-0.3404 -3.5260 2.5466
-0.3822 -3.5287 2.5501
-0.2987 -3.5232 2.5433
-0.2572 -3.5205 2.5403
-0.2158 -3.5178 2.5373
-0.1745 -3.5151 2.5346
-0.1333 -3.5124 2.5320
-0.0922 -3.5097 2.5296
-0.0513 -3.5071 2.5274
-6.2903 -0.5149 2.8580
-6.2376 -0.5717 2.8579
-6.1850 -0.6278 2.8577
-6.1325 -0.6829 2.8575
-6.0801 -0.7373 2.8573
-6.0279 -0.7909 2.8572
-5.9757 -0.8437 2.8570
-5.9237 -0.8958 2.8568
-5.8718 -0.9470 2.8566
-5.8200 -0.9976 2.8565
-5.7684 -1.0474 2.8563
-5.7169 -1.0964 2.8561
-5.6654 -1.1448 2.8560
-5.6141 -1.1924 2.8558
-5.5630 -1.2393 2.8557
-5.5119 -1.2856 2.8555
-5.4610 -1.3311 2.8553
-5.4102 -1.3760 2.8552
-5.3595 -1.4203 2.8550
-5.3090 -1.4639 2.8549
-5.2585 -1.5068 2.8547
-5.2082 -1.5491 2.8546
-5.1580 -1.5908 2.8544
-5.1079 -1.6318 2.8543
-5.0580 -1.6723 2.8541
-5.0081 -1.7122 2.8540
-4.9584 -1.7514 2.8538
-4.9088 -1.7901 2.8537
-4.8593 -1.8282 2.8535
-4.8100 -1.8657 2.8534
-4.7607 -1.9027 2.8533
-4.7116 -1.9391 2.8531
-4.6626 -1.9750 2.8530
-4.6137 -2.0103 2.8528
-4.5649 -2.0451 2.8527
-4.5162 -2.0793 2.8526
-4.4676 -2.1131 2.8524
-4.4192 -2.1463 2.8523
-4.3709 -2.1790 2.8522
-4.3226 -2.2112 2.8520
-4.2745 -2.2429 2.8519
-4.2265 -2.2742 2.8518
-4.1786 -2.3049 2.8516
-4.1308 -2.3352 2.8515
-4.0832 -2.3650 2.8514
-4.0356 -2.3943 2.8513
-3.9881 -2.4232 2.8511
-3.9408 -2.4516 2.8510
-3.8935 -2.4795 2.8509
-3.8464 -2.5070 2.8508
-3.7993 -2.5341 2.8507
-3.7523 -2.5608 2.8505
-3.7055 -2.5869 2.8504
-3.6587 -2.6127 2.8503
-3.6120 -2.6381 2.8502
-3.5655 -2.6630 2.8501
-3.5190 -2.6875 2.8500
-3.4726 -2.7117 2.8498
-3.4264 -2.7354 2.8497
-3.3802 -2.7587 2.8496
-3.3341 -2.7816 2.8495
-3.2881 -2.8041 2.8494
-3.2422 -2.8263 2.8493
-3.1963 -2.8480 2.8492
-3.1506 -2.8694 2.8491
-3.1049 -2.8904 2.8490
-3.0593 -2.9111 2.8489
-3.0139 -2.9313 2.8488
-2.9685 -2.9512 2.8487
-2.9231 -2.9708 2.8486
-2.8779 -2.9899 2.8485
-2.8327 -3.0088 2.8484
-2.7876 -3.0272 2.8483
-2.7426 -3.0453 2.8482
-2.6977 -3.0631 2.8481
-2.6528 -3.0806 2.8480
-2.6080 -3.0977 2.8479
-2.5633 -3.1144 2.8478
-2.5187 -3.1308 2.8477
-2.4741 -3.1469 2.8476
-2.4296 -3.1627 2.8475
-2.3851 -3.1781 2.8474
-2.3408 -3.1933 2.8473
-2.2965 -3.2081 2.8472
-2.2522 -3.2226 2.8471
-2.2080 -3.2367 2.8470
-2.1639 -3.2506 2.8469
-2.1199 -3.2641 2.8468
-2.0759 -3.2773 2.8467
-2.0319 -3.2903 2.8466
-1.9880 -3.3029 2.8466
-1.9442 -3.3152 2.8465
-1.9004 -3.3272 2.8464
-1.8567 -3.3390 2.8463
-1.8130 -3.3504 2.8462
-1.7694 -3.3615 2.8461
-1.7259 -3.3724 2.8460
-1.6823 -3.3829 2.8460
-1.6389 -3.3932 2.8459
-1.5954 -3.4032 2.8458
-1.5521 -3.4128 2.8457
-1.5087 -3.4223 2.8456
-1.4654 -3.4314 2.8456
-1.4222 -3.4402 2.8455
-1.3790 -3.4488 2.8454
-1.3358 -3.4571 2.8453
-1.2927 -3.4651 2.8452
-1.2496 -3.4728 2.8452
-1.2065 -3.4803 2.8451
-1.1635 -3.4875 2.8450
-1.1205 -3.4944 2.8449
-1.0775 -3.5010 2.8449
-1.0346 -3.5074 2.8448
-0.9917 -3.5135 2.8447
-0.9489 -3.5193 2.8446
-0.9060 -3.5249 2.8446
-0.8632 -3.5302 2.8445
-0.8204 -3.5352 2.8444
-0.7776 -3.5400 2.8443
-0.7349 -3.5445 2.8443
-0.6922 -3.5488 2.8442
-0.6495 -3.5528 2.8441
-0.6068 -3.5565 2.8441
-0.5642 -3.5600 2.8440
-0.5215 -3.5632 2.8439
-0.4789 -3.5661 2.8439
-0.4363 -3.5688 2.8438
-0.3937 -3.5712 2.8437
-0.3511 -3.5734 2.8437
-0.3085 -3.5753 2.8436
-0.2660 -3.5770 2.8435
-0.2234 -3.5784 2.8435
-0.1809 -3.5795 2.8434
-0.1383 -3.5804 2.8433
-0.0958 -3.5810 2.8433
-0.0533 -3.5814 2.8432
-5.6199 -0.3703 2.8574
-5.5765 -0.4219 2.8572
-5.5331 -0.4729 2.8571
-5.4897 -0.5231 2.8569
-5.4463 -0.5727 2.8567
-5.4029 -0.6217 2.8566
-5.3595 -0.6699 2.8564
-5.3161 -0.7176 2.8563
-5.2728 -0.7646 2.8561
-5.2294 -0.8109 2.8560
-5.1860 -0.8566 2.8558
-5.1427 -0.9018 2.8557
-5.0994 -0.9463 2.8555
-5.0560 -0.9902 2.8554
-5.0127 -1.0335 2.8553
-4.9695 -1.0762 2.8551
-4.9262 -1.1184 2.8550
-4.8830 -1.1599 2.8548
-4.8398 -1.2009 2.8547
-4.7966 -1.2414 2.8546
-4.7535 -1.2812 2.8544
-4.7104 -1.3206 2.8543
-4.6673 -1.3594 2.8542
-4.6242 -1.3976 2.8540
-4.5812 -1.4353 2.8539
-4.5382 -1.4725 2.8538
-4.4953 -1.5092 2.8536
-4.4524 -1.5454 2.8535
-4.4095 -1.5810 2.8534
-4.3667 -1.6162 2.8532
-4.3239 -1.6509 2.8531
-4.2811 -1.6850 2.8530
-4.2384 -1.7187 2.8529
-4.1957 -1.7519 2.8527
-4.1531 -1.7847 2.8526
-4.1105 -1.8169 2.8525
-4.0679 -1.8487 2.8524
-4.0254 -1.8801 2.8522
-3.9830 -1.9109 2.8521
-3.9405 -1.9414 2.8520
-3.8982 -1.9714 2.8519
-3.8558 -2.0009 2.8518
-3.8136 -2.0300 2.8516
-3.7713 -2.0587 2.8515
-3.7291 -2.0869 2.8514
-3.6870 -2.1148 2.8513
-3.6449 -2.1422 2.8512
-3.6028 -2.1692 2.8511
-3.5608 -2.1958 2.8510
-3.5189 -2.2219 2.8508
-3.4770 -2.2477 2.8507
-3.4351 -2.2731 2.8506
-3.3933 -2.2981 2.8505
-3.3515 -2.3227 2.8504
-3.3098 -2.3469 2.8503
-3.2681 -2.3707 2.8502
-3.2265 -2.3941 2.8501
-3.1849 -2.4172 2.8500
-3.1433 -2.4399 2.8499
-3.1018 -2.4622 2.8498
-3.0604 -2.4842 2.8497
-3.0190 -2.5058 2.8496
-2.9776 -2.5270 2.8495
-2.9363 -2.5479 2.8494
-2.8950 -2.5684 2.8493
-2.8538 -2.5886 2.8492
-2.8126 -2.6084 2.8491
-2.7715 -2.6279 2.8490
-2.7304 -2.6470 2.8489
-2.6893 -2.6658 2.8488
-2.6483 -2.6843 2.8487
-2.6074 -2.7024 2.8486
-2.5664 -2.7203 2.8485
-2.5256 -2.7377 2.8484
-2.4847 -2.7549 2.8483
-2.4439 -2.7717 2.8482
-2.4032 -2.7882 2.8481
-2.3624 -2.8044 2.8481
-2.3218 -2.8203 2.8480
-2.2811 -2.8358 2.8479
-2.2405 -2.8511 2.8478
-2.1999 -2.8660 2.8477
-2.1594 -2.8807 2.8476
-2.1189 -2.8950 2.8475
-2.0785 -2.9090 2.8474
-2.0381 -2.9228 2.8474
-1.9977 -2.9362 2.8473
-1.9573 -2.9493 2.8472
-1.9170 -2.9622 2.8471
-1.8767 -2.9747 2.8470
-1.8365 -2.9870 2.8469
-1.7963 -2.9989 2.8469
-1.7561 -3.0106 2.8468
-1.7159 -3.0220 2.8467
-1.6758 -3.0331 2.8466
-1.6357 -3.0439 2.8465
-1.5956 -3.0545 2.8465
-1.5556 -3.0647 2.8464
-1.5156 -3.0747 2.8463
-1.4756 -3.0844 2.8462
-1.4357 -3.0939 2.8462
-1.3958 -3.1030 2.8461
-1.3559 -3.1119 2.8460
-1.3160 -3.1205 2.8459
-1.2762 -3.1289 2.8459
-1.2363 -3.1370 2.8458
-1.1965 -3.1448 2.8457
-1.1568 -3.1523 2.8456
-1.1170 -3.1596 2.8456
-1.0773 -3.1666 2.8455
-1.0375 -3.1733 2.8454
-0.9979 -3.1798 2.8454
-0.9582 -3.1861 2.8453
-0.9185 -3.1920 2.8452
-0.8789 -3.1977 2.8451
-0.8393 -3.2032 2.8451
-0.7997 -3.2084 2.8450
-0.7601 -3.2133 2.8449
-0.7205 -3.2180 2.8449
-0.6809 -3.2224 2.8448
-0.6414 -3.2265 2.8447
-0.6019 -3.2304 2.8447
-0.5623 -3.2341 2.8446
-0.5228 -3.2375 2.8446
-0.4833 -3.2406 2.8445
-0.4438 -3.2435 2.8444
-0.4044 -3.2461 2.8444
-0.3649 -3.2485 2.8443
-0.3254 -3.2506 2.8442
-0.2860 -3.2525 2.8442
-0.2465 -3.2541 2.8441
-0.2071 -3.2555 2.8441
-0.1677 -3.2566 2.8440
-0.1282 -3.2575 2.8439
-0.0888 -3.2581 2.8439
-0.0494 -3.2585 2.8438
-5.0573 -0.2490 2.8568
-5.0211 -0.2961 2.8567
-4.9848 -0.3426 2.8565
-4.9484 -0.3886 2.8564
-4.9119 -0.4339 2.8563
-4.8754 -0.4788 2.8561
-4.8388 -0.5230 2.8560
-4.8021 -0.5668 2.8558
-4.7653 -0.6100 2.8557
-4.7285 -0.6526 2.8556
-4.6917 -0.6948 2.8554
-4.6548 -0.7364 2.8553
-4.6178 -0.7774 2.8552
-4.5808 -0.8180 2.8551
-4.5437 -0.8580 2.8549
-4.5066 -0.8976 2.8548
-4.4694 -0.9366 2.8547
-4.4322 -0.9751 2.8545
-4.3950 -1.0132 2.8544
-4.3577 -1.0507 2.8543
-4.3204 -1.0878 2.8542
-4.2831 -1.1244 2.8540
-4.2457 -1.1606 2.8539
-4.2083 -1.1962 2.8538
-4.1709 -1.2314 2.8537
-4.1334 -1.2661 2.8536
-4.0960 -1.3004 2.8534
-4.0585 -1.3342 2.8533
-4.0210 -1.3676 2.8532
-3.9835 -1.4005 2.8531
-3.9459 -1.4330 2.8530
-3.9084 -1.4651 2.8529
-3.8708 -1.4967 2.8527
-3.8333 -1.5279 2.8526
-3.7957 -1.5587 2.8525
-3.7581 -1.5890 2.8524
-3.7205 -1.6189 2.8523
-3.6829 -1.6485 2.8522
-3.6453 -1.6776 2.8521
-3.6077 -1.7063 2.8520
-3.5701 -1.7346 2.8518
-3.5325 -1.7625 2.8517
-3.4949 -1.7900 2.8516
-3.4573 -1.8172 2.8515
-3.4197 -1.8439 2.8514
-3.3821 -1.8703 2.8513
-3.3445 -1.8962 2.8512
-3.3069 -1.9218 2.8511
-3.2693 -1.9471 2.8510
-3.2317 -1.9719 2.8509
-3.1941 -1.9964 2.8508
-3.1566 -2.0205 2.8507
-3.1190 -2.0443 2.8506
-3.0815 -2.0677 2.8505
-3.0439 -2.0907 2.8504
-3.0064 -2.1134 2.8503
-2.9689 -2.1358 2.8502
-2.9313 -2.1578 2.8501
-2.8938 -2.1794 2.8500
-2.8563 -2.2007 2.8499
-2.8189 -2.2217 2.8498
-2.7814 -2.2424 2.8497
-2.7440 -2.2627 2.8496
-2.7065 -2.2826 2.8495
-2.6691 -2.3023 2.8495
-2.6317 -2.3216 2.8494
-2.5943 -2.3406 2.8493
-2.5569 -2.3592 2.8492
-2.5195 -2.3776 2.8491
-2.4822 -2.3956 2.8490
-2.4448 -2.4133 2.8489
-2.4075 -2.4308 2.8488
-2.3702 -2.4478 2.8487
-2.3329 -2.4646 2.8487
-2.2956 -2.4811 2.8486
-2.2583 -2.4973 2.8485
-2.2211 -2.5132 2.8484
-2.0722 -2.5737 2.8481
-2.1838 -2.5288 2.8483
-2.0350 -2.5881 2.8480
-2.1466 -2.5440 2.8482
-1.9979 -2.6022 2.8479
-2.1094 -2.5590 2.8482
-1.9607 -2.6160 2.8478
-1.9236 -2.6296 2.8477
-1.7752 -2.6809 2.8474
-1.8865 -2.6428 2.8477
-1.7382 -2.6930 2.8474
-1.8494 -2.6558 2.8476
-1.7011 -2.7048 2.8473
-1.8123 -2.6684 2.8475
-1.6641 -2.7164 2.8472
-1.6271 -2.7277 2.8471
-1.4792 -2.7701 2.8468
-1.5901 -2.7387 2.8471
-1.4422 -2.7800 2.8468
-1.5531 -2.7494 2.8470
-1.4053 -2.7897 2.8467
-1.5161 -2.7599 2.8469
-1.3684 -2.7991 2.8466
-1.3315 -2.8083 2.8465
-1.1840 -2.8422 2.8463
-1.2946 -2.8171 2.8465
-1.1472 -2.8500 2.8462
-1.2577 -2.8258 2.8464
-1.1103 -2.8576 2.8461
-1.2209 -2.8341 2.8463
-1.0735 -2.8649 2.8461
-1.0367 -2.8720 2.8460
-0.8896 -2.8977 2.8457
-0.9999 -2.8788 2.8459
-0.8528 -2.9035 2.8457
-0.9631 -2.8854 2.8459
-0.8161 -2.9090 2.8456
-0.9263 -2.8916 2.8458
-0.7793 -2.9143 2.8455
-0.7426 -2.9194 2.8455
-0.5958 -2.9370 2.8452
-0.7059 -2.9242 2.8454
-0.5590 -2.9408 2.8452
-0.5224 -2.9444 2.8451
-0.6692 -2.9287 2.8454
-0.4490 -2.9508 2.8450
-0.4857 -2.9477 2.8450
-0.6324 -2.9330 2.8453
-0.4123 -2.9536 2.8449
-0.3024 -2.9605 2.8448
-0.3757 -2.9561 2.8449
-0.2657 -2.9624 2.8447
-0.3390 -2.9585 2.8448
-0.2291 -2.9640 2.8446
-0.1924 -2.9653 2.8446
-0.1558 -2.9664 2.8445
-0.1191 -2.9673 2.8445
-0.0825 -2.9679 2.8444
-0.0459 -2.9682 2.8444
-4.5766 -0.1453 2.8563
-4.5460 -0.1884 2.8562
-4.5152 -0.2310 2.8561
-4.4844 -0.2732 2.8559
-4.4534 -0.3149 2.8558
-4.4223 -0.3561 2.8557
-4.3911 -0.3968 2.8556
-4.3597 -0.4370 2.8555
-4.3283 -0.4768 2.8553
-4.2967 -0.5162 2.8552
-4.2650 -0.5550 2.8551
-4.2333 -0.5935 2.8550
-4.2014 -0.6314 2.8549
-4.1695 -0.6690 2.8547
-4.1374 -0.7061 2.8546
-4.1053 -0.7427 2.8545
-4.0731 -0.7789 2.8544
-4.0408 -0.8147 2.8543
-4.0084 -0.8500 2.8542
-3.9759 -0.8850 2.8541
-3.9434 -0.9195 2.8539
-3.9108 -0.9535 2.8538
-3.8781 -0.9872 2.8537
-3.8454 -1.0205 2.8536
-3.8125 -1.0533 2.8535
-3.7797 -1.0857 2.8534
-3.7467 -1.1178 2.8533
-3.7137 -1.1494 2.8532
-3.6807 -1.1806 2.8531
-3.6476 -1.2115 2.8530
-3.6144 -1.2419 2.8528
-3.5812 -1.2720 2.8527
-3.5480 -1.3017 2.8526
-3.5147 -1.3309 2.8525
-3.4813 -1.3599 2.8524
-3.4479 -1.3884 2.8523
-3.4145 -1.4166 2.8522
-3.3810 -1.4444 2.8521
-3.3475 -1.4718 2.8520
-3.3140 -1.4988 2.8519
-3.2804 -1.5256 2.8518
-3.2468 -1.5519 2.8517
-3.2131 -1.5779 2.8516
-3.1794 -1.6035 2.8515
-3.1458 -1.6288 2.8514
-3.1120 -1.6537 2.8513
-3.0782 -1.6783 2.8512
-3.0444 -1.7025 2.8511
-3.0106 -1.7264 2.8510
-2.9768 -1.7500 2.8510
-2.9429 -1.7732 2.8509
-2.9091 -1.7961 2.8508
-2.8751 -1.8187 2.8507
-2.8412 -1.8409 2.8506
-2.8073 -1.8628 2.8505
-2.7733 -1.8844 2.8504
-2.7393 -1.9056 2.8503
-2.7054 -1.9265 2.8502
-2.6714 -1.9472 2.8501
-2.6373 -1.9675 2.8500
-2.6033 -1.9874 2.8500
-2.5692 -2.0071 2.8499
-2.5352 -2.0265 2.8498
-2.5011 -2.0455 2.8497
-2.4670 -2.0643 2.8496
-2.4329 -2.0827 2.8495
-2.3989 -2.1009 2.8494
-2.3647 -2.1187 2.8494
-2.3306 -2.1362 2.8493
-2.2965 -2.1535 2.8492
-2.2624 -2.1704 2.8491
-2.2282 -2.1871 2.8490
-2.1941 -2.2035 2.8490
-2.1599 -2.2196 2.8489
-2.1258 -2.2353 2.8488
-2.0917 -2.2509 2.8487
-2.0575 -2.2661 2.8486
-2.0233 -2.2810 2.8486
-1.9891 -2.2957 2.8485
-1.9550 -2.3101 2.8484
-1.9208 -2.3242 2.8483
-1.8866 -2.3380 2.8482
-1.8525 -2.3516 2.8482
-1.8183 -2.3648 2.8481
-1.7841 -2.3778 2.8480
-1.7499 -2.3906 2.8479
-1.7157 -2.4030 2.8479
-1.6816 -2.4152 2.8478
-1.6474 -2.4272 2.8477
-1.6132 -2.4388 2.8477
-1.5790 -2.4502 2.8476
-1.5448 -2.4614 2.8475
-1.5107 -2.4723 2.8474
-1.4765 -2.4829 2.8474
-1.4423 -2.4932 2.8473
-1.4081 -2.5033 2.8472
-1.3740 -2.5132 2.8472
-1.3398 -2.5227 2.8471
-1.3056 -2.5321 2.8470
-1.2715 -2.5412 2.8470
-1.2373 -2.5500 2.8469
-1.2031 -2.5585 2.8468
-1.1689 -2.5669 2.8468
-1.1348 -2.5749 2.8467
-1.1006 -2.5828 2.8466
-1.0665 -2.5903 2.8466
-1.0323 -2.5976 2.8465
-0.9981 -2.6047 2.8464
-0.9640 -2.6116 2.8464
-0.9298 -2.6181 2.8463
-0.8957 -2.6245 2.8463
-0.8615 -2.6305 2.8462
-0.8274 -2.6364 2.8461
-0.7933 -2.6420 2.8461
-0.7591 -2.6474 2.8460
-0.6909 -2.6574 2.8459
-0.7250 -2.6525 2.8460
-0.6567 -2.6620 2.8458
-0.5544 -2.6745 2.8457
-0.5202 -2.6782 2.8456
-0.6226 -2.6664 2.8458
-0.4861 -2.6816 2.8456
-0.5885 -2.6706 2.8457
-0.4520 -2.6848 2.8455
-0.2814 -2.6973 2.8452
-0.4179 -2.6878 2.8454
-0.2473 -2.6991 2.8452
-0.3838 -2.6905 2.8454
-0.2132 -2.7006 2.8451
-0.1791 -2.7019 2.8451
-0.3497 -2.6930 2.8453
-0.1450 -2.7030 2.8450
-0.3155 -2.6953 2.8453
-0.1109 -2.7038 2.8450
-0.0768 -2.7044 2.8449
-0.0427 -2.7048 2.8449
