ply
format ascii 1.0
element vertex 2110
property float32 x
property float32 y
property float32 z
end_header
6.2755 11.5192 -6.0125
5.4162 10.2024 -5.3132
5.4082 10.4582 -5.4346
5.3815 11.2901 -5.8307
5.3997 10.7243 -5.5610
5.4802 11.1838 -5.7873
5.2818 11.3973 -5.8746
4.6692 11.7024 -5.9790
3.7343 11.4929 -5.8206
5.2727 11.7087 -6.0239
3.8283 12.2359 -6.1889
4.5571 11.7928 -6.0156
3.4652 11.5165 -5.8179
5.0904 11.6398 -5.9775
3.2931 11.3954 -5.7500
4.4369 11.8648 -6.0429
3.3505 12.0895 -6.0933
4.7815 11.2652 -5.7750
3.1975 12.0493 -6.0665
4.2144 11.6561 -5.9278
4.7138 11.4504 -5.8599
4.0517 11.6005 -5.8911
3.8917 11.5461 -5.8553
-2.8365 7.6014 -3.8712
-9.2215 4.6651 -3.3435
-9.3465 4.6109 -3.3425
-9.5743 5.0880 -3.5683
-9.4734 4.5560 -3.3418
-9.0986 4.7184 -3.3446
-9.6022 4.5000 -3.3412
-9.7332 4.4431 -3.3408
-10.2222 4.5434 -3.4611
-10.0751 4.3581 -3.3651
-9.7951 4.1215 -3.2273
19.3774 20.1790 -9.9056
18.5738 19.7479 -9.6587
18.8281 20.4392 -9.9614
6.3219 11.5018 -5.2774
6.1880 11.5476 -5.2885
5.3805 10.3027 -4.7099
5.3719 10.5592 -4.8186
5.3628 10.8255 -4.9317
5.3155 11.0244 -5.0141
5.2187 11.1262 -5.0522
5.1211 11.2290 -5.0910
5.0226 11.3328 -5.1303
4.9231 11.4375 -5.1701
4.8225 11.5431 -5.2105
4.9394 12.1890 -5.4945
4.6379 11.8077 -5.3156
3.8377 11.9941 -5.3616
4.5170 11.8736 -5.3384
3.7226 12.0820 -5.3953
3.3994 11.4718 -5.1178
4.3802 11.8973 -5.3424
3.2331 11.3595 -5.0629
4.2245 11.8668 -5.3223
3.2761 12.0019 -5.3444
3.2156 12.3027 -5.4736
3.6960 10.7471 -4.8146
4.0079 12.0757 -5.4038
1.6142 32.6926 -14.4088
3.0159 32.3847 -14.2860
1.2617 32.7992 -14.4537
2.6085 31.7466 -14.0006
0.9072 32.9066 -14.4995
2.3134 32.4815 -14.3212
1.9647 32.5867 -14.3646
-2.7886 7.5904 -3.4082
-9.5774 4.9949 -2.9649
-9.6930 5.3045 -3.0927
-9.7620 5.2160 -3.0680
-9.6767 4.9243 -2.9508
-9.2468 4.5900 -2.7775
-9.3709 4.5357 -2.7725
-9.4971 4.4806 -2.7677
-9.6254 4.4246 -2.7629
-9.7559 4.3676 -2.7582
-10.0798 4.3930 -2.8069
19.8551 19.0264 -8.0462
19.7694 19.3356 -8.1525
19.7146 19.6805 -8.2737
19.3627 19.7290 -8.2706
18.9822 19.7419 -8.2532
18.7374 19.8917 -8.2935
18.3137 19.8463 -8.2530
5.6975 10.5343 -4.1854
5.3544 10.1535 -4.0288
5.3456 10.4006 -4.1215
5.3364 10.6573 -4.2180
5.7098 11.7097 -4.6289
5.4527 11.4884 -4.5361
5.0872 11.0169 -4.3450
5.0168 11.1730 -4.4017
4.9450 11.3322 -4.4596
4.7774 11.2720 -4.4314
4.6792 11.3740 -4.4670
4.7355 11.8664 -4.6559
4.5283 11.7061 -4.5887
4.3752 11.6772 -4.5732
4.2213 11.6411 -4.5551
4.0406 11.5231 -4.5051
3.8649 11.4089 -4.4569
3.9593 12.1097 -4.7269
3.7728 11.9691 -4.6685
3.7660 12.4066 -4.8357
3.2578 11.1586 -4.3462
3.0923 11.0273 -4.2922
2.9315 10.8997 -4.2398
7.5121 35.3584 -13.7157
7.0940 35.2398 -13.6631
6.6802 35.1223 -13.6115
5.6445 31.5099 -12.2063
5.2799 31.4077 -12.1619
3.7812 33.3233 -12.8829
4.9188 31.3063 -12.1181
3.4089 33.2172 -12.8388
4.5611 31.2058 -12.0750
3.0354 33.0661 -12.7775
4.2067 31.1062 -12.0326
2.6734 33.0074 -12.7523
3.9461 31.7362 -12.2727
2.3194 33.0372 -12.7617
1.6079 33.0356 -12.7576
1.2600 33.2270 -12.8302
1.9561 32.9135 -12.7120
0.9088 33.4395 -12.9113
-0.5453 34.6029 -13.3599
0.5482 33.3436 -12.8737
-0.9104 34.3600 -13.2667
0.1994 34.9375 -13.4887
-1.2879 34.5848 -13.3544
-0.1728 34.3749 -13.2715
-1.6548 34.4843 -13.3169
-2.8764 35.8165 -13.8375
-1.9198 32.6780 -12.6209
-2.4979 35.9306 -13.8792
-2.7593 7.6252 -2.9835
-2.8431 7.6036 -2.9777
-9.6923 5.2046 -2.4930
-9.7605 5.1169 -2.4683
-9.1082 4.6603 -2.2644
-9.2537 4.6195 -2.2615
-9.4024 4.5780 -2.2587
-9.5543 4.5355 -2.2560
-9.3479 4.3248 -2.1693
-9.4495 4.2589 -2.1551
34.0821 27.7426 -9.8268
33.7575 28.0465 -9.9152
33.7961 28.6575 -10.1120
20.6693 19.0097 -6.6609
20.2511 19.0060 -6.6487
19.9055 19.0635 -6.6583
19.7026 19.2550 -6.7149
19.5734 19.5200 -6.7972
19.5397 19.8854 -6.9144
19.2812 20.0246 -6.9529
18.9076 20.0398 -6.9487
18.4160 19.9204 -6.8981
18.3669 20.2772 -7.0125
19.0056 21.4165 -7.3972
12.5460 15.0400 -5.1762
5.6133 10.2846 -3.4802
5.5687 10.4595 -3.5371
5.5230 10.6385 -3.5953
5.5296 10.9276 -3.6907
5.5607 11.2789 -3.8071
5.0966 10.6146 -3.5807
5.0851 10.8798 -3.6681
5.2946 11.6429 -3.9232
5.1564 11.6603 -3.9270
4.9984 11.6297 -3.9146
4.6518 11.1426 -3.7488
4.5784 11.2975 -3.7991
4.5942 11.6861 -3.9279
4.5907 12.0461 -4.0471
4.3811 11.8682 -3.9855
4.3036 12.0451 -4.0432
4.2220 12.2197 -4.1002
4.0663 12.1816 -4.0858
3.9174 12.1589 -4.0766
3.7748 12.1520 -4.0728
3.3206 11.1002 -3.7190
3.0642 10.6494 -3.5668
3.0194 10.9249 -3.6578
7.2994 33.1087 -11.0698
6.9088 32.9876 -11.0266
6.5227 32.8678 -10.9841
6.1408 32.7493 -10.9421
5.7629 32.6320 -10.9007
5.4274 32.7469 -10.9369
5.0463 32.5764 -10.8780
4.6245 32.0910 -10.7142
4.2498 31.8724 -10.6395
3.9122 31.9115 -10.6511
3.5747 31.9508 -10.6628
3.2370 31.9902 -10.6747
2.9238 32.3020 -10.7776
2.7136 33.9786 -11.3359
2.3729 34.2785 -11.4350
1.9738 33.6813 -11.2350
1.6776 34.9556 -11.6594
1.2768 34.1456 -11.3886
0.8988 33.5397 -11.1861
0.5432 33.5051 -11.1743
0.1906 33.8619 -11.2932
-0.1673 33.7604 -11.2594
-0.5233 33.6746 -11.2309
-0.8774 33.5815 -11.2001
-1.1980 32.6244 -10.8813
-1.5569 32.9014 -10.9742
-1.9223 33.1837 -11.0689
-2.2945 33.4713 -11.1657
-2.6737 33.7645 -11.2644
-3.1327 34.8701 -11.6343
-3.4513 34.3386 -11.4582
-3.8564 34.6801 -11.5735
-2.7951 7.5873 -2.5479
-9.7602 5.0196 -1.8867
-9.8279 4.9325 -1.8617
-9.2615 4.5346 -1.7188
-9.4088 4.4925 -1.7104
-9.5593 4.4496 -1.7019
35.6221 27.2963 -7.5045
34.8584 27.2646 -7.5026
34.9147 27.8721 -7.6765
34.7116 28.2796 -7.7954
33.9655 28.2387 -7.7905
33.9263 28.7824 -7.9468
33.9016 29.3474 -8.1091
20.3874 18.3731 -5.0842
20.3728 18.7322 -5.1872
19.4062 18.2049 -5.0446
20.2740 19.4040 -5.3804
20.0761 19.6036 -5.4392
19.6088 19.5350 -5.4236
19.6301 19.9526 -5.5428
18.9558 19.6582 -5.4642
19.1987 20.3147 -5.6499
19.0371 20.5539 -5.7196
18.4795 20.3590 -5.6684
18.2661 20.5358 -5.7206
12.0479 15.9774 -4.4670
5.5486 10.3251 -2.9010
5.5040 10.4989 -2.9505
5.4581 10.6764 -3.0012
5.4110 10.8582 -3.0530
5.3884 11.0970 -3.1209
5.5083 11.6473 -3.2764
5.2713 11.4495 -3.2215
5.1437 11.4822 -3.2314
4.7641 10.9355 -3.0782
4.7462 11.2087 -3.1557
4.7273 11.4928 -3.2363
4.6367 11.6119 -3.2704
4.5814 11.8265 -3.3315
4.3628 11.6173 -3.2731
4.2245 11.6124 -3.2723
4.0873 11.6075 -3.2715
4.0510 11.8960 -3.3533
4.1593 12.6418 -3.5641
3.5899 11.3043 -3.1875
3.2356 10.5670 -2.9800
3.2660 11.0753 -3.1237
3.1059 10.9499 -3.0888
3.4682 12.7290 -3.5911
3.3380 12.7724 -3.6037
3.2075 12.8159 -3.6164
3.0768 12.8595 -3.6291
8.6654 39.8621 -11.2519
8.1550 39.4892 -11.1477
7.5760 38.7151 -10.9301
5.8077 31.4099 -8.8684
5.3446 30.6892 -8.6656
4.9704 30.4109 -8.5877
4.6040 30.1384 -8.5113
4.2452 29.8715 -8.4365
3.9700 30.1906 -8.5271
3.5620 29.4611 -8.3215
3.2592 29.5379 -8.3436
2.9554 29.6148 -8.3657
2.6506 29.6920 -8.3879
2.3448 29.7694 -8.4101
2.0378 29.8470 -8.4323
1.7296 29.9250 -8.4545
1.4564 30.7681 -8.6929
1.1315 30.6810 -8.6685
0.8680 32.8384 -9.2781
0.5575 34.8641 -9.8505
0.1934 34.8457 -9.8454
-0.1718 35.1596 -9.9341
-0.5509 35.9409 -10.1548
-0.9131 35.4355 -10.0119
-1.2845 35.4675 -10.0208
-1.8829 40.3446 -11.3986
-2.1207 37.1186 -10.4869
-2.7630 7.6106 -2.1447
-2.8512 7.6073 -2.1433
-9.7849 4.8168 -1.2885
-9.2701 4.4513 -1.1882
35.3706 26.5935 -5.1482
34.3650 26.3706 -5.1388
35.2682 27.6194 -5.4163
35.0349 27.9978 -5.5241
34.4860 28.1206 -5.5810
34.2372 28.4845 -5.6852
33.7921 28.6832 -5.7561
33.1880 28.7393 -5.7977
26.3884 23.7803 -4.8452
20.2437 18.6092 -3.8095
20.2153 18.9560 -3.8982
19.6933 18.8367 -3.8908
19.8063 19.3247 -4.0085
19.6165 19.5232 -4.0664
19.5450 19.8423 -4.1493
19.4454 20.1378 -4.2273
19.3188 20.4091 -4.3002
19.1464 20.6346 -4.3634
18.7043 20.5651 -4.3638
18.2841 20.5102 -4.3669
18.4773 21.1479 -4.5174
6.1701 10.5976 -2.3707
6.1081 10.7394 -2.4066
6.0449 10.8831 -2.4430
5.9806 11.0290 -2.4799
5.4853 10.3648 -2.3343
5.4404 10.5370 -2.3768
5.3945 10.7132 -2.4202
5.3474 10.8935 -2.4645
5.6895 11.8944 -2.6948
5.1022 10.9511 -2.4845
5.0368 11.1043 -2.5226
4.9702 11.2604 -2.5613
4.9019 11.4191 -2.6006
4.7874 11.4732 -2.6161
4.6870 11.5628 -2.6396
4.4300 11.2571 -2.5727
4.6489 12.1762 -2.7858
4.4593 12.0471 -2.7592
4.1168 11.4805 -2.6320
3.9440 11.3628 -2.6076
3.7758 11.2479 -2.5837
3.6120 11.1360 -2.5603
3.2873 10.4998 -2.4161
3.7216 12.3278 -2.8391
3.6596 12.5868 -2.9011
3.5321 12.6292 -2.9131
3.4044 12.6717 -2.9251
3.2765 12.7143 -2.9370
3.1484 12.7570 -2.9488
8.6911 36.8353 -8.5200
8.0026 35.5450 -8.2267
7.8400 36.5705 -8.4689
6.4914 31.8729 -7.3851
5.9911 31.0431 -7.1966
5.7121 31.3232 -7.2651
5.3638 31.2278 -7.2464
5.0188 31.1333 -7.2276
4.6769 31.0398 -7.2088
4.3380 30.9472 -7.1900
4.2678 32.9036 -7.6473
3.8663 32.4193 -7.5371
3.4968 32.1287 -7.4718
3.2743 33.2623 -7.7375
2.9201 33.1600 -7.7156
2.5582 32.9257 -7.6627
2.2105 32.8207 -7.6397
1.8210 31.9378 -7.4353
1.4896 31.9012 -7.4278
1.1593 31.8648 -7.4202
0.8107 31.0927 -7.2409
0.4976 31.5465 -7.3470
0.1727 31.5524 -7.3486
-0.1539 31.9184 -7.4338
-0.4802 31.7626 -7.3974
-0.8050 31.6684 -7.3751
-1.1522 32.2511 -7.5102
-1.6324 35.4577 -8.2560
-1.9788 35.1106 -8.1741
-2.3253 34.8647 -8.1156
-2.7173 35.2713 -8.2087
-3.1699 36.2689 -8.4391
-3.5530 36.3370 -8.4529
-3.9870 36.8566 -8.5715
-4.4438 37.4695 -8.7114
-2.8018 7.5844 -1.7372
-37.8959 25.7164 -4.7985
-38.0445 25.2764 -4.6768
-38.4067 24.9784 -4.5810
-38.7798 24.6844 -4.4855
-39.1550 24.3884 -4.3890
-39.5324 24.0904 -4.2917
-39.9121 23.7902 -4.1933
-40.2941 23.4878 -4.0940
-40.6786 23.1832 -3.9937
-41.0657 22.8762 -3.8923
-41.4554 22.5667 -3.7899
-41.8510 22.2563 -3.6866
-42.2617 21.9496 -3.5832
-42.6758 21.6401 -3.4786
-43.0935 21.3276 -3.3727
35.5218 26.7527 -3.0382
35.4027 27.2082 -3.1521
34.4469 27.0124 -3.1892
34.7666 27.8156 -3.3435
34.5275 28.1820 -3.4460
33.8554 28.1894 -3.5035
34.2212 29.0655 -3.6690
33.6072 29.1150 -3.7302
33.1324 29.2766 -3.8044
21.0822 18.9999 -2.5027
20.4258 18.7745 -2.5053
20.3474 19.0741 -2.5771
19.4536 18.5984 -2.5430
19.4930 19.0061 -2.6286
19.4134 19.3042 -2.6994
19.6267 19.9040 -2.8128
19.4910 20.1594 -2.8779
19.4794 20.5486 -2.9622
19.2038 20.6618 -3.0066
18.9635 20.8111 -3.0558
18.6095 20.8317 -3.0856
18.3268 20.9274 -3.1259
6.0100 10.7309 -1.8123
5.9472 10.8725 -1.8435
5.8834 11.0164 -1.8751
5.8184 11.1621 -1.9070
5.3419 10.5034 -1.8009
5.2894 10.6633 -1.8347
5.2356 10.8264 -1.8690
5.1807 10.9930 -1.9039
5.5307 12.0479 -2.0932
5.4586 12.2129 -2.1283
5.1000 11.7255 -2.0494
4.8789 11.5327 -2.0214
4.6308 11.2606 -1.9792
4.5609 11.4160 -2.0118
4.6760 12.0550 -2.1298
4.2976 11.4193 -2.0225
4.2915 11.7613 -2.0880
3.9789 11.2556 -2.0028
3.7354 10.9160 -1.9467
3.9565 11.9546 -2.1364
3.3357 10.4306 -1.8678
3.8141 12.3554 -2.2168
3.6815 12.3679 -2.2233
3.4648 12.0852 -2.1764
3.3895 12.2901 -2.2171
3.2473 12.2569 -2.2148
3.1067 12.2241 -2.2123
2.9674 12.1916 -2.2098
7.3994 31.7981 -5.7719
6.9231 31.1781 -5.6671
6.7128 31.7476 -5.7781
6.3839 31.7793 -5.7910
6.0284 31.6683 -5.7775
5.6767 31.5585 -5.7638
5.3285 31.4500 -5.7499
4.9839 31.3427 -5.7359
4.7447 31.9226 -5.8473
4.2980 31.0825 -5.6982
3.9937 31.2124 -5.7265
3.6875 31.3428 -5.7546
3.3706 31.3918 -5.7674
3.0397 31.3008 -5.7541
2.7114 31.2107 -5.7406
2.3855 31.1213 -5.7269
2.0620 31.0326 -5.7130
1.7406 30.9447 -5.6988
1.4680 31.8677 -5.8705
1.1402 31.7681 -5.8536
0.8147 31.6693 -5.8364
0.4801 30.8536 -5.6867
0.1671 30.9283 -5.7009
-0.1472 30.9396 -5.7030
-0.4602 30.8485 -5.6858
-0.7714 30.7579 -5.6685
-1.0809 30.6679 -5.6509
-1.4755 32.4868 -5.9847
-1.8016 32.4009 -5.9671
-2.1263 32.3155 -5.9493
-2.4496 32.2306 -5.9312
-3.1476 36.5050 -6.7146
-3.5116 36.4037 -6.6924
-3.8753 36.3130 -6.6718
-4.2625 36.4330 -6.6895
-4.6253 36.3350 -6.6667
-4.9870 36.2374 -6.6436
-2.7680 7.6011 -1.3496
-24.9959 32.9256 -5.1774
-25.2596 32.5968 -5.0924
-25.5212 32.2688 -5.0072
-25.7807 31.9416 -4.9219
-26.0381 31.6151 -4.8364
-26.2935 31.2894 -4.7508
-26.5470 30.9644 -4.6650
-26.7986 30.6400 -4.5790
-27.0482 30.3163 -4.4929
-27.2960 29.9931 -4.4065
-27.5421 29.6703 -4.3200
-27.7863 29.3481 -4.2333
-28.0289 29.0264 -4.1463
-38.7877 26.9457 -2.7967
-38.5912 26.2564 -2.6543
-38.1412 25.4113 -2.4978
-37.6566 24.5634 -2.3432
-37.4316 23.9016 -2.2083
-37.6429 23.5252 -2.1002
-38.0842 23.2902 -2.0039
-38.6835 23.1443 -1.9137
-39.1365 22.9030 -1.8138
-39.5948 22.6590 -1.7124
-40.0584 22.4122 -1.6092
-40.5277 22.1623 -1.5043
-41.0027 21.9093 -1.3976
-41.3195 21.5675 -1.2839
-41.8049 21.3091 -1.1738
35.6757 27.4649 -1.0307
34.8532 27.3729 -1.1141
34.4363 27.5887 -1.2076
34.4096 28.1188 -1.3145
34.0032 28.3406 -1.4066
33.8583 28.7807 -1.5088
32.9170 28.5351 -1.5733
20.8005 19.1205 -1.2004
20.6832 19.3869 -1.2637
19.9706 19.0871 -1.2886
19.0932 18.6073 -1.2983
19.7846 19.6602 -1.4149
19.7137 19.9750 -1.4802
19.3746 20.0178 -1.5248
19.1265 20.1509 -1.5755
18.8795 20.2833 -1.6255
18.6335 20.4150 -1.6749
18.2731 20.4170 -1.7128
5.9141 10.7226 -1.2312
5.8516 10.8619 -1.2574
5.7881 11.0034 -1.2839
5.7236 11.1471 -1.3106
5.6579 11.2930 -1.3375
5.6024 11.4643 -1.3675
5.5472 11.6424 -1.3982
5.0217 10.8145 -1.3073
4.9658 10.9778 -1.3355
4.9086 11.1446 -1.3641
4.8500 11.3147 -1.3931
4.9043 11.7626 -1.4565
4.7033 11.6038 -1.4446
4.6403 11.7836 -1.4747
4.2821 11.1993 -1.4087
4.3769 11.7980 -1.4913
4.2643 11.8547 -1.5055
4.1513 11.9116 -1.5195
3.6556 10.8355 -1.3882
3.9241 12.0256 -1.5471
3.8100 12.0828 -1.5607
3.6954 12.1402 -1.5741
3.5147 11.9741 -1.5583
3.2084 11.3481 -1.4820
3.0134 11.0797 -1.4518
3.1778 12.1624 -1.5988
3.0405 12.1307 -1.5995
9.7116 40.4563 -5.3501
9.2872 40.4651 -5.3661
8.9173 40.7157 -5.4137
8.5444 40.9685 -5.4609
8.1683 41.2236 -5.5080
7.7277 41.1544 -5.5111
6.4252 36.2115 -4.8594
5.7969 34.6843 -4.6638
5.5085 35.1164 -4.7307
5.2137 35.5581 -4.7985
4.8641 35.6571 -4.8196
4.4319 35.1103 -4.7528
4.1271 35.5579 -4.8201
3.7606 35.5011 -4.8184
3.4021 35.5095 -4.8250
3.0842 35.9843 -4.8946
2.8125 37.1900 -5.0632
2.2407 34.1801 -4.6571
1.9379 34.9197 -4.7611
1.5395 33.8719 -4.6208
1.2416 35.0622 -4.7854
0.9797 38.6015 -5.2702
0.5769 37.5726 -5.1309
0.2046 38.3867 -5.2427
-0.1797 38.2806 -5.2282
-0.5619 38.1752 -5.2133
-0.9445 38.1714 -5.2116
-3.0093 40.1328 -5.4641
-3.3530 39.4150 -5.3615
-3.7183 39.0709 -5.3093
-4.1498 39.4152 -5.3501
-4.5375 39.3118 -5.3294
-4.8952 38.9805 -5.2772
-5.1983 38.2886 -5.1759
-2.8073 7.5817 -0.9586
-17.0399 34.9250 -4.1677
-17.3238 34.6321 -4.1037
-17.6049 34.3400 -4.0394
-17.8833 34.0487 -3.9748
-18.1591 33.7582 -3.9100
-18.4322 33.4686 -3.8449
-18.7028 33.1796 -3.7795
-18.9709 32.8914 -3.7138
-19.2365 32.6038 -3.6479
-19.4997 32.3170 -3.5816
-19.7605 32.0307 -3.5151
-20.0189 31.7450 -3.4483
-20.2751 31.4599 -3.3811
-20.5290 31.1753 -3.3137
-20.7807 30.8913 -3.2460
-21.0302 30.6077 -3.1780
-21.2776 30.3246 -3.1096
-21.5229 30.0419 -3.0410
-21.7662 29.7596 -2.9720
-22.0074 29.4776 -2.9027
-22.2466 29.1960 -2.8331
-22.4838 28.9148 -2.7632
-22.7192 28.6338 -2.6929
-22.9699 28.3745 -2.6243
-23.2883 28.1987 -2.5628
-23.6077 28.0224 -2.5006
-24.6421 28.6762 -2.5104
-24.9770 28.4977 -2.4451
-25.3134 28.3185 -2.3789
-25.6513 28.1386 -2.3119
-25.9906 27.9579 -2.2440
-26.3316 27.7763 -2.1752
-26.6742 27.5939 -2.1055
-27.0185 27.4105 -2.0348
-40.3501 28.1044 -0.5688
-38.6526 26.3717 -0.4317
-38.2038 25.5288 -0.3156
-37.7710 24.7161 -0.2030
-37.4111 23.9688 -0.0938
-37.5709 23.5636 0.0129
-38.0081 23.3308 0.1208
-37.7824 22.6943 0.2265
-22.5050 13.2247 0.1980
-22.8597 13.1389 0.2648
-23.1213 12.9950 0.3319
-23.3858 12.8494 0.4003
-23.6536 12.7020 0.4698
-23.9246 12.5529 0.5407
34.4434 28.1874 0.8014
20.0790 19.1906 0.0269
19.9533 19.4417 -0.0300
19.6899 19.5586 -0.0861
19.7128 19.9625 -0.1434
19.2169 19.8396 -0.1961
18.8517 19.8422 -0.2482
18.9680 20.3547 -0.3065
11.9963 15.9898 -0.6216
5.6244 10.8553 -0.6948
5.5551 10.9831 -0.7155
5.4847 11.1126 -0.7362
5.4132 11.2437 -0.7570
5.3406 11.3766 -0.7778
5.2595 11.4953 -0.7975
5.1661 11.5901 -0.8154
5.0719 11.6854 -0.8332
4.6986 11.1227 -0.8034
4.6390 11.2893 -0.8255
4.5780 11.4595 -0.8478
4.7002 12.1091 -0.9060
4.4637 11.8435 -0.8958
4.1134 11.2475 -0.8595
3.8039 10.7270 -0.8279
4.1558 12.0955 -0.9423
4.0190 12.0826 -0.9499
3.7349 11.6088 -0.9205
3.7523 12.0689 -0.9649
3.4417 11.4666 -0.9240
3.2404 11.1952 -0.9090
3.3596 12.0501 -0.9854
3.2302 12.0436 -0.9917
3.1016 12.0369 -0.9976
4.6861 49.5767 -4.3895
4.1679 49.2903 -4.3730
2.7647 37.0554 -3.2934
3.1514 48.7259 -4.3374
2.6527 48.4478 -4.3183
2.1602 48.1722 -4.2985
1.6735 47.8991 -4.2780
1.1928 47.6335 -4.2571
0.7176 47.3734 -4.2357
0.2478 47.1152 -4.2136
-0.2170 46.8590 -4.1907
-0.6767 46.6046 -4.1671
-1.1316 46.3521 -4.1427
-1.5817 46.1014 -4.1176
-2.0272 45.8523 -4.0918
-2.4683 45.6049 -4.0653
-2.9050 45.3591 -4.0380
-3.3375 45.1148 -4.0101
-3.7659 44.8719 -3.9815
-4.2020 44.7554 -3.9632
-4.8096 46.3043 -4.0913
-2.7717 7.5934 -0.5806
-20.3201 41.2355 -2.7348
-16.6347 32.9399 -2.1483
-16.9533 32.7703 -2.1000
-17.2717 32.6008 -2.0511
-17.5899 32.4313 -2.0014
-17.9080 32.2619 -1.9510
-18.2261 32.0925 -1.8999
-18.5443 31.9231 -1.8481
-18.8625 31.7536 -1.7955
-19.1809 31.5841 -1.7422
-19.4995 31.4144 -1.6881
-19.8184 31.2446 -1.6333
-20.1376 31.0747 -1.5776
-20.4572 30.9045 -1.5212
-20.7772 30.7340 -1.4639
-21.0978 30.5633 -1.4058
-21.4189 30.3924 -1.3469
-21.7408 30.2212 -1.2871
-22.0636 30.0498 -1.2265
-22.3871 29.8781 -1.1650
-22.7115 29.7059 -1.1026
-23.0367 29.5332 -1.0393
-23.3628 29.3599 -0.9750
-23.6897 29.1856 -0.9098
-24.0176 29.0108 -0.8436
-24.3466 28.8353 -0.7765
-24.6769 28.6592 -0.7083
-25.0084 28.4824 -0.6391
-25.3414 28.3049 -0.5689
-25.6757 28.1266 -0.4977
-26.0116 27.9475 -0.4253
-26.3490 27.7675 -0.3519
-26.6881 27.5867 -0.2773
-17.8324 15.7952 0.2193
-18.0567 15.6866 0.2713
-18.3297 15.6172 0.3251
-18.5472 15.4975 0.3788
-18.7663 15.3769 0.4334
-18.9870 15.2555 0.4889
-19.2094 15.1331 0.5453
-19.4335 15.0098 0.6027
-19.6594 14.8854 0.6610
-19.8872 14.7601 0.7202
-20.1169 14.6337 0.7805
-20.3486 14.5062 0.8418
-20.5824 14.3775 0.9041
-20.8183 14.2477 0.9675
-21.0564 14.1166 1.0321
-21.2968 13.9843 1.0977
-21.5397 13.8507 1.1645
-21.7849 13.7157 1.2325
-22.0327 13.5794 1.3018
-22.2122 13.3987 1.3679
-22.4525 13.2527 1.4387
-22.7075 13.1124 1.5115
-23.0635 13.0258 1.5925
-23.3256 12.8816 1.6684
-23.5908 12.7356 1.7458
31.3794 24.2635 2.8701
31.8753 25.1349 2.8458
31.2061 25.0923 2.7177
32.0119 26.2456 2.7177
32.8616 27.4694 2.7177
33.7593 28.7701 2.7177
34.7092 30.1549 2.7177
12.0189 15.9688 0.3289
27.8297 40.9272 0.4048
27.0168 40.5654 0.3212
5.2138 10.9931 -0.1753
5.1426 11.1195 -0.1913
5.0704 11.2476 -0.2072
4.9459 11.2611 -0.2208
4.8549 11.3513 -0.2356
4.7632 11.4421 -0.2503
4.6706 11.5333 -0.2647
4.6191 11.7318 -0.2815
4.2477 11.1030 -0.2777
4.1949 11.2922 -0.2935
4.2175 11.6992 -0.3151
4.0882 11.6952 -0.3257
3.9598 11.6910 -0.3359
3.8174 11.6413 -0.3445
3.6079 11.3741 -0.3459
3.4312 11.1934 -0.3493
3.2610 11.0191 -0.3523
6.5311 49.1996 -1.9922
6.0096 48.9218 -1.9963
5.4951 48.6479 -1.9992
4.9873 48.3775 -2.0008
4.4862 48.1106 -2.0013
3.9913 47.8472 -2.0007
2.7177 36.9230 -1.5510
3.0199 47.3299 -1.9961
2.5429 47.0759 -1.9921
2.0715 46.8249 -1.9871
1.6055 46.5767 -1.9810
1.1446 46.3313 -1.9739
0.6888 46.0886 -1.9658
0.2388 46.0222 -1.9641
-0.2091 45.7837 -1.9540
-0.6524 45.5476 -1.9428
-1.0913 45.3139 -1.9307
-1.5260 45.0825 -1.9177
-1.9564 44.8533 -1.9037
-2.3738 44.4579 -1.8817
-2.7948 44.2337 -1.8659
-3.2197 44.1170 -1.8537
-3.6865 44.5271 -1.8624
-4.2163 45.5219 -1.8943
-4.7712 46.5640 -1.9266
-2.7544 7.6556 -0.2067
-2.8105 7.5797 -0.1974
-14.1413 37.0325 -0.9284
-14.4828 36.8507 -0.8867
-14.8234 36.6693 -0.8440
-15.1632 36.4884 -0.8006
-15.5023 36.3078 -0.7563
-15.8407 36.1276 -0.7111
-16.0653 35.6965 -0.6605
-17.9711 38.9202 -0.6727
-16.4404 33.0511 -0.4431
-16.7553 32.8833 -0.3958
-17.0699 32.7155 -0.3477
-17.3843 32.5479 -0.2987
-17.6986 32.3803 -0.2488
-18.0129 32.2127 -0.1981
-18.3271 32.0451 -0.1464
-18.6415 31.8775 -0.0939
-18.9559 31.7098 -0.0405
-19.2705 31.5421 0.0139
-19.5854 31.3742 0.0691
-19.9006 31.2061 0.1253
-20.2161 31.0379 0.1825
-20.5321 30.8694 0.2406
-20.8485 30.7007 0.2997
-21.1654 30.5317 0.3598
-13.0485 18.4417 0.2557
-13.2331 18.3266 0.2932
-13.4249 18.2211 0.3315
-13.6752 18.1925 0.3720
-13.8688 18.0860 0.4117
-14.0628 17.9792 0.4521
-14.2573 17.8722 0.4932
-14.4525 17.7648 0.5349
-14.6482 17.6571 0.5773
-14.8446 17.5490 0.6203
-15.0417 17.4406 0.6641
-15.2395 17.3317 0.7087
-15.4380 17.2225 0.7539
-15.6374 17.1128 0.7999
-15.8376 17.0026 0.8466
-16.0388 16.8919 0.8942
-16.2408 16.7807 0.9425
-16.4439 16.6690 0.9916
-16.6480 16.5567 1.0415
-16.8531 16.4438 1.0923
-17.0594 16.3302 1.1439
-17.2668 16.2161 1.1964
-17.4755 16.1012 1.2498
-17.6095 15.9170 1.2985
-17.8199 15.8013 1.3534
-18.0420 15.6938 1.4101
-18.3129 15.6256 1.4717
-18.5283 15.5071 1.5297
-18.7453 15.3877 1.5888
-18.9638 15.2674 1.6489
-19.1840 15.1462 1.7100
-19.4060 15.0240 1.7723
-19.6297 14.9009 1.8356
-19.8553 14.7768 1.9000
-20.0828 14.6516 1.9657
-20.3122 14.5253 2.0324
-20.5437 14.3979 2.1005
-20.7773 14.2694 2.1697
-21.0131 14.1396 2.2402
-21.2512 14.0085 2.3121
-21.4917 13.8762 2.3852
-21.7345 13.7426 2.4598
-21.9799 13.6075 2.5357
-22.1921 13.4493 2.6089
-22.6933 13.4604 2.7177
-22.2835 12.9332 2.7177
-21.8876 12.4275 2.7177
-21.5048 11.9419 2.7177
19.0707 15.0783 2.8701
19.2959 15.5542 2.8701
19.5251 16.0450 2.8701
19.7584 16.5514 2.8701
19.9961 17.0740 2.8701
20.2381 17.6135 2.8701
20.4847 18.1706 2.8701
20.7359 18.7460 2.8701
20.4460 18.8377 2.7955
20.1243 18.8957 2.7177
20.3761 19.4975 2.7177
20.6329 20.1200 2.7177
20.8948 20.7641 2.7177
21.1620 21.4309 2.7177
19.3523 19.9724 2.4537
21.7127 22.8365 2.7177
21.9966 23.5777 2.7177
23.5362 25.7114 2.8701
23.8487 26.5530 2.8701
24.1679 27.4262 2.8701
24.4940 28.3327 2.8701
24.8272 29.2739 2.8701
25.1678 30.2518 2.8701
25.5159 31.2682 2.8701
25.8718 32.3251 2.8701
26.2357 33.4246 2.8701
26.6080 34.5691 2.8701
12.0473 15.9629 1.2811
27.3788 37.0025 2.8701
27.7777 38.2968 2.8701
27.4691 38.6381 2.7971
27.0856 38.8754 2.7177
27.4913 40.2680 2.7177
27.1981 40.6634 2.6487
26.3287 40.1853 2.5255
25.4897 39.7238 2.4079
24.6793 39.2781 2.2957
23.8960 38.8472 2.1885
23.1422 38.4370 2.0864
22.4086 38.0334 1.9884
21.6979 37.6426 1.8948
21.0091 37.2637 1.8052
20.3408 36.8961 1.7195
19.6923 36.5394 1.6374
18.9834 36.0429 1.5524
18.4424 35.8410 1.4831
17.8475 35.5138 1.4111
17.2687 35.1954 1.3422
16.7053 34.8855 1.2762
16.1565 34.5837 1.2130
15.6218 34.2896 1.1525
15.1004 34.0028 1.0945
4.8115 11.1197 0.3426
4.7384 11.2445 0.3314
4.6641 11.3710 0.3204
4.6701 11.7033 0.3150
4.5509 11.7293 0.3014
4.4121 11.7028 0.2869
4.2110 11.5017 0.2688
4.0213 11.3182 0.2520
3.8387 11.1414 0.2362
10.5119 31.4861 0.6350
10.1053 31.2625 0.5994
9.6694 30.9237 0.5631
9.3148 30.8243 0.5328
8.9316 30.6135 0.5018
8.5556 30.4067 0.4723
8.1866 30.2037 0.4442
7.8243 30.0044 0.4175
7.4685 29.8087 0.3921
7.1188 29.6164 0.3680
6.7752 29.4273 0.3451
6.4373 29.2415 0.3235
6.1050 29.0587 0.3031
5.7781 28.8789 0.2838
5.5252 29.0633 0.2689
5.1198 28.4167 0.2475
4.8191 28.3038 0.2321
4.6027 28.6972 0.2214
6.7043 47.6413 0.3258
6.4350 49.1484 0.3167
5.9218 48.8751 0.2971
5.4153 48.6054 0.2790
4.9140 48.3258 0.2625
4.4206 48.0630 0.2476
3.7793 45.9309 0.2249
2.6744 36.8357 0.1722
2.9774 47.3073 0.2119
2.5073 47.0570 0.2029
2.0427 46.8095 0.1953
1.5832 46.5649 0.1891
1.1289 46.3230 0.1842
0.6794 46.0836 0.1807
0.2343 45.7808 0.1782
-0.2055 45.6124 0.1775
-0.6412 45.3804 0.1778
-1.0704 45.0576 0.1790
-1.4999 44.9232 0.1821
-1.9231 44.6979 0.1861
-2.3376 44.3828 0.1910
-2.7580 44.2533 0.1977
-3.1749 44.1034 0.2056
-3.6250 44.3885 0.2167
-4.1469 45.3916 0.2331
-4.6908 46.4131 0.2512
-4.0646 23.9607 0.1957
-4.1845 23.3067 0.2022
-4.4240 23.3483 0.2152
-5.2397 22.8218 0.2667
-5.4440 22.7094 0.2811
-5.6472 22.5976 0.2962
-5.8492 22.4865 0.3118
-6.0503 22.3758 0.3279
-6.2504 22.2657 0.3446
-6.4496 22.1562 0.3619
-6.6478 22.0471 0.3798
-6.8452 21.9385 0.3982
-7.0418 21.8303 0.4172
-7.2376 21.7226 0.4367
-7.4327 21.6152 0.4568
-7.6271 21.5083 0.4775
-2.7732 7.5888 0.1768
-8.0140 21.2954 0.5205
-8.2065 21.1895 0.5429
-8.3985 21.0839 0.5658
-8.5573 20.8986 0.5871
-8.7476 20.7939 0.6111
-8.9382 20.6913 0.6357
-9.1610 20.6621 0.6632
-9.3508 20.5577 0.6891
-9.5402 20.4534 0.7155
-9.7294 20.3494 0.7425
-9.9183 20.2454 0.7701
-10.1070 20.1416 0.7982
-10.2955 20.0379 0.8270
-10.4838 19.9343 0.8564
-10.6720 19.8307 0.8864
-10.8601 19.7272 0.9171
-11.0482 19.6237 0.9483
-11.2362 19.5203 0.9802
-11.4243 19.4168 1.0127
-11.6123 19.3133 1.0458
-11.8005 19.2097 1.0796
-11.9888 19.1061 1.1141
-12.1772 19.0025 1.1492
-12.3658 18.8987 1.1850
-12.5547 18.7948 1.2215
-12.7437 18.6907 1.2586
-12.9331 18.5865 1.2964
-13.0809 18.4231 1.3307
-13.2633 18.3092 1.3691
-13.4531 18.2048 1.4090
-13.7014 18.1773 1.4557
-13.8928 18.0720 1.4972
-14.0847 17.9664 1.5394
-14.2772 17.8605 1.5824
-14.4702 17.7542 1.6262
-14.6639 17.6477 1.6708
-14.8582 17.5408 1.7162
-15.0532 17.4335 1.7623
-15.2489 17.3257 1.8094
-15.4454 17.2176 1.8572
-15.6427 17.1090 1.9059
-15.8409 17.0000 1.9555
-16.0399 16.8905 2.0060
-16.2399 16.7804 2.0574
-16.4409 16.6698 2.1097
-16.6429 16.5586 2.1629
-16.8459 16.4469 2.2171
-17.0501 16.3345 2.2723
-17.2555 16.2215 2.3284
-17.4620 16.1078 2.3856
-17.5940 15.9248 2.4333
-17.8022 15.8102 2.4923
-18.0222 15.7039 2.5539
-18.2909 15.6369 2.6233
-18.7237 15.7037 2.7177
-18.5023 15.2231 2.7177
-18.2850 14.7574 2.7177
-18.0715 14.3059 2.7177
-17.8617 13.8680 2.7177
-17.8871 13.6195 2.7533
-18.0806 13.4996 2.8154
-18.2214 13.3391 2.8701
-18.0145 12.9288 2.8701
-17.8110 12.5303 2.8701
-17.6109 12.1432 2.8701
-17.4141 11.7671 2.8701
-17.2204 11.4015 2.8701
-17.0298 11.0461 2.8701
-16.8422 10.7005 2.8701
-16.6576 10.3643 2.8701
-16.4758 10.0373 2.8701
-16.2967 9.7190 2.8701
-16.1204 9.4093 2.8701
-15.9468 9.1078 2.8701
13.5894 10.9880 2.8701
13.6745 11.2696 2.8701
13.7591 11.5569 2.8701
13.8432 11.8499 2.8701
13.9268 12.1487 2.8701
14.0098 12.4536 2.8701
14.0921 12.7645 2.8701
14.1736 13.0815 2.8701
14.2544 13.4050 2.8701
14.3342 13.7349 2.8701
14.4132 14.0714 2.8701
14.4910 14.4145 2.8701
14.5678 14.7645 2.8701
14.6434 15.1215 2.8701
14.7176 15.4855 2.8701
14.5141 15.5605 2.8165
14.0727 15.3732 2.7177
14.1387 15.7387 2.7177
14.2032 16.1113 2.7177
14.2659 16.4913 2.7177
14.3267 16.8786 2.7177
14.3855 17.2734 2.7177
14.4423 17.6758 2.7177
14.4969 18.0859 2.7177
14.5491 18.5039 2.7177
14.5987 18.9297 2.7177
12.0741 15.9635 2.2405
15.5136 20.9160 2.8701
15.5571 21.3912 2.8701
15.5973 21.8752 2.8701
15.6339 22.3679 2.8701
15.6668 22.8694 2.8701
15.6959 23.3798 2.8701
15.7208 23.8991 2.8701
15.7413 24.4272 2.8701
15.7573 24.9643 2.8701
15.7685 25.5103 2.8701
15.7747 26.0652 2.8701
15.7756 26.6290 2.8701
15.7710 27.2016 2.8701
15.7605 27.7829 2.8701
15.7441 28.3729 2.8701
15.7213 28.9714 2.8701
15.6918 29.5783 2.8701
15.6554 30.1934 2.8701
15.6119 30.8166 2.8701
15.5608 31.4475 2.8701
15.4590 31.9971 2.8621
14.9688 31.7432 2.7834
14.5436 31.6115 2.7177
14.4643 32.2360 2.7177
14.3760 32.8660 2.7177
14.2788 33.5016 2.7177
14.1733 34.1441 2.7179
13.3540 33.0482 2.5818
4.6092 11.7242 0.8992
4.4914 11.7495 0.8848
11.9998 32.3034 2.3893
11.5679 32.0658 2.3300
11.1451 31.8333 2.2731
10.7310 31.6055 2.2184
10.3253 31.3824 2.1659
9.8895 31.0437 2.1073
9.5024 30.8341 2.0593
9.1543 30.7349 2.0203
8.7791 30.5286 1.9757
8.4110 30.3261 1.9329
8.0495 30.1272 1.8919
7.6944 29.9319 1.8527
7.3455 29.7400 1.8150
7.0027 29.5514 1.7790
6.6656 29.3660 1.7445
6.3341 29.1837 1.7116
6.0079 29.0043 1.6801
5.6870 28.8277 1.6501
5.3501 28.5424 1.6151
5.0403 28.3720 1.5880
4.7527 28.3094 1.5679
4.4509 28.1434 1.5433
4.1535 27.9798 1.5198
3.8603 27.8185 1.4976
3.5712 27.6595 1.4766
3.2860 27.5026 1.4568
3.0047 27.3479 1.4381
2.7270 27.1952 1.4205
2.4530 27.0444 1.4040
2.1824 26.8956 1.3885
1.9152 26.7486 1.3741
1.6512 26.6034 1.3607
1.3904 26.4599 1.3483
1.1326 26.3181 1.3369
0.8778 26.1779 1.3264
0.6234 25.9424 1.3120
0.3751 25.8058 1.3034
0.1301 25.7761 1.3011
-0.1140 25.6418 1.2943
-0.3555 25.5090 1.2884
-0.5946 25.3774 1.2833
-0.8314 25.2472 1.2791
-1.0659 25.1182 1.2757
-1.2981 24.9904 1.2731
-1.5283 24.8638 1.2714
-1.7563 24.7384 1.2705
-1.9824 24.6140 1.2703
-2.2066 24.4907 1.2709
-2.4288 24.3684 1.2723
-2.6493 24.2471 1.2744
-2.8680 24.1268 1.2774
-3.0850 24.0074 1.2810
-3.3004 23.8890 1.2854
-3.5142 23.7713 1.2905
-3.7265 23.6545 1.2963
-3.9225 23.4501 1.2980
-4.1311 23.3353 1.3052
-4.3385 23.2222 1.3132
-4.5612 23.1943 1.3267
-4.7666 23.0813 1.3360
-4.9708 22.9690 1.3460
-5.1738 22.8573 1.3568
-5.3757 22.7462 1.3682
-5.5765 22.6357 1.3802
-5.7762 22.5259 1.3930
-5.9749 22.4165 1.4064
-6.1727 22.3077 1.4205
-6.3695 22.1994 1.4353
-6.5655 22.0916 1.4507
-6.7606 21.9842 1.4668
-6.9550 21.8773 1.4835
-7.1485 21.7708 1.5010
-7.3414 21.6647 1.5190
-7.5335 21.5590 1.5378
-2.7507 7.6392 0.5545
-2.8100 7.5783 0.5599
-8.1062 21.2439 1.5980
-8.2960 21.1395 1.6194
-8.4529 20.9553 1.6352
-8.6410 20.8518 1.6578
-8.8294 20.7504 1.6813
-9.0496 20.7226 1.7115
-9.2371 20.6194 1.7362
-9.4244 20.5164 1.7616
-9.6113 20.4136 1.7877
-9.7980 20.3109 1.8145
-9.9844 20.2083 1.8420
-10.1707 20.1058 1.8701
-10.3567 20.0034 1.8990
-10.5426 19.9011 1.9285
-10.7285 19.7989 1.9588
-10.9143 19.6966 1.9898
-11.1000 19.5944 2.0215
-11.2857 19.4923 2.0539
-11.4715 19.3900 2.0870
-11.6573 19.2878 2.1209
-11.8432 19.1855 2.1555
-12.0292 19.0831 2.1909
-12.4019 18.8781 2.2640
-12.2154 18.9806 2.2271
-12.5885 18.7754 2.3016
-13.4760 18.1914 2.4926
-12.7754 18.6725 2.3401
-13.7222 18.1651 2.5458
-12.9626 18.5695 2.3793
-13.9115 18.0609 2.5892
-13.1081 18.4074 2.4117
-14.5537 18.5325 2.7180
-13.2884 18.2946 2.4511
-14.5006 18.1127 2.7178
-14.3893 17.2988 2.7177
-14.4459 17.7017 2.7177
-14.3305 16.9035 2.7177
-14.4472 15.5072 2.8026
-14.2698 16.5157 2.7177
-14.2072 16.1353 2.7177
-14.6204 15.4016 2.8502
-14.6481 15.1444 2.8701
-14.1429 15.7622 2.7177
-14.2746 15.6124 2.7559
-14.5727 14.7871 2.8701
-14.3393 13.7561 2.8701
-14.4960 14.4366 2.8701
-14.2595 13.4258 2.8701
-14.4182 14.0930 2.8701
-14.1788 13.1019 2.8701
-13.8486 11.8687 2.8701
-14.0973 12.7844 2.8701
-13.7645 11.5753 2.8701
-14.0150 12.4731 2.8701
-13.6799 11.2877 2.8701
-13.9321 12.1679 2.8701
-13.5949 11.0057 2.8701
-13.3376 10.1924 2.8701
-13.5094 10.7293 2.8701
-13.2512 9.9318 2.8701
-13.4237 10.4582 2.8701
-13.1647 9.6762 2.8701
-12.8170 8.7027 2.8701
-13.0780 9.4256 2.8701
-12.7300 8.4709 2.8701
-12.9911 9.1799 2.8701
-12.6429 8.2437 2.8701
-12.9041 8.9390 2.8701
-12.5558 8.0208 2.8701
-12.4687 7.8021 2.8701
-12.3817 7.5877 2.8701
-12.2948 7.3774 2.8701
-12.2080 7.1710 2.8701
10.4778 8.6660 2.8701
10.5107 8.8582 2.8701
10.5424 9.0531 2.8701
10.5728 9.2505 2.8701
10.6019 9.4506 2.8701
10.6297 9.6533 2.8701
10.6561 9.8587 2.8701
10.6811 10.0668 2.8701
10.7045 10.2776 2.8701
10.7264 10.4911 2.8701
10.7466 10.7073 2.8701
10.7652 10.9262 2.8701
10.7821 11.1478 2.8701
10.7971 11.3721 2.8701
10.8102 11.5992 2.8701
10.8214 11.8289 2.8701
10.8306 12.0613 2.8701
10.8378 12.2964 2.8701
10.8427 12.5342 2.8701
10.8455 12.7747 2.8701
10.8460 13.0177 2.8701
10.8441 13.2634 2.8701
10.8397 13.5117 2.8701
10.5161 13.3601 2.7862
10.2487 13.2716 2.7177
10.2371 13.5138 2.7177
10.2230 13.7583 2.7177
10.2062 14.0051 2.7177
10.1865 14.2541 2.7177
10.1641 14.5052 2.7177
10.1386 14.7584 2.7177
10.1102 15.0137 2.7177
10.0787 15.2709 2.7177
10.0440 15.5300 2.7177
10.0060 15.7908 2.7177
9.9646 16.0534 2.7177
9.9199 16.3176 2.7177
9.8716 16.5833 2.7177
9.8197 16.8503 2.7177
10.3116 18.0786 2.8701
10.2490 18.3633 2.8701
10.1822 18.6490 2.8701
10.1114 18.9357 2.8701
10.0362 19.2232 2.8701
9.9568 19.5113 2.8701
9.8730 19.7999 2.8701
9.7848 20.0889 2.8701
9.6920 20.3779 2.8701
9.5945 20.6669 2.8701
9.4925 20.9557 2.8701
9.3857 21.2440 2.8701
9.2740 21.5315 2.8701
9.1574 21.8182 2.8701
9.0360 22.1038 2.8701
8.9096 22.3880 2.8701
4.5147 11.6597 1.4761
4.4398 11.7916 1.4745
8.5003 23.2301 2.8701
8.3537 23.5065 2.8701
8.2019 23.7801 2.8701
8.0451 24.0509 2.8701
7.8831 24.3184 2.8701
7.7159 24.5825 2.8701
7.5437 24.8429 2.8701
7.3663 25.0992 2.8701
7.1839 25.3511 2.8701
6.9965 25.5984 2.8701
6.8041 25.8407 2.8701
6.6066 26.0777 2.8701
6.4043 26.3093 2.8701
6.1973 26.5349 2.8701
5.9855 26.7544 2.8701
5.6936 26.6147 2.8326
5.4027 26.4621 2.7949
5.1164 26.3118 2.7588
4.8358 26.1715 2.7250
4.6015 26.2759 2.7177
4.3763 26.4429 2.7177
4.1475 26.6022 2.7177
3.9152 26.7536 2.7177
3.6796 26.8968 2.7177
3.4408 27.0316 2.7177
3.1990 27.1577 2.7177
2.9544 27.2750 2.7177
2.7072 27.3831 2.7177
2.4577 27.4829 2.7178
2.2060 27.5736 2.7179
1.8871 26.7322 2.6273
1.6272 26.5892 2.6066
1.3702 26.4479 2.5871
1.1163 26.3082 2.5687
0.8652 26.1701 2.5515
0.6145 25.9366 2.5260
0.3698 25.8020 2.5110
0.1282 25.7742 2.5074
-0.1124 25.6419 2.4945
-0.3506 25.5108 2.4826
-0.5864 25.3811 2.4717
-0.8199 25.2527 2.4619
-1.0512 25.1254 2.4530
-1.2804 24.9994 2.4451
-1.5074 24.8745 2.4381
-1.7325 24.7506 2.4321
-1.9556 24.6279 2.4270
-2.1769 24.5062 2.4229
-2.3963 24.3855 2.4196
-2.6139 24.2658 2.4172
-2.8299 24.1470 2.4157
-3.0441 24.0291 2.4151
-3.2568 23.9121 2.4153
-3.4680 23.7959 2.4164
-3.6776 23.6806 2.4183
-3.8712 23.4775 2.4120
-4.0773 23.3641 2.4155
-4.2821 23.2524 2.4200
-4.5021 23.2260 2.4342
-4.7051 23.1143 2.4402
-4.9068 23.0034 2.4470
-5.1074 22.8930 2.4546
-5.3069 22.7833 2.4630
-5.5052 22.6741 2.4722
-5.7026 22.5656 2.4821
-5.8990 22.4575 2.4929
-6.0944 22.3500 2.5044
-6.2889 22.2430 2.5166
-6.4826 22.1364 2.5297
-6.6754 22.0304 2.5435
-6.8674 21.9247 2.5580
-7.0587 21.8194 2.5734
-7.2493 21.7146 2.5895
-7.4392 21.6101 2.6063
-7.6284 21.5060 2.6239
-2.7715 7.5880 0.9368
-2.8577 7.6032 0.9500
-8.3042 21.4842 2.7177
-8.4288 21.2163 2.7177
-8.5488 20.9473 2.7177
-8.6640 20.6769 2.7177
-8.7746 20.4055 2.7177
-8.8807 20.1332 2.7177
-8.9821 19.8603 2.7177
-9.0791 19.5869 2.7177
-9.1716 19.3133 2.7177
-9.2598 19.0396 2.7177
-9.3436 18.7660 2.7177
-9.4232 18.4926 2.7177
-9.5167 18.2542 2.7228
-9.6782 18.1502 2.7484
-9.8432 18.0534 2.7757
-10.0080 17.9565 2.8038
-10.1727 17.8596 2.8325
-10.3373 17.7626 2.8619
-10.4218 17.5311 2.8701
-10.4730 17.2504 2.8701
-10.5205 16.9713 2.8701
-10.5644 16.6939 2.8701
-10.6048 16.4183 2.8701
-10.6416 16.1446 2.8701
-10.6752 15.8729 2.8701
-10.7054 15.6032 2.8701
-10.7324 15.3356 2.8701
-10.7564 15.0702 2.8701
-10.7773 14.8071 2.8701
-10.7952 14.5464 2.8701
-10.8104 14.2880 2.8701
-10.8227 14.0320 2.8701
-10.8323 13.7785 2.8701
-10.8394 13.5276 2.8701
-10.8439 13.2791 2.8701
-10.8459 13.0333 2.8701
-10.8456 12.7900 2.8701
-10.8430 12.5494 2.8701
-10.8382 12.3115 2.8701
-10.8312 12.0762 2.8701
-10.8221 11.8436 2.8701
-10.8110 11.6137 2.8701
-10.7980 11.3865 2.8701
-10.7831 11.1620 2.8701
-10.7664 10.9402 2.8701
-10.7479 10.7211 2.8701
-10.7277 10.5048 2.8701
-10.7060 10.2911 2.8701
-10.6826 10.0801 2.8701
-10.6578 9.8719 2.8701
-10.6314 9.6663 2.8701
-10.6037 9.4634 2.8701
-10.5747 9.2632 2.8701
-10.5443 9.0655 2.8701
-10.5127 8.8705 2.8701
-10.4800 8.6782 2.8701
-10.4460 8.4884 2.8701
-10.4110 8.3012 2.8701
-10.3749 8.1165 2.8701
-10.3378 7.9344 2.8701
-10.2997 7.7548 2.8701
-10.2607 7.5777 2.8701
-10.2208 7.4030 2.8701
-10.1800 7.2308 2.8701
-10.1385 7.0610 2.8701
-10.0961 6.8936 2.8701
-10.0530 6.7285 2.8701
-9.4777 6.2172 2.7177
-9.4356 6.0653 2.7177
-9.3928 5.9156 2.7177
-9.3495 5.7680 2.7177
-9.3056 5.6226 2.7177
8.4652 7.1641 2.8701
8.4747 7.3065 2.8701
8.4831 7.4501 2.8701
8.4901 7.5952 2.8701
8.4958 7.7415 2.8701
8.5003 7.8892 2.8701
8.5033 8.0382 2.8701
8.5050 8.1885 2.8701
8.5052 8.3400 2.8701
8.5039 8.4929 2.8701
8.5011 8.6470 2.8701
8.4968 8.8024 2.8701
8.4909 8.9589 2.8701
8.4833 9.1167 2.8701
8.4741 9.2756 2.8701
8.4632 9.4357 2.8701
8.4506 9.5969 2.8701
8.4361 9.7593 2.8701
8.4198 9.9226 2.8701
8.4017 10.0870 2.8701
8.3817 10.2525 2.8701
8.3597 10.4188 2.8701
8.3357 10.5861 2.8701
8.3097 10.7543 2.8701
8.2816 10.9233 2.8701
8.2514 11.0931 2.8701
8.2191 11.2636 2.8701
8.1846 11.4349 2.8701
8.1478 11.6068 2.8701
8.1087 11.7793 2.8701
8.0674 11.9523 2.8701
7.8710 11.8950 2.8155
7.6410 11.7807 2.7490
7.5081 11.8115 2.7177
7.4598 11.9768 2.7177
7.4092 12.1422 2.7177
7.3562 12.3078 2.7177
7.3007 12.4734 2.7177
7.2429 12.6390 2.7177
7.1824 12.8045 2.7177
7.1195 12.9698 2.7177
7.0540 13.1349 2.7177
6.9860 13.2996 2.7177
6.9154 13.4639 2.7177
6.8421 13.6277 2.7177
6.7662 13.7909 2.7177
6.6876 13.9533 2.7177
6.6064 14.1150 2.7177
6.5224 14.2757 2.7177
6.4358 14.4355 2.7177
6.3464 14.5941 2.7177
6.2543 14.7515 2.7177
6.1594 14.9076 2.7177
6.4018 15.9070 2.8701
4.5380 11.5822 2.0688
4.4525 11.6790 2.0655
4.3774 11.8072 2.0680
5.9608 16.5430 2.8701
5.8433 16.6971 2.8701
5.7230 16.8489 2.8701
5.5999 16.9984 2.8701
5.4739 17.1454 2.8701
5.3452 17.2898 2.8701
5.2137 17.4315 2.8701
5.0795 17.5703 2.8701
4.9426 17.7062 2.8701
4.8031 17.8389 2.8701
4.6609 17.9684 2.8701
4.5162 18.0946 2.8701
4.3690 18.2174 2.8701
4.2194 18.3365 2.8701
4.0673 18.4519 2.8701
3.9129 18.5635 2.8701
3.7563 18.6712 2.8701
3.5975 18.7748 2.8701
3.4365 18.8743 2.8701
3.2735 18.9696 2.8701
3.1086 19.0604 2.8701
2.9418 19.1469 2.8701
2.7731 19.2287 2.8701
2.6029 19.3059 2.8701
2.4309 19.3784 2.8701
2.2575 19.4461 2.8701
2.0827 19.5089 2.8701
1.9066 19.5667 2.8701
1.7292 19.6195 2.8701
1.5508 19.6672 2.8701
1.3714 19.7098 2.8701
1.1911 19.7472 2.8701
1.0101 19.7794 2.8701
0.8284 19.8062 2.8701
0.6461 19.8278 2.8701
0.4635 19.8441 2.8701
0.2805 19.8550 2.8701
0.0974 19.8605 2.8701
-0.0858 19.8607 2.8701
-0.2689 19.8555 2.8701
-0.4519 19.8449 2.8701
-0.6345 19.8290 2.8701
-0.8168 19.8078 2.8701
-0.9985 19.7812 2.8701
-1.1796 19.7494 2.8701
-1.3599 19.7123 2.8701
-1.5394 19.6701 2.8701
-1.7179 19.6227 2.8701
-1.8953 19.5702 2.8701
-2.0715 19.5127 2.8701
-2.2465 19.4502 2.8701
-2.4200 19.3829 2.8701
-2.5920 19.3107 2.8701
-2.7624 19.2337 2.8701
-2.9311 19.1522 2.8701
-3.0981 19.0661 2.8701
-3.2631 18.9755 2.8701
-3.4262 18.8805 2.8701
-3.5873 18.7813 2.8701
-3.7463 18.6779 2.8701
-3.9031 18.5705 2.8701
-4.0576 18.4591 2.8701
-4.2098 18.3439 2.8701
-4.3596 18.2250 2.8701
-4.5069 18.1025 2.8701
-4.6518 17.9766 2.8701
-4.7941 17.8472 2.8701
-4.9338 17.7147 2.8701
-5.0709 17.5790 2.8701
-5.2053 17.4404 2.8701
-5.3369 17.2989 2.8701
-5.4658 17.1546 2.8701
-5.5919 17.0078 2.8701
-5.7153 16.8585 2.8701
-5.8357 16.7068 2.8701
-2.7489 7.6431 1.3252
-2.8042 7.5773 1.3263
-6.1800 16.2388 2.8701
-6.2890 16.0790 2.8701
-6.3952 15.9173 2.8701
-6.4984 15.7540 2.8701
-6.5987 15.5893 2.8701
-6.6962 15.4231 2.8701
-6.7908 15.2556 2.8701
-6.8824 15.0870 2.8701
-6.9713 14.9173 2.8701
-7.0573 14.7466 2.8701
-7.1404 14.5751 2.8701
-7.2207 14.4029 2.8701
-7.2983 14.2299 2.8701
-7.3731 14.0565 2.8701
-7.4451 13.8825 2.8701
-7.5144 13.7082 2.8701
-7.5811 13.5337 2.8701
-7.6450 13.3589 2.8701
-7.7064 13.1840 2.8701
-7.7651 13.0091 2.8701
-7.8212 12.8342 2.8701
-7.8749 12.6595 2.8701
-7.9260 12.4850 2.8701
-7.9746 12.3107 2.8701
-8.0209 12.1368 2.8701
-8.1823 11.4458 2.8701
-8.0647 11.9633 2.8701
-8.2169 11.2745 2.8701
-8.1062 11.7902 2.8701
-8.2494 11.1039 2.8701
-8.1454 11.6177 2.8701
-8.2797 10.9340 2.8701
-8.3582 10.4294 2.8701
-8.3080 10.7650 2.8701
-8.3803 10.2630 2.8701
-8.3341 10.5968 2.8701
-8.4005 10.0975 2.8701
-8.4625 9.4459 2.8701
-8.4187 9.9331 2.8701
-8.4735 9.2858 2.8701
-8.4351 9.7696 2.8701
-8.4828 9.1268 2.8701
-8.4497 9.6072 2.8701
-8.4905 8.9689 2.8701
-8.5038 8.5026 2.8701
-8.4965 8.8123 2.8701
-8.5052 8.3497 2.8701
-8.5009 8.6568 2.8701
-8.5050 8.1981 2.8701
-8.4905 7.6044 2.8701
-8.5035 8.0477 2.8701
-8.0330 7.0633 2.7177
-8.5005 7.8986 2.8701
-8.4962 7.7508 2.8701
-8.0253 6.9271 2.7177
-8.0163 6.7923 2.7177
-7.9828 6.3954 2.7177
-8.0062 6.6587 2.7177
-7.9695 6.2658 2.7177
-7.9951 6.5264 2.7177
-7.9552 6.1374 2.7177
-7.9399 6.0103 2.7177
-7.9236 5.8845 2.7177
-7.9064 5.7601 2.7177
-7.8883 5.6369 2.7177
-7.8694 5.5150 2.7177
-7.8496 5.3944 2.7177
-7.8289 5.2751 2.7177
-7.8075 5.1571 2.7177
-7.7853 5.0404 2.7177
-7.7623 4.9250 2.7177
-7.7386 4.8109 2.7177
7.0515 6.1092 2.8701
7.0496 6.2202 2.8701
7.0464 6.3319 2.8701
7.0422 6.4444 2.8701
7.0368 6.5575 2.8701
7.0303 6.6714 2.8701
7.0226 6.7859 2.8701
7.0136 6.9011 2.8701
7.0034 7.0170 2.8701
6.9919 7.1334 2.8701
6.9791 7.2505 2.8701
6.9650 7.3682 2.8701
6.9496 7.4864 2.8701
6.9328 7.6052 2.8701
6.9146 7.7245 2.8701
6.8950 7.8442 2.8701
6.8739 7.9645 2.8701
6.8514 8.0852 2.8701
6.8275 8.2063 2.8701
6.8020 8.3277 2.8701
6.7750 8.4496 2.8701
6.7465 8.5717 2.8701
6.7164 8.6941 2.8701
6.6846 8.8168 2.8701
6.6513 8.9397 2.8701
6.6164 9.0628 2.8701
6.5797 9.1860 2.8701
6.5415 9.3094 2.8701
6.5015 9.4327 2.8701
6.4598 9.5561 2.8701
6.4163 9.6795 2.8701
6.3712 9.8028 2.8701
6.3242 9.9260 2.8701
6.2755 10.0490 2.8701
6.2249 10.1719 2.8701
6.1726 10.2945 2.8701
6.1184 10.4167 2.8701
6.0624 10.5386 2.8701
6.0045 10.6601 2.8701
5.9447 10.7811 2.8701
5.8013 10.7501 2.8302
5.6322 10.6667 2.7777
5.4672 10.5854 2.7270
5.3848 10.6616 2.7177
5.3193 10.7732 2.7177
5.2519 10.8840 2.7177
5.1828 10.9940 2.7177
5.1117 11.1031 2.7177
5.0389 11.2112 2.7177
4.9643 11.3183 2.7177
4.8878 11.4244 2.7177
4.8096 11.5294 2.7177
4.7295 11.6331 2.7177
4.6477 11.7356 2.7177
4.4629 11.5743 2.6574
4.3894 11.6985 2.6635
4.3147 11.8244 2.6702
4.3026 12.1318 2.7177
4.2120 12.2271 2.7177
4.1196 12.3207 2.7177
4.0256 12.4127 2.7177
3.9298 12.5028 2.7177
3.8324 12.5912 2.7177
3.7334 12.6776 2.7177
3.6328 12.7621 2.7177
3.5306 12.8446 2.7177
3.4268 12.9250 2.7177
3.3216 13.0033 2.7177
3.2148 13.0794 2.7177
3.1066 13.1532 2.7177
3.1651 13.9664 2.8701
3.0479 14.0394 2.8701
2.9293 14.1099 2.8701
2.8093 14.1777 2.8701
2.6881 14.2429 2.8701
2.5656 14.3054 2.8701
2.4418 14.3650 2.8701
2.3169 14.4219 2.8701
2.1909 14.4759 2.8701
2.0638 14.5269 2.8701
1.9357 14.5750 2.8701
1.8068 14.6202 2.8701
1.6769 14.6622 2.8701
1.5461 14.7012 2.8701
1.4147 14.7370 2.8701
1.2825 14.7697 2.8701
1.1497 14.7993 2.8701
1.0163 14.8256 2.8701
0.8824 14.8487 2.8701
0.7481 14.8685 2.8701
0.6133 14.8851 2.8701
0.4783 14.8984 2.8701
0.3431 14.9085 2.8701
0.2076 14.9152 2.8701
0.0721 14.9186 2.8701
-0.0635 14.9187 2.8701
-0.1990 14.9155 2.8701
-0.3345 14.9090 2.8701
-0.4697 14.8992 2.8701
-0.6048 14.8861 2.8701
-0.7395 14.8697 2.8701
-0.8739 14.8500 2.8701
-1.0078 14.8271 2.8701
-1.1412 14.8010 2.8701
-1.2741 14.7717 2.8701
-1.4063 14.7392 2.8701
-1.5378 14.7035 2.8701
-1.6686 14.6648 2.8701
-1.7985 14.6229 2.8701
-1.9276 14.5780 2.8701
-2.0557 14.5301 2.8701
-2.1828 14.4792 2.8701
-2.3089 14.4254 2.8701
-2.4339 14.3687 2.8701
-2.5577 14.3092 2.8701
-2.6803 14.2470 2.8701
-2.8017 14.1819 2.8701
-2.9217 14.1143 2.8701
-3.0404 14.0440 2.8701
-3.1577 13.9711 2.8701
-3.2735 13.8957 2.8701
-3.3878 13.8179 2.8701
-3.5007 13.7377 2.8701
-3.6119 13.6552 2.8701
-3.7216 13.5704 2.8701
-3.8296 13.4834 2.8701
-3.9360 13.3943 2.8701
-4.0407 13.3031 2.8701
-4.1437 13.2099 2.8701
-4.2449 13.1148 2.8701
-4.5379 12.8186 2.8701
-4.3444 13.0178 2.8701
-2.7655 7.5925 1.7136
-4.4420 12.9191 2.8701
-2.8423 7.5885 1.7268
-5.0740 12.1829 2.8701
-4.8144 12.5073 2.8701
-5.1568 12.0722 2.8701
-4.9028 12.4006 2.8701
-5.2376 11.9602 2.8701
-4.9893 12.2924 2.8701
-5.3165 11.8471 2.8701
-5.5418 11.5017 2.8701
-5.3935 11.7330 2.8701
-5.6131 11.3848 2.8701
-5.4687 11.6178 2.8701
-5.6825 11.2670 2.8701
-5.9408 10.7888 2.8701
-5.7499 11.1484 2.8701
-6.0007 10.6678 2.8701
-5.8154 11.0292 2.8701
-6.0587 10.5464 2.8701
-5.8791 10.9093 2.8701
-6.1149 10.4245 2.8701
-6.2723 10.0569 2.8701
-6.1692 10.3022 2.8701
-6.3212 9.9338 2.8701
-6.5390 9.3172 2.8701
-6.2217 10.1797 2.8701
-6.3682 9.8107 2.8701
-6.5774 9.1939 2.8701
-6.7446 8.5795 2.8701
-6.4135 9.6874 2.8701
-6.6141 9.0706 2.8701
-6.7732 8.4573 2.8701
-6.4571 9.5640 2.8701
-6.6492 8.9475 2.8701
-6.4989 9.4406 2.8701
-6.4392 7.8929 2.7177
-6.6826 8.8246 2.8701
-6.5276 7.4349 2.7177
-6.7144 8.7019 2.8701
-6.4635 7.7778 2.7177
-6.5463 7.3215 2.7177
-6.6199 6.7617 2.7177
-6.4863 7.6631 2.7177
-6.5636 7.2085 2.7177
-6.6308 6.6514 2.7177
-6.5076 7.5488 2.7177
-6.5796 7.0960 2.7177
-6.6406 6.5416 2.7177
-6.6680 6.1090 2.7177
-6.5943 6.9840 2.7177
-6.6492 6.4325 2.7177
-6.6721 6.0024 2.7177
-6.6077 6.8726 2.7177
-6.6751 5.8966 2.7177
-6.6566 6.3240 2.7177
-6.6767 5.4803 2.7177
-6.6770 5.7915 2.7177
-6.6629 6.2162 2.7177
-6.6746 5.3781 2.7177
-6.6779 5.6870 2.7177
-6.6717 5.2766 2.7177
-6.6778 5.5833 2.7177
-6.6677 5.1759 2.7177
-6.6506 4.8783 2.7177
-6.6629 5.0759 2.7177
-6.6432 4.7807 2.7177
-6.6572 4.9767 2.7177
-6.6349 4.6838 2.7177
-6.6259 4.5878 2.7177
-6.6160 4.4925 2.7177
-6.6054 4.3981 2.7177
-6.5940 4.3045 2.7177
-6.5819 4.2116 2.7177
6.0001 5.3246 2.8701
5.9921 5.4142 2.8701
5.9832 5.5043 2.8701
5.9733 5.5948 2.8701
5.9624 5.6856 2.8701
5.9505 5.7768 2.8701
5.9376 5.8684 2.8701
5.9236 5.9603 2.8701
5.9086 6.0525 2.8701
5.8925 6.1450 2.8701
5.8753 6.2378 2.8701
5.8570 6.3308 2.8701
5.8376 6.4241 2.8701
5.8171 6.5176 2.8701
5.7954 6.6113 2.8701
5.7726 6.7052 2.8701
5.7485 6.7992 2.8701
5.7233 6.8934 2.8701
5.6969 6.9877 2.8701
5.6693 7.0820 2.8701
5.6405 7.1765 2.8701
5.6104 7.2709 2.8701
5.5791 7.3654 2.8701
5.5465 7.4598 2.8701
5.5126 7.5543 2.8701
5.4775 7.6486 2.8701
5.4410 7.7428 2.8701
5.4033 7.8369 2.8701
5.3641 7.9308 2.8701
5.3237 8.0245 2.8701
5.2820 8.1180 2.8701
5.2389 8.2113 2.8701
5.1945 8.3042 2.8701
5.1487 8.3968 2.8701
5.1015 8.4891 2.8701
5.0530 8.5809 2.8701
5.0031 8.6724 2.8701
4.9518 8.7633 2.8701
4.8992 8.8537 2.8701
4.8451 8.9437 2.8701
4.7897 9.0330 2.8701
4.7328 9.1216 2.8701
4.6746 9.2097 2.8701
4.6150 9.2970 2.8701
4.5540 9.3836 2.8701
4.4916 9.4694 2.8701
4.4278 9.5544 2.8701
4.3627 9.6386 2.8701
4.2962 9.7218 2.8701
4.2282 9.8041 2.8701
4.1339 9.8257 2.8528
4.0050 9.7624 2.8115
3.8786 9.7003 2.7716
3.7547 9.6393 2.7329
3.6631 9.6584 2.7177
3.5912 9.7301 2.7177
3.5181 9.8007 2.7177
3.4437 9.8700 2.7177
3.3681 9.9381 2.7177
3.2914 10.0050 2.7177
3.2135 10.0705 2.7177
3.1344 10.1346 2.7177
3.0542 10.1973 2.7177
2.9729 10.2586 2.7177
2.8905 10.3184 2.7177
2.8070 10.3767 2.7177
2.7225 10.4334 2.7177
2.6370 10.4886 2.7177
2.5504 10.5421 2.7177
2.4629 10.5940 2.7177
2.3744 10.6442 2.7177
2.2851 10.6926 2.7177
2.1948 10.7393 2.7177
2.1037 10.7842 2.7177
2.0117 10.8273 2.7177
1.9190 10.8686 2.7177
1.8255 10.9079 2.7177
1.7312 10.9454 2.7177
1.6363 10.9809 2.7177
1.5407 11.0145 2.7177
1.4445 11.0461 2.7177
1.3477 11.0757 2.7177
1.2504 11.1033 2.7177
1.1525 11.1289 2.7177
1.0542 11.1524 2.7177
0.9554 11.1738 2.7177
0.8562 11.1931 2.7177
0.7567 11.2103 2.7177
0.6569 11.2254 2.7177
0.5568 11.2384 2.7177
0.4565 11.2493 2.7177
0.3559 11.2580 2.7177
0.2553 11.2645 2.7177
0.1545 11.2689 2.7177
0.0536 11.2711 2.7177
-0.0472 11.2712 2.7177
-0.1480 11.2691 2.7177
-0.2489 11.2648 2.7177
-0.3496 11.2584 2.7177
-0.4501 11.2499 2.7177
-0.5813 11.8694 2.8701
-0.6870 11.8559 2.8701
-0.7925 11.8401 2.8701
-0.8976 11.8220 2.8701
-1.0023 11.8017 2.8701
-1.1066 11.7793 2.8701
-1.2105 11.7546 2.8701
-1.3139 11.7277 2.8701
-1.4167 11.6987 2.8701
-1.5190 11.6676 2.8701
-1.6207 11.6344 2.8701
-1.7217 11.5990 2.8701
-1.8219 11.5616 2.8701
-1.9215 11.5222 2.8701
-2.0203 11.4807 2.8701
-2.1183 11.4373 2.8701
-2.2155 11.3919 2.8701
-2.3118 11.3446 2.8701
-2.4071 11.2954 2.8701
-2.5016 11.2444 2.8701
-2.5951 11.1915 2.8701
-2.6876 11.1368 2.8701
-2.7790 11.0804 2.8701
-2.8695 11.0223 2.8701
-2.9588 10.9625 2.8701
-3.0470 10.9010 2.8701
-3.1341 10.8379 2.8701
-3.2200 10.7733 2.8701
-3.3048 10.7072 2.8701
-3.3884 10.6395 2.8701
-3.4707 10.5705 2.8701
-3.5519 10.5000 2.8701
-3.6317 10.4281 2.8701
-3.7103 10.3550 2.8701
-2.7916 7.5769 2.1153
-3.8637 10.2048 2.8701
-3.9384 10.1279 2.8701
-4.0118 10.0499 2.8701
-4.0838 9.9708 2.8701
-4.1546 9.8905 2.8701
-3.9995 9.2885 2.7177
-4.0639 9.2106 2.7177
-4.1269 9.1319 2.7177
-4.1887 9.0522 2.7177
-4.2493 8.9718 2.7177
-4.3085 8.8905 2.7177
-4.3663 8.8086 2.7177
-4.4228 8.7259 2.7177
-4.4781 8.6426 2.7177
-4.5320 8.5587 2.7177
-4.5845 8.4741 2.7177
-4.6358 8.3891 2.7177
-4.6858 8.3034 2.7177
-4.7344 8.2174 2.7177
-4.7817 8.1308 2.7177
-4.8278 8.0439 2.7177
-4.8725 7.9565 2.7177
-4.9160 7.8689 2.7177
-4.9581 7.7809 2.7177
-4.9990 7.6926 2.7177
-5.0386 7.6041 2.7177
-5.0769 7.5153 2.7177
-5.1140 7.4264 2.7177
-5.1498 7.3373 2.7177
-5.1844 7.2481 2.7177
-5.2178 7.1588 2.7177
-5.2500 7.0694 2.7177
-5.2809 6.9800 2.7177
-5.3106 6.8905 2.7177
-5.3392 6.8011 2.7177
-5.3666 6.7117 2.7177
-5.3928 6.6223 2.7177
-5.4179 6.5330 2.7177
-5.4418 6.4439 2.7177
-5.4646 6.3548 2.7177
-5.4863 6.2659 2.7177
-5.5069 6.1771 2.7177
-5.5264 6.0886 2.7177
-5.5449 6.0003 2.7177
-5.5623 5.9121 2.7177
-5.5786 5.8243 2.7177
-5.5938 5.7367 2.7177
-5.6082 5.6493 2.7177
-5.6215 5.5623 2.7177
-5.6338 5.4756 2.7177
-5.6451 5.3892 2.7177
-5.6555 5.3031 2.7177
-5.6649 5.2175 2.7177
-5.6734 5.1322 2.7177
-5.6810 5.0472 2.7177
-5.6877 4.9627 2.7177
-5.6935 4.8786 2.7177
-5.6984 4.7949 2.7177
-5.7025 4.7116 2.7177
-5.7057 4.6288 2.7177
-5.7081 4.5464 2.7177
-5.7096 4.4645 2.7177
-5.7361 4.4027 2.7299
-5.7944 4.3653 2.7577
-5.8530 4.3276 2.7859
-5.9120 4.2895 2.8148
-5.9714 4.2512 2.8442
-6.0225 4.2065 2.8701
-6.0182 4.1234 2.8699
-6.0132 4.0408 2.8697
-6.0074 3.9589 2.8695
