ply
format ascii 1.0
element vertex 2076
property float32 x
property float32 y
property float32 z
end_header
-8.0897 7.2265 -4.2417
-7.7285 7.3501 -4.2480
-8.2126 7.1844 -4.2400
-7.8477 7.3093 -4.2457
-8.3368 7.1418 -4.2384
-7.9681 7.2681 -4.2436
-8.7157 7.3113 -4.3640
-8.8785 7.1406 -4.3133
-8.8338 7.2562 -4.3567
-8.9230 7.0261 -4.2706
-8.9623 6.4784 -4.0440
-8.9672 6.9125 -4.2285
-9.1423 6.4669 -4.0657
-8.2484 6.2241 -3.8325
-9.2130 6.3765 -4.0384
-8.6471 6.3867 -3.9592
-9.2446 6.2596 -3.9944
-9.0058 5.8335 -3.7816
-9.2761 6.1437 -3.9510
-9.3386 5.9149 -3.8661
-9.5716 5.5313 -3.7458
-9.3697 5.8019 -3.8245
-10.1165 5.7104 -3.9043
-9.7235 5.8852 -3.9134
-10.1795 5.6110 -3.8744
-10.2424 5.5116 -3.8447
-9.7733 5.7807 -3.8787
-10.8207 5.6828 -4.0060
-10.8991 5.5847 -3.9798
-17.6620 5.9277 -5.2542
-17.6935 6.1339 -5.3359
-17.8590 5.7979 -5.2408
-45.5524 12.8247 -12.6543
-45.6234 12.3612 -12.5007
-45.8492 11.9395 -12.3904
-45.3097 13.2396 -12.7610
-45.9084 11.4744 -12.2360
-46.3064 11.0920 -12.1721
-24.7007 1.9584 -5.1605
-24.8942 1.7312 -5.1233
-24.4562 1.4630 -4.9575
-25.0437 0.7701 -4.8478
-24.2199 1.2138 -4.8353
-25.1550 0.5304 -4.7939
-24.5975 0.9944 -4.8358
-23.7921 -0.4164 -4.2537
-25.1745 0.2877 -4.7227
-24.8460 -0.6743 -4.3701
-24.9836 0.0445 -4.6130
-25.7276 -0.2023 -4.6748
-40.2908 -4.5986 -6.0666
-41.1705 -5.0996 -6.0863
-40.9084 -4.2718 -6.2722
-40.8729 -5.4613 -5.9309
-39.8621 -6.4979 -5.4612
-40.9360 -5.8698 -5.8290
-41.1030 -6.2964 -5.7417
-43.1120 -20.7555 -2.5494
-38.8201 -19.1495 -2.1953
-27.5978 -14.9552 -1.2738
-25.6730 -14.2324 -1.1179
-35.3101 -17.8407 -1.9054
-23.9856 -13.5993 -0.9815
-32.2849 -16.7025 -1.6583
-22.5001 -13.0440 -0.8615
-21.1649 -12.5429 -0.7544
-29.7478 -15.7532 -1.4506
-19.9634 -12.0913 -0.6587
-18.8789 -11.6837 -0.5726
-17.9310 -11.3368 -0.4959
-16.8453 -10.8784 -0.4206
-15.8764 -10.4703 -0.3536
-15.1973 -10.2335 -0.2972
-14.7484 -10.1388 -0.2482
-14.3649 -10.0801 -0.2023
-14.0690 -10.0760 -0.1594
-13.7810 -10.0719 -0.1178
-13.5308 -10.0905 -0.0778
-13.3016 -10.1205 -0.0391
-13.0768 -10.1500 -0.0013
-7.6179 7.5497 -3.7400
-7.7424 7.5161 -3.7382
-7.8682 7.4820 -3.7365
-7.9954 7.4474 -3.7349
-8.1241 7.4125 -3.7334
-7.9919 7.1426 -3.6135
-8.0987 7.0897 -3.6031
-8.2063 7.0364 -3.5928
-8.3148 6.9828 -3.5826
-8.4241 6.9287 -3.5725
-8.5344 6.8742 -3.5625
-8.6456 6.8193 -3.5525
-8.7578 6.7640 -3.5427
-9.9317 7.5102 -3.9553
-8.9050 6.5924 -3.4918
-8.5003 6.1599 -3.2818
-9.0725 6.4349 -3.4491
-9.1695 6.3649 -3.4328
-8.8177 5.9891 -3.2508
-9.2677 6.1586 -3.3648
-9.3166 6.0561 -3.3313
-9.5564 6.0756 -3.3654
-9.5197 5.9182 -3.3019
-9.8015 5.9572 -3.3484
-9.8663 5.8614 -3.3199
-9.9312 5.7655 -3.2915
-9.9962 5.6697 -3.2633
-9.9758 5.5265 -3.2078
-10.6417 5.7568 -3.3706
-10.1086 5.3382 -3.1538
-44.8049 16.1876 -11.2936
-45.3226 15.3707 -11.0742
-44.3949 14.5701 -10.6791
-44.4337 14.0999 -10.5217
-45.6229 13.9850 -10.6340
-45.7229 13.5255 -10.4895
-45.8228 13.0673 -10.3460
-45.5455 12.5064 -10.1197
-46.2914 12.2246 -10.1208
-46.9867 11.9172 -10.1073
-46.8834 11.4038 -9.9216
-47.1072 10.9715 -9.8063
-16.9390 3.5978 -3.4108
-25.3381 1.8596 -3.9711
-23.8800 1.5205 -3.6705
-24.8577 1.3415 -3.7463
-24.2283 1.0728 -3.5792
-24.6966 0.8546 -3.5752
-25.2163 0.6289 -3.5761
-25.2350 0.3857 -3.5049
-24.8076 0.1398 -3.3732
-25.3846 -0.1018 -3.3781
-23.9158 -0.3265 -3.1136
-25.8761 -0.6027 -3.2946
-42.4559 -4.2720 -4.4487
-39.9614 -4.4094 -4.0766
-40.8287 -4.9028 -4.0522
-41.0335 -5.3278 -3.9594
-40.6185 -6.0697 -3.6964
-40.9050 -5.7113 -3.8346
-39.7947 -6.3380 -3.5125
-44.4042 -21.2458 -0.2806
-39.8094 -19.5211 -0.1391
-30.2993 -15.9612 0.1532
-36.1146 -18.1433 -0.0238
-28.0502 -15.1240 0.2226
-32.9882 -16.9731 0.0723
-26.0619 -14.3785 0.2823
-21.4216 -12.6418 0.4204
-20.1813 -12.1745 0.4560
-24.3310 -13.7318 0.3344
-19.0681 -11.7561 0.4879
-22.7873 -13.1525 0.3800
-18.0915 -11.3971 0.5174
-17.0014 -10.9418 0.5378
-15.9949 -10.5145 0.5548
-15.2647 -10.2478 0.5766
-14.8092 -10.1516 0.6054
-14.4041 -10.0807 0.6340
-14.1046 -10.0765 0.6654
-13.8133 -10.0724 0.6958
-13.5552 -10.0873 0.7265
-13.3236 -10.1177 0.7574
-8.0085 7.9305 -3.3378
-7.6949 7.4656 -3.1514
-7.8185 7.4319 -3.1467
-7.9435 7.3978 -3.1420
-8.0700 7.3633 -3.1374
-8.0950 7.2363 -3.0935
-8.3273 7.2929 -3.1283
-8.5638 7.3475 -3.1627
-8.9458 7.5188 -3.2480
-9.1395 7.5246 -3.2626
-8.4448 6.8103 -2.9641
-8.5532 6.7558 -2.9519
-8.5748 6.6331 -2.9099
-8.6841 6.5785 -2.8979
-8.7944 6.5234 -2.8859
-8.9058 6.4678 -2.8739
-9.1107 6.4774 -2.8913
-9.2333 6.4256 -2.8816
-9.2769 6.3185 -2.8472
-10.0976 6.1603 -2.8503
-9.3397 6.2248 -2.8189
-10.1788 6.0711 -2.8254
-9.3884 6.1221 -2.7867
-10.0249 5.8443 -2.7363
-9.7840 5.5739 -2.6260
-9.3648 5.9737 -2.7335
-9.6100 5.3485 -2.5361
-9.5285 5.9448 -2.7351
-9.3442 5.0794 -2.4245
-10.8906 5.2373 -2.5942
-9.2595 4.9146 -2.3621
-9.1772 4.7546 -2.3016
-37.1047 17.3933 -8.6871
-9.0972 4.5992 -2.2429
-9.0195 4.4481 -2.1859
-36.6235 16.7276 -8.4266
-36.2691 16.1343 -8.2005
-36.8504 15.9587 -8.1868
-39.3893 15.6913 -8.2962
-39.1081 15.1348 -8.0899
-44.1544 16.0966 -8.8070
-38.8334 14.5909 -7.8886
-44.6069 13.8248 -8.1011
-42.6802 15.0859 -8.3575
-44.5798 13.3396 -7.9416
-43.3403 14.8422 -8.3305
-45.2617 13.0628 -7.9076
-46.3111 12.8767 -7.9332
-43.8409 14.5348 -8.2703
-45.7738 12.2469 -7.6867
-43.2740 13.8777 -8.0104
-24.2201 2.1024 -2.6954
-24.0623 1.8544 -2.6065
-23.8533 1.3752 -2.4433
-24.4728 1.6483 -2.5786
-24.3499 1.1679 -2.4228
-24.4461 0.2278 -2.1491
-25.4793 0.9756 -2.4610
-25.5176 -0.0083 -2.1700
-25.2233 0.7220 -2.3630
-24.3440 -0.2427 -2.0005
-25.1729 0.4775 -2.2855
-25.5661 -0.5014 -2.0280
-25.2176 -0.9811 -1.8570
-25.3392 -0.7413 -1.9379
-25.0970 -1.2187 -1.7771
-40.2206 -3.9006 -2.2821
-40.3776 -4.3086 -2.1779
-33.9615 -2.6345 -2.1176
-41.2391 -4.8025 -2.1090
-40.6529 -5.5295 -1.8518
-40.7221 -5.1401 -1.9687
-41.0108 -5.9808 -1.7536
-41.5739 -6.4723 -1.6616
-41.2281 -6.8256 -1.5327
-41.0385 -7.2008 -1.4111
-33.6227 -17.2098 1.8714
-30.8413 -16.1659 1.8135
-40.7944 -19.8911 2.0170
-28.4900 -15.2881 1.7654
-36.8876 -18.4313 1.9381
-26.4387 -14.5201 1.7227
-23.0635 -13.2568 1.6518
-24.6514 -13.8522 1.6856
-21.6590 -12.7316 1.6221
-17.1474 -11.0009 1.5139
-20.3891 -12.2539 1.5943
-16.1100 -10.5587 1.4776
-19.2479 -11.8249 1.5692
-15.3421 -10.2710 1.4604
-18.2430 -11.4541 1.5487
-14.8651 -10.1634 1.4671
-14.4397 -10.0812 1.4763
-14.1369 -10.0769 1.4960
-13.8423 -10.0728 1.5151
-13.5769 -10.0845 1.5359
-8.1838 8.0965 -2.8210
-8.0646 7.8185 -2.7282
-7.7717 7.3834 -2.5804
-7.8944 7.3496 -2.5727
-8.0185 7.3153 -2.5649
-8.1275 7.2658 -2.5519
-8.1917 7.1759 -2.5248
-8.3483 7.1658 -2.5257
-8.4601 7.1151 -2.5125
-8.5730 7.0641 -2.4993
-8.9707 7.2417 -2.5672
-9.3424 7.3882 -2.6244
-9.5745 7.4168 -2.6401
-9.1921 6.9744 -2.4880
-8.7135 6.4748 -2.3149
-9.1641 6.6684 -2.3896
-9.1505 6.5197 -2.3419
-9.2033 6.4197 -2.3117
-9.3194 6.3635 -2.2972
-9.4367 6.3066 -2.2827
-9.5553 6.2491 -2.2680
-9.6752 6.1910 -2.2532
-9.5176 5.9576 -2.1746
-9.9655 6.1010 -2.2336
-10.0443 6.0131 -2.2083
-10.1234 5.9249 -2.1829
-9.5818 5.4812 -2.0262
-9.3251 5.2125 -1.9335
-9.2409 5.0461 -1.8785
-9.1591 4.8845 -1.8252
-9.0796 4.7276 -1.7734
-9.0023 4.5750 -1.7231
-10.7001 5.3057 -2.0067
-35.3950 17.1184 -6.5026
-35.3288 16.6593 -6.3570
-36.9761 16.9934 -6.5152
-36.7732 16.4642 -6.3436
-36.5558 15.9377 -6.1724
-44.7369 18.9840 -7.3918
-39.1190 16.1491 -6.3235
-44.8920 18.0193 -7.0974
-44.2696 17.2678 -6.8435
-43.7246 16.5639 -6.6071
-43.8068 16.1067 -6.4685
-46.0939 16.4379 -6.6487
-44.3544 12.4802 -5.3715
-44.6183 12.0871 -5.2605
-44.5693 11.6097 -5.1128
-45.0734 9.8886 -4.6061
-44.3132 11.0841 -4.9433
-16.9648 3.5497 -1.6813
-44.7222 10.7258 -4.8485
-47.9923 9.5570 -4.6093
-45.9419 10.5476 -4.8373
-24.3953 1.7301 -1.4020
-24.5805 1.5049 -1.3416
-24.3612 1.2556 -1.2594
-25.3223 0.5710 -1.0911
-24.5691 1.0286 -1.1995
-25.2176 0.3253 -1.0145
-24.8739 0.8011 -1.1430
-25.1581 -0.6461 -0.7254
-24.8171 0.0808 -0.9275
-25.0435 -0.8848 -0.6510
-25.0812 -0.1603 -0.8659
-25.2737 -0.4052 -0.8006
-41.2006 -5.0555 -0.0183
-40.6233 -5.3828 0.0976
-41.0887 -5.8483 0.2159
-41.1470 -4.6466 -0.1353
-40.9081 -6.2258 0.3318
-49.1317 -8.4505 0.6799
-39.6163 -15.0876 2.9069
-45.3694 -15.7820 2.9069
-37.9896 -14.8924 2.9069
-43.2871 -15.5301 2.9069
-36.4814 -14.7118 2.9069
-41.3762 -15.2995 2.9069
-35.0789 -14.5444 2.9069
-32.5482 -14.2438 2.9069
-33.7710 -14.3888 2.9069
-31.4024 -14.1083 2.9069
-26.0154 -12.9303 2.7545
-30.3260 -13.9816 2.9069
-25.2057 -12.8364 2.7545
-29.0789 -13.7519 2.8837
-24.4379 -12.7477 2.7545
-23.7087 -12.6638 2.7545
-26.8709 -13.0300 2.7545
-23.0152 -12.5843 2.7545
-22.3547 -12.5090 2.7545
-18.3902 -11.5094 2.6019
-21.7247 -12.4375 2.7545
-17.2889 -11.0581 2.5114
-16.2466 -10.6181 2.4222
-21.1229 -12.3695 2.7545
-15.4344 -10.3054 2.3609
-20.5476 -12.3048 2.7545
-14.9182 -10.1746 2.3405
-19.4234 -11.8921 2.6755
-14.4733 -10.0816 2.3282
-14.1672 -10.0773 2.3360
-13.8694 -10.0731 2.3435
-8.2267 7.9694 -2.2107
-7.7909 7.3974 -2.0506
-7.9291 7.3791 -2.0442
-8.0696 7.3605 -2.0377
-8.2124 7.3417 -2.0310
-8.3575 7.3225 -2.0242
-8.1256 6.9772 -1.9273
-8.2326 6.9276 -1.9121
-8.3405 6.8776 -1.8968
-8.4493 6.8271 -1.8813
-8.5591 6.7762 -1.8656
-8.6699 6.7248 -1.8498
-8.7817 6.6729 -1.8339
-8.8947 6.6204 -1.8177
-9.0087 6.5674 -1.8014
-9.2061 6.5727 -1.8010
-9.3122 6.5102 -1.7819
-9.2603 6.3383 -1.7330
-9.4028 6.3002 -1.7206
-9.4779 6.2157 -1.6955
-9.5531 6.1311 -1.6704
-9.6286 6.0462 -1.6452
-9.7043 5.9611 -1.6199
-10.1541 6.1004 -1.6554
-9.9686 5.8562 -1.5869
-9.3062 5.3446 -1.4461
-9.2224 5.1766 -1.3985
-9.1411 5.0135 -1.3522
-9.0621 4.8550 -1.3072
-8.9852 4.7009 -1.2635
-10.5167 5.3716 -1.4411
-35.7792 17.8348 -4.7755
-34.2866 16.6737 -4.4555
-34.8354 16.5210 -4.4054
-35.8412 16.5705 -4.4088
-35.8103 16.1333 -4.2824
-36.2786 15.9198 -4.2154
-37.0503 15.8289 -4.1805
-38.1130 15.8449 -4.1733
-44.0694 17.8192 -4.6799
-38.5908 15.1681 -3.9715
-39.2735 14.9964 -3.9140
-39.6119 14.6853 -3.8198
-39.6397 14.2584 -3.6953
-45.6343 15.9151 -4.1089
-44.8848 15.1659 -3.8995
-46.2879 15.1405 -3.8760
-46.2903 14.6451 -3.7318
-46.0920 14.0916 -3.5728
-47.6826 14.0735 -3.5491
-46.4288 13.2152 -3.3135
-46.7929 12.8298 -3.1968
-47.1607 12.4404 -3.0789
-47.5323 12.0472 -2.9598
-47.1573 11.4673 -2.7948
-16.9318 3.6001 -0.8523
-25.0979 1.3820 -0.1030
-25.1283 1.1407 -0.0315
-25.1587 0.8991 0.0400
-24.8585 0.6484 0.1103
-25.1626 0.4135 0.1832
-25.0845 0.1703 0.2541
-24.9705 -0.0713 0.3240
-24.8576 -0.3107 0.3933
-41.0470 -5.2963 2.0659
-49.0282 -7.2921 2.7545
-46.5890 -7.3904 2.7545
-44.3731 -7.4796 2.7545
-42.4283 -7.5746 2.7596
-42.7377 -8.0574 2.9069
-40.9381 -8.1293 2.9069
-39.2765 -8.1955 2.9069
-37.7375 -8.2567 2.9069
-36.3075 -8.3134 2.9069
-34.9753 -8.3660 2.9069
-33.7308 -8.4150 2.9069
-32.5655 -8.4608 2.9069
-31.4718 -8.5037 2.9069
-30.4431 -8.5438 2.9069
-29.4736 -8.5816 2.9069
-28.5581 -8.6171 2.9069
-27.6921 -8.6505 2.9069
-26.8716 -8.6821 2.9069
-26.0928 -8.7120 2.9069
-25.3526 -8.7402 2.9069
-24.6479 -8.7671 2.9069
-23.9763 -8.7925 2.9069
-23.3352 -8.8167 2.9069
-22.7226 -8.8397 2.9069
-22.1364 -8.8616 2.9069
-21.5748 -8.8825 2.9069
-21.0364 -8.9025 2.9069
-20.5195 -8.9216 2.9069
-20.0227 -8.9398 2.9069
-19.5449 -8.9572 2.9069
-19.0849 -8.9739 2.9069
-18.6416 -8.9899 2.9069
-18.2140 -9.0053 2.9069
-17.8012 -9.0200 2.9069
-17.4026 -9.0342 2.9069
-17.0172 -9.0478 2.9069
-16.6442 -9.0609 2.9069
-15.7137 -8.7562 2.8053
-15.0979 -8.6093 2.7545
-14.7764 -8.6204 2.7545
-14.4664 -8.6322 2.7549
-14.1648 -8.6433 2.7551
-13.8714 -8.6538 2.7553
-13.5860 -8.6637 2.7554
-13.3080 -8.6732 2.7555
-13.0351 -8.6807 2.7550
-12.7668 -8.6862 2.7540
-12.5019 -8.6889 2.7522
-12.2408 -8.6892 2.7498
-8.2681 7.8462 -1.6178
-7.8553 7.3078 -1.5001
-7.9925 7.2890 -1.4894
-8.1319 7.2699 -1.4784
-8.2736 7.2504 -1.4671
-8.4098 7.2240 -1.4543
-8.4981 7.1551 -1.4328
-8.5867 7.0859 -1.4111
-8.6756 7.0165 -1.3893
-8.7647 6.9467 -1.3673
-8.8543 6.8767 -1.3451
-8.5452 6.5027 -1.2638
-8.6530 6.4513 -1.2454
-9.1240 6.6638 -1.2775
-9.2978 6.6515 -1.2659
-9.4241 6.6029 -1.2472
-9.5520 6.5537 -1.2281
-9.5907 6.4427 -1.1974
-9.5893 6.3062 -1.1619
-9.5879 6.1716 -1.1269
-9.5722 6.0297 -1.0906
-9.5849 5.9075 -1.0580
-9.8580 5.9435 -1.0535
-9.2873 5.4763 -0.9601
-9.2040 5.3067 -0.9198
-9.1231 5.1420 -0.8805
-9.0445 4.9821 -0.8424
-8.9681 4.8266 -0.8052
-10.3292 5.4299 -0.8931
-34.7801 17.8531 -2.8928
-35.4671 17.7715 -2.8341
-36.1790 17.6898 -2.7739
-36.0474 17.1930 -2.6480
-37.1600 17.2823 -2.6113
-36.8946 16.7246 -2.4759
-36.5731 16.1525 -2.3394
-36.3344 15.6273 -2.2108
-37.2937 15.6127 -2.1536
-37.2268 15.1620 -2.0351
-38.1798 15.1202 -1.9703
-45.2218 8.4073 0.3072
-46.0411 8.1013 0.4431
-46.8875 7.7850 0.5839
-47.7628 7.4581 0.7298
-48.6684 7.1197 0.8810
-25.0964 0.5015 1.3760
-48.0242 0.0334 2.9069
-45.8576 -0.4104 2.9069
-43.8732 -0.8160 2.9069
-42.0486 -1.1880 2.9069
-40.3652 -1.5304 2.9069
-38.8067 -1.8466 2.9069
-35.4008 -2.0273 2.7545
-34.1237 -2.2850 2.7545
-32.9315 -2.5250 2.7545
-31.8154 -2.7489 2.7545
-30.7684 -2.9584 2.7545
-30.9116 -3.2741 2.8588
-30.4533 -3.5238 2.9069
-29.5295 -3.7068 2.9069
-28.6560 -3.8793 2.9069
-27.8286 -4.0421 2.9069
-27.0436 -4.1960 2.9069
-26.2978 -4.3417 2.9069
-25.5880 -4.4799 2.9069
-24.9117 -4.6110 2.9069
-24.2664 -4.7356 2.9069
-23.6499 -4.8541 2.9069
-23.0601 -4.9670 2.9069
-22.4954 -5.0747 2.9069
-21.9541 -5.1775 2.9069
-21.4346 -5.2757 2.9069
-20.9356 -5.3696 2.9069
-20.4557 -5.4594 2.9069
-19.9939 -5.5455 2.9069
-19.5490 -5.6280 2.9069
-19.1200 -5.7072 2.9069
-18.7061 -5.7831 2.9069
-18.3063 -5.8561 2.9069
-17.9200 -5.9264 2.9069
-17.5463 -5.9939 2.9069
-17.1847 -6.0589 2.9069
-16.8344 -6.1215 2.9069
-16.4948 -6.1818 2.9069
-16.1656 -6.2400 2.9069
-15.8460 -6.2961 2.9069
-15.5357 -6.3503 2.9069
-15.2341 -6.4026 2.9069
-14.9409 -6.4531 2.9069
-14.6554 -6.5018 2.9068
-14.3734 -6.5470 2.9059
-14.1002 -6.5913 2.9053
-13.8356 -6.6349 2.9050
-13.5778 -6.6770 2.9048
-13.3263 -6.7178 2.9045
-13.0814 -6.7575 2.9043
-12.8426 -6.7962 2.9042
-12.6095 -6.8337 2.9041
-12.3804 -6.8693 2.9037
-12.1509 -6.9007 2.9020
-11.9250 -6.9301 2.8999
-11.7023 -6.9574 2.8973
-11.4828 -6.9826 2.8943
-11.2664 -7.0057 2.8909
-11.0528 -7.0268 2.8870
-10.8403 -7.0447 2.8822
-10.6482 -7.0722 2.8817
-10.4608 -7.0996 2.8815
-10.2771 -7.1262 2.8813
-33.0287 31.9523 -4.3993
-33.4249 31.7054 -4.3148
-33.8436 31.4767 -4.2320
-7.9172 7.2198 -0.9585
-8.0412 7.1896 -0.9419
-8.1601 7.1532 -0.9243
-8.2803 7.1162 -0.9063
-8.4018 7.0788 -0.8880
-8.5248 7.0409 -0.8694
-8.4482 6.8397 -0.8306
-8.5338 6.7719 -0.8081
-8.6197 6.7039 -0.7855
-8.7060 6.6355 -0.7626
-8.7925 6.5668 -0.7394
-9.1645 6.7063 -0.7391
-9.2557 6.6354 -0.7148
-9.1552 6.4293 -0.6761
-9.4231 6.4812 -0.6644
-9.1854 6.1869 -0.6172
-9.4325 6.2208 -0.6029
-9.4964 6.1312 -0.5761
-9.5519 6.0364 -0.5487
-9.1971 5.6878 -0.4990
-9.1242 5.5210 -0.4661
-9.0534 5.3588 -0.4341
-8.9844 5.2009 -0.4028
-8.9172 5.0472 -0.3722
-34.8916 19.3048 -1.3494
-35.1084 18.9828 -1.2508
-35.3250 18.6601 -1.1516
-35.5417 18.3367 -1.0519
-35.7583 18.0125 -0.9515
-38.5446 18.9509 -0.9112
-35.5966 17.0761 -0.7364
-35.5650 16.6400 -0.6314
-35.5356 16.2096 -0.5271
-36.8393 16.3763 -0.4394
-38.9209 16.8535 -0.3517
-38.8014 16.3589 -0.2389
-39.7478 16.3080 -0.1309
-39.6279 15.8139 -0.0174
-34.0895 12.4736 0.2747
-34.6007 12.2839 0.3762
-35.2447 12.1315 0.4821
-35.7798 11.9315 0.5895
-36.3278 11.7268 0.6999
-36.8892 11.5171 0.8135
-37.4646 11.3021 0.9303
-38.0546 11.0817 1.0505
-38.6599 10.8555 1.1742
-39.1358 10.5841 1.2969
-39.9128 10.3832 1.4329
-40.5686 10.1382 1.5683
-41.2429 9.8863 1.7081
-41.9367 9.6271 1.8523
-42.6510 9.3602 2.0013
-16.9547 3.5503 0.8423
-43.9999 8.7729 2.3069
-44.9387 8.5116 2.4799
-47.5494 8.5333 2.7550
-45.3819 7.6946 2.7545
-43.4643 6.9401 2.7580
-43.8998 6.5775 2.9069
-42.1402 5.9000 2.9069
-40.5140 5.2756 2.9069
-39.0062 4.6982 2.9069
-37.6043 4.1627 2.9069
-36.2972 3.6649 2.9069
-35.0753 3.2010 2.9069
-33.9304 2.7675 2.9069
-32.8552 2.3617 2.9069
-31.8433 1.9810 2.9069
-30.8892 1.6232 2.9069
-28.4158 1.2189 2.7545
-27.6075 0.9179 2.7545
-25.0214 0.5906 2.5677
-25.2263 0.3522 2.6609
-25.4223 0.1098 2.7545
-24.7638 -0.1318 2.7545
-24.1359 -0.3614 2.7545
-23.7772 -0.5856 2.7827
-24.2340 -0.8310 2.9069
-23.6553 -1.0400 2.9069
-23.1009 -1.2393 2.9069
-22.5692 -1.4297 2.9069
-22.0587 -1.6116 2.9069
-21.5682 -1.7857 2.9069
-21.0963 -1.9524 2.9069
-20.6420 -2.1121 2.9069
-20.2042 -2.2653 2.9069
-19.7820 -2.4123 2.9069
-19.3745 -2.5535 2.9069
-18.9808 -2.6892 2.9069
-18.6002 -2.8197 2.9069
-18.2321 -2.9454 2.9069
-17.8757 -3.0663 2.9069
-17.5304 -3.1829 2.9069
-17.1957 -3.2953 2.9069
-16.8710 -3.4037 2.9069
-16.5554 -3.5082 2.9068
-16.2477 -3.6088 2.9065
-15.9486 -3.7060 2.9062
-15.6585 -3.8001 2.9060
-15.3765 -3.8911 2.9059
-15.1021 -3.9791 2.9058
-14.8349 -4.0644 2.9056
-14.5746 -4.1469 2.9055
-14.3209 -4.2267 2.9054
-14.0734 -4.3042 2.9053
-13.8320 -4.3792 2.9052
-13.5964 -4.4520 2.9050
-13.3662 -4.5225 2.9049
-13.1414 -4.5910 2.9048
-12.9217 -4.6575 2.9047
-12.7064 -4.7219 2.9045
-12.4897 -4.7820 2.9029
-12.2760 -4.8396 2.9009
-12.0649 -4.8946 2.8984
-11.8563 -4.9471 2.8954
-11.6508 -4.9973 2.8921
-11.4448 -5.0437 2.8876
-11.2569 -5.0948 2.8866
-11.0753 -5.1456 2.8864
-10.8972 -5.1951 2.8861
-10.7225 -5.2432 2.8859
-10.5510 -5.2901 2.8856
-10.3826 -5.3357 2.8854
-10.2172 -5.3802 2.8851
-10.0547 -5.4235 2.8849
-9.8950 -5.4657 2.8847
-9.7381 -5.5068 2.8845
-9.5837 -5.5469 2.8842
-9.4319 -5.5859 2.8840
-9.2825 -5.6239 2.8838
-9.1356 -5.6611 2.8836
-8.9908 -5.6973 2.8834
-8.8484 -5.7326 2.8832
-8.7080 -5.7670 2.8830
-8.5698 -5.8006 2.8828
-33.8232 34.0072 -2.4914
-33.7883 33.3163 -2.3688
-33.4362 32.3328 -2.2270
-33.0980 31.3879 -2.0900
-32.8946 30.5925 -1.9649
-33.1599 30.2432 -1.8689
-33.6273 30.0759 -1.7832
-34.2309 30.0221 -1.7025
-34.7098 29.8507 -1.6133
-8.1393 6.8636 -0.3521
-8.2558 6.8258 -0.3308
-8.3735 6.7875 -0.3091
-8.4926 6.7487 -0.2870
-8.6131 6.7093 -0.2644
-8.7350 6.6694 -0.2414
-8.8584 6.6289 -0.2179
-8.9833 6.5877 -0.1939
-9.1588 6.5812 -0.1703
-9.2073 6.4820 -0.1439
-9.2870 6.4048 -0.1178
-9.2443 6.2444 -0.0903
-9.1408 6.0468 -0.0628
-9.0407 5.8559 -0.0360
-9.0255 5.7232 -0.0101
-8.9564 5.5590 0.0154
-8.8891 5.3993 0.0404
-9.6052 5.7082 0.0707
-26.8610 15.2708 0.3476
-27.2271 15.1340 0.4278
-27.5992 14.9950 0.5097
-27.9774 14.8537 0.5935
-28.3620 14.7100 0.6792
-28.7533 14.5638 0.7669
-29.1514 14.4151 0.8566
-29.4441 14.2093 0.9448
-29.9612 14.1056 1.0422
-30.3815 13.9486 1.1385
-30.8097 13.7886 1.2371
-31.2464 13.6254 1.3382
-31.6916 13.4591 1.4419
-32.1459 13.2893 1.5482
-32.6096 13.1161 1.6572
-33.0830 12.9392 1.7691
-33.5667 12.7585 1.8839
-34.0609 12.5738 2.0019
-34.4423 12.3406 2.1154
-35.0812 12.1913 2.2474
-35.6101 11.9937 2.3754
-36.1516 11.7914 2.5071
-36.7061 11.5842 2.6425
-36.9073 11.2599 2.7545
-35.6449 10.5023 2.7545
-35.2178 10.0107 2.8147
-35.2063 9.6437 2.9069
-34.1118 8.9933 2.9069
-33.0823 8.3837 2.9069
-32.1118 7.8109 2.9069
-31.1954 7.2720 2.9069
-30.3282 6.7641 2.9069
-16.9244 3.6047 1.6674
-28.7266 5.8310 2.9069
-27.9853 5.4017 2.9069
-27.2795 4.9946 2.9069
-26.6068 4.6081 2.9069
-25.9647 4.2408 2.9069
-25.3511 3.8912 2.9069
-24.7640 3.5582 2.9069
-22.9328 3.0707 2.7545
-22.4218 2.7835 2.7545
-21.9313 2.5090 2.7545
-21.4600 2.2465 2.7545
-21.0067 1.9952 2.7545
-20.5704 1.7544 2.7545
-20.1500 1.5236 2.7545
-19.7447 1.3021 2.7545
-19.3535 1.0895 2.7545
-19.7236 0.9200 2.8631
-19.6401 0.7267 2.9069
-19.2673 0.5272 2.9069
-18.9064 0.3350 2.9069
-18.5569 0.1499 2.9069
-18.2182 -0.0285 2.9069
-17.8896 -0.2005 2.9069
-17.5708 -0.3666 2.9069
-17.2612 -0.5269 2.9069
-16.9604 -0.6818 2.9069
-16.6680 -0.8315 2.9069
-16.3836 -0.9763 2.9069
-16.1064 -1.1163 2.9068
-15.8361 -1.2517 2.9067
-15.5729 -1.3828 2.9066
-15.3164 -1.5098 2.9064
-15.0663 -1.6329 2.9063
-14.8223 -1.7522 2.9062
-14.5842 -1.8678 2.9060
-14.3518 -1.9800 2.9059
-14.1247 -2.0889 2.9058
-13.9029 -2.1945 2.9057
-13.6860 -2.2971 2.9056
-13.4739 -2.3968 2.9055
-13.2665 -2.4936 2.9054
-13.0634 -2.5877 2.9053
-12.8602 -2.6783 2.9042
-12.6578 -2.7655 2.9023
-12.4572 -2.8496 2.8998
-12.2584 -2.9308 2.8969
-12.0600 -3.0086 2.8930
-11.8754 -3.0866 2.8916
-11.6989 -3.1637 2.8913
-11.5259 -3.2387 2.8909
-11.3560 -3.3118 2.8906
-11.1892 -3.3830 2.8903
-11.0254 -3.4524 2.8901
-10.8644 -3.5200 2.8898
-10.7063 -3.5860 2.8895
-10.5509 -3.6503 2.8892
-10.3981 -3.7130 2.8890
-10.2479 -3.7741 2.8887
-10.1001 -3.8337 2.8884
-9.9547 -3.8919 2.8882
-9.8115 -3.9487 2.8880
-9.6706 -4.0041 2.8877
-9.5319 -4.0583 2.8875
-9.3952 -4.1111 2.8873
-9.2606 -4.1627 2.8870
-9.1279 -4.2130 2.8868
-8.9971 -4.2623 2.8866
-8.8682 -4.3104 2.8864
-8.7412 -4.3573 2.8862
-8.6158 -4.4032 2.8860
-8.4921 -4.4481 2.8858
-8.3701 -4.4919 2.8856
-8.2497 -4.5347 2.8854
-8.1308 -4.5766 2.8852
-8.0134 -4.6175 2.8850
-7.8975 -4.6576 2.8848
-7.7831 -4.6967 2.8846
-7.6699 -4.7349 2.8844
-7.5582 -4.7724 2.8843
-7.4478 -4.8090 2.8841
-7.3386 -4.8447 2.8839
-33.7823 33.2994 -0.1089
-33.4338 32.3259 -0.0121
-33.0988 31.3901 0.0820
-32.8922 30.5975 0.1739
-33.1500 30.2468 0.2677
-33.6129 30.0810 0.3643
-34.0804 29.9136 0.4629
-20.5030 17.6498 0.3343
-20.7826 17.5453 0.3950
-21.0652 17.4398 0.4569
-21.3508 17.3331 0.5200
-21.6396 17.2252 0.5844
-8.9867 7.0135 0.2664
-9.0107 6.8940 0.2907
-8.5721 6.4290 0.2988
-9.0521 6.6542 0.3390
-9.0724 6.5360 0.3632
-9.1596 6.4663 0.3902
-9.0659 6.2708 0.4094
-8.9947 6.0950 0.4291
-8.9253 5.9241 0.4484
-8.8579 5.7579 0.4674
-9.5861 6.1014 0.5300
-9.6633 6.0214 0.5585
-25.7293 15.6927 1.5515
-26.0752 15.5634 1.6376
-26.4264 15.4322 1.7255
-26.7831 15.2989 1.8155
-27.1454 15.1635 1.9075
-27.5136 15.0260 2.0016
-27.8878 14.8861 2.0979
-28.2684 14.7440 2.1964
-28.6554 14.5993 2.2973
-29.0492 14.4522 2.4006
-29.3379 14.2480 2.4969
-29.8500 14.1460 2.6142
-30.5903 14.1408 2.7545
-29.7738 13.4199 2.7545
-28.9998 12.7394 2.7545
-28.9138 12.3738 2.8178
-29.0904 12.1222 2.9069
-28.3875 11.5126 2.9069
-27.7169 10.9338 2.9069
-27.0765 10.3837 2.9069
-26.4642 9.8603 2.9069
-25.8780 9.3617 2.9069
-25.3162 8.8862 2.9069
-24.7771 8.4323 2.9069
-24.2595 7.9986 2.9069
-23.7619 7.5839 2.9069
-23.2831 7.1870 2.9069
-22.8219 6.8068 2.9069
-22.3774 6.4423 2.9069
-21.9486 6.0925 2.9069
-21.5347 5.7568 2.9069
-21.1347 5.4341 2.9069
-20.7479 5.1240 2.9069
-19.3055 4.5725 2.7545
-18.9622 4.3003 2.7545
-18.6294 4.0380 2.7545
-18.3069 3.7853 2.7545
-17.9939 3.5416 2.7545
-17.6902 3.3064 2.7545
-17.3951 3.0793 2.7545
-17.1084 2.8600 2.7545
-16.8295 2.6481 2.7545
-16.5583 2.4432 2.7545
-16.2942 2.2450 2.7545
-16.5401 2.1176 2.8409
-16.6599 1.9708 2.9069
-16.4022 1.7810 2.9069
-16.1507 1.5971 2.9069
-15.9054 1.4189 2.9069
-15.6660 1.2461 2.9069
-15.4322 1.0784 2.9069
-15.2038 0.9158 2.9069
-14.9801 0.7578 2.9068
-14.7612 0.6045 2.9067
-14.5471 0.4555 2.9066
-14.3377 0.3108 2.9065
-14.1327 0.1701 2.9063
-13.9320 0.0334 2.9062
-13.7355 -0.0995 2.9061
-13.5429 -0.2289 2.9060
-13.3542 -0.3547 2.9059
-13.1642 -0.4771 2.9047
-12.9740 -0.5958 2.9026
-12.7844 -0.7111 2.8999
-12.5987 -0.8232 2.8972
-12.4265 -0.9330 2.8968
-12.2575 -1.0399 2.8964
-12.0915 -1.1441 2.8960
-11.9284 -1.2457 2.8957
-11.7683 -1.3447 2.8953
-11.6109 -1.4413 2.8950
-11.4561 -1.5355 2.8947
-11.3040 -1.6273 2.8943
-11.1544 -1.7170 2.8940
-11.0071 -1.8045 2.8937
-10.8623 -1.8899 2.8934
-10.7197 -1.9732 2.8931
-10.5794 -2.0546 2.8928
-10.4412 -2.1341 2.8925
-10.3051 -2.2117 2.8922
-10.1710 -2.2876 2.8919
-10.0389 -2.3617 2.8917
-9.9087 -2.4341 2.8914
-9.7803 -2.5049 2.8911
-9.6538 -2.5741 2.8909
-9.5290 -2.6417 2.8906
-9.4059 -2.7079 2.8904
-9.2844 -2.7725 2.8901
-9.1646 -2.8358 2.8899
-9.0463 -2.8977 2.8896
-8.9295 -2.9582 2.8894
-8.8143 -3.0174 2.8892
-8.7004 -3.0754 2.8890
-8.5880 -3.1320 2.8887
-8.4769 -3.1875 2.8885
-8.3672 -3.2418 2.8883
-8.2587 -3.2950 2.8881
-8.1515 -3.3470 2.8879
-8.0456 -3.3980 2.8877
-7.9408 -3.4479 2.8875
-7.8372 -3.4967 2.8873
-7.7348 -3.5445 2.8871
-7.6334 -3.5914 2.8869
-7.5332 -3.6373 2.8868
-7.4340 -3.6822 2.8866
-7.3358 -3.7262 2.8864
-7.2386 -3.7693 2.8862
-7.1424 -3.8116 2.8860
-7.0471 -3.8529 2.8859
-6.9528 -3.8935 2.8857
-6.8594 -3.9332 2.8855
-6.7669 -3.9721 2.8854
-6.6752 -4.0102 2.8852
-6.5844 -4.0476 2.8850
-6.4944 -4.0842 2.8849
-6.4053 -4.1201 2.8847
-15.1829 19.6238 0.4676
-15.4172 19.5363 0.5127
-15.6529 19.4482 0.5586
-15.8900 19.3596 0.6054
-16.1286 19.2705 0.6531
-16.3687 19.1808 0.7017
-16.6104 19.0905 0.7512
-16.8538 18.9996 0.8017
-17.0988 18.9080 0.8532
-17.3457 18.8158 0.9057
-17.5944 18.7229 0.9591
-17.8450 18.6292 1.0137
-18.0976 18.5348 1.0692
-18.3522 18.4397 1.1259
-18.6090 18.3438 1.1837
-18.8680 18.2470 1.2426
-19.1293 18.1494 1.3027
-19.3342 17.9962 1.3598
-19.5895 17.8880 1.4213
-19.8571 17.7880 1.4848
-20.2091 17.7588 1.5559
-20.4831 17.6564 1.6222
-20.7600 17.5529 1.6899
-21.0397 17.4484 1.7589
-21.3225 17.3428 1.8294
-21.6083 17.2359 1.9013
-21.8974 17.1279 1.9747
-22.1898 17.0187 2.0496
-22.4856 16.9082 2.1261
-22.7849 16.7963 2.2042
-9.0428 6.5342 0.8946
-9.1108 6.4524 0.9212
-23.7055 16.4524 2.4487
-24.0203 16.3347 2.5337
-24.2489 16.1554 2.6109
-25.0743 16.3634 2.7546
-24.5832 15.7119 2.7545
-24.1113 15.0897 2.7545
-23.6566 14.4943 2.7545
-23.8169 14.2833 2.8255
-24.0563 14.1180 2.9069
-23.6249 13.5650 2.9069
-23.2080 13.0342 2.9069
-22.8047 12.5245 2.9069
-22.4143 12.0346 2.9069
-22.0362 11.5635 2.9069
-21.6696 11.1102 2.9069
-21.3141 10.6738 2.9069
-20.9691 10.2533 2.9069
-20.6340 9.8480 2.9069
-20.3085 9.4570 2.9069
-19.9920 9.0799 2.9069
-19.6842 8.7157 2.9069
-19.3846 8.3640 2.9069
-19.0929 8.0241 2.9069
-18.8088 7.6955 2.9069
-18.5319 7.3777 2.9069
-18.2619 7.0701 2.9069
-17.9985 6.7724 2.9069
-17.7414 6.4841 2.9069
-17.4905 6.2048 2.9069
-16.3412 5.6230 2.7545
-16.1143 5.3743 2.7545
-15.8925 5.1330 2.7545
-15.6756 4.8990 2.7545
-15.4634 4.6719 2.7545
-15.2557 4.4514 2.7545
-15.0525 4.2372 2.7545
-14.8534 4.0291 2.7545
-14.6585 3.8269 2.7545
-14.4674 3.6304 2.7545
-14.2802 3.4393 2.7545
-14.0966 3.2533 2.7545
-13.9865 3.0879 2.7684
-14.2007 2.9936 2.8469
-14.3171 2.8759 2.9069
-14.1375 2.6999 2.9069
-13.9607 2.5284 2.9068
-13.7870 2.3612 2.9067
-13.6139 2.1980 2.9061
-13.4380 2.0381 2.9042
-13.2716 1.8834 2.9037
-13.1081 1.7325 2.9032
-12.9474 1.5854 2.9028
-12.7893 1.4420 2.9023
-12.6339 1.3021 2.9019
-12.4810 1.1656 2.9015
-12.3305 1.0324 2.9010
-12.1825 0.9024 2.9006
-12.0367 0.7755 2.9002
-11.8932 0.6517 2.8998
-11.7519 0.5307 2.8995
-11.6126 0.4126 2.8991
-11.4755 0.2972 2.8987
-11.3403 0.1844 2.8984
-11.2071 0.0743 2.8980
-11.0758 -0.0334 2.8977
-10.9463 -0.1387 2.8973
-10.8186 -0.2415 2.8970
-10.6927 -0.3421 2.8967
-10.5684 -0.4406 2.8963
-10.4458 -0.5368 2.8960
-10.3249 -0.6309 2.8957
-10.2054 -0.7230 2.8954
-10.0875 -0.8131 2.8951
-9.9711 -0.9013 2.8948
-9.8561 -0.9876 2.8945
-9.7426 -1.0721 2.8943
-9.6304 -1.1548 2.8940
-9.5195 -1.2358 2.8937
-9.4100 -1.3151 2.8934
-9.3017 -1.3927 2.8932
-9.1947 -1.4687 2.8929
-9.0889 -1.5432 2.8927
-8.9843 -1.6162 2.8924
-8.8809 -1.6877 2.8922
-8.7786 -1.7577 2.8919
-8.6774 -1.8264 2.8917
-8.5772 -1.8936 2.8915
-8.4782 -1.9596 2.8912
-8.3801 -2.0241 2.8910
-8.2831 -2.0875 2.8908
-8.1870 -2.1496 2.8906
-8.0919 -2.2104 2.8904
-7.9978 -2.2701 2.8902
-7.9045 -2.3286 2.8900
-7.8122 -2.3860 2.8898
-7.7207 -2.4422 2.8896
-7.6301 -2.4974 2.8894
-7.5404 -2.5516 2.8892
-7.4514 -2.6046 2.8890
-7.3633 -2.6567 2.8888
-7.2759 -2.7078 2.8886
-7.1893 -2.7579 2.8884
-7.1035 -2.8070 2.8882
-7.0184 -2.8552 2.8881
-6.9340 -2.9026 2.8879
-6.8503 -2.9490 2.8877
-6.7674 -2.9945 2.8875
-6.6850 -3.0392 2.8874
-6.6034 -3.0830 2.8872
-6.5224 -3.1261 2.8870
-6.4420 -3.1683 2.8869
-6.3623 -3.2097 2.8867
-6.2831 -3.2504 2.8865
-6.2046 -3.2903 2.8864
-6.1266 -3.3295 2.8862
-6.0492 -3.3679 2.8861
-5.9724 -3.4056 2.8859
-5.8961 -3.4426 2.8858
-5.8204 -3.4789 2.8856
-5.7452 -3.5146 2.8855
-5.6705 -3.5496 2.8853
-14.9356 19.6398 1.5971
-15.2110 19.6125 1.6497
-15.4428 19.5259 1.6986
-15.6761 19.4388 1.7485
-15.9107 19.3511 1.7993
-16.1468 19.2629 1.8512
-16.3845 19.1741 1.9042
-16.6237 19.0847 1.9582
-16.8645 18.9947 2.0133
-17.1071 18.9041 2.0696
-17.3514 18.8128 2.1269
-17.5975 18.7209 2.1855
-17.8456 18.6282 2.2452
-18.0956 18.5348 2.3061
-18.3476 18.4406 2.3683
-18.6017 18.3456 2.4317
-18.8581 18.2499 2.4965
-19.1166 18.1532 2.5626
-19.3264 18.0081 2.6230
-20.0473 18.3290 2.7547
-19.8022 17.7643 2.7545
-19.5627 17.2188 2.7545
-19.3277 16.6905 2.7545
-19.0969 16.1790 2.7545
-19.2498 15.9988 2.8099
-19.4943 15.8933 2.8796
-19.4488 15.5530 2.9069
-19.2221 15.0765 2.9069
-18.9993 14.6144 2.9069
-18.7804 14.1661 2.9069
-18.5652 13.7310 2.9069
-9.0142 6.5363 1.4277
-9.0832 6.4566 1.4551
-9.1525 6.3768 1.4829
-17.7398 12.1130 2.9069
-17.5418 11.7369 2.9069
-17.3470 11.3713 2.9069
-17.1552 11.0159 2.9069
-16.9665 10.6702 2.9069
-16.7807 10.3340 2.9069
-16.5978 10.0068 2.9069
-16.4176 9.6884 2.9069
-16.2402 9.3785 2.9069
-16.0654 9.0768 2.9069
-15.8932 8.7829 2.9069
-15.7236 8.4967 2.9069
-15.5564 8.2179 2.9069
-15.3916 7.9462 2.9069
-15.2291 7.6814 2.9069
-15.0690 7.4233 2.9069
-14.9110 7.1717 2.9069
-13.9817 6.5631 2.7545
-13.8361 6.3363 2.7545
-13.6926 6.1150 2.7545
-13.5509 5.8990 2.7545
-13.4111 5.6883 2.7545
-13.2732 5.4826 2.7545
-13.1371 5.2818 2.7545
-13.0027 5.0858 2.7545
-12.8700 4.8943 2.7545
-12.7391 4.7073 2.7545
-12.6097 4.5246 2.7545
-12.4820 4.3461 2.7545
-12.3559 4.1717 2.7545
-12.2313 4.0012 2.7545
-12.1082 3.8346 2.7545
-12.2200 3.7432 2.8082
-12.3900 3.6674 2.8761
-12.3964 3.5420 2.9066
-12.2706 3.3807 2.9062
-12.1462 3.2230 2.9057
-12.0234 3.0687 2.9053
-11.9020 2.9178 2.9049
-11.7820 2.7702 2.9044
-11.6634 2.6257 2.9040
-11.5461 2.4844 2.9036
-11.4301 2.3461 2.9032
-11.3155 2.2107 2.9028
-11.2021 2.0781 2.9024
-11.0899 1.9484 2.9020
-10.9790 1.8213 2.9017
-10.8693 1.6969 2.9013
-10.7607 1.5750 2.9009
-10.6532 1.4556 2.9006
-10.5469 1.3387 2.9002
-10.4417 1.2242 2.8999
-10.3375 1.1119 2.8996
-10.2344 1.0019 2.8992
-10.1324 0.8941 2.8989
-10.0313 0.7885 2.8986
-9.9313 0.6849 2.8983
-9.8322 0.5834 2.8980
-9.7340 0.4839 2.8977
-9.6368 0.3863 2.8974
-9.5405 0.2906 2.8971
-9.4452 0.1967 2.8968
-9.3507 0.1047 2.8965
-9.2570 0.0144 2.8963
-9.1643 -0.0742 2.8960
-9.0723 -0.1610 2.8957
-8.9812 -0.2462 2.8954
-8.8908 -0.3298 2.8952
-8.8013 -0.4119 2.8949
-8.7125 -0.4925 2.8947
-8.6245 -0.5715 2.8944
-8.5373 -0.6490 2.8942
-8.4507 -0.7251 2.8940
-8.3649 -0.7999 2.8937
-8.2798 -0.8732 2.8935
-8.1954 -0.9452 2.8933
-8.1117 -1.0159 2.8930
-8.0286 -1.0853 2.8928
-7.9462 -1.1535 2.8926
-7.8644 -1.2204 2.8924
-7.7833 -1.2861 2.8922
-7.7027 -1.3506 2.8919
-7.6228 -1.4140 2.8917
-7.5435 -1.4762 2.8915
-7.4648 -1.5374 2.8913
-7.3867 -1.5974 2.8911
-7.3091 -1.6564 2.8909
-7.2321 -1.7144 2.8908
-7.1556 -1.7713 2.8906
-7.0797 -1.8272 2.8904
-7.0043 -1.8821 2.8902
-6.9294 -1.9361 2.8900
-6.8550 -1.9891 2.8898
-6.7812 -2.0412 2.8897
-6.7078 -2.0924 2.8895
-6.6349 -2.1427 2.8893
-6.5625 -2.1922 2.8891
-6.4905 -2.2407 2.8890
-6.4190 -2.2884 2.8888
-6.3480 -2.3353 2.8886
-6.2774 -2.3814 2.8885
-6.2072 -2.4267 2.8883
-6.1375 -2.4712 2.8882
-6.0682 -2.5149 2.8880
-5.9993 -2.5579 2.8878
-5.9308 -2.6001 2.8877
-5.8628 -2.6416 2.8875
-5.7951 -2.6824 2.8874
-5.7278 -2.7224 2.8872
-5.6608 -2.7618 2.8871
-5.5943 -2.8005 2.8870
-5.5281 -2.8386 2.8868
-5.4623 -2.8759 2.8867
-5.3968 -2.9127 2.8865
-5.3317 -2.9488 2.8864
-5.2669 -2.9842 2.8863
-5.2025 -3.0191 2.8861
-5.1384 -3.0533 2.8860
-5.0747 -3.0870 2.8859
-14.8717 19.8995 2.7545
-14.8260 19.4545 2.7545
-14.7772 19.0176 2.7545
-14.7258 18.5886 2.7545
-14.6719 18.1677 2.7545
-14.6190 17.7587 2.7551
-14.8189 17.6613 2.8040
-15.0278 17.5728 2.8554
-15.2329 17.4782 2.9069
-15.1650 17.0745 2.9069
-15.0953 16.6785 2.9069
-15.0239 16.2902 2.9069
-14.9509 15.9094 2.9069
-14.8765 15.5360 2.9069
-14.8007 15.1698 2.9069
-14.7236 14.8107 2.9069
-14.6453 14.4587 2.9069
-14.5659 14.1135 2.9069
-14.4855 13.7751 2.9069
-14.4041 13.4433 2.9069
-14.3219 13.1180 2.9069
-14.2389 12.7990 2.9069
-14.1552 12.4864 2.9069
-14.0708 12.1798 2.9069
-13.9859 11.8793 2.9069
-13.9003 11.5846 2.9069
-13.8144 11.2957 2.9069
-13.7279 11.0125 2.9069
-13.6412 10.7348 2.9069
-13.5540 10.4626 2.9069
-13.4666 10.1956 2.9069
-13.3790 9.9339 2.9069
-9.0006 6.5533 1.9685
-9.0687 6.4740 1.9966
-9.1370 6.3947 2.0252
-13.0268 8.9368 2.9069
-12.9385 8.6995 2.9069
-12.8502 8.4668 2.9069
-12.7619 8.2386 2.9069
-12.6736 8.0147 2.9069
-11.9256 7.3865 2.7545
-11.8420 7.1824 2.7545
-11.7586 6.9822 2.7545
-11.6753 6.7859 2.7545
-11.5921 6.5932 2.7545
-11.5091 6.4043 2.7545
-11.4262 6.2189 2.7545
-11.3435 6.0370 2.7545
-11.2610 5.8585 2.7545
-11.1787 5.6834 2.7545
-11.0967 5.5116 2.7545
-11.0149 5.3430 2.7545
-10.9333 5.1775 2.7545
-10.8520 5.0150 2.7545
-10.7710 4.8556 2.7545
-10.6902 4.6992 2.7545
-10.6097 4.5456 2.7545
-10.5296 4.3948 2.7545
-10.6545 4.3301 2.8085
-10.7918 4.2683 2.8665
-10.8597 4.1777 2.9068
-10.7749 4.0294 2.9064
-10.6906 3.8837 2.9060
-10.6066 3.7408 2.9056
-10.5230 3.6004 2.9052
-10.4398 3.4626 2.9049
-10.3569 3.3273 2.9045
-10.2745 3.1944 2.9041
-10.0298 2.8100 2.9031
-10.1925 3.0640 2.9038
-9.9490 2.6865 2.9027
-10.1109 2.9359 2.9034
-9.8686 2.5651 2.9024
-9.7886 2.4458 2.9021
-9.6300 2.2137 2.9014
-9.7091 2.3287 2.9017
-9.5512 2.1006 2.9011
-9.2403 1.6680 2.8999
-9.4729 1.9896 2.9008
-9.1636 1.5645 2.8996
-9.3949 1.8805 2.9005
-9.0873 1.4627 2.8993
-9.3174 1.7733 2.9002
-9.0114 1.3628 2.8990
-8.8607 1.1680 2.8985
-8.9358 1.2645 2.8987
-8.7860 1.0731 2.8982
-8.4909 0.7093 2.8972
-8.7116 0.9798 2.8979
-8.4182 0.6222 2.8969
-8.6377 0.8881 2.8977
-8.3457 0.5365 2.8967
-8.5641 0.7979 2.8974
-8.2737 0.4523 2.8964
-8.1307 0.2881 2.8959
-8.2020 0.3695 2.8962
-8.0598 0.2080 2.8957
-7.7797 -0.0992 2.8948
-7.9892 0.1293 2.8955
-7.7106 -0.1728 2.8946
-7.9190 0.0518 2.8952
-7.6418 -0.2453 2.8943
-7.8492 -0.0243 2.8950
-7.5734 -0.3165 2.8941
-7.4375 -0.4555 2.8937
-7.5053 -0.3866 2.8939
-7.3701 -0.5233 2.8935
-7.1038 -0.7837 2.8927
-7.3030 -0.5900 2.8933
-7.0380 -0.8462 2.8925
-7.2363 -0.6556 2.8931
-6.9726 -0.9076 2.8923
-7.1699 -0.7202 2.8929
-6.9075 -0.9681 2.8921
-6.7781 -1.0861 2.8918
-6.8426 -1.0276 2.8920
-6.7139 -1.1437 2.8916
-6.4601 -1.3649 2.8909
-6.6500 -1.2003 2.8914
-6.3974 -1.4180 2.8907
-6.5864 -1.2561 2.8912
-6.3350 -1.4703 2.8906
-6.5231 -1.3110 2.8911
-6.2728 -1.5217 2.8904
-6.2109 -1.5723 2.8902
-6.1493 -1.6221 2.8901
-5.8454 -1.8594 2.8893
-6.0880 -1.6711 2.8899
-5.7854 -1.9046 2.8891
-6.0270 -1.7193 2.8897
-5.7256 -1.9491 2.8890
-5.9662 -1.7668 2.8896
-5.6662 -1.9928 2.8888
-5.9056 -1.8134 2.8894
-5.6069 -2.0359 2.8887
-5.5479 -2.0783 2.8885
-5.2565 -2.2802 2.8878
-5.4892 -2.1200 2.8884
-5.1989 -2.3187 2.8877
-5.4306 -2.1610 2.8882
-5.1416 -2.3565 2.8876
-5.3724 -2.2014 2.8881
-5.0845 -2.3937 2.8874
-5.3143 -2.2411 2.8880
-5.0275 -2.4304 2.8873
-4.9708 -2.4664 2.8872
-4.9144 -2.5019 2.8870
-4.8581 -2.5367 2.8869
-4.8020 -2.5710 2.8868
-4.7462 -2.6048 2.8867
-4.6905 -2.6380 2.8865
-4.6351 -2.6706 2.8864
-4.5798 -2.7028 2.8863
-10.9240 14.8780 2.9069
-10.9409 14.6147 2.9069
-10.9550 14.3538 2.9069
-10.9662 14.0954 2.9069
-10.9748 13.8396 2.9069
-10.9808 13.5863 2.9069
-10.9842 13.3356 2.9069
-10.9852 13.0875 2.9069
-10.9838 12.8421 2.9069
-10.9801 12.5994 2.9069
-10.9742 12.3594 2.9069
-10.9661 12.1221 2.9069
-10.9559 11.8876 2.9069
-10.9438 11.6557 2.9069
-10.9297 11.4267 2.9069
-10.9137 11.2003 2.9069
-10.8959 10.9768 2.9069
-10.8764 10.7559 2.9069
-10.8552 10.5379 2.9069
-10.8324 10.3225 2.9069
-10.8080 10.1099 2.9069
-10.7821 9.9001 2.9069
-10.7547 9.6929 2.9069
-10.7260 9.4884 2.9069
-10.6959 9.2867 2.9069
-10.6645 9.0876 2.9069
-10.6319 8.8912 2.9069
-10.0424 8.2414 2.7545
-10.0094 8.0603 2.7545
-9.9752 7.8816 2.7545
-9.9401 7.7054 2.7545
-9.9040 7.5316 2.7545
-9.8670 7.3602 2.7545
-8.9844 6.5732 2.5178
-9.0519 6.4947 2.5468
-9.1195 6.4160 2.5762
-9.1872 6.3372 2.6061
-9.6694 6.5384 2.7545
-9.6277 6.3810 2.7545
-9.5852 6.2257 2.7545
-9.5422 6.0727 2.7545
-9.4985 5.9219 2.7545
-9.4543 5.7733 2.7545
-9.4095 5.6267 2.7545
-9.3641 5.4823 2.7545
-9.3183 5.3400 2.7545
-9.2720 5.1997 2.7545
-9.2253 5.0615 2.7545
-9.1781 4.9253 2.7545
-9.2565 4.8572 2.7925
-9.3696 4.8060 2.8416
-9.4844 4.7540 2.8918
-9.4818 4.6430 2.9067
-9.4290 4.5089 2.9063
-9.3759 4.3768 2.9060
-9.3226 4.2466 2.9057
-9.2689 4.1184 2.9053
-9.2150 3.9921 2.9050
-9.1609 3.8677 2.9047
-9.1066 3.7451 2.9044
-9.0521 3.6243 2.9041
-8.9974 3.5054 2.9038
-8.9426 3.3882 2.9034
-8.8876 3.2728 2.9031
-8.8325 3.1591 2.9028
-8.7772 3.0470 2.9026
-8.7218 2.9367 2.9023
-8.6664 2.8280 2.9020
-8.6108 2.7209 2.9017
-8.5552 2.6154 2.9014
-8.4995 2.5115 2.9011
-8.4438 2.4091 2.9009
-8.3880 2.3082 2.9006
-8.3321 2.2089 2.9003
-8.2763 2.1110 2.9001
-8.2204 2.0145 2.8998
-8.1645 1.9195 2.8996
-8.1086 1.8259 2.8993
-8.0527 1.7337 2.8991
-7.9968 1.6429 2.8988
-7.9410 1.5534 2.8986
-7.8851 1.4652 2.8983
-7.8293 1.3784 2.8981
-7.7735 1.2928 2.8978
-7.7177 1.2085 2.8976
-7.6620 1.1254 2.8974
-7.6064 1.0435 2.8972
-7.5508 0.9629 2.8969
-7.4953 0.8835 2.8967
-7.4398 0.8052 2.8965
-7.3844 0.7280 2.8963
-7.3291 0.6520 2.8961
-7.2738 0.5772 2.8959
-7.2187 0.5034 2.8956
-7.1636 0.4307 2.8954
-7.1086 0.3591 2.8952
-7.0537 0.2885 2.8950
-6.9988 0.2190 2.8948
-6.9441 0.1505 2.8946
-6.8895 0.0830 2.8944
-6.8350 0.0165 2.8943
-6.7805 -0.0491 2.8941
-6.7262 -0.1137 2.8939
-6.6720 -0.1773 2.8937
-6.6179 -0.2400 2.8935
-6.5639 -0.3018 2.8933
-6.2956 -0.5975 2.8924
-6.5100 -0.3627 2.8931
-6.2423 -0.6540 2.8923
-6.4562 -0.4227 2.8930
-6.1891 -0.7098 2.8921
-6.4026 -0.4818 2.8928
-6.1360 -0.7647 2.8919
-6.3490 -0.5401 2.8926
-6.0831 -0.8188 2.8918
-6.0302 -0.8721 2.8916
-5.9775 -0.9247 2.8915
-5.7679 -1.1273 2.8908
-5.9249 -0.9764 2.8913
-5.7158 -1.1761 2.8907
-5.8725 -1.0275 2.8911
-5.6638 -1.2242 2.8905
-5.8201 -1.0777 2.8910
-5.6119 -1.2715 2.8904
-5.5086 -1.3642 2.8901
-5.5602 -1.3182 2.8902
-5.4571 -1.4095 2.8899
-5.2524 -1.5842 2.8894
-5.4057 -1.4542 2.8898
-5.3545 -1.4982 2.8897
-5.2015 -1.6263 2.8892
-5.3034 -1.5415 2.8895
-5.1508 -1.6677 2.8891
-4.9992 -1.7884 2.8887
-5.1001 -1.7085 2.8890
-4.9490 -1.8274 2.8886
-5.0496 -1.7488 2.8888
-4.8988 -1.8659 2.8884
-4.7491 -1.9778 2.8881
-4.8488 -1.9037 2.8883
-4.6994 -2.0139 2.8879
-4.7989 -1.9410 2.8882
-4.6499 -2.0496 2.8878
-4.5019 -2.1533 2.8875
-4.6004 -2.0847 2.8877
-4.4528 -2.1868 2.8873
-4.4038 -2.2198 2.8872
-4.5511 -2.1192 2.8876
-4.3550 -2.2523 2.8871
-4.3062 -2.2843 2.8870
-4.2576 -2.3158 2.8869
-4.2090 -2.3468 2.8868
-4.1606 -2.3773 2.8867
-8.3033 11.5145 2.9069
-8.3374 11.3411 2.9069
-8.3694 11.1685 2.9069
-8.3991 10.9966 2.9069
-8.4268 10.8256 2.9069
-8.4523 10.6555 2.9069
-8.4759 10.4862 2.9069
-8.4974 10.3179 2.9069
-8.5169 10.1506 2.9069
-8.5346 9.9843 2.9069
-8.5503 9.8191 2.9069
-8.5642 9.6550 2.9069
-8.5764 9.4920 2.9069
-8.1366 8.8410 2.7545
-8.1448 8.6888 2.7545
-8.1514 8.5377 2.7545
-8.1565 8.3877 2.7545
-8.1600 8.2389 2.7545
-8.1621 8.0914 2.7545
-8.1627 7.9450 2.7545
-8.1619 7.7999 2.7545
-8.1598 7.6560 2.7545
-8.1563 7.5134 2.7545
-8.1516 7.3720 2.7545
-8.1455 7.2319 2.7545
-8.1382 7.0932 2.7545
-8.1298 6.9557 2.7545
-8.1202 6.8195 2.7545
-8.1094 6.6846 2.7545
-8.0975 6.5510 2.7545
-8.0846 6.4188 2.7545
-8.0706 6.2878 2.7545
-8.0556 6.1582 2.7545
-8.0395 6.0299 2.7545
-8.0226 5.9029 2.7545
-8.0047 5.7773 2.7545
-7.9859 5.6530 2.7545
-7.9662 5.5300 2.7545
-7.9458 5.4082 2.7545
-7.9928 5.3335 2.7783
-8.0882 5.2904 2.8193
-8.1847 5.2468 2.8612
-8.2823 5.2025 2.9041
-8.2638 5.0856 2.9066
-8.2366 4.9649 2.9063
-8.2086 4.8456 2.9061
-8.1799 4.7277 2.9058
-8.1505 4.6111 2.9055
-8.1206 4.4959 2.9052
-8.0900 4.3821 2.9049
-8.0587 4.2696 2.9047
-8.0270 4.1584 2.9044
-7.9946 4.0485 2.9041
-7.9618 3.9400 2.9039
-7.9284 3.8328 2.9036
-7.8945 3.7268 2.9033
-7.8601 3.6221 2.9031
-7.8253 3.5187 2.9028
-7.7900 3.4165 2.9026
-7.7543 3.3156 2.9023
-7.7181 3.2160 2.9021
-7.5318 2.7357 2.9008
-7.4934 2.6432 2.9006
-7.6816 3.1175 2.9018
-7.4548 2.5519 2.9004
-7.6447 3.0203 2.9016
-7.6074 2.9242 2.9013
-7.4159 2.4617 2.9001
-7.5697 2.8294 2.9011
-7.3766 2.3726 2.8999
-7.1358 1.8613 2.8986
-7.3372 2.2847 2.8997
-7.0949 1.7798 2.8984
-7.2974 2.1978 2.8995
-7.0537 1.6994 2.8982
-7.2573 2.1121 2.8992
-7.2171 2.0274 2.8990
-7.0124 1.6200 2.8979
-7.1766 1.9438 2.8988
-6.9709 1.5416 2.8977
-6.9292 1.4642 2.8975
-6.7184 1.0919 2.8965
-6.6758 1.0202 2.8963
-6.8873 1.3878 2.8973
-6.6331 0.9496 2.8961
-6.8453 1.3123 2.8971
-6.5902 0.8798 2.8960
-6.8031 1.2379 2.8969
-6.7608 1.1644 2.8967
-6.5473 0.8109 2.8958
-6.5043 0.7430 2.8956
-6.2878 0.4161 2.8947
-6.4611 0.6759 2.8954
-6.2443 0.3533 2.8945
-6.4179 0.6097 2.8952
-6.2007 0.2913 2.8943
-6.3746 0.5443 2.8950
-6.1571 0.2301 2.8942
-6.3313 0.4798 2.8949
-6.1134 0.1697 2.8940
-6.0696 0.1101 2.8938
-5.8503 -0.1763 2.8930
-6.0258 0.0513 2.8937
-5.8064 -0.2313 2.8929
-5.7624 -0.2856 2.8927
-5.9820 -0.0067 2.8935
-5.9381 -0.0640 2.8933
-5.7185 -0.3392 2.8925
-5.6745 -0.3920 2.8924
-5.8943 -0.1205 2.8932
-5.6304 -0.4442 2.8922
-5.4103 -0.6948 2.8915
-5.3663 -0.7429 2.8914
-5.5864 -0.4957 2.8921
-5.3223 -0.7904 2.8912
-5.5424 -0.5465 2.8919
-5.2783 -0.8372 2.8911
-5.4984 -0.5966 2.8918
-5.2343 -0.8834 2.8909
-5.4544 -0.6460 2.8916
-5.1903 -0.9290 2.8908
-4.9708 -1.1477 2.8901
-5.1464 -0.9739 2.8906
-4.9269 -1.1897 2.8900
-5.1025 -1.0183 2.8905
-4.8831 -1.2311 2.8898
-4.8393 -1.2719 2.8897
-5.0585 -1.0620 2.8904
-4.7956 -1.3122 2.8896
-5.0146 -1.1052 2.8902
-4.7518 -1.3519 2.8895
-4.5337 -1.5424 2.8888
-4.7081 -1.3911 2.8893
-4.4902 -1.5789 2.8887
-4.6645 -1.4297 2.8892
-4.4467 -1.6149 2.8886
-4.6208 -1.4678 2.8891
-4.4032 -1.6504 2.8885
-4.3598 -1.6854 2.8884
-4.5772 -1.5054 2.8890
-4.3165 -1.7199 2.8883
-4.2731 -1.7539 2.8881
-4.2299 -1.7874 2.8880
-4.1867 -1.8204 2.8879
-4.1435 -1.8530 2.8878
-4.1003 -1.8851 2.8877
-4.0572 -1.9167 2.8876
-4.0141 -1.9479 2.8875
-3.9711 -1.9786 2.8874
-3.9282 -2.0088 2.8873
-3.8852 -2.0386 2.8872
-3.8423 -2.0680 2.8871
-3.7995 -2.0969 2.8870
-6.2924 8.8887 2.7545
-6.3286 8.7703 2.7545
-6.3631 8.6519 2.7545
-6.3961 8.5338 2.7545
-6.4275 8.4158 2.7545
-6.4573 8.2980 2.7545
-6.4857 8.1805 2.7545
-6.5125 8.0632 2.7545
-6.5379 7.9463 2.7545
-6.5618 7.8298 2.7545
-6.5842 7.7136 2.7545
-6.6053 7.5978 2.7545
-6.6249 7.4825 2.7545
-6.6432 7.3676 2.7545
-6.6602 7.2532 2.7545
-6.6758 7.1393 2.7545
-6.6901 7.0259 2.7545
-6.7031 6.9131 2.7545
-6.7149 6.8009 2.7545
-6.7254 6.6892 2.7545
-6.7348 6.5782 2.7545
-6.7429 6.4677 2.7545
-6.7499 6.3580 2.7545
-6.7557 6.2489 2.7545
-6.7604 6.1404 2.7545
-6.7640 6.0327 2.7545
-6.7665 5.9256 2.7545
-6.7680 5.8193 2.7545
-6.8328 5.7680 2.7807
-6.9153 5.7310 2.8145
-6.9986 5.6937 2.8491
-7.0826 5.6559 2.8843
-7.1340 5.5917 2.9068
-7.1288 5.4838 2.9066
-7.1225 5.3767 2.9063
-7.1154 5.2705 2.9061
-7.1073 5.1651 2.9059
-7.0983 5.0606 2.9056
-7.0885 4.9570 2.9054
-7.0778 4.8543 2.9051
-7.0663 4.7524 2.9049
-7.0540 4.6514 2.9047
-7.0408 4.5513 2.9044
-7.0269 4.4520 2.9042
-7.0123 4.3537 2.9040
-6.9969 4.2562 2.9038
-6.9808 4.1597 2.9035
-6.9639 4.0640 2.9033
-6.9464 3.9692 2.9031
-6.9283 3.8754 2.9029
-6.9095 3.7823 2.9026
-6.8900 3.6902 2.9024
-6.8700 3.5990 2.9022
-6.8493 3.5087 2.9020
-6.8281 3.4192 2.9018
-6.8063 3.3307 2.9016
-6.7839 3.2430 2.9013
-6.7610 3.1562 2.9011
-6.7376 3.0702 2.9009
-6.7137 2.9852 2.9007
-6.6893 2.9010 2.9005
-6.6644 2.8177 2.9003
-6.6390 2.7352 2.9001
-6.6132 2.6536 2.8999
-6.5869 2.5728 2.8997
-6.5602 2.4929 2.8995
-6.5331 2.4138 2.8993
-6.5056 2.3356 2.8991
-6.4776 2.2582 2.8989
-6.4207 2.1059 2.8985
-6.4493 2.1816 2.8987
-6.3916 2.0309 2.8983
-6.2722 1.7393 2.8976
-6.3623 1.9568 2.8981
-6.2415 1.6684 2.8974
-6.3326 1.8835 2.8980
-6.2105 1.5982 2.8972
-6.3025 1.8110 2.8978
-6.1793 1.5289 2.8970
-6.1159 1.3925 2.8967
-6.1477 1.4603 2.8969
-6.0838 1.3254 2.8965
-5.9531 1.0647 2.8958
-6.0515 1.2591 2.8963
-5.9198 1.0013 2.8957
-6.0189 1.1935 2.8962
-5.8863 0.9387 2.8955
-5.9861 1.1287 2.8960
-5.7847 0.7551 2.8950
-5.8526 0.8768 2.8953
-5.8187 0.8156 2.8952
-5.7504 0.6954 2.8949
-5.6115 0.4631 2.8942
-5.7159 0.6363 2.8947
-5.5764 0.4068 2.8941
-5.6813 0.5779 2.8945
-5.5411 0.3511 2.8939
-5.6465 0.5202 2.8944
-5.5057 0.2960 2.8938
-5.4345 0.1879 2.8935
-5.4702 0.2416 2.8936
-5.3987 0.1348 2.8933
-5.2542 -0.0714 2.8927
-5.3627 0.0823 2.8932
-5.2178 -0.1214 2.8926
-5.3267 0.0305 2.8930
-5.1813 -0.1708 2.8925
-5.2905 -0.0208 2.8929
-5.1447 -0.2195 2.8923
-5.0712 -0.3154 2.8921
-5.1080 -0.2677 2.8922
-5.0343 -0.3624 2.8919
-4.8861 -0.5448 2.8914
-4.9974 -0.4088 2.8918
-4.8488 -0.5890 2.8912
-4.9604 -0.4547 2.8916
-4.8115 -0.6326 2.8911
-4.9233 -0.5000 2.8915
-4.7742 -0.6758 2.8910
-4.6993 -0.7604 2.8907
-4.7367 -0.7183 2.8909
-4.6617 -0.8019 2.8906
-4.5111 -0.9627 2.8901
-4.6241 -0.8428 2.8905
-4.4733 -1.0016 2.8900
-4.3219 -1.1524 2.8895
-4.5865 -0.8833 2.8904
-4.4355 -1.0401 2.8899
-4.2840 -1.1889 2.8894
-4.5488 -0.9233 2.8902
-4.3977 -1.0780 2.8898
-4.2460 -1.2250 2.8893
-4.1320 -1.3302 2.8890
-4.3598 -1.1155 2.8896
-4.2081 -1.2605 2.8892
-4.0940 -1.3643 2.8889
-3.9417 -1.4965 2.8884
-4.1701 -1.2956 2.8891
-4.0559 -1.3980 2.8888
-3.9036 -1.5284 2.8883
-4.0179 -1.4313 2.8886
-3.8654 -1.5599 2.8882
-3.9798 -1.4641 2.8885
-3.8273 -1.5910 2.8881
-3.7892 -1.6216 2.8880
-3.7510 -1.6518 2.8879
-3.7129 -1.6816 2.8878
-3.6747 -1.7110 2.8877
-3.6366 -1.7400 2.8876
-3.5984 -1.7686 2.8875
-3.5602 -1.7968 2.8874
-3.5221 -1.8245 2.8873
-3.4839 -1.8519 2.8872
-5.1998 7.4864 2.7545
-5.2356 7.3960 2.7545
-5.2701 7.3054 2.7545
-5.3034 7.2147 2.7545
-5.3354 7.1240 2.7545
-5.3663 7.0333 2.7545
-5.3959 6.9425 2.7545
-5.4243 6.8518 2.7545
-5.4516 6.7611 2.7545
-5.4776 6.6705 2.7545
-5.5026 6.5799 2.7545
-5.5263 6.4895 2.7545
-5.5489 6.3992 2.7545
-5.5705 6.3091 2.7545
-5.6030 6.2327 2.7605
-5.6755 6.2009 2.7866
-5.7484 6.1688 2.8133
-5.8218 6.1364 2.8405
-5.8955 6.1038 2.8684
-5.9698 6.0709 2.8968
-6.0052 5.9986 2.9068
-6.0185 5.9052 2.9066
-6.0308 5.8121 2.9064
-6.0420 5.7194 2.9062
-6.0523 5.6271 2.9060
-6.0615 5.5352 2.9058
-6.0697 5.4437 2.9056
-6.0769 5.3526 2.9054
-6.0832 5.2620 2.9052
-6.0886 5.1719 2.9050
-6.0930 5.0822 2.9048
-6.0965 4.9930 2.9046
-6.0991 4.9043 2.9044
-6.1017 4.6412 2.9039
-6.1008 4.8161 2.9042
-6.1009 4.5545 2.9037
-6.1017 4.7284 2.9041
-6.0992 4.4684 2.9035
-6.0896 4.2134 2.9029
-6.0968 4.3829 2.9033
-6.0584 3.7998 2.9020
-6.0848 4.1295 2.9027
-6.0936 4.2979 2.9031
-6.0793 4.0462 2.9025
-6.0501 3.7189 2.9018
-6.0101 3.4011 2.9010
-6.0731 3.9635 2.9023
-6.0411 3.6385 2.9016
-5.9985 3.3231 2.9009
-6.0661 3.8814 2.9022
-6.0314 3.5587 2.9014
-5.9462 3.0176 2.9001
-5.9863 3.2458 2.9007
-5.8684 2.6497 2.8993
-6.0210 3.4796 2.9012
-5.9317 2.9428 2.9000
-5.9735 3.1691 2.9005
-5.8513 2.5780 2.8991
-5.7781 2.2974 2.8984
-5.9167 2.8686 2.8998
-5.9601 3.0930 2.9003
-5.8337 2.5069 2.8989
-5.7586 2.2288 2.8982
-5.9011 2.7950 2.8996
-5.6766 1.9607 2.8976
-5.8156 2.4364 2.8988
-5.8850 2.7220 2.8994
-5.7388 2.1608 2.8981
-5.7971 2.3666 2.8986
-5.6551 1.8952 2.8974
-5.7185 2.0935 2.8979
-5.5653 1.6394 2.8968
-5.4453 1.3333 2.8960
-5.3175 1.0421 2.8953
-5.6332 1.8303 2.8973
-5.5420 1.5770 2.8966
-5.6978 2.0268 2.8978
-5.2911 0.9856 2.8951
-5.4203 1.2739 2.8959
-5.5183 1.5152 2.8965
-5.6110 1.7661 2.8971
-5.1829 0.7653 2.8945
-5.2644 0.9297 2.8950
-5.4943 1.4539 2.8963
-5.3950 1.2151 2.8957
-5.1553 0.7117 2.8944
-5.5883 1.7024 2.8969
-5.4699 1.3933 2.8962
-5.2375 0.8743 2.8948
-5.1274 0.6586 2.8943
-5.3695 1.1568 2.8956
-5.0425 0.5027 2.8938
-4.8968 0.2537 2.8932
-5.2104 0.8195 2.8947
-5.0993 0.6061 2.8941
-5.0137 0.4518 2.8937
-5.3436 1.0992 2.8954
-4.8671 0.2055 2.8930
-4.7466 0.0179 2.8925
-5.0710 0.5541 2.8940
-4.9848 0.4015 2.8936
-4.5926 -0.2051 2.8919
-4.8372 0.1578 2.8929
-4.7161 -0.0277 2.8924
-4.4351 -0.4158 2.8913
-4.9556 0.3517 2.8934
-4.5613 -0.2482 2.8918
-4.8072 0.1107 2.8928
-4.6854 -0.0728 2.8923
-4.4033 -0.4565 2.8912
-4.9263 0.3024 2.8933
-4.5300 -0.2908 2.8916
-4.7770 0.0641 2.8926
-4.6546 -0.1174 2.8921
-4.3713 -0.4967 2.8910
-4.2748 -0.6146 2.8907
-4.4985 -0.3329 2.8915
-4.1121 -0.8021 2.8901
-4.6236 -0.1615 2.8920
-4.3393 -0.5365 2.8909
-4.2424 -0.6530 2.8906
-4.0792 -0.8382 2.8900
-4.4669 -0.3746 2.8914
-3.9472 -0.9786 2.8896
-4.3071 -0.5758 2.8908
-4.0464 -0.8740 2.8899
-4.2100 -0.6910 2.8905
-3.7806 -1.1445 2.8891
-3.9140 -1.0126 2.8895
-3.6125 -1.3003 2.8886
-4.0134 -0.9093 2.8898
-4.1774 -0.7284 2.8904
-3.7471 -1.1765 2.8890
-3.8808 -1.0462 2.8894
-3.5788 -1.3303 2.8885
-3.9803 -0.9441 2.8897
-4.1448 -0.7655 2.8902
-3.7136 -1.2080 2.8889
-3.8475 -1.0794 2.8893
-3.5450 -1.3598 2.8884
-3.4432 -1.4463 2.8881
-3.8141 -1.1121 2.8892
-3.6799 -1.2392 2.8888
-3.4093 -1.4744 2.8880
-3.5111 -1.3890 2.8883
-3.3753 -1.5021 2.8879
-3.6463 -1.2699 2.8887
-3.4772 -1.4179 2.8882
-3.3412 -1.5294 2.8878
-3.3071 -1.5563 2.8878
-3.2730 -1.5829 2.8877
-3.2388 -1.6092 2.8876
-3.2046 -1.6350 2.8875
