ply
format ascii 1.0
element vertex 2224
property float32 x
property float32 y
property float32 z
end_header
1.1825 -15.1689 1.7051
1.7973 -15.1971 1.6977
1.3354 -15.1745 1.7035
1.9524 -15.2066 1.6955
1.4888 -15.1810 1.7018
2.1083 -15.2172 1.6931
1.6428 -15.1885 1.6998
2.2518 -15.1407 1.6807
2.4224 -15.2415 1.6877
3.0620 -15.3028 1.6748
2.5808 -15.2552 1.6847
2.7401 -15.2700 1.6816
3.2247 -15.3209 1.6712
2.9005 -15.2859 1.6783
3.3887 -15.3402 1.6673
3.7207 -15.3821 1.6590
3.5540 -15.3605 1.6633
3.8889 -15.4048 1.6546
4.4032 -15.4805 1.6400
4.0586 -15.4288 1.6499
4.5783 -15.5083 1.6347
4.2301 -15.4540 1.6451
4.7552 -15.5374 1.6292
5.1154 -15.5996 1.6175
4.9342 -15.5678 1.6235
5.2988 -15.6329 1.6113
5.8635 -15.7416 1.5911
5.4845 -15.6676 1.6048
5.6727 -15.7038 1.5981
6.0570 -15.7809 1.5839
6.2533 -15.8219 1.5764
6.6545 -15.9077 1.5604
6.4526 -15.8645 1.5686
6.7133 -15.6122 1.5188
7.2254 -15.5176 1.4695
6.8105 -15.4161 1.4868
7.0159 -15.4655 1.4783
7.4387 -15.5716 1.4603
7.6561 -15.6278 1.4508
8.1037 -15.7466 1.4308
7.8776 -15.6861 1.4410
8.3343 -15.8094 1.4202
8.4367 -14.9171 1.2912
8.4569 -15.6656 1.3907
8.4272 -14.5637 1.2437
8.4466 -15.2842 1.3401
8.4180 -14.2230 1.1977
8.4006 -13.5769 1.1096
8.4091 -13.8942 1.1530
8.3918 -13.2695 1.0673
8.3683 -12.4074 0.9470
8.3837 -12.9727 1.0262
8.3609 -12.1378 0.9089
8.3759 -12.6855 0.9861
8.3537 -11.8765 0.8717
8.3400 -11.3765 0.7997
8.3468 -11.6228 0.8353
8.3335 -11.1372 0.7649
8.3124 -10.4549 0.6645
8.3271 -10.9046 0.7308
8.3065 -10.2404 0.6324
8.3209 -10.6783 0.6974
8.3007 -10.0314 0.6009
8.2895 -9.6288 0.5395
8.2950 -9.8276 0.5699
8.2841 -9.4349 0.5096
8.2687 -8.8799 0.4227
8.2789 -9.2456 0.4802
8.2638 -8.7032 0.3947
8.2737 -9.0606 0.4512
8.2590 -8.5304 0.3670
8.2497 -8.1957 0.3128
8.2543 -8.3613 0.3397
8.2452 -8.0336 0.2862
8.2408 -7.8748 0.2600
8.2322 -7.5664 0.2085
8.2365 -7.7191 0.2341
8.2281 -7.4167 0.1832
8.2170 -6.9847 0.1089
8.2251 -7.2708 0.1582
8.2130 -6.8455 0.0846
8.2210 -7.1264 0.1334
8.2091 -6.7087 0.0606
8.2015 -6.4420 0.0132
8.2053 -6.5742 0.0368
8.1978 -6.3120 -0.0102
8.1870 -5.9341 -0.0793
8.1941 -6.1840 -0.0334
8.1835 -5.8119 -0.1020
8.1905 -6.0581 -0.0565
8.1801 -5.6916 -0.1245
8.1734 -5.4561 -0.1691
8.1767 -5.5730 -0.1469
8.1701 -5.3409 -0.1912
8.1605 -5.0043 -0.2568
8.1668 -5.2272 -0.2132
8.1574 -4.8950 -0.2784
8.1636 -5.1150 -0.2350
8.1543 -4.7871 -0.2999
8.1482 -4.5751 -0.3427
8.1512 -4.6805 -0.3213
8.1453 -4.4711 -0.3639
8.1469 -4.1711 -0.4278
8.1525 -4.3737 -0.3856
8.1441 -4.0715 -0.4488
8.1497 -4.2718 -0.4067
8.1414 -3.9729 -0.4698
8.1386 -3.8753 -0.4907
8.1359 -3.7787 -0.5115
8.1254 -3.4012 -0.5946
8.1333 -3.6830 -0.5323
8.1229 -3.3090 -0.6153
8.1306 -3.5882 -0.5531
8.1203 -3.2175 -0.6359
8.1280 -3.4943 -0.5739
8.1178 -3.1268 -0.6566
8.1153 -3.0369 -0.6773
8.1055 -2.6838 -0.7599
8.1128 -2.9476 -0.6979
8.1031 -2.5971 -0.7805
8.1104 -2.8590 -0.7186
8.1007 -2.5110 -0.8012
8.1079 -2.7711 -0.7392
8.0983 -2.4254 -0.8219
8.0959 -2.3404 -0.8427
8.0866 -2.0052 -0.9259
8.0936 -2.2559 -0.8634
8.0843 -1.9226 -0.9468
8.0913 -2.1719 -0.8842
8.0820 -1.8403 -0.9678
8.0798 -1.7585 -0.9888
8.0889 -2.0883 -0.9050
8.0775 -1.6770 -1.0098
8.0753 -1.5959 -1.0310
8.0730 -1.5151 -1.0521
8.0708 -1.4346 -1.0734
8.0746 -1.3555 -1.0955
8.0722 -1.2756 -1.1169
8.0699 -1.1959 -1.1384
0.5490 -6.9481 1.1114
0.6206 -6.9576 1.1122
0.8378 -6.9885 1.1143
0.6926 -6.9674 1.1129
0.9110 -6.9997 1.1149
0.7650 -6.9778 1.1136
1.8108 -12.8934 2.0513
2.0795 -12.9068 2.0483
1.9448 -12.8998 2.0499
2.2025 -12.8429 2.0354
2.6251 -12.9407 2.0413
2.3508 -12.9225 2.0450
2.7636 -12.9508 2.0393
2.4876 -12.9313 2.0432
2.9029 -12.9615 2.0372
3.1845 -12.9848 2.0327
3.0432 -12.9728 2.0350
3.3269 -12.9975 2.0303
3.7611 -13.0396 2.0226
3.4705 -13.0108 2.0278
3.9084 -13.0549 2.0197
3.6152 -13.0248 2.0252
4.0569 -13.0704 2.0167
4.3581 -13.1037 2.0103
4.2067 -13.0867 2.0136
4.5110 -13.1215 2.0070
4.9800 -13.1794 1.9961
4.6656 -13.1400 2.0035
4.8219 -13.1593 1.9999
5.1399 -13.2003 1.9923
5.3018 -13.2221 1.9883
5.6318 -13.2682 1.9798
5.4657 -13.2447 1.9841
5.8000 -13.2927 1.9754
6.3191 -13.3716 1.9611
5.9706 -13.3180 1.9708
6.4973 -13.3999 1.9560
6.1436 -13.3443 1.9660
6.6363 -13.3451 1.9386
6.7813 -12.9796 1.8662
6.6461 -13.0366 1.8842
6.9647 -13.0124 1.8608
7.5349 -13.1188 1.8437
7.1514 -13.0466 1.8553
7.7321 -13.1569 1.8376
7.3414 -13.0821 1.8496
7.9331 -13.1962 1.8313
8.3471 -13.2792 1.8180
8.1380 -13.2370 1.8247
8.3865 -13.0522 1.7742
8.3632 -12.2009 1.6207
8.3559 -11.9346 1.5723
8.3785 -12.7592 1.7215
8.3488 -11.6764 1.5252
8.3707 -12.4756 1.6704
8.3419 -11.4259 1.4793
8.3353 -11.1825 1.4346
8.3081 -10.2720 1.2655
8.3288 -10.9461 1.3909
8.3022 -10.0599 1.2257
8.3225 -10.7162 1.3482
8.2964 -9.8532 1.1867
8.3164 -10.4926 1.3066
8.2908 -9.6518 1.1485
8.2854 -9.4553 1.1111
8.2648 -8.7145 0.9685
8.2800 -9.2635 1.0744
8.2599 -8.5397 0.9345
8.2552 -8.3687 0.9010
8.2748 -9.0762 1.0384
8.2505 -8.2014 0.8681
8.2697 -8.8933 1.0031
8.2459 -8.0376 0.8358
8.2286 -7.4147 0.7113
8.2415 -7.8771 0.8039
8.2256 -7.2673 0.6814
8.2371 -7.7199 0.7726
8.2214 -7.1218 0.6518
8.2328 -7.5658 0.7417
8.2173 -6.9788 0.6226
8.2133 -6.8385 0.5938
8.1980 -6.3008 0.4822
8.2094 -6.7006 0.5654
8.1943 -6.1720 0.4550
8.2055 -6.5651 0.5373
8.1907 -6.0451 0.4282
8.2017 -6.4318 0.5096
8.1836 -5.7974 0.3755
8.1871 -5.9203 0.4017
8.1801 -5.6763 0.3495
8.1701 -5.3235 0.2730
8.1767 -5.5570 0.3237
8.1668 -5.2091 0.2479
8.1734 -5.4394 0.2982
8.1636 -5.0963 0.2231
8.1573 -4.8752 0.1740
8.1604 -4.9850 0.1984
8.1542 -4.7667 0.1497
8.1451 -4.4493 0.0780
8.1511 -4.6596 0.1257
8.1481 -4.5538 0.1017
8.1512 -4.3508 0.0545
8.1428 -4.0474 -0.0156
8.1484 -4.2486 0.0310
8.1400 -3.9485 -0.0387
8.1456 -4.1474 0.0076
8.1373 -3.8505 -0.0616
8.1319 -3.6576 -0.1072
8.1346 -3.7536 -0.0845
8.1293 -3.5625 -0.1299
8.1215 -3.2824 -0.1973
8.1267 -3.4683 -0.1524
8.1190 -3.1907 -0.2196
8.1241 -3.3749 -0.1749
8.1164 -3.0998 -0.2418
8.1139 -3.0096 -0.2640
8.1115 -2.9201 -0.2861
8.1017 -2.5687 -0.3740
8.1090 -2.8313 -0.3082
8.0993 -2.4824 -0.3959
8.1065 -2.7431 -0.3302
8.0969 -2.3967 -0.4178
8.1041 -2.6556 -0.3521
8.0945 -2.3115 -0.4396
8.0922 -2.2269 -0.4614
8.0829 -1.8930 -0.5485
8.0899 -2.1427 -0.4832
8.0806 -1.8107 -0.5703
8.0875 -2.0590 -0.5050
8.0784 -1.7287 -0.5920
8.0852 -1.9758 -0.5267
8.0761 -1.6472 -0.6138
8.0738 -1.5659 -0.6356
8.0716 -1.4851 -0.6574
8.0753 -1.4056 -0.6798
8.0730 -1.3252 -0.7016
8.0707 -1.2452 -0.7235
8.0683 -1.1655 -0.7455
8.0660 -1.0860 -0.7674
0.4636 -5.7890 1.2055
0.5239 -5.7948 1.2063
0.5845 -5.8009 1.2071
0.6453 -5.8071 1.2078
0.7064 -5.8136 1.2086
0.7678 -5.8202 1.2094
0.8296 -5.8271 1.2101
0.8916 -5.8341 1.2109
0.9541 -5.8414 1.2116
1.9280 -11.0899 2.2986
2.0459 -11.0938 2.2977
2.1528 -11.0385 2.2845
2.2834 -11.1026 2.2959
2.4031 -11.1075 2.2949
2.5234 -11.1127 2.2938
2.6445 -11.1182 2.2928
2.7663 -11.1240 2.2916
2.8888 -11.1301 2.2905
3.0122 -11.1366 2.2892
3.1365 -11.1434 2.2880
3.2616 -11.1506 2.2867
3.3878 -11.1581 2.2853
3.5149 -11.1659 2.2839
3.6430 -11.1741 2.2824
3.7723 -11.1826 2.2809
3.9027 -11.1916 2.2793
4.0343 -11.2009 2.2777
4.1671 -11.2106 2.2760
4.3012 -11.2206 2.2743
4.4367 -11.2311 2.2725
4.5736 -11.2420 2.2707
4.7119 -11.2533 2.2688
4.8518 -11.2650 2.2668
4.9933 -11.2772 2.2648
5.1364 -11.2898 2.2627
5.2813 -11.3029 2.2605
5.4279 -11.3164 2.2583
5.5764 -11.3305 2.2560
5.6961 -11.2841 2.2415
5.8794 -11.3600 2.2512
6.0339 -11.3756 2.2486
6.1906 -11.3915 2.2460
6.3494 -11.4077 2.2433
6.5106 -11.4245 2.2404
6.5821 -11.2839 2.2066
6.5914 -11.0428 2.1532
6.7269 -11.0161 2.1415
6.8923 -11.0356 2.1386
7.0605 -11.0560 2.1357
7.2318 -11.0771 2.1327
7.4060 -11.0988 2.1296
7.5835 -11.1213 2.1264
7.7643 -11.1445 2.1231
7.9485 -11.1685 2.1197
8.1363 -11.1933 2.1162
8.3279 -11.2190 2.1126
8.3306 -10.9911 2.0611
8.3242 -10.7574 2.0087
8.3179 -10.5303 1.9576
8.3098 -10.3066 1.9073
8.3038 -10.0914 1.8587
8.2979 -9.8817 1.8113
8.2922 -9.6774 1.7649
8.2867 -9.4782 1.7196
8.2813 -9.2839 1.6753
8.2760 -9.0943 1.6320
8.2708 -8.9090 1.5895
8.2658 -8.7281 1.5480
8.2609 -8.5513 1.5072
8.2561 -8.3783 1.4673
8.2514 -8.2092 1.4282
8.2467 -8.0436 1.3898
8.2422 -7.8815 1.3521
8.2378 -7.7226 1.3150
8.2335 -7.5670 1.2786
8.2292 -7.4145 1.2429
8.2261 -7.2657 1.2078
8.2219 -7.1188 1.1732
8.2177 -6.9746 1.1392
8.2137 -6.8331 1.1056
8.2097 -6.6941 1.0726
8.2058 -6.5575 1.0400
8.2020 -6.4232 1.0080
8.1982 -6.2912 0.9764
8.1945 -6.1614 0.9452
8.1908 -6.0337 0.9144
8.1872 -5.9080 0.8840
8.1837 -5.7843 0.8540
8.1802 -5.6624 0.8244
8.1768 -5.5424 0.7952
8.1734 -5.4241 0.7663
8.1701 -5.3075 0.7377
8.1668 -5.1925 0.7094
8.1635 -5.0791 0.6815
8.1603 -4.9672 0.6538
8.1572 -4.8567 0.6264
8.1541 -4.7477 0.5993
8.1500 -4.3292 0.4938
8.1510 -4.6401 0.5724
8.1471 -4.2266 0.4679
8.1443 -4.1251 0.4422
8.1480 -4.5338 0.5458
8.1415 -4.0247 0.4167
8.1449 -4.4288 0.5195
8.1388 -3.9253 0.3913
8.1360 -3.8270 0.3662
8.1280 -3.5380 0.2919
8.1333 -3.7297 0.3413
8.1254 -3.4435 0.2674
8.1306 -3.6334 0.3165
8.1228 -3.3499 0.2431
8.1176 -3.1651 0.1949
8.1151 -3.0739 0.1710
8.1202 -3.2571 0.2189
8.1126 -2.9835 0.1472
8.1076 -2.8048 0.1000
8.1101 -2.8938 0.1236
8.0979 -2.4552 0.0068
8.1052 -2.7164 0.0766
8.0956 -2.3693 -0.0162
8.1028 -2.6287 0.0533
8.0932 -2.2839 -0.0392
8.0908 -2.1991 -0.0622
8.1003 -2.5417 0.0300
8.0885 -2.1148 -0.0850
8.0793 -1.7823 -0.1759
8.0862 -2.0310 -0.1078
8.0770 -1.7002 -0.1985
8.0838 -1.9477 -0.1306
8.0816 -1.8648 -0.1533
8.0747 -1.6186 -0.2211
8.0702 -1.4563 -0.2662
8.0725 -1.5372 -0.2437
8.0738 -1.3767 -0.2889
8.0715 -1.2963 -0.3114
8.0691 -1.2162 -0.3338
8.0668 -1.1363 -0.3563
8.0645 -1.0568 -0.3788
8.0622 -0.9775 -0.4012
0.4016 -4.9473 1.2737
0.4538 -4.9511 1.2745
0.5061 -4.9549 1.2753
0.5586 -4.9587 1.2761
0.6113 -4.9627 1.2769
0.6642 -4.9667 1.2777
0.7174 -4.9708 1.2785
0.7708 -4.9749 1.2793
0.8245 -4.9792 1.2801
0.8784 -4.9835 1.2809
0.9326 -4.9879 1.2817
1.9057 -9.6378 2.4759
2.0103 -9.6404 2.4759
2.1048 -9.5951 2.4635
2.2210 -9.6459 2.4757
2.3271 -9.6488 2.4756
2.4339 -9.6518 2.4755
2.5412 -9.6549 2.4754
2.6492 -9.6582 2.4752
2.7579 -9.6616 2.4751
2.8672 -9.6648 2.4748
2.9770 -9.6675 2.4744
3.0875 -9.6703 2.4740
3.1989 -9.6732 2.4735
3.3110 -9.6763 2.4731
3.4240 -9.6794 2.4726
3.5379 -9.6827 2.4721
3.6527 -9.6861 2.4716
3.7685 -9.6896 2.4710
3.8852 -9.6933 2.4705
4.0030 -9.6971 2.4699
4.1219 -9.7011 2.4693
4.2418 -9.7051 2.4687
4.3630 -9.7094 2.4681
4.4854 -9.7138 2.4675
4.6090 -9.7183 2.4668
4.7339 -9.7230 2.4661
4.8602 -9.7278 2.4654
4.9878 -9.7328 2.4647
5.1170 -9.7380 2.4640
5.2476 -9.7433 2.4632
5.3798 -9.7488 2.4624
5.5136 -9.7545 2.4616
5.6199 -9.7098 2.4480
5.7864 -9.7664 2.4599
5.9255 -9.7726 2.4590
6.0665 -9.7790 2.4581
6.2088 -9.7848 2.4569
6.3531 -9.7906 2.4557
6.4994 -9.7966 2.4544
6.5366 -9.6387 2.4121
6.5450 -9.4434 2.3604
6.6643 -9.4102 2.3492
6.8138 -9.4175 2.3481
6.9660 -9.4254 2.3470
7.1207 -9.4334 2.3458
7.2780 -9.4418 2.3446
7.4381 -9.4504 2.3434
7.6010 -9.4593 2.3422
7.7668 -9.4684 2.3409
7.9358 -9.4779 2.3396
8.1079 -9.4876 2.3382
8.2833 -9.4977 2.3368
8.2826 -9.3062 2.2858
8.2772 -9.1140 2.2347
8.2720 -8.9265 2.1847
8.2669 -8.7433 2.1359
8.2619 -8.5643 2.0881
8.2570 -8.3894 2.0414
8.2523 -8.2183 1.9957
8.2476 -8.0509 1.9509
8.2430 -7.8871 1.9070
8.2385 -7.7267 1.8640
8.2342 -7.5695 1.8218
8.2299 -7.4155 1.7804
8.2266 -7.2652 1.7400
8.2223 -7.1170 1.7001
8.2182 -6.9715 1.6609
8.2141 -6.8288 1.6224
8.2101 -6.6886 1.5845
8.2061 -6.5509 1.5473
8.2023 -6.4156 1.5107
8.1985 -6.2826 1.4747
8.1947 -6.1518 1.4392
8.1910 -6.0232 1.4043
8.1874 -5.8967 1.3699
8.1838 -5.7721 1.3360
8.1803 -5.6494 1.3026
8.1769 -5.5286 1.2696
8.1735 -5.4096 1.2372
8.1701 -5.2923 1.2051
8.1668 -5.1766 1.1735
8.1635 -5.0626 1.1422
8.1603 -4.9501 1.1114
8.1571 -4.8391 1.0809
8.1540 -4.7295 1.0508
8.1509 -4.6214 1.0210
8.1479 -4.5145 0.9916
8.1483 -4.4109 0.9629
8.1488 -4.3084 0.9345
8.1459 -4.2053 0.9060
8.1431 -4.1034 0.8778
8.1403 -4.0026 0.8499
8.1375 -3.9029 0.8222
8.1348 -3.8043 0.7948
8.1321 -3.7066 0.7676
8.1294 -3.6100 0.7407
8.1267 -3.5143 0.7140
8.1241 -3.4195 0.6876
8.1215 -3.3256 0.6613
8.1189 -3.2325 0.6353
8.1163 -3.1403 0.6094
8.1138 -3.0488 0.5838
8.1113 -2.9582 0.5583
8.1088 -2.8682 0.5330
8.1063 -2.7790 0.5079
8.1039 -2.6904 0.4829
8.1014 -2.6026 0.4581
8.0990 -2.5153 0.4334
8.0966 -2.4287 0.4089
8.0942 -2.3426 0.3845
8.0918 -2.2571 0.3602
8.0895 -2.1721 0.3361
8.0872 -2.0877 0.3121
8.0848 -2.0037 0.2881
8.0825 -1.9203 0.2643
8.0802 -1.8373 0.2406
8.0779 -1.7547 0.2170
8.0756 -1.6725 0.1935
8.0734 -1.5907 0.1700
8.0711 -1.5093 0.1467
8.0689 -1.4283 0.1233
8.0723 -1.3485 0.1002
8.0699 -1.2680 0.0770
8.0676 -1.1879 0.0539
8.0653 -1.1080 0.0308
8.0630 -1.0284 0.0078
8.0606 -0.9490 -0.0152
8.0583 -0.8699 -0.0382
0.3544 -4.3061 1.3258
0.4003 -4.3085 1.3265
0.4464 -4.3108 1.3273
0.4926 -4.3132 1.3281
0.5390 -4.3156 1.3289
0.5855 -4.3180 1.3297
0.6322 -4.3203 1.3305
0.6791 -4.3227 1.3313
0.7262 -4.3250 1.3321
0.7734 -4.3274 1.3329
0.8209 -4.3297 1.3338
0.8686 -4.3320 1.3346
0.9165 -4.3344 1.3354
1.8818 -8.4591 2.6065
1.9754 -8.4599 2.6070
2.0596 -8.4204 2.5951
2.1640 -8.4614 2.6079
2.2590 -8.4621 2.6085
2.3544 -8.4628 2.6090
2.4504 -8.4635 2.6095
2.5470 -8.4641 2.6100
2.6441 -8.4648 2.6105
2.7419 -8.4654 2.6110
2.8402 -8.4659 2.6116
2.9392 -8.4665 2.6121
3.0385 -8.4662 2.6124
3.1385 -8.4658 2.6127
3.2392 -8.4653 2.6130
3.3406 -8.4648 2.6132
3.4428 -8.4643 2.6135
3.5458 -8.4637 2.6138
3.6495 -8.4631 2.6141
3.7542 -8.4625 2.6144
3.8596 -8.4618 2.6147
3.9660 -8.4612 2.6150
4.0733 -8.4604 2.6153
4.1816 -8.4597 2.6157
4.2910 -8.4589 2.6160
4.4013 -8.4580 2.6163
4.5128 -8.4571 2.6167
4.6253 -8.4562 2.6170
4.7390 -8.4553 2.6174
4.8539 -8.4543 2.6177
4.9701 -8.4533 2.6181
5.0875 -8.4522 2.6185
5.2062 -8.4511 2.6189
5.3263 -8.4499 2.6193
5.4479 -8.4487 2.6197
5.5432 -8.4054 2.6070
5.6955 -8.4462 2.6205
5.8216 -8.4448 2.6209
5.9493 -8.4435 2.6214
6.0785 -8.4416 2.6217
6.2084 -8.4385 2.6216
6.3401 -8.4352 2.6216
6.4736 -8.4319 2.6215
6.4976 -8.2864 2.5772
6.5055 -8.1243 2.5278
6.5945 -8.0656 2.5106
6.7302 -8.0624 2.5106
6.8684 -8.0597 2.5108
7.0088 -8.0569 2.5111
7.1514 -8.0540 2.5113
7.2964 -8.0511 2.5116
7.4437 -8.0481 2.5118
7.5937 -8.0449 2.5121
7.7462 -8.0417 2.5124
7.9014 -8.0384 2.5126
8.0594 -8.0351 2.5129
8.2204 -8.0316 2.5132
8.2438 -7.8934 2.4714
8.2393 -7.7313 2.4221
8.2349 -7.5725 2.3738
8.2305 -7.4170 2.3265
8.2271 -7.2652 2.2803
8.2228 -7.1156 2.2349
8.2186 -6.9689 2.1903
8.2145 -6.8249 2.1465
8.2105 -6.6835 2.1036
8.2065 -6.5447 2.0614
8.2026 -6.4083 2.0201
8.1987 -6.2743 1.9794
8.1950 -6.1426 1.9394
8.1912 -6.0130 1.9002
8.1876 -5.8856 1.8615
8.1840 -5.7601 1.8235
8.1805 -5.6367 1.7861
8.1770 -5.5151 1.7493
8.1735 -5.3953 1.7131
8.1702 -5.2773 1.6773
8.1668 -5.1610 1.6422
8.1635 -5.0463 1.6075
8.1603 -4.9332 1.5733
8.1571 -4.8216 1.5396
8.1540 -4.7115 1.5063
8.1508 -4.6028 1.4735
8.1478 -4.4955 1.4411
8.1504 -4.3926 1.4101
8.1475 -4.2878 1.3785
8.1447 -4.1843 1.3473
8.1418 -4.0820 1.3164
8.1390 -3.9808 1.2860
8.1362 -3.8807 1.2558
8.1335 -3.7817 1.2260
8.1308 -3.6837 1.1965
8.1281 -3.5867 1.1673
8.1254 -3.4907 1.1385
8.1228 -3.3956 1.1099
8.1202 -3.3014 1.0816
8.1176 -3.2081 1.0535
8.1150 -3.1156 1.0258
8.1125 -3.0239 0.9983
8.1100 -2.9330 0.9710
8.1075 -2.8429 0.9439
8.1050 -2.7534 0.9171
8.1025 -2.6647 0.8905
8.1001 -2.5766 0.8641
8.0977 -2.4892 0.8380
8.0953 -2.4024 0.8120
8.0929 -2.3161 0.7862
8.0905 -2.2305 0.7606
8.0882 -2.1454 0.7351
8.0858 -2.0608 0.7098
8.0835 -1.9767 0.6847
8.0812 -1.8931 0.6598
8.0789 -1.8100 0.6350
8.0766 -1.7273 0.6103
8.0743 -1.6450 0.5857
8.0720 -1.5631 0.5613
8.0698 -1.4817 0.5371
8.0731 -1.4015 0.5133
8.0708 -1.3207 0.4892
8.0684 -1.2401 0.4652
8.0661 -1.1599 0.4413
8.0638 -1.0800 0.4176
8.0614 -1.0003 0.3939
8.0591 -0.9209 0.3703
8.0568 -0.8417 0.3468
8.0545 -0.7628 0.3234
0.3171 -3.7992 1.3669
0.3581 -3.8007 1.3676
0.3993 -3.8022 1.3684
0.4405 -3.8036 1.3691
0.4819 -3.8049 1.3699
0.5234 -3.8062 1.3707
0.5650 -3.8074 1.3715
0.6068 -3.8086 1.3723
0.6487 -3.8098 1.3731
0.6908 -3.8108 1.3739
0.7330 -3.8118 1.3747
0.7754 -3.8128 1.3755
0.8180 -3.8137 1.3764
0.8607 -3.8146 1.3772
0.9037 -3.8154 1.3781
1.8574 -7.4862 2.7051
1.9420 -7.4855 2.7061
2.0178 -7.4510 2.6948
2.1123 -7.4839 2.7081
2.1980 -7.4829 2.7091
2.2842 -7.4818 2.7101
2.3708 -7.4805 2.7112
2.4580 -7.4792 2.7123
2.5456 -7.4777 2.7134
2.6336 -7.4758 2.7144
2.7219 -7.4732 2.7152
2.8107 -7.4705 2.7160
2.9001 -7.4676 2.7169
2.9900 -7.4646 2.7177
3.0805 -7.4614 2.7186
3.1717 -7.4582 2.7195
3.2634 -7.4547 2.7204
3.3558 -7.4512 2.7214
3.4489 -7.4475 2.7223
3.5427 -7.4436 2.7233
3.6372 -7.4396 2.7243
3.7324 -7.4355 2.7253
3.8284 -7.4312 2.7264
3.9252 -7.4267 2.7274
4.0228 -7.4221 2.7285
4.1213 -7.4173 2.7296
4.2206 -7.4124 2.7307
4.3208 -7.4072 2.7319
4.4220 -7.4020 2.7330
4.5241 -7.3965 2.7342
4.6272 -7.3909 2.7354
4.7314 -7.3850 2.7367
4.8366 -7.3790 2.7380
4.9429 -7.3729 2.7393
5.0504 -7.3665 2.7406
5.1590 -7.3599 2.7419
5.2688 -7.3531 2.7433
5.3798 -7.3461 2.7447
5.4656 -7.3034 2.7329
5.5782 -7.2953 2.7341
5.7205 -7.3234 2.7490
5.8364 -7.3147 2.7502
5.9536 -7.3058 2.7515
6.0718 -7.2960 2.7526
6.1909 -7.2853 2.7534
6.3115 -7.2743 2.7543
6.4338 -7.2630 2.7552
6.4632 -7.1470 2.7164
6.4706 -7.0094 2.6694
6.5181 -6.9173 2.6397
6.6414 -6.9052 2.6406
6.7672 -6.8935 2.6417
6.8948 -6.8814 2.6430
7.0243 -6.8691 2.6442
7.1559 -6.8564 2.6455
7.2894 -6.8433 2.6468
7.4251 -6.8299 2.6482
7.5630 -6.8162 2.6496
7.7032 -6.8020 2.6510
7.8458 -6.7875 2.6525
7.9908 -6.7726 2.6540
8.1384 -6.7572 2.6556
8.2108 -6.6782 2.6323
8.2068 -6.5382 2.5849
8.2029 -6.4008 2.5385
8.1990 -6.2657 2.4929
8.1952 -6.1330 2.4482
8.1915 -6.0025 2.4043
8.1878 -5.8741 2.3612
8.1842 -5.7479 2.3189
8.1806 -5.6236 2.2773
8.1771 -5.5012 2.2364
8.1736 -5.3807 2.1961
8.1702 -5.2620 2.1566
8.1669 -5.1450 2.1177
8.1636 -5.0297 2.0793
8.1603 -4.9160 2.0416
8.1571 -4.8038 2.0045
8.1539 -4.6931 1.9679
8.1508 -4.5839 1.9318
8.1477 -4.4761 1.8963
8.1492 -4.3720 1.8623
8.1463 -4.2668 1.8278
8.1434 -4.1629 1.7937
8.1406 -4.0602 1.7601
8.1377 -3.9586 1.7269
8.1350 -3.8581 1.6941
8.1322 -3.7588 1.6618
8.1295 -3.6605 1.6299
8.1268 -3.5632 1.5983
8.1241 -3.4668 1.5671
8.1215 -3.3715 1.5363
8.1189 -3.2770 1.5058
8.1163 -3.1834 1.4757
8.1137 -3.0907 1.4458
8.1112 -2.9987 1.4163
8.1087 -2.9076 1.3871
8.1062 -2.8172 1.3583
8.1037 -2.7276 1.3296
8.1012 -2.6386 1.3013
8.0988 -2.5504 1.2733
8.0963 -2.4627 1.2455
8.0939 -2.3758 1.2179
8.0915 -2.2894 1.1906
8.0892 -2.2036 1.1635
8.0868 -2.1183 1.1367
8.0845 -2.0336 1.1101
8.0821 -1.9494 1.0837
8.0798 -1.8657 1.0575
8.0775 -1.7825 1.0315
8.0752 -1.6997 1.0057
8.0729 -1.6173 0.9800
8.0707 -1.5353 0.9546
8.0684 -1.4538 0.9293
8.0716 -1.3735 0.9048
8.0693 -1.2926 0.8798
8.0669 -1.2120 0.8550
8.0646 -1.1317 0.8303
8.0623 -1.0517 0.8057
8.0599 -0.9720 0.7813
8.0576 -0.8926 0.7571
8.0553 -0.8134 0.7329
8.0530 -0.7344 0.7089
8.0507 -0.6557 0.6850
0.2867 -3.3870 1.4003
0.3238 -3.3878 1.4010
0.3610 -3.3887 1.4018
0.3982 -3.3894 1.4025
0.4355 -3.3900 1.4032
0.4730 -3.3906 1.4040
0.5105 -3.3911 1.4048
0.5481 -3.3914 1.4055
0.5859 -3.3918 1.4063
0.6238 -3.3920 1.4071
0.6618 -3.3921 1.4079
0.6999 -3.3922 1.4087
0.7381 -3.3921 1.4095
0.7766 -3.3920 1.4104
0.8151 -3.3918 1.4112
0.8538 -3.3915 1.4120
0.8927 -3.3911 1.4129
1.8327 -6.6692 2.7809
1.9098 -6.6679 2.7825
1.9787 -6.6380 2.7723
2.0558 -6.6350 2.7735
2.1429 -6.6618 2.7872
2.2210 -6.6584 2.7884
2.2994 -6.6548 2.7896
2.3783 -6.6510 2.7908
2.4576 -6.6471 2.7920
2.5373 -6.6429 2.7933
2.6174 -6.6385 2.7946
2.6979 -6.6340 2.7959
2.7790 -6.6292 2.7972
2.8605 -6.6242 2.7986
2.9424 -6.6191 2.8000
3.0249 -6.6137 2.8014
3.1080 -6.6081 2.8029
3.1916 -6.6023 2.8043
3.2757 -6.5962 2.8058
3.3604 -6.5900 2.8073
3.4457 -6.5835 2.8089
3.5316 -6.5768 2.8105
3.6182 -6.5699 2.8121
3.7054 -6.5627 2.8137
3.7932 -6.5553 2.8154
3.8818 -6.5476 2.8171
3.9711 -6.5397 2.8188
4.0611 -6.5315 2.8206
4.1519 -6.5231 2.8224
4.2435 -6.5144 2.8242
4.3359 -6.5054 2.8261
4.4291 -6.4962 2.8280
4.5231 -6.4865 2.8299
4.6175 -6.4761 2.8315
4.7129 -6.4653 2.8333
4.8091 -6.4542 2.8350
4.9063 -6.4429 2.8368
5.0045 -6.4312 2.8386
5.1036 -6.4192 2.8405
5.2039 -6.4068 2.8424
5.3051 -6.3942 2.8443
5.4075 -6.3812 2.8463
5.4847 -6.3375 2.8348
5.6156 -6.3541 2.8504
5.7214 -6.3401 2.8526
5.8285 -6.3256 2.8547
5.9368 -6.3108 2.8569
6.0455 -6.2946 2.8588
6.1547 -6.2772 2.8603
6.2652 -6.2594 2.8618
6.3771 -6.2411 2.8634
6.4313 -6.1658 2.8390
6.4385 -6.0468 2.7944
6.4498 -5.9339 2.7526
6.5442 -5.8979 2.7465
6.6586 -5.8783 2.7483
6.7749 -5.8586 2.7503
6.8928 -5.8385 2.7524
7.0124 -5.8177 2.7545
7.1338 -5.7965 2.7567
7.2570 -5.7747 2.7590
7.3820 -5.7524 2.7613
7.5090 -5.7295 2.7636
7.6379 -5.7060 2.7660
7.7689 -5.6819 2.7685
7.9017 -5.6569 2.7710
8.0365 -5.6311 2.7734
8.1736 -5.6047 2.7759
8.1772 -5.4864 2.7331
8.1737 -5.3652 2.6887
8.1702 -5.2458 2.6450
8.1669 -5.1281 2.6022
8.1635 -5.0121 2.5600
8.1603 -4.8978 2.5185
8.1570 -4.7850 2.4778
8.1538 -4.6738 2.4377
8.1507 -4.5640 2.3982
8.1476 -4.4557 2.3593
8.1479 -4.3506 2.3221
8.1450 -4.2449 2.2844
8.1421 -4.1406 2.2473
8.1393 -4.0374 2.2108
8.1364 -3.9355 2.1747
8.1337 -3.8346 2.1392
8.1309 -3.7349 2.1042
8.1282 -3.6363 2.0696
8.1255 -3.5387 2.0355
8.1228 -3.4421 2.0019
8.1202 -3.3464 1.9686
8.1175 -3.2517 1.9359
8.1149 -3.1578 1.9035
8.1124 -3.0648 1.8715
8.1098 -2.9727 1.8399
8.1073 -2.8813 1.8087
8.1048 -2.7907 1.7778
8.1023 -2.7009 1.7473
8.0999 -2.6117 1.7171
8.0974 -2.5233 1.6872
8.0950 -2.4355 1.6577
8.0926 -2.3484 1.6285
8.0902 -2.2618 1.5996
8.0878 -2.1759 1.5709
8.0854 -2.0905 1.5426
8.0831 -2.0057 1.5145
8.0808 -1.9214 1.4867
8.0784 -1.8375 1.4592
8.0761 -1.7542 1.4319
8.0738 -1.6713 1.4048
8.0716 -1.5889 1.3780
8.0693 -1.5068 1.3514
8.0670 -1.4252 1.3251
8.0701 -1.3448 1.2998
8.0677 -1.2638 1.2738
8.0654 -1.1832 1.2480
8.0630 -1.1028 1.2224
8.0607 -1.0228 1.1970
8.0584 -0.9431 1.1718
8.0561 -0.8636 1.1467
8.0538 -0.7844 1.1219
8.0515 -0.7054 1.0971
8.0492 -0.6266 1.0726
8.0469 -0.5480 1.0482
0.2918 -3.3972 1.5940
0.3294 -3.3966 1.5943
0.3671 -3.3960 1.5946
0.4048 -3.3955 1.5950
0.4426 -3.3949 1.5954
0.4805 -3.3943 1.5960
0.5185 -3.3938 1.5965
0.5565 -3.3932 1.5972
0.5947 -3.3927 1.5979
0.6331 -3.3922 1.5987
0.6715 -3.3916 1.5996
0.7101 -3.3911 1.6005
0.7488 -3.3906 1.6015
0.7877 -3.3900 1.6026
0.8268 -3.3895 1.6037
0.8660 -3.3890 1.6049
0.9054 -3.3885 1.6062
1.6659 -5.9718 2.8335
1.7355 -5.9690 2.8352
1.8055 -5.9661 2.8369
1.8757 -5.9629 2.8386
1.9383 -5.9352 2.8287
2.0089 -5.9316 2.8305
2.0882 -5.9519 2.8438
2.1597 -5.9478 2.8456
2.2315 -5.9435 2.8474
2.3037 -5.9389 2.8492
2.3762 -5.9341 2.8511
2.4491 -5.9290 2.8530
2.5223 -5.9237 2.8549
2.5960 -5.9182 2.8569
2.6700 -5.9124 2.8589
2.7445 -5.9063 2.8609
2.8194 -5.9000 2.8629
2.8948 -5.8935 2.8650
2.9706 -5.8866 2.8671
3.0468 -5.8795 2.8692
3.1236 -5.8721 2.8714
3.2008 -5.8645 2.8736
3.2786 -5.8566 2.8758
3.3569 -5.8484 2.8780
3.4354 -5.8394 2.8801
3.5141 -5.8295 2.8819
3.5934 -5.8194 2.8837
3.6732 -5.8089 2.8856
3.7536 -5.7981 2.8875
3.8346 -5.7871 2.8895
3.9162 -5.7757 2.8914
3.9984 -5.7640 2.8935
4.0812 -5.7520 2.8955
4.1647 -5.7396 2.8976
4.2489 -5.7269 2.8997
4.3338 -5.7139 2.9019
4.4194 -5.7005 2.9041
4.5057 -5.6867 2.9064
4.5928 -5.6726 2.9087
4.6807 -5.6581 2.9110
4.7693 -5.6432 2.9134
4.8588 -5.6280 2.9159
4.9491 -5.6123 2.9184
5.0403 -5.5963 2.9209
5.1324 -5.5798 2.9235
5.2254 -5.5629 2.9261
5.3194 -5.5456 2.9288
5.4143 -5.5278 2.9315
5.4853 -5.4847 2.9211
5.6071 -5.4909 2.9372
5.7051 -5.4718 2.9401
5.8042 -5.4521 2.9430
5.9044 -5.4320 2.9461
6.0047 -5.4104 2.9486
6.1047 -5.3871 2.9506
6.2059 -5.3632 2.9526
6.3081 -5.3388 2.9546
6.4017 -5.3056 2.9521
6.4083 -5.2007 2.9099
6.4149 -5.0974 2.8684
6.4348 -5.0062 2.8336
6.5385 -4.9800 2.8358
6.6439 -4.9534 2.8383
6.7508 -4.9264 2.8408
6.8592 -4.8987 2.8435
6.9690 -4.8704 2.8462
7.0803 -4.8414 2.8489
7.1931 -4.8117 2.8517
7.3075 -4.7813 2.8546
7.4235 -4.7501 2.8576
7.5412 -4.7182 2.8607
7.6607 -4.6855 2.8638
7.7819 -4.6519 2.8670
7.9050 -4.6176 2.8702
8.0300 -4.5823 2.8736
8.1506 -4.5426 2.8748
8.1474 -4.4338 2.8324
8.1466 -4.3276 2.7915
8.1437 -4.2215 2.7505
8.1408 -4.1167 2.7102
8.1379 -4.0132 2.6705
8.1351 -3.9108 2.6315
8.1323 -3.8097 2.5930
8.1295 -3.7096 2.5551
8.1268 -3.6107 2.5178
8.1241 -3.5127 2.4810
8.1214 -3.4158 2.4447
8.1188 -3.3199 2.4090
8.1162 -3.2249 2.3737
8.1136 -3.1308 2.3390
8.1110 -3.0376 2.3047
8.1084 -2.9452 2.2708
8.1059 -2.8536 2.2374
8.1034 -2.7628 2.2044
8.1009 -2.6728 2.1719
8.0984 -2.5835 2.1397
8.0960 -2.4949 2.1080
8.0936 -2.4070 2.0766
8.0912 -2.3197 2.0456
8.0888 -2.2330 2.0149
8.0864 -2.1469 1.9846
8.0840 -2.0614 1.9547
8.0817 -1.9765 1.9250
8.0793 -1.8920 1.8957
8.0770 -1.8081 1.8667
8.0747 -1.7247 1.8380
8.0724 -1.6417 1.8097
8.0701 -1.5592 1.7815
8.0679 -1.4771 1.7537
8.0709 -1.3963 1.7273
8.0685 -1.3149 1.6999
8.0661 -1.2338 1.6729
8.0638 -1.1531 1.6460
8.0615 -1.0728 1.6194
8.0591 -0.9927 1.5931
8.0568 -0.9130 1.5670
8.0545 -0.8335 1.5410
8.0522 -0.7542 1.5154
8.0499 -0.6752 1.4899
8.0476 -0.5964 1.4646
8.0453 -0.5179 1.4395
8.0430 -0.4395 1.4146
0.2977 -3.4141 1.8009
0.3361 -3.4135 1.8013
0.3745 -3.4130 1.8018
0.4130 -3.4124 1.8024
0.4515 -3.4119 1.8031
0.4902 -3.4113 1.8039
0.5290 -3.4108 1.8047
0.5679 -3.4102 1.8057
0.6068 -3.4097 1.8068
0.6460 -3.4092 1.8079
0.6852 -3.4087 1.8091
0.7246 -3.4081 1.8105
0.7642 -3.4076 1.8119
0.8039 -3.4071 1.8134
0.8438 -3.4066 1.8150
0.8839 -3.4061 1.8168
1.4618 -5.3867 2.8764
1.5251 -5.3832 2.8780
1.5885 -5.3794 2.8796
1.6522 -5.3754 2.8812
1.7161 -5.3712 2.8829
1.7803 -5.3667 2.8846
1.8447 -5.3619 2.8863
1.9093 -5.3569 2.8880
1.9661 -5.3299 2.8780
2.0393 -5.3462 2.8915
2.1047 -5.3404 2.8933
2.1704 -5.3343 2.8951
2.2364 -5.3280 2.8970
2.3026 -5.3215 2.8989
2.3692 -5.3146 2.9008
2.4361 -5.3075 2.9027
2.5033 -5.3001 2.9047
2.5708 -5.2924 2.9067
2.6387 -5.2844 2.9087
2.7069 -5.2762 2.9108
2.7755 -5.2676 2.9129
2.8445 -5.2588 2.9150
2.9138 -5.2496 2.9172
2.9835 -5.2402 2.9193
3.0536 -5.2304 2.9216
3.1241 -5.2203 2.9238
3.1951 -5.2099 2.9261
3.2664 -5.1992 2.9284
3.3383 -5.1882 2.9308
3.4106 -5.1768 2.9332
3.4833 -5.1651 2.9356
3.5565 -5.1531 2.9381
3.6302 -5.1407 2.9406
3.7044 -5.1279 2.9431
3.7792 -5.1148 2.9457
3.8544 -5.1014 2.9483
3.9302 -5.0875 2.9510
4.0066 -5.0733 2.9537
4.0835 -5.0587 2.9564
4.1611 -5.0437 2.9592
4.2392 -5.0283 2.9621
4.3179 -5.0125 2.9649
4.3973 -4.9963 2.9679
4.4774 -4.9797 2.9708
4.5580 -4.9627 2.9739
4.6394 -4.9452 2.9769
4.7215 -4.9272 2.9800
4.8043 -4.9088 2.9832
4.8878 -4.8900 2.9864
4.9721 -4.8706 2.9897
5.0564 -4.8501 2.9926
5.1415 -4.8291 2.9955
5.2274 -4.8076 2.9985
5.3140 -4.7856 3.0016
5.4016 -4.7630 3.0047
5.4651 -4.7186 2.9943
5.5792 -4.7164 3.0111
5.6693 -4.6922 3.0144
5.7604 -4.6675 3.0178
5.8525 -4.6422 3.0212
5.9453 -4.6162 3.0246
6.0371 -4.5880 3.0270
6.1298 -4.5592 3.0295
6.2234 -4.5298 3.0321
6.3181 -4.4997 3.0347
6.3794 -4.4450 3.0211
6.3857 -4.3524 2.9818
6.3918 -4.2610 2.9432
6.4121 -4.1802 2.9118
6.5071 -4.1477 2.9143
6.6036 -4.1147 2.9170
6.7014 -4.0812 2.9200
6.8003 -4.0469 2.9229
6.9005 -4.0118 2.9260
7.0019 -3.9759 2.9291
7.1046 -3.9392 2.9323
7.2085 -3.9017 2.9355
7.3139 -3.8633 2.9388
7.4206 -3.8240 2.9422
7.5287 -3.7838 2.9457
7.6383 -3.7427 2.9493
7.7494 -3.7006 2.9529
7.8620 -3.6575 2.9567
7.9763 -3.6135 2.9605
8.0922 -3.5683 2.9644
8.1226 -3.4847 2.9369
8.1200 -3.3876 2.8979
8.1173 -3.2914 2.8594
8.1147 -3.1961 2.8215
8.1121 -3.1018 2.7842
8.1095 -3.0083 2.7474
8.1070 -2.9157 2.7112
8.1044 -2.8240 2.6755
8.1019 -2.7330 2.6403
8.0994 -2.6428 2.6055
8.0970 -2.5533 2.5712
8.0945 -2.4646 2.5374
8.0921 -2.3765 2.5041
8.0897 -2.2891 2.4711
8.0873 -2.2023 2.4386
8.0849 -2.1161 2.4065
8.0825 -2.0304 2.3748
8.0802 -1.9454 2.3435
8.0778 -1.8609 2.3126
8.0755 -1.7769 2.2820
8.0732 -1.6934 2.2518
8.0709 -1.6103 2.2220
8.0686 -1.5277 2.1925
8.0664 -1.4455 2.1633
8.0692 -1.3646 2.1358
8.0668 -1.2832 2.1072
8.0645 -1.2021 2.0789
8.0621 -1.1214 2.0509
8.0598 -1.0410 2.0232
8.0575 -0.9609 1.9958
8.0552 -0.8811 1.9687
8.0528 -0.8016 1.9418
8.0505 -0.7224 1.9152
8.0482 -0.6434 1.8889
8.0460 -0.5646 1.8628
8.0437 -0.4860 1.8369
8.0414 -0.4077 1.8113
8.0391 -0.3295 1.7859
0.3039 -3.4321 2.0205
0.3431 -3.4315 2.0211
0.3824 -3.4310 2.0218
0.4217 -3.4304 2.0226
0.4611 -3.4299 2.0235
0.5005 -3.4293 2.0246
0.5401 -3.4288 2.0257
0.5799 -3.4283 2.0270
0.6197 -3.4278 2.0285
0.6597 -3.4273 2.0300
0.6998 -3.4268 2.0316
0.7400 -3.4263 2.0334
0.7805 -3.4258 2.0353
0.8211 -3.4253 2.0374
0.8619 -3.4248 2.0395
0.9029 -3.4244 2.0418
1.3461 -4.8818 2.9147
1.4041 -4.8777 2.9162
1.4623 -4.8732 2.9178
1.5207 -4.8685 2.9193
1.5792 -4.8636 2.9209
1.6380 -4.8584 2.9225
1.6969 -4.8529 2.9242
1.7560 -4.8472 2.9259
1.8153 -4.8411 2.9276
1.8748 -4.8348 2.9293
1.9266 -4.8086 2.9191
1.9863 -4.8018 2.9209
2.0546 -4.8143 2.9346
2.1150 -4.8069 2.9364
2.1756 -4.7992 2.9383
2.2365 -4.7913 2.9402
2.2976 -4.7830 2.9421
2.3589 -4.7744 2.9440
2.4206 -4.7656 2.9460
2.4824 -4.7564 2.9480
2.5446 -4.7469 2.9500
2.6071 -4.7372 2.9521
2.6698 -4.7271 2.9542
2.7329 -4.7167 2.9563
2.7962 -4.7060 2.9585
2.8599 -4.6949 2.9607
2.9239 -4.6836 2.9629
2.9882 -4.6719 2.9652
3.0528 -4.6598 2.9674
3.1178 -4.6475 2.9698
3.1832 -4.6347 2.9721
3.2489 -4.6217 2.9745
3.3150 -4.6082 2.9770
3.3815 -4.5944 2.9794
3.4483 -4.5803 2.9819
3.5156 -4.5658 2.9845
3.5833 -4.5509 2.9871
3.6514 -4.5356 2.9897
3.7199 -4.5199 2.9923
3.7889 -4.5038 2.9950
3.8583 -4.4874 2.9978
3.9281 -4.4705 3.0006
3.9985 -4.4532 3.0034
4.0693 -4.4355 3.0063
4.1406 -4.4173 3.0092
4.2124 -4.3988 3.0121
4.2848 -4.3797 3.0152
4.3576 -4.3603 3.0182
4.4310 -4.3403 3.0213
4.5050 -4.3199 3.0245
4.5795 -4.2990 3.0277
4.6546 -4.2777 3.0309
4.7303 -4.2558 3.0342
4.8067 -4.2334 3.0376
4.8836 -4.2106 3.0410
4.9612 -4.1871 3.0445
5.0394 -4.1632 3.0480
5.1183 -4.1387 3.0516
5.1979 -4.1137 3.0552
5.2782 -4.0881 3.0589
5.3592 -4.0619 3.0627
5.4188 -4.0187 3.0541
5.5234 -4.0077 3.0704
5.6067 -3.9797 3.0744
5.6908 -3.9511 3.0784
5.7768 -3.9225 3.0831
5.8646 -3.8940 3.0883
5.9512 -3.8634 3.0926
6.0355 -3.8300 3.0952
6.1205 -3.7960 3.0979
6.2063 -3.7612 3.1007
6.2930 -3.7258 3.1036
6.3562 -3.6756 3.0947
6.3620 -3.5923 3.0581
6.3676 -3.5099 3.0221
6.3759 -3.4300 2.9880
6.4406 -3.3804 2.9805
6.5345 -3.3451 2.9863
6.6178 -3.3031 2.9869
6.7081 -3.2634 2.9904
6.7993 -3.2228 2.9939
6.8917 -3.1814 2.9975
6.9850 -3.1390 3.0012
7.0794 -3.0958 3.0049
7.1749 -3.0516 3.0087
7.2716 -3.0065 3.0126
7.3694 -2.9603 3.0166
7.4685 -2.9132 3.0207
7.5687 -2.8650 3.0249
7.6702 -2.8158 3.0291
7.7729 -2.7654 3.0334
7.8759 -2.7136 3.0375
7.9803 -2.6606 3.0416
8.0860 -2.6064 3.0458
8.0954 -2.5206 3.0137
8.0929 -2.4317 2.9777
8.0905 -2.3435 2.9422
8.0881 -2.2560 2.9072
8.0857 -2.1690 2.8727
8.0833 -2.0827 2.8387
8.0810 -1.9970 2.8051
8.0786 -1.9119 2.7720
8.0763 -1.8273 2.7393
8.0740 -1.7432 2.7071
8.0717 -1.6596 2.6752
8.0694 -1.5765 2.6438
8.0671 -1.4939 2.6128
8.0699 -1.4126 2.5837
8.0675 -1.3307 2.5534
8.0651 -1.2492 2.5235
8.0628 -1.1681 2.4939
8.0604 -1.0874 2.4646
8.0581 -1.0069 2.4357
8.0558 -0.9269 2.4072
8.0534 -0.8471 2.3789
8.0511 -0.7676 2.3510
8.0488 -0.6883 2.3234
8.0465 -0.6093 2.2961
8.0442 -0.5306 2.2691
8.0420 -0.4520 2.2424
8.0397 -0.3737 2.2159
8.0374 -0.2955 2.1898
8.0351 -0.2175 2.1639
0.3106 -3.4513 2.2550
0.3506 -3.4507 2.2557
0.3908 -3.4502 2.2567
0.4309 -3.4496 2.2577
0.4712 -3.4491 2.2589
0.5116 -3.4486 2.2603
0.5521 -3.4480 2.2618
0.5927 -3.4475 2.2635
0.6334 -3.4470 2.2653
0.6743 -3.4466 2.2673
0.7153 -3.4461 2.2694
0.7565 -3.4456 2.2717
0.7979 -3.4452 2.2741
0.8394 -3.4447 2.2767
0.8812 -3.4443 2.2795
1.0275 -3.8331 2.5404
1.2452 -4.4417 2.9480
1.2987 -4.4371 2.9495
1.3523 -4.4322 2.9510
1.4061 -4.4270 2.9525
1.4600 -4.4216 2.9540
1.5141 -4.4159 2.9556
1.5683 -4.4100 2.9572
1.6226 -4.4037 2.9588
1.6771 -4.3972 2.9604
1.7318 -4.3904 2.9621
1.7866 -4.3834 2.9638
1.8416 -4.3760 2.9655
1.8891 -4.3506 2.9552
1.9442 -4.3427 2.9569
1.9995 -4.3345 2.9587
2.0634 -4.3437 2.9726
2.1193 -4.3349 2.9745
2.1754 -4.3258 2.9764
2.2317 -4.3164 2.9783
2.2882 -4.3067 2.9802
2.3450 -4.2967 2.9822
2.4019 -4.2864 2.9842
2.4591 -4.2757 2.9862
2.5165 -4.2648 2.9883
2.5741 -4.2535 2.9903
2.6321 -4.2419 2.9925
2.6902 -4.2299 2.9946
2.7486 -4.2177 2.9968
2.8072 -4.2051 2.9990
2.8661 -4.1921 3.0012
2.9253 -4.1788 3.0035
2.9847 -4.1652 3.0058
3.0445 -4.1512 3.0082
3.1045 -4.1368 3.0106
3.1648 -4.1221 3.0130
3.2254 -4.1070 3.0154
3.2863 -4.0916 3.0179
3.3476 -4.0757 3.0205
3.4091 -4.0595 3.0230
3.4710 -4.0429 3.0256
3.5333 -4.0259 3.0283
3.5959 -4.0085 3.0309
3.6588 -3.9907 3.0337
3.7221 -3.9724 3.0364
3.7857 -3.9538 3.0392
3.8498 -3.9347 3.0421
3.9142 -3.9152 3.0450
3.9790 -3.8952 3.0479
4.0442 -3.8748 3.0509
4.1098 -3.8540 3.0539
4.1758 -3.8327 3.0569
4.2423 -3.8109 3.0601
4.3092 -3.7886 3.0632
4.3765 -3.7659 3.0664
4.4443 -3.7426 3.0697
4.5126 -3.7189 3.0730
4.5813 -3.6946 3.0763
4.6505 -3.6698 3.0797
4.7202 -3.6445 3.0832
4.7905 -3.6187 3.0867
4.8612 -3.5923 3.0903
4.9325 -3.5653 3.0939
5.0043 -3.5378 3.0976
5.0766 -3.5097 3.1013
5.1495 -3.4810 3.1051
5.2230 -3.4517 3.1090
5.2971 -3.4217 3.1129
5.3499 -3.3774 3.1042
5.4249 -3.3463 3.1083
5.5259 -3.3299 3.1267
5.6044 -3.2984 3.1319
5.6836 -3.2663 3.1372
5.7635 -3.2335 3.1426
5.8442 -3.1999 3.1481
5.9240 -3.1647 3.1528
6.0013 -3.1271 3.1558
6.0793 -3.0887 3.1589
6.1579 -3.0496 3.1621
6.2371 -3.0098 3.1653
6.3171 -2.9691 3.1686
6.3376 -2.9002 3.1422
6.3428 -2.8248 3.1086
6.3479 -2.7500 3.0756
6.3595 -2.6786 3.0462
6.4263 -2.6303 3.0434
6.5125 -2.5889 3.0496
6.5871 -2.5417 3.0501
6.6688 -2.4961 3.0536
6.7514 -2.4497 3.0572
6.8348 -2.4023 3.0609
6.9189 -2.3540 3.0646
7.0039 -2.3047 3.0684
7.0898 -2.2545 3.0723
7.1765 -2.2032 3.0763
7.2642 -2.1508 3.0804
7.3527 -2.0974 3.0845
7.4422 -2.0429 3.0887
7.5327 -1.9873 3.0930
7.6241 -1.9305 3.0974
7.7166 -1.8726 3.1019
7.8101 -1.8134 3.1065
7.9047 -1.7530 3.1112
8.0003 -1.6914 3.1160
8.0700 -1.6229 3.1104
8.0677 -1.5398 3.0773
8.0654 -1.4571 3.0446
8.0680 -1.3757 3.0142
8.0656 -1.2938 2.9823
8.0633 -1.2123 2.9509
8.0609 -1.1312 2.9198
8.0586 -1.0504 2.8892
8.0562 -0.9700 2.8590
8.0539 -0.8899 2.8292
8.0516 -0.8102 2.7997
8.0493 -0.7307 2.7706
8.0470 -0.6514 2.7419
8.0447 -0.5725 2.7135
8.0424 -0.4937 2.6855
8.0401 -0.4152 2.6578
8.0379 -0.3369 2.6305
8.0356 -0.2588 2.6035
8.0333 -0.1808 2.5767
8.0311 -0.1030 2.5503
0.3178 -3.4720 2.5071
0.3587 -3.4714 2.5080
0.3998 -3.4708 2.5092
0.4409 -3.4703 2.5106
0.4821 -3.4698 2.5121
0.5235 -3.4693 2.5138
0.5649 -3.4688 2.5157
0.6065 -3.4683 2.5178
0.6482 -3.4678 2.5200
0.6900 -3.4673 2.5225
0.7321 -3.4669 2.5252
0.7743 -3.4665 2.5280
0.8166 -3.4660 2.5310
0.8592 -3.4656 2.5343
0.9772 -3.7543 2.7494
1.1067 -4.0576 2.9761
1.1561 -4.0530 2.9775
1.2057 -4.0481 2.9789
1.2553 -4.0429 2.9803
1.3050 -4.0374 2.9818
1.3549 -4.0317 2.9833
1.4048 -4.0257 2.9848
1.4549 -4.0195 2.9863
1.5051 -4.0129 2.9878
1.5554 -4.0061 2.9894
1.6058 -3.9990 2.9910
1.6564 -3.9916 2.9926
1.7071 -3.9840 2.9943
1.7579 -3.9760 2.9960
1.8089 -3.9678 2.9977
1.8600 -3.9593 2.9994
1.9035 -3.9344 2.9890
1.9547 -3.9253 2.9907
2.0143 -3.9319 3.0048
2.0660 -3.9222 3.0066
2.1179 -3.9122 3.0085
2.1699 -3.9019 3.0104
2.2221 -3.8913 3.0123
2.2745 -3.8803 3.0142
2.3271 -3.8691 3.0162
2.3798 -3.8575 3.0182
2.4327 -3.8456 3.0203
2.4859 -3.8334 3.0223
2.5392 -3.8208 3.0244
2.5927 -3.8079 3.0266
2.6464 -3.7947 3.0287
2.7003 -3.7812 3.0309
2.7544 -3.7673 3.0331
2.8087 -3.7530 3.0354
2.8633 -3.7384 3.0377
2.9181 -3.7234 3.0400
2.9731 -3.7081 3.0424
3.0283 -3.6924 3.0448
3.0838 -3.6764 3.0472
3.1395 -3.6600 3.0496
3.1955 -3.6431 3.0521
3.2516 -3.6260 3.0547
3.3081 -3.6084 3.0572
3.3649 -3.5904 3.0598
3.4219 -3.5720 3.0625
3.4791 -3.5532 3.0652
3.5367 -3.5341 3.0679
3.5945 -3.5144 3.0707
3.6526 -3.4944 3.0735
3.7110 -3.4739 3.0763
3.7698 -3.4530 3.0792
3.8288 -3.4317 3.0821
3.8881 -3.4099 3.0851
3.9478 -3.3877 3.0881
4.0077 -3.3650 3.0911
4.0681 -3.3418 3.0942
4.1287 -3.3181 3.0974
4.1897 -3.2940 3.1006
4.2510 -3.2694 3.1038
4.3127 -3.2443 3.1071
4.3748 -3.2186 3.1104
4.4372 -3.1925 3.1138
4.5000 -3.1658 3.1172
4.5632 -3.1386 3.1207
4.6268 -3.1108 3.1242
4.6908 -3.0825 3.1278
4.7552 -3.0537 3.1314
4.8200 -3.0242 3.1351
4.8852 -2.9942 3.1389
4.9509 -2.9636 3.1427
5.0170 -2.9324 3.1466
5.0836 -2.9005 3.1505
5.1515 -2.8686 3.1550
5.2205 -2.8363 3.1600
5.2901 -2.8034 3.1651
5.3367 -2.7577 3.1562
5.4070 -2.7235 3.1614
5.5022 -2.7006 3.1807
5.5741 -2.6650 3.1861
5.6465 -2.6286 3.1916
5.7195 -2.5914 3.1971
5.7907 -2.5524 3.2014
5.8625 -2.5127 3.2058
5.9328 -2.4714 3.2091
6.0031 -2.4291 3.2122
6.0738 -2.3860 3.2153
6.1450 -2.3421 3.2185
6.2167 -2.2974 3.2218
6.2889 -2.2519 3.2251
6.3157 -2.1897 3.2052
6.3607 -1.9218 3.0979
6.3204 -2.1200 3.1745
6.4329 -1.8734 3.1014
6.3250 -2.0508 3.1441
6.5057 -1.8240 3.1051
6.3295 -1.9821 3.1143
6.5794 -1.7738 3.1090
6.6537 -1.7227 3.1129
6.9573 -1.5085 3.1295
7.0348 -1.4524 3.1339
7.1130 -1.3952 3.1383
7.1919 -1.3369 3.1428
7.2703 -1.2773 3.1469
7.3494 -1.2166 3.1510
7.4291 -1.1547 3.1553
7.5096 -1.0916 3.1596
7.5907 -1.0273 3.1640
6.7287 -1.6707 3.1170
7.6726 -0.9618 3.1684
6.8042 -1.6176 3.1211
7.7552 -0.8950 3.1730
6.8804 -1.5636 3.1253
7.8386 -0.8270 3.1776
7.9228 -0.7576 3.1824
8.0405 -0.4535 3.1143
8.0078 -0.6869 3.1872
8.0382 -0.3750 3.0855
8.0450 -0.6111 3.1730
8.0359 -0.2967 3.0572
8.0428 -0.5322 3.1435
8.0337 -0.2187 3.0292
8.0314 -0.1407 3.0015
8.0291 -0.0630 2.9742
8.0269 0.0146 2.9473
0.3496 -3.7522 2.9852
0.3946 -3.7512 2.9862
0.4397 -3.7499 2.9872
0.4848 -3.7484 2.9883
0.5300 -3.7467 2.9893
0.5752 -3.7447 2.9904
0.6205 -3.7424 2.9915
0.6658 -3.7399 2.9926
0.7112 -3.7371 2.9938
0.7566 -3.7341 2.9950
0.8021 -3.7308 2.9962
0.8477 -3.7273 2.9974
0.8933 -3.7235 2.9986
0.9390 -3.7195 2.9999
0.9848 -3.7152 3.0012
1.0306 -3.7106 3.0025
1.0765 -3.7058 3.0038
1.1225 -3.7007 3.0051
1.1686 -3.6953 3.0065
1.2148 -3.6897 3.0079
1.2610 -3.6838 3.0093
1.3074 -3.6776 3.0108
1.3538 -3.6712 3.0122
1.4003 -3.6645 3.0137
1.4469 -3.6575 3.0152
1.4936 -3.6502 3.0168
1.5404 -3.6427 3.0183
1.5873 -3.6349 3.0199
1.6343 -3.6267 3.0215
1.6815 -3.6184 3.0232
1.7287 -3.6097 3.0248
1.7760 -3.6007 3.0265
1.8235 -3.5915 3.0283
1.8634 -3.5673 3.0177
1.9109 -3.5575 3.0194
1.9586 -3.5474 3.0212
2.0145 -3.5515 3.0354
2.0626 -3.5407 3.0372
2.1108 -3.5297 3.0391
2.1591 -3.5183 3.0410
2.2076 -3.5066 3.0429
2.2562 -3.4946 3.0449
2.3050 -3.4823 3.0469
2.3539 -3.4697 3.0489
2.4029 -3.4567 3.0509
2.4521 -3.4434 3.0530
2.5015 -3.4298 3.0551
2.5510 -3.4159 3.0573
2.6007 -3.4016 3.0594
2.6505 -3.3869 3.0616
2.7005 -3.3720 3.0638
2.7507 -3.3566 3.0661
2.8010 -3.3409 3.0684
2.8516 -3.3249 3.0707
2.9023 -3.3085 3.0731
3.0042 -3.2746 3.0779
2.9532 -3.2917 3.0755
3.0555 -3.2571 3.0803
3.2105 -3.2023 3.0879
3.1070 -3.2392 3.0828
3.2625 -3.1832 3.0905
3.1586 -3.2210 3.0854
3.3148 -3.1638 3.0931
3.4200 -3.1237 3.0985
3.3673 -3.1439 3.0958
3.4729 -3.1030 3.1013
3.6329 -3.0384 3.1097
3.5260 -3.0819 3.1040
3.6868 -3.0161 3.1126
3.5794 -3.0604 3.1069
3.7408 -2.9932 3.1156
3.8497 -2.9462 3.1216
3.7951 -2.9699 3.1186
3.9044 -2.9220 3.1246
4.0704 -2.8466 3.1341
3.9595 -2.8973 3.1278
4.1262 -2.8205 3.1373
4.0148 -2.8722 3.1309
4.1824 -2.7939 3.1406
4.2954 -2.7391 3.1474
4.2387 -2.7668 3.1440
4.3524 -2.7110 3.1508
4.5250 -2.6233 3.1614
4.4096 -2.6823 3.1543
4.5831 -2.5930 3.1650
4.4672 -2.6531 3.1578
4.6416 -2.5622 3.1687
4.7595 -2.4987 3.1762
4.7004 -2.5307 3.1724
4.8189 -2.4661 3.1800
5.0026 -2.3662 3.1940
4.8793 -2.4332 3.1843
5.0648 -2.3318 3.1990
4.9407 -2.4000 3.1891
5.1275 -2.2967 3.2040
5.2540 -2.2245 3.2143
5.1905 -2.2609 3.2091
5.3179 -2.1873 3.2196
5.5083 -2.0701 3.2335
5.5717 -2.0293 3.2378
5.3585 -2.1400 3.2107
5.6356 -1.9878 3.2422
5.4230 -2.1016 3.2161
5.6999 -1.9455 3.2466
5.7645 -1.9025 3.2511
6.0211 -1.7206 3.2665
5.8296 -1.8587 3.2557
6.0853 -1.6729 3.2700
5.8938 -1.8137 3.2596
6.1499 -1.6244 3.2735
5.9572 -1.7675 3.2630
6.2148 -1.5750 3.2772
6.2802 -1.5248 3.2809
6.3075 -1.2675 3.1765
6.2953 -1.4620 3.2585
6.3205 -1.2049 3.1545
6.2995 -1.3969 3.2308
6.3784 -1.1505 3.1550
6.3036 -1.3320 3.2035
6.4425 -1.0963 3.1586
6.5072 -1.0412 3.1622
6.7707 -0.8113 3.1779
6.5725 -0.9852 3.1660
6.8376 -0.7513 3.1820
6.6381 -0.9282 3.1699
6.9049 -0.6903 3.1861
6.7042 -0.8703 3.1739
6.9726 -0.6282 3.1904
7.0408 -0.5651 3.1947
7.3180 -0.3011 3.2127
7.1094 -0.5008 3.1991
7.3884 -0.2322 3.2174
7.1785 -0.4354 3.2035
7.4594 -0.1620 3.2221
7.5308 -0.0906 3.2270
7.2480 -0.3688 3.2081
7.6027 -0.0179 3.2319
7.6751 0.0560 3.2370
7.7479 0.1313 3.2421
0.3266 -3.4407 3.0098
0.3687 -3.4396 3.0107
0.4108 -3.4382 3.0117
0.4529 -3.4366 3.0127
0.4951 -3.4347 3.0137
0.5373 -3.4326 3.0147
0.5795 -3.4302 3.0158
0.6218 -3.4276 3.0169
0.6642 -3.4247 3.0180
0.7066 -3.4215 3.0191
0.7490 -3.4181 3.0202
0.7915 -3.4145 3.0214
0.8340 -3.4106 3.0226
0.8766 -3.4064 3.0238
0.9193 -3.4020 3.0250
0.9620 -3.3974 3.0263
1.0047 -3.3924 3.0275
1.0476 -3.3872 3.0288
1.0904 -3.3818 3.0301
1.1334 -3.3761 3.0315
1.1764 -3.3701 3.0328
1.2195 -3.3638 3.0342
1.2627 -3.3573 3.0356
1.3059 -3.3505 3.0371
1.3492 -3.3435 3.0385
1.3925 -3.3361 3.0400
1.4360 -3.3285 3.0415
1.4795 -3.3207 3.0430
1.5231 -3.3125 3.0446
1.5668 -3.3041 3.0461
1.6106 -3.2953 3.0477
1.6544 -3.2864 3.0493
1.6984 -3.2771 3.0510
1.7424 -3.2675 3.0527
1.7866 -3.2576 3.0544
1.8308 -3.2475 3.0561
1.8675 -3.2239 3.0454
1.9117 -3.2132 3.0472
1.9560 -3.2022 3.0489
2.0086 -3.2039 3.0632
2.0533 -3.1922 3.0651
2.0982 -3.1803 3.0669
2.1431 -3.1680 3.0688
2.1881 -3.1555 3.0708
2.2332 -3.1426 3.0727
2.2785 -3.1294 3.0747
2.3239 -3.1158 3.0767
2.3693 -3.1020 3.0788
2.4150 -3.0878 3.0809
2.4607 -3.0733 3.0830
2.5065 -3.0585 3.0851
2.5525 -3.0433 3.0873
2.5986 -3.0278 3.0894
2.6448 -3.0119 3.0917
2.6912 -2.9957 3.0939
2.7376 -2.9791 3.0962
2.7843 -2.9622 3.0985
2.8310 -2.9450 3.1009
2.8779 -2.9273 3.1032
2.9250 -2.9093 3.1056
2.9722 -2.8910 3.1081
3.0195 -2.8722 3.1106
3.0670 -2.8531 3.1131
3.1146 -2.8336 3.1156
3.1624 -2.8137 3.1182
3.2103 -2.7935 3.1208
3.2584 -2.7728 3.1234
3.3067 -2.7517 3.1261
3.3551 -2.7302 3.1288
3.4037 -2.7083 3.1316
3.4525 -2.6860 3.1344
3.5014 -2.6633 3.1372
3.5505 -2.6402 3.1401
3.5997 -2.6166 3.1430
3.6492 -2.5926 3.1459
3.6988 -2.5681 3.1489
3.7486 -2.5432 3.1519
3.7986 -2.5178 3.1550
3.8488 -2.4920 3.1581
3.8992 -2.4657 3.1612
3.9497 -2.4389 3.1644
4.0005 -2.4116 3.1677
4.0514 -2.3839 3.1709
4.1026 -2.3557 3.1743
4.1540 -2.3269 3.1776
4.2055 -2.2977 3.1810
4.2573 -2.2679 3.1845
4.3093 -2.2376 3.1880
4.3615 -2.2068 3.1915
4.4139 -2.1755 3.1951
4.4665 -2.1436 3.1988
4.5194 -2.1111 3.2024
4.5725 -2.0781 3.2062
4.6259 -2.0446 3.2101
4.6807 -2.0110 3.2148
4.7357 -1.9767 3.2195
4.7910 -1.9419 3.2243
4.8465 -1.9064 3.2291
4.9024 -1.8703 3.2340
4.9585 -1.8335 3.2390
5.0149 -1.7961 3.2440
5.0716 -1.7581 3.2491
5.1276 -1.7190 3.2537
5.1831 -1.6790 3.2578
5.2388 -1.6383 3.2619
5.2948 -1.5969 3.2661
5.3301 -1.5488 3.2576
5.3864 -1.5062 3.2619
5.4643 -1.4686 3.2791
5.5213 -1.4244 3.2836
5.5786 -1.3795 3.2881
5.6362 -1.3338 3.2927
5.6940 -1.2873 3.2973
5.7515 -1.2399 3.3017
5.8081 -1.1915 3.3054
5.8644 -1.1422 3.3090
5.9203 -1.0921 3.3122
5.9765 -1.0411 3.3156
6.0329 -0.9894 3.3189
6.0895 -0.9368 3.3224
6.1463 -0.8834 3.3258
6.2033 -0.8292 3.3294
6.2605 -0.7741 3.3330
6.2732 -0.7131 3.3130
6.2767 -0.6511 3.2885
6.2802 -0.5892 3.2644
6.2836 -0.5275 3.2407
6.2869 -0.4659 3.2173
6.3120 -0.4059 3.2052
6.3681 -0.3472 3.2091
6.4244 -0.2875 3.2130
6.4812 -0.2270 3.2170
6.5383 -0.1655 3.2212
6.5956 -0.1030 3.2255
6.6531 -0.0395 3.2298
6.7109 0.0251 3.2342
6.7689 0.0906 3.2386
6.8261 0.1572 3.2427
6.8832 0.2248 3.2467
0.3057 -3.1565 3.0322
0.3450 -3.1553 3.0331
0.3844 -3.1538 3.0340
0.4238 -3.1521 3.0350
0.4633 -3.1501 3.0359
0.5027 -3.1479 3.0369
0.5422 -3.1454 3.0379
0.5818 -3.1427 3.0390
0.6213 -3.1397 3.0400
0.6609 -3.1365 3.0411
0.7006 -3.1331 3.0422
0.7403 -3.1294 3.0433
0.7800 -3.1254 3.0444
0.8198 -3.1212 3.0456
0.8596 -3.1168 3.0467
0.8994 -3.1120 3.0479
1.0994 -3.0846 3.0542
1.1396 -3.0784 3.0555
1.1798 -3.0718 3.0569
1.2200 -3.0650 3.0583
1.2603 -3.0580 3.0597
1.3007 -3.0507 3.0611
1.3411 -3.0431 3.0625
1.3816 -3.0352 3.0640
1.4221 -3.0271 3.0654
0.9393 -3.1071 3.0491
1.4627 -3.0187 3.0670
0.9793 -3.1018 3.0504
1.5034 -3.0100 3.0685
1.0193 -3.0964 3.0516
1.5441 -3.0011 3.0700
1.0593 -3.0906 3.0529
1.5849 -2.9919 3.0716
1.7488 -2.9521 3.0782
1.6258 -2.9824 3.0732
1.7899 -2.9415 3.0798
1.6667 -2.9726 3.0748
1.8311 -2.9306 3.0816
1.7077 -2.9625 3.0765
1.8648 -2.9075 3.0708
1.9059 -2.8960 3.0725
2.0799 -2.8588 3.0924
1.9472 -2.8842 3.0743
2.1217 -2.8457 3.0943
1.9967 -2.8839 3.0887
2.1635 -2.8324 3.0963
2.0383 -2.8715 3.0906
2.2054 -2.8188 3.0982
2.2474 -2.8048 3.1002
2.4163 -2.7458 3.1084
2.2895 -2.7905 3.1022
2.4587 -2.7302 3.1105
2.3317 -2.7759 3.1042
2.5013 -2.7143 3.1127
2.3739 -2.7610 3.1063
2.5439 -2.6981 3.1148
2.5866 -2.6815 3.1171
2.7585 -2.6118 3.1262
2.6294 -2.6646 3.1193
2.8017 -2.5935 3.1285
2.6723 -2.6474 3.1216
2.8450 -2.5748 3.1309
2.7153 -2.6298 3.1238
2.8884 -2.5558 3.1333
2.9319 -2.5364 3.1358
3.1071 -2.4551 3.1459
2.9756 -2.5167 3.1383
3.1512 -2.4339 3.1485
3.0193 -2.4965 3.1408
3.1953 -2.4122 3.1512
3.0631 -2.4760 3.1433
3.2397 -2.3901 3.1538
3.2841 -2.3677 3.1566
3.4629 -2.2737 3.1678
3.3286 -2.3448 3.1593
3.5079 -2.2492 3.1707
3.3733 -2.3215 3.1621
3.5530 -2.2243 3.1736
3.4180 -2.2978 3.1649
3.5983 -2.1989 3.1766
3.6437 -2.1731 3.1796
3.8265 -2.0653 3.1920
3.6892 -2.1468 3.1826
3.8725 -2.0372 3.1952
3.7348 -2.1201 3.1857
3.9187 -2.0086 3.1984
3.7806 -2.0929 3.1888
3.9650 -1.9796 3.2017
4.0114 -1.9501 3.2050
4.1984 -1.8270 3.2187
4.3877 -1.6957 3.2332
4.0579 -1.9201 3.2084
4.2455 -1.7950 3.2223
4.4361 -1.6618 3.2374
4.1046 -1.8896 3.2118
4.2928 -1.7624 3.2259
4.5834 -1.5570 3.2512
4.4850 -1.6275 3.2420
4.1515 -1.8585 3.2152
4.3402 -1.7293 3.2295
4.6328 -1.5210 3.2559
4.5341 -1.5926 3.2465
4.7822 -1.4091 3.2704
4.9789 -1.2498 3.2872
4.6824 -1.4843 3.2607
5.1766 -1.0800 3.3039
4.8322 -1.3705 3.2752
5.0281 -1.2083 3.2913
4.7322 -1.4470 3.2655
5.2264 -1.0358 3.3082
4.8809 -1.3309 3.2791
5.0775 -1.1662 3.2954
5.3556 -0.8957 3.3085
4.9299 -1.2907 3.2831
5.2764 -0.9910 3.3126
5.1270 -1.1234 3.2996
5.5727 -0.7063 3.3363
5.4256 -0.8521 3.3252
5.7702 -0.5015 3.3517
5.3056 -0.9418 3.3040
5.6219 -0.6562 3.3401
5.4745 -0.8042 3.3288
5.8198 -0.4484 3.3557
5.9665 -0.2843 3.3665
5.6713 -0.6054 3.3439
5.5236 -0.7556 3.3325
5.8686 -0.3945 3.3593
6.0156 -0.2280 3.3702
5.7207 -0.5539 3.3478
5.9175 -0.3398 3.3629
6.0647 -0.1708 3.3739
6.1139 -0.1129 3.3777
6.1631 -0.0541 3.3816
6.2124 0.0056 3.3855
6.2478 0.0659 3.3819
6.2506 0.1262 3.3609
6.2533 0.1865 3.3402
6.2561 0.2468 3.3199
6.2587 0.3071 3.2998
0.2864 -2.8950 3.0529
0.3233 -2.8937 3.0537
0.3601 -2.8921 3.0546
0.3970 -2.8903 3.0555
0.4340 -2.8883 3.0564
0.4709 -2.8860 3.0573
0.5079 -2.8835 3.0583
0.5449 -2.8808 3.0593
0.5819 -2.8778 3.0603
0.6190 -2.8746 3.0613
0.6561 -2.8711 3.0623
0.6932 -2.8673 3.0634
0.7303 -2.8634 3.0645
0.7675 -2.8592 3.0656
0.8048 -2.8547 3.0667
0.8420 -2.8500 3.0678
0.8793 -2.8450 3.0690
0.9166 -2.8398 3.0702
0.9540 -2.8343 3.0714
0.9913 -2.8286 3.0726
1.0288 -2.8227 3.0738
1.0662 -2.8164 3.0751
1.1037 -2.8100 3.0764
1.1413 -2.8032 3.0777
1.1789 -2.7962 3.0790
1.2165 -2.7890 3.0804
1.2542 -2.7815 3.0818
1.2919 -2.7737 3.0832
1.3296 -2.7657 3.0846
1.3674 -2.7574 3.0860
1.4053 -2.7488 3.0875
1.4432 -2.7400 3.0890
1.4811 -2.7309 3.0905
1.5191 -2.7215 3.0920
1.5571 -2.7119 3.0936
1.5952 -2.7019 3.0951
1.6333 -2.6917 3.0967
1.6715 -2.6813 3.0984
1.7097 -2.6705 3.1000
1.7480 -2.6595 3.1017
1.7863 -2.6482 3.1034
1.8247 -2.6366 3.1051
1.8555 -2.6140 3.0942
1.8939 -2.6019 3.0960
1.9323 -2.5895 3.0977
1.9788 -2.5873 3.1122
2.0174 -2.5742 3.1140
2.0562 -2.5609 3.1159
2.0949 -2.5472 3.1178
2.1338 -2.5332 3.1197
2.1726 -2.5190 3.1217
2.2116 -2.5044 3.1236
2.2506 -2.4895 3.1256
2.2897 -2.4743 3.1276
2.3288 -2.4588 3.1297
2.3680 -2.4430 3.1318
2.4073 -2.4268 3.1339
2.4466 -2.4104 3.1360
2.4860 -2.3936 3.1382
2.5254 -2.3765 3.1403
2.5649 -2.3590 3.1426
2.6045 -2.3412 3.1448
2.6442 -2.3231 3.1471
2.6839 -2.3046 3.1494
2.7236 -2.2858 3.1517
2.7635 -2.2666 3.1540
2.8034 -2.2471 3.1564
2.8434 -2.2273 3.1588
2.8835 -2.2070 3.1613
2.9236 -2.1864 3.1638
2.9638 -2.1655 3.1663
3.0040 -2.1442 3.1688
3.0444 -2.1225 3.1714
3.0848 -2.1004 3.1740
3.1253 -2.0780 3.1766
3.1658 -2.0551 3.1793
3.2065 -2.0319 3.1820
3.2472 -2.0083 3.1847
3.2879 -1.9843 3.1875
3.3288 -1.9599 3.1903
3.3697 -1.9351 3.1931
3.4107 -1.9099 3.1960
3.4518 -1.8843 3.1989
3.4929 -1.8582 3.2018
3.5341 -1.8317 3.2048
3.5754 -1.8048 3.2078
3.6168 -1.7775 3.2108
3.6582 -1.7497 3.2139
3.6997 -1.7215 3.2170
3.7413 -1.6929 3.2202
3.7830 -1.6638 3.2234
3.8247 -1.6342 3.2266
3.8666 -1.6042 3.2299
3.9084 -1.5737 3.2332
3.9504 -1.5428 3.2365
3.9924 -1.5113 3.2399
4.0346 -1.4794 3.2434
4.0767 -1.4470 3.2468
4.1190 -1.4141 3.2503
4.1614 -1.3807 3.2539
4.2038 -1.3468 3.2575
4.2472 -1.3126 3.2618
4.2907 -1.2779 3.2662
4.3342 -1.2427 3.2707
4.3779 -1.2070 3.2752
4.4217 -1.1706 3.2797
4.4656 -1.1338 3.2843
4.5096 -1.0963 3.2890
4.5537 -1.0583 3.2937
4.5972 -1.0196 3.2980
4.6401 -0.9801 3.3018
4.6830 -0.9400 3.3057
4.7260 -0.8994 3.3096
4.7691 -0.8582 3.3136
4.8122 -0.8163 3.3176
4.8553 -0.7739 3.3217
4.8985 -0.7308 3.3258
4.9418 -0.6872 3.3300
4.9851 -0.6429 3.3342
5.0284 -0.5979 3.3384
5.0714 -0.5523 3.3425
5.1135 -0.5060 3.3460
5.2397 -0.3630 3.3567
5.1556 -0.4590 3.3495
5.1976 -0.4113 3.3531
5.2635 -0.3130 3.3487
5.4080 -0.1631 3.3716
5.3055 -0.2635 3.3524
5.4501 -0.1115 3.3754
5.3474 -0.2134 3.3562
5.4921 -0.0591 3.3793
5.5341 -0.0060 3.3833
5.5761 0.0478 3.3872
5.6181 0.1023 3.3913
5.6600 0.1576 3.3954
5.7009 0.2136 3.3989
5.7413 0.2702 3.4022
5.7817 0.3277 3.4056
5.8219 0.3858 3.4090
