ply
format ascii 1.0
element vertex 2112
property float32 x
property float32 y
property float32 z
end_header
-11.3428 2.2162 -2.8075
-11.3434 2.1014 -2.7682
-11.3440 1.9871 -2.7294
-11.3446 1.8732 -2.6909
-11.3452 1.7598 -2.6528
-11.3458 1.6468 -2.6151
-11.3464 1.5342 -2.5777
-11.3470 1.4220 -2.5407
-11.3476 1.3101 -2.5040
-11.3482 1.1985 -2.4676
-11.3487 1.0873 -2.4315
-11.3493 0.9763 -2.3957
-11.3499 0.8655 -2.3602
-11.3505 0.7550 -2.3250
-11.3511 0.6447 -2.2901
-11.3516 0.5346 -2.2554
-11.3522 0.4246 -2.2211
-11.3528 0.3147 -2.1869
-11.3534 0.2050 -2.1530
-11.3555 0.0953 -2.1197
-11.3558 -0.0143 -2.0862
-11.3562 -0.1238 -2.0530
-11.3565 -0.2334 -2.0200
-11.3568 -0.3429 -1.9872
-11.3572 -0.4524 -1.9546
-11.3575 -0.5620 -1.9222
-11.3579 -0.6717 -1.8900
-11.3582 -0.7814 -1.8580
-11.3586 -0.8912 -1.8261
-11.3589 -1.0012 -1.7944
-11.3592 -1.1113 -1.7630
-11.3596 -1.2216 -1.7316
-11.3599 -1.3321 -1.7004
-11.3603 -1.4428 -1.6694
-11.3606 -1.5538 -1.6385
-11.3610 -1.6650 -1.6078
-11.3627 -2.2260 -1.4559
-11.3631 -2.3393 -1.4258
-11.3613 -1.7765 -1.5772
-11.3634 -2.4531 -1.3959
-11.3638 -2.5673 -1.3660
-11.3617 -1.8884 -1.5467
-11.3642 -2.6820 -1.3363
-11.3620 -2.0005 -1.5163
-11.3587 -2.7958 -1.3059
-11.3624 -2.1131 -1.4860
-11.3592 -2.9115 -1.2763
-11.3601 -3.1447 -1.2174
-11.3597 -3.0278 -1.2468
-11.3606 -3.2622 -1.1880
-11.3620 -3.6188 -1.1001
-11.3611 -3.3804 -1.1586
-11.3625 -3.7391 -1.0708
-11.3616 -3.4992 -1.1293
-11.3630 -3.8601 -1.0416
-11.3635 -3.9820 -1.0125
-11.3640 -4.1047 -0.9833
-11.3660 -4.6046 -0.8668
-11.3645 -4.2283 -0.9542
-11.3665 -4.7319 -0.8377
-11.3650 -4.3527 -0.9251
-11.3670 -4.8604 -0.8085
-11.3655 -4.4782 -0.8960
-11.3675 -4.9899 -0.7794
-11.3681 -5.1206 -0.7501
-11.3702 -5.6553 -0.6329
-11.3686 -5.2524 -0.7209
-11.3650 -5.7892 -0.6031
-11.3691 -5.3854 -0.6916
-11.3659 -5.9277 -0.5737
-11.3697 -5.5197 -0.6623
-11.3668 -6.0675 -0.5441
-11.3677 -6.2089 -0.5145
-11.3715 -6.7904 -0.3949
-11.3724 -6.9400 -0.3647
-11.3686 -6.3518 -0.4847
-11.3734 -7.0916 -0.3344
-11.3696 -6.4963 -0.4549
-11.3744 -7.2450 -0.3039
-11.3705 -6.6425 -0.4249
-11.3754 -7.4003 -0.2733
-11.3796 -8.0429 -0.1493
-11.3765 -7.5577 -0.2426
-11.3807 -8.2092 -0.1178
-11.3775 -7.7173 -0.2117
-11.3818 -8.3780 -0.0861
-11.3785 -7.8790 -0.1806
-11.3829 -8.5492 -0.0542
-11.3840 -8.7230 -0.0220
-11.3890 -8.9026 0.0103
-11.3920 -9.4492 0.1091
-11.3900 -9.0819 0.0430
-11.3931 -9.6374 0.1426
-11.3910 -9.2640 0.0759
-11.3941 -9.8289 0.1764
-11.3963 -10.2220 0.2449
-11.3952 -10.0237 0.2105
-11.3975 -10.4239 0.2797
-11.4010 -11.0527 0.3864
-11.3986 -10.6296 0.3149
-11.4022 -11.2705 0.4228
-11.3998 -10.8391 0.3504
-11.4034 -11.4926 0.4596
-11.4026 -11.9472 0.5345
-11.4047 -11.7193 0.4969
-11.4032 -12.1828 0.5727
-11.4054 -12.9210 0.6907
-11.4039 -12.4235 0.6115
-11.4046 -12.6695 0.6508
-11.4061 -13.1783 0.7312
-11.4084 -13.9874 0.8567
-11.4069 -13.4416 0.7724
-11.4076 -13.7112 0.8142
-11.4093 -14.2705 0.8999
-11.4101 -14.5607 0.9439
-11.4209 -15.1761 1.0353
-11.4228 -15.4915 1.0820
-11.4192 -14.8691 0.9895
-11.2202 -15.5326 1.1094
-10.6371 -15.3497 1.1429
-10.9245 -15.4394 1.1265
-10.3576 -15.2635 1.1587
-9.5868 -15.0629 1.2057
-10.0854 -15.1806 1.1739
-9.5652 -15.3598 1.2495
-9.8203 -15.1007 1.1885
-9.4087 -15.4443 1.2760
-9.1608 -15.3753 1.2892
-8.9185 -15.3089 1.3020
-8.6242 -15.1441 1.3056
-8.4497 -15.1832 1.3262
-8.2227 -15.1237 1.3376
-11.3415 2.3739 -2.2721
-11.3421 2.2587 -2.2342
-11.3427 2.1440 -2.1966
-11.3433 2.0298 -2.1594
-11.3439 1.9161 -2.1225
-11.3445 1.8028 -2.0858
-11.3451 1.6899 -2.0495
-11.3457 1.5774 -2.0134
-11.3463 1.4652 -1.9776
-11.3469 1.3534 -1.9421
-11.3474 1.2419 -1.9068
-11.3486 1.0198 -1.8370
-11.3480 1.1307 -1.8718
-11.3492 0.9091 -1.8024
-11.3509 0.5782 -1.7001
-11.3498 0.7986 -1.7681
-11.3515 0.4682 -1.6664
-11.3503 0.6883 -1.7340
-11.3521 0.3584 -1.6329
-11.3545 0.1390 -1.5666
-11.3526 0.2487 -1.5995
-11.3548 0.0294 -1.5336
-11.3558 -0.2992 -1.4355
-11.3551 -0.0801 -1.5007
-11.3562 -0.4088 -1.4031
-11.3555 -0.1897 -1.4680
-11.3565 -0.5184 -1.3709
-11.3572 -0.7379 -1.3068
-11.3568 -0.6281 -1.3388
-11.3575 -0.8478 -1.2750
-11.3586 -1.1784 -1.1801
-11.3579 -0.9579 -1.2432
-11.3589 -1.2890 -1.1486
-11.3582 -1.0681 -1.2116
-11.3592 -1.3998 -1.1173
-11.3599 -1.6222 -1.0548
-11.3596 -1.5109 -1.0860
-11.3603 -1.7338 -1.0237
-11.3613 -2.0708 -0.9307
-11.3606 -1.8458 -0.9927
-11.3617 -2.1838 -0.8999
-11.3610 -1.9581 -0.9617
-11.3621 -2.2973 -0.8690
-11.3628 -2.5256 -0.8074
-11.3624 -2.4112 -0.8382
-11.3631 -2.6405 -0.7767
-11.3595 -2.9872 -0.6842
-11.3586 -2.7547 -0.7456
-11.3600 -3.1043 -0.6535
-11.3590 -2.8707 -0.7149
-11.3605 -3.2220 -0.6227
-11.3614 -3.4595 -0.5613
-11.3609 -3.3404 -0.5920
-11.3619 -3.5794 -0.5305
-11.3633 -3.9435 -0.4379
-11.3624 -3.7000 -0.4997
-11.3638 -4.0665 -0.4070
-11.3629 -3.8213 -0.4688
-11.3643 -4.1904 -0.3759
-11.3653 -4.4410 -0.3137
-11.3648 -4.3153 -0.3449
-11.3658 -4.5678 -0.2825
-11.3674 -4.9544 -0.1882
-11.3664 -4.6956 -0.2511
-11.3679 -5.0855 -0.1565
-11.3669 -4.8245 -0.2197
-11.3685 -5.2178 -0.1248
-11.3695 -5.4861 -0.0609
-11.3690 -5.3513 -0.0929
-11.3701 -5.6222 -0.0287
-11.3675 -6.0367 0.0688
-11.3706 -5.7597 0.0036
-11.3685 -6.1787 0.1016
-11.3666 -5.8962 0.0361
-11.3694 -6.3222 0.1346
-11.3713 -6.6143 0.2013
-11.3703 -6.4674 0.1678
-11.3723 -6.7630 0.2349
-11.3752 -7.2200 0.3373
-11.3732 -6.9134 0.2688
-11.3763 -7.3762 0.3720
-11.3742 -7.0657 0.3029
-11.3773 -7.5346 0.4069
-11.3794 -7.8578 0.4777
-11.3783 -7.6950 0.4422
-11.3805 -8.0228 0.5136
-11.3838 -8.5325 0.6232
-11.3816 -8.1902 0.5498
-11.3849 -8.7075 0.6605
-11.3827 -8.3600 0.5863
-11.3886 -8.8873 0.6983
-11.3906 -9.2515 0.7749
-11.3896 -9.0679 0.7364
-11.3916 -9.4381 0.8139
-11.3948 -10.0174 0.9336
-11.3927 -9.6279 0.8533
-11.3960 -10.2175 0.9746
-11.3938 -9.8209 0.8932
-11.3971 -10.4212 1.0161
-11.3994 -10.8403 1.1008
-11.3982 -10.6287 1.0582
-11.4006 -11.0560 1.1441
-11.4044 -11.7296 1.2781
-11.4018 -11.2760 1.1881
-11.4021 -11.9599 1.3238
-11.4031 -11.5005 1.2327
-11.4028 -12.1982 1.3706
-11.4042 -12.6907 1.4666
-11.4035 -12.4417 1.4182
-11.4050 -12.9453 1.5159
-10.7774 -12.9872 1.5773
-11.3273 -13.1152 1.5553
-10.5125 -12.9251 1.5875
-11.0485 -13.0500 1.5665
-10.2544 -12.8649 1.5973
-9.7582 -12.7509 1.6158
-10.0031 -12.8068 1.6067
-9.5716 -12.7665 1.6334
-9.1960 -13.0554 1.7158
-9.5561 -13.0119 1.6803
-8.9727 -13.0100 1.7241
-9.4245 -13.1023 1.7072
-8.7538 -12.9658 1.7321
-8.3289 -12.8801 1.7470
-8.5391 -12.9222 1.7397
-8.1230 -12.8394 1.7541
-7.5294 -12.7254 1.7740
-7.9213 -12.8001 1.7609
-7.3390 -12.6899 1.7801
-7.7235 -12.7621 1.7676
-7.1521 -12.6556 1.7861
-6.9684 -12.6225 1.7919
-11.3402 2.5296 -1.7433
-11.3408 2.4140 -1.7067
-11.3414 2.2990 -1.6704
-11.3420 2.1845 -1.6343
-11.3426 2.0704 -1.5985
-11.3432 1.9568 -1.5629
-11.3438 1.8436 -1.5276
-11.3444 1.7309 -1.4925
-11.3450 1.6185 -1.4576
-11.3456 1.5064 -1.4230
-11.3461 1.3947 -1.3885
-11.3467 1.2833 -1.3542
-11.3473 1.1722 -1.3201
-11.3479 1.0613 -1.2862
-11.3485 0.9506 -1.2525
-11.3491 0.8402 -1.2189
-11.3496 0.7300 -1.1854
-11.3502 0.6199 -1.1522
-11.3508 0.5100 -1.1190
-11.3514 0.4002 -1.0860
-11.3519 0.2904 -1.0531
-11.3535 0.1808 -1.0205
-11.3538 0.0712 -0.9878
-11.3541 -0.0384 -0.9552
-11.3545 -0.1479 -0.9228
-11.3548 -0.2575 -0.8904
-11.3551 -0.3671 -0.8581
-11.3555 -0.4767 -0.8260
-11.3558 -0.5865 -0.7938
-11.3562 -0.6963 -0.7618
-11.3565 -0.8063 -0.7298
-11.3569 -0.9163 -0.6979
-11.3572 -1.0266 -0.6660
-11.3575 -1.1371 -0.6342
-11.3579 -1.2477 -0.6024
-11.3582 -1.3586 -0.5706
-11.3586 -1.4698 -0.5388
-11.3589 -1.5812 -0.5071
-11.3593 -1.6929 -0.4754
-11.3596 -1.8050 -0.4437
-11.3600 -1.9174 -0.4120
-11.3603 -2.0302 -0.3803
-11.3607 -2.1434 -0.3485
-11.3610 -2.2571 -0.3168
-11.3614 -2.3711 -0.2850
-11.3617 -2.4857 -0.2532
-11.3621 -2.6008 -0.2213
-11.3625 -2.7164 -0.1894
-11.3589 -2.8315 -0.1574
-11.3593 -2.9483 -0.1254
-11.3598 -3.0656 -0.0933
-11.3603 -3.1836 -0.0612
-11.3608 -3.3023 -0.0290
-11.3612 -3.4216 0.0034
-11.3617 -3.5417 0.0358
-11.3622 -3.6626 0.0683
-11.3627 -3.7842 0.1009
-11.3632 -3.9067 0.1337
-11.3637 -4.0301 0.1666
-11.3642 -4.1543 0.1996
-11.3647 -4.2795 0.2328
-11.3652 -4.4056 0.2661
-11.3667 -4.7903 0.3670
-11.3657 -4.5328 0.2996
-11.3673 -4.9207 0.4010
-11.3662 -4.6610 0.3332
-11.3678 -5.0522 0.4353
-11.3689 -5.3190 0.5043
-11.3683 -5.1850 0.4697
-11.3694 -5.4543 0.5392
-11.3674 -5.8665 0.6450
-11.3699 -5.5909 0.5743
-11.3683 -6.0076 0.6809
-11.3705 -5.7290 0.6096
-11.3692 -6.1502 0.7170
-11.3711 -6.4404 0.7903
-11.3702 -6.2945 0.7535
-11.3721 -6.5880 0.8274
-11.3751 -7.0418 0.9407
-11.3731 -6.7374 0.8648
-11.3761 -7.1969 0.9792
-11.3741 -6.8886 0.9026
-11.3771 -7.3540 1.0181
-11.3792 -7.6748 1.0972
-11.3782 -7.5133 1.0574
-11.3803 -7.8385 1.1374
-11.3836 -8.3441 1.2607
-11.3814 -8.0046 1.1780
-11.3847 -8.5178 1.3028
-11.3825 -8.1731 1.2191
-11.3859 -8.6942 1.3455
-11.3892 -9.0562 1.4326
-11.3882 -8.8742 1.3888
-11.3902 -9.2411 1.4770
-11.3934 -9.8153 1.6140
-11.3912 -9.4292 1.5220
-11.3945 -10.0135 1.6610
-11.3923 -9.6206 1.5677
-11.3956 -10.2153 1.7088
-11.3979 -10.6305 1.8066
-11.3967 -10.4210 1.7573
-11.3991 -10.8441 1.8567
-10.8633 -10.9666 1.9173
-11.3854 -11.0477 1.9053
-10.6129 -10.9282 1.9230
-11.1207 -11.0064 1.9114
-10.3693 -10.8912 1.9284
-9.9006 -10.8210 1.9388
-10.1319 -10.8555 1.9337
-9.6754 -10.7881 1.9438
-9.4082 -11.1416 2.0394
-9.5604 -10.8754 1.9702
-9.1960 -11.1129 2.0441
-9.5463 -11.0796 2.0178
-8.9884 -11.0852 2.0487
-8.5329 -10.9634 2.0446
-8.7854 -11.0584 2.0532
-8.3920 -11.0073 2.0617
-7.8309 -10.9367 2.0734
-8.2013 -10.9830 2.0657
-7.6511 -10.9146 2.0771
-8.0143 -10.9595 2.0696
-7.4745 -10.8933 2.0807
-7.1308 -10.8526 2.0874
-7.3011 -10.8726 2.0841
-6.9634 -10.8332 2.0907
-6.7988 -10.8144 2.0938
-6.6370 -10.7962 2.0968
-6.4778 -10.7786 2.0998
-6.3210 -10.7616 2.1026
-6.1667 -10.7451 2.1054
-6.0147 -10.7291 2.1081
-11.3389 2.6841 -1.2185
-11.3395 2.5682 -1.1833
-11.3401 2.4528 -1.1482
-11.3407 2.3379 -1.1133
-11.3413 2.2235 -1.0787
-11.3419 2.1096 -1.0442
-11.3425 1.9962 -1.0099
-11.3431 1.8831 -0.9757
-11.3437 1.7705 -0.9417
-11.3443 1.6582 -0.9079
-11.3449 1.5463 -0.8742
-11.3454 1.4347 -0.8407
-11.3460 1.3234 -0.8073
-11.3466 1.2123 -0.7740
-11.3472 1.1015 -0.7408
-11.3478 0.9909 -0.7078
-11.3484 0.8806 -0.6748
-11.3489 0.7704 -0.6420
-11.3495 0.6604 -0.6092
-11.3501 0.5505 -0.5765
-11.3507 0.4407 -0.5439
-11.3512 0.3310 -0.5113
-11.3518 0.2214 -0.4789
-11.3528 0.1118 -0.4464
-11.3531 0.0022 -0.4140
-11.3535 -0.1073 -0.3817
-11.3538 -0.2169 -0.3494
-11.3541 -0.3265 -0.3171
-11.3545 -0.4362 -0.2849
-11.3548 -0.5460 -0.2526
-11.3552 -0.6558 -0.2204
-11.3555 -0.7658 -0.1882
-11.3559 -0.8760 -0.1559
-11.3562 -0.9863 -0.1237
-11.3565 -1.0968 -0.0915
-11.3569 -1.2075 -0.0592
-11.3572 -1.3185 -0.0269
-11.3576 -1.4297 0.0054
-11.3579 -1.5413 0.0378
-11.3583 -1.6531 0.0702
-11.3586 -1.7653 0.1027
-11.3590 -1.8778 0.1353
-11.3593 -1.9908 0.1679
-11.3597 -2.1041 0.2006
-11.3600 -2.2179 0.2333
-11.3604 -2.3321 0.2662
-11.3607 -2.4468 0.2992
-11.3611 -2.5621 0.3322
-11.3615 -2.6779 0.3654
-11.3587 -2.7934 0.3986
-11.3592 -2.9104 0.4320
-11.3597 -3.0279 0.4656
-11.3601 -3.1462 0.4993
-11.3606 -3.2651 0.5331
-11.3611 -3.3847 0.5671
-11.3616 -3.5051 0.6013
-11.3621 -3.6262 0.6357
-11.3626 -3.7482 0.6702
-11.3630 -3.8710 0.7049
-11.3635 -3.9946 0.7399
-11.3640 -4.1192 0.7750
-11.3645 -4.2447 0.8104
-11.3650 -4.3713 0.8460
-11.3656 -4.4988 0.8819
-11.3661 -4.6274 0.9180
-11.3666 -4.7571 0.9543
-11.3671 -4.8879 0.9910
-11.3676 -5.0199 1.0279
-11.3682 -5.1532 1.0651
-11.3687 -5.2877 1.1026
-11.3693 -5.4235 1.1405
-11.3698 -5.5607 1.1787
-11.3704 -5.6992 1.2172
-11.3681 -5.8378 1.2558
-11.3690 -5.9795 1.2951
-11.3700 -6.1228 1.3347
-11.3709 -6.2677 1.3748
-11.3719 -6.4143 1.4153
-11.3729 -6.5627 1.4563
-11.3739 -6.7129 1.4976
-11.3749 -6.8649 1.5395
-11.3759 -7.0189 1.5818
-11.3769 -7.1749 1.6247
-11.3780 -7.3330 1.6680
-11.3790 -7.4932 1.7119
-11.3801 -7.6557 1.7564
-11.3812 -7.8204 1.8015
-11.3823 -7.9876 1.8471
-11.3834 -8.1573 1.8934
-11.3845 -8.3295 1.9403
-11.3857 -8.5044 1.9879
-11.3869 -8.6821 2.0362
-11.3878 -8.8624 2.0852
-11.3888 -9.0457 2.1349
-11.3898 -9.2322 2.1855
-11.1553 -9.2270 2.1906
-10.9123 -9.2100 2.1926
-10.6759 -9.1936 2.1946
-10.4456 -9.1777 2.1966
-10.2212 -9.1624 2.1984
-10.0025 -9.1476 2.2002
-9.7891 -9.1333 2.2020
-9.5819 -9.1204 2.2039
-9.5495 -9.2730 2.2457
-9.5366 -9.4473 2.2928
-9.3708 -9.4705 2.3032
-9.1740 -9.4591 2.3051
-8.9815 -9.4481 2.3069
-8.7931 -9.4374 2.3086
-8.5561 -9.3697 2.2962
-8.4275 -9.4170 2.3119
-8.2502 -9.4072 2.3135
-8.0763 -9.3978 2.3150
-7.9057 -9.3886 2.3165
-7.7382 -9.3798 2.3180
-7.5738 -9.3711 2.3194
-7.4123 -9.3628 2.3208
-7.2535 -9.3547 2.3221
-7.0976 -9.3469 2.3234
-6.9441 -9.3392 2.3246
-6.7932 -9.3318 2.3258
-6.6447 -9.3247 2.3270
-6.4985 -9.3177 2.3282
-6.3546 -9.3110 2.3293
-6.2128 -9.3044 2.3303
-6.0730 -9.2981 2.3314
-5.9353 -9.2919 2.3324
-5.7995 -9.2859 2.3334
-5.6655 -9.2801 2.3344
-5.5333 -9.2745 2.3353
-5.4029 -9.2690 2.3362
-5.2740 -9.2638 2.3371
-11.3376 2.8381 -0.6956
-11.3382 2.7218 -0.6617
-11.3388 2.6060 -0.6278
-11.3394 2.4908 -0.5941
-11.3400 2.3762 -0.5606
-11.3406 2.2620 -0.5272
-11.3412 2.1482 -0.4939
-11.3418 2.0349 -0.4607
-11.3424 1.9220 -0.4276
-11.3430 1.8095 -0.3946
-11.3436 1.6973 -0.3618
-11.3442 1.5855 -0.3290
-11.3448 1.4740 -0.2962
-11.3453 1.3628 -0.2636
-11.3459 1.2518 -0.2310
-11.3465 1.1411 -0.1984
-11.3471 1.0306 -0.1660
-11.3477 0.9203 -0.1335
-11.3483 0.8102 -0.1011
-11.3488 0.7002 -0.0687
-11.3494 0.5904 -0.0364
-11.3500 0.4806 -0.0041
-11.3506 0.3710 0.0283
-11.3511 0.2614 0.0606
-11.3518 0.1518 0.0929
-11.3521 0.0423 0.1252
-11.3525 -0.0673 0.1576
-11.3528 -0.1768 0.1900
-11.3532 -0.2865 0.2223
-11.3535 -0.3962 0.2548
-11.3538 -0.5059 0.2872
-11.3542 -0.6158 0.3198
-11.3545 -0.7259 0.3523
-11.3549 -0.8360 0.3850
-11.3552 -0.9464 0.4177
-11.3555 -1.0570 0.4504
-11.3559 -1.1678 0.4833
-11.3562 -1.2788 0.5162
-11.3566 -1.3901 0.5493
-11.3569 -1.5018 0.5824
-11.3573 -1.6137 0.6156
-11.3576 -1.7260 0.6490
-11.3580 -1.8386 0.6825
-11.3583 -1.9517 0.7161
-11.3587 -2.0652 0.7499
-11.3590 -2.1791 0.7838
-11.3594 -2.2934 0.8178
-11.3597 -2.4083 0.8521
-11.3601 -2.5237 0.8865
-11.3604 -2.6397 0.9210
-11.3586 -2.7557 0.9556
-11.3590 -2.8728 0.9906
-11.3595 -2.9906 1.0257
-11.3600 -3.1091 1.0611
-11.3605 -3.2282 1.0967
-11.3609 -3.3481 1.1325
-11.3614 -3.4687 1.1686
-11.3619 -3.5901 1.2049
-11.3624 -3.7124 1.2415
-11.3629 -3.8355 1.2783
-11.3634 -3.9595 1.3155
-11.3639 -4.0844 1.3529
-11.3644 -4.2102 1.3906
-11.3649 -4.3371 1.4287
-11.3654 -4.4650 1.4671
-11.3659 -4.5940 1.5058
-11.3665 -4.7241 1.5448
-11.3670 -4.8554 1.5842
-11.3675 -4.9879 1.6240
-11.3680 -5.1216 1.6642
-11.3686 -5.2566 1.7048
-11.3691 -5.3929 1.7458
-11.3697 -5.5306 1.7873
-11.3702 -5.6698 1.8291
-11.3689 -5.8094 1.8712
-11.3698 -5.9517 1.9141
-11.3708 -6.0957 1.9574
-11.3717 -6.2413 2.0013
-11.3727 -6.3886 2.0458
-11.3737 -6.5377 2.0908
-11.3747 -6.6887 2.1363
-11.3757 -6.8415 2.1825
-11.3767 -6.9963 2.2292
-11.3778 -7.1532 2.2766
-11.3788 -7.3122 2.3247
-11.3799 -7.4734 2.3734
-11.3810 -7.6369 2.4229
-11.1477 -7.6420 2.4221
-10.9191 -7.6460 2.4211
-10.6964 -7.6498 2.4201
-10.4794 -7.6535 2.4191
-10.2679 -7.6571 2.4181
-10.0615 -7.6605 2.4172
-9.8600 -7.6639 2.4163
-9.6637 -7.6674 2.4155
-9.5502 -7.7342 2.4347
-9.5384 -7.8841 2.4801
-9.4988 -8.0128 2.5188
-9.3125 -8.0169 2.5183
-9.1301 -8.0208 2.5179
-8.9245 -8.0004 2.5099
-8.7159 -7.9729 2.4997
-8.5375 -7.9689 2.4969
-8.3806 -7.9818 2.4995
-8.2263 -7.9946 2.5020
-8.0745 -8.0070 2.5045
-7.9228 -8.0168 2.5062
-7.7717 -8.0245 2.5073
-7.6221 -8.0310 2.5081
-7.4744 -8.0367 2.5086
-7.3283 -8.0416 2.5089
-7.1847 -8.0463 2.5092
-7.0430 -8.0507 2.5094
-6.9030 -8.0543 2.5094
-6.7652 -8.0578 2.5095
-6.6294 -8.0612 2.5095
-6.4956 -8.0645 2.5095
-6.3638 -8.0678 2.5095
-6.2338 -8.0709 2.5095
-6.1054 -8.0737 2.5095
-5.9785 -8.0762 2.5093
-5.8534 -8.0786 2.5092
-5.7299 -8.0809 2.5090
-5.6080 -8.0832 2.5089
-5.4876 -8.0854 2.5088
-5.3687 -8.0876 2.5087
-5.2512 -8.0897 2.5086
-5.1062 -8.0461 2.4943
-5.0205 -8.0938 2.5084
-4.9070 -8.0957 2.5083
-4.7949 -8.0976 2.5082
-4.6839 -8.0995 2.5081
-11.3363 2.9922 -0.1723
-11.3369 2.8756 -0.1396
-11.3375 2.7594 -0.1070
-11.3381 2.6439 -0.0745
-11.3387 2.5289 -0.0421
-11.3393 2.4144 -0.0098
-11.3399 2.3004 0.0225
-11.3405 2.1868 0.0548
-11.3411 2.0736 0.0869
-11.3417 1.9609 0.1191
-11.3423 1.8485 0.1512
-11.3429 1.7365 0.1832
-11.3435 1.6248 0.2153
-11.3441 1.5134 0.2473
-11.3447 1.4023 0.2793
-11.3452 1.2915 0.3113
-11.3458 1.1808 0.3433
-11.3464 1.0704 0.3754
-11.3470 0.9602 0.4074
-11.3476 0.8502 0.4395
-11.3481 0.7402 0.4715
-11.3487 0.6304 0.5037
-11.3493 0.5208 0.5358
-11.3499 0.4111 0.5680
-11.3504 0.3016 0.6003
-11.3508 0.1920 0.6326
-11.3511 0.0825 0.6650
-11.3515 -0.0270 0.6975
-11.3518 -0.1366 0.7300
-11.3522 -0.2462 0.7626
-11.3525 -0.3559 0.7953
-11.3528 -0.4657 0.8281
-11.3532 -0.5756 0.8610
-11.3535 -0.6857 0.8941
-11.3539 -0.7959 0.9272
-11.3542 -0.9063 0.9605
-11.3545 -1.0169 0.9939
-11.3549 -1.1278 1.0274
-11.3552 -1.2389 1.0611
-11.3556 -1.3503 1.0950
-11.3559 -1.4620 1.1290
-11.3563 -1.5740 1.1632
-11.3566 -1.6864 1.1975
-11.3569 -1.7991 1.2321
-11.3573 -1.9123 1.2668
-11.3576 -2.0259 1.3018
-11.3580 -2.1399 1.3370
-11.3584 -2.2545 1.3723
-11.3587 -2.3695 1.4079
-11.3591 -2.4850 1.4438
-11.3594 -2.6012 1.4799
-11.3598 -2.7179 1.5162
-11.3589 -2.8349 1.5527
-11.3593 -2.9529 1.5896
-11.3598 -3.0715 1.6268
-11.3603 -3.1909 1.6642
-11.3608 -3.3110 1.7020
-11.3613 -3.4319 1.7401
-11.3618 -3.5536 1.7786
-11.3622 -3.6761 1.8173
-11.3627 -3.7995 1.8564
-11.3632 -3.9238 1.8959
-11.3637 -4.0491 1.9358
-11.3642 -4.1753 1.9760
-11.3648 -4.3025 2.0167
-11.3653 -4.4308 2.0577
-11.3658 -4.5602 2.0992
-11.3663 -4.6907 2.1411
-11.3668 -4.8224 2.1835
-11.3674 -4.9553 2.2264
-11.3679 -5.0895 2.2697
-11.3685 -5.2250 2.3135
-11.3690 -5.3618 2.3579
-11.3696 -5.5001 2.4028
-11.3701 -5.6398 2.4482
-11.3696 -5.7805 2.4940
-11.3706 -5.9234 2.5407
-11.3715 -6.0680 2.5880
-11.3103 -6.1803 2.6215
-11.0910 -6.2044 2.6178
-10.8773 -6.2276 2.6143
-10.6690 -6.2501 2.6108
-10.4658 -6.2718 2.6075
-10.2674 -6.2929 2.6043
-10.0738 -6.3133 2.6011
-9.8846 -6.3331 2.5981
-9.6998 -6.3523 2.5952
-9.5514 -6.3925 2.6011
-9.5375 -6.5225 2.6437
-9.5266 -6.6561 2.6877
-9.4030 -6.7111 2.7000
-9.2308 -6.7292 2.6977
-9.0590 -6.7444 2.6945
-8.8672 -6.7413 2.6843
-8.6182 -6.6900 2.6553
-8.4892 -6.7281 2.6620
-8.3055 -6.7200 2.6507
-8.1264 -6.7120 2.6398
-7.9517 -6.7041 2.6291
-7.7811 -6.6962 2.6187
-7.6417 -6.7121 2.6178
-7.5108 -6.7332 2.6191
-7.3817 -6.7539 2.6204
-7.2545 -6.7741 2.6217
-7.1289 -6.7939 2.6231
-7.0051 -6.8133 2.6244
-6.8829 -6.8323 2.6257
-6.7623 -6.8509 2.6270
-6.6433 -6.8691 2.6283
-6.5257 -6.8870 2.6295
-6.4095 -6.9044 2.6308
-6.2947 -6.9216 2.6321
-6.1813 -6.9384 2.6334
-6.0672 -6.9526 2.6338
-5.9541 -6.9662 2.6341
-5.8424 -6.9794 2.6344
-5.7320 -6.9924 2.6347
-5.6221 -7.0043 2.6348
-5.5132 -7.0154 2.6346
-5.4055 -7.0264 2.6345
-5.2989 -7.0370 2.6344
-5.1935 -7.0475 2.6343
-5.0636 -7.0222 2.6210
-4.9858 -7.0674 2.6341
-4.8830 -7.0762 2.6337
-4.7812 -7.0848 2.6333
-4.6805 -7.0932 2.6329
-4.5807 -7.1014 2.6326
-4.4818 -7.1094 2.6322
-4.3839 -7.1172 2.6319
-4.2869 -7.1248 2.6316
-4.1907 -7.1323 2.6313
-11.3350 3.1472 0.3538
-11.3356 3.0301 0.3852
-11.3362 2.9136 0.4165
-11.3368 2.7978 0.4478
-11.3374 2.6824 0.4791
-11.3380 2.5676 0.5104
-11.3386 2.4533 0.5416
-11.3392 2.3395 0.5729
-11.3398 2.2261 0.6042
-11.3404 2.1131 0.6354
-11.3410 2.0005 0.6667
-11.3416 1.8883 0.6981
-11.3422 1.7764 0.7294
-11.3428 1.6648 0.7608
-11.3434 1.5536 0.7923
-11.3440 1.4426 0.8237
-11.3445 1.3318 0.8553
-11.3451 1.2213 0.8869
-11.3457 1.1110 0.9186
-11.3463 1.0009 0.9503
-11.3469 0.8909 0.9821
-11.3474 0.7810 1.0140
-11.3480 0.6713 1.0460
-11.3486 0.5617 1.0781
-11.3492 0.4521 1.1103
-11.3497 0.3426 1.1427
-11.3498 0.2331 1.1751
-11.3501 0.1236 1.2076
-11.3505 0.0141 1.2403
-11.3508 -0.0955 1.2731
-11.3511 -0.2051 1.3060
-11.3515 -0.3148 1.3391
-11.3518 -0.4246 1.3724
-11.3522 -0.5345 1.4058
-11.3525 -0.6446 1.4394
-11.3528 -0.7548 1.4732
-11.3532 -0.8653 1.5071
-11.3535 -0.9759 1.5413
-11.3539 -1.0868 1.5757
-11.3542 -1.1980 1.6102
-11.3545 -1.3095 1.6450
-11.3549 -1.4212 1.6800
-11.3552 -1.5333 1.7153
-11.3556 -1.6458 1.7508
-11.3559 -1.7587 1.7865
-11.3563 -1.8719 1.8225
-11.3566 -1.9856 1.8588
-11.3570 -2.0998 1.8953
-11.3573 -2.2144 1.9321
-11.3577 -2.3296 1.9693
-11.3580 -2.4453 2.0067
-11.3584 -2.5616 2.0445
-11.3587 -2.6785 2.0825
-11.3587 -2.7959 2.1209
-11.3592 -2.9141 2.1597
-11.3597 -3.0329 2.1988
-11.3601 -3.1525 2.2383
-11.3606 -3.2729 2.2782
-11.3611 -3.3940 2.3185
-11.3616 -3.5160 2.3592
-11.3621 -3.6388 2.4003
-11.3626 -3.7625 2.4418
-11.3631 -3.8871 2.4838
-11.3636 -4.0126 2.5263
-11.3641 -4.1392 2.5692
-11.3646 -4.2667 2.6126
-11.3651 -4.3954 2.6565
-11.3656 -4.5252 2.7010
-11.3662 -4.6561 2.7459
-11.3667 -4.7882 2.7915
-11.1817 -4.8412 2.7913
-10.9790 -4.8833 2.7856
-10.7813 -4.9240 2.7801
-10.5882 -4.9635 2.7748
-10.3996 -5.0018 2.7697
-10.2153 -5.0390 2.7647
-10.0351 -5.0750 2.7598
-9.8590 -5.1100 2.7551
-9.6868 -5.1440 2.7506
-9.5477 -5.1931 2.7547
-9.5339 -5.3098 2.7949
-9.5239 -5.4298 2.8368
-9.4433 -5.5100 2.8579
-9.2819 -5.5414 2.8541
-9.1237 -5.5719 2.8504
-8.9541 -5.5927 2.8422
-8.7771 -5.6057 2.8307
-8.5493 -5.5822 2.8015
-8.4354 -5.6300 2.8086
-8.2705 -5.6413 2.7979
-8.1092 -5.6522 2.7876
-7.9515 -5.6627 2.7775
-7.7928 -5.6694 2.7660
-7.6369 -5.6753 2.7546
-7.4845 -5.6808 2.7435
-7.3355 -5.6861 2.7327
-7.1896 -5.6910 2.7221
-7.0483 -5.6968 2.7124
-6.9354 -5.7234 2.7129
-6.8239 -5.7494 2.7134
-6.7137 -5.7748 2.7139
-6.6049 -5.7998 2.7144
-6.4973 -5.8242 2.7149
-6.3910 -5.8481 2.7155
-6.2859 -5.8715 2.7160
-6.1820 -5.8944 2.7166
-6.0792 -5.9169 2.7172
-5.9774 -5.9389 2.7178
-5.8768 -5.9605 2.7184
-5.7771 -5.9816 2.7190
-5.6785 -6.0023 2.7196
-5.5809 -6.0226 2.7203
-5.4842 -6.0424 2.7209
-5.3884 -6.0619 2.7216
-5.2935 -6.0810 2.7222
-5.1995 -6.0997 2.7229
-5.0859 -6.0936 2.7127
-5.0140 -6.1361 2.7243
-4.9224 -6.1537 2.7250
-4.8316 -6.1710 2.7257
-4.7401 -6.1860 2.7256
-4.6493 -6.2006 2.7255
-4.5593 -6.2150 2.7254
-4.4701 -6.2290 2.7253
-4.3816 -6.2427 2.7252
-4.2938 -6.2561 2.7252
-4.2066 -6.2692 2.7251
-4.1197 -6.2814 2.7248
-4.0333 -6.2930 2.7244
-3.9476 -6.3044 2.7241
-3.8625 -6.3155 2.7237
-3.7780 -6.3263 2.7234
-11.3373 3.3047 0.8852
-11.3343 3.1861 0.9150
-11.3349 3.0693 0.9450
-11.3355 2.9531 0.9751
-11.3361 2.8375 1.0053
-11.3367 2.7223 1.0355
-11.3373 2.6077 1.0657
-11.3379 2.4936 1.0960
-11.3385 2.3800 1.1264
-11.3391 2.2667 1.1568
-11.3397 2.1539 1.1873
-11.3403 2.0415 1.2179
-11.3409 1.9294 1.2485
-11.3415 1.8177 1.2793
-11.3421 1.7063 1.3101
-11.3427 1.5951 1.3411
-11.3433 1.4843 1.3722
-11.3438 1.3736 1.4033
-11.3444 1.2632 1.4346
-11.3450 1.1530 1.4661
-11.3456 1.0429 1.4976
-11.3462 0.9331 1.5293
-11.3467 0.8233 1.5611
-11.3473 0.7136 1.5931
-11.3479 0.6041 1.6253
-11.3485 0.4946 1.6576
-11.3490 0.3851 1.6901
-11.3496 0.2756 1.7228
-11.3491 0.1662 1.7554
-11.3495 0.0567 1.7884
-11.3498 -0.0528 1.8216
-11.3501 -0.1624 1.8550
-11.3505 -0.2721 1.8886
-11.3508 -0.3819 1.9225
-11.3511 -0.4918 1.9565
-11.3515 -0.6019 1.9908
-11.3518 -0.7122 2.0253
-11.3522 -0.8226 2.0601
-11.3525 -0.9333 2.0951
-11.3528 -1.0443 2.1304
-11.3532 -1.1555 2.1660
-11.3535 -1.2670 2.2018
-11.3539 -1.3788 2.2380
-11.3542 -1.4910 2.2744
-11.3545 -1.6035 2.3111
-11.3549 -1.7165 2.3482
-11.3552 -1.8298 2.3856
-11.3556 -1.9436 2.4233
-11.3559 -2.0579 2.4614
-11.3563 -2.1727 2.4998
-11.3566 -2.2879 2.5386
-11.3570 -2.4038 2.5777
-11.3573 -2.5202 2.6173
-11.3577 -2.6373 2.6573
-11.3580 -2.7549 2.6976
-11.3590 -2.8734 2.7385
-11.3595 -2.9925 2.7798
-11.3600 -3.1123 2.8215
-11.3604 -3.2329 2.8637
-11.3609 -3.3542 2.9063
-11.3614 -3.4764 2.9494
-11.1803 -3.5420 2.9452
-10.9911 -3.6018 2.9380
-10.8063 -3.6598 2.9309
-10.6256 -3.7162 2.9241
-10.4489 -3.7709 2.9174
-10.2761 -3.8240 2.9110
-10.1069 -3.8756 2.9047
-9.9413 -3.9258 2.8986
-9.7791 -3.9745 2.8927
-9.6209 -4.0222 2.8871
-9.5365 -4.0989 2.9032
-9.5274 -4.2080 2.9424
-9.5180 -4.3179 2.9821
-9.4271 -4.3908 2.9963
-9.2764 -4.4340 2.9910
-9.1284 -4.4761 2.9859
-8.9716 -4.5113 2.9771
-8.8111 -4.5420 2.9662
-8.6028 -4.5445 2.9381
-8.5003 -4.6004 2.9453
-8.3497 -4.6281 2.9352
-8.2022 -4.6551 2.9253
-8.0536 -4.6788 2.9142
-7.9072 -4.7013 2.9032
-7.7639 -4.7230 2.8923
-7.6235 -4.7440 2.8818
-7.4858 -4.7643 2.8715
-7.3508 -4.7839 2.8614
-7.2168 -4.8018 2.8509
-7.0827 -4.8173 2.8396
-6.9513 -4.8322 2.8286
-6.8225 -4.8466 2.8178
-6.6960 -4.8604 2.8073
-6.5720 -4.8737 2.7970
-6.4577 -4.8922 2.7902
-6.3602 -4.9218 2.7901
-6.2638 -4.9507 2.7900
-6.1684 -4.9791 2.7899
-6.0739 -5.0069 2.7899
-5.9804 -5.0341 2.7899
-5.8878 -5.0608 2.7899
-5.7961 -5.0870 2.7899
-5.7053 -5.1126 2.7899
-5.6153 -5.1378 2.7900
-5.5262 -5.1624 2.7901
-5.4378 -5.1866 2.7902
-5.3503 -5.2102 2.7903
-5.2635 -5.2334 2.7905
-5.1774 -5.2562 2.7907
-5.0921 -5.2785 2.7909
-5.0075 -5.3004 2.7911
-4.9235 -5.3218 2.7913
-4.8402 -5.3428 2.7915
-4.7575 -5.3634 2.7918
-4.6755 -5.3836 2.7921
-4.5941 -5.4034 2.7924
-4.5133 -5.4228 2.7927
-4.4330 -5.4419 2.7930
-4.3533 -5.4605 2.7934
-4.2742 -5.4788 2.7937
-4.1956 -5.4967 2.7941
-4.1175 -5.5143 2.7945
-4.0399 -5.5315 2.7949
-3.9628 -5.5484 2.7954
-3.8861 -5.5650 2.7958
-3.8099 -5.5812 2.7963
-3.7332 -5.5956 2.7961
-3.6570 -5.6097 2.7958
-3.5811 -5.6234 2.7955
-3.5058 -5.6368 2.7953
-3.4308 -5.6499 2.7951
-11.3360 3.4633 1.4240
-11.3368 3.3455 1.4527
-11.3336 3.2272 1.4810
-11.3342 3.1106 1.5099
-11.3348 2.9947 1.5389
-11.3354 2.8792 1.5680
-11.3360 2.7643 1.5972
-11.3366 2.6499 1.6265
-11.3372 2.5360 1.6559
-11.3378 2.4226 1.6855
-11.3384 2.3095 1.7152
-11.3390 2.1969 1.7450
-11.3396 2.0846 1.7749
-11.3402 1.9727 1.8050
-11.3408 1.8611 1.8353
-11.3414 1.7498 1.8657
-11.3419 1.6388 1.8963
-11.3425 1.5281 1.9270
-11.3431 1.4176 1.9580
-11.3437 1.3073 1.9891
-11.3443 1.1972 2.0203
-11.3449 1.0872 2.0518
-11.3454 0.9774 2.0835
-11.3460 0.8677 2.1154
-11.3466 0.7582 2.1475
-11.3472 0.6487 2.1798
-11.3477 0.5392 2.2123
-11.3483 0.4298 2.2451
-11.3489 0.3204 2.2781
-11.3481 0.2110 2.3110
-11.3484 0.1015 2.3445
-11.3488 -0.0079 2.3782
-11.3491 -0.1175 2.4121
-11.3494 -0.2272 2.4464
-11.3498 -0.3369 2.4809
-11.3501 -0.4469 2.5157
-11.3504 -0.5569 2.5508
-11.3508 -0.6672 2.5862
-11.3511 -0.7777 2.6219
-11.3514 -0.8884 2.6579
-11.3518 -0.9993 2.6943
-11.3521 -1.1106 2.7310
-11.3525 -1.2221 2.7680
-11.3528 -1.3340 2.8054
-11.3531 -1.4462 2.8432
-11.3535 -1.5588 2.8813
-11.3538 -1.6718 2.9198
-11.3542 -1.7853 2.9587
-11.3545 -1.8991 2.9980
-11.3549 -2.0135 3.0378
-11.3552 -2.1284 3.0779
-11.2537 -2.2237 3.0906
-11.0770 -2.3018 3.0820
-10.9040 -2.3777 3.0736
-10.7348 -2.4515 3.0655
-10.5690 -2.5232 3.0576
-10.4067 -2.5929 3.0499
-10.2476 -2.6608 3.0425
-10.0917 -2.7268 3.0352
-9.9388 -2.7910 3.0281
-9.7877 -2.8533 3.0209
-9.6394 -2.9138 3.0138
-9.5349 -2.9855 3.0198
-9.5256 -3.0866 3.0561
-9.5170 -3.1885 3.0931
-9.4884 -3.2842 3.1239
-9.3476 -3.3399 3.1176
-9.2092 -3.3942 3.1115
-9.0732 -3.4472 3.1055
-8.8978 -3.4825 3.0852
-8.7462 -3.5244 3.0723
-8.5876 -3.5607 3.0560
-8.4991 -3.6242 3.0642
-8.3635 -3.6659 3.0550
-8.2255 -3.7043 3.0441
-8.0901 -3.7415 3.0335
-7.9572 -3.7777 3.0232
-7.8267 -3.8129 3.0130
-7.6986 -3.8471 3.0031
-7.5728 -3.8803 2.9935
-7.4466 -3.9112 2.9830
-7.3212 -3.9404 2.9722
-7.1981 -3.9688 2.9616
-7.0772 -3.9964 2.9512
-6.9583 -4.0231 2.9411
-6.8415 -4.0490 2.9312
-6.7267 -4.0742 2.9215
-6.6105 -4.0966 2.9105
-6.4961 -4.1182 2.8997
-6.3837 -4.1390 2.8891
-6.2731 -4.1592 2.8787
-6.1644 -4.1788 2.8686
-6.0574 -4.1978 2.8586
-5.9645 -4.2248 2.8547
-5.8793 -4.2561 2.8542
-5.7949 -4.2868 2.8537
-5.7113 -4.3169 2.8532
-5.6284 -4.3464 2.8528
-5.5462 -4.3754 2.8524
-5.4647 -4.4038 2.8520
-5.3839 -4.4316 2.8516
-5.3037 -4.4590 2.8513
-5.2242 -4.4858 2.8510
-5.1453 -4.5121 2.8507
-5.0670 -4.5379 2.8505
-4.9893 -4.5632 2.8503
-4.9122 -4.5880 2.8501
-4.8357 -4.6123 2.8499
-4.7597 -4.6362 2.8497
-4.6842 -4.6596 2.8496
-4.6093 -4.6826 2.8495
-4.5348 -4.7051 2.8494
-4.4609 -4.7272 2.8494
-4.3874 -4.7489 2.8493
-4.3145 -4.7702 2.8493
-4.2419 -4.7910 2.8493
-4.1698 -4.8115 2.8494
-4.0982 -4.8316 2.8494
-4.0270 -4.8512 2.8495
-3.9562 -4.8705 2.8496
-3.8857 -4.8894 2.8497
-3.8157 -4.9080 2.8498
-3.7461 -4.9261 2.8500
-3.6768 -4.9439 2.8502
-3.6079 -4.9614 2.8504
-3.5393 -4.9785 2.8506
-3.4711 -4.9953 2.8508
-3.4032 -5.0117 2.8511
-3.3356 -5.0278 2.8513
-3.2683 -5.0436 2.8516
-3.2014 -5.0591 2.8520
-3.1347 -5.0742 2.8523
-11.3347 3.6250 1.9728
-11.3355 3.5068 2.0001
-11.3362 3.3892 2.0277
-11.3369 3.2723 2.0554
-11.3334 3.1548 2.0824
-11.3340 3.0390 2.1104
-11.3347 2.9238 2.1385
-11.3353 2.8092 2.1668
-11.3359 2.6950 2.1953
-11.3365 2.5813 2.2240
-11.3371 2.4680 2.2529
-11.3377 2.3551 2.2819
-11.3383 2.2427 2.3111
-11.3389 2.1306 2.3406
-11.3394 2.0188 2.3702
-11.3400 1.9074 2.4001
-11.3406 1.7963 2.4302
-11.3412 1.6854 2.4605
-11.3418 1.5748 2.4910
-11.3424 1.4644 2.5218
-11.3429 1.3543 2.5528
-11.3435 1.2443 2.5841
-11.3441 1.1344 2.6156
-11.3447 1.0247 2.6473
-11.3453 0.9151 2.6794
-11.3458 0.8057 2.7117
-11.3464 0.6962 2.7443
-11.3470 0.5869 2.7771
-11.3476 0.4775 2.8103
-11.3481 0.3682 2.8437
-11.3487 0.2588 2.8775
-11.3473 0.1494 2.9111
-11.3477 0.0400 2.9454
-11.3480 -0.0695 2.9800
-11.3484 -0.1791 3.0150
-11.3487 -0.2889 3.0503
-11.3490 -0.3988 3.0860
-11.3494 -0.5088 3.1220
-11.3497 -0.6191 3.1584
-11.3500 -0.7296 3.1952
-11.3458 -0.8399 3.2311
-11.1823 -0.9372 3.2214
-11.0221 -1.0317 3.2120
-10.8650 -1.1238 3.2029
-10.7109 -1.2134 3.1940
-10.5598 -1.3007 3.1853
-10.4106 -1.3856 3.1766
-10.2626 -1.4680 3.1676
-10.1174 -1.5483 3.1588
-9.9748 -1.6266 3.1503
-9.8347 -1.7028 3.1420
-9.6972 -1.7772 3.1339
-9.5631 -1.8498 3.1263
-9.5264 -1.9400 3.1504
-9.5186 -2.0362 3.1843
-9.5107 -2.1327 3.2186
-9.4638 -2.2204 3.2399
-9.3348 -2.2876 3.2329
-9.2078 -2.3532 3.2261
-9.0827 -2.4172 3.2194
-8.9359 -2.4732 3.2044
-8.7751 -2.5226 3.1836
-8.5625 -2.5538 3.1429
-8.4714 -2.6187 3.1461
-8.3604 -2.6758 3.1415
-8.2508 -2.7317 3.1370
-8.1427 -2.7863 3.1325
-8.0359 -2.8398 3.1282
-7.9305 -2.8921 3.1240
-7.8264 -2.9433 3.1199
-7.7092 -2.9879 3.1100
-7.5919 -3.0304 3.0996
-7.4765 -3.0719 3.0893
-7.3629 -3.1123 3.0793
-7.2512 -3.1516 3.0695
-7.1412 -3.1899 3.0599
-7.0329 -3.2272 3.0505
-6.9245 -3.2628 3.0406
-6.8162 -3.2966 3.0301
-6.7095 -3.3295 3.0198
-6.6046 -3.3615 3.0097
-6.5012 -3.3927 2.9998
-6.3994 -3.4230 2.9902
-6.2991 -3.4525 2.9807
-6.1986 -3.4804 2.9706
-6.0983 -3.5066 2.9601
-5.9995 -3.5322 2.9497
-5.9022 -3.5570 2.9396
-5.8063 -3.5811 2.9297
-5.7118 -3.6046 2.9199
-5.6187 -3.6274 2.9104
-5.5430 -3.6602 2.9095
-5.4680 -3.6925 2.9086
-5.3936 -3.7241 2.9078
-5.3197 -3.7552 2.9071
-5.2463 -3.7857 2.9063
-5.1735 -3.8156 2.9056
-5.1012 -3.8450 2.9049
-5.0294 -3.8739 2.9043
-4.9581 -3.9022 2.9037
-4.8872 -3.9300 2.9031
-4.8169 -3.9573 2.9025
-4.7470 -3.9841 2.9020
-4.6776 -4.0104 2.9015
-4.6086 -4.0362 2.9011
-4.5400 -4.0616 2.9006
-4.4718 -4.0864 2.9002
-4.4041 -4.1109 2.8998
-4.3368 -4.1348 2.8995
-4.2698 -4.1584 2.8991
-4.2032 -4.1814 2.8988
-4.1370 -4.2041 2.8985
-4.0712 -4.2263 2.8983
-4.0057 -4.2481 2.8981
-3.9405 -4.2696 2.8979
-3.8757 -4.2906 2.8977
-3.8112 -4.3112 2.8975
-3.7471 -4.3314 2.8974
-3.6832 -4.3512 2.8973
-3.6197 -4.3707 2.8972
-3.5564 -4.3898 2.8971
-3.4934 -4.4085 2.8971
-3.4308 -4.4268 2.8971
-3.3684 -4.4448 2.8971
-3.3062 -4.4624 2.8971
-3.2443 -4.4797 2.8972
-3.1827 -4.4967 2.8972
-3.1213 -4.5133 2.8973
-3.0601 -4.5295 2.8974
-2.9992 -4.5455 2.8976
-2.9385 -4.5611 2.8977
-2.8780 -4.5763 2.8979
-11.3334 3.7904 2.5344
-11.3341 3.6718 2.5603
-11.3349 3.5538 2.5865
-11.3356 3.4366 2.6129
-11.3363 3.3199 2.6396
-11.3327 3.2026 2.6654
-11.3333 3.0871 2.6925
-11.3339 2.9721 2.7197
-11.3345 2.8576 2.7473
-11.3351 2.7437 2.7750
-11.3357 2.6302 2.8030
-11.3363 2.5171 2.8313
-11.3369 2.4044 2.8598
-11.3375 2.2922 2.8886
-11.3381 2.1802 2.9176
-11.3387 2.0687 2.9469
-11.3393 1.9574 2.9765
-11.3398 1.8464 3.0064
-11.3404 1.7357 3.0365
-11.3410 1.6252 3.0669
-11.3416 1.5150 3.0977
-11.3422 1.4049 3.1287
-11.3427 1.2951 3.1600
-11.3433 1.1854 3.1917
-11.3439 1.0758 3.2236
-11.3445 0.9663 3.2559
-11.3450 0.8569 3.2886
-11.3456 0.7476 3.3215
-11.3462 0.6383 3.3549
-11.2415 0.5241 3.3571
-11.0968 0.4105 3.3470
-10.9545 0.2997 3.3371
-10.8147 0.1917 3.3275
-10.6770 0.0863 3.3180
-10.5387 -0.0164 3.3079
-10.4028 -0.1167 3.2980
-10.2691 -0.2145 3.2884
-10.1377 -0.3098 3.2789
-10.0084 -0.4029 3.2698
-9.8812 -0.4938 3.2608
-9.7560 -0.5824 3.2520
-9.6332 -0.6691 3.2436
-9.5332 -0.7553 3.2425
-9.5200 -0.8475 3.2710
-9.5130 -0.9404 3.3019
-9.5060 -1.0334 3.3331
-9.4652 -1.1226 3.3528
-9.3482 -1.2015 3.3453
-9.2328 -1.2786 3.3380
-9.1190 -1.3540 3.3308
-8.9926 -1.4255 3.3186
-8.8550 -1.4929 3.3017
-8.7201 -1.5585 3.2852
-8.5326 -1.6118 3.2481
-8.4458 -1.6818 3.2487
-8.3072 -1.7395 3.2289
-8.1802 -1.7975 3.2130
-8.0820 -1.8599 3.2080
-7.9849 -1.9210 3.2030
-7.8889 -1.9809 3.1982
-7.7940 -2.0395 3.1934
-7.7001 -2.0969 3.1888
-7.6072 -2.1532 3.1843
-7.5153 -2.2084 3.1798
-7.4244 -2.2624 3.1754
-7.3344 -2.3154 3.1711
-7.2442 -2.3669 3.1664
-7.1422 -2.4131 3.1562
-7.0417 -2.4581 3.1462
-6.9426 -2.5021 3.1363
-6.8449 -2.5451 3.1267
-6.7486 -2.5870 3.1173
-6.6535 -2.6279 3.1080
-6.5597 -2.6678 3.0989
-6.4659 -2.7063 3.0894
-6.3717 -2.7432 3.0793
-6.2788 -2.7791 3.0693
-6.1872 -2.8142 3.0596
-6.0968 -2.8483 3.0500
-6.0076 -2.8817 3.0407
-5.9195 -2.9143 3.0314
-5.8320 -2.9457 3.0221
-5.7436 -2.9754 3.0119
-5.6564 -3.0043 3.0019
-5.5704 -3.0324 2.9920
-5.4855 -3.0599 2.9824
-5.4016 -3.0866 2.9729
-5.3189 -3.1127 2.9636
-5.2431 -3.1416 2.9578
-5.1761 -3.1748 2.9566
-5.1095 -3.2075 2.9556
-5.0434 -3.2396 2.9545
-4.9777 -3.2711 2.9535
-4.9123 -3.3021 2.9526
-4.8474 -3.3325 2.9517
-4.7829 -3.3624 2.9508
-4.7187 -3.3918 2.9499
-4.6549 -3.4206 2.9491
-4.5914 -3.4490 2.9483
-4.5284 -3.4768 2.9475
-4.4656 -3.5042 2.9468
-4.4032 -3.5310 2.9461
-4.3411 -3.5574 2.9454
-4.2794 -3.5834 2.9448
-4.2180 -3.6088 2.9441
-4.1568 -3.6339 2.9436
-4.0960 -3.6584 2.9430
-4.0355 -3.6826 2.9425
-3.9752 -3.7063 2.9420
-3.9153 -3.7295 2.9415
-3.8556 -3.7524 2.9411
-3.7962 -3.7748 2.9406
-3.7370 -3.7968 2.9402
-3.6781 -3.8185 2.9399
-3.6195 -3.8397 2.9395
-3.5611 -3.8605 2.9392
-3.5029 -3.8810 2.9389
-3.4450 -3.9011 2.9387
-3.3873 -3.9208 2.9384
-3.3298 -3.9401 2.9382
-3.2726 -3.9591 2.9380
-3.2155 -3.9776 2.9378
-3.1587 -3.9959 2.9377
-3.1020 -4.0138 2.9376
-3.0456 -4.0313 2.9375
-2.9893 -4.0485 2.9374
-2.9333 -4.0654 2.9374
-2.8774 -4.0819 2.9373
-2.8217 -4.0981 2.9373
-2.7661 -4.1139 2.9373
-2.7107 -4.1295 2.9374
-2.6555 -4.1447 2.9374
-11.3321 3.9604 3.1117
-11.3328 3.8414 3.1362
-11.3335 3.7231 3.1611
-11.3342 3.6054 3.1862
-11.3349 3.4884 3.2116
-11.3356 3.3720 3.2372
-11.3363 3.2562 3.2632
-11.3325 3.1396 3.2882
-11.3331 3.0249 3.3147
-11.3337 2.9106 3.3415
-11.3343 2.7969 3.3687
-11.3349 2.6836 3.3961
-11.3355 2.5707 3.4239
-11.3361 2.4583 3.4519
-11.3367 2.3462 3.4803
-11.2998 2.2271 3.4975
-11.1735 2.0923 3.4868
-11.0489 1.9606 3.4764
-10.9262 1.8319 3.4663
-10.8050 1.7062 3.4564
-10.6856 1.5833 3.4466
-10.5652 1.4628 3.4363
-10.4454 1.3449 3.4259
-10.3273 1.2297 3.4157
-10.2109 1.1171 3.4058
-10.0960 1.0071 3.3960
-9.9827 0.8995 3.3865
-9.8709 0.7943 3.3772
-9.7606 0.6914 3.3680
-9.6520 0.5908 3.3592
-9.5453 0.4924 3.3508
-9.5182 0.3994 3.3703
-9.5121 0.3076 3.3974
-9.5059 0.2158 3.4248
-9.4997 0.1241 3.4526
-9.4454 0.0324 3.4631
-9.3394 -0.0581 3.4545
-9.2348 -0.1467 3.4461
-9.1313 -0.2334 3.4378
-9.0250 -0.3182 3.4282
-8.9088 -0.4006 3.4144
-8.7942 -0.4810 3.4009
-8.6810 -0.5594 3.3875
-8.5129 -0.6318 3.3521
-8.4425 -0.7093 3.3548
-8.3263 -0.7814 3.3389
-8.2065 -0.8510 3.3212
-8.0838 -0.9183 3.3018
-7.9634 -0.9836 3.2829
-7.8682 -1.0502 3.2739
-7.7823 -1.1166 3.2686
-7.6972 -1.1817 3.2633
-7.6129 -1.2455 3.2581
-7.5293 -1.3081 3.2531
-7.4466 -1.3695 3.2481
-7.3646 -1.4298 3.2432
-7.2833 -1.4889 3.2384
-7.2027 -1.5469 3.2337
-7.1229 -1.6039 3.2291
-7.0437 -1.6597 3.2246
-6.9653 -1.7145 3.2202
-6.8875 -1.7684 3.2158
-6.8103 -1.8212 3.2115
-6.7289 -1.8716 3.2050
-6.6413 -1.9191 3.1952
-6.3015 -2.0986 3.1580
-6.5549 -1.9655 3.1857
-6.2190 -2.1411 3.1491
-6.4694 -2.0109 3.1763
-6.1374 -2.1826 3.1403
-6.3850 -2.0552 3.1670
-6.0556 -2.2228 3.1311
-5.9734 -2.2615 3.1214
-5.6541 -2.4081 3.0842
-5.8922 -2.2994 3.1119
-5.5766 -2.4427 3.0753
-5.8119 -2.3365 3.1025
-5.4999 -2.4765 3.0666
-5.7326 -2.3727 3.0933
-5.4218 -2.5085 3.0568
-5.3447 -2.5398 3.0471
-5.0447 -2.6576 3.0100
-5.2684 -2.5703 3.0376
-4.9717 -2.6853 3.0011
-5.1930 -2.6001 3.0282
-4.9107 -2.7186 2.9991
-5.1184 -2.6292 3.0190
-4.8511 -2.7519 2.9979
-4.7918 -2.7846 2.9966
-4.5574 -2.9100 2.9920
-4.7327 -2.8167 2.9954
-4.4995 -2.9400 2.9910
-4.6740 -2.8483 2.9943
-4.4419 -2.9696 2.9899
-4.6156 -2.8794 2.9931
-4.3846 -2.9986 2.9890
-4.3275 -3.0272 2.9880
-4.1018 -3.1366 2.9845
-4.2707 -3.0552 2.9871
-4.0459 -3.1629 2.9837
-4.2141 -3.0828 2.9862
-3.9903 -3.1886 2.9829
-4.1578 -3.1100 2.9853
-3.9350 -3.2140 2.9821
-3.8798 -3.2389 2.9814
-3.6614 -3.3342 2.9789
-3.8249 -3.2633 2.9808
-3.6073 -3.3570 2.9783
-3.7702 -3.2874 2.9801
-3.5534 -3.3794 2.9778
-3.7157 -3.3110 2.9795
-3.4997 -3.4014 2.9772
-3.4462 -3.4230 2.9768
-3.2339 -3.5057 2.9751
-3.3928 -3.4442 2.9763
-3.1813 -3.5254 2.9747
-3.3397 -3.4651 2.9759
-3.1288 -3.5448 2.9744
-3.2867 -3.4856 2.9754
-3.0765 -3.5638 2.9741
-3.0243 -3.5824 2.9738
-2.8172 -3.6536 2.9729
-2.9723 -3.6007 2.9735
-2.7658 -3.6705 2.9727
-2.9205 -3.6187 2.9733
-2.7145 -3.6871 2.9726
-2.8688 -3.6363 2.9731
-2.6633 -3.7034 2.9724
-2.6123 -3.7194 2.9724
-2.5614 -3.7350 2.9723
-2.5106 -3.7503 2.9722
-2.4599 -3.7653 2.9722
-11.0818 4.0452 3.6266
-10.9821 3.8928 3.6161
-10.8832 3.7435 3.6058
-10.7852 3.5972 3.5957
-10.6880 3.4539 3.5859
-10.5917 3.3134 3.5762
-10.4961 3.1758 3.5667
-10.4014 3.0408 3.5574
-10.3048 2.9079 3.5473
-10.2079 2.7772 3.5371
-10.1119 2.6492 3.5271
-10.0168 2.5238 3.5172
-9.9225 2.4010 3.5076
-9.8292 2.2805 3.4981
-9.7367 2.1625 3.4888
-9.6453 2.0469 3.4798
-9.5552 1.9337 3.4712
-9.5145 1.8320 3.4805
-9.5093 1.7379 3.5030
-9.5042 1.6441 3.5259
-9.4989 1.5506 3.5490
-9.4935 1.4574 3.5724
-9.4397 1.3576 3.5777
-9.3484 1.2539 3.5688
-9.2579 1.1522 3.5601
-9.1683 1.0525 3.5515
-9.0794 0.9548 3.5432
-8.9856 0.8583 3.5326
-8.8900 0.7636 3.5212
-8.7954 0.6708 3.5101
-8.6979 0.5798 3.4975
-8.5561 0.4880 3.4668
-8.5001 0.4031 3.4705
-8.4030 0.3177 3.4574
-8.3064 0.2341 3.4443
-8.2037 0.1522 3.4284
-8.1025 0.0723 3.4127
-8.0026 -0.0058 3.3974
-7.8989 -0.0820 3.3801
-7.7928 -0.1563 3.3615
-7.6884 -0.2287 3.3433
-7.6076 -0.3001 3.3351
-7.5330 -0.3704 3.3294
-7.4589 -0.4394 3.3238
-7.3853 -0.5073 3.3183
-7.3123 -0.5739 3.3129
-7.2398 -0.6393 3.3076
-7.1678 -0.7036 3.3024
-7.0964 -0.7668 3.2973
-7.0254 -0.8288 3.2922
-6.9550 -0.8898 3.2873
-6.8850 -0.9497 3.2824
-6.8155 -1.0085 3.2777
-6.7465 -1.0664 3.2730
-6.6779 -1.1232 3.2684
-6.6098 -1.1791 3.2639
-6.5421 -1.2340 3.2594
-6.4749 -1.2879 3.2550
-6.4081 -1.3409 3.2508
-6.3418 -1.3930 3.2465
-6.2669 -1.4422 3.2378
-6.1916 -1.4900 3.2285
-6.1169 -1.5369 3.2194
-6.0430 -1.5828 3.2105
-5.9699 -1.6278 3.2017
-5.8974 -1.6719 3.1930
-5.8256 -1.7151 3.1845
-5.7545 -1.7573 3.1761
-5.6828 -1.7984 3.1671
-5.6109 -1.8383 3.1578
-5.5398 -1.8773 3.1487
-5.4693 -1.9156 3.1397
-5.3995 -1.9530 3.1308
-5.3304 -1.9896 3.1221
-5.2620 -2.0255 3.1136
-5.1942 -2.0606 3.1051
-5.1255 -2.0944 3.0958
-5.0570 -2.1272 3.0865
-4.9893 -2.1594 3.0773
-4.9223 -2.1908 3.0683
-4.8558 -2.2216 3.0594
-4.7901 -2.2517 3.0507
-4.7249 -2.2811 3.0421
-4.6658 -2.3126 3.0372
-4.6123 -2.3461 3.0357
-4.5590 -2.3791 3.0343
-4.5059 -2.4116 3.0330
-4.4531 -2.4435 3.0316
-4.4004 -2.4749 3.0303
-4.3479 -2.5059 3.0291
-4.2957 -2.5363 3.0279
-4.2436 -2.5663 3.0267
-4.1917 -2.5957 3.0255
-4.1400 -2.6247 3.0244
-4.0885 -2.6533 3.0233
-4.0372 -2.6813 3.0223
-3.9861 -2.7089 3.0212
-3.9351 -2.7361 3.0202
-3.8843 -2.7628 3.0193
-3.8337 -2.7891 3.0184
-3.7832 -2.8149 3.0175
-3.7330 -2.8404 3.0166
-3.6828 -2.8654 3.0158
-3.6329 -2.8899 3.0150
-3.5830 -2.9141 3.0142
-3.5334 -2.9379 3.0134
-3.4838 -2.9613 3.0127
-3.4344 -2.9842 3.0120
-3.3852 -3.0068 3.0113
-3.3361 -3.0290 3.0107
-3.2872 -3.0508 3.0101
-3.2383 -3.0723 3.0095
-3.1897 -3.0933 3.0090
-3.1411 -3.1140 3.0084
-3.0927 -3.1344 3.0079
-3.0444 -3.1543 3.0074
-2.9962 -3.1740 3.0070
-2.9481 -3.1932 3.0066
-2.9001 -3.2121 3.0062
-2.8523 -3.2307 3.0058
-2.8045 -3.2489 3.0054
-2.7569 -3.2668 3.0051
-2.7094 -3.2844 3.0048
-2.6620 -3.3016 3.0045
-2.6146 -3.3185 3.0043
-2.5674 -3.3351 3.0040
-2.5203 -3.3513 3.0038
-2.4732 -3.3673 3.0036
-2.4263 -3.3829 3.0035
-2.3794 -3.3982 3.0033
-2.3327 -3.4132 3.0032
-2.2860 -3.4279 3.0031
-9.5041 3.6226 3.6300
-9.5001 3.5204 3.6464
-9.4962 3.4189 3.6630
-9.4922 3.3180 3.6800
-9.4881 3.2178 3.6973
-9.4798 3.1168 3.7132
-9.4098 2.9969 3.7051
-9.3370 2.8781 3.6961
-9.2644 2.7612 3.6871
-9.1922 2.6464 3.6784
-9.1202 2.5336 3.6697
-9.0485 2.4227 3.6612
-8.9733 2.3128 3.6514
-8.8983 2.2047 3.6416
-8.8237 2.0985 3.6319
-8.7495 1.9943 3.6224
-8.6708 1.8908 3.6110
-8.5549 1.7814 3.5840
-8.4771 1.6820 3.5728
-8.4363 1.5915 3.5773
-8.3592 1.4954 3.5664
-8.2806 1.4008 3.5549
-8.1986 1.3073 3.5417
-8.1173 1.2157 3.5289
-8.0368 1.1259 3.5162
-7.9569 1.0378 3.5037
-7.8715 0.9508 3.4887
-7.7864 0.8655 3.4736
-7.7022 0.7820 3.4589
-7.6156 0.7000 3.4429
-7.5253 0.6194 3.4250
-7.4362 0.5406 3.4075
-7.3635 0.4646 3.3974
-7.2999 0.3904 3.3914
-7.2365 0.3175 3.3855
-7.1735 0.2458 3.3796
-7.1108 0.1753 3.3739
-6.8629 -0.0956 3.3520
-7.0484 0.1059 3.3683
-6.8017 -0.1606 3.3467
-6.9863 0.0376 3.3628
-6.7408 -0.2245 3.3415
-6.9245 -0.0295 3.3573
-6.6801 -0.2874 3.3364
-6.6198 -0.3493 3.3314
-6.3812 -0.5870 3.3121
-6.5597 -0.4102 3.3265
-6.3222 -0.6441 3.3075
-6.4999 -0.4701 3.3216
-6.2635 -0.7003 3.3029
-6.4404 -0.5290 3.3168
-6.2051 -0.7555 3.2985
-6.1470 -0.8099 3.2941
-5.9124 -1.0181 3.2746
-6.0891 -0.8634 3.2897
-5.8470 -1.0667 3.2657
-6.0314 -0.9161 3.2855
-5.7820 -1.1143 3.2570
-5.9740 -0.9679 3.2813
-5.7175 -1.1610 3.2483
-5.6536 -1.2069 3.2398
-5.4027 -1.3818 3.2071
-5.5901 -1.2519 3.2314
-5.3394 -1.4230 3.1981
-5.5272 -1.2960 3.2232
-5.2765 -1.4634 3.1893
-5.4647 -1.3393 3.2151
-5.2142 -1.5030 3.1806
-5.1523 -1.5418 3.1720
-4.9098 -1.6897 3.1388
-5.0910 -1.5799 3.1635
-4.8489 -1.7243 3.1299
-5.0301 -1.6172 3.1552
-4.7882 -1.7582 3.1210
-4.9697 -1.6538 3.1469
-4.7281 -1.7914 3.1122
-4.6685 -1.8239 3.1035
-4.4367 -1.9483 3.0715
-4.6093 -1.8557 3.0950
-4.3887 -1.9819 3.0699
-4.5506 -1.8869 3.0866
-4.3408 -2.0149 3.0684
-4.4924 -1.9175 3.0782
-4.2931 -2.0474 3.0669
-4.2455 -2.0795 3.0654
-4.0564 -2.2028 3.0600
-4.1980 -2.1110 3.0640
-4.0095 -2.2325 3.0587
-4.1507 -2.1421 3.0626
-3.9626 -2.2617 3.0574
-4.1035 -2.1727 3.0613
-3.8694 -2.3187 3.0550
-3.9159 -2.2904 3.0562
-3.6843 -2.4276 3.0506
-3.8229 -2.3466 3.0539
-3.5010 -2.5298 3.0467
-3.6383 -2.4538 3.0496
-3.7766 -2.3740 3.0528
-3.4554 -2.5544 3.0458
-3.5924 -2.4795 3.0486
-3.7304 -2.4010 3.0517
-3.4100 -2.5785 3.0449
-3.5466 -2.5049 3.0476
-3.3194 -2.6256 3.0433
-3.3646 -2.6023 3.0441
-3.1394 -2.7154 3.0403
-3.2742 -2.6486 3.0425
-2.9608 -2.7992 3.0377
-3.0946 -2.7369 3.0396
-3.2292 -2.6712 3.0417
-2.9164 -2.8193 3.0371
-3.0499 -2.7580 3.0389
-3.1842 -2.6935 3.0410
-2.8721 -2.8390 3.0366
-3.0053 -2.7788 3.0383
-2.7837 -2.8775 3.0355
-2.8278 -2.8584 3.0360
-2.6077 -2.9504 3.0338
-2.7396 -2.8962 3.0351
-2.4330 -3.0181 3.0324
-2.5639 -2.9678 3.0334
-2.6956 -2.9146 3.0346
-2.3894 -3.0342 3.0321
-2.5202 -2.9848 3.0330
-2.6516 -2.9326 3.0342
-2.3460 -3.0500 3.0319
-2.4766 -3.0016 3.0327
-2.3026 -3.0655 3.0316
-2.2592 -3.0807 3.0314
-2.2160 -3.0956 3.0312
-2.1728 -3.1102 3.0311
-2.1296 -3.1246 3.0309
-8.4802 3.3752 3.7230
-8.4249 3.2635 3.7133
-8.3695 3.1535 3.7037
-8.3140 3.0452 3.6943
-8.2585 2.9386 3.6850
-8.2029 2.8336 3.6758
-8.1446 2.7293 3.6656
-8.0845 2.6261 3.6546
-8.0246 2.5246 3.6439
-7.9647 2.4247 3.6332
-7.9049 2.3265 3.6227
-7.8444 2.2296 3.6120
-7.7799 2.1332 3.5995
-7.7156 2.0385 3.5872
-7.6516 1.9454 3.5750
-7.5878 1.8539 3.5630
-7.5197 1.7630 3.5490
-7.4509 1.6734 3.5347
-7.3825 1.5856 3.5206
-7.3123 1.4989 3.5056
-7.2381 1.4131 3.4887
-7.1646 1.3290 3.4721
-7.1031 1.2485 3.4613
-7.0508 1.1710 3.4550
-6.9985 1.0946 3.4488
-6.9464 1.0194 3.4427
-6.8943 0.9452 3.4367
-6.8423 0.8722 3.4307
-6.7904 0.8003 3.4249
-6.7386 0.7294 3.4191
-6.6868 0.6596 3.4135
-6.6352 0.5908 3.4079
-6.5837 0.5230 3.4024
-6.5322 0.4563 3.3970
-6.4809 0.3905 3.3916
-6.4297 0.3257 3.3864
-6.3785 0.2619 3.3812
-6.3275 0.1990 3.3761
-6.2766 0.1371 3.3711
-6.2258 0.0760 3.3661
-6.1751 0.0159 3.3613
-6.1246 -0.0434 3.3564
-6.0741 -0.1018 3.3517
-6.0238 -0.1593 3.3470
-5.9736 -0.2160 3.3424
-5.9234 -0.2718 3.3379
-5.8735 -0.3268 3.3335
-5.8236 -0.3810 3.3291
-5.7738 -0.4344 3.3247
-5.7242 -0.4870 3.3205
-5.6747 -0.5389 3.3163
-5.6254 -0.5899 3.3121
-5.5735 -0.6400 3.3065
-5.5168 -0.6886 3.2980
-5.4605 -0.7363 3.2896
-5.4046 -0.7833 3.2813
-5.3489 -0.8294 3.2731
-5.2936 -0.8747 3.2651
-5.2386 -0.9192 3.2571
-5.1839 -0.9629 3.2493
-5.1296 -1.0059 3.2416
-5.0748 -1.0480 3.2335
-5.0195 -1.0891 3.2250
-4.9646 -1.1294 3.2165
-4.9099 -1.1691 3.2082
-4.8557 -1.2080 3.2001
-4.8017 -1.2462 3.1920
-4.7482 -1.2837 3.1840
-4.6949 -1.3206 3.1762
-4.6420 -1.3568 3.1684
-4.5879 -1.3918 3.1598
-4.5342 -1.4262 3.1512
-4.4808 -1.4600 3.1428
-4.4279 -1.4931 3.1345
-4.3752 -1.5255 3.1263
-4.3229 -1.5574 3.1182
-4.2710 -1.5887 3.1102
-4.2199 -1.6195 3.1027
-4.1768 -1.6528 3.1010
-4.1339 -1.6857 3.0994
-4.0910 -1.7181 3.0978
-4.0481 -1.7500 3.0963
-4.0054 -1.7814 3.0947
-3.9627 -1.8124 3.0933
-3.9201 -1.8430 3.0918
-3.8775 -1.8730 3.0904
-3.8351 -1.9027 3.0890
-3.7927 -1.9319 3.0877
-3.7504 -1.9607 3.0863
-3.7082 -1.9891 3.0850
-3.6660 -2.0170 3.0838
-3.6239 -2.0446 3.0826
-3.5819 -2.0717 3.0814
-3.5399 -2.0984 3.0802
-3.4980 -2.1247 3.0791
-3.4562 -2.1506 3.0780
-3.4144 -2.1761 3.0769
-3.3727 -2.2013 3.0759
-3.3311 -2.2260 3.0748
-3.2895 -2.2504 3.0739
-3.2480 -2.2744 3.0729
-3.2066 -2.2980 3.0720
-3.1652 -2.3212 3.0711
-3.1239 -2.3441 3.0702
-3.0826 -2.3666 3.0694
-3.0414 -2.3888 3.0686
-3.0003 -2.4106 3.0678
-2.9592 -2.4320 3.0670
-2.9182 -2.4531 3.0663
-2.8772 -2.4739 3.0656
-2.8363 -2.4943 3.0649
-2.7954 -2.5144 3.0642
-2.7546 -2.5341 3.0636
-2.7138 -2.5535 3.0630
-2.6731 -2.5726 3.0624
-2.6324 -2.5914 3.0618
-2.5918 -2.6098 3.0613
-2.5513 -2.6279 3.0608
-2.5107 -2.6457 3.0603
-2.4702 -2.6632 3.0598
-2.4298 -2.6804 3.0594
-2.3894 -2.6972 3.0590
-2.3491 -2.7138 3.0586
-2.3088 -2.7300 3.0582
-2.2685 -2.7460 3.0579
-2.2283 -2.7616 3.0576
-2.1881 -2.7770 3.0573
-2.1479 -2.7920 3.0570
-2.1078 -2.8068 3.0568
-2.0677 -2.8212 3.0565
-2.0277 -2.8354 3.0563
-1.9877 -2.8493 3.0561
-7.3473 3.0542 3.6657
-7.3007 2.9568 3.6540
-7.2540 2.8608 3.6424
-7.2071 2.7663 3.6310
-7.1587 2.6726 3.6190
-7.1070 2.5792 3.6055
-7.0552 2.4873 3.5921
-7.0034 2.3968 3.5789
-6.9470 2.3062 3.5635
-6.8898 2.2170 3.5478
-6.8343 2.1297 3.5331
-6.7943 2.0486 3.5265
-6.7540 1.9685 3.5200
-6.7136 1.8895 3.5136
-6.6730 1.8115 3.5072
-6.6323 1.7346 3.5010
-6.5915 1.6586 3.4948
-6.5505 1.5837 3.4887
-6.5094 1.5098 3.4827
-6.4682 1.4368 3.4768
-6.4269 1.3649 3.4710
-6.3855 1.2938 3.4652
-6.3440 1.2238 3.4595
-6.3024 1.1546 3.4539
-6.2607 1.0864 3.4484
-6.2190 1.0191 3.4429
-6.1772 0.9527 3.4375
-6.1353 0.8871 3.4322
-6.0934 0.8225 3.4269
-6.0514 0.7587 3.4217
-6.0094 0.6958 3.4166
-5.9673 0.6337 3.4116
-5.9252 0.5724 3.4066
-5.8831 0.5120 3.4017
-5.8409 0.4524 3.3969
-5.7987 0.3935 3.3921
-5.7565 0.3355 3.3874
-5.7143 0.2783 3.3828
-5.6720 0.2218 3.3782
-5.6298 0.1661 3.3737
-5.5875 0.1111 3.3692
-5.5453 0.0569 3.3648
-5.5030 0.0034 3.3605
-5.4607 -0.0494 3.3562
-5.4185 -0.1014 3.3519
-5.3762 -0.1528 3.3478
-5.3340 -0.2034 3.3437
-5.2918 -0.2534 3.3396
-5.2468 -0.3025 3.3339
-5.1981 -0.3506 3.3258
-5.1496 -0.3980 3.3177
-5.1013 -0.4446 3.3098
-5.0532 -0.4904 3.3020
-5.0052 -0.5355 3.2943
-4.9575 -0.5799 3.2867
-4.9099 -0.6236 3.2792
-4.8625 -0.6665 3.2718
-4.8152 -0.7088 3.2644
-4.7668 -0.7501 3.2562
-4.7186 -0.7907 3.2481
-4.6707 -0.8307 3.2401
-4.6229 -0.8700 3.2322
-4.5754 -0.9086 3.2245
-4.5281 -0.9466 3.2168
-4.4810 -0.9840 3.2092
-4.4341 -1.0207 3.2017
-4.3870 -1.0566 3.1940
-4.3393 -1.0918 3.1858
-4.2918 -1.1263 3.1776
-4.2446 -1.1602 3.1696
-4.1976 -1.1935 3.1616
-4.1509 -1.2263 3.1538
-3.9355 -1.3866 3.1278
-3.8970 -1.4186 3.1262
-3.8585 -1.4502 3.1245
-4.1044 -1.2584 3.1461
-3.8201 -1.4814 3.1229
-3.7817 -1.5121 3.1214
-3.7433 -1.5424 3.1198
-3.7049 -1.5723 3.1183
-3.6666 -1.6018 3.1169
-3.6283 -1.6309 3.1154
-3.5900 -1.6595 3.1140
-4.0581 -1.2900 3.1384
-3.5517 -1.6878 3.1127
-3.5135 -1.7156 3.1113
-3.4753 -1.7431 3.1100
-3.4371 -1.7701 3.1087
-3.3990 -1.7968 3.1075
-3.3609 -1.8231 3.1063
-3.3228 -1.8490 3.1051
-4.0126 -1.3211 3.1313
-3.2847 -1.8746 3.1039
-3.2467 -1.8998 3.1028
-3.2087 -1.9246 3.1017
-3.1707 -1.9490 3.1006
-3.1328 -1.9731 3.0996
-3.0949 -1.9968 3.0986
-3.9740 -1.3541 3.1295
-3.0570 -2.0202 3.0976
-2.8680 -2.1317 3.0930
-2.8303 -2.1530 3.0922
-2.7926 -2.1740 3.0914
-2.7549 -2.1946 3.0906
-2.7173 -2.2150 3.0899
-3.0191 -2.0432 3.0966
-2.6796 -2.2349 3.0892
-2.6420 -2.2546 3.0885
-2.6045 -2.2739 3.0878
-2.5669 -2.2930 3.0871
-2.5294 -2.3117 3.0865
-2.4919 -2.3301 3.0859
-2.4544 -2.3482 3.0853
-2.9813 -2.0658 3.0957
-2.4170 -2.3659 3.0848
-2.3796 -2.3834 3.0842
-2.3422 -2.4006 3.0837
-2.3048 -2.4175 3.0833
-2.2674 -2.4340 3.0828
-2.2301 -2.4503 3.0824
-2.9435 -2.0881 3.0948
-2.1928 -2.4663 3.0819
-2.1555 -2.4820 3.0815
-2.1182 -2.4974 3.0812
-2.0810 -2.5125 3.0808
-2.0437 -2.5273 3.0805
-2.0065 -2.5419 3.0802
-2.9057 -2.1101 3.0939
-1.9693 -2.5562 3.0799
-1.9321 -2.5702 3.0797
-1.8949 -2.5839 3.0794
-1.8578 -2.5973 3.0792
